<?xml version="1.0" encoding="iso-8859-1"?>
<!-- Generator: Adobe Illustrator 19.0.0, SVG Export Plug-In . SVG Version: 6.00 Build 0)  -->
<svg xmlns="http://www.w3.org/2000/svg" xmlns:xlink="http://www.w3.org/1999/xlink" version="1.1" id="Layer_1" x="0px" y="0px" viewBox="0 0 512.001 512.001" style="enable-background:new 0 0 512.001 512.001;" xml:space="preserve">
<g>
	<path style="fill:#F3757A;" d="M316.907,99.212c-16.178-1.665-31.383-2.092-47.408,0.185c-15.075,2.142-30.492,2.31-45.182,6.69   c-18.07,5.388-35.336,13.542-51.352,23.455c-15.199,9.407-29.638,20.969-40.019,35.674c-2.953,4.183-5.191,13.126-10.168,14.709   c-5.197,1.652-10.967-1.671-16.258-0.951c-9.463,1.287-11.593,12.195-19.368,14.976c-3.166,1.133-5.687,1.407-8.461,3.619   c-2.464,1.963-3.761,5.001-6.264,6.679c-2.694,1.806-6.83,2.124-9.868,3.067c-4.259,1.322-8.471,2.666-12.787,3.831   c-19.782,5.336-34.696,21.231-40.719,40.664c-3.349,10.809-4.662,21.956-4.611,33.244c0.035,7.555,1.923,14.452,3.998,21.683   c1.98,6.896,3.616,14.634,7.878,20.588c6.765,9.454,15.482,18.318,27.483,19.841c11.556,1.467,9.073-7.747,7.954-16.298   c-2.808-21.472-15.686-44.465-1.203-64.409c2.52-3.471,5.438-7.832,9.145-7.243c3.371,0.534,5.594,3.498,6.622,6.362   c3.728,10.378-2.22,25.436-4.148,35.817c-1.688,9.087,2.189,12.656,11.091,9.265c11.308-4.308,16.426-22.202,19.44-32.66   c1.799-6.244,1.775-12.001,2.079-18.39c0.249-5.23-0.506-12.873,1.88-17.74c1.641-3.349,6.044-7.556,8.601-10.351   c1.663-1.817,4.048-4.381,6.479-2.699c3.064,2.128,2.153,10.199,2.041,13.361c-0.227,6.425,0.378,12.531,1.941,18.854   c3.157,12.772,9.738,24.527,20.04,32.879c3.595,2.914,21.72,9.665,11.007,13.31c-10.99,3.739-22.948,6.924-32.651,13.514   c-5.169,3.511-16.073,13-15.019,20.532c0.669,4.778,7.382,3.157,11.175,2.385c5.576-1.134,13.523-4.249,19.028-1.753   c3.292,1.492,5.681,4.507,9.116,5.962c5.997,2.541,15.143,0.484,20.261,5.099c8.461,7.626-12.375,13.151-16.695,14.805   c-10.998,4.21-23.621,6.053-35.01,2.94c-6.652-1.818-43.666-14.667-39.028,2.195c5.335,19.393,13.749,36.052,32.894,44.774   c22.859,10.414,49.754,11.772,74.174,8.315c12.89-1.825,25.101-3.825,35.352-12.412c9.751-8.168,12.026-20.108,25.37-23.584   c11.839-3.084,19.075-7.251,23.555-19.372c1.316-3.56,2.526-7.945,5.062-10.743c2.583-2.852,6.02-4.399,8.424-7.655   c2.359-3.195,3.925-7.14,6.92-9.835c3.736-3.361,7.991-1.784,12.011-4.086c3.051-1.747,5.618-5.099,7.759-7.826   c5.391-6.868,8.201-15.135,13.343-22.217c5.704-7.858,13.374-10.71,22.912-12.025c8.035-1.108,16.968,0.061,24.821-1.91   c12.128-3.043,13.631-13.365,15.726-24.018c2.091-10.626,10.712-14.536,20.59-16.274c8.862-1.558,14.092-6.759,15.533-16.076   c2.297-14.853,11.394-25.706,26.058-30.391c4.803-1.535,7.396-2.329,7.678-8.028c0.36-7.311-4.101-15.367-7.461-21.562   c-4.602-8.483-9.226-16.8-15.805-23.972c-9.737-10.615-21.307-19.29-31.672-29.223C370.33,104.791,344.306,102.033,316.907,99.212z   "/>
	<path style="fill:#F3757A;" d="M344.372,315.658c-7.204,1.843-16.769,5.546-18.805,13.925c-1.746,7.191,1.236,15.661,7.542,19.383   c8.112,4.789,17.177,2.207,25.677-0.32c6.457-1.919,12.006-3.261,17.391,1.387c11.609,10.02,1.39,30.002,9.95,41.76   c7.872,10.813,12.935-7.325,13.805-13.218c1.005-6.814,0.714-13.888,0.896-20.776c0.185-6.998,1.014-13.818,0.595-20.835   c-0.605-10.144-1.338-23.091-12.772-25.662c-7.597-1.708-16.422-0.161-24.005,0.766   C357.742,312.914,350.065,314.315,344.372,315.658z"/>
	<path style="fill:#F3757A;" d="M398.84,278.683c-13.397-0.323-8.712,22.982-1.598,27.842c11.725,8.012,30.446-9.152,39.915,3.916   c3.696,5.101,3.571,12.092,4.22,18.139c0.73,6.801,5.091,11.603,11.852,6.299c7.747-6.078,6.947-22.186,6.529-30.563   c-0.36-7.223,0.36-15.117-2.408-21.971c-1.923-4.761-11.614-7.471-11.525-12.499c0.087-4.936,8.096-5.734,11.429-6.349   c10.551-1.948,22.951-2.191,30.606,6.601c3.615,4.152,5.207,12.153,10.685,14.57c7.261,3.206,9.288-6.825,9.668-12.109   c1.208-16.781-7.969-34.882-21.101-45.141c-14.049-10.976-38.564,0.921-51.589,8.821c-3.674,2.228-8.239,4.336-8.856,8.83   c-0.44,3.208,0.757,7.771,1.694,10.885c0.871,2.894,3.012,6.923,2.232,10.014c-0.927,3.674-3.814,3.397-6.987,4.401   C413.715,273.498,404.062,278.11,398.84,278.683z"/>
</g>
<g>
	<path style="fill:#DB4B56;" d="M341.191,316.851c-7.077,0.559-13.274,8.541-14.928,14.953c-1.58,6.127,2.835,11.723-3.449,15.252   c-4.906,2.754-29.134-1.078-25.922-9.367c1.394-3.597,6.484-7.141,8.827-10.316c3.046-4.126,4.868-7.895,6.449-12.686   c2.792-8.455,6.382-14.064,14.819-18.121c12.565-6.042,31.864,4.636,41.487-8.541c5.584-7.647,4.268-19.242,10.275-26.486   c5.308-6.399,12.97-8.616,20.575-7.517c7.255,1.048,10.039-4.362,12.432-10.501c4.098-10.514,3.986-24.174,15.33-30.07   c3.684-1.916,8.454-4.43,12.704-4.395c5.32,0.044,4.986,3.814,5.258,8.422c0.431,7.307,0.431,11.937-5.873,16.478   c-6.219,4.48-12.538,7.945-12.502,16.468c0.027,6.551,5.961,13.453-0.686,17.941c-4.027,2.718-8.806,4.616-13.301,6.431   c-5.415,2.186-14.27,2.708-18.836,6.438c-5.049,4.124-0.543,14.623,1.49,19.801c3.485,8.876-0.655,9.561-8.806,10.228   c-11.729,0.959-24.038,0.627-35.619,2.793C346.534,314.877,342.178,315.956,341.191,316.851z"/>
	<path style="fill:#DB4B56;" d="M242.99,334.345c2.075-9.264,12.549-12.797,20.274-15.803c7.456-2.901,13.374-3.751,18.987,2.772   c7.23,8.402,0.415,18.611-4.992,26.041c-4.901,6.735-13.342,16.294-16.864,3.677c-1.45-5.193-2.186-10.076-7.368-12.721   C250.498,337.02,240.622,336.705,242.99,334.345z"/>
	<path style="fill:#DB4B56;" d="M96.283,239.72c-2.525-7.784-6.249-14.679-10.227-21.933c-2.161-3.942-4.667-6.525-7.963-9.476   c-2.241-2.006-5.469-4.594-3.687-7.97c3.108-5.893,15.407-7.288,21.172-6.363c8.04,1.289,14.029,8.567,14.64,16.597   c0.469,6.16-1.391,14.995-4.804,20.099C103.75,233.162,97.805,238.536,96.283,239.72z"/>
	<path style="fill:#DB4B56;" d="M134.053,164.976c-0.976-9.344-12.1-19.226-21.382-15.99c-8.047,2.805-16.148,6.901-23.757,10.704   c-4.325,2.161-14.488,10.292-19.865,8.486c-6.152-2.066-0.045-12.168,1.939-15.416c5.176-8.468,13.441-15.138,21.259-21.14   c6.514-4.999,15.185-10.557,23.719-8.79c6.88,1.424,12.924,6.295,18.887,9.792c3.878,2.275,13.855,6.434,15.024,11.283   C151.627,151.169,139.199,162.034,134.053,164.976z"/>
	<path style="fill:#DB4B56;" d="M172.618,129.591c0.212-6.102-5.65-14.842-12.127-15.471c-5.404-0.524-25.299,7.963-27.853-0.618   c-1.718-5.774,7.898-11.622,11.726-13.724c6.752-3.708,14.794-7.642,22.598-8.365c9.045-0.837,19.308,6.957,22.055,15.405   c1.107,3.404,3.086,8.697,1.893,11.822C189.243,123.011,177.72,131.139,172.618,129.591z"/>
	<path style="fill:#DB4B56;" d="M204.16,112.415c-2.325-2.902-0.902-8.399-0.534-11.447c0.463-3.848,2.507-8.354,5.062-11.375   c4.192-4.958,11.379-8.79,18.052-7.128c7.292,1.817,17.936,13.219,11.649,20.324c-3.435,3.882-11.702,5.509-16.467,6.926   c-4.289,1.275-12.905,6.539-16.967,3.474C204.653,112.958,204.388,112.698,204.16,112.415z"/>
</g>
<g>
	<path style="fill:#FDE1D9;" d="M318.539,120.188c-8.186-5.489-18.71-7.73-28.642-7.531c-5.469-0.326-10.992-0.119-16.108,0.029   c-11.826,0.34-24.068,2.524-35.232,6.332c-11.113,3.791-21.306,9.992-30.311,17.499c-3.777,3.149-13.72,11.554-8.915,17.545   c5.63,7.018,20.624-0.026,26.816-2.141c4.586-1.566,9.017-3.638,13.462-5.555c5.94-2.562,11.815-4.464,18.058-6.132   c13.608-3.635,27.775,1.759,41.168,4.212c8.356,1.53,21.506,3.287,27.419-4.788c2.678-3.655,1.817-9.221-0.132-12.958   C324.604,123.787,321.272,122.021,318.539,120.188z"/>
	<path style="fill:#FDE1D9;" d="M392.644,148.948c-2.096-4.791-6.104-7.066-9.848-10.253c-4.029-3.429-8.696-7.715-14.183-8.895   c-4.649-1.001-10.695,0.124-15.343,0.935c-2.811,0.491-3.591,1.25-5.488,2.525c-2.14,1.438-4.875,2.479-6.232,4.798   c-2.359,4.031,0.521,9.157,3.14,12.339c1.478,1.796,3.316,3.01,5.248,4.264c3.041,1.974,5.661,4.456,8.959,6.028   c7.925,3.776,23.679,7.792,31.225,1.082C393.581,158.695,394.459,153.098,392.644,148.948z"/>
</g>
<path d="M507.925,254.127c-1.467-4.671-3.214-8.497-5.629-12.752c-2.375-4.188-5.24-7.481-8.144-11.305  c-2.927-3.854-6.217-8.175-10.718-10.25c-4.534-2.09-10.186-1.189-14.932-0.373c-5.897,1.014-11.197,2.946-16.775,5.018  c0.254-3.713,0.782-7.412,0.73-11.119c-0.076-5.341-0.784-10.574-1.452-15.861c-1.194-9.454-5.132-19.213-9.76-27.527  c-4.912-8.825-11.25-17.162-17.361-25.187c-2.444-3.21-5.317-5.755-7.914-8.792c-2.937-3.434-5.873-6.819-9.547-9.481  c-3.606-2.611-7.47-5.197-11.383-7.309c-4.38-2.364-8.254-5.415-12.588-7.886c-8.462-4.827-17.211-7.958-26.515-10.676  c-4.794-1.4-9.563-2.208-14.503-2.946c-4.606-0.688-9.068-1.992-13.671-2.631c-9.006-1.251-18.53-2.032-27.611-2.057  c-4.791-0.013-9.512-0.686-14.331-0.654c-5.254,0.035-10.685,0.327-15.929,0.66c-8.879,0.565-18.058,2.51-26.72,4.61  c-0.137-5.686-3.595-12.412-7.942-15.72c-5.304-4.037-10.331-3.802-16.098-1.028c-6.337,3.047-12.339,7.119-16.275,13.078  c-3.284,4.97-2.888,11.542-1.814,17.392c-2.402,1.096-4.79,2.224-7.16,3.384c-1.406-2.965-1.512-6.979-3.007-9.984  c-1.406-2.826-2.958-5.568-4.876-8.078c-3.627-4.748-7.186-7.777-13.288-8.464c-13.354-1.504-24.544,5.067-34.817,12.818  c-4.24,3.2-8.497,8.662-8.311,14.277c0.192,5.786,5.76,7.297,10.497,6.531c3.484-0.563,6.808-0.713,10.272-1.566  c4.526-1.116,10.799-4.085,14.299-0.037c1.851,2.141,2.397,5.763,3.703,8.576c-6.255,4.124-12.272,8.686-17.902,13.634  c-0.807-1.036-1.319-2.387-2.115-3.389c-0.891-1.124-1.906-1.697-2.973-2.575c-2.716-2.234-5.264-4.739-8.092-6.919  c-5.409-4.17-10.905-8.507-17.585-10.485c-13.918-4.123-27.624,8.055-37.056,16.509c-4.773,4.277-9.245,9.969-12.647,15.38  c-3.167,5.038-7.342,8.136-6.857,14.788c0.413,5.654,5.416,7.687,10.553,7.038c6.357-0.804,12.445-5.747,17.887-8.863  c3.94-2.255,8.056-4.111,11.992-6.429c3.68-2.166,8.336-5.303,12.673-5.176c4.135,0.12,7.422,2.636,9.333,6.09  c1.291,2.334,3.019,4.361,4.525,6.524c-2.898,4.295-5.528,8.79-7.897,13.242c-0.047,0.088-0.091,0.178-0.137,0.266  c-10.365-7.773-29.031-1.298-32.196,11.669c-7.785,1.139-14.285,5.305-18.798,11.876c-8.146-1.002-14.981,2.588-23.167,5.818  c-9.124,3.602-18.745,9.741-25.119,17.241c-3.707,4.363-7.146,7.839-9.652,13.041c-0.648,1.345-1.297,2.793-1.899,4.287  C3.423,256.148-1.224,272.24,0.282,287.808c0.995,10.289,2.644,20.362,5.739,30.254c1.386,4.429,4.627,8.582,7.452,12.223  c3.157,4.068,6.688,7.764,10.836,10.822c3.802,2.803,8.359,4.903,12.783,6.558c1.9,0.71,3.763,0.982,5.761,1.264  c2.859,0.404,5.931,1.481,8.752,0.365c8.208-3.25,5.71-11.076,4.857-17.487c-1.362-10.224-4.769-19.914-7.165-29.914  c-1.344-5.608-2.702-11.826-1.561-17.605c1.121-5.674,3.866-10.637,6.686-15.55c0.805-1.403,2.276-5.165,3.715-5.927  c1.077-0.57,2.687,1.192,3.565,2.507c2.513,3.769,1.987,10.747,1.751,15.124c-0.332,6.144-2.563,11.895-3.839,17.854  c-0.864,4.031-2.461,10.079-0.186,13.866c3.855,6.417,12.02,3.427,16.94,0.637c8.148-4.618,14.18-14.148,17.166-22.916  c3.387-9.945,5.931-19.71,6.085-30.23c0.079-5.359-0.301-10.063-0.99-15.319c-0.056-0.427-0.1-0.849-0.148-1.273  c0.156-0.174,0.302-0.367,0.432-0.587c0.71-1.005,2.575-1.625,3.603-2.387c1.64-1.214,2.951-2.687,4.313-4.179  c0.051-0.056,0.098-0.116,0.148-0.172c-0.014,1.07-0.03,2.14-0.018,3.208c0.117,10.807,1.856,20.321,6.847,29.861  c2.258,4.314,3.851,8.843,7.034,12.632c3.146,3.746,6.393,7.339,9.575,11.042c3.346,3.894,7.713,6.549,12.345,8.775  c0.568,0.272,1.163,0.57,1.776,0.878c-1.873,0.311-3.744,0.667-5.613,1.124c-7.91,1.931-15.525,5.763-21.876,10.832  c-7.301,5.825-15.946,11.957-20.687,20.267c-3.652,6.399-1.542,15.076,6.938,12.784c7.263-1.963,14.844-3.072,22.409-3.857  c2.366-0.246,3.76-1.547,5.601,0.519c1.095,1.229,1.617,2.858,2.864,4.053c2.64,2.533,6.339,3.817,9.941,3.988  c2.312,0.11,4.362-0.601,6.616-0.731c3.46-0.2,3.25,1.141,5.193,3.12c0.781,0.797,1.69,1.43,2.666,1.918  c-1.424,1.605-3.025,2.925-5.305,3.991c-4.018,1.879-8.449,3.396-12.799,4.247c-9.132,1.788-17.995,2.696-27.291,2.566  c-3.926-0.055-8.72-0.211-12.573-0.971c-4.006-0.79-7.622-2.623-11.727-3.237c-6.25-0.935-15.036-3.569-21.179-0.796  c-6.313,2.849-2.925,10-1.663,14.975c1.954,7.703,3.96,15.652,8.532,22.307c8.614,12.534,21.569,19.883,35.328,25.61  c6.406,2.667,13.427,4.451,20.294,5.434c8.616,1.233,16.954,2.697,25.672,2.734c4.046,0.017,8.138,0.345,12.18,0.073  c4.176-0.281,8.144-1.681,12.261-2.327c7.613-1.195,15.732-4.588,22.759-7.759c12.591-5.682,22.967-16.066,29.39-28.237  c2.743,0.286,5.694-0.474,8.31-1.252c4.652-1.384,8.477-3.106,12.438-5.93c6.911-4.93,12.294-15.286,12.847-23.885  c0.205-0.061,0.41-0.131,0.62-0.235c3.913-1.944,7.222-6.286,10.161-9.444c2.15-2.312,3.915-4.808,5.414-7.495  c0.32,0.072,0.658,0.119,1.036,0.109c3.248-0.094,6.188-1.073,8.918-2.537c3.027,4.191,9.301,6.635,13.862,7.631  c6.64,1.45,13.091,3.838,19.674,0.818c0.1-0.047,0.177-0.107,0.268-0.159c0.954-0.384,1.858-0.88,2.682-1.54  c2.381,2.426,5.329,4.405,8.461,5.409c5.388,1.727,12.316-0.631,17.366-2.558c5.482-2.092,12.673-5.531,18.603-2.673  c5.555,2.676,5.989,12.307,5.945,17.596c-0.057,6.969-0.117,13.914,1.831,20.698c1.171,4.078,5.136,8.999,9.611,9.326  c4.717,0.344,8.245-4.336,10.058-8.1c2.307-4.789,2.44-11.116,3.292-16.318c0.946-5.775,1.57-11.822,1.588-17.649  c0.039-12.911-2.827-25.35-4.036-38.203c-0.087-0.924-0.277-1.772-0.536-2.562c1.328-0.509,2.37-1.312,3.065-2.493  c0.732,0.178,1.473,0.317,2.226,0.376c5.447,0.425,9.451-1.002,14.544-2.626c4.169-1.33,9.495-1.933,13.016,1.442  c4.661,4.47,2.842,10.887,2.988,16.525c0.202,7.804,4.144,15.26,13.083,12.766c9.538-2.662,12.565-15.28,13.848-23.718  c0.754-4.958,0.516-9.997,0.516-14.997c0-5.168,0.583-10.643-1.047-15.628c-2.332-7.128-6.442-13.882-12.882-17.79  c7.888-2.216,15.639-4.609,24.109-3.802c4.455,0.423,8.365,1.991,12.037,4.627c4.937,3.544,3.161,9.163,6.363,13.404  c5.382,7.124,13.577,5.66,17.216-2.021C514.315,272.692,510.763,263.155,507.925,254.127z M208.662,97.676  c2.442-4.059,6.714-7.041,10.78-9.27c4.479-2.456,8.117-4.324,12.598-0.693c1.704,1.38,2.527,2.791,3.442,4.729  c0.984,2.084,2.576,4.073,3.477,6.206c-9.467,2.366-19.09,5.019-28.138,8.529c-1.027,0.398-2.043,0.821-3.061,1.239  C206.986,104.767,206.709,100.923,208.662,97.676z M158.817,111.448c-2.843,0.243-5.767,1.206-8.546,1.823  c-3.325,0.738-6.306,0.81-9.61,1.168c-0.574,0.062-2.031,0.734-2.451,0.582c-2.308-0.835-0.657-3.096,0.047-4.206  c1.733-2.734,4.014-3.962,6.555-5.775c7.911-5.642,15.767-10.439,25.857-9.93c11.339,0.571,13.644,13.833,18.931,21.733  c-1.869,0.936-3.733,1.88-5.595,2.823c-2.933,1.487-5.836,3.081-8.701,4.769c-0.677-1.314-1.622-3.499-1.837-3.825  c-1.146-1.737-2.411-3.468-3.791-5.027C166.986,112.541,162.874,111.101,158.817,111.448z M127.015,148.068  c-5.748-4.579-13.561-4.324-19.838-1.119c-7.402,3.78-14.494,8.335-21.673,12.478c-3.208,1.851-6.428,4.175-9.739,5.787  c-1.254,0.682-2.593,1.057-4.017,1.125c-1.796,0.354-2.469-0.264-2.017-1.852c-0.268-1.605,0.921-3.675,1.806-4.863  c9.221-12.379,20.698-25.278,35.552-31c4.146-1.597,7.979-2.347,12.168-0.673c3.93,1.571,7.306,3.851,10.755,6.24  c3.191,2.21,6.366,4.427,9.51,6.679c2.218,1.59,4.869,3.435,7.416,4.739c-2.993,2.793-5.869,5.686-8.596,8.678  c-1.091,1.198-2.141,2.455-3.173,3.734c-0.932-1.213-1.831-2.453-2.558-3.847C131.295,151.65,129.251,149.847,127.015,148.068z   M91.511,268.822c-0.958,4.854-2.135,9.623-3.552,14.365c-2.603,8.711-7.353,18.489-15.188,23.454  c-1.242,0.787-2.502,1.881-3.941,2.266c-2.496,0.669-3.228,0.117-3.645-2.199c-0.911-5.049,2.152-11.315,3.194-16.157  c1.675-7.769,2.668-17.52,0.68-25.346c-0.812-3.199-3.726-7.21-7.197-9.128c1.67-2.365,3.081-4.896,3.934-7.684  c1.386-4.529,1.243-11.955-1.84-15.861c-2.512-3.181-7.327-4.869-10.702-2.223c-0.689,0.54-0.536,1.688,0,2.252  c1.034,1.088,2.255,1.323,3.393,2.211c2.001,1.564,2.092,3.61,2.205,5.941c0.26,5.343-1.362,9.227-4.227,13.66  c-2.086,3.228-4.913,5.978-6.412,9.562c-0.532,1.273-0.988,2.545-1.395,3.825c-1.076,2.017-2.061,4.086-2.835,6.168  c-3.31,8.903-3.981,16.899-2.025,26.25c1.87,8.944,5.242,17.571,6.868,26.55c0.636,3.51,0.2,6.986,0.656,10.436  c0.495,3.757-1.366,2.405-5.141,1.895c-17.713-2.391-29.851-20.541-33.182-36.804c-2.083-10.168-3.923-20.849-2.183-31.151  c1.712-10.131,4.726-20.577,9.623-29.639c1.861-3.443,4.025-6.712,6.471-9.74c2.824-2.609,5.243-5.343,8.408-7.628  c3.845-2.777,8.657-5.209,12.942-7.271c3.391-1.632,7.385-2.952,10.93-4.251c2.84-1.041,8.394-1.783,10.299-1.849  c9.616-0.328,15.235,8.33,18.808,16.015c2.105,4.529,3.593,9.634,3.878,14.629c0.287,5.05,1.629,9.771,1.644,14.881  C91.988,260.457,92.329,264.676,91.511,268.822z M102.476,229.927c-1.214,1.678-3.094,2.957-4.916,4.26  c-0.314-2.302-0.763-4.599-1.558-6.918c-3.315-9.672-9.145-19.965-19.092-23.817c4.362-3.291,8.105-6.936,14.14-7.226  c8.242-0.395,15.545,5.534,15.617,13.935C106.728,217.377,106.797,223.955,102.476,229.927z M112.191,202.696  c-0.402-1.053-0.904-2.11-1.553-3.193c-3.038-5.068-9.938-8.9-16.169-9.542c1.25-1.355,2.44-2.734,3.799-4.092  c2.855-2.858,6.147-3.843,10.06-4.022c3.05-0.14,6.714,0.437,8.98,2.582c0.437,0.413,0.803,0.813,1.144,1.19  c-1.002,2.081-1.987,4.171-2.969,6.25C113.837,195.352,113.135,199.029,112.191,202.696z M232.476,366.341  c-0.687,3.822-2.418,7.542-3.499,11.271c-2.148,7.401-5.359,13.874-9.452,20.405c-3.875,6.183-10.959,10.636-16.962,14.539  c-5.911,3.844-13.446,6.061-20.135,8.21c-6.797,2.183-14.216,3.247-21.33,3.143c-14.176-0.205-28.525-1.659-42.242-5.267  c-12.042-3.167-26.571-9.771-35.095-19.091c-5.568-6.088-9.384-12.596-11.317-20.667c-0.456-1.902-3.176-8.579-1.96-10.143  c1.588-2.04,7.493,0.335,9.64,0.883c4.018,1.022,8.169,1.638,12.138,2.833c3.684,1.108,6.894,2.333,10.781,2.569  c8.03,0.488,16.405,1.626,24.44,0.478c8.488-1.212,17.322-2.985,25.249-6.313c6.196-2.601,9.606-5.609,12.645-10.76  c1.489-1.416,2.941-2.876,4.361-4.414c3.101-3.36,6.867-4.431,11.119-5.506c3.723-0.941,8.196-2.547,11.931-2.289  c4.375,0.302,7.257,2.439,11.226,3.795c1.224,0.419,2.735-0.957,2.228-2.228c-4.38-10.96-18.51-7.669-27.228-5.961  c-5.259,1.031-9.877,2.673-13.712,6.684c-0.771,0.805-1.539,1.634-2.278,2.488c-2.86,0.642-4.526-4.056-6.607-5.383  c-2.651-1.69-5.188-0.58-8.003-0.06c-3.445,0.636-7.297,0.71-9.994-1.955c-1.882-1.859-2.283-4.749-4.525-6.317  c-2.14-1.495-4.466-1.001-6.864-0.631c-3.114,0.481-6.304,0.683-9.45,1.094c-4.123,0.538-8.369,1.238-12.557,1.345  c0.809-1.343,1.937-2.569,2.958-3.726c2.054-2.328,4.287-4.486,6.554-6.604c4.559-4.258,9.63-7.759,14.891-11.023  c11.787-7.314,25.743-8.51,39.378-8.018c7.099,0.256,14.505,1.843,21.416,3.476c6.636,1.567,13.037,3.541,19.024,6.836  c2.572,1.415,5.085,2.939,7.544,4.548c5.086,3.777,9.467,8.411,12.486,14.091c1.231,2.315,1.611,2.805,1.91,5.41  c0.397,3.461,1.533,6.84,1.633,10.327C232.93,358.214,233.151,362.593,232.476,366.341z M227.027,324.304  c-5.357-4.481-10.562-8.442-16.845-11.314c-3.237-1.783-6.62-3.31-10.222-4.444c-14.667-4.616-29.868-8.045-45.127-7.463  c-1.401-0.688-3.129-2.272-4.361-2.953c-1.744-0.964-3.541-1.738-5.228-2.82c-3.931-2.52-7.264-5.309-10.236-8.887  c-2.388-2.875-4.639-5.779-7-8.681c-3.135-3.851-4.819-8.14-6.881-12.605c-1.578-3.416-2.845-6.283-3.816-9.946  c-1.338-5.052-1.487-10.123-1.437-15.321c0.094-9.684,0.797-19.538,3.535-28.882c1.076-3.67,2.011-7.37,3.074-11.038  c1.359-4.689,4.078-9.177,6.27-13.536c4.045-8.043,9.101-15.205,14.356-22.457c4.937-6.813,12.065-12.529,18.526-17.836  c3.794-3.117,8.068-5.683,12.118-8.446c3.742-2.551,7.306-5.648,11.448-7.532c7.593-3.454,14.97-7.326,22.655-10.702  c9.144-4.017,18.71-6.573,28.314-9.233c17.414-4.823,35.258-7.587,53.345-7.282c8.385,0.142,16.967,0.658,25.31,1.593  c4.045,0.453,8.142,0.349,12.16,1.034c4.22,0.719,8.335,1.806,12.583,2.455c9.12,1.393,18.045,3.54,26.615,7.009  c4.062,1.645,7.874,3.652,11.676,5.827c3.82,2.186,7.175,5.06,11.072,7.081c17.045,8.842,28.534,25.024,39.031,40.632  c5.501,8.179,10.651,18.112,12.198,27.948c0.423,2.694,0.732,5.417,0.951,8.148c-0.604-0.084-1.181-0.157-1.398-0.159  c-1.589-0.007-3.103,0.203-4.66,0.491c-3.839,0.711-7.003,2.052-10.139,4.383c-5.207,3.869-9.172,8.206-11.986,14.133  c-3.403,7.167-3.392,15.673-6.304,23.042c-0.299,0.757-0.87,3.272-1.381,3.874c-0.115,0.134-0.179,0.24-0.227,0.333  c-0.193-0.031-0.447-0.055-0.79-0.064c-0.748-0.019-1.574-0.299-2.313-0.429c-3.643-0.638-7.092-0.809-10.767-0.242  c-16.375,2.523-19.982,17.186-23.406,30.974c-0.527,2.124-1.434,6.053-2.586,7.817c-2.122,3.249-7.221,2.198-10.795,2.283  c-3.709,0.088-7.038-0.893-10.753-0.369c-4.062,0.575-8.109,0.768-12.042,2.057c-6.799,2.23-14.78,6.585-18.757,12.766  c-0.856,1.332-1.651,2.766-2.376,4.271c-1.647-6.522-5.37-12.532-10.539-16.874c-0.237-0.199-0.494-0.397-0.742-0.595  c-2.834-3.149-6.682-5.706-10.061-6.64c-5.481-1.514-13.722-1.289-18.924,1.264c-6.129,3.008-12.068,8.907-15.372,15.737  c-0.076,0.154-0.143,0.309-0.215,0.463c-2.548,5.497-3.371,11.559-1.214,17.187c-1.727,1.17-3.399,2.413-4.996,3.621  c-1.809,1.369-3.297,2.976-4.619,4.831c-0.403,0.565-0.84,1.066-1.115,1.702c-0.054,0.125-0.241,1.019-0.361,1.695  c-0.334-0.026-0.668-0.064-1.003-0.124c-2.037-0.359-4.136-0.039-6.116,0.666C232.809,329.515,229.804,326.628,227.027,324.304z   M258.475,359.476c-0.134,7.696-3.043,14.798-8.443,20.407c-2.292,2.381-5.564,4.172-8.714,5.119  c-1.454,0.437-3.4,1.184-5.309,1.594c0.875-2.736,1.492-5.557,2.257-8.328c1.145-4.15,2.807-8.183,3.166-12.509  c0.689-8.317-1.125-15.83-2.248-23.923c-0.175-1.264-0.525-2.508-1.004-3.726c2.607,0.082,5.726-0.122,8.386,0.301  c3.994,0.636,7.327,4.875,9.322,8.111C258.507,350.771,258.559,354.662,258.475,359.476z M281.396,333.285  c-0.915,3.138-2.691,6.314-4.3,9.152c-1.708,3.013-3.737,5.578-6.186,8.027c-1.506,1.505-3.137,3.514-4.906,5.105  c-0.166-2.948-0.607-5.859-1.851-8.577c-2.152-4.703-5.475-8.51-9.516-11.679c-1.777-1.394-3.398-2.636-5.681-3.018  c-1.001-0.168-1.994-0.167-2.987-0.131c0.547-0.334,1.088-0.68,1.566-1.113c1.573-1.422,2.929-2.812,4.733-4.015  c2.963-1.974,5.904-4.425,9.256-5.739c6.775-2.655,15.198-6.923,18.688,2.205C281.293,326.325,282.239,330.392,281.396,333.285z   M295.368,332.42c-2.75,2.415-5.858,5.05-9.43,6.137c1.276-3.18,2.246-6.517,1.542-9.921c-0.825-3.993-2.199-8.242-4.593-11.605  c-5.369-7.542-14.575-3.42-21.381-1.011c-1.093,0.386-2.166,0.867-3.223,1.401c0.72-3.634,0.739-7.426,2.093-10.967  c2.183-5.71,6.092-9.945,11.451-12.731c4.548-2.365,9.908-2.44,14.914-1.571c1.113,0.193,2.236,0.491,3.334,0.88  c2.104,1.171,4.056,2.685,5.615,4.117c6.831,6.281,10.438,16.001,7.804,25.23C302.197,326.92,298.757,329.441,295.368,332.42z   M322.359,332.535c-0.178,4.027,0.042,7.228,1.308,10.531c-0.633,0.079-1.291,0.167-1.989,0.227  c-3.451,0.297-7.035-0.215-10.427-0.737c-3.136-0.483-6.554-1.198-9.489-2.387c-0.8-0.324-1.607-0.714-2.42-1.096  c0.105-0.088,0.211-0.175,0.316-0.265c2.743-2.325,5.429-4.602,7.494-7.364c0.012-0.013,0.027-0.019,0.039-0.032  c4.714-5.441,5.836-13.894,9.067-20.28c3.521-6.96,13.025-11.733,20.448-12.932c7.665-1.238,15.243-0.074,22.939,0.143  c6.091,0.172,10.41-1.448,12.876-7.197c5.499-12.822,3.062-33.598,22.055-34.391c5.453-0.228,13.768,4.358,17.398-1.939  c0.954-1.654,1.162-3.687,1.898-5.488c1.558-3.813,2.241-8.154,3.288-12.133c1.112-4.226,1.53-8.466,3.763-12.305  c1.896-3.259,3.836-5.707,6.78-8.058c3.556-2.841,7.379-4.611,12.016-4.586c0.618,0.004,1.199,0.019,1.755,0.029  c0.025,4.859-0.737,9.494-0.445,14.407c0.052,0.881,0.273,1.644,0.608,2.298c-0.083,0.052-0.167,0.105-0.25,0.159  c-0.668,0.231-1.31,0.503-1.907,0.809c-3.893,1.994-8.154,4.518-11.429,7.44c-6.942,6.195-6.165,15.879-3.371,23.99  c0.587,1.702,1.566,3.653,2.76,5.41c-4.216,0.757-8.342,1.967-12.131,3.278c-4.962,1.718-10.186,2.978-14.873,5.398  c-6.279,1.048-12.587,4.515-14.123,10.9c-0.963,3.997,0.761,7.082,2.029,10.741c1.645,4.746,3.327,8.446,7.298,11.787  c0.148,0.124,0.305,0.241,0.458,0.364c-0.192,0.113-0.38,0.231-0.569,0.36c-6.115-3.402-15.544-3.199-21.404-2.473  c-0.662,0.082-1.33,0.175-1.999,0.27c-2.059-0.054-4.179,0.149-6.499,0.693c-6.374,1.494-13.031,2.209-19.482,3.489  c-5.038,1-11.566,3.712-15.807,6.63C325.247,321.723,322.63,326.378,322.359,332.535z M374.744,326.582  c-1.369,3.987-2.562,8.476-1.696,12.728c0.277,1.356,0.658,2.891,1.256,4.306c-3.913-1.218-8.437-1.071-12.427-0.555  c-9.279,1.202-21.926,10.492-28.743-0.569c-2.541-4.123-3.486-11.234,0.008-15.163c1.463-1.644,3.731-3.099,6.206-4.33  c2.363-0.691,4.68-1.647,7.032-2.349c5.491-1.638,11.028-3.142,16.714-3.923c4.74-0.651,9.491-1.76,14.262-1.915  c1.646-0.054,3.397-0.192,5.155-0.228C378.839,317.704,376.13,322.545,374.744,326.582z M397.268,373.277  c-0.902,4.294-1.244,9.165-2.729,13.275c-0.357,0.989-1.487,3.046-2.48,3.635c-1.608,0.955-2.146,0.31-3.347-1.271  c-1.722-2.269-2.629-8.282-2.908-11.187c-0.507-5.262,0.692-10.628,0.099-15.912c-0.477-4.259-2.028-8.91-4.239-12.611  c-0.768-1.285-1.698-2.335-2.75-3.188c-1.203-0.917-1.248-7.255-1.244-8.606c0.01-2.908,0.757-5.999,1.688-8.696  c1.038-3.003,2.678-6.508,4.882-8.874c1.957-2.1,4.345-2.764,6.809-3.579c0.363,0.211,0.718,0.438,1.06,0.702  c2.687,2.072,2.894,7.871,3.498,11.003c1.198,6.208,2.363,12.253,2.538,18.551c0.107,3.837,0.844,7.464,0.803,11.356  C398.895,362.84,398.291,368.401,397.268,373.277z M430.818,302.406c-4.324-0.885-8.62-0.173-13.088,1.135  c-3.892,1.14-7.631,2.708-11.803,1.937c-4.819-0.89-8.445-5.369-9.871-9.712c-1.355-4.128-4.026-7.983,0.681-10.96  c0.061-0.039,0.129-0.067,0.191-0.104c3.349-0.957,6.627-2.172,10.018-3.342c3.478-1.2,7.092-2.042,10.611-3.132  c3.609-1.119,7.035-2.687,10.837-3.156c1.688-0.209,3.378-0.348,5.049-0.391c-2.668,3.106-3.842,7.295-4.463,11.338  C428.46,289.402,428.137,297.963,430.818,302.406z M450.443,281.065c5.479,6.368,5.199,14.109,5.2,22.013  c0.001,8.27,0.334,17.097-3.323,24.774c-0.923,1.941-2.127,4.163-3.983,5.281c-1.973,1.189-2.228,0.711-3.086-0.94  c-1.763-3.391-0.218-8.942-0.487-12.678c-0.426-5.934-3.596-12.632-9.129-15.429c-0.087-0.044-0.174-0.08-0.261-0.122  c-0.732-1.555-0.6-4.266-0.834-5.785c-0.537-3.492-1.065-6.867-0.608-10.404c0.524-4.052,1.675-8.69,5.129-11.189  c0.588-0.425,1.211-0.825,1.842-1.225C444.476,276.217,447.755,277.941,450.443,281.065z M442.043,263.175  c-2.075,0.494-4.302,1.475-6.311,0.519c-1.729-0.824-2.97-3.09-3.749-4.829c-1.555-3.477-2.45-8.464-1.245-12.14  c1.435-4.382,6.225-5.291,9.593-7.644c2.092-1.462,5.978-4.352,7.505-4.609c0.765-0.128,1.333-0.563,1.71-1.143  c3.731-1.238,7.421-2.622,11.098-3.932c3.485-1.243,7.907-2.61,12.156-2.916c-4.27,4.518-7.834,12.987-8.321,16.042  c-0.666,4.187,0.174,9.588,2.43,13.208c0.404,0.649,0.989,1.57,1.639,2.4C459.55,258.252,450.062,261.265,442.043,263.175z   M501.799,280.205c-3.016,1.54-4.905-3.598-5.631-5.39c-2.632-6.491-6.595-9.361-12.439-12.961  c-3.195-1.969-6.676-3.027-10.299-3.471c-3.923-4.011-5.302-13.359-3.13-18.113c1.338-2.929,3.325-6.299,5.411-8.748  c1.236-1.45,3.232-2.592,4.342-4.176c1.403,0.54,2.684,1.338,3.775,2.475c4.814,5.015,9.083,10.813,12.6,16.741  c2.168,3.653,3.307,7.276,4.583,11.29c1.398,4.401,3.095,8.904,3.237,13.575C504.312,273.521,503.964,279.099,501.799,280.205z"/>
<path d="M170.135,204.909c-1.916-7.229-9.351-14.504-17.194-11.298c-6.497,2.656-11.678,10.33-8.997,17.193  c0.661,6.868,7.896,10.852,14.729,9.968c3.508-0.454,7.531-2.204,10.011-4.791C171.655,212.882,171.144,208.716,170.135,204.909z"/>
<path d="M227.877,223.365c-10.793-8.978-21.339,5.804-17.679,16.15c0.421,3.873,2.399,7.407,6.397,9.294  c5.966,2.816,14.507,0.39,16.405-6.431C234.756,236.057,233.033,227.654,227.877,223.365z"/>
<path d="M182.243,244.621c-0.682,2.321-1.503,5.211-3.826,6.449c-2.314,1.234-5.784,1.531-7.942-0.08  c-3.43-2.561-2.421-9.554-2.653-13.495c-0.107-1.852-1.873-2.781-3.503-2.011c-4.383,2.071-4.078,8.338-3.795,12.481  c0.366,5.352,2.871,8.892,7.685,11.186c4.804,2.29,10.545,1.905,15.138-0.969c4.09-2.558,8.279-8.591,6.726-13.561  C188.883,240.814,183.391,240.711,182.243,244.621z"/>
<g>
</g>
<g>
</g>
<g>
</g>
<g>
</g>
<g>
</g>
<g>
</g>
<g>
</g>
<g>
</g>
<g>
</g>
<g>
</g>
<g>
</g>
<g>
</g>
<g>
</g>
<g>
</g>
<g>
</g>
</svg>
