<svg height="512pt" viewBox="0 -53 512.00062 512" width="512pt" xmlns="http://www.w3.org/2000/svg"><path d="m143.3125 398.363281c-35.046875-.160156-71.28125-.328125-106.78125-3.304687-4.859375-.410156-10.289062-1.152344-13.234375-4.789063-2.015625-2.496093-2.539063-5.976562-2.9375-9.625-4.648437-42.9375-3.628906-86.335937 3.035156-128.988281.265625-1.695312.539063-2.761719.914063-3.554688l1.011718-2.15625 2.378907-.136718c.101562-.003906.21875-.007813.34375-.007813.816406 0 1.84375.152344 3.324219.496094l.949218.226563c26.675782 6.230468 54.289063 12.683593 82.085938 12.683593.910156 0 1.820312-.007812 2.734375-.023437 32.746093-.511719 61.242187-10.902344 80.242187-29.257813l.480469-.480469c1.386719-1.339843 2.820313-2.722656 4.496094-3.5 1.128906-.515624 2.351562-.773437 3.648437-.773437 4.324219 0 8.898438 2.851563 13.59375 6.03125 18.90625 12.777344 42.386719 19.816406 66.117188 19.816406 12.484375 0 24.601562-1.917969 36.015625-5.691406 12.917969-4.28125 22.8125-10.371094 29.402343-18.101563l2.34375-2.742187 2.972657 2.046875c7.925781 5.460938 16.550781 10.148438 25.625 13.929688 17.722656 7.375 37.296875 11.273437 56.605469 11.273437.585937 0 1.171874-.003906 1.757812-.011719 10.042969-.117187 20.023438-1.28125 29.65625-3.460937.960938-.214844 3.960938-1.496094 10.109375-4.167969 2.292969-.996094 5.203125-2.25 7.644531-3.277344l4.613282-1.933594.875 4.921876c8.640624 48.550781 15.46875 92.324218 11.445312 136.363281-.472656 5.136719-1.207031 10.460937-4.511719 14.191406-4.308593 4.867187-11.75 5.539063-19.148437 5.539063zm-83.640625-78.101562c-.1875 0-.539063.050781-.804687.390625-.34375.433594-.265626 1.082031.175781 1.429687 13.785156 10.875 32.28125 16.859375 52.082031 16.859375.820312 0 1.640625-.007812 2.46875-.027344 17.476562-.425781 36.1875-5.386718 55.605469-14.746093 15.257812-7.339844 26.480469-15.503907 34.316406-24.957031l3.199219-3.859376 3.054687 3.976563c9.683594 12.605469 27.941407 19.835937 50.097657 19.835937h.488281c14.539062-.070312 27.558593-2.5625 38.671875-7.40625 8.902344-3.894531 17.214844-9.636718 24.039062-16.613281l3.425782-3.5 2.746093 4.054688c10.007813 14.773437 28.058594 25.40625 53.640625 31.605469 16.597656 4.023437 33.617188 6.0625 50.578125 6.0625h.003907c9.214843 0 18.554687-.605469 27.761718-1.800782.34375-.046875.558594-.238281.675782-.390625.117187-.152343.246093-.40625.203124-.753906-.066406-.507813-.5-.894531-1.007812-.894531-.046875 0-.09375.003906-.140625.011718-9.117187 1.183594-18.371094 1.78125-27.503906 1.78125-16.800781 0-33.652344-2.019531-50.085938-6-28.210937-6.835937-46.949219-19.046874-55.695312-36.289062-.152344-.300781-.457031-.515625-.789063-.550781-.035156-.003907-.070312-.007813-.109375-.007813-.308593 0-.605469.140625-.796875.371094-7.414062 9.070312-17.011718 16.347656-27.753906 21.042969-10.851562 4.730469-23.597656 7.164062-37.890625 7.234375h-.113281c-5.011719 0-14.925782-.460938-25.019532-3.558594-13.199218-4.050781-22.398437-11.164062-27.351562-21.140625-.164062-.332031-.488281-.546875-.847656-.566406-.003906 0-.003906 0-.007813 0-.398437 0-.726562.175781-.90625.453125-7.539062 11.597656-19.894531 21.417968-37.769531 30.027344-19.132812 9.226562-37.5625 14.121093-54.777344 14.546874-.808594.019532-1.613281.03125-2.417968.03125-19.328126 0-37.375-5.835937-50.816407-16.429687-.191406-.148437-.398437-.222656-.628906-.222656zm0 0" fill="#5bd0fc"/><path d="m157.050781 249.648438c-19.695312-10.035157-36.226562-29.203126-45.359375-52.589844-7.792968-19.929688-10.90625-43.742188-9.246094-70.78125l.140626-2.285156 2.042968-1.035157c.484375-.246093.917969-.515625 1.324219-.816406 2.089844-1.589844 3.25-4.085937 4.269531-6.289063.359375-.789062.710938-1.558593 1.09375-2.277343 5.300782-9.9375 17.695313-13.640625 27.898438-15.757813 6.429687-1.324218 13.34375-3.347656 14.074218-10.660156.117188-1.132812.027344-2.324219-.265624-3.660156-1.964844-9.175782-9.269532-14.445313-16.335938-19.539063-1.078125-.777343-2.140625-1.546875-3.183594-2.316406-1.714844-1.289063-3.285156-2.746094-4.949218-4.285156-2.71875-2.515625-5.730469-5.300781-9.191407-6.839844l-3.765625-1.671875 1.785156-3.714844c10.015626-20.832031 30.714844-36.007812 52.734376-38.667968 2.277343-.273438 4.609374-.414063 6.9375-.414063 22.605468 0 44.691406 12.742187 54.960937 31.699219 3.890625 7.175781 6.207031 14.902344 8.65625 23.085937 3.011719 10.039063 6.101563 20.359375 12.296875 28.984375 4.035156 5.636719 9.445312 10.53125 16.082031 14.554688l9.484375 5.75-10.972656 1.625c-18.421875 2.730468-35.640625 9.882812-44.265625 13.898437-8.34375 3.886719-18.917969 9.492188-26.722656 18.460938-3.84375 4.414062-5.992188 8.621093-6.574219 12.859375-.871094 6.328125 1.808594 13.363281 7.746094 20.34375 8.734375 10.289062 21.28125 18.449218 38.355468 24.953125 16.925782 6.449219 34.585938 9.859375 51.066407 9.859375 4.222656 0 8.398437-.21875 12.414062-.648438 18.621094-1.992187 37.660157-8.378906 61.730469-20.710937 14.597656-7.484375 33.117188-18.078125 46.886719-33.695313 5.574219-6.320312 7.125-12.652344 4.152343-16.933594-2.378906-3.4375-6.6875-4.375-10.988281-4.878906-5.78125-.664062-11.738281-1.023437-17.6875-1.074218l-10.839843-.085938 8.300781-6.972656c1.851562-1.558594 3.53125-3.226563 4.988281-4.964844 5.714844-6.792969 8.285156-15.371094 6.878906-22.945312l-.546875-2.96875 2.703125-1.34375c14.972656-7.445313 29.125-15.992188 42.335938-24.105469l4.753906-2.917969 1.238281 5.4375c5.226563 22.902344 11.480469 57.214844 5.5 90.605469-6.328125 35.230469-26.066406 64.355469-52.828125 77.96875l-1.527344 1.003906-1.835937-.613281c-3.566406-1.1875-6.816406-2.398438-9.9375-3.703125-10.460937-4.359375-20.253906-9.90625-29.105469-16.480469-.164062-.125-.378906-.195312-.597656-.195312-.058594 0-.117188.007812-.175781.015624-.285157.046876-.523438.207032-.683594.4375-6.195313 9.15625-16.695313 16.234376-31.203125 21.027344-11.25 3.722656-23.175781 5.609375-35.449219 5.609375-23.265625 0-46.316406-6.917969-64.90625-19.484375-3.992187-2.699218-9.457031-6.394531-14.746093-6.394531-1.574219 0-3.035157.320313-4.460938.976563-2.046875.9375-3.625 2.472656-5.15625 3.957031l-.367188.367187c-9.648437 9.316406-21.683593 16.515625-35.820312 21.449219l-1.613281.5625zm17.144531-207.910157c-1.882812 0-3.734374.765625-4.953124 2.042969-1.394532 1.464844-1.816407 3.449219-1.15625 5.449219.234374.707031.660156 1.332031 1.265624 1.851562.707032.601563 1.652344 1.066407 2.8125 1.382813.828126.222656 1.605469.339844 2.320313.339844.707031 0 1.34375-.105469 1.953125-.316407 2.453125-.855469 3.996094-3.609375 3.441406-6.140625-.484375-2.210937-1.941406-3.808594-3.988281-4.382812-.539063-.152344-1.109375-.226563-1.695313-.226563zm0 0" fill="#f9d889"/><path d="m287.175781 210.085938c-16.457031 0-33.394531-3.269532-50.34375-9.726563-16.746093-6.375-29.023437-14.347656-37.535156-24.367187-3.871094-4.554688-8.277344-11.503907-7.285156-18.742188.53125-3.835938 2.527343-7.699219 6.109375-11.804688 7.542968-8.679687 17.878906-14.152343 26.039062-17.949218 11.894532-5.539063 35.230469-14.832032 57.855469-14.832032 1.449219 0 2.894531.039063 4.296875.113282.113281 0 .230469-.023438.367188-.066406l1.125-.367188 1.144531.300781c3.167969.835938 6.320312 1.503907 9.359375 1.984375 5.925781.941406 12.089844 1.414063 18.316406 1.414063 18.28125 0 37.890625-4.066407 58.273438-12.082031 3.472656-1.363282 6.996093-2.855469 10.785156-4.574219l5.554687-2.515625.09375 6.097656c.097657 6.125-2.367187 12.640625-6.765625 17.875-5.933594 7.046875-14.464844 11.453125-21.238281 14.503906-.464844.207032-.710937.722656-.578125 1.199219.121094.4375.53125.746094.992188.746094.039062 0 .078124 0 .121093-.003907 6.144531-.710937 12.417969-1.070312 18.628907-1.070312 6.210937 0 12.480468.359375 18.640624 1.070312 3.617188.40625 7.585938 1.199219 9.535157 4 3.570312 5.136719-2.171875 12.351563-4.015625 14.441407-13.535156 15.355469-31.839844 25.816406-46.273438 33.210937-23.835937 12.21875-42.652344 18.542969-61.007812 20.507813-3.96875.425781-8.074219.636719-12.195313.636719zm0 0" fill="#f7b36f"/><path d="m99.441406 122.0625c-2.078125 0-4.367187-.472656-6.128906-.886719-24.382812-5.6875-48.253906-13.96875-70.945312-24.613281-2.96875-1.402344-6.398438-3.0625-9.632813-5.050781l-8.582031-5.269531 9.855468-2.054688c7.953126-1.660156 18.085938-4.414062 23.527344-5.894531l1.269532-.34375c1.707031-.460938 3.019531-.816407 3.609374-.957031 13.398438-3.121094 24.953126-6.433594 35.351563-10.128907 5.890625-2.105469 11.546875-4.917969 17.019531-7.636719l.109375-.058593c4.949219-2.460938 10.070313-5.011719 15.328125-7 1.386719-.519531 2.699219-.773438 4.011719-.773438 4.523437 0 8.03125 2.929688 12.867187 7.398438 1.691407 1.5625 3.382813 3.128906 5.15625 4.460937 1.046876.78125 2.136719 1.566406 3.226563 2.351563 6.761719 4.878906 13.742187 9.914062 15.542969 18.292969.246094 1.121093.324218 2.132812.226562 3.070312-.636718 6.410156-7.75 7.878906-12.460937 8.851562-10.636719 2.203126-23.578125 6.105469-29.277344 16.800782-.421875.796875-.792969 1.59375-1.132813 2.335937-.964843 2.097657-1.960937 4.265625-3.707031 5.585938-1.34375 1.023437-3.058593 1.519531-5.234375 1.519531zm0 0" fill="#f7b36f"/><path d="m498.25 236.933594c-.269531-1.511719-1.242188-2.847656-2.59375-3.574219-2.632812-1.410156-3.488281-1.039063-17.859375 5.195313-3.40625 1.480468-8.050781 3.496093-9.125 3.835937-9.191406 2.070313-18.710937 3.179687-28.300781 3.296875-10.984375.132812-22.0625-1.054688-32.832032-3.476562 24.007813-15.902344 41.433594-44.019532 47.386719-77.230469 6.402344-35.714844-.46875-72.136719-7.171875-99.878907-.375-1.5625-1.480468-2.851562-2.964844-3.460937-1.488281-.613281-3.179687-.476563-4.546874.367187-21.53125 13.265626-43.796876 26.988282-67.554688 36.335938-26.394531 10.386719-51.097656 13.859375-73.425781 10.324219-10.675781-1.6875-30.25-6.84375-41.386719-22.363281-5.609375-7.816407-8.425781-17.222657-11.410156-27.183594-2.433594-8.117188-4.949219-16.515625-9.136719-24.25-12.75-23.53125-40.679687-37.679688-67.925781-34.402344-25.363282 3.050781-48.765625 21.144531-58.953125 45.335938-.769531.179687-1.554688.410156-2.355469.714843-5.511719 2.074219-10.789062 4.703125-15.894531 7.246094-5.589844 2.785156-10.867188 5.414063-16.460938 7.40625-10.132812 3.605469-21.472656 6.855469-34.671875 9.9375-.886718.207031-2.660156.691406-5.109375 1.355469-7.425781 2.015625-22.871093 6.207031-29.90625 6.964844h-.003906c-2.640625.285156-4.882813 2.101562-5.710937 4.628906-.832032 2.542968-.089844 5.355468 1.890624 7.164062 5.328126 4.855469 11.867188 8.125 17.578126 10.804688 23.0625 10.824218 47.332031 19.246094 72.144531 25.035156 1.121093.261719 2.640625.613281 4.359375.832031-1.4375 27.074219 1.832031 51.074219 9.753906 71.363281 8.328125 21.3125 22.375 39.199219 39.445312 50.621094-8.957031 1.996094-18.496093 3.113282-28.464843 3.269532-27.960938.445312-56.140625-6.144532-83.382813-12.515626l-.90625-.210937c-2.324218-.542969-6.648437-1.550781-10.445312.992187-3.828125 2.566407-4.539063 7.121094-4.882813 9.308594-6.738281 43.1875-7.769531 87.117188-3.066406 130.574219.371094 3.453125.9375 8.671875 4.242187 12.757813 4.816407 5.964843 13.023438 6.652343 17.433594 7.023437 35.800782 3 72.230469 3.164063 107.457032 3.324219l336.832031 1.53125c.246093.003906.496093.003906.746093.003906 8.363282 0 17.640626-.71875 23.71875-7.574219 4.515626-5.097656 5.46875-11.78125 6.003907-17.648437 4.441406-48.617188-4.191407-96.996094-12.542969-143.78125zm-121.886719-129.246094c3.699219-1.457031 7.351563-3.019531 10.96875-4.652344.085938 5.070313-1.988281 10.664063-5.828125 15.234375-5.425781 6.457031-13.441406 10.570313-19.820312 13.429688-2.257813 1.015625-3.441406 3.523437-2.785156 5.910156s2.960937 3.933594 5.414062 3.65625c12.066406-1.390625 24.296875-1.394531 36.363281-.003906 2.585938.296875 5.6875.828125 6.714844 2.308593 1.40625 2.03125-.945313 6.351563-3.726563 9.507813-13.082031 14.847656-30.976562 25.0625-45.105468 32.304687-23.371094 11.980469-41.753906 18.175782-59.613282 20.085938-19.144531 2.042969-40.128906-1.011719-60.6875-8.847656-16.101562-6.132813-27.847656-13.730469-35.910156-23.21875-3.34375-3.933594-7.160156-9.839844-6.367187-15.613282.417969-3.035156 2.101562-6.210937 5.152343-9.71875 7.058594-8.109374 16.914063-13.320312 24.714844-16.949218 12.652344-5.894532 37.300782-15.589844 60.246094-14.355469.640625.035156 1.253906-.066406 1.828125-.253906 3.148437.835937 6.402344 1.539062 9.769531 2.074219 24.121094 3.816406 50.589844.152343 78.671875-10.898438zm-352.292969-14.75c-2.984374-1.398438-6.214843-2.972656-9.246093-4.832031 7.910156-1.648438 17.730469-4.3125 23.761719-5.953125 2.261718-.613282 4.050781-1.097656 4.765624-1.265625 13.566407-3.167969 25.261719-6.523438 35.753907-10.257813 6.160156-2.191406 11.960937-5.082031 17.570312-7.875 5.105469-2.542968 9.925781-4.945312 14.957031-6.839844 4.167969-1.570312 6.949219.457032 12.753907 5.824219 1.726562 1.597657 3.511719 3.246094 5.464843 4.714844 1.074219.800781 2.179688 1.601563 3.296876 2.40625 6.421874 4.628906 12.488281 9.003906 13.964843 15.878906.15625.722657.210938 1.335938.160157 1.824219-.257813 2.609375-2.601563 3.957031-9.289063 5.34375-11.496094 2.378906-25.523437 6.671875-32 18.832031-.460937.871094-.855469 1.726563-1.238281 2.554688-.796875 1.722656-1.546875 3.347656-2.480469 4.054687-1.609375 1.222656-4.96875.65625-8.039063-.0625-24.125-5.628906-47.730468-13.820312-70.15625-24.347656zm91.34375 102.667969c-7.582031-19.417969-10.59375-42.65625-8.972656-69.082031.644532-.328126 1.277344-.710938 1.890625-1.175782 2.933594-2.222656 4.375-5.339844 5.53125-7.847656.335938-.730469.65625-1.425781.988281-2.042969 4.511719-8.476562 15.824219-11.785156 25.171876-13.722656 5.246093-1.085937 16.167968-3.34375 17.246093-14.179687.152344-1.546876.042969-3.160157-.339843-4.925782-2.289063-10.648437-10.585938-16.632812-17.90625-21.914062-1.066407-.769532-2.121094-1.527344-3.144532-2.296875-1.542968-1.15625-3.0625-2.5625-4.675781-4.054688-2.8125-2.597656-6.167969-5.699219-10.21875-7.5 9.386719-19.527343 28.738281-33.914062 49.617187-36.425781 22.882813-2.753906 47.234376 9.53125 57.898438 29.214844 3.695312 6.824218 5.957031 14.367187 8.347656 22.351562 3.089844 10.3125 6.28125 20.972656 12.871094 30.152344 4.398438 6.132812 10.25 11.390625 17.253906 15.640625-18.351562 2.714844-35.386718 9.574219-45.367187 14.222656-8.699219 4.050781-19.75 9.921875-28.046875 19.460938-4.371094 5.027343-6.835938 9.914062-7.523438 14.941406-1.03125 7.476563 1.964844 15.597656 8.660156 23.480469 9.183594 10.8125 22.261719 19.351562 39.984376 26.101562 17.550781 6.6875 35.457031 10.121094 52.488281 10.121094 4.34375 0 8.632812-.222656 12.84375-.671875 19.140625-2.046875 38.609375-8.566406 63.125-21.132813 14.917969-7.648437 33.859375-18.492187 48.054687-34.601562 6.875-7.796875 8.535156-15.972656 4.445313-21.867188-3.300781-4.761718-8.835938-5.992187-13.8125-6.5625-6.015625-.691406-12.066407-1.058593-18.121094-1.101562 1.941406-1.636719 3.796875-3.445312 5.484375-5.457031 6.539062-7.777344 9.359375-17.5625 7.746094-26.246094 14.742187-7.335937 28.863281-15.816406 42.648437-24.28125 5.886719 25.78125 11.035157 57.910156 5.460938 89.007813-6.109375 34.085937-25.136719 62.203124-50.894531 75.210937-.03125.015625-.058594.042969-.09375.058594-3.269532-1.082031-6.492188-2.277344-9.65625-3.597657-10.152344-4.226562-19.65625-9.605468-28.257813-15.996093-1.097656-.816407-2.484375-1.144531-3.835937-.917969-1.347657.230469-2.546876 1-3.3125 2.136719-5.691407 8.410156-15.5 14.964843-29.15625 19.484375-31.90625 10.554687-69.019532 5.421875-96.863282-13.394532-5.738281-3.878906-14.40625-9.738281-23.117187-5.742187-2.65625 1.21875-4.574219 3.082031-6.265625 4.722656l-.414063.40625c-9.226562 8.914063-20.902343 15.816407-34.3125 20.5-18.839843-9.597656-34.617187-27.871093-43.449219-50.476562zm385.378907 184.199219c-.410157 4.472656-1.019531 9.082031-3.519531 11.902343-3.476563 3.921875-10.546876 4.21875-16.90625 4.191407l-336.832032-1.535157c-35.03125-.15625-71.257812-.320312-106.664062-3.289062-4.035156-.339844-8.503906-.902344-10.460938-3.324219-1.339844-1.65625-1.746094-4.511719-2.070312-7.535156-4.609375-42.578125-3.597656-85.625 3.003906-127.941406.230469-1.46875.433594-2.152344.585938-2.46875.351562-.019532 1.066406.050781 2.535156.394531l.90625.210937c27.835937 6.507813 56.609375 13.226563 85.828125 12.777344 33.765625-.53125 63.226562-11.324219 82.949219-30.386719l.441406-.425781c1.214844-1.183594 2.367187-2.300781 3.449218-2.796875 3.304688-1.515625 8.183594 1.46875 13.3125 4.933594 30.363282 20.523437 70.839844 26.121093 105.632813 14.609375 13.640625-4.515625 24.109375-10.992188 31.195313-19.292969 8.164062 5.625 17.007812 10.433594 26.355468 14.324219 18.789063 7.820312 39.523438 11.820312 59.953125 11.578125 10.324219-.125 20.582031-1.328125 30.488281-3.566407 1.25-.285156 3.429688-1.191406 10.8125-4.394531 2.28125-.992187 5.179688-2.25 7.609376-3.265625 7.890624 44.320313 15.535156 90.007813 11.394531 135.300782zm0 0"/><path d="m183.785156 45.492188c-.800781-3.648438-3.347656-6.40625-6.816406-7.378907-3.707031-1.035156-7.976562.128907-10.625 2.90625-2.414062 2.53125-3.179688 6.066407-2.054688 9.460938v.003906c.941407 2.835937 3.367188 4.910156 6.828126 5.84375 1.167968.3125 2.292968.472656 3.371093.472656 1.148438 0 2.242188-.179687 3.269531-.539062 4.371094-1.519531 7.019532-6.25 6.027344-10.769531zm0 0"/><path d="m460.441406 325.578125c-25.515625 3.308594-51.132812 1.917969-76.136718-4.144531-27.023438-6.546875-44.878907-18.058594-53.066407-34.210938-.769531-1.511718-2.246093-2.539062-3.9375-2.71875-1.6875-.183594-3.351562.496094-4.425781 1.8125-7.019531 8.582032-16.101562 15.46875-26.265625 19.902344-10.34375 4.515625-22.554687 6.839844-36.304687 6.902344-8.832032.015625-38.449219-1.460938-48.875-22.480469-.800782-1.613281-2.410157-2.675781-4.207032-2.78125-1.796875-.097656-3.519531.765625-4.5 2.277344-7.113281 10.953125-18.9375 20.304687-36.144531 28.597656-18.625 8.976563-36.503906 13.734375-53.140625 14.144531-19.355469.484375-37.347656-5.039062-50.65625-15.539062-2.179688-1.714844-5.332031-1.34375-7.050781.832031s-1.34375 5.335937.832031 7.050781c14.546875 11.472656 33.839844 17.722656 54.566406 17.722656.847656 0 1.699219-.007812 2.554688-.027343 18.074218-.449219 37.335937-5.539063 57.25-15.140625 15.730468-7.578125 27.476562-16.132813 35.667968-26.007813 10.398438 13.535157 29.648438 21.394531 53.257813 21.390625h.492187c15.121094-.070312 28.671876-2.671875 40.277344-7.738281 9.453125-4.125 18.085938-10.105469 25.296875-17.476563 10.589844 15.628907 29.390625 26.796876 56.015625 33.246094 26.203125 6.351563 53.050782 7.8125 79.789063 4.34375 2.75-.359375 4.691406-2.875 4.332031-5.625-.355469-2.75-2.871094-4.691406-5.621094-4.332031zm0 0"/></svg>