<svg height="512pt" viewBox="-68 0 512 512.00053" width="512pt" xmlns="http://www.w3.org/2000/svg"><path d="m332.230469 364.644531c.328125-24.511719-1.449219-48.132812-5.277344-70.203125-7.363281-42.324218-22.894531-81.683594-44.910156-113.820312l-2.785157-4.070313 4.554688-1.886719c6.8125-2.824218 12.515625-6.035156 17.421875-9.816406l3.429687-2.640625 2.359376 3.628907c18.367187 28.199218 34.089843 58.25 46.734374 89.324218 7.316407 17.964844 14.910157 39.316406 15.761719 61.496094.550781 14.238281-1.992187 26.074219-7.5625 35.171875-5.789062 9.457031-15.5 15.917969-25.34375 16.851563l-4.4375.425781zm0 0" fill="#c67045"/><path d="m322.988281 95.882812c-1.132812-2.78125-2.574219-5.574218-4.414062-8.535156l-2.722657-4.390625 4.929688-1.539062c6.628906-2.070313 12.21875-6.753907 15.328125-12.855469 3.886719-7.640625 3.65625-16.996094-.605469-24.421875-4.257812-7.429687-12.214844-12.355469-20.777344-12.859375-.46875-.027344-.945312-.039062-1.414062-.039062-2.144531 0-4.183594.289062-6.046875.859374-2.507813.769532-5.003906 2.136719-7.417969 4.0625-5.097656 4.058594-8.84375 9.734376-10.558594 15.992188-.078124.273438-.128906.484375-.179687.703125l-1.152344 4.984375-4.558593-2.320312c-2.839844-1.445313-5.726563-2.734376-8.578126-3.832032-.84375-.324218-1.71875-.640625-2.59375-.949218l-2.4375-.855469-.222656-2.574219c-.28125-3.257812.0625-6.765625 1.023438-10.429688 1.34375-5.136718 3.773437-10.082031 7.023437-14.289062 6.429688-8.328125 16.371094-14.136719 27.273438-15.941406 2.492187-.410156 5.066406-.617188 7.644531-.617188 8.117188 0 16.359375 2.03125 23.839844 5.878906 5.917968 3.039063 14.011718 8.597657 18.960937 17.800782 2.523438 4.695312 4.222657 10.308594 5.34375 17.671875 1.199219 7.855469 1.222657 14.183593.074219 19.910156-1.636719 8.164063-5.945312 15.730469-12.132812 21.304687-5.894532 5.316407-13.507813 8.777344-21.441407 9.746094l-3.039062.371094zm0 0" fill="#c67045"/><path d="m312.550781 78.90625c-5.535156-6.796875-12.152343-12.796875-19.667969-17.835938l-1.875-1.257812.109376-2.253906c.003906-.09375-.003907-.234375-.058594-.382813l-.078125-.210937-.050781-.214844c-.261719-1.050781-.160157-2.300781.328124-4.058594 1.597657-5.839844 5.097657-11.144531 9.855469-14.925781 2.242188-1.777344 4.519531-3.027344 6.761719-3.710937 1.664062-.515626 3.5-.773438 5.445312-.773438.421876 0 .851563.011719 1.285157.035156 7.757812.457032 15.261719 5.101563 19.125 11.832032 3.863281 6.742187 4.082031 15.566406.554687 22.488281-3.496094 6.875-10.449218 11.75-18.136718 12.710937l-2.199219.277344zm0 0" fill="#ffdac4"/><path d="m186.074219 505.964844c-5.082031 0-10.613281-1.890625-14.796875-5.058594-6.304688-4.753906-11.121094-12.285156-15.15625-23.695312-9.207032-26.027344-9.886719-54.546876-9.445313-76.484376 1.515625-74.949218 18.753907-151.0625 49.851563-220.113281l1.496094-3.324219 3.449218 1.183594c3.59375 1.234375 7.167969 2.265625 10.625 3.054688 7.671875 1.753906 15.738282 2.640625 23.976563 2.640625 12.597656 0 25.484375-2.054688 38.304687-6.105469l2.796875-.882812 1.683594 2.402343c22.664063 32.335938 38.601563 72.175781 46.085937 115.210938 6.710938 38.601562 7.058594 81.179687 1.023438 126.550781-1.851562 14.03125-4.769531 32.425781-10.976562 50.277344-2.640626 7.597656-6.609376 17.109375-13.941407 23.285156-4.332031 3.648438-10.132812 5.832031-15.519531 5.832031-3.457031 0-6.5625-.871093-9.226562-2.589843-5.929688-3.808594-9.449219-11.929688-9.402344-21.722657.023437-4.304687.589844-8.566406 1.136718-12.6875.554688-4.222656 1.125-8.578125 1.144532-12.917969.054687-11.464843-3.726563-22.796874-10.652344-31.902343-5.03125-6.632813-11.148438-11.226563-17.6875-13.285157-2.515625-.796874-5.109375-1.199218-7.710938-1.199218-5.296874 0-10.246093 1.675781-13.933593 4.71875-6.558594 5.40625-8.761719 14.175781-10.167969 22.84375-2.15625 13.335937-3.308594 26.933594-3.417969 40.414062-.085937 10.941406-.183593 23.335938-8.539062 29.9375-3.003907 2.367188-6.804688 3.617188-11 3.617188zm0 0" fill="#c67045"/><path d="m267.617188 170.558594c4.632812-6.859375 7.820312-13.308594 9.757812-19.714844 3.730469-12.316406 2.679688-24.789062-2.894531-34.21875-4.300781-7.253906-11.664063-13.292969-20.738281-16.992188-6.167969-2.523437-13.015626-3.855468-19.804688-3.855468-9.078125 0-17.703125 2.285156-24.945312 6.605468-13.628907 8.121094-22.214844 23.75-21.363282 38.890626.253906 4.714843 1.359375 9.644531 3.375 15.085937 1.277344 3.441406 2.789063 6.683594 4.492188 9.628906l6.675781 11.542969-11.925781-5.964844c-3.074219-1.535156-5.816406-3.0625-8.382813-4.664062-9.070312-5.652344-16.167969-12.183594-21.097656-19.410156-9.792969-14.414063-12.097656-34.214844-6.019531-51.679688 5.722656-16.429688 18.558594-30.785156 35.222656-39.386719 9.875-5.089843 20.914062-8.195312 32.808594-9.230469 3.640625-.316406 7.363281-.476562 11.070312-.476562 14.445313 0 28.738282 2.441406 40.246094 6.875 16.429688 6.328125 30.832031 17.503906 40.554688 31.46875 4.140624 5.953125 6.835937 11.472656 8.238281 16.882812 1.820312 7.058594 1.722656 15.195313-.289063 24.1875-3.101562 13.777344-9.9375 25.960938-19.242187 34.3125-7.230469 6.507813-16.800781 11.605469-29.257813 15.574219-.402344.128907-.820312.253907-1.238281.378907l-.746094.222656-10.839843 3.339844zm5.816406-83.042969c.128906.253906.308594.5.53125.71875.621094.613281 1.511718.953125 2.496094.953125.433593 0 .867187-.066406 1.296874-.195312.640626-.191407 1.476563-.597657 1.902344-1.453126.199219-.398437.261719-.808593.292969-1.121093.042969-.402344.078125-.933594-.085937-1.507813-.234376-.820312-.878907-1.539062-1.683594-1.886718-.445313-.1875-.910156-.285157-1.386719-.285157-.515625 0-1.03125.117188-1.492187.339844-.851563.414063-1.519532 1.15625-1.875 2.070313v2.367187zm-77.910156-1.933594c-.144532.53125-.152344 1.003907-.03125 1.457031.121093.445313.367187.859376.71875 1.210938.597656.589844 1.511718.9375 2.480468.9375.4375 0 .867188-.0625 1.28125-.191406.921875-.277344 1.597656-.792969 1.929688-1.457032.199218-.398437.261718-.808593.292968-1.121093.042969-.464844.066407-.980469-.089843-1.523438-.230469-.800781-.878907-1.523437-1.6875-1.871093-.4375-.191407-.902344-.285157-1.378907-.285157-.527343 0-1.03125.117188-1.507812.34375-.9375.457031-1.652344 1.3125-1.96875 2.363281zm0 0" fill="#c67045"/><path d="m236.023438 182.121094c-8.074219 0-15.976563-.871094-23.480469-2.582032-.8125-.179687-1.640625-.394531-2.460938-.609374l-1.980469-.507813-.847656-1.324219c-.105468-.164062-.167968-.230468-.203125-.261718-6.011719-5.007813-10.78125-12.148438-14.140625-21.195313-1.933594-5.203125-3-9.941406-3.253906-14.476563-.765625-13.804687 6.59375-27.925781 18.746094-35.980468l5.710937-3.785156.488281 6.835937c.09375 1.308594.390626 2.554687.878907 3.707031 1.75 4.152344 5.714843 7.605469 11.167969 9.742188 3.324218 1.296875 6.699218 1.957031 10.023437 1.957031 3.574219 0 6.851563-.757813 9.742187-2.253906 4.867188-2.527344 8.3125-7.304688 8.980469-12.460938l.835938-6.457031 5.382812 3.664062c4.703125 3.203126 8.542969 7.191407 11.101563 11.535157 5.289062 8.929687 6.28125 20.808593 2.714844 32.582031-2.757813 9.09375-8.0625 18.214844-16.6875 28.710938l-.945313 1.148437-1.46875.253906c-6.820313 1.164063-13.648437 1.757813-20.304687 1.757813zm-19.90625-39.152344c-.351563.042969-.566407.230469-.683594.378906-.117188.148438-.25.402344-.210938.742188.460938 3.894531 2.980469 7.640625 6.730469 10.019531 3.023437 1.921875 6.882813 3.054687 11.460937 3.367187.753907.054688 1.46875.082032 2.136719.082032 1.855469 0 3.425781-.191406 4.945313-.609375 5.722656-1.5625 10.511718-6.757813 12.496094-13.558594.097656-.339844.007812-.609375-.085938-.78125-.09375-.167969-.273438-.394531-.609375-.492187-.082031-.023438-.179687-.039063-.273437-.039063-.371094 0-.835938.230469-.980469.734375-1.792969 6.132812-6.039063 10.796875-11.085938 12.175781-1.285156.351563-2.71875.527344-4.367187.527344-.640625 0-1.308594-.023437-2.039063-.078125-4.226562-.28125-7.761719-1.3125-10.503906-3.054688-3.246094-2.054687-5.414063-5.246093-5.796875-8.535156-.0625-.5-.492188-.886718-1.003906-.886718-.042969 0-.085938.003906-.128906.007812zm0 0" fill="#ffdac4"/><path d="m236.664062 121.585938c-3.042968 0-6.25-.621094-9.273437-1.800782-2.863281-1.121094-7.960937-3.730468-10.03125-8.628906-1.765625-4.164062-.394531-9.214844 2.992187-11.171875l.683594-.480469.707032-.179687c3.9375-1.007813 8.039062-1.519531 12.191406-1.519531 5.667968 0 11.242187.9375 16.5625 2.785156l2.6875.933594v2.84375c0 .085937.007812.171874.027344.265624 1.28125 5.546876-2.039063 11.992188-7.738282 14.9375-2.535156 1.316407-5.585937 2.015626-8.808594 2.015626zm0 0" fill="#935252"/><path d="m147.144531 103.167969-.300781-.046875c-11.089844-1.707032-21.328125-8.707032-27.382812-18.722656-5.796876-9.578126-7.671876-21.65625-5.144532-33.132813 2.40625-10.933594 8.695313-21.1875 17.710938-28.863281 4.3125-3.667969 8.863281-6.460938 13.527344-8.296875 4.9375-1.941407 10.375-2.988281 16.164062-3.105469.296875-.007812.578125-.007812.859375-.007812 10.722656 0 20.855469 3.527343 27.796875 9.683593 7.816406 6.921875 11.765625 17.839844 9.820312 27.167969l-.445312 2.140625-2.039062.78125c-3.089844 1.183594-5.855469 2.40625-8.453126 3.742187l-4.136718 2.125-1.480469-4.410156c-2.234375-6.636718-8.324219-11.886718-15.519531-13.375-1.527344-.320312-3.105469-.480468-4.703125-.480468-6.410157 0-12.835938 2.492187-18.097657 7.015624-4.15625 3.570313-7.039062 7.914063-8.335937 12.5625-1.472656 5.273438-.796875 10.742188 1.855469 15 3.273437 5.253907 9.226562 8.183594 14.550781 10.519532l3.757813 1.652344-1.746094 3.714843c-.984375 2.097657-1.855469 4.222657-2.582032 6.3125-.507812 1.46875-.980468 3.066407-1.484374 5.019531l-.769532 3.003907zm0 0" fill="#c67045"/><path d="m140.167969 363.589844c-3.480469 0-7.324219-.550782-11.757813-1.6875-7.558594-1.921875-12.78125-4.550782-16.4375-8.269532-8.160156-8.332031-8.03125-21.996093-7.226562-31.550781 4.636718-55.234375 32.433594-109.933593 76.265625-150.074219l2.113281-1.933593 2.511719 1.378906c2.324219 1.277344 4.628906 2.433594 6.851562 3.445313l3.625 1.644531-1.632812 3.632812c-25.238281 56.15625-41.65625 118.273438-47.476563 179.640625l-.308594 3.242188-3.238281.355468c-1.058593.117188-2.164062.175782-3.289062.175782zm0 0" fill="#c67045"/><path d="m155.121094 82.003906c-6.1875-2.699218-11.554688-5.324218-14.546875-10.144531-2.316407-3.699219-2.925781-8.699219-1.625-13.363281 1.5-5.382813 5.019531-9.261719 7.707031-11.570313 4.808594-4.132812 10.949219-6.507812 16.84375-6.507812 1.4375 0 2.855469.144531 4.210938.421875 7.597656 1.578125 13.773437 7.867187 14.6875 14.957031l.3125 2.425781-2.015626 1.386719c-4.132812 2.832031-7.984374 6.050781-11.457031 9.566406-3.445312 3.503907-6.53125 7.328125-9.167969 11.355469l-1.851562 2.824219zm0 0" fill="#ffdac4"/><path d="m120.171875 442.421875c-24.296875 0-44.585937-3.835937-62.027344-11.726563-20.984375-9.484374-37.511719-25.539062-45.347656-44.046874-5.414063-12.789063-7.542969-28.304688-6.507813-47.433594 1.320313-24.625 7.242188-50.753906 17.597657-77.664063 1.183593-3.070312 2.445312-6.21875 3.660156-9.257812l.183594-.453125c8.015625-20.042969 16.296875-40.75 13.144531-62.046875-.867188-5.808594-2.558594-11.617188-4.191406-17.234375-3.515625-12.117188-6.8125-23.488282-2.71875-34.476563 2.605468-6.980469 8.871094-12.761719 16.761718-15.464843 3.136719-1.078126 6.367188-1.621094 9.597657-1.621094 4.820312 0 9.355469 1.226562 13.121093 3.550781 6.539063 4.03125 10.519532 10.363281 12.703126 14.96875 6.308593 13.292969 6.921874 29.9375 1.875 50.882813-4.027344 16.703124-10.53125 33.117187-16.820313 48.992187-9.191406 23.195313-18.695313 47.183594-20.578125 72.4375-2.101562 28.132813 6.03125 54.863281 22.316406 73.335937 13.847656 15.703126 34.042969 25.082032 54.023438 25.082032 4.34375 0 8.632812-.449219 12.75-1.328125l4.800781-1.027344.039063 4.90625c.054687 7.398437.324218 14.140625.828124 20.613281l.140626 1.851563-1.644532 1.625-.261718.164062c-5.894532 4.621094-14.054688 5.3125-22.007813 5.367188zm0 0" fill="#c67045"/><path d="m219.8125 157.488281c3.59375 2.28125 8.082031 3.621094 13.335938 3.980469.839843.058594 1.640624.085938 2.40625.085938 2.226562 0 4.171874-.246094 6.003906-.746094 7.050781-1.929688 12.90625-8.179688 15.277344-16.300782.777343-2.660156-.75-5.449218-3.410157-6.226562-2.664062-.773438-5.449219.753906-6.226562 3.414062-1.378907 4.726563-4.636719 8.429688-8.292969 9.429688-1.34375.371094-2.957031.472656-5.070312.328125-3.566407-.246094-6.476563-1.066406-8.644532-2.441406-2.203125-1.402344-3.726562-3.554688-3.96875-5.621094-.328125-2.753906-2.820312-4.71875-5.574218-4.394531-2.753907.324218-4.722657 2.820312-4.398438 5.574218.597656 5.066407 3.800781 9.894532 8.5625 12.917969zm0 0"/><path d="m205.949219 83.800781c-.566407-1.96875-2.042969-3.632812-3.953125-4.453125-2-.855468-4.261719-.808594-6.203125.132813-2.023438.980469-3.53125 2.820312-4.128907 5.050781v.003906c-.328124 1.21875-.339843 2.414063-.035156 3.558594.300782 1.117188.910156 2.148438 1.753906 2.984375 1.394532 1.375 3.304688 2.109375 5.3125 2.109375.8125 0 1.640626-.121094 2.460938-.367188 1.957031-.589843 3.492188-1.832031 4.324219-3.496093.492187-.988281.628906-1.90625.691406-2.507813.074219-.707031.128906-1.789062-.222656-3.015625zm0 0"/><path d="m283.714844 83.808594c-.566406-1.972656-2.039063-3.640625-3.953125-4.460938-2-.859375-4.261719-.808594-6.203125.128906-2.027344.984376-3.53125 2.824219-4.128906 5.050782-.003907.003906-.003907.003906-.003907.007812-.328125 1.21875-.335937 2.414063-.03125 3.554688.296875 1.113281.902344 2.144531 1.753907 2.984375 1.390624 1.378906 3.300781 2.113281 5.3125 2.113281.8125 0 1.644531-.121094 2.460937-.367188 1.957031-.59375 3.492187-1.832031 4.324219-3.496093.488281-.988281.628906-1.90625.691406-2.507813.070312-.707031.128906-1.789062-.222656-3.007812zm0 0"/><path d="m375.554688 316.421875c-.894532-23.132813-8.691407-45.101563-16.199219-63.542969-13.023438-31.976562-29.21875-62.804687-48.152344-91.691406 8.28125-8.898438 14.347656-20.679688 17.277344-33.726562 1.898437-8.441407 2.226562-16.269532 1.019531-23.34375 8.570312-1.359376 16.714844-5.214844 23.167969-11.035157 7.140625-6.433593 12.113281-15.167969 14.003906-24.59375 1.289063-6.425781 1.285156-13.417969-.019531-22.003906-1.226563-8.066406-3.132813-14.308594-6-19.636719-4.507813-8.367187-11.949219-15.394531-21.519532-20.3125-11.0625-5.683594-23.570312-7.757812-35.21875-5.839844-12.398437 2.042969-23.726562 8.679688-31.078124 18.207032-3.734376 4.84375-6.53125 10.53125-8.085938 16.453125-.777344 2.976562-1.203125 5.871093-1.292969 8.664062-12.789062-3.058593-27-4.070312-41.199219-2.839843-5.347656.464843-10.53125 1.347656-15.539062 2.597656.296875-10.046875-4.210938-20.417969-12.335938-27.625-8.414062-7.457032-20.101562-11.433594-32.773437-11.183594-6.507813.125-12.652344 1.308594-18.269531 3.523438-5.300782 2.089843-10.421875 5.222656-15.226563 9.316406-10.015625 8.535156-17.007812 19.957031-19.695312 32.164062-2.855469 12.976563-.710938 26.667969 5.882812 37.558594 6.929688 11.453125 18.660157 19.484375 31.410157 21.523438-1.476563 14.867187 2.007812 29.972656 10.066406 41.828124 4.65625 6.851563 11.058594 13.097657 19.050781 18.613282-43.734375 40.984375-71.402344 96.160156-76.101563 152.082031-.898437 10.738281-.957031 26.179687 8.929688 36.269531 5.851562 5.976563 13.796875 8.519532 19.265625 9.910156 4.941406 1.257813 9.3125 1.882813 13.316406 1.882813.648438 0 1.285157-.019531 1.914063-.050781-.792969 10.339844-1.304688 20.6875-1.511719 31.015625-.011719.617187-.019531 1.261719-.03125 1.890625-21.371094 5.5-47.050781-3.082032-63.140625-21.328125-15.210938-17.25-22.800781-42.359375-20.820312-68.886719 1.816406-24.335938 10.730468-46.839844 20.167968-70.664062 6.367188-16.066407 12.945313-32.683594 17.074219-49.808594 5.386719-22.347656 4.640625-40.300782-2.289063-54.882813-3.632812-7.65625-8.8125-13.710937-14.980468-17.519531-7.976563-4.921875-18.128906-5.835938-27.855469-2.5-9.722656 3.335938-17.179687 10.285156-20.457031 19.066406-4.800782 12.882813-1.050782 25.789063 2.578125 38.273438 1.65625 5.699218 3.21875 11.082031 4.011719 16.4375 2.917968 19.683594-5.0625 39.625-12.777344 58.914062-1.285156 3.207032-2.613282 6.523438-3.867188 9.785156-10.582031 27.511719-16.640625 54.261719-17.996094 79.507813-1.078124 20.070313 1.203126 36.457031 6.976563 50.105469 8.410156 19.882812 26.0625 37.089844 48.425781 47.203125 18.234375 8.246093 39.324219 12.261719 64.433594 12.261719.515625 0 1.035156-.003907 1.554688-.007813 7.152343-.046875 14.5-.601563 20.886718-3.679687 1.460938 11.4375 3.894532 23.140624 7.894532 34.453124 2.796874 7.90625 7.621093 19.253907 17.210937 26.503907 5.011719 3.789062 11.746094 6.269531 18.472656 6.269531 5.164063 0 10.328125-1.460938 14.703125-4.914062 10.632813-8.394532 10.746094-22.9375 10.839844-34.625.101562-13.1875 1.226562-26.476563 3.335938-39.496094 1.214843-7.503906 3.03125-15.019532 8.046874-19.152344 3.976563-3.28125 10.25-4.230469 15.988282-2.425781 6.742187 2.125 11.710937 7.253906 14.699218 11.183593 6.125 8.0625 9.46875 18.082032 9.417969 28.210938-.019531 3.972656-.542969 7.960938-1.097656 12.179688-.570313 4.339843-1.15625 8.832031-1.179687 13.4375-.0625 12.039062 4.375 21.820312 12.171874 26.835937 9.1875 5.910156 22.304688 4.382813 31.902344-3.707031 8.460938-7.132813 12.863282-17.601563 15.753906-25.921875 6.363282-18.316407 9.363282-37.125 11.265626-51.464844 2.144531-16.15625 3.472656-31.957031 4.023437-47.367187 12.085937-.675782 23.964844-8.101563 31.121094-19.789063 6.203125-10.132813 9.046875-23.105469 8.449219-38.5625zm-80.449219-258.667969c.035156-.648437-.058594-1.316406-.292969-1.964844-.015625-.046874-.128906-.488281.296875-2.03125 1.386719-5.039062 4.402344-9.609374 8.492187-12.863281 1.835938-1.460937 3.667969-2.476562 5.441407-3.019531 1.589843-.488281 3.378906-.679688 5.335937-.566406 6.4375.375 12.675782 4.238281 15.886719 9.832031 3.207031 5.597656 3.390625 12.929687.460937 18.679687-2.882812 5.65625-8.777343 9.769532-15.078124 10.558594-5.800782-7.121094-12.765626-13.421875-20.542969-18.625zm-20.644531-19.851562c1.214843-4.628906 3.402343-9.078125 6.324218-12.867188 5.816406-7.539062 14.84375-12.800781 24.761719-14.433594 9.539063-1.570312 19.839844.15625 29 4.863282 5.410156 2.78125 12.792969 7.835937 17.265625 16.140625 2.304688 4.285156 3.867188 9.488281 4.914062 16.386719 1.121094 7.390624 1.15625 13.277343.101563 18.519531-1.46875 7.324219-5.332031 14.113281-10.882813 19.113281-5.328124 4.804688-12.136718 7.886719-19.253906 8.75-1.222656-2.996094-2.789062-6.027344-4.714844-9.136719 7.554688-2.363281 14.0625-7.738281 17.691407-14.859375 4.496093-8.824218 4.230469-19.640625-.695313-28.230468-4.925781-8.589844-14.125-14.285157-24.011718-14.859376-3.144532-.183593-6.128907.148438-8.863282.988282-2.980468.914062-5.921875 2.515625-8.746094 4.761718-5.742187 4.570313-9.976562 10.984376-11.921874 18.058594-.074219.269532-.148438.558594-.222657.863282-2.90625-1.480469-5.890625-2.824219-8.945312-4-.890625-.34375-1.796875-.671876-2.710938-.992188-.234375-2.792969.0625-5.832031.910157-9.066406zm-127.007813 61.265625c-9.933594-1.535157-19.117187-7.828125-24.566406-16.835938-5.273438-8.710937-6.972657-19.71875-4.664063-30.203125 2.214844-10.082031 8.042969-19.558594 16.402344-26.679687 3.957031-3.375 8.125-5.9375 12.394531-7.621094 4.5-1.773437 9.472657-2.722656 14.78125-2.824219 10.085938-.175781 19.492188 2.960938 25.917969 8.660156 6.8125 6.035157 10.222656 15.390626 8.5625 23.371094-3.03125 1.148438-5.988281 2.449219-8.847656 3.914063-2.652344-7.882813-9.757813-14.210938-18.496094-16.023438-8.875-1.84375-18.675781.933594-26.222656 7.417969-4.757813 4.089844-8.074219 9.117188-9.585938 14.527344-1.769531 6.351562-.925781 12.976562 2.316406 18.183594 3.996094 6.414062 10.941407 9.707031 16.339844 12.078124-1.03125 2.1875-1.949218 4.421876-2.742187 6.691407-.613281 1.761719-1.121094 3.550781-1.578125 5.347656-.003906 0-.007813 0-.011719-.003906zm9.269531-20.832031c-5.570312-2.433594-10.371094-4.757813-12.753906-8.585938-1.734375-2.78125-2.171875-6.585938-1.167969-10.179688 1.230469-4.414062 4.191407-7.664062 6.460938-9.613281 5.121093-4.402343 11.882812-6.390625 17.636719-5.199219 5.886718 1.222657 10.847656 6.1875 11.539062 11.554688-8.730469 5.972656-16.144531 13.507812-21.714844 22.023438zm7.355469 66.902343c-9.101563-13.386719-11.226563-31.820312-5.554687-48.109375 5.394531-15.480468 17.523437-29.019531 33.28125-37.148437 9.410156-4.851563 19.945312-7.8125 31.320312-8.796875 17.410156-1.511719 35.464844.730468 49.53125 6.148437 15.683594 6.039063 29.429688 16.699219 38.707031 30.023438 3.867188 5.550781 6.367188 10.652343 7.644531 15.589843 1.667969 6.449219 1.558594 13.953126-.320312 22.3125-2.914062 12.960938-9.308594 24.402344-18.003906 32.214844-6.816406 6.125-15.910156 10.945313-27.804688 14.738282-.648437.207031-1.296875.390624-1.945312.585937 4.007812-5.933594 7.902344-12.980469 10.269531-20.800781 4.054687-13.386719 2.855469-27.019532-3.285156-37.40625-4.734375-8-12.78125-14.628906-22.667969-18.664063-15.832031-6.464843-34.347656-5.308593-48.3125 3.019531-14.867188 8.863282-24.234375 25.964844-23.3125 42.550782.285156 5.136718 1.472656 10.453125 3.625 16.25 1.371094 3.695312 2.96875 7.109375 4.777344 10.238281-2.742188-1.367187-5.433594-2.847656-8.050782-4.476563-8.613281-5.367187-15.308593-11.515624-19.898437-18.269531zm46.542969 29.699219c-.269532-.417969-.582032-.8125-.984375-1.144531-5.5-4.589844-9.863281-11.164063-12.972657-19.539063-1.800781-4.839844-2.785156-9.195312-3.015624-13.316406-.6875-12.402344 6.082031-25.207031 16.960937-32.421875.125 1.6875.503906 3.375 1.191406 4.996094 2.175781 5.148437 6.929688 9.371093 13.390625 11.894531 3.816406 1.492188 7.71875 2.234375 11.476563 2.234375 4.140625 0 8.105469-.902344 11.582031-2.707031 6.179688-3.203125 10.289062-9.175782 11.117188-15.492188 4.199218 2.859375 7.605468 6.359375 9.910156 10.257813 4.714844 7.972656 5.558594 18.683593 2.320312 29.386719-2.59375 8.570312-7.671875 17.269531-15.945312 27.328124-14.550782 2.496094-28.898438 2.265626-42.21875-.773437-.945313-.214844-1.878906-.460937-2.8125-.703125zm38.683594-69.457031c.878906 3.804687-1.613282 8.4375-5.675782 10.542969-4 2.074218-9.527344 2.085937-14.785156.03125-2.265625-.886719-6.296875-2.902344-7.800781-6.453126-.96875-2.296874-.300781-5.304687 1.378906-6.195312.113281-.058594.207031-.140625.3125-.207031 8.484375-2.167969 17.839844-1.820313 26.449219 1.167969.003906.367187.035156.738281.121094 1.113281zm-119.90625 252.550781c-6.832032-1.742188-11.460938-4.03125-14.570313-7.207031-7.003906-7.148438-6.835937-19.636719-6.097656-28.40625 4.5625-54.324219 31.871093-107.976563 74.976562-147.464844 2.335938 1.285156 4.710938 2.488281 7.128907 3.585937-25.652344 57.074219-41.917969 118.816407-47.8125 180.898438-3.828126.417969-8.230469-.035156-13.625-1.40625zm11.890624 75.761719c-4.957031 3.984375-12.398437 4.574219-19.707031 4.621093-24.324219.160157-44.527343-3.554687-61.785156-11.363281-20.089844-9.085937-35.878906-24.378906-43.320313-41.964843-5.164062-12.210938-7.191406-27.144532-6.195312-45.65625 1.300781-24.195313 7.136719-49.914063 17.339844-76.445313 1.230468-3.195313 2.546875-6.480469 3.816406-9.660156 8.210938-20.523438 16.703125-41.746094 13.390625-64.113281-.890625-6.03125-2.625-12-4.304687-17.769532-3.316407-11.414062-6.453126-22.195312-2.808594-31.960937 2.1875-5.867188 7.535156-10.757813 14.304687-13.078125 6.769531-2.324219 13.996094-1.746094 19.324219 1.546875 5.707031 3.519531 9.234375 9.164062 11.1875 13.28125 5.902344 12.425781 6.425781 28.199219 1.597656 48.226562-3.960937 16.4375-10.410156 32.714844-16.648437 48.460938-9.296875 23.476562-18.914063 47.75-20.847657 73.613281-2.179687 29.207031 6.316407 57.007812 23.304688 76.277344 18.175781 20.609375 45.972656 30.285156 70.613281 25.015625.046875 6.644531.277344 13.667969.84375 20.898437-.03125.027344-.070312.042969-.105469.070313zm180.71875-12.96875c-1.839843 13.867187-4.730468 32.023437-10.796874 49.484375-2.46875 7.113281-6.148438 15.984375-12.742188 21.542968-5.15625 4.34375-13.921875 6.851563-20 2.941407-4.78125-3.078125-7.609375-9.933594-7.566406-18.34375.019531-3.976563.542968-7.960938 1.097656-12.183594.570312-4.339844 1.15625-8.828125 1.179688-13.433594.066406-12.328125-4.007813-24.519531-11.464844-34.335937-5.539063-7.296875-12.34375-12.375-19.671875-14.683594-9.03125-2.847656-18.761719-1.21875-25.394531 4.253906-7.578126 6.25-10.039063 15.847656-11.566407 25.292969-2.195312 13.519531-3.359375 27.324219-3.46875 41.019531-.078125 10.039063-.167969 21.414063-7.019531 26.824219-6.019531 4.75-15.261719 2.78125-20.902344-1.484375-5.65625-4.273438-10.042968-11.214844-13.800781-21.839844-9-25.445312-9.652344-53.488281-9.214844-75.074218 1.507813-74.535157 18.617188-149.980469 49.5-218.550782 3.609375 1.242188 7.28125 2.316406 11.027344 3.171875 8.015625 1.828125 16.351563 2.738281 24.867187 2.738281 12.941407 0 26.285157-2.109374 39.507813-6.289062 22.320313 31.828125 38.023437 71.054688 45.421875 113.605469 6.640625 38.183593 6.976562 80.355469 1.007812 125.34375zm36.535157-71.082031c-5.191407 8.476562-13.804688 14.144531-22.304688 14.953124.324219-24.804687-1.453125-48.523437-5.347656-70.933593-7.480469-43.007813-23.210937-82.789063-45.550781-115.40625 7.09375-2.9375 13.160156-6.359375 18.335937-10.335938 18.203125 27.957031 33.804688 57.757813 46.382813 88.644531 7.175781 17.632813 14.628906 38.566407 15.464844 60.144532.519531 13.441406-1.828126 24.519531-6.980469 32.933594zm0 0"/></svg>