<?xml version="1.0" encoding="iso-8859-1"?>
<!-- Generator: Adobe Illustrator 19.0.0, SVG Export Plug-In . SVG Version: 6.00 Build 0)  -->
<svg xmlns="http://www.w3.org/2000/svg" xmlns:xlink="http://www.w3.org/1999/xlink" version="1.1" id="Layer_1" x="0px" y="0px" viewBox="0 0 512.001 512.001" style="enable-background:new 0 0 512.001 512.001;" xml:space="preserve">
<g>
	<path style="fill:#00BCE9;" d="M19.607,55.77C8.412,67.907,5.253,85.592,10.685,101.539c5.843,17.156,22.151,24.839,38.642,24.833   c14.387-0.006,31.809-4.992,39.23-18.589c9.81-17.973,5.514-42.844-8.931-56.634C63.244,35.51,29.211,34.379,19.607,55.77z"/>
	<path style="fill:#00BCE9;" d="M420.523,65.25c-8.122,18.623,10.105,39.884,28.531,30.477c9.023-4.607,12.758-15.822,11.919-25.72   c-0.937-11.038-6.101-17.064-17.269-17.24C430.309,52.557,424.471,59.154,420.523,65.25z"/>
	<path style="fill:#00BCE9;" d="M343.585,122.134c-22.807,16.293-18.088,52.715,5.218,64.938   c14.005,7.346,32.895,9.779,42.928-5.252c8.452-12.664,10.622-30.306,2.539-43.624c-4.806-7.919-12.396-15.539-21.313-18.447   C359.914,115.496,351.544,118.015,343.585,122.134z"/>
	<path style="fill:#00BCE9;" d="M18.608,436.354c-22.806,16.293-18.088,52.715,5.218,64.939c14.005,7.346,32.895,9.778,42.928-5.252   c8.452-12.664,10.623-30.306,2.539-43.624c-4.806-7.919-12.396-15.539-21.313-18.447C34.937,429.717,26.567,432.235,18.608,436.354   z"/>
</g>
<path style="fill:#8082A6;" d="M287.465,214.465c-4.378-6.203-11.094-10.737-16.495-16.049  c-7.405-7.283-14.973-14.967-23.065-21.495c-14.157-11.42-31.343-18.576-48.656-23.878c-44.191-13.532-87.357,7.02-121.224,34.675  c-16.146,13.185-29.285,27.511-38.335,46.35c-6.444,13.417-13.851,27.064-14.574,42.397c-0.812,17.233,16.848,24.79,30.998,27.862  c23.793,5.164,49.156,5.577,72.94,0.452c11.364-2.449,22.448-5.837,33.596-9.08c10.01-2.913,20.162-7.645,30.61-8.639  c9.015-0.857,13.557,4.191,15.441,12.68c2.449,11.029-1.079,21.194-6.427,30.742c-10.281,18.359-29.642,35.203-49.558,42.114  c-11.426,3.966-24.454,6.341-36.592,5.545c-10.933-0.718-21.779-3.059-32.751-3.885c-9.512-0.716-20.268-5.554-29.747-3.187  c-10.023,2.502-11.097,11.594-2.878,17.038c25.138,16.649,52.27,30.708,79.369,43.898c31.26,15.215,64.629,27.363,99.497,30.047  c20.915,1.61,40.857,2.24,61.677-1.575c18.384-3.368,37.314-7.29,54.76-14.191c15.149-5.992,30.685-15.676,43.535-25.575  c11.347-8.74,24.357-17.576,33.097-29.096c7.614-10.037,13.354-21.976,17.351-33.9c5.077-15.148,9.636-30.761,13.783-46.194  c3.634-13.529,7.596-27.058,16.812-38.014c9.053-10.762,22.453-17.937,30.873-28.956c6.9-9.029-12.287-5.227-16.793-5.599  c-9.017-0.745-17.159-7.202-23.87-12.881c-3.965-3.355-7.56-7.152-11.579-10.432c-2.845-2.321-6.573-6.373-9.956-7.508  c-6.434,13.578,0.159,30.363-3.626,44.788c-2.376,9.053-4.88,20.608-11.247,27.856c-7.084,8.065-19.72,9.93-29.841,9.99  c-26.1,0.155-47.061-17.364-66.704-32.318c-7.652-5.826-13.874-12.902-20.704-19.603  C299.714,231.52,294.825,222.755,287.465,214.465z"/>
<path style="fill:#74C0EB;" d="M214.551,107.076c-0.005,10.255,2.286,20.178,2.378,30.425c0.068,7.602-3.722,21.131,5.35,25.269  c13.016,5.938,10.213-16.899,9.906-23.573c-0.643-13.995-0.986-27.264,2.388-40.986c0.808-3.289,0.405-9.85,4.745-10.173  c1.121-0.083,3.28,1.567,4.471,1.902c2.802,0.791,5.785,0.622,8.645,0.063c5.894-1.151,15.469-4.78,17.207-11.05  c1.125-4.056-1.242-8.241,1.248-11.504c3.73-4.887,10.009-6.856,13.051-12.721c2.36-4.552,4.137-11.8,1.869-16.71  c-1.622-3.511-6.553-8.002-10.221-9.312c-5.419-1.935-6.975,2.535-11.5,3.505c-3.386,0.725-7.013-4.066-10.702-5.266  c-2.916-0.95-6.365-1.978-9.51-1.891c-4.132,0.113-5.06,1.79-8.156,3.814c-6.179,4.037-5.188-5.65-7.061-10.152  c-2.486-5.973-9.849-12.755-16.713-7.323c-2.158,1.707-3.412,5.079-5.228,7.187c-3.653-2.398-4.508-7.27-8.896-9.409  c-4.412-2.151-10.919-4.355-15.781-3.167c-5.703,1.392-10.088,5.37-12.966,10.3c-2.164,3.705-1.652,7.715-2.935,11.453  c-9.333,0.204-16.932,9.211-16.943,18.289c-0.006,5.575,3.533,12.014,8.339,14.9c3.53,2.12,8.489,2.455,11.831,4.823  c2.792,1.979,1.943,2.939,2.766,6.341c0.944,3.902,4.1,7.588,7.551,9.636c8.047,4.774,16.485-1.951,24.732-0.821  C213.104,82.112,214.181,104.962,214.551,107.076z"/>
<g>
	<path style="fill:#FFFFFF;" d="M32.664,296.888c0.869,12.177-0.569,23.753,2.456,35.92c2.63,10.577,4.618,21.679,8.531,31.853   c1.361,3.538,1.969,6.101,5.85,6.329c4.39,0.258,8.467-3.096,12.989-2.803c4.265,0.276,8.905,2.581,12.991,3.893   c6.245,2.007,12.689,3.514,19.211,4.347c37.755,4.823,81.392-3.551,103.333-37.388c4.844-7.47,8.704-14.411,10.293-23.287   c1.135-6.349,2.252-18.726-2.09-24.329c-10.488-13.533-38.726,1.989-50.528,5.862c-27.952,9.175-57.255,12.044-86.571,9.208   c-8.172-0.791-18.675-3.545-26.278-6.911C39.481,298.092,35.58,294.87,32.664,296.888z"/>
	<path style="fill:#FFFFFF;" d="M76.325,71.007c-1.501-7.262-6.702-13.89-15.099-11.978c-4.21,0.959-8.074,4.607-8.801,8.936   c-0.451,2.683,0.443,4.579,1.8,6.817c2.827,4.668,4.595,8.286,3.644,13.863c-0.972,5.697-3.961,12.354,0.567,17.408   c3.089,3.448,7.697,3.593,11.114,0.68c4.895-4.172,6.959-9.925,7.858-16.101c0.446-3.061,1.298-5.99,0.98-9.086   C78.028,78.062,77.035,74.441,76.325,71.007z"/>
	<path style="fill:#FFFFFF;" d="M384.207,136.497c-1.696-2.549-4.183-5.05-6.937-6.458c-6.726-3.438-14.058-2.103-20.4,1.35   c-3.948,2.151-9.042,5.68-9.205,10.71c-0.17,5.233,4.28,7.148,8.71,7.638c3.771,0.417,7.066,0.191,9.956,3.16   c2.713,2.785,3.343,6.88,6.032,9.565c4.357,4.352,9.871,0.669,13.392-2.898c3.577-3.623,5.408-10.151,3.494-15.093   C388.2,141.759,385.844,138.957,384.207,136.497z"/>
	<path style="fill:#FFFFFF;" d="M59.23,450.303c-1.696-2.549-4.183-5.05-6.935-6.458c-6.204-3.172-12.541-1.61-18.712,0.686   c-4.909,1.826-10.704,5.533-10.894,11.374c-0.17,5.233,4.28,7.148,8.71,7.638c3.771,0.417,7.066,0.191,9.956,3.16   c2.713,2.787,3.343,6.88,6.032,9.565c4.357,4.352,9.871,0.669,13.392-2.898c3.577-3.623,5.409-10.151,3.494-15.093   C63.224,455.564,60.867,452.761,59.23,450.303z"/>
	<path style="fill:#FFFFFF;" d="M449.182,64.558c-0.742-1.518-1.786-2.681-3.249-2.726c-2.638,0-5.346,0.367-6.968,2.273   c-1.008,0.676-1.85,1.557-2.256,2.621c-1.081,2.828,0.747,3.128,2.458,4.601c3.988,3.429-3.665,11.237,3.294,13.644   c6.083,2.104,9.849-7.157,9.607-11.709C451.918,70.411,450.981,66.906,449.182,64.558z"/>
</g>
<path d="M508.633,233.673c-5.191-0.894-10.599-0.643-15.856-1.23c-6.335-0.709-12.734,0.607-18.787-1.969  c-5.275-2.246-10.316-5.334-14.524-9.212c-3.715-3.423-5.52-7.871-9.232-11.374c-1.995-1.882-3.689-3.577-5.211-5.861  c-0.895-1.343-1.618-3.18-2.88-4.164c-3.381-2.633-7.946-0.456-9.18,3.307c-1.28,3.908-0.454,9.099-0.556,13.14  c-0.178,7.071,0.057,14.261-0.454,21.312c-0.839,11.566-2.526,23.608-8.256,33.936c-5.271,9.502-16.729,14.401-27.265,13.241  c-2.826-0.311-5.499-0.888-8.259-1.468c-2.891-0.607-5.688-0.206-8.55-0.713c-5.161-0.917-11.338-2.676-16.05-4.957  c-5.098-2.467-10.168-5.384-15.136-8.11c-5.411-2.97-11.108-5.226-15.598-9.586c-7.676-7.454-15.186-14.723-21.099-23.693  c-3.154-4.784-5.531-9.781-9.56-13.96c-4.117-4.27-9.052-8.249-12.53-13.067c-6.384-8.845-14.055-17.027-22.273-24.265  c-4.023-3.544-8.528-6.525-12.883-9.638c-2.139-1.529-4.426-2.76-6.584-4.244c-2.491-1.713-4.189-4.148-6.442-6.137  c-1.953-1.724-4.174-3.148-6.487-4.439c0.128-2.356-0.058-4.764-0.078-7.174c-0.043-5.178-0.014-10.364-0.128-15.541  c-0.208-9.351,0.061-18.566,1.379-27.845c0.569-4.007,1.01-8.21,1.164-12.248c0.077-2.03,0.351-3.99,0.718-5.933  c7.847,3.808,18.118,3.6,25.487-0.959c4.086-2.529,6.12-6.695,8.353-10.766c2.099-3.828,2.876-6.7,1.58-10.037  c11.16-7.224,24.082-21.882,15.327-34.873c-3.74-5.549-7.776-11.213-15.093-11.772c-4.936-0.377-8.161,2.305-10.893,5.684  c-3.86-5.447-10.841-8.19-17.802-7.541c-3.658,0.341-7.422,1.719-10.39,3.947c-1.461-7.284-4.415-14.551-10.623-17.381  c-4.221-1.925-9.576-1.51-13.486,0.949c-1.582,0.995-3.041,2.369-4.219,3.87c-0.017-0.015-0.03-0.03-0.046-0.044  c-2.787-2.562-5.446-5.274-8.658-7.322c-5.49-3.5-11.012-3.553-17.207-2.241c-5.665,1.2-10.69,4.974-13.88,9.848  c-1.878,2.869-2.882,7.51-2.701,11.739c-10.757-0.831-20.395,11.743-18.863,22.472c0.865,6.062,5.415,11.957,10.238,15.578  c2.492,1.871,5.522,3.351,8.356,4.642c1.855,0.844,3.638,1.064,5.448,1.14c-1.824,6.625,2.425,13.152,9.592,15.724  c5.559,1.995,10.482,3.08,16.443,2.328c2.096-0.264,4.317-0.704,6.222-1.658c1.784-0.893,2.891-2.184,4.158-3.433  c0.162,0.508,0.317,1.018,0.464,1.531c1.102,3.856,3.569,7.769,4.041,11.688c0.511,4.246,0.947,8.417,1.753,12.65  c0.806,4.239,0.682,8.593,1.192,12.895c0.49,4.129,1.222,8.301,1.186,12.46c-0.042,4.85-0.319,9.692-0.314,14.544  c0.001,1.033-0.093,2.085-0.218,3.142c-0.115-0.056-0.225-0.112-0.345-0.168c-4.746-2.212-10.479-3.612-15.615-4.557  c-2.526-0.465-4.879-0.376-7.374-0.549c-2.953-0.204-5.648-1.083-8.679-1.093c-5.484-0.017-10.811,1.146-16.271,1.295  c-6.25,0.17-12.342,1.591-18.429,2.962c-12.418,2.8-24.011,7.429-35.645,12.522c-11.643,5.096-23.574,11.805-33.453,19.826  c-5.215,4.234-9.776,9.044-14.155,14.119c-3.935,4.56-8.407,8.645-12.089,13.424c-4.328,5.618-8.07,11.745-11.566,17.906  c-3.049,5.375-6.631,10.996-8.465,16.975c-0.749,1.053-1.52,2.092-2.192,3.171c-1.977,3.173-3.22,6.906-4.646,10.346  c-1.492,3.602-2.602,7.759-3.242,11.597c-0.699,4.186-1.944,8.689-1.096,12.909c0.706,3.514,1.059,7.294,2.682,10.564  c1.437,2.897,3.635,4.872,6.069,6.788c-0.581,6.288-0.357,13.101,0.602,19.265c0.593,3.818,0.407,7.404,0.792,11.244  c0.376,3.741,1.209,7.422,1.748,11.139c1.106,7.634,2.344,15.037,5.203,22.256c1.185,2.993,2.387,6.45,4.296,9.239  c-0.85,0.912-1.6,1.909-2.199,3.008c-4.236,7.757,3.241,14.637,8.834,19.086c3.251,2.586,6.727,4.573,10.282,6.692  c3.804,2.267,7.246,5.121,11.013,7.47c7.006,4.369,14.55,9.092,22.223,12.173c4.028,1.617,8.29,2.467,12.158,4.483  c4.463,2.328,8.483,5.448,13.026,7.629c15.837,7.602,31.609,15.276,47.824,22.177c8.646,3.679,17.962,5.608,27.21,7.136  c9.074,1.5,17.93,4.122,27.059,5.36c9.491,1.286,19.012,1.164,28.566,1.226c9.802,0.064,19.609,0.248,29.325-1.385  c18.582-3.124,36.846-8.658,55.112-13.185c17.439-4.321,33.354-13.407,48.507-22.764c15.097-9.321,30.281-20.055,41.979-33.535  c5.847-6.738,10.006-14.203,14.175-22.025c4.261-7.995,6.752-17.084,10.378-25.412c3.398-7.801,6.403-16.775,8.046-25.129  c1.86-9.463,3.587-18.59,7.309-27.556c3.417-8.228,7.866-16.037,12.67-23.524c4.553-7.096,10.864-13.21,17.516-18.241  c3.377-2.555,6.208-5.895,9.837-8.102c2.927-1.781,6.085-2.884,8.288-5.652C512.741,239.188,512.576,234.352,508.633,233.673z   M210.32,82.729c-1.529-4.693-3.673-9.144-5.149-13.853c-1.292-4.123-2.852-5.959-5.864-8.87c-0.435-0.42-0.999,0.021-0.928,0.541  c0.461,3.406,2.332,6.661,3.249,10.016c0.636,2.325,1.46,4.588,2.277,6.852c-1.693,0.665-3.255,1.629-4.998,2.21  c-3.513,1.171-8.19,1.324-11.802,0.711c-2.598-0.44-6.557-1.603-8.857-3.03c-3.948-2.45-3.64-6.752-1.153-10.004  c1.712-2.237-0.709-4.731-2.86-4.985c-2.24-0.264-4.642,0.265-6.831-0.314c-1.874-0.496-3.986-1.942-5.692-2.877  c-3.294-1.805-5.818-4.504-7.971-7.586c-2.613-3.739-3.167-8.367-1.125-12.507c2.356-4.775,8.534-9.639,13.804-6.65  c2.901,1.645,5.971-1.607,4.458-4.459c-1.986-3.746,0.636-10.39,2.992-12.97c2.677-2.93,5.142-4.451,9.008-5.186  c4.23-0.805,7.5-0.667,11.185,1.758c3.134,2.063,8.306,5.9,8.582,9.799c0.197,2.772,4.018,5.188,6.152,2.549  c1.544-1.91,1.623-4.067,2.88-6.03c2.265-3.534,7.312-5.155,10.812-2.31c4.823,3.919,6.097,15.535,6.468,21.242  c0.273,4.469,7.255,4.506,6.993,0c-0.364-5.334,5.444-8.191,10.112-8.494c5.833-0.379,11.39,2.392,12.763,8.332  c0.716,3.098,4.621,3.016,6.214,0.812c2.8-3.871,5.266-8.984,10.863-6.484c3.524,1.574,7.168,6.85,8.465,10.4  c1.649,4.511-1.568,9.709-4.016,13.391c-3.331,5.011-8.023,8.004-12.985,11.206c-1.944,1.254-2.033,3.505-0.67,5.208  c3.108,3.885-4.722,12.995-8.25,14.558c-5.553,2.461-13.618,2.668-18.823-0.944c0.026-0.111,0.053-0.22,0.08-0.33  c1.107-4.628,1.51-9.375,2.409-14.047c0.587-3.054,2.052-6.134,1.428-9.233c-0.196-0.976-1.677-0.914-1.912,0  c-1.013,3.934-3.33,7.497-4.332,11.58c-1.588,6.473-3.468,12.885-4.951,19.383c-1.472,6.443-1.763,13.107-2.733,19.639  c-1.296,8.726-1.607,17.258-1.559,26.05c0.03,5.178-0.086,10.363-0.13,15.541c-0.01,1.179-0.059,2.359-0.094,3.531  c-0.548-0.27-1.095-0.54-1.633-0.811c-1.8-0.909-3.609-1.86-5.516-2.531c0.018-0.212,0.039-0.422,0.053-0.635  c0.365-5.099-0.01-10.339,0.05-15.456c0.057-4.888-0.511-9.242-1.343-14.002c-0.849-4.854-0.795-9.909-1.83-14.702  c-1.068-4.943-2.225-9.708-2.903-14.732C214.159,89.935,211.585,86.615,210.32,82.729z M48.162,367.26  c-2.577-3.748-4.137-8.751-5.433-12.837c-2.059-6.491-3.041-13.203-4.589-19.818c-1.434-6.126-1.391-12.26-2.549-18.38  c-0.865-4.569-1.107-9.334-1.496-14.046c6.391,3.623,13.718,4.962,20.775,7.265c0.053,0.018,0.107,0.032,0.162,0.05  c-0.966,11.969,0.456,24.463,2.013,36.355c0.688,5.26,1.463,10.458,2.354,15.687c0.214,1.257,0.376,2.555,0.651,3.779  c-0.599-0.046-1.2-0.081-1.806-0.093C54.973,365.16,51.401,365.851,48.162,367.26z M81.442,326.061  c0.567,6.116,1.271,12.289,2.013,18.386c0.742,6.097,2.205,12.142,3.509,18.139c0.524,2.41,0.895,5.999,2.014,8.892  c-2.179-0.34-4.358-0.701-6.541-1.065c-5.239-0.876-10.27-2.695-15.415-3.931c-0.082-0.09-0.166-0.181-0.27-0.262  c-2.102-1.662-2.419-9.052-2.789-11.544c-0.694-4.689-1.144-9.415-1.883-14.105c-0.85-5.396-1.147-11.015-1.526-16.476  c-0.321-4.61-1.386-8.998-1.985-13.523c7.611,2.179,15.426,3.547,23.237,4.643C81.06,318.786,81.128,322.686,81.442,326.061z   M111.709,328.749c1.131,7.776,3.805,15.565,5.432,23.295c1.219,5.793,2.132,11.94,3.789,17.624  c0.379,1.303,0.863,2.781,1.518,4.162c-4.618,0.025-9.231-0.12-13.802-0.273c-4.212-0.141-8.385-0.536-12.541-1.063  c-0.011-0.233-0.042-0.464-0.107-0.681c-3.244-10.938-5.447-21.862-6.886-33.168c-0.605-4.756-1.687-9.482-2.191-14.253  c-0.311-2.955-0.174-5.976-0.574-8.879c3.327-0.098,6.651-0.767,9.973-0.951c4.711-0.262,9.185-0.742,13.846-1.497  c0.034-0.006,0.069-0.011,0.103-0.017c0.052,1.518,0.145,3.049-0.01,4.611C109.889,321.378,111.17,325.045,111.709,328.749z   M174.361,325.14c0.968,4.728,1.944,9.525,3.293,14.16c1.11,3.81,1.556,8.481,4.421,11.391c-2.621,2.405-5.52,4.259-8.389,6.403  c-3.494,2.609-6.443,5.094-10.497,6.839c-0.905,0.39-1.812,0.783-2.72,1.178c-1.6-4.113-3.21-8.168-4.706-12.361  c-2.046-5.735-2.794-11.725-4.818-17.436c-1.989-5.611-3.619-10.913-4.332-16.85c-0.439-3.647-1.512-7.057-2.447-10.53  c7.457-1.371,14.824-3.104,21.969-5.616c1.145-0.403,2.286-0.814,3.427-1.222c0.212,3.587,1.051,7.438,1.977,10.678  C172.799,316.181,173.44,320.641,174.361,325.14z M172.608,300.008c6.456-2.322,12.898-4.662,19.445-6.754  c3.052-0.975,8.106-3.239,9.937,0.533c1.641,3.379,1.293,7.999,0.934,11.561c-0.388,3.854-0.688,7.768-1.208,11.605  c-0.594,4.399-2.889,7.561-4.88,11.43c-3.141,6.102-5.994,11.906-10.101,17.171C180.592,330.859,179.925,314.205,172.608,300.008z   M144.792,336.081c1.927,6.082,2.569,12.345,4.664,18.406c1.574,4.558,2.992,8.874,4.855,13.246  c-6.236,2.564-12.631,4.777-19.335,5.477c-1.573,0.164-3.149,0.279-4.727,0.373c-0.185-0.153-0.395-0.271-0.618-0.36  c-2.456-3.268-3.33-6.832-4.075-11.006c-0.963-5.39-2.299-10.664-3.425-16.021c-1.417-6.752-3.997-13.181-5.335-19.936  c-0.684-3.449-1.859-6.425-2.028-9.942c-0.082-1.704-0.391-2.778-0.791-3.851c8.66-1.309,17.436-2.37,26.124-3.823  c-0.025,3.534,1.148,7.051,1.358,10.719C141.788,325.182,143.033,330.529,144.792,336.081z M485.888,248.472  c-6.241,4.447-11.571,10.039-16.275,16.106c-10.27,13.244-18.359,30.437-21.958,46.788c-0.983,4.465-1.543,9.012-2.576,13.468  c-1.024,4.418-2.839,8.505-4.239,12.799c-2.795,8.571-6.538,16.705-9.806,25.107c-6.65,17.1-16.963,30.078-31.256,41.59  c-13.63,10.979-29.017,20.233-44.415,28.505c-15.321,8.231-33.385,12.293-50.207,16.298c-9.155,2.18-18.382,4.128-27.581,6.138  c-9.506,2.078-19.336,1.786-29.002,1.665c-9.45-0.118-18.983,0.219-28.366-1.147c-9.065-1.32-17.899-3.917-26.924-5.441  c-17.853-3.015-34.138-10.081-50.039-18.485c-7.399-3.911-15.381-6.655-22.687-10.736c-3.918-2.189-7.563-4.848-11.568-6.886  c-4.003-2.036-8.267-3.059-12.444-4.622c-7.537-2.819-14.969-7.848-21.781-12.098c-3.546-2.212-6.755-4.925-10.335-7.067  c-3.638-2.177-7.241-4.149-10.433-6.988c-0.925-0.821-3.691-2.901-4.576-4.292c0.371,0.321,0.875-0.861,1.856-1.663  c3.402-2.784,7.482-2.882,11.698-2.433c4.177,0.443,8.005,2.115,12.053,3.127c4.125,1.032,8.347,1.567,12.504,2.444  c8.03,1.693,16.172,1.599,24.288,2.344c2.259,0.207,4.334,1.022,6.63,0.893c1.8-0.101,3.534-0.701,5.322-0.864  c4.645-0.424,9.271,0.201,13.941-0.414c8.886-1.17,17.088-4.574,25.273-8.06c3.943-1.68,7.946-3.074,11.417-5.634  c3.119-2.3,6.206-4.611,9.342-6.888c6.196-4.498,11.454-10.486,15.533-16.951c2.206-3.496,3.828-7.291,5.691-10.97  c1.701-3.358,4.101-6.509,5.29-10.097c1.116-3.37,1.347-7.012,1.648-10.524c0.393-4.588,1.386-9.216,1.15-13.834  c-0.297-5.799-1.731-13.032-7.227-16.126c-6.818-3.839-14.997-0.44-21.686,1.859c-8.566,2.945-16.958,6.484-25.671,9.005  c-17.673,5.113-36.468,6.314-54.585,9.097c-9.086,1.396-18.517,1.587-27.58,0.411c-9.266-1.202-18.327-4.951-27.289-7.441  c-4.383-1.217-8.28-2.241-11.955-5.019c-3.582-2.707-4.755-4.2-5.363-8.607c-0.345-2.508-1.18-4.011-0.684-6.563  c0.377-1.935,0.548-3.836,0.808-5.791c0.291-2.198,0.737-4.44,1.316-6.637c1.763-4.158,3.651-8.269,5.008-12.476  c0.465-1.442,0.883-2.828,1.31-4.189c1.192-2.312,2.128-4.599,2.733-7.173c0.228-0.468,0.465-0.938,0.724-1.413  c2.625-4.811,5.435-9.576,8.426-14.167c5.835-8.959,12.935-16.086,20.029-23.979c6.421-7.146,13.584-13.605,21.864-18.533  c18.348-10.923,38.149-19.301,59.1-23.639c5.257-1.088,10.174-1.633,15.502-1.935c5.071-0.286,10.181-1.717,15.302-1.109  c1.932,0.229,3.719,1.002,5.677,1.134c1.953,0.132,3.802-0.126,5.759,0.196c4.378,0.722,10.401,1.9,14.264,4.118  c1.603,0.92,2.546,2.097,4.464,2.643c2.293,0.653,4.157,0.965,6.368,2.063c4.926,2.445,10.797,4.838,14.829,8.643  c3.005,2.834,5.397,5.541,8.98,7.753c4.078,2.518,7.973,5.339,11.814,8.211c3.766,2.816,6.811,6.197,10.219,9.393  c3.574,3.35,6.456,7.159,9.892,10.589c3.35,3.344,5.624,7.514,8.933,10.949c3.503,3.637,7.413,7.12,10.671,10.965  c3.112,3.676,4.874,8.247,7.673,12.132c2.662,3.696,5.301,7.793,8.35,11.166c5.795,6.415,12.259,13.481,19.494,18.26  c8.543,5.642,18.38,10.471,27.571,14.981c3.897,1.913,8.041,2.948,12.189,4.147c2.033,0.587,4.04,1.321,6.109,1.774  c2.865,0.628,5.707,0.254,8.551,0.71c5.493,0.879,11.036,2.387,16.679,2.152c5.215-0.218,10.425-1.824,15.155-3.949  c8.801-3.955,15.504-10.945,19.281-19.767c2.404-5.616,4.557-11.349,5.637-17.383c0.972-5.43,1.037-11.225,1.43-16.735  c0.454-6.353-0.14-12.979-0.302-19.348c-0.046-1.844-0.094-3.686-0.141-5.529c1.871,1.723,3.644,3.516,4.832,5.774  c1.657,3.147,3.991,5.902,6.657,8.332c-0.088,0.089-0.184,0.169-0.259,0.273c-2.224,3.097-3.195,8.596-3.859,12.349  c-0.528,2.98-1.409,6.775-0.157,9.603c0.3,0.676,1.438,0.647,1.748,0c1.63-3.411,2.875-6.588,4.107-10.188  c0.924-2.7,2.36-5.775,2.496-8.735c1.229,0.892,2.487,1.738,3.757,2.523c2.133,1.318,4.262,2.482,6.424,3.492  c-1.726,2.193-3.209,4.718-4.395,6.93c-1.138,2.12-3.906,5.911-3.163,8.345c0.112,0.364,0.382,0.581,0.686,0.661v0.025  c3.055,1.038,5.422-3.109,6.795-5.251c1.737-2.71,4.397-5.43,6.09-8.402c2.647,0.775,5.404,1.273,8.348,1.43  c3.543,0.189,7.008,0.184,10.515,0.568C490.826,244.295,488.529,246.588,485.888,248.472z"/>
<path d="M112.023,234.097c-2.445,4.183-2.797,9.342,0.065,13.411c3.242,4.609,9.91,6.641,14.999,3.906  c0.681-0.366,1.295-0.824,1.856-1.339c0.99-0.583,1.878-1.286,2.586-2.108c3.62-4.208,4.464-11.004,2.077-15.983  C128.895,222.157,116.462,226.5,112.023,234.097z"/>
<path d="M311.7,339.033c-5.572,1.26-11.556,1.725-16.912,3.773c-2.016,0.77-3.846,1.904-5.973,2.385  c-2.387,0.539-4.805,0.354-7.21,0.656c-3.967,0.497-8.034,1.151-11.957,2.036c-2.681,0.605-8.305,2.592-11.781,2.734  c0.355-1.748,1.022-3.797,1.175-4.884c0.496-3.534,1.318-7.023,2.036-10.521c1.36-6.634,0.838-12.693,0.648-19.407  c-0.152-5.401-2.551-11.799-5.007-16.597c-1.135-2.218-1.985-4.736-3.236-6.855c-1.466-2.482-4.138-3.688-5.543-6.242  c-0.8-1.455-3.339-0.467-2.74,1.155c0.653,1.767,1.701,3.176,2.513,4.865c0.924,1.92,0.783,3.73,1.21,5.723  c0.398,1.859,1.656,3.728,2.291,5.504c0.937,2.62,1.66,5.434,2.376,8.128c1.113,4.183,0.476,9.425,0.313,13.797  c-0.204,5.501-2.592,10.829-3.735,16.19c-1.318,6.183-6.028,18.362,4.583,18.259c5.061-0.05,9.761-2.09,14.604-3.279  c4.705-1.155,9.552-2.008,14.306-2.709c4.603-0.678,8.37-1.093,12.673-3.058c2.795-1.277,5.789-1.901,8.767-2.619  c2.986-0.719,6.336-2.008,9.383-2.394c-0.062,0.084-0.122,0.178-0.176,0.295c-0.505,1.078-0.932,2.259-1.383,3.36  c-0.984,2.412-1.73,4.909-2.71,7.319c-0.17,0.416-0.344,0.829-0.518,1.241c-4.321-0.126-8.912,0.541-12.932,1.597  c-3.152,0.827-6.036,0.586-9.223,0.949c-2.277,0.258-4.414,1.119-6.597,1.774c-0.987,0.296-0.691,1.568,0.227,1.683  c2.423,0.304,4.691-0.275,7.113-0.187c2.633,0.097,5.281,0.93,7.914,0.291c3.823-0.927,7.668-1.326,11.593-1.677  c-1.484,3.411-2.928,6.818-3.979,10.454c-0.237,0.817-0.46,1.637-0.68,2.458c-2.682-1.789-6.337-1.485-9.434-1.291  c-5.603,0.35-11.259-0.408-16.805,0.5c-0.795,0.131-0.748,1.394,0,1.561c5.275,1.173,10.429,2.344,15.854,2.228  c1.864-0.04,3.797-0.2,5.652,0.058c1.348,0.187,2.387,0.865,3.65,1.132c-0.787,3.1-1.579,6.2-2.581,9.239  c-0.03,0.089-0.059,0.185-0.089,0.278c-2.294-1.146-4.973-1.378-7.506-1.787c-4.773-0.77-8.775-3.404-13.749-2.857  c-1.127,0.124-1.572,1.824-0.288,2.127c4.034,0.956,7.397,3.367,11.347,4.456c2.894,0.799,6.128,0.723,8.786,2.249  c-0.59,1.36-1.361,2.555-2.481,3.112c-1.897,0.945-5.039-0.368-6.989-0.794c-5.005-1.094-9.91-1.681-14.716-3.55  c-5.197-2.021-10.496-3.299-15.919-4.535c-3.948-0.9-9.696-3.497-13.19-0.243c-1.221,1.138-1.534,2.456-2.064,3.961  c-0.886,2.517-1.932,4.699-3.426,6.947c-1.556,2.34-3.646,4.11-5.32,6.333c-1.642,2.18-2.344,4.674-4.731,6.251  c-1.985,1.31-3.534,2.126-5.208,3.929c-2.089,2.249-4.289,5.589-7.201,6.73c-1.694,0.665-1.667,3.556,0.465,3.437  c2.997-0.169,5.818-1.027,8.269-2.776c1.134-0.808,2.127-1.777,3.209-2.647c1.875-1.507,4.065-2.153,5.959-3.583  c2.899-2.19,4.034-5.874,6.447-8.494c2.532-2.749,4.673-5.546,6.502-8.836c0.772-1.389,1.194-2.974,1.94-4.336  c0.082-0.151,0.17-0.945,0.291-1.292c0.184,0.397,2.533,1.102,2.456,1.071c4.298,1.723,9.275,2.154,13.701,3.584  c3.809,1.23,7.397,3.066,11.284,4.046c4.131,1.041,8.4,1.864,12.574,2.729c7.319,1.519,12.52-0.682,15.451-7.707  c3.604-8.644,4.785-17.998,7.681-26.866c1.367-4.188,3.36-8.128,4.745-12.305c1.215-3.665,3.426-7.993,3.588-11.898  C321.561,338.817,316.917,337.853,311.7,339.033z"/>
<path d="M326.567,163.259c0.72,3.4,1.618,6.736,3.644,9.235c0.478,1.108,0.989,2.199,1.536,3.266  c9.288,18.127,35.924,25.758,53.403,14.99c18.629-11.477,22.752-37.194,12.208-55.613c-5.272-9.208-12.524-16.792-23.071-19.827  c-10.507-3.023-22.566-1.63-32.178,3.654c-10.042,5.52-14.971,17.499-15.972,28.299c-0.258,2.785-1.377,4.978-1.121,7.891  C325.252,157.864,326.005,160.606,326.567,163.259z M331.477,150.052c0.206-1.007,0.193-2.034,0.223-3.056  c0.052-0.213,0.093-0.429,0.15-0.64c0.503-1.83,1.554-3.268,2.307-4.975c0.802-1.819,1.128-3.796,1.858-5.642  c1.761-4.453,5.277-7.731,8.639-11.023c14.085-8.659,36.468-4.403,44.731,10.045c4.351,7.607,7.57,14.948,7.032,23.94  c-0.582,9.727-4.003,18.04-11.572,24.257c-13.753,11.297-36.665,6.663-46.719-7.338c-4.468-6.222-7.385-14.7-7.196-22.7  C331.058,152.056,331.251,151.153,331.477,150.052z"/>
<path d="M416.799,85.07c2.47,6.899,8.121,12.692,15.586,15.576c6.562,2.535,12.872,0.988,19.041-1.878  c6.395-2.972,9.471-8.303,11.889-14.716c1.305-3.463,0.793-7.344,0.706-10.956c-0.071-2.993-0.184-5.786-1.567-8.509  c-1.359-2.68-3.211-5.687-5.096-8.026c-2.148-2.665-4.426-3.225-7.482-4.368c-6.522-2.438-14.023-2.949-20.502,0.437  c-6.512,3.402-10.278,10.262-12.622,16.953C414.898,74.873,415.071,80.243,416.799,85.07z M421.728,74.621  c0.988-7.378,6.672-14.547,13.506-17.458c5.641-2.401,14.723-0.51,18.361,4.697c1.406,2.013,3.368,4.731,3.993,7.129  c0.748,2.865,0.474,6.561,0.372,9.503c-0.114,3.266-1.895,5.539-3.066,8.47c-1.496,3.745-3.999,5.352-7.613,6.915  c-7.09,3.065-12.309,2.273-18.385-2.379c-2.638-2.02-4.318-3.585-5.869-6.634c-0.825-1.622-2.211-3.594-2.247-5.451  C420.754,78.051,421.531,76.092,421.728,74.621z"/>
<path d="M29.631,125.448c11.029,5.41,24.296,4.522,35.981,2.102c5.543-1.148,12.159-2.663,16.801-6.118  c4.3-3.2,7.843-9.332,10.212-14.052c2.64-5.26,2.962-10.484,3.763-16.205c0.895-6.387,0.118-12.152-1.7-18.202  c-1.389-4.621-2.618-9.73-5.428-13.775c-1.333-1.918-3.052-3.297-4.362-5.253c-1.524-2.279-3.413-4.061-5.401-5.956  c-3.996-3.81-8.329-7.409-13.481-9.531c-5.784-2.382-12.586-2.229-18.725-1.592c-6.474,0.673-13.189,2.564-18.764,5.971  c-2.817,1.721-4.337,4.347-6.828,6.408c-2.536,2.097-4.538,4.074-6.626,6.674c-2.582,3.213-4.256,6.266-5.547,9.577  c-0.336,0.656-0.65,1.311-0.937,1.96c-2.147,4.851-3.317,10.212-3.943,15.46C3.922,88.99,5.718,95.06,7.223,100.931  C10.011,111.8,19.935,120.691,29.631,125.448z M10.031,80.515c0.432-1.159,0.905-2.312,1.324-3.535  c1.937-5.658,2.895-10.962,6.731-15.769c2.53-3.169,5.196-5.524,8.278-8.071c1.782-1.473,2.873-3.001,4.567-4.287  c0.374-0.239,0.742-0.49,1.108-0.739c0.13-0.076,0.247-0.157,0.385-0.232c2.725-1.462,5.474-2.487,8.505-3.123  c10.796-2.267,21.18-2.747,30.14,4.605c5.325,4.37,11.052,9.304,14.697,15.233c2.565,4.173,3.761,11.605,4.238,16.394  c0.529,5.306-0.769,10.377-1.172,15.593c-0.446,5.762-3.234,9.994-6.404,14.749c-3.342,5.012-7.33,6.859-13.084,8.61  c-10.401,3.165-21.006,3.875-31.698,1.984c-9.551-1.689-19.367-10.247-23.841-18.652c-1.441-2.707-1.792-5.706-2.454-8.653  c-0.648-2.883-1.813-5.592-1.793-8.588C9.571,84.268,9.744,82.401,10.031,80.515z"/>
<path d="M49.309,429.116c-10.507-3.023-22.566-1.63-32.178,3.654C7.088,438.29,2.16,450.269,1.159,461.07  c-0.258,2.785-1.377,4.978-1.121,7.891c0.237,2.708,0.989,5.451,1.551,8.104c0.72,3.4,1.618,6.736,3.644,9.235  c0.479,1.108,0.989,2.199,1.536,3.266c9.288,18.127,35.924,25.758,53.403,14.99c18.629-11.477,22.752-37.194,12.208-55.613  C67.107,439.734,59.856,432.151,49.309,429.116z M71.442,472.507c-0.583,9.726-4.003,18.04-11.572,24.257  c-13.752,11.297-36.665,6.663-46.719-7.338c-4.468-6.221-7.385-14.7-7.196-22.7c0.126-0.865,0.319-1.768,0.544-2.869  c0.206-1.007,0.193-2.034,0.223-3.056c0.052-0.213,0.093-0.429,0.15-0.64c0.503-1.83,1.554-3.268,2.307-4.975  c0.802-1.819,1.128-3.796,1.858-5.642c1.761-4.453,5.277-7.731,8.639-11.023c14.085-8.659,36.468-4.403,44.731,10.045  C68.761,456.174,71.98,463.515,71.442,472.507z"/>
<g>
</g>
<g>
</g>
<g>
</g>
<g>
</g>
<g>
</g>
<g>
</g>
<g>
</g>
<g>
</g>
<g>
</g>
<g>
</g>
<g>
</g>
<g>
</g>
<g>
</g>
<g>
</g>
<g>
</g>
</svg>
