<?xml version="1.0" encoding="iso-8859-1"?>
<!-- Generator: Adobe Illustrator 19.0.0, SVG Export Plug-In . SVG Version: 6.00 Build 0)  -->
<svg xmlns="http://www.w3.org/2000/svg" xmlns:xlink="http://www.w3.org/1999/xlink" version="1.1" id="Layer_1" x="0px" y="0px" viewBox="0 0 512 512" style="enable-background:new 0 0 512 512;" xml:space="preserve">
<path style="fill:#FFC94E;" d="M72.519,59.51c-14.445,7.326-19.006,15.951-19.893,31.769c-0.74,13.199,4.9,24.989,16.893,31.919  c6.465,3.735,13.331,6.468,20.814,6.382c6.585-0.075,16.844-0.038,22.267-4.151c12.33-9.353,11.753-34.485,7.275-47.524  C112.784,57.249,88.168,51.726,72.519,59.51z"/>
<path style="fill:#00BCE9;" d="M247.69,415.662c-5.171-3.297-9.889-7.387-15.338-10.687c-6.366-3.856-12.445-7.956-19.006-11.491  c-13.66-7.362-27.612-15.457-42.465-20.187c-16.465-5.243-35.585-1.732-51.422,3.989c-14.523,5.247-26.015,15.365-39.238,22.96  c-24.206,13.902-61.947,20.484-71.728,50.588c-1.859,5.72-4.142,13.206-2.306,19.25c1.695,5.577,6.53,11.978,10.478,16.228  c12.253,13.184,35.667,9.553,51.591,8.429c11.813-0.835,23.951-1.542,35.812-1.112c13.11,0.474,26.104-0.895,39.203-1.175  c21.282-0.454,43.14-1.211,64.311,0.394c9.603,0.728,19.302,1.372,28.93,1.308c9.925-0.066,19.796-1.312,29.687-1.296  c23.263,0.039,46.403,2.375,69.68,2.375c12.601,0,25.362-0.135,37.905-1.289c12.931-1.188,25.509-3.46,38.538-3.462  c13.217-0.002,26.09,0.936,39.238,2.068c10.072,0.867,22.086,4.964,32.003,2.473c13.154-3.305,22.875-23.408,23.915-35.914  c1.322-15.901-7.021-33.523-13.311-47.95c-8.497-19.491-25.261-31.73-43.822-40.753c-23.344-11.348-46.999-8.805-71.643-3.628  c-26.359,5.536-50.295,21.542-73.71,34.218c-14.17,7.67-29.683,18.837-46.656,19.391  C253.498,420.545,248.935,417.593,247.69,415.662z"/>
<g>
	<path style="fill:#F05161;" d="M235.813,117.174c-9.798,17.112-17.551,37.494-22.959,56.521   c-3.952,13.906-5.145,28.897-4.376,43.373c0.84,15.812,1.517,31.704,4.673,47.279c1.213,5.98,2.962,11.791,5.728,17.181   c2.618,5.1,7.685,10.268,9.243,15.686c-0.052,0.163-0.147,0.298-0.283,0.405c-4.303-0.09-7.995-3.507-12.288-4.233   c-6.009-1.015-13.129-0.672-19.231-0.455c-10.898,0.391-21.859,0.751-32.761,1.286c-13.81,0.678-27.756,2.48-41.455,4.365   c-5.97,0.822-16.344,5.347-17.64-3.46c-1.775-12.073,3.74-27.047,6.63-38.588c3.869-15.451,9.071-31.293,17.022-45.176   c15.667-27.353,37.329-51.792,62.208-70.889c11.172-8.576,23.431-16.982,36.064-23.199   C228.532,116.217,240.785,111.403,235.813,117.174z"/>
	<path style="fill:#F05161;" d="M254.42,21.372c8.982,20.668,17.472,43.031,24.852,64.602c4.6,13.446,9.351,26.944,13.856,40.403   c4.066,12.149,9.86,24.317,12.468,36.905c6.516,31.453-3.205,63.311-16.308,91.548c-4.614,9.943-12.881,19.515-20.085,27.653   c-4.569,5.16-10.394,14.723,0.948,14.446c12.357-0.3,25.111-8.626,36.469-12.804c11.993-4.411,24.379-7.098,37.182-8.129   c13.013-1.047,26.037-1.466,39.069-0.957c10.848,0.423,21.222,4.157,31.967,5.631c5.987,0.821,12.071,1.293,17.745,3.553   c4.837,1.926,9.056,4.981,13.945,6.848c4.315,1.647,8.361,3.699,12.864,4.641c2.588,0.54,5.572,0.533,7.898,1.525   c4.38-3.142,1.327-13.382,0.511-17.702c-2.107-11.14-7.339-21.097-11.187-31.733c-3.974-10.987-6.407-22.034-11.546-32.595   c-5.683-11.678-10.559-23.574-16.571-35.088c-12.731-24.381-30.784-45.949-49.773-65.706   c-10.997-11.443-21.465-23.864-33.043-34.622c-5.924-5.505-11.161-10.912-18.299-14.981c-7.178-4.091-14.536-7.899-21.288-12.659   c-12.007-8.464-23.666-18.482-36.656-25.343C267.86,25.976,252.321,16.5,254.42,21.372z"/>
</g>
<g>
	<path style="fill:#8082A6;" d="M256.398,120.34c0-29.591,1.871-59.512-2.574-88.555c-0.989-6.464-4.09-23.482-14.251-17.544   c-7.834,4.578-5.41,19.806-4.926,27.173c0.754,11.502,1.526,22.941,1.563,34.512c0.09,28.529,3.166,56.821,3.166,85.385   c0,28.321-0.726,56.488-0.397,84.764c0.259,22.339-3.09,44.031-5.937,66.095c-0.398,3.087-2.128,8-1.191,11.02   c1.074,3.46,4.759,2.882,8.318,3.002c4.539,0.153,8.959-0.207,13.436,0.021c1.8,0.093,8.3,0.933,9.743-0.23   c2.122-1.713,0.378-9.677-0.017-11.98c-1.064-6.195-1.848-12.361-2.677-18.591c-2.121-15.941-0.255-32.706-0.292-48.742   c-0.044-19.191-2.028-38.322-1.982-57.515c0.043-17.826-0.222-35.796-1.101-53.585C256.95,128.909,256.795,122.27,256.398,120.34z"/>
	<path style="fill:#8082A6;" d="M116.259,374.491c-3.843-4.925-7.552-10.558-10.678-16.19c-3.311-5.968-8.693-13.504-10.015-20.218   c-1.116-5.667,1.704-7.828,6.918-8.335c4.145-0.404,8.615-0.056,12.765,0.096c6.883,0.252,13.784-0.76,20.682-1.264   c26.252-1.912,52.5-2.526,78.859-1.615c14.789,0.511,29.537,1.531,44.327,2.087c15.578,0.586,30.745-1.412,46.399-0.185   c31.713,2.487,64.189,4.203,95.976,2.387c5.132-0.293,15.247-2.949,18.776,1.245c5.484,6.516-2.818,19.509-6.589,25.149   c-1.072,1.603-2.686,4.714-4.458,5.787c-3.965,2.405-12.782,0.931-17.446,1.556c-12.743,1.708-23.502,5.68-35.306,10.592   c-16.842,7.009-34,14.747-49.14,24.97c-12.073,8.152-26.357,15.705-40.879,18.197c-5.31,0.911-13.227,1.501-18.371-0.355   c-5.876-2.121-9.836-7.806-15.029-11.044c-15.127-9.428-30.451-17.592-46.86-24.566c-16.038-6.816-34.548-10.708-52.018-8.61   C128.717,374.828,116.42,380.844,116.259,374.491z"/>
</g>
<path style="fill:#B2AFCF;" d="M236.141,355.886c20.669,0,41.3-0.141,61.88-0.394c19.858-0.245,39.435-1.625,59.193-2.397  c16.263-0.635,32.522,0.02,48.834,0.02c4.765,0,8.615,0.419,11.69-3.872c2.718-3.792,4.469-10.203,2.948-14.754  c-1.922-5.748-9.741-3.563-15.206-3.927c-21.83-1.454-43.693-2.322-65.514-3.87c-43.701-3.102-87.689-0.92-131.451-0.891  c-22.453,0.014-44.903,0.169-67.335,1.486c-11.263,0.662-22.871,0.214-34.004,2.056c-7.423,1.228-11.958,1.903-9.525,10.216  c1.964,6.71,2.964,11.164,10.305,12.368c11.624,1.907,24.199-0.798,36.023-0.306C174.74,352.899,205.305,355.886,236.141,355.886z"/>
<g>
	<path style="fill:#FFFFFF;" d="M113.884,243.853c9.223-8.075,23.532-12.736,35.125-15.439c13.123-3.061,25.98-3.179,38.505,2.376   c5.323,2.361,10.851,5.216,15.747,8.42c3.208,2.1,4.423,4.008,5.545,7.831c0.942,3.209,4.711,14.425,2.778,17.338   c-2.783,4.192-12.969-3.812-16.152-4.989c-7.805-2.885-16.672-5.705-24.939-6.037c-11.558-0.463-21.735,1.736-32.762,3.872   c-10.537,2.04-18.831,6.888-28.63,10.624C105.43,261.587,111.36,247.879,113.884,243.853z"/>
	<path style="fill:#FFFFFF;" d="M306.279,209.808c5.951-4.887,15.534-7.18,22.695-9.55c7.873-2.604,16.469-5.192,24.414-6.769   c15.307-3.039,31.533-1.859,46.911-0.109c9.92,1.128,20.066,4.69,29.472,8.609c11.782,4.91,17.579,12.664,20.026,25.637   c0.768,4.071,1.584,9.14-2.983,8.728c-4.469-0.404-9.658-3.245-13.944-4.674c-11.75-3.922-24.02-5.622-36.321-6.234   c-31.003-1.543-60.875,3.374-89.676,15.263c-2.568,1.061-5.342,2.603-8.046,3.106c-1.166-2.389,0.684-4.773,1.425-7.078   c1.192-3.709,1.817-7.649,2.458-11.489C303.572,220.097,303.389,212.292,306.279,209.808z"/>
	<path style="fill:#FFFFFF;" d="M163.236,397.317c-4.032-1.882-8.469-4.545-12.855-5.391c-4.093-0.79-8.338-0.772-12.489-0.787   c-6.894-0.026-13.632,2-19.397,5.755c-2.775,1.29-5.45,2.854-8.21,4.506c-6.164,3.691-13.559,8.682-16.526,15.551   c-1.893,4.382,1.79,7.411,6.084,7.563c3.509,0.124,7.304-0.966,10.774-1.483c5.943-0.887,10.947-1.252,16.816,0.143   c8.883,2.11,16.402,6.581,25.712,7.158c7.335,0.455,14.577-1.309,20.381-6.027C185.382,414.661,173.313,402.021,163.236,397.317z"/>
	<path style="fill:#FFFFFF;" d="M213.663,415.618c-5.25-1.462-10.712-2.561-16.022-0.334c-4.458,1.869-7.464,5.652-7.566,10.534   c-0.1,4.828,3.09,8.077,6.702,10.765c5.353,3.983,10.734,6.906,17.403,7.731c5.965,0.739,9.136-0.945,12.679-5.857   c2.797-3.878,3.36-9.16,1.038-13.37C224.784,419.441,219.511,416.634,213.663,415.618z"/>
	<path style="fill:#FFFFFF;" d="M413.482,378.889c-6.15-2.363-12.832-2.059-19.188-0.938c-4.178,0.738-8.94,2.12-13.249,3.979   c-2.627,0.804-5.264,1.629-7.785,2.702c-5.862,2.494-13.204,7.265-16.87,12.598c-2.802,4.076-2.84,8.898,2.074,11.458   c5.306,2.766,14.449,0.001,19.726-1.715c7.097-2.309,14.952-4.488,22.488-3.761c6.639,0.641,11.665,0.8,17.494-2.527   c4.255-2.43,8.278-6.673,6.828-11.969C423.683,383.921,417.76,380.532,413.482,378.889z"/>
	<path style="fill:#FFFFFF;" d="M477.732,429.086c-0.448-3.563-1.104-6.867-2.091-9.994c-0.861-3.984-3.214-8.01-5.155-11.039   c-5.942-9.265-16.129-13.801-27.15-10.772c-5.382,1.48-11.658,4.288-13.263,10.155c-1.436,5.25,2.062,9.103,5.918,12.126   c2.449,1.919,4.964,3.609,7.072,5.923c1.438,1.578,3.619,3.621,4.64,5.46c1.685,3.033,1.132,7.043,0.664,10.279   c-0.852,5.875-2.184,13.862,3.122,18.068c4.406,3.493,9.738,3.135,14.689,1.044c5.166-2.183,9.891-6.471,11.638-11.876   c0.772-2.387,1.701-5.207,1.612-7.772C479.292,436.853,478.209,432.891,477.732,429.086z"/>
</g>
<path d="M55.227,72.04c-1.036,2.409-2.074,4.964-2.91,7.478c-0.091,0.207-0.19,0.414-0.278,0.62  c-4.147,9.691-4.036,23.466,1.43,32.644c5.755,9.664,15.115,15.781,26.002,18.064c10.394,2.179,24.182,3.923,33.68-2.032  c3.556-2.229,6.071-7.392,7.552-11.172c1.944-4.965,4.521-9.301,5.038-14.71c1.069-11.179,0.895-22.82-5.604-32.389  c-5.566-8.193-12.754-15.618-23.081-17.007c-10.674-1.435-21.581-1.121-30.702,5.467C61.973,62.167,57.376,67.043,55.227,72.04z   M73.926,63.54c4.788-2.341,9.462-3.598,14.875-3.103c2.593,0.238,5.638,0.634,8.313,0.289c4.551,1.379,8.703,3.85,12.407,7.362  c5.793,5.49,8.984,14.105,9.647,21.9c0.824,9.679-1.306,18.4-5.772,26.93c-1.78,3.4-3.436,6.268-7.234,7.579  c-5.064,1.749-11.959,1.62-17.158,0.849c-9.464-1.401-18.472-2.805-25.41-10.02c-8.054-8.375-8.614-18.294-6.766-29.237  c0.828-4.902,3.71-8.527,6.546-12.399C66.308,69.69,69.372,65.765,73.926,63.54z"/>
<path d="M77.344,41.201c0.302,1.985,1.323,4.309,3.165,5.315c0.67,0.366,1.578,0.443,2.24,0c2.331-1.561,1.66-3.827,1.878-6.226  c0.252-2.779-0.291-5.623-1.106-8.269c-1.555-5.055-9.686-2.715-7.869,2.17C76.537,36.564,76.967,38.717,77.344,41.201z"/>
<path d="M99.938,141.236c-1.082-2.684-4.423-2.704-5.503,0c-0.958,2.399-1.325,5.648-1.16,8.241c0.1,1.572,0.456,2.97,0.447,4.569  c-0.032,5.33,8.343,5.338,8.282,0c-0.006-0.546,0.017-1.099-0.005-1.645c-0.057-1.487-0.545-2.468-0.886-3.857  C100.521,146.126,100.903,143.631,99.938,141.236z"/>
<path d="M31.131,115.201c0.38-0.008,0.753-0.04,1.138-0.084c1.034-0.118,2.038-0.365,3.027-0.688c1.026-0.336,1.92-0.796,2.86-1.304  c1.018-0.551,2.154-0.784,3.11-1.462c1.556-1.103,2.429-3.692,0.663-5.147c-1.603-1.321-3.595-2.068-5.698-1.585  c-1.493,0.342-2.787,1.033-4.321,1.319c-0.711,0.133-2.235,0.075-3.294,0.33c-2.046,0.493-3.227,1.905-3.967,3.816  c-0.777,2.007,0.692,4.425,2.536,5.166C28.648,116.149,29.992,115.936,31.131,115.201z"/>
<path d="M131.78,91.764c1.272,0.691,2.178,0.603,3.557,0.49c1.273-0.103,2.558,0.159,3.88-0.179  c1.473-0.376,2.892-0.888,4.418-1.066c1.55-0.181,3.008-0.011,4.527-0.527c4.268-1.45,3.92-8.786-1.131-8.353  c-0.163,0.014-0.327,0.029-0.489,0.042c-0.252,0.021-0.505,0.067-0.753,0.131c-2.717,0.507-5.309,0.786-7.864,2.007  c-0.076,0.037-0.779,0.403-1.038,0.578c-0.334,0.017-1.07,0.115-1.183,0.131c-1.35,0.181-2.052,1.12-3.234,1.468  C130.16,87.164,129.544,90.549,131.78,91.764z"/>
<path d="M120.339,58.959c0.792-0.796,1.682-1.494,2.483-2.281c0.388-0.381,0.743-0.789,1.094-1.204  c0.449-0.534,0.19-0.239,0.633-0.603c2.272-1.872,5.243-4.112,4.119-7.522c-0.992-3.005-4.264-3.631-6.594-1.74  c-0.631,0.512-0.876,1.161-1.3,1.8c0.356-0.536-0.471,0.416-0.508,0.449c-0.837,0.796-1.622,1.57-2.281,2.534  c-1.336,1.955-2.766,3.955-2.923,6.381C114.886,59.505,118.532,60.775,120.339,58.959z"/>
<path d="M57.272,134.909c-1.831,2.268-4.239,4.612-5.185,7.381c-1.088,3.179,3.026,6.462,5.85,4.498  c2.321-1.613,3.583-4.218,5.084-6.559c1.169-1.822,2.607-3.594,3.391-5.616c0.705-1.821-1.078-3.638-2.797-3.672  C60.888,130.884,58.872,132.928,57.272,134.909z"/>
<path d="M36.133,63.134c2.223,1.025,4.481,1.971,6.679,3.052c2.138,1.051,4.155,2.021,6.521,1.123  c1.588-0.602,2.469-2.275,1.574-3.868c-1.888-3.36-5.316-5.593-8.781-7.285c-0.568-0.777-1.409-1.328-2.375-1.532  c-2.012-0.424-3.803,0.31-4.936,2.008l-0.278,0.416C33.296,58.912,34.039,62.168,36.133,63.134z"/>
<path d="M130.508,129.858c1.71,0.977,3.799,0.644,5.214-0.672c0.228-0.211,0.505-0.608,0.672-0.871  c0.932-1.457,0.751-4.066-0.672-5.214c-1.09-0.878-2.158-1.463-3.467-1.964c-0.342-0.131-0.697-0.227-1.036-0.362  c-0.267-0.087-0.273-0.095-0.018-0.026c-0.147-0.083-0.296-0.164-0.447-0.241c-0.988-0.553-1.189-0.527-2.027-0.903  c-0.561-0.251-0.698-0.324-1.039-0.481c-0.26-0.12-1.412-0.816-0.773-0.355c-1.286-0.928-3.577-0.015-3.842,1.563  C122.297,124.939,127.062,127.889,130.508,129.858z"/>
<path d="M100.308,47.721c2.571-3.318,3.239-5.999,4.429-10.057c1.239-4.223,3.727-8.068,4.707-12.355  c0.651-2.85-2.562-4.498-4.684-2.727c-1.667,1.391-1.952,3.235-2.716,5.185c-0.996,2.545-2.172,4.984-2.951,7.617  c-0.757,2.557-1.093,5.19-1.54,7.805c-0.28,1.635-0.705,2.734,0.329,4.218C98.381,48.127,99.648,48.572,100.308,47.721z"/>
<path d="M127.549,74.051c2.992,1.461,6.799-0.85,9.676-1.943c4.711-1.79,9.706-4.525,14.748-5.163c4.214-0.533,4.501-7.003,0-6.817  c-4.781,0.198-9.551,2.545-13.856,4.519c-3.707,1.699-7.901,3.547-10.966,6.3C126.248,71.757,126.437,73.509,127.549,74.051z"/>
<path d="M115.412,137.296c-0.575-0.729-2.063-0.726-2.634,0c-2.037,2.587-0.348,6.678,0.203,9.638  c0.898,4.821,3.113,8.968,4.285,13.637c1.176,4.686,8.119,2.683,7.185-1.981c-0.837-4.177-3.539-7.932-4.677-12.092  C118.8,142.933,117.655,140.143,115.412,137.296z"/>
<path d="M78.536,138.992c-3.691,2.198-4.812,7.551-6.653,11.228c-0.886,1.768-1.639,3.629-2.616,5.348  c-0.898,1.581-2.059,2.632-2.555,4.423c-1.22,4.406,5.622,6.287,6.841,1.886c0.122-0.441,1.619-2.271,2.108-3.229  c1.004-1.967,1.842-4.038,2.774-6.041c1.737-3.729,4.136-8.138,3.303-12.312C81.461,138.905,79.676,138.312,78.536,138.992z"/>
<path d="M32.26,137.593c0.817-0.958,3.153-1.511,4.277-2.311c1.854-1.322,3.853-2.416,5.707-3.729  c3.123-2.214,6.191-3.77,8.986-6.432c0.726-0.691,0.791-2.094,0-2.774c-1.565-1.347-2.806-1.372-4.688-0.721  c-2.596,0.897-5.104,2.001-7.37,3.533c-2.281,1.543-4.72,3.369-7.126,4.669c-2.157,1.164-3.876,1.281-5.321,3.494  C24.564,136.628,29.644,140.664,32.26,137.593z"/>
<path d="M25.895,85.588c2.689,0.226,5.084,0.952,7.652,1.762c1.84,0.581,4.284,1.938,6.266,1.652  c0.474-0.069,2.427-1.085,1.233-0.417c0.692-0.388,1.069-0.38,1.729-1.001c0.992-0.933,0.166-2.46-1.019-2.517  c-1.779-2.175-3.93-3.405-6.693-4.676c-2.047-0.941-4.167-1.683-6.393-2.064c-1.793-0.308-3.832-0.018-5.336-1.134  c-3.537-2.626-7.391,2.924-4.563,5.913C20.745,85.195,23.181,85.36,25.895,85.588z"/>
<path d="M56.614,46.444c1.211,3.151,4.084,8.759,8.33,6.458c0.627-0.34,1.102-1.31,0.819-2.014  c-2.841-7.081-4.056-14.782-7.744-21.542c-1.555-2.849-5.501-1.879-6.473,0.846c-1.039,2.919,0.823,5.174,1.971,7.746  C54.749,40.69,55.535,43.634,56.614,46.444z"/>
<path d="M146.991,108.802c-1.642-0.487-3.319-1.16-4.945-1.718c-1.492-0.511-3.869-1.134-5.233-1.901  c-3.895-2.191-7.351,3.721-3.501,5.988c2.931,1.727,6.626,2.49,9.812,3.746c1.468,0.578,2.827,0.914,4.355,1.28  c2.122,0.507,4.015,1.577,6.12,2.151c4.499,1.228,6.398-5.692,1.923-6.975c-1.146-0.329-2.166-0.8-3.289-1.258  C150.508,109.413,148.754,109.326,146.991,108.802z"/>
<path d="M511.417,445.561c-1.011-6.901-3.436-13.632-5.507-20.277c-2.186-7.015-4.881-14.098-8.445-20.535  c-13.331-24.087-37.865-38.589-64.407-43.504c-4.3-0.796-8.699-1.33-13.135-1.621c0.38-1.127,0.739-2.27,1.196-3.4  c1.303-3.224,3.127-6.246,3.996-9.643c0.653-2.555,1.266-5.064,1.947-7.611c0.696-2.604,1.705-5.936,1.135-8.621  c-1.261-5.944-6.894-6.508-11.813-6.942c-3.676-0.323-6.803,0.052-10.48,0.138c-3.88,0.09-7.67-0.181-11.534,0.305  c-7.793,0.981-15.754-0.159-23.574-0.359c-7.35-0.188-14.604-0.688-21.99-0.685c-8.269,0.004-16.539,0.081-24.808,0.084  c-7.899,0.004-15.753-0.708-23.641-0.745c-10.635-0.049-21.266,0.144-31.884-0.015c-1.539-5.652-2.049-11.724-2.526-17.685  c0.505-0.353,0.979-0.751,1.58-1.166c1.665-1.152,3.948-1.873,5.788-2.717c5.152-2.361,10.524-4.34,15.857-6.247  c9.336-3.338,18.862-6.275,28.554-8.402c10.513-2.306,20.758-4.701,31.423-6.364c10.299-1.607,21.561-1.637,31.942-0.663  c5.255,0.493,10.581,0.773,15.793,1.616c5.539,0.895,10.687,3.028,16.121,4.332c4.457,1.069,8.562,2.995,12.989,4.083  c5.306,1.304,10.459,2.546,15.628,4.378c8.946,3.17,17.616,6.508,26.18,10.455c3.044,1.403,6.737,0.15,7.885-3.108  c1.121-3.182-0.778-8.44-1.466-11.607c-4.198-19.35-10.759-38.056-18.566-56.128c-3.87-8.958-7.697-17.922-11.531-26.933  c-0.688-1.615-1.564-2.62-2.455-4.065c-1.005-1.631-1.552-3.678-2.476-5.432c-2.126-4.033-4.348-7.946-6.582-11.911  c-4.828-8.571-8.939-17.463-14.158-25.876c-5.013-8.082-11.152-15.294-16.468-23.135c-2.587-3.816-5.127-7.666-8.317-11.009  c-3.638-3.813-7.609-7.329-11.14-11.24c-6.688-7.41-12.326-15.559-19.407-22.662c-16.568-16.622-35.692-30.478-55.064-43.574  c-8.905-6.02-17.16-12.975-26.712-18.015c-5.24-2.765-10.66-5.195-15.83-8.083c-3.17-1.771-7.06-3.596-10.697-4.569  c-1.031-3.002-2.67-5.552-5.437-7.005c-6.918-3.631-16.862,2.315-18.346,9.728c-1.018,5.078-0.125,10.565-0.114,15.7  c0.012,5.633,0.834,11.225,0.842,16.797c0.015,10.583,0.493,21.612,1.676,32.156c1.051,9.367,0.539,18.95,1.336,28.365  c-4.228,0.785-7.841,2.976-11.615,5.039c-5.309,2.901-10.394,5.455-15.39,8.927c-10.445,7.26-21.23,14.021-30.723,22.578  c-9.769,8.807-19.236,17.628-28.143,27.356c-8.569,9.358-14.886,19.908-21.267,30.801c-2.888,4.931-6.11,9.771-8.444,14.997  c-2.559,5.73-5.761,11.554-7.784,17.435c-4.103,11.931-7.773,24.142-10.073,36.567c-1.004,5.419-2.061,11.192-2.309,16.697  c-0.239,5.287,1.354,11.546,7.153,13.097c4.798,1.284,9.676-0.501,14.387-1.119c2.901-0.38,5.741-0.238,8.647-0.772  c4.179-0.768,8.291-1.519,12.532-1.898c14.924-1.335,30.014-1.433,44.984-1.523c7.573-0.045,15.052,0.096,22.58,0.811  c7.427,0.704,14.371,2.884,21.598,4.342c-0.072,0.654-0.129,1.316-0.147,1.999c-0.071,2.767-0.546,5.431-0.515,8.206  c0.024,2.164,0.318,4.384,0.261,6.562c-0.675,0.013-1.348,0.03-2.021,0.027c-7.665-0.024-15.285-0.629-22.956-0.608  c-30.707,0.083-61.071,2.783-91.764,3.193c-4.279,0.057-8.512,0.663-12.766,0.703c-3.452,0.033-6.59,0.412-8.663,3.539  c-3.458,5.22-0.457,13.395,1.741,18.566c3.019,7.098,6.626,14.558,11.32,20.706c1.669,2.185,3.572,4.24,5.598,6.136  c-8.147,3.195-15.215,7.842-22.324,13.191c-8.37,6.299-16.418,11.835-25.693,16.704c-7.866,4.129-16.555,6.36-24.401,10.443  c-8.205,4.27-16.006,8.221-22.747,14.728c-6.142,5.929-9.458,14.274-11.957,22.273c-2.523,8.073-6.313,17.266-1.724,25.293  c1.847,3.23,4.268,6.057,6.298,9.143c2.356,3.582,6.068,7.227,9.984,9.103c8.109,3.887,18.457,5.835,27.43,5.098  c5.15-0.423,10.057,0.089,15.19-0.012c6.278-0.124,12.564-0.069,18.843-0.103c10.898-0.061,21.606-0.812,32.459-1.208  c2.907-0.106,5.792-0.656,8.685-0.565c2.664,0.083,4.916,0.001,7.537-0.547c2.045-0.428,4.155-0.569,6.217-0.943  c0.435,0.005,0.866-0.004,1.302,0.004c15.494,0.286,30.706,2.638,46.089,4.223c14.55,1.5,28.973,1.031,43.569,0.595  c6.461-0.192,12.883-0.888,19.33-1.303c7.262-0.468,14.552-0.349,21.804-0.89c13.966-1.04,28.231,1.317,42.151,1.917  c6.435,0.277,12.845,1.441,19.301,1.416c7.197-0.027,14.382,0.441,21.579,0.603c13.292,0.299,27.333-2.024,40.496-3.803  c14.384-1.943,28.562-2.319,42.973-0.144c12.952,1.956,26.04,1.205,39.038,2.34c6.651,0.581,14.558-0.43,20.281-4.043  c5.198-3.281,9.328-9.477,12.572-14.627c3.538-5.615,5.598-11.793,6.177-18.407C512.014,458.616,512.347,451.907,511.417,445.561z   M465.091,291.879c-5.255-2.078-10.683-3.629-16.063-5.66c-8.86-3.346-18.159-5.044-26.957-8.38  c-4.46-1.691-9.241-2.534-13.807-3.95c-4.522-1.403-9.033-2.313-13.732-2.873c-9.274-1.106-18.855-2.157-28.207-1.84  c-19.42,0.659-38.424,4.296-57.177,9.261c-8.9,2.356-17.691,5.342-26.294,8.582c-3.557,1.34-7.109,2.632-10.611,4.089  c0.835-1.166,1.661-2.324,2.498-3.42c3.408-4.468,6.718-9.079,9.957-13.673c2.633-3.734,4.952-7.676,7.185-11.658  c2.382-4.247,4.914-9.12,6.545-13.681c0.119-0.331,0.264-0.651,0.4-0.974c4.252-1.69,8.246-3.925,12.458-5.836  c5.524-2.506,11.329-4.601,17.115-6.433c14.215-4.503,29.968-7.009,44.867-7.228c15.136-0.221,30.107,0.662,45.044,3.013  c5.977,0.942,11.962,2.451,17.715,4.331c3.133,1.024,6.386,2.198,9.364,3.62c1.468,0.701,2.713,1.62,3.999,2.465  c2.536,6.416,4.845,12.921,7.215,19.362c2.542,6.908,4.248,14.368,6.133,21.484C463.556,285.576,464.373,288.72,465.091,291.879z   M433.695,206.481c0.578,0.818,1.195,1.601,1.74,2.544c2.949,5.101,4.094,11.337,6.81,16.596c0.975,1.888,1.887,3.806,2.774,5.735  c-1.475-0.593-2.96-1.138-4.406-1.666c-6.591-2.412-13.513-4.152-20.431-5.262c-15.523-2.492-31.196-2.971-46.916-2.619  c-15.409,0.347-31.825,2.96-46.5,7.697c-7.986,2.578-16.748,5.576-24.092,10.244c0.261-0.62,0.506-1.248,0.707-1.894  c1.353-4.356,2.602-8.762,3.603-13.246c1.116-5.002,2.267-9.841,3.151-14.743c2.245-0.544,4.517-0.932,6.659-1.941  c5.018-2.36,10.466-3.764,15.782-5.46c11.449-3.651,24.363-5.758,36.37-6.266c12.298-0.52,24.656-0.04,36.705,2.425  C415.19,200.577,424.496,203.365,433.695,206.481z M258.876,24.321c2.164,1.126,4.083,2.653,6.198,3.881  c5.596,3.251,11.475,6.049,16.888,9.603c10.287,6.755,19.919,14.428,30.006,21.483c20.737,14.503,41.839,31.225,57.387,51.399  c7.343,9.527,16.649,17.331,23.434,27.214c6.598,9.61,13.8,18.666,19.884,28.643c6.026,9.883,10.518,20.54,16.126,30.553  c0.148,0.265,0.279,0.515,0.424,0.776c-0.42-0.129-0.84-0.259-1.261-0.388c-6.539-2.009-12.747-4.237-19.532-5.518  c-12.819-2.418-25.419-2.578-38.442-2.085c-12.211,0.462-25.676,2.448-37.294,6.229c-5.318,1.73-11.279,2.99-16.314,5.412  c-2.014,0.968-3.774,2.055-5.456,3.229c0.253-1.909,0.47-3.83,0.587-5.796c1.146-19.356-2.474-37.964-6.682-56.68  c-4.46-19.836-13.376-38.364-21.843-56.674c-5.174-11.192-9.607-22.977-14.143-34.448c-3.606-9.119-5.4-18.985-10.705-27.254  C258.383,24.039,258.632,24.194,258.876,24.321z M257.82,35.259c1.732,5.198,2.707,10.628,4.438,15.836  c3.152,9.476,7.173,18.667,10.711,28.002c3.237,8.544,6.83,17.12,10.648,25.403c4.374,9.49,7.835,19.291,10.951,29.287  c5.247,16.836,8.945,35.302,8.952,52.947c0.002,4.887,0.1,9.787-0.376,14.654c-0.41,4.186-1.374,8.026-1.998,12.156  c-0.642,4.253-2.059,8.581-3.12,12.755c-1.002,3.943-2.36,8.956-4.366,12.494c-4.867,8.588-8.198,17.829-13.529,26.267  c-2.998,4.743-6.546,9.077-9.815,13.628c-1.827,2.543-3.756,5.439-5.815,8.158c-0.352-6.658-0.417-13.326-0.475-20.027  c-0.049-5.591,0.379-11.235,0.15-16.816c-0.247-5.986-1.138-11.678-1.036-17.718c0.198-11.698-0.302-23.404-0.139-35.102  c0.07-5.024-0.8-9.791-0.768-14.818c0.036-5.621-0.268-11.057-0.635-16.645c-0.341-5.179-0.116-10.303-0.589-15.493  c-0.504-5.524-0.203-11.173-0.217-16.717c-0.032-12.325-0.043-24.651-0.077-36.977c-0.032-11.203-0.757-22.327-0.738-33.506  c0.008-4.562-0.729-9.109-1.057-13.661c-0.373-5.193-0.834-10.326-1.596-15.462C257.497,34.349,257.666,34.797,257.82,35.259z   M238.186,286.944c0.306-4.659,0.28-9.506,0.749-14.132c0.426-4.209,0.633-8.33,0.966-12.56c0.382-4.854,0.429-9.722,0.825-14.559  c0.86-10.467,1.947-20.91,2.056-31.429c0.229-21.942,1.259-43.688,1.303-65.623c0.02-10.443,1.17-21.694-0.323-32.036  c-1.518-10.512-0.637-21.345-1.764-31.886c-0.546-5.106-0.688-10.21-0.996-15.337c-0.3-4.983-0.933-10.177-0.879-15.14  c0.116-10.347-1.889-20.9-0.93-31.293c0.224-2.435,1.613-5.397,4.262-6.325c2.768-0.97,3.46,1.323,4.16,3.404  c1.701,5.045,1.537,10.185,2.354,15.382c1.539,9.791,2.357,20.444,2.321,30.36c-0.038,10.255,0.622,20.479,0.609,30.765  c-0.014,11.678-0.051,23.357-0.072,35.035c-0.02,10.575,0.677,21.072,0.628,31.616c-0.021,4.639,0.681,9.227,0.646,13.888  c-0.037,5.015-0.08,9.825,0.525,14.776c0.753,6.155,0.012,12.861-0.018,19.076c-0.03,6.216-0.03,12.433-0.09,18.649  c-0.058,5.964-0.126,11.516,0.585,17.44c0.705,5.875-0.04,11.952-0.09,17.861c-0.094,11.117-0.17,22.079,0.884,33.126  c0.743,7.794,1.03,16.11,2.747,23.866c-1.772-0.074-3.543-0.157-5.313-0.264c-5.783-0.349-11.573,0.131-17.367,0.443  c0.103-2.369-0.083-4.772,0.015-7.18c0.201-4.895,1.456-9.772,1.572-14.622C237.659,295.762,237.893,291.418,238.186,286.944z   M124.08,232.973c2.381-5.665,4.615-11.136,7.603-16.532c5.709-10.311,11.242-21.133,18.859-30.202  c7.809-9.297,16.23-17.831,25.465-25.667c5.319-4.514,10.034-9.513,15.617-13.782c5.135-3.926,10.28-7.731,15.711-11.243  c8.098-5.236,16.158-10.615,24.391-15.647c-0.633,1.227-1.192,2.488-1.728,3.683c-2.007,4.48-4.066,8.963-5.992,13.479  c-3.299,7.736-6.201,15.626-8.801,23.632c-2.634,8.109-5.353,16.848-6.72,25.265c-1.344,8.279-1.532,16.66-2.48,24.971  c-0.911,7.987-1.417,16.178-1.302,24.346c-4.132-3.672-10.001-5.916-14.728-7.861c-7.701-3.17-16.659-4.874-25.029-4.37  c-8.882,0.534-17.286,2.629-25.723,5.372c-5.034,1.637-9.913,3.5-14.817,5.508c-0.306,0.126-0.601,0.247-0.897,0.369  C123.702,233.855,123.892,233.419,124.08,232.973z M118.253,247.704c0.543-1.926,1.199-3.729,1.898-5.5  c6.974-3.866,15.262-6.07,22.788-8.451c6.783-2.146,13.64-3.791,20.767-4.172c7.474-0.4,15.18,0.667,22.229,3.265  c3.293,1.214,7.072,2.583,10.155,4.267c2.952,1.613,5.047,4.381,7.647,6.406c0.437,0.34,0.905,0.544,1.373,0.648  c0.448,6.024,1.261,11.994,2.602,17.808c0.146,0.634,0.311,1.268,0.471,1.903c-2.113-1.461-4.207-2.939-6.53-4.027  c-3.449-1.614-7.081-2.772-10.729-3.777c-9.708-2.673-18.819-4.746-28.944-4.243c-9.332,0.463-20.11,0.975-28.965,4.106  c-6.463,2.285-14.192,5.348-19.901,9.955C114.677,259.766,116.563,253.698,118.253,247.704z M217.333,292.559  c-5.558-0.909-11.3-1.521-16.908-1.882c-12.174-0.784-24.862-0.215-37.007,0.62c-6.268,0.431-12.572,0.23-18.846,0.676  c-6.42,0.456-12.61,1.91-18.966,2.646c-2.549,0.296-5.045,0.121-7.602,0.596c-2.37,0.441-5.481,1.625-7.959,1.14  c-0.746-0.146-1.102-0.154-1.257-0.138c0.115-0.08,0.254-0.324,0.007-0.998c-0.508-1.385-0.052-3.572,0.132-4.932  c0.417-3.064,0.943-6.088,1.277-9.166c0.334-3.075,0.86-6.135,1.501-9.183c3.451-1.011,6.442-3.123,9.569-4.968  c3.881-2.29,8.472-3.857,12.703-5.397c9.045-3.293,20.159-3.235,29.72-3.691c9.103-0.434,17.498,2.394,26.124,4.796  c4.306,1.199,8.506,2.648,12.323,5.106c3.005,1.935,5.416,4.448,8.835,5.265c1.563,4.359,3.427,8.613,5.648,12.614  c1.559,2.81,3.42,5.321,5.36,7.823C220.448,293.143,218.904,292.816,217.333,292.559z M228.551,288.334  c-2.498-3.074-4.585-6.309-6.367-9.843c-3.692-7.329-5.775-15.105-7.66-23.04c-0.977-4.112-0.823-7.653-1.077-11.835  c-0.239-3.926-0.733-7.685-0.739-11.649c-0.01-8.192,0.754-16.215,1.182-24.378c0.833-15.876,3.235-31.701,7.874-46.961  c2.484-8.173,5.164-16.275,8.529-24.137c1.547-3.614,3.144-7.193,4.551-10.867c0.303-0.791,0.657-1.585,1.017-2.385  c0.54,9.405-0.172,19.136-0.141,28.433c0.02,6.065,0.019,12.13,0.067,18.196c0.042,5.299-0.876,10.421-0.688,15.723  c0.89,25.042-0.523,49.736-1.768,74.661c-0.521,10.426-0.629,20.781-1.717,31.201c-0.04,0.391-0.065,0.781-0.082,1.172  C230.482,291.12,229.501,289.502,228.551,288.334z M105.293,349.297c-0.663-1.438-1.302-2.875-1.924-4.296  c-1.107-2.528-1.996-5.136-2.468-7.86c-0.071-0.414-0.761-3.773-0.442-4.058c-0.068,0.061,4.173,0.033,4.62-0.02  c7.229-0.866,14.483-0.486,21.754-0.271c26.258,0.777,52.386-1.255,78.7-1.163c6.408,0.023,12.735,0.561,19.13,0.716  c7.433,0.182,14.712-0.454,22.117-0.631c6.141-0.146,12.185,0.962,18.318,0.911c7.415-0.062,14.825-0.14,22.242-0.138  c13.588,0.005,27.123,0.805,40.707,0.755c13.634-0.051,27.187-0.106,40.771,0.631c7.516,0.407,15.331,1.167,22.851,0.713  c3.578-0.217,6.925-0.696,10.531-0.653c3.565,0.043,7.152-0.663,10.681-0.53c1.42,0.053,2.798,0.586,4.241,0.477  c0.057-0.005,0.096-0.006,0.148-0.011c-0.207,0.938-0.222,2.251-0.433,2.95c-0.344,1.14-0.919,2.184-1.208,3.347  c-0.654,2.634-1.223,4.968-2.161,7.401c-4.439,0.248-8.63,0.772-13.118,0.644c-5.055-0.144-10.12-0.584-15.152,0.115  c-9.86,1.372-20.106,0.052-29.966,1.518c-5.179,0.77-10.19,0.188-15.397,0.379c-5.446,0.2-11.088,0.405-16.519,0.837  c-10.522,0.837-21.085,1.742-31.662,1.671c-21.862-0.146-43.878,2.125-65.715,0.334c-10.268-0.842-20.652-0.479-30.945-0.695  c-4.596-0.096-9.35-0.644-13.917-1.165c-5.332-0.609-10.685-0.148-16.034-0.666c-5.392-0.521-10.976-1.095-16.407-1.125  c-6.15-0.033-12.3,0.692-18.418-0.131c-4.774-0.642-9.575-0.153-14.368,0.093C112.084,349.57,108.801,348.995,105.293,349.297z   M107.271,353.436c1.99,0.437,3.999,0.776,6.041,0.871c5.145,0.241,10.39-0.563,15.509,0.045c4.525,0.538,8.831,0.632,13.401,0.512  c5.432-0.144,10.493,0.569,15.843,0.911c9.695,0.619,19.401,0.671,29.101,1.41c10.044,0.764,20.314,1.314,30.392,1.38  c5.273,0.034,10.495,0.829,15.74,0.802c5.933-0.031,11.866-0.103,17.801-0.094c5.068,0.008,10.134,0.018,15.202,0.04  c5.659,0.026,11.253-0.637,16.9-0.596c10.66,0.077,21.217-0.311,31.859-0.468c10.687-0.157,21.282-1.432,31.995-1.093  c2.67,0.084,5.291,0.062,7.934-0.348c3.332-0.517,6.533-0.23,9.885-0.425c5.613-0.325,11.234-0.279,16.836-0.596  c5.411-0.306,10.487-1.009,15.972-0.8c4.48,0.171,8.682-0.114,13.023-0.38c-0.615,1.628-1.303,3.205-2.256,4.519  c-0.072,0.1-0.132,0.2-0.196,0.299c-6.984,0.217-13.937,1.027-20.633,2.418c-15.427,3.207-29.876,8.93-44.34,14.947  c-14.055,5.848-25.952,16.11-39.763,22.397c-6.26,2.85-12.689,5.223-18.921,8.068c-8.032,3.666-17.23,5.208-25.651,7.805  c-0.277,0.086-0.53,0.201-0.766,0.335c-2.255-1.5-4.473-3.046-6.873-4.223c-8.241-4.044-16.076-9.956-24.062-14.679  c-7.836-4.634-15.197-9.685-23.427-13.667c-17.804-8.614-36.847-13.709-56.623-14.699c-9.033-0.452-18.57,1.15-27.425,3.56  c-0.748-1.102-1.619-2.189-2.432-3.198c-1.781-2.209-3.768-4.172-5.315-6.577C110.296,359.231,108.728,356.362,107.271,353.436z   M498.266,468.991c-1.596,5.682-5.173,10.255-8.901,14.707c-2.366,2.825-4.267,4.755-8.035,5.518  c-3.38,0.684-6.902,0.672-10.298,0.414c-6.231-0.473-12.504,0.281-18.734-0.279c-6.429-0.578-12.795-0.728-19.197-1.661  c-13.406-1.955-27.195-2.087-40.605-0.138c-12.708,1.847-25.632,3.432-38.448,4.224c-6.217,0.385-12.575-0.258-18.788-0.519  c-6.603-0.277-13.145-0.207-19.729-0.903c-13.421-1.419-26.828-1.553-40.295-2.519c-6.171-0.443-12.69,0.048-18.883,0.299  c-6.684,0.271-13.394,0.855-20.063,1.417c-13.575,1.144-27.699,1.809-41.311,1.322c-15.831-0.565-31.505-3.492-47.34-3.932  c-15.507-0.431-31.085,0.483-46.539,1.419c-5.62,0.34-11.242,0.815-16.865,1.308c-7.725-0.106-15.466-0.105-23.179-0.037  c-3.844,0.033-7.642-0.722-11.487-0.508c-4.465,0.248-8.514,0.335-12.939-0.227c-3.992-0.506-7.263-1.317-11.045-2.778  c-4.625-1.787-6.474-4.553-9.258-8.463c-1.857-2.609-5.167-5.419-5.275-8.834c-0.137-4.296,2.319-9.117,3.471-13.137  c2.343-8.173,5.688-15.178,12.229-20.76c6.033-5.147,14.209-9.386,21.688-11.939c8.221-2.806,15.912-6.712,23.704-10.51  c9.073-4.423,16.452-10.829,24.594-16.666c8.014-5.745,15.645-10.362,25.311-12.858c10.105-2.61,20.085-4.022,30.493-2.855  c9.59,1.077,18.829,2.542,28.037,5.552c8.861,2.897,17.141,6.892,25.49,10.981c3.424,1.676,6.736,3.939,9.874,6.101  c3.378,2.325,7.071,4.132,10.486,6.387c7.475,4.937,15.487,9.104,22.777,14.156c8.348,5.784,18.239,8.773,27.839,11.623  c9.577,2.843,19.862,5.678,29.97,5.065c10.127-0.614,20.302-2.824,30.008-5.695c4.275-1.265,8.016-2.637,12.07-4.438  c4.081-1.814,7.444-4.545,11.261-6.769c1.786-1.04,0.588-3.779-1.39-3.296c-17.375,4.249-35.504,10.399-53.663,9.921  c-9.933-0.261-19.21-3.679-28.662-6.307c-2.025-0.563-4.039-1.199-6.031-1.904c9.575-1.735,18.719-4.403,27.894-8.486  c11.768-5.237,22.754-11.883,33.762-18.573c11.314-6.875,23.441-13.386,36.279-16.933c12.478-3.448,24.298-7.214,37.335-8.292  c6.082-0.502,12.389,0.555,18.469,0.973c7.209,0.496,14.94,1.823,21.69,4.546c11.697,4.718,22.492,10.483,30.983,20.036  c9.747,10.968,15.317,22.785,19.076,36.95c1.633,6.154,3.904,12.331,4.051,18.757C500.284,456.368,499.862,463.307,498.266,468.991z  "/>
<g>
</g>
<g>
</g>
<g>
</g>
<g>
</g>
<g>
</g>
<g>
</g>
<g>
</g>
<g>
</g>
<g>
</g>
<g>
</g>
<g>
</g>
<g>
</g>
<g>
</g>
<g>
</g>
<g>
</g>
</svg>
