<?xml version="1.0" encoding="iso-8859-1"?>
<!-- Generator: Adobe Illustrator 19.0.0, SVG Export Plug-In . SVG Version: 6.00 Build 0)  -->
<svg xmlns="http://www.w3.org/2000/svg" xmlns:xlink="http://www.w3.org/1999/xlink" version="1.1" id="Layer_1" x="0px" y="0px" viewBox="0 0 512.001 512.001" style="enable-background:new 0 0 512.001 512.001;" xml:space="preserve">
<path style="fill:#FFC94E;" d="M411.257,56.885c-16.396,8.154-23.462,25.742-20.313,43.347c1.825,10.205,6.945,16.787,16.339,20.916  c8.667,3.81,20.543,7.467,29.983,4.859c8.876-2.452,16.731-9.228,18.983-18.4c1.342-5.464,2.619-11.202,2.575-16.834  c-0.023-2.939-0.779-5.709-1.417-8.562c-0.652-2.922-0.513-6.376-2.02-9.025c-1.123-1.974-2.575-3.93-3.822-5.844  c-2.674-4.104-6.42-7.424-10.742-9.711c-8.192-4.336-18.452-5.133-27.14-1.81C412.858,56.138,412.048,56.491,411.257,56.885z"/>
<path style="fill:#60C198;" d="M46.209,84.464c2.497,10.681,13.801,20.294,19.182,29.917c7.422,13.273,14.549,27.146,20.268,41.334  c12.164,30.18,27.355,59.462,39.894,89.531c13.388,32.105,26.144,65.932,43.047,96.481c2.13,3.849,2.997,8.117,7.65,8.897  c5.346,0.895,13.068-2.979,17.89-4.723c11.867-4.29,23.498-8.839,35.568-12.564c10.37-3.201,20.425-7.423,30.855-10.325  c8.992-2.502,17.763-5.51,26.78-7.948c3.554-0.962,7.354-1.935,10.55,0.225c5.852,3.955,5.176,12.341,1.685,17.152  c-4.225,5.823-10.315,9.609-16.853,12.454c-15.006,6.529-31.406,10.759-47.192,14.886c-7.844,2.05-15.602,4.819-23.293,7.411  c-5.131,1.729-14.683,3.824-17.676,8.867c-3.621,6.104,3.752,4.587,7.802,4.238c9.573-0.823,18.981-1.277,28.47-3.019  c21.805-4,43.533-8.041,65.404-11.669c17.492-2.902,34.808-5.476,51.54-11.319c13.825-4.827,25.704-11.789,38.935-17.915  c13.533-6.267,27.061-11.417,41.143-16.322c12.794-4.456,25.703-8.416,38.286-13.51c6.775-2.742,16.826-5.26,21.307-11.66  c3.083-4.405,1.067-8.507-3.981-10.421c-7.342-2.782-18.261,1.076-25.806,1.89c-14.562,1.574-29.12,3.191-43.507,6.078  c-8.833,1.773-17.67,3.948-26.621,5.031c-3.956,0.478-6.29,0.983-9.05-2.298c-2.546-3.026-3.675-8.027-4.912-11.697  c-2.932-8.695-7.346-17.298-11.366-25.532c-4.511-9.241-10.939-17.07-16.027-25.928c-5.603-9.754-9.234-19.708-13.433-30.066  c-6.976-17.206-16.06-33.363-24.684-49.764c-9.024-17.162-16.088-35.374-25.09-52.589c-3.069-5.869-5.738-12.15-9.865-17.387  c-6.601-8.374-19.547-6.035-29.109-5.706c-16.834,0.579-33.043-1.688-49.8-2.252c-15.742-0.53-31.649-0.285-47.387,0.247  c-28.441,0.962-56.982,3.516-85.357,5.382c-3.278,0.216-9.591-0.33-12.552,1.569C45.175,83.829,46.796,85.467,46.209,84.464z"/>
<g>
	<path style="fill:#00B37F;" d="M52.833,84.811c7.47-2.566,16.933-2.288,24.821-3.085c13.09-1.323,26.083-2.51,39.207-3.404   c27.703-1.887,55.257-3.31,83.027-3.31c18.563,0,38.091-1.732,56.572,0.081c4.511,0.442,9.831,0.969,13.972,3.001   c4.412,2.164,5.877,6.375,7.99,10.49c2.255,4.393,5.144,8.483,7.449,12.917c1.354,2.604,5.017,7.7,4.532,10.721   c-0.682,4.251-7.518,3.494-10.929,3.842c-9.742,0.993-19.662,0.825-29.47,1.338c-20.542,1.074-40.978,1.569-61.53,2.539   c-20.238,0.955-41.252,3.404-61.468,1.896c-9.872-0.736-19.302-0.327-29.148,0.372c-7.268,0.516-15.933,2.597-23.168,1.805   c-5.881-0.644-7.641-6.558-10.604-11.196c-2.874-4.501-5.196-9.298-8.003-13.825c-1.54-2.483-4.435-6.039-4.802-9.015   C50.877,86.669,53.257,86.12,52.833,84.811z"/>
	<path style="fill:#00B37F;" d="M109.458,206.408c2.359-2.723,8.841-2.901,12.32-3.277c5.907-0.638,11.836-1.469,17.771-2.25   c15.977-2.102,32.216-4.936,48.394-4.999c16.231-0.063,32.493-1.581,48.515-3.311c18.174-1.963,36.302-2.876,54.399-4.664   c7.111-0.702,14.378-1.76,21.461-2.156c3.929-0.22,11.106-1.952,14.129,1.05c4.03,4.002,5.364,12.694,8.775,17.644   c2.471,3.587,8.261,10.637,7.277,15.395c-1.375,6.656-14.665,4.166-19.427,4.387c-13.213,0.613-26.087,3.15-39.223,4.607   c-27.892,3.094-55.942,5.508-83.821,8.386c-20.283,2.094-39.99,7.25-60.119,9.809c-2.73,0.347-8.377,1.911-10.985,1.23   c-3.005-0.784-4.114-4.976-5.312-7.839c-2.233-5.337-4.183-10.82-6.669-16.054c-1.891-3.983-4.872-7.697-6.317-11.864   C109.261,208.557,110.155,207.399,109.458,206.408z"/>
</g>
<path style="fill:#60C198;" d="M148.237,295.06c1.548-1.439,4.098-2.243,5.85-2.813c8.889-2.888,19.123-3.436,28.392-4.199  c15.543-1.279,30.954-2.356,46.459-4.642c18.645-2.748,37.487-3.718,56.164-6.115c19.15-2.458,38.491-4.936,57.75-6.624  c6.181-0.542,13.018-2.754,19.248-1.844c5.283,0.772,7.164,5.374,9.609,9.565c2.469,4.231,6.721,8.225,7.451,13.185  c1.131,7.679-9.612,6.417-14.963,7.215c-22.399,3.34-44.338,9.29-66.715,12.795c-20.126,3.154-39.103,10.728-58.906,14.7  c-8.568,1.718-17.612,1.392-26.313,2.371c-10.976,1.235-21.857,3.157-32.741,5.243c-3.071,0.589-9.741,3.784-12.729,2.386  c-2.377-1.112-3.74-6.221-4.523-8.424c-2.227-6.269-4.71-11.593-7.822-17.436c-1.679-3.151-7.617-9-7.562-12.571  C146.906,296.715,147.438,295.803,148.237,295.06z"/>
<g>
	<path style="fill:#207B5D;" d="M93.124,168.295c18.944-0.805,38.016-5.348,56.987-6.877c18.761-1.513,37.825-0.684,56.622-2.55   c16.801-1.668,33.661-2.96,50.546-4.366c8.605-0.717,17.316-0.885,25.925-1.471c6.032-0.411,15.205,0.65,20.816-1.886   c8.717-3.941-6.599-25.807-9.885-31.124c-1.128-1.825-1.677-3.698-3.544-4.366c-2.49-0.891-7.716,0.617-10.351,0.738   c-10.254,0.468-20.817,0.743-31.199,0.722c-22.716-0.045-45.801,1.372-68.481,2.572c-17.234,0.911-34.489,1.421-51.873,1.421   c-16.66,0-33.219,0.16-49.793,1.17c-1.643,0.1-7.112-0.383-7.938,0.994c-1.652,2.752,5.503,14.465,6.649,17.149   c2.483,5.813,4.336,11.952,7.17,17.5c1.269,2.483,2.153,6.678,4.445,8.469C91.763,168.373,95.181,167.123,93.124,168.295z"/>
	<path style="fill:#207B5D;" d="M151.528,292.552c-3.266,0.463-6.619,0.551-8.537-0.948c-1.877-1.468-2.937-5.624-4.115-7.834   c-2.429-4.556-4.349-9.346-5.824-14.297c-1.522-5.11-4.348-11.317-4.364-16.702c-0.012-3.918,0.793-3.429,4.023-4.338   c3.86-1.087,7.706-2.404,11.685-3.196c24.301-4.835,49.392-6.011,74.065-8.047c13.799-1.138,27.215-5.343,40.927-7.107   c12.343-1.588,24.731-1.92,37.105-2.895c11.473-0.905,23.446-0.628,34.771-2.347c6.202-0.941,10.322-4.217,13.849,1.975   c4.327,7.598,7.887,15.742,11.353,23.761c1.252,2.899,9.529,15.473,7.778,18.417c-1.695,2.853-13.958,1.185-16.963,1.33   c-7.722,0.372-15.509,1.483-23.278,2.47c-21.109,2.681-42.038,4.184-63.163,7.118c-19.645,2.73-39.401,4.764-59.055,6.746   c-9.113,0.918-18.199,1.278-27.338,2.157c-5.426,0.522-10.696,1.809-16.091,2.539C156.636,291.587,154.11,292.187,151.528,292.552z   "/>
</g>
<g>
	<path style="fill:#00B37F;" d="M229.967,328.733c-16.011,0-32.814,0.475-48.185,5.163c-5.073,1.547-13.697,2.377-11.25,9.71   c4.412,13.227,21.851,4.797,30.709,1.923c8.73-2.832,17.664-7.312,25.642-11.714C228.585,332.874,232.532,328.146,229.967,328.733z   "/>
	<path style="fill:#00B37F;" d="M271.804,351.33c-0.493-0.267-0.761-0.633-0.757-1.118c8.787-4.767,19.97-5.001,26.093-14.052   c3.236-4.784,6.229-4.606,11.867-5.966c6.563-1.583,13.103-2.65,19.588-4.637c30.439-9.326,62.995-14.11,94.284-20.498   c10.124-2.067,20.206-4.008,30.419-5.636c5.111-0.815,20.276-4.886,24.254-1.179c-2.176,3.15-11.266,7.023-14.723,8.534   c-8.949,3.91-18.724,6.05-28.02,8.978c-10.704,3.371-20.958,8.512-31.965,11.001c-7.155,1.618-14.426,1.665-21.586,2.783   c-6.06,0.946-12.203,2.572-18.16,3.983c-18.843,4.462-37.716,8.521-56.624,12.634C303.94,346.707,276.714,353.984,271.804,351.33z"/>
</g>
<path style="fill:#207B5D;" d="M241.582,358.859c-6.423,1.814-12.44,5.602-18.722,7.994c-5.568,2.121-13.764,3.516-18.329,7.615  c-6.196,5.564,1.311,4.81,5.482,4.264c9.84-1.287,19.673-1.848,29.526-3.45c22.332-3.632,44.289-8.955,66.521-13.065  c15.552-2.875,29.873-6.057,44.486-12.07c7.925-3.261,15.827-6.491,23.54-10.253c3.588-1.75,13.96-5.203,14.456-9.365  c-4.323-1.738-12.883,1.248-17.473,1.922c-9.284,1.364-18.974,2.384-28.134,4.559c-21.939,5.209-44.089,9.255-65.81,15.316  c-6.636,1.851-12.37,2.781-19.171,3.248C251.368,356.026,242.012,357.705,241.582,358.859z"/>
<g>
	<path style="fill:#B76057;" d="M293.225,315.94c-6.333-2.304-16.051,1.164-22.249,2.708c-8.605,2.144-17.239,4.793-25.503,7.906   c-12.021,4.528-24.071,8.975-36.133,13.388c-6.17,2.258-12.343,4.509-18.517,6.755c-4.139,1.505-10.045,5.383-14.494,4.176   c-3.976-1.078-4.723-4.86-6.152-8.612c-3.817-10.02-9.676-18.992-13.881-28.774c-4.409-10.259-9.229-20.35-13.442-30.694   c-4.866-11.947-9.168-23.696-14.892-35.28c-7.183-14.535-12.873-29.763-19.955-44.304c-7.421-15.24-14.872-30.783-21.604-46.346   c-6.499-15.02-14.341-29.618-22.096-44.033c-6.301-11.714-13.028-23.448-23.234-32.123c-4.193-3.564-10.728-11.57-17.096-9.522   c-4.799,1.544-6.462,7.367-5.807,11.81c2.226,15.102,10.277,29.157,16.108,43.013c1.931,4.59,4.232,9.008,6.595,13.397   c-5.946,5.142-5.429,18.445-6.196,24.861c-1.405,11.778-3.196,23.508-4.711,35.292c-1.898,14.759-6.596,29.349-5.807,39.153   c0.182,9.585-2.306,20.634-4.346,29.973c-1.907,8.733-3.783,17.47-6.181,26.079c-4.278,15.361-8.953,31.391-10.606,47.236   c-1.001,9.597-3.111,22.802,0.436,32.114c2.14,5.617,11.192,9.99,16.892,7.575c5.498-2.33,7.336-9.274,8.896-14.473   c0.941-3.137,1.577-6.346,2.099-9.583c0.233,0.416,0.5,0.788,0.827,1.079c2.68,2.384,7.196,1.795,10.515,1.948   c5.818,0.268,11.897,0.296,17.738-0.341c17.357-1.89,34.577-6.513,51.697-9.819c6.159-1.189,12.297-2.469,18.441-3.629   c3.913-0.739,8.391-2.109,12.306-1.069c5.226,1.389,11.972,12.278,6.293,16.508c-1.866,1.391-6.22,1.883-8.517,2.733   c-3.317,1.228-6.632,2.46-9.945,3.698c-17.959,6.708-35.325,14.946-52.92,22.451c-12.695,5.415-30.28,9.005-40.195,19.211   c0.076,0.977-3.461,6.771,3.593,11.898c7.82,5.683,22.347,1.208,30.59-1.171c15.884-4.585,30.736-12.534,46.747-16.736   c12.711-3.335,25.135-7.697,37.312-12.62c4.654-1.882,8.486-5.26,13.386-2.334c3.89,2.323,5.616,7.043,7.32,10.992   c4.307,9.972,9.592,19.972,15.335,29.226c10.686,17.218,22.347,35.3,36.1,50.254c3.787,4.117,7.688,9.94,13.971,9.619   c4.46-0.228,8.685-3.742,9.623-8.164c1.723-8.126-2.747-16.125-7.002-22.591c-6.053-9.2-12.205-18.218-18.632-27.221   c-4.529-6.346-7.73-13.239-11.557-19.974c-3.665-6.452-8.24-12.442-11.45-19.137c-2.785-5.809-7.676-16.482,0.287-20.096   c12.981-5.892,27.512-9.667,40.903-14.85c9.658-3.738,19.262-7.403,29.318-9.81c7.718-1.849,16.337-3.332,21.868-9.518   C300.989,331.81,303.157,319.553,293.225,315.94z M125.782,329.205c-7.361,2.167-15.335,2.18-22.934,3.349   c-18.587,2.858-37.32,4.523-55.829,6.695c-3.908,0.458-10.109,0.481-13.321,3.357c0.083-0.415,0.154-0.833,0.242-1.246   c4.38-20.362,3.847-41.482,7.641-61.962c4.3-23.21,7.654-46.136,14.339-68.815c2.316-7.857,5.624-16.688,7.802-25.637   c0.6,1.252,1.215,2.494,1.803,3.754c6.517,13.956,11.184,28.896,18.354,42.511c7.084,13.452,15.367,26.15,21.595,40.09   c5.53,12.378,11.667,24.48,18.211,36.351c2.442,4.429,7.508,10.184,8.423,15.129C132.927,327.203,129.477,328.117,125.782,329.205z   "/>
	<path style="fill:#B76057;" d="M275.703,66.662c-7.037,4.352-0.955,16.551,1.744,21.416c4.626,8.338,9.935,16.361,14.044,25.223   c14.591,31.468,29.812,62.763,45.03,94.018c7.936,16.3,15.647,32.708,23.2,49.19c3.642,7.949,7.425,16.074,11.616,23.725   c2.191,4.001,4.033,12.501,7.797,15.194c3.24,2.318,8.629,0.879,12.068,0.183c2.955-0.598,10.191-0.498,12.431-2.427   c2.897-2.496-0.115-8.946-1.404-11.444c-3.512-6.808-8.514-12.528-11.825-19.613c-6.429-13.757-10.937-28.065-16.322-42.254   c-12.187-32.116-28.312-63.354-46.288-92.599c-8.15-13.258-15.289-27.024-23.063-40.463c-4.555-7.874-10.351-18.041-19.653-20.984   C281.206,64.603,277.987,66,275.703,66.662z"/>
	<path style="fill:#B76057;" d="M344.184,355.407c1.51-2.254,7.241-3.652,9.057-4.301c5.493-1.966,10.762-4.637,16.044-7.211   c10.792-5.26,21.624-10.596,33.143-14.101c21.263-6.467,41.47-16.165,62.416-23.415c9.501-3.289,25.977-7.003,21.93-19.893   c-1.618-5.154-0.602-6.237,5.304-6.76c5.919-0.524,11.425,0.929,14.311,6.391c6.923,13.103-26.473,22.387-34.879,26.29   c-9.159,4.253-18.153,8.235-27.548,11.95c-4.838,1.913-20.977,5.372-19.374,12.723c0.779,3.57,4.58,8.314,6.315,11.597   c2.534,4.798,5.045,9.565,7.595,14.346c5.042,9.447,9.774,19.909,12.893,30.153c2.208,7.253,1.627,19.21-6.24,23.032   c-8.019,3.895-10.586-6.571-14.166-11.606c-6.335-8.909-10.529-18.842-16.276-28.138c-4.978-8.052-8.378-16.809-12.19-25.421   c-0.983-2.223-1.735-5.182-4.042-6.247c-3.535-1.63-9.689,1.963-13.077,2.949c-11.437,3.33-22.442,8.24-34.23,10.027   c-1.76,0.267-7.571,2.019-7.35-1.367C343.843,356.055,343.972,355.722,344.184,355.407z"/>
</g>
<path d="M392.446,68.793c-1.036,2.408-2.072,4.961-2.908,7.474c-0.091,0.207-0.189,0.415-0.278,0.62  c-4.146,9.686-4.033,23.453,1.43,32.626c5.752,9.658,15.106,15.772,25.987,18.053c10.387,2.178,24.169,3.92,33.66-2.031  c3.553-2.228,6.068-7.387,7.547-11.166c1.944-4.963,4.518-9.296,5.035-14.702c1.068-11.172,0.895-22.807-5.602-32.371  c-5.562-8.189-12.747-15.61-23.068-16.997c-10.668-1.433-21.57-1.121-30.685,5.464C399.189,58.926,394.594,63.799,392.446,68.793z   M411.136,60.297c4.786-2.339,9.456-3.597,14.867-3.101c2.591,0.237,5.634,0.635,8.309,0.289c4.548,1.378,8.697,3.848,12.401,7.358  c5.79,5.488,8.979,14.098,9.643,21.888c0.823,9.673-1.306,18.39-5.768,26.915c-1.778,3.397-3.433,6.265-7.231,7.576  c-5.061,1.748-11.952,1.618-17.147,0.849c-9.458-1.4-18.462-2.804-25.396-10.014c-8.051-8.371-8.609-18.284-6.762-29.22  c0.828-4.899,3.708-8.522,6.542-12.391C403.521,66.445,406.584,62.523,411.136,60.297z"/>
<path d="M414.552,37.972c0.302,1.983,1.322,4.306,3.163,5.312c0.669,0.365,1.577,0.443,2.239,0c2.33-1.559,1.66-3.824,1.876-6.221  c0.252-2.778-0.291-5.62-1.104-8.264c-1.554-5.052-9.681-2.713-7.864,2.168C413.744,33.337,414.174,35.49,414.552,37.972z"/>
<path d="M437.132,137.951c-1.081-2.683-4.421-2.703-5.5,0c-0.957,2.398-1.324,5.645-1.16,8.236c0.1,1.572,0.456,2.968,0.446,4.566  c-0.032,5.327,8.339,5.335,8.278,0c-0.007-0.547,0.016-1.099-0.005-1.643c-0.057-1.486-0.546-2.466-0.885-3.855  C437.714,142.837,438.097,140.344,437.132,137.951z"/>
<path d="M368.363,111.93c0.38-0.008,0.752-0.04,1.138-0.084c1.033-0.117,2.036-0.365,3.025-0.688  c1.026-0.335,1.919-0.795,2.858-1.303c1.017-0.551,2.153-0.783,3.109-1.461c1.555-1.103,2.427-3.69,0.663-5.144  c-1.602-1.32-3.592-2.067-5.695-1.584c-1.492,0.342-2.786,1.033-4.318,1.319c-0.711,0.133-2.234,0.075-3.292,0.33  c-2.045,0.492-3.225,1.905-3.965,3.813c-0.776,2.006,0.691,4.422,2.534,5.164C365.883,112.877,367.225,112.665,368.363,111.93z"/>
<path d="M468.956,88.506c1.272,0.69,2.177,0.603,3.555,0.49c1.272-0.105,2.557,0.159,3.878-0.18  c1.472-0.377,2.891-0.889,4.416-1.066c1.55-0.181,3.007-0.011,4.525-0.527c4.265-1.449,3.918-8.781-1.13-8.348  c-0.163,0.014-0.326,0.028-0.489,0.041c-0.252,0.022-0.504,0.066-0.752,0.131c-2.716,0.507-5.306,0.786-7.861,2.006  c-0.076,0.037-0.779,0.403-1.037,0.578c-0.333,0.016-1.069,0.114-1.183,0.13c-1.349,0.18-2.05,1.119-3.232,1.468  C467.337,83.908,466.721,87.292,468.956,88.506z"/>
<path d="M457.522,55.72c0.792-0.795,1.681-1.493,2.482-2.28c0.388-0.381,0.744-0.788,1.093-1.204  c0.45-0.534,0.191-0.238,0.633-0.602c2.272-1.87,5.241-4.11,4.116-7.518c-0.991-3.003-4.261-3.628-6.589-1.74  c-0.63,0.512-0.875,1.161-1.3,1.8c0.356-0.535-0.472,0.415-0.507,0.449c-0.836,0.795-1.621,1.569-2.28,2.533  c-1.335,1.954-2.765,3.953-2.921,6.378C452.072,56.266,455.716,57.534,457.522,55.72z"/>
<path d="M394.491,131.627c-1.83,2.267-4.236,4.608-5.182,7.376c-1.087,3.178,3.024,6.458,5.848,4.495  c2.318-1.612,3.582-4.216,5.082-6.556c1.168-1.821,2.605-3.592,3.389-5.613c0.706-1.819-1.077-3.635-2.795-3.67  C398.104,127.603,396.09,129.647,394.491,131.627z"/>
<path d="M373.363,59.892c2.223,1.025,4.479,1.97,6.676,3.05c2.137,1.051,4.153,2.02,6.517,1.124  c1.587-0.602,2.468-2.275,1.572-3.866c-1.887-3.358-5.313-5.59-8.777-7.281c-0.567-0.776-1.407-1.327-2.374-1.531  c-2.01-0.424-3.8,0.31-4.933,2.007l-0.278,0.416C370.527,55.672,371.27,58.927,373.363,59.892z"/>
<path d="M467.685,126.578c1.709,0.977,3.797,0.644,5.211-0.672c0.228-0.212,0.504-0.608,0.672-0.87  c0.932-1.457,0.75-4.064-0.672-5.211c-1.089-0.878-2.157-1.462-3.465-1.963c-0.342-0.131-0.697-0.226-1.036-0.363  c-0.268-0.086-0.273-0.095-0.019-0.026c-0.147-0.083-0.295-0.163-0.445-0.241c-0.988-0.553-1.188-0.528-2.026-0.902  c-0.561-0.25-0.698-0.325-1.039-0.48c-0.26-0.12-1.411-0.816-0.772-0.355c-1.286-0.928-3.575-0.015-3.841,1.563  C459.478,121.662,464.241,124.61,467.685,126.578z"/>
<path d="M437.502,44.488c2.57-3.317,3.236-5.996,4.427-10.052c1.238-4.221,3.724-8.064,4.703-12.349  c0.651-2.849-2.56-4.495-4.681-2.725c-1.666,1.389-1.951,3.234-2.714,5.182c-0.996,2.544-2.17,4.982-2.95,7.614  c-0.756,2.556-1.091,5.187-1.54,7.801c-0.28,1.634-0.705,2.733,0.329,4.216C435.577,44.894,436.843,45.339,437.502,44.488z"/>
<path d="M464.727,70.803c2.99,1.46,6.795-0.85,9.67-1.943c4.709-1.789,9.701-4.522,14.74-5.159c4.212-0.532,4.498-7,0-6.812  c-4.778,0.198-9.546,2.543-13.848,4.517c-3.705,1.699-7.897,3.546-10.961,6.297C463.427,68.511,463.616,70.261,464.727,70.803z"/>
<path d="M452.598,134.013c-0.574-0.729-2.061-0.725-2.633,0c-2.036,2.585-0.347,6.674,0.204,9.632  c0.897,4.817,3.111,8.962,4.283,13.629c1.176,4.684,8.114,2.681,7.18-1.98c-0.836-4.174-3.537-7.927-4.674-12.085  C455.982,139.647,454.839,136.858,452.598,134.013z"/>
<path d="M415.742,135.707c-3.688,2.197-4.809,7.547-6.649,11.221c-0.885,1.767-1.639,3.627-2.615,5.346  c-0.897,1.58-2.058,2.63-2.554,4.42c-1.22,4.404,5.619,6.283,6.836,1.885c0.122-0.441,1.618-2.269,2.106-3.228  c1.003-1.966,1.841-4.036,2.774-6.037c1.736-3.727,4.134-8.133,3.302-12.305C418.665,135.62,416.881,135.028,415.742,135.707z"/>
<path d="M369.493,134.31c0.816-0.958,3.151-1.509,4.274-2.31c1.852-1.321,3.85-2.414,5.703-3.727  c3.122-2.213,6.188-3.768,8.979-6.428c0.725-0.691,0.791-2.093,0-2.772c-1.565-1.346-2.804-1.37-4.685-0.721  c-2.595,0.896-5.102,1.999-7.367,3.531c-2.28,1.542-4.716,3.367-7.122,4.666c-2.155,1.163-3.873,1.282-5.317,3.492  C361.801,133.346,366.878,137.378,369.493,134.31z"/>
<path d="M363.131,82.333c2.686,0.225,5.082,0.952,7.648,1.762c1.838,0.58,4.282,1.936,6.261,1.651  c0.474-0.069,2.426-1.085,1.232-0.416c0.693-0.388,1.068-0.38,1.729-1.001c0.991-0.932,0.167-2.458-1.018-2.514  c-1.778-2.174-3.928-3.403-6.69-4.673c-2.046-0.941-4.165-1.681-6.39-2.062c-1.792-0.307-3.83-0.017-5.333-1.134  c-3.535-2.624-7.386,2.922-4.559,5.91C357.984,81.941,360.419,82.105,363.131,82.333z"/>
<path d="M393.834,43.212c1.211,3.149,4.082,8.754,8.325,6.455c0.626-0.34,1.102-1.309,0.819-2.013  c-2.84-7.077-4.054-14.775-7.74-21.529c-1.554-2.848-5.498-1.878-6.468,0.845c-1.039,2.917,0.822,5.171,1.971,7.741  C391.968,37.461,392.754,40.403,393.834,43.212z"/>
<path d="M484.159,105.536c-1.642-0.488-3.318-1.16-4.943-1.717c-1.491-0.511-3.867-1.134-5.23-1.901  c-3.893-2.19-7.347,3.718-3.499,5.985c2.929,1.726,6.622,2.489,9.806,3.744c1.467,0.578,2.825,0.915,4.351,1.28  c2.121,0.507,4.014,1.576,6.115,2.15c4.496,1.227,6.394-5.69,1.922-6.971c-1.144-0.328-2.165-0.8-3.286-1.257  C487.674,106.146,485.921,106.058,484.159,105.536z"/>
<path d="M511.97,290.719c-0.694-7.807-7.993-13.626-15.228-14.815c-4.249-0.698-8.389,0.401-12.564,1.07  c-2.272,0.364-4.151,1.399-6.024,2.501c-5.165-0.033-10.675,1.192-15.214,1.873c-8.538,1.282-17.074,2.145-25.557,3.83  c-8.814,1.75-17.718,2.359-26.53,4.043c-0.483,0.093-0.97,0.168-1.454,0.252c-0.109-0.468-0.281-0.887-0.505-1.259  c-3.787-10.239-9.081-19.798-13.735-29.626c-2.177-4.596-4.072-9.192-6.07-13.852c-2.434-5.679-5.403-11.106-7.695-16.841  c-4.166-10.427-8.73-21.352-14.636-30.852c-2.241-3.605-3.717-7.899-5.634-11.728c-2.417-4.826-4.997-9.408-7.057-14.357  c-2.047-4.915-5.823-8.788-7.886-13.736c-1.964-4.711-4.351-9.107-7.086-13.407c-6.391-10.057-10.08-21.5-15.743-31.933  c-2.262-4.166-4.361-8.694-6.936-12.675c-3.267-5.048-6.732-9.882-9.856-15.015c-2.948-4.844-5.906-8.206-9.986-12.22  c-3.59-3.533-7.057-6.837-11.995-8.387c-7.289-2.288-14.104,2.489-15.747,9.095c-1.718-0.224-3.438-0.211-5.413-0.31  c-3.739-0.187-7.33-0.623-11.107-0.634c-3.147-0.009-6.142-0.715-9.357-0.634c-4.296,0.109-8.501,0.057-12.772-0.42  c-7.513-0.838-15.337-0.049-22.9-0.008c-7.995,0.044-16.001-0.035-23.994,0.183c-7.09,0.193-14.171,0.403-21.247,0.656  c-3.289-0.008-6.524,0.154-9.804,0.392c-4.545,0.196-9.089,0.416-13.632,0.677c-8.107,0.066-16.256-0.249-24.308,0.684  c-6.154,0.713-12.443,1.798-18.61,2.292c-2.545,0.204-4.985,0.007-7.519,0.355c-2.864,0.394-5.865,0.813-8.762,0.928  c-5.72,0.227-11.407,0.384-17.118,0.945c-5.182,0.51-10.447,0.882-15.476,2.111c-1.656-1.991-3.412-3.885-5.439-5.539  c-4.652-3.794-10.8-9.019-17.32-7.081c-5.355,1.591-9.685,6.619-10.099,12.231c-0.464,6.311,2.828,12.64,5.507,18.112  c1.525,3.113,2.696,6.426,4.502,9.394c0.304,0.499,0.649,0.993,1.014,1.486c0.686,1.646,1.427,3.274,2.273,4.877  c3.991,7.557,7.681,15.254,10.967,23.116c-0.571,2.029-1.364,3.97-1.812,6.056c-0.795,3.707-1.291,7.431-2.172,11.115  c-1.944,8.125-1.911,16.832-3.345,25.084c-1.357,7.809-2.01,15.657-3.518,23.477c-1.766,9.157-4,18.245-5.481,27.452  c-2.62,16.279-5.385,32.569-8.192,48.809c-1.199,6.94-2.293,13.913-3.538,20.855c-1.31,7.306-3.412,14.642-4.151,22.007  c-0.886,8.835-3.194,17.443-4.431,26.21c-0.512,3.629-0.806,7.422-1.05,11.062c-0.225,3.362-0.788,6.882-0.384,10.25  c0.783,6.533,3.345,14.301,9.783,17.219c5.441,2.467,13.789,1.621,16.905-4.125c3.034-5.596,4.391-11.49,5.99-17.584  c0.96,0.017,1.921-0.062,2.948-0.222c2.889-0.452,5.647-0.095,8.511-0.481c4.653-0.627,9.216-1.367,13.901-1.848  c11.154-1.144,22.249-3.008,33.374-4.292c4.839-0.559,9.615-1.099,14.425-1.702c5.143-0.645,10.134-1.97,15.266-2.556  c4.844-0.554,9.617-1.934,14.419-2.793c2.401-0.43,4.839-0.405,6.941-1.14c0.621,1.046,1.238,2.094,1.819,3.164  c0.474,0.873,0.845,1.793,1.308,2.669c0.281,0.53,1.736,3.376,1.658,2.563c0.071,0.749,0.286,1.404,0.601,1.963  c-6.97,2.551-13.892,5.278-20.758,8.105c-1.609,0.474-3.217,0.955-4.817,1.461c-12.577,3.974-24.478,10.001-36.728,14.855  c-5.362,2.125-10.987,3.417-16.276,5.708c-5.721,2.478-11.486,5.29-17.41,7.248c-4.419,1.46-7.709,3.878-11.671,6.166  c-4.238,2.448-8.78,6.938-7.574,12.23c0.984,4.319,2.767,8.72,6.886,10.896c4.903,2.589,9.837,2.857,15.302,2.412  c6.113-0.498,12.078-2.523,17.982-4.055c5.279-1.37,10.485-3.186,15.73-4.753c11.879-3.551,23.451-8.186,34.807-13.108  c12.339-5.348,25.287-8.922,37.99-13.26c2.447-0.835,4.871-1.713,7.288-2.607c0.642,2.959,2.14,5.74,3.432,8.431  c0.843,1.755,1.389,3.624,2.333,5.339c1.197,2.179,2.901,3.994,4.191,6.099c2.15,3.506,3.954,7.141,5.918,10.764  c2.52,4.649,5.802,8.82,8.449,13.393c4.668,8.062,10.135,15.527,14.738,23.603c4.734,8.304,10.652,15.554,16.507,23.082  c4.948,6.36,11.659,13.627,20.306,11.16c5.87-1.675,12.355-8.57,12.156-15.033c-0.114-3.702-1.536-7.345-2.888-10.735  c-0.683-1.714-1.148-3.538-1.912-5.221c-1.135-2.5-3.173-4.224-4.566-6.518c-1.983-3.268-3.767-6.504-6.051-9.646  c-1.21-1.664-2.526-2.91-3.384-4.705c-1.068-2.237-2.052-4.229-3.561-6.262c-6.333-8.532-11.093-18.171-16.376-27.367  c-2.989-5.203-5.842-10.486-8.853-15.675c-1.374-2.368-2.347-4.885-3.622-7.289c-0.2-0.378-0.426-0.725-0.661-1.062  c6.535-0.255,13.14-0.54,19.532-1.689c8.656-1.556,17.512-3.032,26.08-4.992c4.588-1.05,9.267-1.466,13.862-2.545  c4.704-1.105,9.511-1.102,14.22-2.054c18.485-3.737,37.193-5.819,55.329-11.236c0.356,2.111,2.503,2.759,4.232,2.068  c3.494,0.011,6.816,0.084,10.331-0.303c4.137-0.454,7.733-1.617,11.763-2.474c7.026-1.493,13.413-3.958,20.125-6.525  c3.479-1.331,7.231-2.025,10.608-3.534c2.389-1.066,4.781-1.968,7.197-2.817c1.288,4.728,3.788,8.741,6.021,13.342  c2.923,6.026,5.321,12.077,8.588,17.958c1.532,2.756,2.412,5.839,3.941,8.583c1.483,2.661,3.357,5.135,4.779,7.839  c3.128,5.949,5.832,12.114,9.771,17.635c2.911,4.08,6.774,8.757,12.395,7.633c5.64-1.127,10.956-4.778,13.372-10.041  c2.63-5.728,0.418-13.4-1.98-18.873c-2.799-6.389-5.101-13.025-7.855-19.445c-1.652-3.853-3.703-7.547-5.705-11.227  c-1.611-2.962-2.327-6.311-3.978-9.25c-1.682-2.997-3.423-5.738-4.826-8.912c-0.639-1.447-1.075-2.964-1.694-4.419  c-0.307-0.722-0.645-1.408-1.06-2.071c-0.123-0.197-0.329-0.618-0.494-0.889c0.13-0.046,0.258-0.097,0.388-0.143  c7.834-2.731,15.377-6.286,23.049-9.487c4.066-1.697,8.148-3.355,12.247-4.973c3.931-1.553,8.447-2.545,12.194-4.428  c6.962-3.498,14.672-5.99,21.346-10.3c3.369-2.176,6.337-4.92,9.334-7.564C510.381,296.147,512.268,294.074,511.97,290.719z   M417.69,295.792c8.311-1.163,16.69-2.223,25.051-3.335c7.735-1.029,15.482-1.727,23.188-3.003c3.907-0.647,7.915-1.395,11.85-1.797  c1.541-0.158,3.553-0.533,5.086-0.247c2.868,0.535,3.827,3.267,2.41,5.3c-6.681,1.175-13.494,1.736-20.161,3.069  c-8.998,1.799-17.877,3.852-26.947,5.278c-15.308,2.408-30.414,5.844-45.695,8.831c-3.91,0.764-7.814,1.577-11.715,2.409  c-0.693,0.053-1.386,0.117-2.085,0.207c-11.863,1.542-23.639,4.45-35.213,7.409c-1.024,0.261-2.048,0.504-3.072,0.749  c-4.215,0.817-8.315,1.773-12.404,2.828c-0.609,0.139-1.216,0.274-1.825,0.418c-2.959,0.698-5.881,1.572-8.807,2.399  c-0.38,0.108-0.803,0.252-1.239,0.407c-3.993,0.944-8.056,1.228-11.771,2.517c0.132-0.409,0.262-0.82,0.39-1.235  c1.515-4.896-0.173-7.422-3.171-11.385c-0.752-0.995-1.624-1.836-2.575-2.548c13.888-2.549,27.882-5.255,41.889-6.503  c8.68-0.773,17.396-2.928,26.009-4.313c8.538-1.373,17.199-3.278,25.825-3.788C401.073,298.964,409.42,296.949,417.69,295.792z   M303.023,332.879c2.409-0.665,4.802-1.323,7.351-1.716c3.834-0.591,7.278-1.158,11.006-2.269  c7.851-2.341,15.674-3.699,23.684-5.267c12.508-2.448,24.962-5.189,37.448-7.778c1.522-0.132,3.052-0.23,4.56-0.5  c2.944-0.527,5.825-1.477,8.753-2.113c5.289-1.148,10.518-1.85,15.812-2.895c3.885-0.767,7.718-1.664,11.532-2.618  c6.164-1.183,12.343-2.286,18.575-3.194c8.814-1.284,17.436-3.447,26.186-5.08c1.798-0.335,3.696-0.559,5.632-0.759  c-4.055,1.895-8.711,3.583-12.935,5.08c-8.307,2.943-16.686,5.788-25.04,8.637c-8.903,3.036-17.742,6.162-26.499,9.513  c-0.609-0.079-1.268,0.089-1.724,0.514c-6.541,0.803-13.106,2.812-19.485,4.322c-7.136,1.689-14.391,3.084-21.587,4.488  c-14.118,2.754-28.2,5.698-42.316,8.552c-15.052,3.044-29.684,7.912-44.887,10.236c-2.017,0.308-4.015,0.76-6.012,1.2  c2.688-1.018,5.367-2.056,8.035-3.14c5.221-2.122,11.766-3.689,16.214-7.227C300.096,338.663,301.765,335.913,303.023,332.879z   M224.437,326.562c-4.093,0.518-8.156,0.194-12.245,0.842c-9.082,1.44-18.279,2.337-27.29,4.219  c-3.797,0.793-7.604,1.845-11.338,2.86c-0.308,0.084-0.625,0.201-0.946,0.332c-7.168-13.367-14.362-26.827-20.679-40.629  c1.173-0.114,2.347-0.274,2.611-0.31c3.416-0.466,6.939-0.845,10.374-1.208c8.088-0.853,16.382-2.38,24.502-2.589  c7.814-0.201,15.182-1.111,22.904-2.27c7.319-1.099,14.725-1.509,22.05-2.598c7.293-1.083,14.642-2.025,21.969-2.98  c8.093-1.054,16.302-2.487,24.473-2.656c6.872-0.142,13.887-0.702,20.698-1.607c7.285-0.968,14.6-1.497,21.872-2.561  c8.116-1.187,16.197-2.114,24.397-2.341c3.755-0.105,7.366-1.048,11.123-1.155c1.295-0.037,2.6-0.033,3.909-0.04  c1.168,2.272,2.396,4.518,3.746,6.712c0.254,0.413,0.588,0.825,0.882,1.236c-0.003,0.105,0.257,0.784,0.402,1.395  c0.431,1.822,1.313,3.145,2.316,4.7c1.667,2.585,2.745,5.526,4.182,8.263c-8.719,1.392-17.518,2.587-26.114,4.454  c-10.273,2.231-20.809,4.063-31.196,5.812c-9.558,1.609-18.841,4.342-28.214,6.703c-0.548,0.019-1.094,0.054-1.639,0.119  c-6.1,0.719-12.365,2.016-18.224,3.779c-5.986,1.8-11.588,4.709-17.572,6.348c-1.078,0.295-2.144,0.629-3.205,0.983  c-3.946,0.583-7.811,1.504-11.775,1.994C232.376,324.861,228.482,326.051,224.437,326.562z M228.455,330.366  c-3.833,1.382-7.729,2.63-11.536,3.967c-6.395,2.245-12.696,4.783-19.13,6.906c-6.164,2.033-12.253,4.069-18.227,6.572  c-1.678-3.17-3.377-6.342-5.079-9.516c3.149-0.461,6.342-1.388,9.227-2.013c9.283-2.012,18.803-2.881,28.183-4.32  c3.974-0.61,7.892-0.317,11.855-0.804C225.332,330.962,226.897,330.676,228.455,330.366z M100.418,168.958  c3.306-0.131,6.534-0.571,9.796-1.112c7.337-1.217,14.766-1.556,22.153-2.274c6.767-0.657,13.223-1.021,20.021-1.018  c6.858,0.003,13.689-1.395,20.526-1.2c7.019,0.199,13.954-0.396,20.903-1.356c3.943-0.544,8.265-0.878,12.255-0.935  c3.62-0.052,6.965-0.932,10.545-1.188c13.819-0.987,27.738-2.453,41.626-2.958c4.167-0.151,8.242,0.374,12.414-0.137  c4.198-0.514,8.246-0.916,12.465-1.149c7.421-0.411,14.732-2.05,22.097-2.695c1.698,3.929,3.384,7.861,5.058,11.798  c2.742,6.446,6.511,12.464,9.783,18.685c-1.499,0.009-2.993-0.005-4.531,0.186c-3.865,0.482-7.515,1.187-11.439,1.233  c-7.129,0.083-14.227,0.601-21.399,0.539c-7.017-0.06-14.076,1.154-21.118,1.242c-6.371,0.081-12.727,1.534-19.085,1.836  c-7.15,0.339-14.341,1.585-21.459,2.493c-6.342,0.808-12.762,0.649-19.111,1.421c-3.582,0.436-7.161,1.379-10.759,1.532  c-4.082,0.173-8.085,0.261-12.163,0.657c-7.387,0.717-14.793,1.839-22.204,2.317c-8.049,0.519-16.044,2.788-24.069,3.098  c-6.886,0.266-13.545,1.774-20.245,3.25c-1.043-1.858-2.264-3.563-3.228-5.5c-1.42-2.854-2.591-5.828-3.745-8.795  c-2.3-5.912-5.468-11.48-7.895-17.339c-0.326-0.787-0.647-1.575-0.967-2.363C97.869,169.145,99.096,169.01,100.418,168.958z   M95.508,166.407c-1.559-3.87-3.131-7.729-4.969-11.487c-3.07-6.272-6.653-12.224-9.64-18.562c-1.929-4.09-3.923-8.119-5.991-12.1  c1.239,0.247,2.48,0.451,3.727,0.439c2.909-0.028,6.011-0.48,8.905-0.818c7.174-0.835,14.476-0.132,21.707-0.281  c15.546-0.32,31.102-1.095,46.636-1.106c14.217-0.01,28.748-0.265,42.896-1.656c3.544-0.348,7.077,0.019,10.631-0.343  c3.894-0.396,7.816-0.237,11.729-0.216c7.256,0.039,14.413-0.562,21.673-0.53c8.377,0.036,16.69-0.58,25.097-0.57  c7.323,0.01,14.525-0.904,21.816-1.186c4.65,10.21,9.203,20.476,13.678,30.771c-5.64,0.628-11.26,1.835-16.913,2.243  c-3.523,0.255-7.084,0.23-10.589,0.651c-3.83,0.461-7.533,1.147-11.412,1.11c-7.133-0.069-14.245,0.186-21.374,0.568  c-3.473,0.186-6.914,0.656-10.363,1.065c-3.498,0.415-7.053,0.186-10.513,0.629c-6.444,0.825-12.867,1.394-19.347,1.974  c-7.839,0.703-15.709,1.982-23.577,2.298c-3.186,0.128-6.378-0.273-9.561-0.174c-3.566,0.112-7.19,0.635-10.753,0.914  c-6.57,0.512-13.096,0.059-19.64,0.781c-7.741,0.855-15.517,1.431-23.275,2.182C109.196,163.672,102.385,165.631,95.508,166.407z   M130.209,203.866c7.474-0.343,14.795-1.518,22.233-2.522c7.43-1.003,15.191-1.688,22.666-2.131c3.544-0.21,7.082-0.747,10.625-1.05  c3.874-0.331,7.546-0.195,11.407-0.849c6.482-1.099,13.235-1.509,19.788-1.721c7.018-0.226,14.103-1.559,21.048-2.551  c6.811-0.972,13.862-1.235,20.732-1.935c6.583-0.671,13.298-0.231,19.863-1.128c4.154-0.567,8.48-0.234,12.674-0.237  c4.084-0.003,8.021-0.436,12.072-0.578c4.25-0.15,8.069-0.548,12.272-1.151c2.221-0.318,4.386-0.273,6.58-0.369  c1.609,3.439,2.983,6.908,4.751,10.301c1.963,3.766,3.942,7.397,5.769,11.239c1.863,3.918,3.84,7.77,5.779,11.645  c-3.22,0.341-6.449,0.634-9.694,0.828c-7.441,0.445-14.778,1.962-22.219,2.461c-6.551,0.439-13.086,1.588-19.628,2.316  c-7.128,0.794-14.312,1.02-21.468,2.02c-7.278,1.017-14.61,1.144-21.858,2.38c-7.248,1.237-14.734,1.655-22.052,2.344  c-8.035,0.757-15.973,2.123-24.032,2.84c-7.131,0.634-14.302,1.878-21.368,3.028c-4.196,0.683-8.437,0.712-12.614,1.503  c-4.312,0.816-8.483,2.219-12.754,3.212c-3.887,0.904-7.856,1.307-11.757,2.143c-2.594,0.556-5.127,0.431-7.661,0.736  c-0.941-2.329-1.915-4.643-3.015-6.896c-2.587-5.302-5.378-10.704-7.664-16.099c-2.459-5.803-4.471-11.776-6.87-17.596  C119.312,205.782,124.675,204.119,130.209,203.866z M138.25,249.556c3.148-0.276,6.403-0.915,9.539-1.373  c7.607-1.112,14.77-4.074,22.509-4.382c6.748-0.269,13.617-1.834,20.311-2.748c7.77-1.062,15.754-1.11,23.461-2.469  c14.137-2.494,28.757-3.269,43.023-4.655c13.476-1.309,26.851-2.89,40.275-4.355c7.412-0.808,14.878-1.315,22.281-2.285  c4.387-0.574,8.688-1.107,13.111-1.44c1.858-0.139,3.73-0.079,5.582-0.252c0.623-0.058,1.43-0.278,2.254-0.443  c0.744,1.544,1.479,3.094,2.179,4.664c3.626,8.121,7.105,16.256,11.265,24.123c2.214,4.188,4.176,8.488,6.22,12.755  c-2.937,0.391-5.86,0.56-8.829,1.122c-3.259,0.617-6.457,0.191-9.727,0.537c-3.966,0.419-7.912,0.752-11.877,1.104  c-3.318,0.294-6.579,1.214-9.9,1.584c-3.414,0.381-6.876,0.516-10.268,0.992c-7.393,1.038-14.795,1.579-22.198,2.495  c-7.78,0.963-15.652,0.702-23.434,1.999c-7.998,1.334-16.099,2.441-24.146,3.248c-7.221,0.724-14.365,2.167-21.611,2.86  c-8.078,0.772-15.979,2.716-24.106,3.005c-9.316,0.332-18.377,1.833-27.638,2.88c-5.431,0.614-10.665,1.444-15.774,3.04  c-2.178-4.862-4.246-9.766-6.154-14.726c-2.419-6.289-5.319-12.232-8.23-18.267c-1.465-3.035-2.711-6.18-3.962-9.325  C134.35,249.382,136.307,249.726,138.25,249.556z M277.778,71.406c5.312-3.727,10.424,1.566,14.107,5.257  c2.025,2.031,4.369,3.88,6.063,6.207c1.203,1.652,1.94,3.596,2.986,5.341c2.75,4.592,5.474,9.033,8.525,13.451  c2.471,3.578,3.879,7.682,6.106,11.387c3.049,5.071,5.539,10.574,7.851,16.033c3.7,8.739,8.426,16.921,13.059,25.164  c2.185,3.889,3.317,8.265,5.65,12.085c1.309,2.143,2.95,4.082,4.106,6.321c1.021,1.979,1.244,4.25,2.301,6.204  c2.082,3.846,4.15,7.66,6.11,11.613c1.854,3.742,3.308,7.725,5.529,11.281c2.585,4.139,4.745,8.78,6.763,13.249  c2.244,4.967,4.545,10.015,6.556,15.074c4.023,10.122,8.616,20.137,13.109,30.021c4.639,10.203,10.148,20.008,13.878,30.621  c-5.359,0.596-10.743,1.032-16.069,1.8c-0.086-0.147-0.181-0.294-0.287-0.441c-1.985-2.732-3.1-5.935-4.678-8.888  c-0.711-1.332-2.079-2.494-2.608-3.888c-0.117-0.306-0.351-2.55-0.917-3.543c-3.842-6.748-8.561-13.129-11.446-20.448  c-2.961-7.513-7.36-14.37-10.76-21.699c-3.297-7.109-6.947-14.085-10.138-21.194c-3.364-7.493-7.938-14.555-11.901-21.742  c-1.808-3.277-3.073-6.829-4.847-10.147c-2.224-4.159-4.534-8.296-6.694-12.485c-1.788-3.468-3.308-6.947-4.846-10.527  c-1.804-4.202-4.168-8.079-5.798-12.359c-2.943-7.738-6.356-15.661-10.384-22.898c-4.343-7.799-7.854-16.062-12.398-23.797  c-1.788-3.045-3.249-6.292-5.166-9.207c-0.196-0.298-0.408-0.599-0.615-0.899c-0.983-1.725-1.983-3.443-3.039-5.194  C275.625,79.41,273.491,74.414,277.778,71.406z M58.223,87.153c3.652,0.033,7.425-0.01,11.082-0.128  c7.378-0.24,14.874-1.411,22.183-2.29c6.692-0.804,13.415-0.578,20.1-1.669c3.118-0.509,6.198-0.212,9.316-0.657  c3.669-0.523,7.552-0.938,11.268-0.929c7.326,0.017,14.788-0.24,22.088-0.868c7.643-0.658,15.466-0.189,23.141-0.454  c15.485-0.534,30.997-0.037,46.487-0.247c4.681-0.063,9.262,0.867,13.95,0.874c2.248,0.004,4.519-0.164,6.762-0.102  c1.849,0.051,3.546,0.649,5.389,0.75c3.812,0.209,7.51,0.073,11.326,0.474c2.956,0.31,5.781,0.321,8.542-0.362  c1.039,2.053,2.554,3.91,3.925,5.692c1.415,1.839,2.42,3.653,3.543,5.641c0.408,0.938,0.83,1.866,1.302,2.766  c3.137,5.966,6.266,12.078,9.174,18.228c-5.464,0.041-10.935,1.094-16.395,1.179c-7.502,0.117-14.926,0.059-22.386,0.634  c-3.609,0.278-7.3,0.056-10.923,0.063c-3.672,0.008-7.248,0.599-10.901,0.69c-3.707,0.093-7.441-0.021-11.15-0.009  c-3.86,0.013-7.661,0.636-11.502,0.64c-14.231,0.017-28.511,2.046-42.755,1.897c-7.584-0.079-15.075,0.555-22.618,0.679  c-7.987,0.131-15.993-0.362-23.972,0.194c-8.102,0.564-16.212-0.117-24.293,0.298c-3.119,0.16-6.327,0.691-9.417,1.161  c-2.767,0.419-5.376,0.114-8.081,0.112c-3.358-6.315-6.91-12.515-10.721-18.634c-3.213-5.158-6.122-10.611-9.949-15.359  c-0.248-0.308-0.49-0.62-0.735-0.93C54.067,86.779,56.129,87.135,58.223,87.153z M31.066,339.647  c-0.57,3.822-1.519,7.468-2.425,11.212c-0.865,3.572-1.13,7.053-2.318,10.583c-1.112,3.301-1.749,6.768-2.927,10.04  c-0.866,2.407-3.132,7.106-5.531,7.876c-8.533,2.734-10.262-10.388-9.481-15.786c1.037-7.164,0.18-14.448,1.73-21.624  c1.656-7.662,2.277-15.497,3.719-23.173c1.317-7.009,2.719-14.098,4.177-21.079c1.332-6.376,2.046-12.883,3.299-19.247  c2.987-15.173,5.096-30.74,7.294-46.053c1.366-9.522,3.516-18.926,5.211-28.394c1.43-7.987,2.086-16.005,3.34-23.974  c1.369-8.704,1.385-17.702,3.066-26.3c0.541-2.768,1.109-5.668,1.517-8.573c3.405,8.032,7.693,15.681,11.245,23.658  c1.738,3.903,3.572,7.759,5.409,11.61c-0.04,0.193-0.072,0.39-0.088,0.6c-0.563,7.417-2.366,14.715-3.652,22.023  c-0.64,3.636-1.107,7.3-1.64,10.953c-0.574,3.929-1.896,7.609-2.595,11.504c-2.83,15.751-7.922,31.04-10.07,46.94  c-0.948,7.018-2.392,13.829-3.171,20.874c-0.858,7.766-1.627,15.53-2.959,23.232C32.891,324.196,32.211,331.965,31.066,339.647z   M61.48,206.564c0.891-4.448,1.96-8.843,2.919-13.26c0.646,1.45,1.283,2.905,1.898,4.37c1.685,4.017,3.811,7.701,5.494,11.673  c2.072,4.893,4.331,9.845,6.621,14.64c2.315,4.85,5.317,9.333,7.425,14.298c2.02,4.756,3.975,9.536,5.979,14.282  c1.762,4.171,4.501,7.829,6.442,11.897c2.391,5.009,4.307,10.052,7.068,14.908c4.678,8.223,8.367,16.996,12.908,25.287  c2.644,4.827,5.045,9.8,7.583,14.665c1.007,1.931,2.261,3.712,3.521,5.489c-2.549,0.388-5.106,0.997-7.652,1.331  c-3.782,0.495-7.437,1.095-11.18,1.79c-8.207,1.525-16.392,3.029-24.652,4.345c-4.373,0.697-9.001,0.665-13.436,1.024  c-3.907,0.316-7.794,0.548-11.682,1.083c-4.563,0.629-9.06,1.543-13.504,2.755c-3.213,0.875-6.504,1.408-9.72,2.22  c2.12-16.329,4.94-32.546,6.468-48.942c0.413-4.425,1.7-8.597,2.299-12.994c0.664-4.876,1.477-9.661,2.44-14.488  c1.948-9.768,4.469-19.418,6.833-29.094C57.765,224.777,59.646,215.722,61.48,206.564z M137.772,343.005  c-2.359,0.308-4.722,0.822-7.055,1.277c-4.633,0.904-9.234,1.652-13.87,2.453c-4.79,0.829-9.465,2.006-14.282,2.659  c-4.593,0.623-9.285,0.798-13.874,1.686c-18.06,3.494-36.729,4.032-54.646,7.826c0.319-2.097,0.518-4.199,0.918-6.306  c0.576-3.034,1.293-6.007,1.869-9.024c7.178,1.231,14.388-2.053,21.521-3.131c4.68-0.708,9.353-0.919,14.067-1.213  c4.312-0.269,8.83-0.127,13.096-0.685c8.541-1.115,16.966-2.548,25.458-3.833c7.288-1.102,15.192-1.087,22.201-3.537  c0.058-0.02,0.105-0.051,0.16-0.073c1.971,3.891,3.746,7.883,5.71,11.8C138.612,342.925,138.186,342.952,137.772,343.005z   M144.281,332.406c-3.829-7.964-9.489-14.75-13.308-22.718c-4.166-8.695-9.629-16.855-13.239-25.789  c-1.872-4.633-4.664-8.759-7.02-13.149c-2.599-4.84-4.335-9.979-7.124-14.728c-5.093-8.677-8.104-18.307-12.763-27.213  c-2.351-4.493-4.814-8.759-6.796-13.435c-1.939-4.576-4.131-9.6-6.768-13.798c-2.494-3.971-3.926-8.398-6.071-12.564  c-1.579-3.068-3.156-6.162-4.716-9.266c-0.12-0.567-0.37-1.044-0.711-1.431c-0.67-1.342-1.349-2.68-2.004-4.027  c-4.558-9.381-8.804-18.901-13.207-28.285c-5.004-10.665-9.533-21.54-15.036-32.017c-2.883-5.488-5.701-10.946-8.348-16.533  c-0.927-1.955-2.054-3.77-3.26-5.533c-0.874-2.413-1.578-4.872-1.856-7.442c-0.245-2.268-1.003-4.43,0.245-6.554  c2.001-3.408,5.319-3.368,8.521-1.749c2.488,1.259,4.628,3.409,6.723,5.226c2.233,1.937,3.365,4.461,5.19,6.761  c7.14,8.998,13.478,18.77,18.959,28.916c2.598,4.809,5.5,9.394,7.926,14.327c3.127,6.359,5.861,12.953,9.146,19.224  c2.41,4.6,4.919,8.954,7.062,13.718c2.683,5.964,5.376,11.984,7.926,18.007c2.079,4.91,4.03,9.891,6.217,14.745  c2.56,5.681,5.808,10.684,7.834,16.622c3.65,10.701,8.763,20.755,13.491,30.997c2.514,5.445,4.502,11.141,6.841,16.657  c2.645,6.237,5.842,12.161,8.244,18.555c9.271,24.673,22.341,47.971,34.592,71.21c-1.136,0.421-2.267,0.877-3.39,1.435  c-3.045,1.516-6.332,2.526-9.551,3.601c-0.531,0.177-1.06,0.371-1.591,0.552c-0.547-3.598-2.971-7.151-4.754-10.195  C148.97,341.896,146.602,337.232,144.281,332.406z M41.296,413.704c0.118-0.555,0.314-0.681,1.22-1.344  c1.277-0.934,2.582-2.175,3.915-3.183c2.176-1.645,3.942-3.306,6.481-4.378c4.784-2.019,9.545-4.037,14.277-6.18  c6.205-2.811,12.416-4.837,18.754-7.283c3.817-1.473,7.59-3.078,11.352-4.716c1.804-0.685,3.6-1.389,5.377-2.146  c5.812-2.472,11.605-4.933,17.441-7.312c1.358-0.483,2.722-0.951,4.095-1.388c6.328-2.016,12.758-3.622,18.938-6.086  c2.232-0.891,4.627-1.599,6.758-2.708c1.227-0.639,2.258-1.54,3.301-2.417c4.727-1.529,9.527-2.84,14.168-4.621  c10.711-4.112,21.306-8.325,32.32-11.791c11.677-3.674,23.397-7.758,34.882-11.999c4.735-1.749,9.36-3.804,14.012-5.733  c2.505-1.039,5.129-1.46,7.746-2.103c3.07-0.752,5.924-1.992,8.901-3.022c4.98-1.723,10.142-2.948,15.334-3.718  c5.929-0.88,13.111-4.4,17.46,1.827c0.412,0.59,0.623,1.29,0.684,2.052c-3.92,0.321-7.846,3.17-11.411,4.458  c-3.463,1.251-7.016,2.215-10.437,3.514c-5.496,2.086-11.304,3.904-16.654,6.497c-2.849,0.789-5.684,1.6-8.456,2.548  c-8.391,2.875-16.669,6.191-25.023,9.19c-16.373,5.878-32.636,11.733-48.802,18.16c-14.143,5.623-28.354,10.767-42.576,16.25  c-7.445,2.87-15.243,5.141-22.503,8.45c-7.309,3.332-14.73,6.182-22.363,8.744c-8.19,2.75-16.147,6.322-24.455,8.605  c-3.956,1.087-7.987,1.943-11.927,3.087c-3.397,0.988-6.607,2.995-10.048,3.811C42.516,417.657,40.866,415.735,41.296,413.704z   M207.43,404.915c4.387,7.709,8.599,15.557,13.278,23.042c2.152,3.441,4.014,6.942,6.452,10.203  c2.273,3.039,3.192,6.832,5.631,9.625c2.51,2.875,5.129,6.049,6.88,9.462c1.78,3.469,4.406,6.193,5.757,9.892  c1.2,3.283,2.888,6.319,3.184,9.867c0.25,3.002-2.089,6.245-4.743,7.857c-6.676,4.052-14.915-10.36-18.38-14.399  c-5.503-6.414-10.057-14.2-14.115-21.627c-1.844-3.376-4.474-6.163-6.418-9.509c-2.216-3.816-4.663-7.588-7.076-11.29  c-2.803-4.3-5.864-8.31-8.187-12.915c-1.874-3.715-4.382-7.221-6.928-10.527c-2.668-3.463-4.601-7.589-6.738-11.416  c-0.585-1.048-1.472-2.64-2.557-3.948c3.054-1.172,6.097-2.37,9.131-3.586c4.59-0.342,9.159-1.382,13.748-1.837  c0.913,2.874,2.721,5.79,4.02,8.403C202.516,396.525,205.044,400.721,207.43,404.915z M198.803,371.204  c-5.172,2.278-10.462,4.82-15.733,6.817c-21.669,8.208-43.932,14.64-65.468,23.252c-10.717,4.285-21.443,8.351-32.613,11.41  c-4.772,1.307-9.496,2.795-14.282,3.996c-5.721,1.436-11.489,3.4-17.41,3.682c-1.477,0.071-2.99,0.162-4.464,0.041  c0.501-0.138,1-0.29,1.494-0.445c3.963-1.251,7.93-2.244,11.949-3.308c3.346-0.885,6.832-1.468,10.133-2.497  c4.135-1.289,8.006-3.309,12.2-4.459c15.273-4.187,29.633-10.779,44.441-16.272c14.607-5.42,29.167-10.948,43.59-16.648  c8.825-3.487,17.484-7.645,26.422-10.813c8.016-2.841,16.12-5.498,24.036-8.628c8.978-3.549,18.075-6.855,26.974-10.599  c6.292-2.647,13.327-4.384,19.767-7.081c2.736-0.869,5.432-1.798,8.044-2.732c3.249-1.161,6.531-2.049,9.844-3.054  c3.43-1.042,6.661-2.642,10.019-3.868c-0.99,2.273-2.554,4.42-3.91,5.58c-2.348,2.007-5.684,2.746-8.519,3.859  c-3.044,1.195-6.089,2.383-9.139,3.562c-10.688,4.129-21.518,7.808-32.152,11.974c-10.339,4.051-20.979,7.277-31.379,11.188  C208.044,367.889,203.309,369.219,198.803,371.204z M334.906,352.064c-17.486,5.47-35.321,8.078-53.264,11.429  c-18.613,3.477-37.553,6.068-55.989,10.595c-6.681,1.641-13.616,2.14-20.516,2.576c8.465-3.243,16.97-6.321,25.546-9.375  c6.462-2.301,12.839-4.811,19.22-7.307c0.295-0.057,0.589-0.113,0.877-0.167c3.368-0.621,6.657-1.662,9.97-2.513  c3.745-0.964,7.66-1.091,11.45-1.872c3.138-0.646,6.241-1.242,9.404-1.736c14.435-2.252,28.411-6.83,42.679-9.893  c13.837-2.972,27.755-5.492,41.602-8.365c7.079-1.469,14.158-2.94,21.228-4.454c-0.255,0.114-0.512,0.222-0.767,0.338  c-8.669,3.903-17.309,7.849-26.055,11.576C351.917,346.464,343.584,349.349,334.906,352.064z M431.844,359.579  c1.391,3.596,3.36,6.82,5.153,10.223c3.454,6.558,6.372,13.587,8.812,20.583c2.273,6.521,7.955,16.248-0.558,20.559  c-3.876,1.962-5.25-0.003-7.454-3.058c-2.487-3.446-3.956-7.223-6.096-10.815c-2.973-4.992-6.406-10.042-8.946-15.277  c-3.191-6.575-7.116-12.796-9.982-19.516c-1.369-3.21-3.001-6.253-4.73-9.286c-1.399-2.456-3.419-4.887-4.952-7.406  c0.558-0.189,1.117-0.379,1.679-0.572c5.592-1.918,11.017-4.37,16.479-6.665c0.722,1.677,1.768,3.206,2.506,5.018  c1.152,2.829,2.402,5.742,3.867,8.42C429.088,354.47,430.728,356.692,431.844,359.579z M502.218,293.546  c-11.539,9.572-25.408,14.303-39.059,19.804c-7.47,3.011-14.983,6.013-22.379,9.195c-3.087,1.327-5.916,2.816-9.114,3.869  c-3.366,1.107-6.699,2.345-9.893,3.861c-13.953,6.626-28.974,10.865-43.327,16.353c-6.224,2.379-12.347,5.168-18.907,6.405  c-1.887,0.356-3.564,1.095-5.405,1.591c-1.189,0.32-2.39,0.418-3.591,0.495c12.882-4.959,25.378-10.815,37.981-16.587  c17.731-8.119,35.953-14.537,54.31-21.051c8.751-3.105,17.676-6.075,26.126-9.891c3.962-1.789,7.764-3.002,11.616-5.138  c3.077-1.706,7.095-3.053,9.208-6.047c2.998-4.249,2.098-10.987-1.858-14.283c1.197-0.122,2.401-0.222,3.621-0.261  c3.394-0.107,8.046,1.367,10.341,3.858c0.963,1.045,2.195,2.837,2.517,4.257C504.836,291.883,503.549,292.442,502.218,293.546z"/>
<g>
</g>
<g>
</g>
<g>
</g>
<g>
</g>
<g>
</g>
<g>
</g>
<g>
</g>
<g>
</g>
<g>
</g>
<g>
</g>
<g>
</g>
<g>
</g>
<g>
</g>
<g>
</g>
<g>
</g>
</svg>
