<?xml version="1.0" encoding="iso-8859-1"?>
<!-- Generator: Adobe Illustrator 19.0.0, SVG Export Plug-In . SVG Version: 6.00 Build 0)  -->
<svg xmlns="http://www.w3.org/2000/svg" xmlns:xlink="http://www.w3.org/1999/xlink" version="1.1" id="Layer_1" x="0px" y="0px" viewBox="0 0 512.001 512.001" style="enable-background:new 0 0 512.001 512.001;" xml:space="preserve">
<path style="fill:#FFC94E;" d="M419.515,59.407c-18.073,8.989-25.863,28.377-22.392,47.784c2.013,11.25,7.656,18.505,18.012,23.057  c9.555,4.2,22.644,8.231,33.052,5.357c9.784-2.703,18.444-10.173,20.927-20.282c1.478-6.023,2.887-12.348,2.839-18.557  c-0.025-3.24-0.859-6.294-1.562-9.438c-0.719-3.22-0.566-7.028-2.226-9.948c-1.237-2.176-2.839-4.333-4.213-6.442  c-2.948-4.524-7.077-8.183-11.843-10.705c-9.031-4.779-20.34-5.658-29.917-1.995C421.28,58.583,420.386,58.973,419.515,59.407z"/>
<path style="fill:#F3703A;" d="M174.131,96.119c-10.387,4.194-21.175,9.85-29.034,18.051c-9.399,9.808-11.552,21.542-14.428,34.318  c-6.498,28.874-6.391,61.399-7.568,90.96c-1.258,31.595,2.449,63.309,3.871,94.883c0.855,19.007,1.754,37.905,1.752,57.015  c-0.003,15.036-3.139,32.68,3.929,46.713c10.01,19.875,53.551,18.355,72.407,20.059c28.964,2.617,57.835,2.008,86.243-4.731  c29.94-7.103,32.417-34.599,33.573-60.841c0.898-20.392,3.138-40.713,3.138-61.174c0-28.812,0-57.626,0-86.438  c0-27.099-1.487-53.752-3.013-80.737c-0.922-16.311-1.464-33.559-6.816-49.14c-6.173-17.97-21.851-20.903-39.348-21.478  c-26.818-0.883-53.876-1.152-80.704,0.156C189.961,94.136,179.144,93.918,174.131,96.119z"/>
<g>
	<path style="fill:#FDB827;" d="M186.744,38.098c0.349-6.368,1.82-16.401,5.344-21.775c3.834-5.845,10.91-6.289,17.019-7.212   c9.07-1.371,18.018-2.89,27.161-3.667c5.835-0.497,17.348-2.125,22.859,0.003c8.775,3.389,8.139,16.195,8.341,23.845   c0.3,11.38,2.637,22.465,3.168,33.879c0.336,7.226,2.946,26.219-4.278,29.825c-5.419,2.704-17.864,1.903-23.975,2.51   c-10.398,1.033-20.889-0.016-31.383-0.018c-4.065,0-16.473,1.546-19.701-1.371c-2.65-2.395-1.374-9.076-1.401-12.242   c-0.068-7.861-1.495-15.273-2.6-23C186.041,50.069,187.287,41.796,186.744,38.098z"/>
	<path style="fill:#FDB827;" d="M160.399,176.461c-6.923-0.984-13.793-2.14-20.581-3.461c-11.663-2.27-12.202,1.922-13.05,12.643   c-0.877,11.101-1.048,22.248-0.941,33.378c0.211,21.847,1.635,43.667,1.635,65.527c0,17.476,0.64,34.879,0.631,52.293   c-0.004,7.304-1.804,22.358,4.093,27.938c4.026,3.809,15.092,6.129,20.503,7.742c9.204,2.743,18.912,4.479,28.386,6.607   c20.354,4.574,41.776,5.975,62.556,6.954c20.166,0.951,39.983,0.515,59.292-5.029c5.736-1.647,17.004-3.06,20.829-8.045   c4.312-5.618,2.206-16.701,2.506-23.227c0.637-13.799,0.776-27.633,1.043-41.424c0.578-29.756,0.021-59.447,0.077-89.256   c0.023-11.715-0.298-23.707-1.399-35.362c-0.372-3.935-0.777-10.859-4.539-13.232c-5.34-3.369-16.787,1.427-22.411,2.396   c-14.926,2.573-30.061,4.358-45.04,5.849C223.233,181.814,191.275,180.849,160.399,176.461z"/>
</g>
<path style="fill:#FFE8D6;" d="M212.601,211.529c-25.933,7.082-43.746,33.084-44.777,59.297  c-0.918,23.377,6.87,44.015,24.303,59.536c9.869,8.786,21.889,14.302,34.979,16.183c11.446,1.644,26.904,2.719,37.531-2.559  c26.011-12.921,35.88-50.911,31.858-77.585c-2.349-15.584-12.173-31.343-22.72-42.872c-12.429-13.587-31.697-16.349-49.191-14.488  C218.427,209.695,215.178,211.561,212.601,211.529z"/>
<path style="fill:#00BCE9;" d="M126.201,402.619c-10.098-2.093-22.339,1.432-33.164,1.916c-17.571,0.785-34.101,3.785-51.343,7.389  c-9.213,1.926-29.135,5.712-33.425,15.293c-7.106,15.87,28.252,18.111,36.899,18.978c11.169,1.119,43.908,0.942,47.513,14.902  c-3.061,4.082-8.622,4.266-13.163,5.692c-6.592,2.072-12.994,4.756-19.542,7.1c-8.124,2.907-25.205,6.283-29.787,14.501  c-11.382,20.413,60.754,19.892,68.215,19.495c36.523-1.945,72.965-7.777,109.466-11.317c18.428-1.786,36.788-4.101,55.256-5.604  c22.038-1.794,45.329,0.218,67.409,1.873c23.432,1.756,46.718,2.487,70.322,2.487c24.318,0,49.826,1.476,73.783-3.155  c5.675-1.096,24.526-7.941,21.629-16.884c-2.822-8.709-30.331-13.38-37.271-15.944c-5.154-1.903-30.055-9.258-18.144-15.589  c10.555-5.61,29.908-1.324,38.859-9.973c11.615-11.222-18.94-17.619-24.736-19.162c-21.145-5.627-45.194-8.538-67.068-10.755  c-10.395-1.053-21.669-0.068-32.135,0.803c-6.838,0.57-18.56-0.458-24.92,2.653c-6.893,3.373-8.762,15.761-11.045,22.401  c-4.697,13.661-14.668,20.205-28.078,24.751c-22.262,7.545-46.574,7.93-69.799,6.165c-18.787-1.428-38.015-2.04-56.536-5.815  c-9.855-2.009-22.742-4.978-29.121-13.279c-6.193-8.057-8.312-20.274-9.792-30.101C125.985,408.111,126.83,401.46,126.201,402.619z"/>
<g>
	<path style="fill:#EFF9FE;" d="M116.741,457.487c-2.332,1.772-7.217,2.079-10.137,2.785c-4.702,1.138-9.495,1.987-14.243,2.886   c-14.018,2.653-27.656,6.937-40.787,12.419c-7.192,3.002-25.934,7.579-21.616,19.109c4.208,11.238,23.308,10.606,32.938,11.525   c12.492,1.191,26.374,1.868,38.75-0.526c4.662-0.902,8.899-3.698,13.354-5.409c5.193-1.994,10.434-3.862,15.705-5.637   c11.88-3.997,24.246-6.717,36.04-10.643c11.931-3.973,23.423-9.196,35.515-12.699c4.45-1.289,9.069-2.323,13.254-4.393   c0.792-0.392,4.128-1.81,4.241-3.006c0.184-1.969-3.293-2.573-4.687-2.901c-9.175-2.164-18.792-2.265-28.087-3.696   c-8.244-1.269-16.397-2.795-24.559-4.498c-7.36-1.535-14.904-3.171-22.391-1.892C131.741,452.329,123.614,454.646,116.741,457.487z   "/>
	<path style="fill:#EFF9FE;" d="M262.366,486.516c-2.616,1.907-4.898,4.328-1.201,4.396c6.338,0.112,12.99-0.576,19.316-1.044   c11.068-0.82,21.812-0.264,32.826,1.027c9.826,1.15,19.651,2.371,29.427,3.913c5.27,0.831,7.988,0.011,12.246-3.011   c17.598-12.49,38.73-17.706,57.932-27.081c7.182-3.506,14.377-6.882,21.536-10.386c1.664-0.814,3.897-1.477,5.202-2.833   c2.051-2.134-0.226-2.236-0.739-4.412c-2.413-10.227,42.982-5.063,44.208-19.819c0.314-3.784-5.458-5.42-8.162-6.583   c-6.693-2.876-13.639-5.17-20.479-7.665c-5.203-1.898-10.661-4.031-16.318-3.48c-4.574,0.447-8.969,3.142-13.178,4.809   c-4.381,1.736-8.595,3.668-12.786,5.83c-6.628,3.419-13.511,6.3-20.124,9.726c-11.921,6.175-24.18,11.101-36.539,16.241   c-11.571,4.812-22.874,10.189-34.449,14.928c-11.898,4.871-23.316,10.637-35.478,15.07c-6.582,2.399-12.786,6.116-19.434,8.129   C265.54,484.46,263.895,485.4,262.366,486.516z"/>
</g>
<path d="M400.161,74.288c-1.1,2.558-2.202,5.272-3.09,7.943c-0.097,0.219-0.202,0.44-0.295,0.658  c-4.405,10.292-4.285,24.922,1.52,34.67c6.112,10.263,16.053,16.76,27.615,19.185c11.039,2.315,25.683,4.166,35.769-2.158  c3.776-2.367,6.448-7.85,8.021-11.865c2.065-5.274,4.802-9.879,5.35-15.623c1.136-11.873,0.952-24.236-5.952-34.399  c-5.911-8.702-13.545-16.588-24.514-18.062c-11.337-1.524-22.921-1.191-32.608,5.806C407.325,63.804,402.443,68.981,400.161,74.288z   M420.02,65.26c5.086-2.486,10.049-3.822,15.798-3.296c2.752,0.252,5.987,0.674,8.829,0.306c4.833,1.464,9.243,4.089,13.178,7.819  c6.151,5.831,9.541,14.982,10.246,23.259c0.875,10.28-1.387,19.542-6.13,28.602c-1.891,3.611-3.648,6.657-7.683,8.051  c-5.378,1.858-12.702,1.72-18.222,0.902c-10.051-1.488-19.619-2.979-26.987-10.642c-8.554-8.895-9.148-19.431-7.186-31.051  c0.879-5.207,3.939-9.056,6.951-13.168C411.93,71.794,415.183,67.625,420.02,65.26z"/>
<path d="M423.652,41.536c0.32,2.108,1.405,4.576,3.361,5.644c0.711,0.388,1.676,0.47,2.379,0c2.476-1.657,1.765-4.064,1.994-6.612  c0.266-2.951-0.309-5.972-1.174-8.781c-1.651-5.368-10.287-2.883-8.358,2.304C422.793,36.611,423.251,38.898,423.652,41.536z"/>
<path d="M447.646,147.78c-1.149-2.851-4.697-2.872-5.845,0c-1.017,2.548-1.408,5.999-1.232,8.752  c0.106,1.671,0.484,3.155,0.474,4.852c-0.034,5.661,8.862,5.67,8.796,0c-0.006-0.58,0.018-1.167-0.005-1.747  c-0.061-1.579-0.579-2.621-0.941-4.097C448.265,152.971,448.671,150.321,447.646,147.78z"/>
<path d="M374.569,120.128c0.404-0.009,0.8-0.043,1.208-0.09c1.099-0.125,2.164-0.387,3.215-0.73c1.09-0.357,2.04-0.845,3.037-1.385  c1.081-0.585,2.288-0.832,3.303-1.553c1.652-1.172,2.579-3.921,0.705-5.467c-1.702-1.403-3.818-2.196-6.052-1.684  c-1.585,0.363-2.96,1.097-4.589,1.401c-0.756,0.141-2.375,0.079-3.499,0.351c-2.172,0.523-3.427,2.023-4.212,4.053  c-0.825,2.132,0.735,4.7,2.693,5.487C371.933,121.134,373.359,120.909,374.569,120.128z"/>
<path d="M485.243,95.757c1.352-0.111,2.717,0.169,4.121-0.19c1.564-0.4,3.073-0.943,4.692-1.133c1.647-0.192,3.196-0.011,4.808-0.56  c4.533-1.54,4.164-9.331-1.201-8.871c-0.174,0.015-0.347,0.03-0.521,0.044c-0.267,0.023-0.536,0.071-0.8,0.139  c-2.886,0.539-5.638,0.835-8.354,2.132c-0.081,0.039-0.827,0.428-1.101,0.614c-0.354,0.018-1.136,0.122-1.256,0.139  c-1.434,0.192-2.18,1.189-3.435,1.559c-2.453,0.723-3.108,4.317-0.733,5.607C482.816,95.97,483.778,95.876,485.243,95.757z"/>
<path d="M469.314,60.397c0.841-0.845,1.786-1.587,2.637-2.423c0.412-0.405,0.79-0.838,1.162-1.279  c0.478-0.568,0.202-0.254,0.674-0.641c2.413-1.988,5.57-4.367,4.374-7.989c-1.053-3.191-4.528-3.856-7.003-1.848  c-0.67,0.544-0.93,1.234-1.381,1.912c0.378-0.569-0.501,0.44-0.539,0.477c-0.889,0.845-1.723,1.667-2.423,2.692  c-1.419,2.076-2.938,4.2-3.104,6.777C463.522,60.976,467.394,62.324,469.314,60.397z"/>
<path d="M402.334,141.058c-1.945,2.409-4.5,4.898-5.507,7.839c-1.155,3.377,3.213,6.863,6.213,4.777  c2.465-1.713,3.805-4.48,5.4-6.966c1.241-1.935,2.769-3.817,3.601-5.965c0.749-1.932-1.145-3.863-2.97-3.9  C406.172,136.784,404.032,138.956,402.334,141.058z"/>
<path d="M379.881,64.829c2.361,1.089,4.759,2.094,7.094,3.242c2.27,1.116,4.413,2.147,6.926,1.193  c1.686-0.639,2.622-2.417,1.671-4.108c-2.005-3.568-5.646-5.94-9.327-7.737c-0.603-0.825-1.496-1.41-2.523-1.627  c-2.137-0.45-4.039,0.329-5.241,2.133l-0.295,0.441C376.868,60.345,377.658,63.804,379.881,64.829z"/>
<path d="M480.113,135.695c1.816,1.038,4.036,0.684,5.537-0.714c0.241-0.225,0.536-0.646,0.714-0.925  c0.99-1.548,0.797-4.319-0.714-5.537c-1.158-0.932-2.292-1.554-3.682-2.086c-0.363-0.139-0.74-0.241-1.1-0.385  c-0.284-0.092-0.29-0.101-0.019-0.028c-0.156-0.088-0.314-0.174-0.474-0.256c-1.049-0.588-1.263-0.56-2.153-0.959  c-0.597-0.266-0.742-0.344-1.104-0.511c-0.276-0.127-1.501-0.867-0.821-0.377c-1.367-0.985-3.799-0.015-4.082,1.66  C471.393,130.469,476.453,133.603,480.113,135.695z"/>
<path d="M448.039,48.461c2.731-3.524,3.44-6.371,4.703-10.681c1.317-4.485,3.958-8.568,4.999-13.122  c0.693-3.027-2.719-4.777-4.975-2.896c-1.771,1.477-2.074,3.437-2.885,5.507c-1.058,2.703-2.307,5.294-3.134,8.09  c-0.803,2.716-1.159,5.512-1.636,8.291c-0.298,1.737-0.749,2.904,0.349,4.48C445.993,48.891,447.339,49.365,448.039,48.461z"/>
<path d="M476.97,76.424c3.177,1.551,7.221-0.903,10.276-2.064c5.004-1.901,10.309-4.806,15.663-5.483  c4.475-0.566,4.78-7.438,0-7.239c-5.078,0.211-10.144,2.703-14.716,4.799c-3.935,1.805-8.392,3.768-11.647,6.691  C475.589,73.987,475.79,75.848,476.97,76.424z"/>
<path d="M464.081,143.595c-0.611-0.774-2.191-0.771-2.798,0c-2.163,2.747-0.37,7.092,0.216,10.236  c0.952,5.12,3.306,9.524,4.551,14.484c1.249,4.977,8.622,2.849,7.631-2.104c-0.889-4.436-3.759-8.424-4.967-12.843  C467.678,149.581,466.462,146.617,464.081,143.595z"/>
<path d="M424.916,145.395c-3.92,2.335-5.111,8.019-7.066,11.925c-0.94,1.878-1.741,3.855-2.777,5.68  c-0.954,1.679-2.187,2.795-2.714,4.697c-1.295,4.68,5.971,6.677,7.265,2.003c0.13-0.468,1.719-2.412,2.238-3.43  c1.066-2.089,1.956-4.288,2.948-6.415c1.844-3.961,4.393-8.643,3.508-13.076C428.022,145.303,426.126,144.673,424.916,145.395z"/>
<path d="M375.77,143.91c0.868-1.018,3.349-1.604,4.542-2.455c1.968-1.404,4.09-2.566,6.059-3.961  c3.317-2.351,6.575-4.003,9.542-6.831c0.771-0.734,0.841-2.224,0-2.946c-1.662-1.43-2.979-1.457-4.978-0.766  c-2.757,0.952-5.421,2.125-7.828,3.752c-2.424,1.638-5.012,3.578-7.568,4.958c-2.291,1.236-4.117,1.361-5.651,3.711  C367.596,142.886,372.991,147.171,375.77,143.91z"/>
<path d="M369.009,88.677c2.856,0.24,5.401,1.012,8.127,1.872c1.954,0.617,4.55,2.058,6.655,1.754  c0.505-0.073,2.578-1.153,1.309-0.443c0.735-0.412,1.135-0.404,1.838-1.063c1.053-0.991,0.177-2.612-1.082-2.673  c-1.889-2.309-4.174-3.616-7.109-4.966c-2.175-0.999-4.426-1.787-6.79-2.192c-1.905-0.327-4.07-0.019-5.667-1.205  c-3.756-2.789-7.849,3.104-4.846,6.28C363.538,88.259,366.125,88.435,369.009,88.677z"/>
<path d="M401.635,47.104c1.287,3.346,4.338,9.302,8.846,6.859c0.666-0.361,1.171-1.391,0.87-2.139  c-3.018-7.52-4.307-15.7-8.225-22.879c-1.651-3.026-5.844-1.995-6.874,0.898c-1.104,3.1,0.874,5.496,2.095,8.226  C399.653,40.993,400.488,44.119,401.635,47.104z"/>
<path d="M506.678,116.061c-1.216-0.348-2.301-0.85-3.493-1.336c-1.831-0.745-3.693-0.838-5.565-1.394  c-1.744-0.517-3.527-1.232-5.252-1.825c-1.584-0.542-4.109-1.205-5.557-2.021c-4.136-2.327-7.808,3.952-3.717,6.36  c3.113,1.834,7.037,2.645,10.421,3.978c1.559,0.614,3.002,0.971,4.625,1.36c2.254,0.54,4.265,1.675,6.498,2.284  C509.414,124.775,511.431,117.424,506.678,116.061z"/>
<path d="M492.104,467.3c-6.355-4.225-14.273-7.573-21.509-9.962c-8.781-2.9-18.35-3.402-26.783-7.48  c-0.39-0.189-2.668-1.125-2.738-1.681c0.029,0.222,0.347-0.134,0.965-0.632c1.592-1.283,4.193-1.728,6.153-2.176  c4.121-0.942,8.352-1.197,12.516-1.874c8.236-1.341,16.675-2.893,23.328-8.378c4.954-4.083,3.836-9.951-0.534-14.023  c-5.424-5.055-13.465-7.07-20.354-9.171c-4.229-1.29-8.581-1.588-12.81-3.002c-4.246-1.419-8.136-2.154-12.587-2.414  c-9.364-0.547-18.746-2.634-28.093-3.625c-9.583-1.017-19.349-1.408-28.979-1.418c-9.558-0.01-19.122,0.851-28.671,0.651  c-6.699-0.14-13.351,0.97-20.051,1.356c0.281-5.194,0.298-10.392,0.211-15.468c-0.169-9.875-0.304-19.62,0.609-29.464  c0.458-4.932,0.349-9.799,0.222-14.745c-0.127-4.967,0.889-9.837,0.762-14.853c-0.262-10.331,0.188-20.654,0.435-30.983  c0.124-5.187,0.14-10.366,0.115-15.552c-0.026-5.387,0.748-10.666,0.738-16.055c-0.04-20.071,0.478-40.34-1.873-60.28  c-0.513-4.359-0.115-8.707-0.436-13.074c-0.373-5.062-0.938-10.109-1.294-15.175c-0.703-10-0.375-20.05-1.254-30.031  c-0.825-9.372-1.67-19.162-3.8-28.343c-1.64-7.068-3.843-14.166-9.351-19.146c-2.589-2.341-4.199-5.234-7.414-6.811  c-4.259-2.09-9.474-3.316-14.098-4.252c-6.855-1.387-13.958-1.218-21.01-1.009c-0.149-7.437-0.803-14.788-0.729-22.245  c0.038-3.755-0.883-7.243-0.836-10.995c0.054-4.479,0.047-9.023-0.493-13.476c-1.664-13.728,0.716-37.133-17.558-40.752  c-8.26-1.636-16.69-0.184-24.964,0.164c-8.751,0.37-17.59,1.78-26.147,3.611c-7.826,1.676-13.476,4.806-17.156,12.065  c-3.704,7.307-4.497,15.677-4.685,23.757c-0.211,9.054,0.927,18.41,2.079,27.342c0.571,4.427,0.686,8.76,1.078,13.178  c0.241,2.698,1.024,5.345,1.691,8.007c-2.09,0.183-4.174,0.402-6.238,0.629c-0.301,0.006-0.602,0.013-0.902,0.019  c-0.585,0.013-1.109,0.112-1.598,0.256c-0.478,0.053-0.96,0.107-1.435,0.159c-11.255,1.216-19.944,6.423-26.775,13.926  c-2.811,2.138-5.357,4.624-7.507,7.591c-5.325,7.348-9.606,16.373-12.733,24.867c-3.124,8.491-5.596,17.368-7.195,26.307  c-1.806,10.104-1.729,20.233-1.811,30.456c-0.042,5.147,0.226,10.359-0.322,15.481c-0.554,5.184,0.004,9.952,0.228,15.135  c0.417,9.658,0.636,19.209,0.634,28.898c-0.001,10.883-0.03,21.765-0.015,32.647c0.013,9.514-0.894,18.945-0.719,28.487  c0.081,4.406,0.718,8.694,0.711,13.133c-0.006,5.313-0.037,10.629,0.125,15.939c0.312,10.261,0.609,20.495,0.706,30.762  c0.085,8.883-0.633,17.638-0.792,26.484c-8.528-0.478-17.11,0.359-25.624,0.856c-9.577,0.557-19.134,1.579-28.64,2.96  c-4.317,0.627-8.567,1.029-12.887,1.531c-4.836,0.563-9.425,2.394-14.237,3.128c-8.63,1.317-17.085,5.764-25.041,9.225  c-5.173,2.25-12.983,6.88-12.042,13.624c0.902,6.458,8.558,9.956,13.951,11.729c8.621,2.833,17.831,5.02,26.779,6.483  c9.865,1.613,19.93,1.704,29.736,3.721c3.711,0.763,7.583,1.616,11.098,3.061c1.807,0.743,5.491,2.027,4.741,3.874  c-0.777,1.918-5.967,2.88-7.811,3.375c-8.696,2.333-17.309,4.529-25.582,8.125c-7.323,3.182-39.545,12.953-28.58,25.93  c5.001,5.918,14.289,8.553,21.386,10.775c9.219,2.886,18.434,3.228,28.02,3.36c10.145,0.139,20.508,0.501,30.615-0.498  c9.72-0.961,19.385-2.147,29.099-3.17c18.68-1.968,37.34-3.311,55.966-5.913c20.523-2.867,40.926-5.731,61.551-7.626  c19.426-1.785,38.512-1.442,57.956-0.201c9.917,0.633,19.78,2.207,29.7,3.066c10.437,0.904,20.79,1.324,31.242,1.883  c10.349,0.554,20.769,0.875,31.124,0.194c9.858-0.648,20.016-1.3,29.896-1.143c9.642,0.153,19.085-0.716,28.677-1.596  c8.404-0.771,17.682-2.711,25.494-5.927c4.595-1.893,10.271-4.854,12.174-9.78C502.291,474.972,496.687,470.347,492.104,467.3z   M263.687,63.553c0.55,4.339-0.204,8.823,0.299,13.207c0.449,3.914,0.477,7.729,0.428,11.608c-4.326-0.146-8.673-0.788-12.95-0.709  c-4.416,0.082-8.939,0.58-13.378,0.768c-4.307,0.183-8.398,0.836-12.741,0.724c-5.227-0.135-10.468-0.034-15.697-0.034  c-1.512,0-3.025,0.013-4.536,0.021c-0.634-0.082-1.27-0.163-1.905-0.246c-3.426-0.449-6.926-0.517-10.44-0.39  c0.439-2.106,0.71-4.136,0.443-6.64c-0.399-3.736-0.048-7.446-0.507-11.207c-0.889-7.302-1.316-14.829-1.439-22.255  c3.462,0.985,7.548,0.933,10.982,0.613c-0.518,3.939-1.251,8.545,3.279,10.42c2.427,1.004,6.268,1.083,8.929,1.154  c4.092,0.108,7.946,0.47,12.012,0.81c3.908,0.325,7.945-0.612,11.844-0.738c2.881-0.093,6.128-0.458,8.963-1.018  c2.243-0.444,4.133-1.481,5.132-3.634c1.351-2.909-0.529-5.323-0.453-8.021c0.365,0.005,0.728,0.02,1.092,0.02  c3.287,0.008,6.459-0.721,9.716-0.845C262.856,52.666,263.005,58.173,263.687,63.553z M206.695,51.058  c-0.001-0.907,0.126-1.688,0.208-2.47c5.566-0.347,11.072-0.015,16.721-0.045c6.724-0.035,13.396-0.703,20.138-0.703  c0.798,0,1.594,0.026,2.393,0.042c0.01,0.348,0.042,0.718,0.091,1.129c0.149,1.244,0.6,2.246,0.245,3.533  c-0.578,2.086-0.952,1.345-3.06,1.529c-4.981,0.434-10.226,1.702-15.218,1.681c-2.455-0.01-4.814-0.758-7.27-0.858  c-3.084-0.125-6.049,0.201-9.119-0.25C208.821,54.205,206.7,55.162,206.695,51.058z M197.216,16.679  c3.273-3.235,9.674-4.19,14.022-4.783c4.857-0.661,9.654-1.681,14.551-2.031c4.765-0.341,9.645-0.897,14.414-0.99  c4.392-0.086,10.266-0.661,14.358,1.025c4.623,1.906,5.943,7.22,7.124,11.671c1.365,5.149,0.648,9.949,0.85,15.174  c0.054,1.425,0.091,2.858,0.121,4.292c-2.93,0.135-5.743,0.776-8.688,0.853c-3.39,0.088-6.809-0.158-10.204-0.153  c-6.409,0.01-12.746,0.657-19.134,0.728c-6.02,0.067-12.379-0.661-18.346,0.131c-3.552,0.472-6.922,0.603-10.469,0.912  c-0.587,0.05-2.793,0.713-4.596,1.172c0-0.15-0.006-0.304-0.006-0.454C191.206,36.012,190.793,23.029,197.216,16.679z   M132.988,169.736c1.878-17.382,7.922-34.695,16.865-49.69c9.128-15.305,29.615-18.022,45.849-17.859  c9.05,0.091,18.799,0.885,27.763-0.338c1.734-0.237,3.481-0.436,5.232-0.619c1.971-0.092,3.93-0.24,5.861-0.503  c0.309-0.042,0.622-0.069,0.932-0.108c3.2-0.247,6.404-0.453,9.595-0.657c4.681-0.098,9.374,0.064,13.975,0.296  c9.464,0.477,19.008-0.667,28.447-0.217c4.422,0.211,8.9,1.478,13.084,2.87c1.601,0.532,3.224,0.829,4.399,1.886  c1.305,1.174,2.292,2.721,3.634,3.92c5.26,4.702,6.447,13.6,7.332,20.278c1.179,8.907,2.496,17.783,2.776,26.784  c0.122,3.959,0.235,7.906,0.37,11.851c-2.215,0.638-4.989,0.455-7.178,1.025c-3.88,1.01-8.487,1.93-12.532,2.301  c-6.435,0.59-12.93,1.119-19.355,1.53c-8.409,0.539-16.68,2.32-25.094,2.859c-7.355,0.472-14.63,1.804-22.009,2.217  c-8.928,0.502-17.915-0.357-26.841-0.517c-8.675-0.155-17.257-0.226-25.9-0.594c-8.381-0.357-17.223-0.61-25.524-2.004  c-4.103-0.689-8.204-1.5-12.322-2.075c-1.879-0.262-3.706-0.344-5.57-0.739c-0.247-0.053-2.423-0.609-3.882-0.85  C132.926,170.436,132.95,170.085,132.988,169.736z M131.813,212.292c0.225-4.657,0.616-9.175,0.581-13.863  c-0.059-7.994-0.312-16.009,0.203-23.979c2.563,1.066,5.005,2.111,7.901,2.519c4.885,0.687,9.717,1.876,14.566,2.765  c7.887,1.447,16.279,1.476,24.23,2.095c9.581,0.747,19.159,0.6,28.783,0.965c9.341,0.354,18.897,1.428,28.221,0.421  c16.087-1.737,32.252-2.972,48.364-4.818c7.824-0.897,15.654-1.786,23.514-2.678c3.055-0.347,7.702-0.998,11.146-2.677  c0.159,3.578,0.349,7.157,0.638,10.741c1.391,17.347,2.641,34.83,3.112,52.21c0.521,19.288-0.443,38.54-0.79,57.795  c-0.342,18.999-1.187,37.987-1.152,56.918c0.013,6.503-0.647,12.968-0.995,19.461c-0.144,0.221-0.475,0.676-1.192,0.927  c-1.321,0.462-2.576,1.158-3.915,1.613c-2.618,0.89-5.296,1.564-7.969,2.264c-7.409,1.94-14.605,3.944-22.246,4.883  c-4.323,0.531-8.49,1.535-12.829,1.998c-3.952,0.421-7.792,0.542-11.762,0.838c-3.855,0.286-7.723,0.776-11.6,0.551  c-4.338-0.251-8.262-0.998-12.671-0.816c-9.459,0.389-18.533-1.425-27.933-2.125c-5.526-0.411-10.702-0.826-16.145-2.026  c-4.455-0.981-8.886-2.035-13.415-2.627c-4.547-0.595-8.967-0.753-13.408-2.027c-3.885-1.114-7.545-2.674-11.335-4.03  c-6.481-2.32-14.004-3.493-19.824-7.496c-0.206-8.847-0.554-17.701-0.583-26.575c-0.028-8.617-0.718-17.175-0.718-25.747  c0-9.251,0.692-18.406,0.701-27.654c0.019-18.787,0.763-37.756-0.55-56.482C132.431,221.272,131.602,216.655,131.813,212.292z   M134.002,368.304c2.963,1.908,6.507,3.224,9.503,4.5c3.081,1.313,6.36,1.85,9.455,3.165c3.674,1.562,7.336,2.988,11.171,4.122  c7.758,2.292,16.098,2.525,24.019,4.306c8.318,1.871,16.387,2.226,24.787,3.327c8.347,1.095,16.3,1.823,24.711,1.517  c3.535-0.129,6.734,0.65,10.203,0.889c4.142,0.286,8.247-0.166,12.367-0.479c6.855-0.52,13.626-0.371,20.409-1.84  c7.99-1.732,16.395-2.119,24.168-4.767c2.828-0.962,9.818-2.096,15.145-4.343c0.14,8.697,1.082,17.751,0.296,26.397  c-0.753,8.284-2.973,18.023-6.566,25.533c-1.556,3.253-4.208,7.37-6.555,10.051c-2.296,2.624-5.895,3.694-9.056,4.876  c-8.162,3.054-15.812,5.463-24.553,6.047c-8.757,0.585-17.435,2.233-26.233,2.258c-8.803,0.026-17.676,0.354-26.47-0.042  c-9.248-0.416-18.44-1.507-27.7-1.361c-8.506,0.134-17.582-1.625-25.967-3.147c-7.906-1.435-15.756-4.02-22.4-8.663  c-6.324-4.421-10.479-12.145-11.15-19.76c-0.782-8.859-1.082-18.806-0.313-27.676C133.995,384.908,134.109,376.607,134.002,368.304z   M69.052,445.785c-8.91-1.298-17.957-1.53-26.809-3.226c-7.943-1.522-16.128-3.37-23.814-5.927  c-2.497-0.831-9.829-3.344-8.783-7.082c1.008-3.6,7.573-5.62,10.426-6.833c4.34-1.844,8.616-3.756,13.043-5.369  c4.329-1.578,8.432-2.326,12.872-3.453c8.469-2.151,17.198-3.283,25.886-4.425c8.883-1.168,17.653-2.437,26.577-3.242  c7.575-0.682,15.116-1.936,22.675-2.637c-0.023,9.578-1.063,20.266,2.91,29.206c2.738,6.163,6.189,11.419,11.113,15.695  c-2.313,0.758-4.587,1.712-6.709,2.41c-5.842,1.923-11.822,3.696-17.72,5.421c-4.382,1.281-8.928,2.41-13.326,3.807  c-0.328-3.176-3.44-6.106-6.264-7.85C84.681,448.294,76.431,446.86,69.052,445.785z M101.055,503.181  c-1.541,0.537-3.09,1.063-4.621,1.62c-11.463,0.623-23.003,0.766-34.269-0.307c-8.783-0.836-19.524-3.759-26.967-8.55  c-2.098-1.35-4.179-2.83-2.106-5.651c0.978-1.331,3.08-2.234,4.456-3.057c4.518-2.706,9.052-5.063,13.993-6.892  c7.641-2.828,15.007-5.87,22.849-8.171c4.059-1.191,8.253-1.936,12.263-3.291c1.036-0.349,2.254-0.708,3.485-1.135  c0.972-0.293,1.896-0.619,2.668-0.82c5.866-1.516,11.686-3.148,17.524-4.712c10.202-2.735,21.651-4.888,31.513-9.023  c6.492,3.771,13.851,6.318,21.138,7.698c4.523,0.858,9.1,1.37,13.661,1.98c4.498,0.602,8.926,1.772,13.48,1.82  c7.526,0.078,14.971,0.448,22.453,0.848c-3.432,1.081-6.869,2.154-10.321,3.196c-7.206,2.176-14.201,4.91-21.194,7.669  c-6.671,2.328-13.308,4.744-19.878,7.171c-1.129,0.417-2.275,0.807-3.411,1.212c-9.724,2.857-19.66,5.033-29.379,7.997  c-6.865,2.094-13.846,4.277-20.361,7.326C105.737,501.181,103.364,502.126,101.055,503.181z M255.059,487.043  c-28.129,2.35-56.009,7.419-84.047,10.593c-8.986,1.017-17.952,1.567-26.938,2.461c-8.955,0.89-17.882,2.447-26.84,3.195  c-0.371,0.032-0.747,0.061-1.119,0.091c4.637-1.553,9.312-2.991,14.008-4.305c13.573-3.802,27.369-6.551,40.611-11.383  c11.932-4.354,23.573-9.402,35.767-12.969c7.06-2.066,13.907-4.571,20.887-6.858c1.926-0.631,4.215-1.115,6.522-1.695  c14.471-0.17,28.821-1.54,43.268-2.755c9.003-0.757,17.09-3.538,25.493-6.701c3.301-1.244,6.669-2.508,9.568-4.555  c3.863-2.729,5.95-6.542,8.579-10.354c6.271-9.087,9.18-19.608,10.465-30.418c6.373-0.313,12.67-1.389,19.032-1.445  c8.557-0.074,17.114-0.595,25.673-0.619c15.746-0.044,31.552,0.807,47.168,3.012c-2.838,1.13-5.633,2.311-8.431,3.616  c-7.475,3.486-14.939,6.816-22.439,10.229c-15.74,7.162-32.059,12.971-47.588,20.494c-7.785,3.771-16.054,6.69-24.022,10.082  c-8.268,3.52-16.338,7.308-24.618,10.828c-7.091,3.015-13.97,6.65-21.079,9.747c-3.848,1.678-7.786,3.109-11.614,4.841  C260.374,483.529,257.837,485.415,255.059,487.043z M333.051,489.214c-9.167-0.435-18.188-2.291-27.419-2.651  c-8.765-0.343-17.546-0.901-26.316-0.777c-3.247,0.045-6.487,0.161-9.725,0.308c9.86-3.815,19.393-8.726,29.032-12.655  c8.171-3.331,16.048-7.176,24.168-10.591c7.77-3.268,15.802-6.121,23.418-9.708c0.597-0.281,1.198-0.551,1.796-0.83  c7.309-2.727,14.395-6.077,21.779-8.672c5.068-1.781,9.576-4.375,14.211-6.819c3.066-1.275,6.134-2.555,9.199-3.852  c7.476-3.165,14.808-6.627,22.169-10.033c4.758-2.201,9.517-4.121,14.4-6.013c1.934-0.749,5.076-1.361,6.621-2.854  c1.461,0.127,2.925,0.254,4.411,0.416c4.691,0.512,8.916,2.824,13.548,3.64c7.221,1.273,15.552,3.028,21.827,7.075  c1.387,0.894,3.679,2.215,2.675,4.213c-0.496,0.988-3.665,2.233-4.657,2.741c-4.022,2.062-8.646,2.5-13.033,3.467  c-7.183,1.584-14.725,1.293-21.493,4.553c-4.644,2.238-8.677,7.021-5.333,11.884c-2.94,1.536-6.115,2.886-9.001,4.063  c-3.693,1.506-7.115,3.384-10.758,4.963c-4.199,1.82-8.465,3.59-12.694,5.411c-2.824,1.029-5.647,2.058-8.419,3.186  c-8.992,3.654-17.783,8.201-26.635,12.265c-4.451,2.045-10.939,4.328-14.395,8.405C345.973,489.937,339.519,489.52,333.051,489.214z   M491.177,480.083c-5.151,4.46-13.047,5.607-19.412,6.944c-8.605,1.806-17.419,2.712-26.198,3.346  c-9.193,0.663-18.593,0.459-27.817,0.803c-9.095,0.339-18.237,0.761-27.347,0.771c-9.57,0.01-19.099-0.453-28.623-1.023  c0.605-0.285,1.212-0.573,1.831-0.855c3.068-1.399,6.168-2.719,9.281-4.012c8.655-3.595,17.097-7.689,25.704-11.322  c7.072-2.986,14.426-5.258,21.267-8.718c6.578-3.326,13.883-5.556,20.253-9.29c4.455,2.307,9.961,3.524,14.191,4.609  c8.413,2.157,16.108,3.9,24.113,7.442c3.133,1.386,6.312,2.779,9.203,4.634C490.236,475.088,494.395,477.296,491.177,480.083z"/>
<path d="M224.914,30.105c0.149-0.014,0.296-0.028,0.444-0.042c1.266-0.12,2.376-0.441,3.303-1.369c0.811-0.81,1.42-2.14,1.369-3.303  c-0.054-1.208-0.45-2.462-1.369-3.303c-0.961-0.882-2.005-1.245-3.303-1.369c-0.148-0.014-0.296-0.028-0.444-0.042  c-1.135-0.107-2.555,0.603-3.334,1.381c-0.817,0.817-1.433,2.159-1.38,3.334c0.054,1.218,0.455,2.484,1.38,3.334  C222.451,29.523,223.686,30.221,224.914,30.105z"/>
<path d="M176.523,319.635c10.026,15.838,27.521,24.631,45.141,28.937c9.209,2.25,18.521,2.925,27.992,2.654  c9.435-0.27,17.979-4.318,25.302-10.099c6.927-5.469,11.887-13.878,15.407-21.871c3.94-8.948,7.675-17.12,9.259-26.801  c2.999-18.323-1.056-39.737-10.662-55.595c-9.356-15.449-25.047-28.541-43.188-31.645c-9.538-1.632-20.843-2.381-29.995,1.348  c-0.89,0.363-1.778,0.718-2.664,1.072c-1.725,0.409-3.441,0.938-5.141,1.625c-1.438,0.58-2.78,1.345-4.087,2.171  c-5.506,2.436-10.757,5.277-15.49,9.496c-4.261,3.798-7.429,8.916-11.008,13.33c-3.32,4.096-5.754,8.056-7.838,12.903  c-4.072,9.47-5.156,18.775-5.224,28.931c-0.003,0.283,0.042,0.529,0.103,0.758C163.949,291.853,168.504,306.966,176.523,319.635z   M175.724,251.449c1.363-4.179,3.196-7.888,5.361-11.666c2.098-2.294,4.312-4.489,6.221-6.993  c5.465-7.172,12.718-13.109,21.532-15.687c7.669-2.243,14.284-5.564,22.503-5.477c17.711,0.188,33.388,6.594,44.822,20.38  c11.47,13.83,16.847,30.249,17.014,48.245c0.149,16.165-5.453,32.048-14.387,45.512c-5.194,7.828-11.038,13.673-20.085,17.067  c-7.473,2.804-17.039,2.439-24.853,1.324c-16.378-2.337-33.969-7.191-45.53-19.912c-11.052-12.162-18.743-28.969-18.366-45.688  C170.174,268.948,172.766,260.509,175.724,251.449z"/>
<path d="M233.688,301.231c-0.144-2.69-2.634-4.121-4.784-3.532c-4.79-0.632-10.036,0.294-14.841-0.465  c-1.034-0.164-2.048-0.409-3.06-0.672c3.182-1.66,6.114-3.747,8.496-6.899c5.793-6.444,8.492-16.081,4.257-23.684  c-1.218-2.187-2.972-3.812-5-4.932c-2.176-1.546-4.828-2.26-7.984-1.857c-1.852,0.048-3.701,0.381-5.43,1.003  c-5.339,1.921-10.118,8.356-8.074,14.138c0.415,1.174,1.984,2.055,3.114,1.395c0.67,0.083,1.355-0.159,1.69-0.868  c2.08-4.401,4.91-9.071,10.545-8.636c3.03,0.233,4.175,3.103,4.999,5.633c1.102,3.389,0.199,5.463-1.461,8.567  c-2.303,4.305-4.321,7.1-8.69,9.514c-4.463,2.465-9.209,3.629-13.772,5.835c-3.48,1.681-1.763,7.348,1.953,7.208  c3.104-0.116,6.28-0.419,9.36,0.125c3.103,0.547,6.022,1.771,9.166,2.148c5.214,0.626,10.416,0.45,15.608,0.542  c2.048,0.037,4.056-1.838,3.944-3.944C233.71,301.643,233.699,301.438,233.688,301.231z"/>
<path d="M248.583,305.326c2.269,0.708,4.72,1.029,6.863,0.966c2.119-0.062,3.667-0.604,4.957-1.546  c4.131-1.068,7.814-3.253,10.425-7.307c1.848-2.869,2.6-6.156,2.978-9.503c0.252-2.226,0.907-5.352,0.608-8.199  c-0.745-7.089-4.481-13.004-10.34-17.066c-5.079-3.522-13.002-3.691-18.308-0.499c-4.891,2.941-6.814,8.596-7.992,14.08  c-0.97,2.617-1.376,5.324-1.369,8.056c-0.452,5.197,0.481,10.146,3.336,14.293C241.648,302.182,244.493,304.552,248.583,305.326z   M245.137,276.6c1.273-3.007,3.293-5.663,6.179-7.519c8.134-5.228,15.533,3.937,15.958,12.073c0.095,1.821-0.523,2.829-0.749,4.552  c-0.349,2.673-0.013,5.055-1.536,7.543c-1.77,2.888-5.969,5.048-10.073,5.551c-3.585,0.115-6.922-1.194-9.335-4.715  c-0.906-1.322-1.461-2.771-1.766-4.29c-0.034-0.192-0.068-0.385-0.098-0.579c-0.026-0.17-0.054-0.341-0.076-0.512  c-0.019-0.136-0.032-0.275-0.048-0.411C243.149,284.413,243.593,280.249,245.137,276.6z"/>
<path d="M270.606,237.558c-4.536-2.972-11.752-2.021-13.613,2.717c-1.051,1.187-1.872,2.61-2.178,4.17  c-0.515,2.625-0.097,4.813,1.669,6.425c0.14,0.336,0.3,0.663,0.487,0.983c3.407,5.81,11.441,7.077,16.026,1.995  C277.281,249.099,275.869,241.006,270.606,237.558z M269.51,249.031c-0.233,0.518-0.525,1.015-0.925,1.452  c-2.368,2.583-6.903,1.457-7.901-2.06c-0.098-0.346-0.135-0.67-0.144-0.984c0.4-1.602,1.631-2.92,3.068-3.649  c2.486-1.263,5.557-0.767,5.861,3.045C269.517,247.433,269.561,248.227,269.51,249.031z"/>
<g>
</g>
<g>
</g>
<g>
</g>
<g>
</g>
<g>
</g>
<g>
</g>
<g>
</g>
<g>
</g>
<g>
</g>
<g>
</g>
<g>
</g>
<g>
</g>
<g>
</g>
<g>
</g>
<g>
</g>
</svg>
