<?xml version="1.0" encoding="iso-8859-1"?>
<!-- Generator: Adobe Illustrator 19.0.0, SVG Export Plug-In . SVG Version: 6.00 Build 0)  -->
<svg version="1.1" id="Capa_1" xmlns="http://www.w3.org/2000/svg" xmlns:xlink="http://www.w3.org/1999/xlink" x="0px" y="0px"
	 viewBox="0 0 511.998 511.998" style="enable-background:new 0 0 511.998 511.998;" xml:space="preserve">
<path style="fill:#FDC4B9;" d="M249.183,134.548c-12.074,3.202-23.684,15.271-27.629,26.802
	c-4.429,12.944-1.428,29.932,0.725,43.164c0.859,5.28,2.24,19.69,8.624,21.423c2.293,0.623,4.547-0.398,6.95,0.647
	c3.84,1.669,3.802,4.867,5.806,8.377c6.975,12.22,21.75,22.056,36.355,19.814c6.102-0.936,14.52-3.856,17.131-9.95
	c2.652-6.19,4.288-14.494,4.896-21.201c0.644-7.108,2.593-9.315,7.144-14.526c8.365-9.578-2.556-19.477-6.065-28.758
	c-3.552-9.393,2.789-18.268,0.51-27.448c-1.835-7.395-9.242-14.363-15.918-17.243c-6.496-2.803-13.896-3.256-20.78-4.699
	C259.281,129.347,252.461,129.016,249.183,134.548z"/>
<path style="fill:#FBB0A6;" d="M253.482,132.648c-8.607,5.208-13.108,18.42-15.249,27.621c-3.896,16.741-1.933,38.708,14.855,48.101
	c4.18,2.339,29.368,10.039,19.657,18.642c-6.879,6.094-21.118,2.894-28.862,1.092c-5.247-1.221-14.158-1.825-17.191-6.658
	c-4.011-6.391-4.489-18.819-5.469-26.061C217.897,170.794,227.922,136.707,253.482,132.648z"/>
<path style="fill:#F13636;" d="M224.863,226.193c3.248,9.295-0.898,26.98-12.193,28.656c-5.99,0.889-6.227,1.406-9.465,7.016
	c-4.13,7.157-8.052,14.014-11.003,21.764c-4.478,11.759-4.725,25.22-1.746,37.519c1.437,5.934,4.25,12.47,8.126,17.234
	c4.261,5.235,7.887,5.508,5.768,12.967c-1.698,5.978-5.465,11.475-8.035,17.068c-3.111,6.77-5.627,13.86-7.876,20.954
	c-4.931,15.558-10.578,31.083-13.083,47.289c-2.935,18.993-3.936,53.98,17.762,62.823c9.686,3.947,16.175,0.499,25.502-2.39
	c7.476-2.316,8.247,0.706,13.495,5.694c6.066,5.766,10.934,2.897,18.069,0.286c4.23-1.547,7.313-3.364,11.161-5.716
	c2.275-1.391,4.462-2.88,7.191-2.141c4.619,1.251,8.143,8.063,13.021,9.93c10.185,3.898,15.148-4.777,22.611-9.331
	c3.549-2.166,7.413-2.921,11.232-1.527c7.838,2.86,11.204,7.014,19.773,1.943c5.609-3.32,9.762-9.062,15.443-12.297
	c7.188-4.092,13.244-1.209,20.638-1.885c22.671-2.072,16.904-33.915,14.236-47.897c-2.325-12.184-6.184-24.062-9.846-35.902
	c-3.995-12.915-7.322-26.525-13.884-38.378c-4.826-8.716-10.967-16.098-16.466-24.335c-4.906-7.348-4.604-13.203-2.431-21.451
	c4.451-16.887,5.462-31.326-1.073-47.86c-5.203-13.162-12.993-27.723-22.219-38.418c-2.959-3.43-4.962-8.311-8.101-11.436
	c-6.069-6.041-8.383,4.458-10.372,9.142c-3.15,7.419-5.566,16.419-9.989,23.109c-3.377,5.109-9.031,5.092-14.585,5.43
	c-11.09,0.675-25.114-1.59-31.613-11.927c-2.48-3.944-2.492-9.924-5.51-12.95C236.335,226.101,229.43,224.519,224.863,226.193z"/>
<g>
	<path style="fill:#E81D1D;" d="M311.146,219.786c0.32,13.715-2.188,28.932-11.418,39.598c-8.417,9.727-21.588,12.564-32.377,18.741
		c-14.833,8.492-27.137,24.684-29.269,41.884c-1.359,10.961-1.824,22.142-4.03,32.999c-3.472,17.082-13.2,32.217-18.53,48.701
		c-4.572,14.141-4.507,31.729,2.349,45.213c6.73,13.236,18.328,15.768,30.157,22.34c7.336,4.075,12.971,10.942,13.589,19.524
		c0.34,4.722-1.849,14.297-6.82,16.711c-2.825,1.372-10.879-0.527-14.218-1.162c-6.381-1.214-11.36-6.105-17.688-7.523
		c-6.11-1.37-9.974,1.842-15.424,3.99c-6.89,2.716-13.642,1.334-18.928-3.786c-5.011-4.853-10.877-10.559-12.808-17.362
		c-3.184-11.212-2.429-23.821-0.454-35.136c3.842-22.013,9.381-44.133,16.852-65.201c3.388-9.555,9.735-20.561,9.152-31.097
		c-0.251-4.549-2.105-5.212-4.943-8.564c-3.322-3.923-6.418-9.518-8.27-14.287c-5.177-13.335,1.235-33.192,6.212-45.797
		c2.121-5.372,5.38-10.494,8.06-15.613c1.237-2.364,3.235-7.393,5.416-9.071c5.336-4.105,12.311-0.054,15.386-8.999
		c1.536-4.469-1.394-22.118,6.273-22.674c3.574-0.259,11.615,8.641,13.381,11.3c4.322,6.507,6.428,12.885,14.356,16.093
		c6.471,2.619,14.072,2.653,20.917,2.932c10.173,0.414,14.621-6.46,19.504-14.414c4.355-7.094,6.383-20.143,14.664-23.448
		C312.935,215.716,313.142,216.089,311.146,219.786z"/>
	<path style="fill:#E81D1D;" d="M266.296,497.004c1.647-2.191,1.707-6.546,2.051-9.435c1.535-12.879,0.587-25.924,0.522-38.845
		c-0.027-5.469-5.66-67.842,7.668-61.223c3.591,1.783,5.12,8.143,6.202,11.463c2.403,7.38,4.304,14.832,5.998,22.401
		c3.29,14.7,8.114,29.537,9.335,44.6c0.811,10,0.848,25.706-7.587,32.845C282.386,505.665,272.652,506.014,266.296,497.004z"/>
	<path style="fill:#E81D1D;" d="M319.689,490.169c-2.058-17.405-5.397-35.527-8.716-52.763c-0.909-4.721-15.93-56.769-2.162-50.398
		c8.372,3.874,12.868,17.562,15.777,25.181c4.656,12.193,7.979,24.698,10.181,37.544
		C336.214,458.161,340.939,505.374,319.689,490.169z"/>
	<path style="fill:#E81D1D;" d="M360.268,480.772c-1.52-1.974-2.351-4.159-3.254-6.512c-4.1-10.686-7.993-21.682-11.51-32.564
		c-3.728-11.535-8.741-23.146-9.831-35.297c-0.424-4.722-3.207-21.438,6.098-17.49c2.925,1.241,7.101,7.541,9.112,9.717
		c4.92,5.323,9.47,10.598,13.231,16.82c6.72,11.117,10.242,23.577,11.916,36.395c0.939,7.193,2.417,18.224-3.504,24.084
		C368.908,479.504,361.319,480.786,360.268,480.772z"/>
	<path style="fill:#E81D1D;" d="M309.438,328.708c2.649,1.41,4.968-0.759,7.258-2.303c8.633-5.823,15.661-13.687,19.641-23.329
		c1.073-2.599,2.536-13.289,7.539-11.159c3.775,1.607,1.413,10.902,0.645,13.43c-2.614,8.608-8.352,21.229-15.84,26.631
		c-3.522,2.54-7.428,3.366-11.683,3.592C310.311,335.924,307.613,335.163,309.438,328.708z"/>
</g>
<g>
	<path style="fill:#FFC94E;" d="M228.342,149.555c-2.687,2.678-4.838,5.725-5.979,9.307c-3.085,9.688-4.085,21.564-4.171,31.775
		c-0.066,7.868-0.478,15.866,0.9,23.647c1.199,6.769,3.93,12.994,4.115,19.973c0.306,11.539-8.269,25.827-21.669,23.073
		c-16.864-3.466-9.584-24.844-9.681-36.046c-0.046-5.258-2.884-11.441-4.881-16.307c-3.607-8.791-5.391-16.126-3.407-25.837
		c4.521-22.131,18.295-44.571,37.446-56.706c9.049-5.733,17.914-9.948,28.726-9.388c9.054,0.469,18.094,0.686,27.065,2.409
		c17.981,3.452,35.528,11.544,47.155,26.103c16.137,20.207,20.73,44.678,15.778,69.845c-1.544,7.848-11.04,27.022-20.8,14.99
		c-3.539-4.363-2.472-10.379-2.903-15.588c-0.465-5.614-1.214-10.822-4.037-15.788c-4.891-8.602-7.914-13.875-6.525-24.199
		c1.479-10.996-0.378-17.1-7.699-25.758c-13.058-15.443-33.447-19.428-50.372-8.642
		C241.478,140.197,233.802,144.115,228.342,149.555z"/>
	<path style="fill:#FFC94E;" d="M229.009,95.321c-7.055,0-14.301,0.512-21.311-0.296c-11.379-1.311-13.903-8.05-3.992-15.245
		c11.417-8.288,26.54-9.1,40.041-10.553c13.186-1.42,26.373-1.547,39.61-2.307c5.704-0.328,17.786-3.295,19.898,4.365
		c1.27,4.605-1.672,8.286-5.185,10.594c-9.246,6.075-21.783,6.633-32.361,8.306C253.074,92.183,240.161,92.601,229.009,95.321z"/>
</g>
<g>
	<path style="fill:#FAB732;" d="M213.261,251.9c-0.745-10.59-5.292-21.519-8.321-31.667c-6.026-20.185-9.649-44.987,4.717-62.618
		c3.924-4.816,35.596-30.494,25.692-37.883c-9.8-7.311-31.097,17.736-36.067,23.791c-9.269,11.293-15.305,21.59-15.767,36.178
		c-0.335,10.569,0.54,21.682,5.802,31.062c4.94,8.803,6.585,13.138,5.6,23.354C194.242,241.104,199.095,264.161,213.261,251.9z"/>
	<path style="fill:#FAB732;" d="M208.312,96.221c-2.955-0.015-6.334,0.649-8.87-0.95c-4.97-3.135-4.848-8.418,0.582-9.319
		c12.702-2.107,26.507-1.072,39.447-3.209c16.087-2.657,32.039-7.982,48.465-8.551c3.829-0.133,11.759,1.269,8.699,6.68
		c-3.142,5.556-19.866,6.082-25.289,6.97c-9.195,1.506-11.463,3.042-10.053,11.865c0.665,4.16,1.803,8.411-2.029,11.227
		c-2.881,2.116-8.701,1.971-12.071,2.494c-4.851,0.753-4.948,1.64-6.056-2.575c-1.275-4.85,2.042-13.266-3.77-15.745
		c-3.354-1.43-9.129,1.204-12.602,1.646C219.263,97.452,213.752,97.368,208.312,96.221z"/>
	<path style="fill:#FAB732;" d="M314.048,222.654c0.002-10.142,0.968-22.231-3.559-31.649c-2.633-5.477-6.416-7.811-7.731-14.334
		c-1.767-8.763-0.582-17.343,0.582-26.063c4.735,3.508,6.54,10.109,9.618,15.043c5.368,8.606,12.395,15.058,14.607,25.517
		c1.752,8.281,1.037,18.616-2.327,26.343C322.399,224.034,321.743,226.532,314.048,222.654z"/>
</g>
<path style="fill:#FDC4B9;" d="M238.209,319.352c0.041,4.866-0.499,9.433-1.878,14.152c-1.216,4.164-5.3,9.701-2.833,13.661
	c3.43,5.505,11.701,12.507,17.902,14.651c8.293,2.867,18.958,3.718,26.941-0.614c1.968-1.068,3.556-3.647,5.568-4.448
	c2.947-1.173,6.76-0.136,9.974-1.459c6.005-2.473,19.434-10.557,15.698-18.096c-1.649-3.327-4.818-5.7-6.519-9.066
	c-1.57-3.108-1.454-7.106-3.489-9.931c-1.786-2.479-5.522-4.7-7.931-6.679c-2.526-2.075-5.104-4.664-8.03-1.767
	c-2.397,2.374-2.663,7.912-2.649,11.023c0.021,4.439-0.411,6.624-4.165,9.754c-3.567,2.974-8.163,4.618-12.702,2.948
	c-7.307-2.689-3.235-8.07-2.996-13.592c0.177-4.076-2.273-5.815-6.391-4.718c-2.474,0.659-5.478,2.666-7.881,3.722
	C244.609,319.871,242.834,319.976,238.209,319.352z"/>
<path style="fill:#FBB0A6;" d="M278.212,357.45c-12.415,7.091-33.746,4.683-42.33-7.782c-3.65-5.3-1.838-15.541,5.712-10.575
	c4.756,3.128,7.389,6.118,13.251,7.485c4.216,0.983,8.904,2.152,13.283,1.687c10.306-1.095,16.783-9.307,24.953-14.489
	c6.171-3.914,17.347-6.236,16.021,4.948c-1.029,8.68-12.63,13.216-19.867,14.922C283.731,354.944,281.61,356.352,278.212,357.45z"/>
<g>
	<path style="fill:#F8F8F9;" d="M193.768,231.134c-2.397-2.141-6.953-2.94-9.856-4.52c-6.677-3.633-13.991-5.818-20.565-9.655
		c-7.754-4.525-15.093-8.743-23.282-12.509c-9.293-4.273-18.15-7.215-28.033-9.896c-7.738-2.099-16.385-4.701-24.42-2.834
		c-5.865,1.363-12.758,4.218-10.701,11.131c1.802,6.057,7.128,9.339,12.174,12.542c3.3,2.094,8.581,3.001,11.03,6.152
		c-5.39,6.183-18.051,12.12-12.33,22.61c4.638,8.502,21.105,11.666,29.456,14.148c1.711,0.509,7.232,1.15,7.87,3.484
		c0.601,2.2-5.136,7.466-6.164,9.507c-5.28,10.484,7.152,17.691,16.115,18.494c2.419,0.216,8.029-1.633,10.008-0.442
		c2.753,1.656-0.268,7.249-0.474,9.724c-1.06,12.707,10.021,18.536,20.747,21.2c4.703,1.168,19.228,4.872,22.376-0.842
		c1.905-3.457,0.605-10.151,0.614-13.908c0.014-6.018,0.334-11.752,2.207-17.502c1.861-5.715,4.592-11.507,7.628-16.691
		c1.783-3.045,4.606-6.603,4.529-10.267c-0.085-4.09-3.473-5.738-5.623-8.616C192.759,246.674,194.521,239.079,193.768,231.134z"/>
	<path style="fill:#F8F8F9;" d="M341.959,211.652c3.85-2.315,7.048-6.323,10.498-9.25c9.769-8.288,19.501-16.531,29.982-23.924
		c13.991-9.87,28.631-19.268,46.249-14.45c11.829,3.235,10.379,13.676,4.51,21.876c-4.87,6.804-12.017,11.469-18.575,16.476
		c-4.433,3.384-10.273,6.452-14.063,10.338c4.954-0.965,10.239-3.303,15.017-0.331c4.188,2.605,5.301,7.929,4.309,12.528
		c-2.792,12.937-19.092,18.611-28.21,25.698c4.286,4.06,11.437,5.903,9.85,13.457c-1.803,8.58-10.372,15.678-17.021,20.406
		c2.692,3.486,2.475,10.192,1.526,14.232c-2.331,9.922-16.588,16.484-25.071,20.034c-3.658,1.531-20.283,5.406-20.485-1.131
		c-0.101-3.259,3.598-8.849,4.388-12.208c1.427-6.065,2.727-13.744,1.096-19.895c-1.279-4.823-2.97-9.285-4.03-14.288
		c-2.391-11.284-6.703-22.547-15.552-30.359c-6.587-5.815-1.11-11.385,4.934-15.222c2.273-1.443,4.294-2.296,5.974-4.517
		C338.844,219.058,339.9,212.891,341.959,211.652z"/>
</g>
<g>
	<path style="fill:#EEF0F1;" d="M190.368,231.521c-5.714-4.214-12.531-11.234-20.224-11.407c-9.045-0.202-10.277,7.369-8.144,14.713
		c2.325,8.006,8.52,10.604,12.643,16.916c-1.273,2.367-4.059,2.97-5.718,4.985c-2.423,2.944-1.599,5.985-2.856,9.306
		c-1.176,3.106,0.214,2.228-2.86,3.586c-4.499,1.987-10.655-2.103-13.842-4.734c-8.353-6.895-13.295-15.335-25.061-14.878
		c-4.909,0.19-9.783,1.018-13.988-2.215c-3.864-2.971-4.612-7.876-7.403-11.598c-3.913-5.217-11.097-4.778-13.602,2.161
		c-1.969,5.457,4.339,8.774,7.892,12.204c5.283,5.1,10.655,8.48,17.679,10.786c5.014,1.646,10.561,2.789,14.149,6.993
		c-3.995,6.033-9.22,11.46-1.871,17.921c5.3,4.66,16.59,1.361,19.437,7.438c1.537,3.282,0.268,7.636,1.723,11.235
		c1.905,4.712,5.274,8.57,9.823,10.801c6.793,3.332,14.801,5.696,22.404,5.886c9.848,0.246,7.314-5.95,7.128-13.412
		c-0.277-11.125,3.508-24.934,8.307-34.913c1.892-3.935,8.969-12.826,7.78-17.232c-0.798-2.955-6.18-6.846-7.649-9.92
		C193.373,240.409,193.855,234.22,190.368,231.521z"/>
	<path style="fill:#EEF0F1;" d="M326.24,232.398c9.152-4.05,13.029-16.35,20.751-22.102c6.143-4.576,11.802-9.568,17.708-14.543
		c6.477-5.456,15.448-15.043,24.059-16.549c-4.869,5.436-9.99,10.417-14.322,16.386c-4.608,6.35-17.812,20.772-11.115,29.547
		c3.363,4.406,10.483,2.943,13.498,7.933c3.598,5.954-3.306,14.632-6.109,19.503c-3.025,5.257-3.59,7.809-0.213,12.766
		c2.155,3.162,3.145,3.97,2.812,8.168c-0.273,3.442-2.852,6.941,0.974,8.408c2.948,1.13,7.781-2.526,10.853-2.526
		c1.057,3.769-2.99,6.444-5.867,7.993c1.233,2.541,4.087,4.691,5.125,7.438c2.794,7.397-3.558,13.589-9.241,17.253
		c-5.496,3.544-24.215,12.237-30.85,5.782c4.771-13.988,5.122-28.061-0.119-41.958c-2.963-7.855-6.54-15.87-10.383-23.334
		C331.587,248.259,321.912,236.747,326.24,232.398z"/>
</g>
<path d="M249.672,181.551c-1.713-6.806-12.244-5.05-13.382,1.206c-0.533,2.933,0.712,6.198,3.344,7.728
	c5.484,3.188,12.44-2.161,10.328-8.262C249.882,181.99,249.774,181.772,249.672,181.551z"/>
<path d="M282.071,173.009c-2.619,1.428-4.005,4.496-3.45,7.411c0.47,2.469,2.375,4.248,4.693,4.729
	c2.618,0.934,5.668,0.303,7.146-2.248c1.409-2.434,1.088-5.519-0.516-7.777C288.167,172.626,284.876,171.479,282.071,173.009z"/>
<path d="M274.897,194.536c-0.551,3.39,0.172,8.896-4.189,9.981c-3.573,0.888-8.971-1.682-9.722-5.372
	c-0.564-2.767-5.252-2.193-4.987,0.675c0.714,7.717,7.215,12.666,14.985,11.889c8.148-0.815,12.185-9.882,9.567-17.173
	C279.678,192.107,275.404,191.414,274.897,194.536z"/>
<path d="M426.826,156.879c-17.876-0.632-35.147,10.001-48.992,20.147c-11.345,8.314-21.568,17.503-31.348,27.293
	c2.786-20.98-4.628-43.612-15.965-60.799c-14.367-21.78-39.61-36.142-65.815-36.644c-0.646-1.796-1.245-3.6-1.701-5.475
	c-0.497-2.045-1.202-4.463-1.491-6.7c13.677-1.571,32.219-3.047,41.447-12.432c8.313-8.455,1.746-17.916-8.403-19.66
	c-1.549-0.266-3.123-0.47-4.709-0.646c-0.318-0.136-0.69-0.209-1.118-0.196c-0.175,0.006-0.351,0.011-0.527,0.017
	c-13.438-1.238-27.94,0.454-41.299,2.478c6.214-14.478,13.479-33.692,11.734-49.326C257.045,0.649,244.002-3.85,232.365,3.449
	c-10.627,6.666-16.107,20.04-14.648,32.28c1.627,13.651,9.876,22.879,20.654,29.834c-0.946,0.157-1.892,0.309-2.836,0.485
	c-12.578,2.341-32.131,5.624-40.453,16.696c-6.771,9.009-2.24,18.497,8.825,19.101c8.088,0.441,16.593-1.652,24.594-2.731
	c2.662-0.359,5.326-0.708,7.99-1.06c0.066,2.541,0.368,5.081,0.591,7.609c0.172,1.944,0.175,3.889,0.517,5.757
	c-9.273,3.371-17.842,8.486-25.306,14.955c-10.6,7.065-19.487,16.358-26.126,28.674c-5.679,10.534-9.736,22.539-10.043,34.579
	c-0.345,13.567,8.49,23.274,11.381,35.368c-13.858-9.575-28.057-18.271-43.566-25.067c-15.508-6.796-32.999-14.352-50.071-15.515
	c-11.784-0.803-28.671,6.136-25.546,20.798c2.068,9.701,13.181,14.887,23.316,18.793c-8.33,5.374-14.491,13.608-9.21,24.06
	c3.435,6.798,11.638,10.414,18.129,13.515c6.125,2.926,12.44,5.314,18.896,7.299c-4.288,4.959-6.707,11.027-2.97,17.672
	c4.772,8.486,16.761,10.049,26.271,11.418c-0.768,6.526,1.43,12.847,6.542,18.083c8.374,8.577,21.172,9.653,32.462,10.167
	c1.153,0.052,2.09-0.231,2.835-0.716c2.313,8.194,6.69,15.673,12.88,21.276c-14.128,30.813-23.09,62.96-27.042,96.723
	c-2.679,22.883-8.714,66.569,25.947,66.507c5.918-0.011,12.014-1.541,17.267-4.273c3.183-1.655,4.214-3.339,7.486-2.465
	c2.995,0.8,6.322,3.886,9.267,5.196c10.807,4.808,24.537,5.538,33.721-3.105c3.531-3.323,1.826-3.758,6.292-1.183
	c2.17,1.251,3.925,2.428,6.262,3.392c5.452,2.249,11.335,2.937,17.185,2.292c9.01-0.994,16.777-5.362,22.381-12.058
	c0.239,0.03,0.479,0.048,0.721,0.043c5.324,2.737,11.22,3.878,17.543,3.091c4.143-0.516,8.342-1.806,11.937-3.987
	c3.353-2.033,5.105-5.538,8.048-7.725c4.027-2.992,10.741-0.897,15.728-1.422c4.133-0.435,8.222-1.413,11.809-3.609
	c8.659-5.3,10.451-15.329,9.953-24.735c-2.369-44.746-13.39-97.413-41.523-133.958c0.857-0.186,1.711-0.404,2.558-0.681
	c0.416,0.094,0.851,0.153,1.325,0.132c12.678-0.573,26.284-5.886,33.502-16.959c4.076-6.254,4.514-14.026,0.835-19.756
	c7.994-5.345,14.792-13.418,16.842-22.713c1.133-5.138-0.147-10.611-3.238-14.34c11.608-7.521,25.433-17.442,24.271-30.846
	c-0.604-6.961-4.474-10.798-9.581-12.745c9.69-6.884,18.596-15.095,24.223-25.283C448.299,169.441,441.676,157.404,426.826,156.879z
	 M230.91,13.839c3.761-4.496,8.92-8.949,15.128-5.789c9.939,5.059,5.068,18.089,2.93,25.962c-2.493,9.178-5.907,18.016-9.506,26.801
	C225.583,49.644,218.479,28.699,230.91,13.839z M214.902,94.339c-5.55,0.652-20.294,2.069-12.488-7.649
	c3.518-4.38,9.856-6.198,14.947-8.005c7.663-2.72,15.535-4.809,23.518-6.438c10-1.266,20.076-1.656,29.183-2.031
	c5.67-0.233,11.359-0.338,17.033-0.161c2.963,0.092,14.505-0.918,10.767,7.114c-1.02,2.192-6.949,3.997-8.996,4.691
	c-11.594,3.929-24.279,5.512-36.335,7.366C240.018,91.149,227.475,92.861,214.902,94.339z M257.135,107.126
	c-3.926,0.333-7.787,0.964-11.557,1.885c-0.278-1.43-0.694-2.853-1.053-4.356c-0.591-2.474-1.111-4.985-1.853-7.423
	c4.512-0.599,9.023-1.208,13.528-1.86c2.385-0.345,1.534,3.024,1.313,4.474C257.141,102.28,257.062,104.651,257.135,107.126z
	 M187.428,191.319c-0.238-6.8,1.414-13.84,3.615-20.242c5.808-16.89,18.438-33.663,33.999-44.389
	c30.527-16.451,70.89-11.055,94.121,18.554c15.014,19.137,26.063,51.005,13.067,73.937c-1.169,2.064-3.467,5.704-5.676,6.511
	c-8.657,3.164-7.918-6.144-7.857-9.848c0.087-5.317,0.652-10.465-0.14-15.787c-1.698-11.422-11.309-18.062-10.842-29.925
	c0.347-8.842,1.14-16.697-3.699-24.602c-4.586-7.492-12.061-12.598-20.327-15.278c-17.289-5.607-38.517-0.847-52.024,11.174
	c-14.439,12.85-18.52,32.496-17.287,51.049c0.649,9.761,2.894,19.102,4.927,28.632c1.424,6.675,2.679,13.78,0.405,20.442
	c-3.388,9.924-16.288,14.569-19.689,2.652c-1.476-5.173-0.037-11.421-0.532-16.797c-0.476-5.175-2.121-9.811-4.324-14.47
	C191.764,205.741,187.718,199.595,187.428,191.319z M228.107,218.567c-2.115-11.115-4.8-21.97-4.534-33.513
	c0.355-15.399,5.14-30.98,18.039-40.456c12.251-9,30.945-12.537,44.836-5.08c7.262,3.898,12.582,10.753,13.322,19.027
	c0.606,6.783-1.593,13.474-0.415,20.259c0.929,5.352,3.964,8.663,6.611,13.209c2.478,4.257,3.25,8.529,3.432,12.899
	c-0.557,0.237-1.096,0.617-1.582,1.208C287.173,231.167,255.651,233.285,228.107,218.567z M296.967,230.751
	c-3.82,9.233-9.053,18.702-18.829,20.958c-12.498,2.884-25.637-7.41-33.358-17.18C262.376,239.884,281.891,239.684,296.967,230.751z
	 M182.865,316.051c0.005,0.061,0.016,0.121,0.022,0.182c-0.353-0.09-0.728-0.148-1.13-0.168
	c-11.093-0.552-33.986-4.118-27.287-21.008c0.997-2.514-1.11-6.105-3.73-6.569c-5.438-0.963-11.057-1.63-16.411-3.007
	c-1.583-0.407-4.33-0.795-5.555-1.875c-6.226-5.487,0.703-9.966,4.405-12.628c3.481-2.504,3.627-8.779-1.291-9.876
	c-9.531-2.125-18.767-5.036-27.592-9.264c-4.596-2.201-15.017-5.959-11.467-13.886c2.225-4.97,9.701-7.222,14.292-9.026
	s5.846-9.373,0-10.631c-5.963-1.284-11.547-3.703-16.955-6.51c-2.302-1.195-5.394-2.315-7.154-4.218
	c-4.413-4.773-1.405-10.214,4.085-11.413c11.209-2.448,26.109,4.119,36.656,7.631c22.179,7.385,44.052,17.513,63.647,30.292
	c0.384,0.25,0.76,0.398,1.129,0.5c0.209,8.402-0.085,17.165,6.634,23.37c1.457,1.346,3.09,2.358,4.819,3.092
	C189.94,277.766,181.132,296.036,182.865,316.051z M192.35,312.851c-0.978-18.26,7.556-35.03,16.398-50.451
	c4.415-0.337,8.78-2.071,12.187-4.924c8.552-7.16,9.961-18.668,8.773-29.139c2.458,1.298,5.008,2.482,7.625,3.547
	c-0.078,0.51-0.002,1.074,0.3,1.663c7.386,14.392,24.146,28.733,41.517,25.639c16.752-2.984,24.451-21.798,28.749-36.213
	c0.154-0.516,0.193-0.988,0.164-1.425c0.443-0.503,0.887-1.004,1.314-1.533c0.544,6.714,3.074,13.632,9.827,15.724
	c17.698,24.471,36.759,60.993,12.007,87.637c-6.499,6.995-18.971,13.642-23.43,0.954c-2.999-8.536,4.22-12.413,8.22-19.08
	c6.833-11.39,7.183-25.338,1.344-37.148c-2.008-4.061-8.915-1.22-7.382,3.112c4.398,12.431,3.115,25.514-5.915,35.599
	c-2.153,2.405-3.953,4.502-5.21,6.619c-5.185-5.699-14.189-11.158-21.268-5.984c-3.442,2.516-4.142,6.543-3.109,10.479
	c0.719,2.741,2.127,4.846,0.527,7.631c-1.304,2.271-3.999,3.833-5.845,5.617c-0.012,0.011-0.018,0.023-0.03,0.035
	c-1.026-0.448-1.922-1.122-2.608-2.166c-2.059-3.134-0.214-3.867-0.023-7.263c0.256-4.554-2.705-9.105-7.263-10.322
	c-6.044-1.614-13.152,6.68-18.366,6.155c-0.818-1.595-2.154-2.95-4.269-3.897c-5.062-2.267-9.733,0.011-13.298-5.984
	c-4.542-7.639,1.403-16.964,5.353-23.543c2.006-3.342-2.908-5.993-5.115-2.99c-7.211,9.812-14.495,22.895-5.541,34.074
	c1.505,1.879,3.238,3.411,5.455,4.405c1.969,0.882,5.283,0.366,6.948,1.266c4.57,2.471,2.923,6.173,1.867,10.173
	c-0.911,3.452-1.85,10.431-4.458,13.021c-6.665,6.616-18.645-0.201-24.095-5.268C196.418,332.102,192.875,322.656,192.35,312.851z
	 M288.863,341.69c-1.504-4.334-4.851-7.383-9.182-8.771c-0.141-0.045-0.288-0.079-0.432-0.118c2.623-2.475,4.597-5.639,4.845-9.149
	c0.185-2.614-2.843-8.588,0.235-9.989c2.908-1.324,9.763,4.197,11.448,5.753c0.379,0.35,0.771,0.592,1.161,0.741
	c0.038,1.955,0.529,4.117,1.608,6.663c1.932,4.558,4.605,9.465,8.567,12.602c-3.121,3.376-5.999,6.834-10.03,9.453
	c-2.684,1.744-5.567,2.934-8.486,4.054C289.991,349.576,290.283,345.783,288.863,341.69z M256.49,329.342
	c0.408,2.614,2.032,5.038,4.076,6.653c2.736,2.161,5.989,2.776,9.386,3.187c3.27,0.396,7.966-0.179,10.557,2.374
	c4.888,4.818,0.096,12.193-4.315,14.918c-12.521,7.733-29.237,1.099-38.49-8.438c-0.372-0.384-0.768-0.648-1.17-0.857
	c2.788-5.779,3.807-13.367,4.806-18.732c0.255-1.368,0.467-2.766,0.562-4.139c0.212,0.026,0.418,0.056,0.644,0.074
	c3.959,0.316,6.535-2.903,9.863-3.18C261.234,320.468,255.81,324.986,256.49,329.342z M363.913,378.982
	c6.365,18.236,10.529,37.187,13.273,56.287c1.324,9.212,3.202,19.107,2.82,28.43c-0.521,12.745-11.032,12.936-20.915,12.807
	c-2.95-27.929-14.001-55.312-25.234-80.72c-1.522-3.443-6.575-0.464-5.062,2.959c11.402,25.789,15.849,52.331,21.315,79.6
	c-2.41,1.661-4.025,4.248-7.729,7.012c-6.009,4.485-14.467,4.882-20.761,1.076c0.343-34.14-7.377-68.404-16.971-100.904
	c-1.024-3.468-6.375-2.016-5.43,1.497c8.564,31.838,10.944,63.983,12.563,96.618c-0.925,0.5-1.758,1.23-2.384,2.256
	c-5.351,8.77-16.914,13.451-26.921,10.922c-4.088-1.033-7.515-3.289-10.913-4.751c6.585-32.086,3.58-66.127-1.203-98.142
	c-0.403-2.698-5.115-2.093-4.806,0.65c3.707,32.876-0.28,64.652-3.882,97.158c-0.888,0.41-1.799,0.93-2.753,1.647
	c-12.232,9.193-20.69,4.628-32.752-1.804c-0.955-15.977-2.345-31.562-1.16-47.715c1.366-18.624,4.64-36.854,9.771-54.8
	c0.975-3.411-3.883-4.508-5.163-1.423c-12.8,30.854-18.929,68.732-11.109,102.062c-5.862,0.518-11.116,5.044-17.554,6.063
	c-15.367,2.433-18.667-10.839-18.752-23.279c-0.103-15.107,1.06-30.362,3.139-45.319c3.56-25.607,10.121-51.097,18.924-75.441
	c2.29,1.306,4.748,2.393,7.368,3.224c6.243,1.98,14.062,2.611,19.643-1.255c0.11,0.145,0.204,0.292,0.338,0.432
	c9.946,10.446,24.732,15.647,39.023,12.402c4.42-1.004,8.887-3.18,12.406-6.209c11.693,2.306,27.392-6.635,32.384-17.649
	c7.545,0.551,15.299-4.153,20.687-8.963c1.168-1.043,2.253-2.114,3.291-3.201C349.16,346.012,357.805,361.484,363.913,378.982z
	 M427.095,183.227c-8.713,10.135-20.232,16.699-31.191,24.026c-5.399,3.61-2.089,12.131,4.459,10.576
	c2.993-0.711,8.441-2.467,11.487-1.099c9.907,4.451,1.075,11.995-3.08,15.251c-7.141,5.597-14.625,10.747-21.754,16.364
	c-9.358,7.373,8.994,8.805,9.588,9.755c1.743,2.792-1.323,7.272-2.734,9.655c-1.47,2.481-3.416,4.732-5.492,6.714
	c-3.497,3.337-7.548,5.832-11.84,8.003c-4.272,2.161-3.068,8.836,1.308,10.008c10.657,2.853-4.65,14.696-8.169,16.579
	c-2.798,1.498-5.783,2.603-8.842,3.457c-0.022,0.007-0.042,0.007-0.064,0.014c-0.483,0.161-0.974,0.276-1.463,0.398
	c-0.362,0.091-0.728,0.17-1.092,0.255c-2.688,0.535-5.449,0.638-8.187,0.819c10.099-25.963-3.478-57.399-22.147-78.437
	c6.712-2.335,11.754-9.429,14.412-15.645c0.344-0.803,0.614-1.627,0.918-2.441c17.55-17.494,38.572-34.853,60.678-44.925
	c6.356-2.896,14.598-6.03,21.719-5.623C437.778,167.626,432.394,177.064,427.095,183.227z"/>
<path d="M171.587,287.069c-7.624-3.543-8.816-8.61-3.576-15.2c1.976-1.99,0.773-4.714-1.497-5.671
	c-6.921-2.629-8.426-7.456-4.514-14.481c2.064-2.598,0.809-6.343-2.709-6.54l-5.491-0.706c-3.683-0.269-8.46-3.586-7.921-7.803
	c0.623-4.88,5.126-5.436,8.944-4.965c2.794,0.345,2.769-4.043,0-4.385c-7.448-0.919-17.592-0.061-16.722,10.069
	c0.685,7.976,8.008,12.334,15.24,14.311c-2.974,7.561-0.616,16.215,7.006,19.72c-4.384,8.813-1.094,18.78,9.326,22.595
	C174.052,295.616,175.857,288.711,171.587,287.069z"/>
<path d="M378.634,219.012c-3.318-8.828-13.043-10.111-20.055-5.063c-2.032,1.463-0.232,4.768,2.005,3.428
	c3.471,0.999,7.962,0.867,10.299,4.069c3.478,4.766-1.803,9.181-6.197,10.694c-2.731,1.345-1.818,5.405,0.81,6.199
	c12.56,3.794-1.266,14.065-4.427,15.935c-1.951,1.154-2.736,4.43-0.777,6.028c6.009,4.898,3.891,13.32-2.418,16.613
	c-4.292,2.24-0.518,8.553,3.774,6.457c10.354-5.056,12.166-15.949,6.916-24.705c4.816-3.489,8.826-8.676,9.42-14.633
	c0.438-4.39-1.595-7.206-4.563-9.232C378.115,231.03,381.045,225.429,378.634,219.012z"/>
<g>
</g>
<g>
</g>
<g>
</g>
<g>
</g>
<g>
</g>
<g>
</g>
<g>
</g>
<g>
</g>
<g>
</g>
<g>
</g>
<g>
</g>
<g>
</g>
<g>
</g>
<g>
</g>
<g>
</g>
</svg>
