<?xml version="1.0" encoding="iso-8859-1"?>
<!-- Generator: Adobe Illustrator 19.0.0, SVG Export Plug-In . SVG Version: 6.00 Build 0)  -->
<svg version="1.1" id="Capa_1" xmlns="http://www.w3.org/2000/svg" xmlns:xlink="http://www.w3.org/1999/xlink" x="0px" y="0px"
	 viewBox="0 0 512 512" style="enable-background:new 0 0 512 512;" xml:space="preserve">
<path style="fill:#DAD7D2;" d="M193.103,77.181c-0.358-23.627-2.608-47.004,21.395-60.775c6.124-3.513,13.216-4.668,19.989-6.364
	c5.929-1.484,13.073-3.83,19.266-2.959c7.929,1.116,15.744,8.588,20.25,14.828c5.488,7.601,18.991,34.186,9.021,42.024
	c-3.54,2.784-9.971,3.017-14.184,4.007c-8.398,1.973-16.913,3.488-25.447,4.762c-9.17,1.37-18.336,1.776-27.524,2.827
	C210.988,76.09,204.327,76.151,193.103,77.181z"/>
<path style="fill:#A9A7A3;" d="M191.258,77.181c-6.018-6.028-1.344-23.281,0.104-29.877c2.866-13.05,8.79-29.021,23.708-32.408
	c17.453-3.963,6.193,18.329,6.114,27.002c-0.169,18.654,24.705,9.986,34.826,6.016c10.128-3.974,17.572-7.1,23.355,3.327
	c4.077,7.353,3.387,14.008-5.751,16.272c-15.409,3.817-32.524,3.278-48.251,5.61c-7.977,1.183-17.004,5.289-24.882,5.783
	C196.567,79.151,195.13,78.33,191.258,77.181z"/>
<path style="fill:#F8F8F9;" d="M199.94,117.485c20.483-4.687,40.027-11.292,61.332-13.005c9.84-0.791,19.663-0.254,29.44,1.009
	c2.485,0.321,7.051,2.219,9.398,1.333c5.668-2.14,5.275-14.394,3.251-18.657c-5.143-10.833-21.082-13.22-31.447-13.855
	c-17.625-1.08-35.76,2.009-52.899,5.883c-11.524,2.605-28.41,5.791-37.725,13.541c-4.12,3.428-4.814,7.928-6.147,12.818
	c-0.824,3.024-3.701,9.072-3.048,12.346c0.963,4.822,4.502,3.935,9.852,3.597C190.897,121.927,200.577,119.375,199.94,117.485z"/>
<path style="fill:#EEF0F1;" d="M176.906,116.205c-0.466-0.61-0.836-1.348-1.092-2.237c-1.154-4.011,1.672-11.236,3.181-14.842
	c5.372-12.839,19.67-18.35,32.516-20.187c9.239-1.321,29.176-6.361,37.048-0.246c3.301,2.564,7.368,11.261,7.91,15.325
	c1.178,8.823-11.594,10.959-17.893,12.226c-13.709,2.758-27.158,6.461-40.785,9.535C192.594,116.952,181.025,121.6,176.906,116.205z
	"/>
<path style="fill:#F13636;" d="M215.958,111.437c-24.543,8.144-49.05,13.696-70.709,28.852
	c-20.97,14.673-39.926,31.543-55.125,52.218c-16.396,22.303-22.052,43.307-24.598,70.639c-2.507,26.908-2.845,53.99,1.422,80.722
	c3.286,20.59,7.02,40.631,17.442,59c8.898,15.684,21.035,29.757,33.444,42.697c24.813,25.876,61.112,43.989,95.867,51.901
	c40.489,9.218,80.34,9.712,120.232-3.315c34.956-11.415,59.571-31.355,80.538-61.246c39.691-56.585,49.32-127.963,29.719-193.73
	c-11.639-39.054-35.264-72.9-63.583-101.6C339.194,95.607,272.136,92.603,215.958,111.437z"/>
<path style="fill:#E81D1D;" d="M447.361,350.879c1.101-10.494-17.138-0.921-20.219,0.626
	c-36.164,18.162-69.116,40.323-108.396,52.028c-81.497,24.284-172.375-50.474-184.19-129.625
	c-2.789-18.684-2.487-37.424,0.462-56.065c2.753-17.404,9.916-32.649,15.774-49.063c2.585-7.242,12.427-28.508-2.337-28.001
	c-14.692,0.505-28.977,18.326-37.925,27.763c-16.943,17.87-32.616,37.084-39.632,61.157c-5.052,17.333-7.306,36.559-9.503,54.457
	c-2.197,17.908-2.903,37.126,0.369,54.952c6.621,36.073,28.089,75.69,52.721,102.748c22.087,24.262,50.204,46.221,82.621,54.134
	c30.179,7.366,63.708,10.928,94.617,7.431c35.198-3.982,74.126-15.308,99.623-40.933c16.478-16.561,30.918-32.303,41.293-53.574
	C441.343,391.073,445.195,370.84,447.361,350.879z"/>
<g>
	<path style="fill:#8BEB6A;" d="M85.015,405.896c3.853,2.497,12.22-10.893,13.818-13.092c3.004-4.135,5.473-8.343,6.753-13.335
		c0.928-3.616,0.217-6.575,0.376-10.141c0.189-4.221,0.779-4.161,4.318-4.322c7.451-0.339,15.951-2.615,21.612-7.717
		c6.585-5.934,10.983-14.081,17.771-19.71c5.704-4.731,10.922,0.766,17.426,1.614c8.948,1.167,18.839-0.478,27.747-1.559
		c9.98-1.212,20.027-4.351,29.701-6.975c10.406-2.823,21.24-4.928,31.406-8.519c5.406-1.91,10.894-3.49,16.121-5.882
		c3.623-1.658,7.344-4.509,11.343-4.937c-0.948,1.863-3.168,3.841-4.706,5.471c-4.093,4.339-7.272,8.909-10.121,14.194
		c-4.678,8.68-6.552,18.981-8.238,28.613c-1.949,11.136-2.195,22.563-2.757,33.823c-0.302,6.052,2.444,15.799-3.032,19.392
		c-10.241,6.72-22.463,9.842-29.81,20.541c-3.944,5.744-4.68,14.728-9.906,19.477c-1.958,1.779-3.641,2.171-6.24,2.519
		c-5.347,0.717-10.052,1.334-15.064,3.769c-5.54,2.691-10.965,6.559-15.584,10.626c-3.275,2.884-7.041,10.102-11.485,11.199
		c-4.898,1.208-10.89-7.143-14.55-9.878c-8.881-6.635-17.278-13.573-25.805-20.642C112.658,439.268,89.752,426.556,85.015,405.896z"
		/>
	<path style="fill:#8BEB6A;" d="M381.758,466.352c0.206-8.304-1.486-18.178-7.184-24.486c-5.468-6.054-23.312-5.242-20.435-15.487
		c8.18-29.128-3.561-55.889-17.415-81.438c-1.134-2.091-7.276-11.067-3.483-12.769c2.47-1.109,10.571,4.625,12.947,5.756
		c11.329,5.392,20.648,7.803,33.478,6.185c6.329-0.798,13.867-2.811,20.214-2.471c10.158,0.545,14.585,13.851,20.605,20.508
		c3.676,4.065,7.644,8.023,12.512,10.626c4.083,2.183,6.072,2.084,5.703,7.291c-0.46,6.482-4.272,13.019-6.737,18.873
		c-3.706,8.803-7.69,17.416-13.082,25.334c-6.569,9.647-13.829,18.425-21.382,27.283C393.9,455.779,386.335,468.036,381.758,466.352
		z"/>
	<path style="fill:#8BEB6A;" d="M384.729,145.481c-3.163,11.041-2.129,23.764-9.763,33.46c-5.227,6.64-15.88,11.579-23.319,15.434
		c2.119,6.337-0.76,15.7-1.815,22.108c-1.309,7.95-3.407,15.695-6.234,23.201c-3.52,9.345-8.085,18.018-12.309,27.069
		c-2.761,5.916-8.387,14.711-7.979,21.349c4.352-1.108,6.974-3.539,11.913-4.116c6.783-0.793,13.436-2.072,20.297-2.388
		c8.234-0.379,16.969,0.582,25.211,1.282c4.803,0.408,8.371,1.267,12.784,2.877c3.361,1.226,5.659,2.238,8.567,0.172
		c4.46-3.168,8.056-10.295,11.501-14.429c4.459-5.35,9.661-12.51,15.516-16.382c6.544-4.328,10.291-1.959,8.278-10.828
		c-3.93-17.312-9.154-32.412-18.025-47.95c-5.449-9.544-11.276-18.901-17.832-27.732
		C397.006,162.529,389.132,155.809,384.729,145.481z"/>
	<path style="fill:#8BEB6A;" d="M271.83,182.831c-1.728,8.13-4.641,15.408-5.295,23.862c-0.624,8.053,0.356,15.889,1.371,23.856
		c0.887,6.958,2.624,13.559,3.923,20.435c0.811,4.296,3.472,9.812,2.908,14.141c-3.51,1.01-8.947-6.767-11.613-8.676
		c-6.162-4.412-13.709-7.492-21.31-8.17c-6.994-0.623-14.167-0.9-21.075,0.532c-4.624,0.959-13.978,5.963-18.482,4.272
		c-4.223-1.586-9.343-11.324-12.366-14.672c-5.243-5.808-9.372-12.259-16.305-16.221c-5.846-3.341-12.619-4.502-19.31-4.586
		c-3.193-0.04-12.035,2.88-14.77,1.335c-3.252-1.836-1.949-6.65-2.263-9.551c-0.436-4.036-1.892-8.35-3.184-12.186
		c-2.588-7.688-6.663-14.691-13.381-19.468c-2.429-1.727-7.564-3.682-9.304-5.927c-4.749-6.13,6.788-13.833,10.482-16.899
		c6.607-5.484,13.849-10.395,20.972-15.177c11.026-7.403,22.489-15.856,35.75-18.579c9.76-2.004,20.455-9.683,27.057,1.406
		c2.807,4.715,3.956,8.219,8.668,11.481c5.286,3.659,9.689,3.351,12.971,9.239c2.618,4.697,5.977,8.321,8.626,12.924
		c3.798,6.597,7.839,11.24,14.616,14.863C256.883,174.466,265.303,174.485,271.83,182.831z"/>
</g>
<g>
	<path style="fill:#6BD046;" d="M116.063,283.421c-11.797,6.817-21.391,17.493-31.006,27.081
		c-7.359,7.338-14.266,18.463-22.84,23.785c-0.269-13.106-2.82-25.939-4.104-38.979c-0.826-8.387-1.396-16.58-0.226-24.947
		c0.476-3.399,0.531-10.351,3.913-12.441c5.484,3.7,9.617,9.054,15.2,12.755c5.298,3.511,10.145,4.96,16.381,6.275
		c5.237,1.104,10.373,2.894,15.703,3.52C111.805,280.79,119.318,283.094,116.063,283.421z"/>
	<path style="fill:#6BD046;" d="M257.721,403.344c-7.083,1.546-15.709,1.613-22.879,1.257c-8.072-0.401-16.348-1.788-23.307-6.133
		c-7.887-4.924-12.658-13.545-19.201-19.987c-8.95-8.813-19.241-15.207-25.448-26.44c-2.422-4.383-5.129-14.38-10.431-16.006
		c-5.045-1.547-6.367,3.138-8.36,6.389c-4.113,6.711-10.263,12.321-17.219,15.897c-6.068,3.12-11.928,3.131-18.19,5.284
		c-6.483,2.229-5.346,4.51-5.96,10.628c-0.614,6.119-3.281,12.181-6.294,17.485c-2.534,4.461-6.779,6.48-9.757,10.235
		c-3.896,4.914,1.066,11.743,3.92,16.764c7.996,14.07,20.356,26.843,32.002,37.93c8.708,8.291,24.405,26.634,38.286,25.751
		c5.355-0.34,6.911-7.305,10.516-10.529c6.102-5.456,13.803-9.498,21.356-12.523c2.918-1.169,6.242-2.785,9.378-3.25
		c2.109-0.313,4.421,0.395,6.46-0.373c4.924-1.854,8.478-11.505,11.196-15.746c5.745-8.963,12.786-16.677,22.172-21.848
		C251.968,414.819,259.027,412.71,257.721,403.344z"/>
	<path style="fill:#6BD046;" d="M355.318,391.684c12.02-1.885,23.646-9.429,33.658-15.939c5.347-3.477,10.587-6.995,15.784-10.651
		c3.018-2.123,7.493-5.707,11.481-5.41c6.92,0.515,11.631,8.465,16.27,12.795c6.465,6.034,7.588,7.46,3.437,16.245
		c-9.05,19.154-17.835,40.524-31.508,56.892c-4.609,5.517-9.7,10.229-15.159,14.868c-1.287,1.094-4.401,4.827-6.333,4.654
		c-4.568-0.411-4.249-10.827-4.806-13.941c-1.106-6.188-3.499-10.668-9.556-12.62c-6.936-2.234-12.969-3.182-13.275-11.669
		C354.9,415.492,359.277,404.915,355.318,391.684z"/>
	<path style="fill:#6BD046;" d="M135.508,199.512c3.508-4.612,4.524-10.187,6.012-15.688c2.019-7.462,4.074-14.85,5.696-22.417
		c0.848-3.954,3.3-10.739,0.849-14.549c-3.743-5.821-11.045,0.091-15.128,2.773c-5.518,3.625-13.306,8.395-17.669,13.383
		c-5.693,6.509,0.209,10.021,4.598,14.054C128.075,184.611,131.219,191.854,135.508,199.512z"/>
</g>
<path d="M458.684,309.926c-0.594-54.968-17.675-115.202-53.298-157.956c-23.708-28.454-59.42-46.617-96.818-54.276
	c2.064-12.553-5.622-24.271-17.236-29.459c-1.38-0.617-2.802-1.128-4.243-1.596c0.38-0.771,0.617-1.671,0.657-2.703
	c0.716-18.632-0.478-40.169-14.8-53.951C260.074-2.4,240.403-1.653,224.429,3.576c-30.238,9.899-55.715,46.581-37.839,76.511
	c-2.15,1.184-4.222,2.481-6.183,3.923c-9.524,7.003-18.307,21.443-12.69,33.131c-27.307,12.611-52.482,29.875-71.974,51.027
	c-38.744,42.045-46.574,99.869-40.689,154.754c0.111,1.035,0.256,2.063,0.376,3.096c1.036,11.693,2.879,23.327,5.586,34.723
	c0.18,0.889,0.342,1.781,0.527,2.669c0.076,0.364,0.206,0.661,0.362,0.921c8.635,33.882,25.08,65.444,51.198,89.746
	c14.414,13.412,30.801,24.226,48.368,32.731c0.691,0.67,1.569,1.109,2.491,1.146c28.296,13.268,59.513,20.676,90.48,23.261
	c56.179,4.691,108.625-11.504,148.119-52.533c28.052-29.143,46.068-67.456,52.855-107.18
	C457.761,337.781,458.834,323.845,458.684,309.926z M386.076,153.427c12.845,12.878,23.132,28.464,31.294,45.249
	c-1.33,3.156-2.893,6.194-4.195,8.956c-0.053,0.112-0.113,0.217-0.166,0.329c-3.97-1.891-8.991-2.746-12.567-3.755
	c-7.249-2.046-14.603-5.292-22.157-5.679c-1.561-0.08-1.827,2.277-0.363,2.686c5.099,1.424,9.822,5.169,14.827,7.089
	c4.753,1.823,11.78,2.639,15.948,5.553c0.31,0.217,0.58,0.465,0.843,0.718c-2.486,4.392-5.228,8.608-8.252,12.737
	c-1.192,1.628-2.411,3.221-3.66,4.782c-6.514-7.598-22.14-9.888-30.447-12.198c-1.475-0.41-2.258,1.613-1.018,2.414
	c7.21,4.659,21.445,8.046,26.247,15.876c-2.178,2.411-4.426,4.763-6.808,7.028c-5.173,4.918-11.266,8.607-16.386,13.525
	c-1.936,1.86,0.614,5.339,2.921,3.786c8.17-5.499,15.486-10.999,22.072-17.385c0.314,7.726-2.662,15.561-0.315,23.327
	c0.713,2.361,4.063,2.352,4.783,0c1.986-6.494,1.573-14.142,1.917-20.903c0.149-2.925,0.439-6.138-0.045-9.135
	c2.873-3.329,5.597-6.913,8.174-10.86c1.175-1.799,2.385-3.726,3.58-5.736c0.277,4.867-1.094,10.498-1.639,14.16
	c-0.952,6.393-2.279,12.224-1.752,18.724c0.245,3.015,5.264,4.267,5.736,0.776c1.162-8.592,2.936-17.092,3.875-25.712
	c0.59-5.414,2.699-13.454-0.818-18.247c0.971-2.173,1.851-4.389,2.573-6.629c6.352,14.174,11.275,29.046,14.973,43.776
	c-0.01,0.045-0.03,0.083-0.039,0.129c-0.303,1.615-9.145,5.857-10.655,7.046c-4.234,3.335-8.033,7.176-11.795,11.025
	c-3.554,3.637-7.162,7.381-9.93,11.673c-3.334,5.17-4.533,3.495-10.382,1.97c-21.711-5.658-43.976-3.593-64.934,3.699
	c6.338-14.425,14.114-28.19,18.671-43.39c2.718-9.067,5.356-18.303,7.117-27.608c1.24-6.553-0.569-15.285,4.83-19.495
	c5.17-4.031,10.217-6.471,14.692-11.7c4.465-5.217,8.706-11.163,11.144-17.614C385.3,160.893,386.044,157.162,386.076,153.427z
	 M228.145,17.056c12.234-4.419,28.159-6.615,37.771,4.068c10.519,11.692,9.246,28.253,9.16,42.812
	c-0.001,0.122,0.026,0.224,0.031,0.342c-3.98-0.362-8.058-0.377-12.15-0.188c-0.793-7.401-2.49-14.916-3.808-22.188
	c-1.341-7.401-13.306-4.343-11.424,3.149c1.01,6.601,1.787,13.516,3.225,20.102c-3.273,0.4-6.508,0.856-9.655,1.319
	c-0.088-7.278-1.684-14.853-3.937-21.661c-2.375-7.179-12.494-3.66-10.797,2.998h-0.08c2.225,6.82,2.952,13.274,3.193,20.35
	c-3.387,0.49-6.826,1.007-10.319,1.622c-0.791-7.14-1.548-14.283-2.296-21.428c-0.807-7.713-13.067-7.592-12.051,0
	c0.835,7.98,1.665,15.96,2.44,23.946c-4.515,1.134-8.965,2.483-13.207,4.191C190.824,50.748,202.148,26.448,228.145,17.056z
	 M191.803,92.659c10.937-6.037,23.993-8.696,36.168-10.937c13.659-2.515,74.514-15.042,69.45,14.007
	c-17.836-2.642-35.82-2.932-52.858-0.81c-22.799,2.84-46.29,9.183-68.626,18.597C178.134,104.467,182.581,97.75,191.803,92.659z
	 M130.985,155.166c5.503-3.956,11.215-7.648,17.067-11.107c3.915,2.113,8.608,4.533,13.346,6.938
	c-2.045,3.892-2.919,9.668-3.928,13.204c-1.574,5.515-4.625,12.898-3.763,18.558c0.179,1.175,1.703,1.033,2.253,0.294
	c2.799-3.759,3.946-7.439,5.242-11.899c1.279-4.402,2.676-12.293,5.489-15.91c0.29-0.372,0.649-0.716,1.052-1.042
	c5.59,2.812,10.757,5.392,14.233,7.187c-0.281,0.248-0.564,0.496-0.774,0.788c-2.142,2.979-0.967,9.22-1.431,12.701
	c-0.995,7.465-1.454,15.034-0.883,22.561c0.138,1.823,2.555,1.749,2.781,0c0.922-7.131,2.23-14.388,3.625-21.443
	c0.707-3.577,0.394-8.539,2.993-10.446c0.111-0.081,0.244-0.159,0.37-0.238c6.355,4.304,12.12,9.397,17.474,14.897
	c-1.07,4.075-0.749,9.917-1.464,13.388c-1.495,7.257-3.069,14.389-2.852,21.842c0.019,0.669,0.86,0.702,1.093,0.148
	c3.906-9.299,7.137-19.177,8.967-29.124c5.605,6.673,10.411,13.985,16.365,20.29c2.189,2.318,5.821-0.638,4.332-3.342
	c-4.232-7.682-9.141-14.987-14.729-21.714c0.634,0.059,1.211,0.11,1.654,0.112c4.202,0.018,8.29,0.348,12.452,0.974
	c2.708,0.408,4.86-3.264,2.018-4.787c-5.387-2.887-10.915-2.497-16.875-2.576c-1.459-0.019-3.253-0.224-4.969-0.133
	c-4.452-4.651-9.267-8.957-14.494-12.795c2.065-0.425,4-0.767,5.313-1.044c3.947-0.832,7.718-0.548,10.756-3.411
	c1.66-1.564-0.112-3.932-2.075-3.564c-2.482,0.466-5.115-0.153-7.632,0.195c-3.47,0.48-7.16,1.715-10.487,2.803
	c-0.674,0.22-1.5,0.416-2.392,0.603c-4.757-2.966-9.697-5.352-14.718-7.571c1.683-0.489,3.281-0.923,4.538-1.366
	c6.279-2.208,12.368-4.145,18.807-5.83c2.162-0.566,2.429-4.261,0-4.648c-7.342-1.169-13.677,1.877-20.509,4.306
	c-3.079,1.095-8.513,1.806-12.505,3.397c-1.197-0.509-2.395-1.023-3.593-1.547c-2.985-1.305-5.929-2.813-8.894-4.276
	c14.837-8.206,30.456-14.932,46.033-20.236c2.076,4.559,5.71,8.698,9.138,12.028c4.662,4.528,14.971,8.159,16.966,13.927
	c2.452,7.089,2.782,12.581,7.758,18.766c4.853,6.03,11.064,10.266,18.273,12.96c3.773,1.41,8.42,3.369,12.447,3.716
	c1.106,0.095,2.437,0.09,3.534,0.313c-0.106,0.26-0.224,0.55-0.371,0.911c-3.583,8.801-4.537,17.117-4.743,26.596
	c-0.379,17.402,3.247,33.649,8.145,50.029c-7.122-3.849-13.839-8.579-21.67-11.288c-9.943-3.439-20.726-5.319-31.258-4.271
	c-2.594,0.258-5.076,1.004-7.552,1.781c-1.633,0.512-3.866,2.105-5.52,2.219c-3.968,0.272-5.641-5.579-7.444-8.128
	c-5.51-7.788-12.17-14.974-20.446-19.867c-7.931-4.688-17.575-7.657-26.831-6.973c0.593-0.044-7.386,2.022-8.142,3.397
	c-0.896-2.65-1.802-12.164-2.188-13.39c-4.032-12.794-13.241-27.06-26.139-32.211C119.516,165.215,125.107,159.987,130.985,155.166z
	 M68.828,266.551c10.052,9.662,27.3,13.991,41.611,16.279c-9.04,5.858-17.357,14.264-24.712,20.924
	c-6.412,5.806-13.465,12.15-18.535,19.487C65.421,304.382,65.881,285.226,68.828,266.551z M166.587,474.46
	c-5.681-2.782-11.218-5.796-16.574-9.051c-6.953-4.225-13.446-8.901-19.525-13.945c14.345,2.534,28.578,2.317,43.245,0.834
	c3.616-0.366,3.653-6.071,0-5.701c-13.429,1.359-27.412,2.498-40.918,0.973c3.739-4.706,7.872-9.224,11.553-13.652
	c1.503-1.808,3.04-3.568,4.577-5.329c4.712,2.125,14.444,1.484,18.393,1.977c9.314,1.161,18.61,2.924,27.644-0.327
	c3.57-1.285,2.144-6.894-1.59-5.766c-8.493,2.566-17.024,1.108-25.661,0.083c-3.846-0.456-7.66-0.84-11.524-1.122
	c-0.789-0.098-1.577-0.196-2.366-0.294c5.269-5.726,10.741-11.238,16.558-16.509c1.337-1.212,2.718-2.373,4.087-3.549
	c0.291,0.067,0.574,0.137,0.841,0.219c5.364,1.629,10.609,4.262,15.733,6.498c6.011,2.623,11.167,2.427,17.313,3.978
	c2.101,0.53,3.225-1.886,1.984-3.409c-2.499-3.068-5.467-2.896-9.139-3.74c-6.98-1.603-13.958-5.425-20.73-7.908
	c-0.171-0.063-0.37-0.127-0.555-0.19c4.378-3.55,8.871-6.969,13.398-10.348c3.253,2.335,7.281,3.94,10.655,5.534
	c5.488,2.592,10.995,5.466,17.201,4.866c2.074-0.201,3.421-3.191,1.17-4.319c-7.13-3.572-17.046-5.157-23.678-10.053
	c9.056-6.682,18.159-13.308,26.764-20.509c1.242-1.04-0.346-2.928-1.685-2.184c-9.696,5.387-19.245,11.218-28.508,17.479
	c1.104-7.932,0.87-16.021,0.98-24.044c0.051-3.709-5.525-3.66-5.729,0c-0.452,8.087-5.841,20.611-1.635,28.466
	c-5.481,3.889-10.855,7.923-16.061,12.141c-0.575-0.411-1.041-0.895-1.427-1.427c0.396-5.489,1.057-12.955,1.096-13.787
	c0.289-6.142,0.515-11.844-0.913-17.853c-0.756-3.18-5.686-2.471-5.665,0.767c0.052,7.848-0.884,15.562-1.047,23.387
	c-0.087,4.18-0.797,10.152,2.309,13.595c-1.932,1.65-3.858,3.306-5.739,5.005c-4.183,3.78-8.137,7.821-11.931,12.013
	c-0.46-2.302-0.598-5.021-0.628-7.646c0.067-1.26,0.107-2.364,0.071-3.169c-0.019-0.406-0.045-0.812-0.065-1.218
	c0.007-1.245,0.006-2.372-0.038-3.296c-0.339-7.05,0.173-14.06-1.298-20.999c-0.594-2.801-5.256-2.221-5.045,0.683
	c0.326,4.479,0.715,8.952,1.127,13.423c0.096,6.409-0.139,12.88,0.581,19.191c0.258,2.261,0.198,5.408,0.723,8.232
	c-3.208,3.774-6.303,7.642-9.314,11.549c-2.289,2.97-5.334,6.368-7.895,10.009c-4.252-16.44-3-35.613-1.498-51.843
	c0.247-2.667-4.157-3.265-4.689-0.635c-2.371,11.711-2.236,24.042-1.085,35.898c0.496,5.107,0.807,11.508,2.342,17.174
	c-12.415-11.701-22.806-25.114-31.111-39.847c4.232-2.855,7.755-7.574,10.358-11.169c3.068-4.237,5.39-8.768,6.863-13.799
	c1.113-3.801,0.795-7.792,1.183-11.604c2.539,0.574,4.999,1.055,7.839,0.482c4.599-0.928,9-3.635,12.665-6.398
	c8.268-6.232,15.466-14.034,21.246-22.609c21.136,5.379,42.558,3.109,63.773-1.183c19.082-3.861,37.82-9.008,55.802-16.329
	c-7.593,12.964-12.814,27.942-15.301,42.205c-1.829,10.49-3.64,21.816-3.591,32.462c0.017,3.8,1.859,8.788,0.917,12.424
	c-1.169,4.513-5.241,5.004-9.13,6.845c-7.78,3.683-14.52,9.214-20.296,15.568c-2.633,2.897-5.109,6.033-6.976,9.482
	c-2.588,4.784-2.458,8.954-8.072,11.189c-9.474,3.772-19.068,5.532-28.262,10.451C174.667,465.999,170.566,469.932,166.587,474.46z
	 M423.48,404.397c-0.722-8.431-1.434-16.802-1.759-25.316c-0.124-3.253-4.906-3.251-5.052,0c-0.365,8.123-0.956,16.28-0.27,24.404
	c0.161,1.91,0.801,4.346,1.215,6.734c-3.808-5.938-8.982-11.32-13.187-15.901c-0.176-0.192-0.365-0.362-0.542-0.551
	c0.045-6.801,0.207-13.644-0.426-20.413c-0.37-3.959-5.794-3.967-6.165,0c-0.426,4.559-0.434,9.124-0.415,13.696
	c-8.821-7.655-18.652-13.748-28.085-20.802c-0.612-0.458-1.263,0.501-0.786,1.019c5.048,5.485,10.57,10.497,15.992,15.604
	c2.809,2.646,5.621,5.298,8.299,8.078c10.758,11.171-14.788,15.195-21.32,19.56c-1.364,0.911-0.551,3.266,1.161,2.753
	c5.256-1.574,10.793-2.107,15.984-3.835c3.97-1.322,10.495-2.356,13.556-5.35c0.327-0.32,0.6-0.654,0.838-0.999
	c3.887,5.443,7.148,11.049,10.54,16.781c-6.151,2.83-13.431,5.139-19.717,6.999c-4.23,1.252-9.219,0.786-12.635,3.736
	c-0.91,0.786,0.055,2.38,1.173,2.014c2.222-0.728,5.393,0.264,7.722,0.16c3.925-0.176,8.102-1.334,11.824-2.523
	c3.03-0.969,5.952-2.243,8.939-3.317c-7.916,11.539-17.139,22.051-27.439,31.25c-0.005-4.956-1.064-9.915-2.916-13.912
	c-2.15-4.638-5.124-8.064-9.751-10.229c-2.863-1.339-6.543-1.493-9.241-3.04c-4.599-2.638-2.783-5.064-1.957-10.043
	c2.597-15.665,0.672-34.433-5.054-49.251c-2.564-6.635-5.241-13.385-8.194-19.85c-1.862-4.075-5.001-8.329-7.725-12.637
	c1.557,1.03,3.159,1.994,4.895,2.744c4.442,1.919,9.124,3.512,13.869,4.485c11.122,2.282,22.629,1.499,33.762-0.25
	c13.935-2.19,16.165,6.531,24.29,15.583c5.765,6.423,12.095,11.717,19.08,16.334C431.142,387.103,427.649,395.89,423.48,404.397z
	 M436.383,369.872c-6.907-5.044-13.444-10.311-19.287-17.114c-4.137-4.817-6.348-14.917-13.555-15.902
	c-4.162-0.569-9.155,1.349-13.182,2.027c-7.453,1.256-14.973,2.173-22.548,1.79c-6.519-0.33-12.811-1.642-18.923-3.914
	c-6.714-2.495-11.182-7.345-17.371-10.237c-2.946-1.376-5.915,0.875-5.315,4.086c1.09,5.836,5.924,11.723,8.738,16.851
	c2.907,5.297,5.194,10.645,7.499,16.232c7.126,17.27,11.957,35.04,9.467,53.989c-1.286,9.787-4.565,16.079,6.159,20.188
	c7.713,2.955,13.435,2.999,16.712,11.964c1.372,3.753,1.997,9.091,1.47,14c-23.123,18.567-51.003,30.76-81.358,33.641
	c-40.042,3.8-82.934-2.819-120.338-19.312c4.154-4.146,8.582-7.663,14.734-10.516c5.539-2.568,11.098-4.89,17.022-6.397
	c3.414-0.868,7.469-0.988,10.556-2.832c2.596-1.55,3.299-3.13,4.456-5.867c2.466-5.832,3.983-10.289,8.393-15.172
	c7.052-7.809,14.788-12.658,24.388-16.615c4.761-1.963,7.153-3.946,7.417-9.299c0.473-9.587-0.775-18.83,0.179-28.537
	c2.297-23.371,8.248-48.113,23.2-66.96c2.734-3.446-0.572-8.139-4.735-6.137c-20.068,9.656-41.397,15.9-63.136,20.508
	c-21.841,4.63-44.116,7.793-65.878,1.087c-1.714-0.528-3.469,0.372-4.403,1.792c-4.548,6.911-9.922,12.885-16.022,18.479
	c-7.336,6.728-12.666,9.471-22.736,8.086c-2.073-0.285-4.234,0.47-4.821,2.737c-1.766,6.821-0.291,13.526-3.07,20.435
	c-1.827,4.542-5.87,12.894-10.894,17.251c-8.98-17.072-15.338-35.734-18.998-55.371c-0.626-3.357-1.171-6.737-1.655-10.129
	c6.449-8.07,12.046-16.429,19.893-23.655c9.818-9.041,21.799-22.202,34.516-26.769c3.851-1.383,3.035-6.526-0.939-6.935
	c-16.472-1.7-39.074-5.267-51.978-17.749c6.031-31.329,19.243-60.998,40.881-85.225c7.965,3.909,12.878,11.279,17.357,19.402
	c3.636,6.594,5.963,12.495,6.931,20.041c0.291,2.271,0.051,5.08,1.363,7.05c2.799,4.202,6.699,1.602,10.478,0.497
	c12.682-3.709,26.81,3.525,35.846,12.185c3.929,3.766,7.368,8.122,10.321,12.679c1.812,2.796,3.272,7.781,6.165,9.661
	c5.145,3.344,10.524-2.525,15.492-3.782c11.124-2.813,24.02,0.092,34.506,3.989c9.688,3.599,17.647,10.286,27.098,14.008
	c2.659,1.047,5.403-2.063,4.595-4.595c-6.095-19.07-10.922-37.509-10.359-57.704c0.163-5.85,0.423-11.784,2.235-17.398
	c0.968-2.999,3.213-6.16,3.701-9.246c0.572-3.617-0.979-5.295-4.321-6.43c-7.395-2.51-15.019-2.407-22.283-6.362
	c-9.213-5.016-13.667-13.212-15.845-23.057c-1.228-5.548-3.215-8.184-8.169-10.812c-6.912-3.665-14.403-9.385-18.608-16.56
	c53.147-16.501,114.581-11.281,161.246,20.893c4.31,2.971,8.384,6.23,12.258,9.713c1.438,9.606-4.78,19.472-10.531,26.546
	c-4.827,5.938-10.221,9.648-16.619,13.501c-3.682,2.217-5.45,4.226-6.082,8.397c-0.531,3.506,0.289,7.311-0.223,10.952
	c-0.576,4.097-1.648,8.165-2.668,12.169c-2.051,8.047-4.188,16.194-6.859,24.058c-5.163,15.198-14.999,29.131-19.055,44.634
	c-0.541,2.066,1.534,4.787,3.832,3.832c14.163-5.89,29.083-8.704,44.436-8.486c8.114,0.116,15.501,1.539,23.271,3.708
	c3.658,1.021,8.824,3.648,12.555,2.448c3.942-1.268,5.175-5.422,7.409-8.568c3.841-5.413,8.935-10.195,13.716-14.772
	c4.117-3.942,8.683-6.595,13.141-9.839c0.956,4.315,1.815,8.604,2.574,12.842C445.741,303.015,445.073,337.547,436.383,369.872z"/>
<g>
</g>
<g>
</g>
<g>
</g>
<g>
</g>
<g>
</g>
<g>
</g>
<g>
</g>
<g>
</g>
<g>
</g>
<g>
</g>
<g>
</g>
<g>
</g>
<g>
</g>
<g>
</g>
<g>
</g>
</svg>
