<?xml version="1.0" encoding="iso-8859-1"?>
<!-- Generator: Adobe Illustrator 19.0.0, SVG Export Plug-In . SVG Version: 6.00 Build 0)  -->
<svg version="1.1" id="Capa_1" xmlns="http://www.w3.org/2000/svg" xmlns:xlink="http://www.w3.org/1999/xlink" x="0px" y="0px"
	 viewBox="0 0 512 512" style="enable-background:new 0 0 512 512;" xml:space="preserve">
<path style="fill:#BA7068;" d="M222.395,61.177c-13.881-0.113-30.22,8.957-41.351,16.294c-14.379,9.479-28.39,21.87-39.367,35.184
	c-10.474,12.704-20.372,28.298-26.043,43.764c-6.736,18.372-7.992,38.168-7.678,57.551c0.274,16.91,5.715,33.763,12.091,49.277
	c6.285,15.292,15.076,30.162,27.112,41.564c22.262,21.09,53.693,39.954,84.742,43.535c49.698,5.731,103.178-5.605,139.968-41.07
	c12.764-12.303,21.165-29.537,28.651-45.407c8.624-18.282,15.816-37.756,17.605-58.03c2.285-25.894-4.966-52.104-17.036-74.905
	c-13.25-25.029-36.968-46.587-63.857-56.197c-17.523-6.263-37.191-9.065-55.607-11.339
	C262.507,59.038,241.882,56.997,222.395,61.177z"/>
<path style="fill:#A95C57;" d="M218.538,61.342c-18.167,4.168-37.671,17.834-51.205,30.417c-15.25,14.178-29.13,32.348-38.33,51.003
	c-8.111,16.447-15.865,32.324-18.061,50.864c-2.711,22.897,0.246,46.57,9.271,67.766c17.909,42.065,55.145,71.126,98.327,83.43
	c15.654,4.46,34.795,4.701,51.027,5.106c41.336,1.034,81.772-23.553,110.279-51.645c7.559-7.449,14.588-16.246,19.098-25.988
	c2.347-5.07,7.453-16.294,4.903-21.943c-6.684,3.249-13.263,12.303-18.6,17.705c-17.529,17.746-39.344,32.989-63.215,40.635
	c-26.326,8.432-55.164,7.81-78.941-7.329c-26.871-17.109-40.883-55.152-45.347-85.333c-3.643-24.633-0.93-50.434,8.494-73.532
	c4.707-11.538,11.126-22.397,19.229-31.879c8.134-9.518,13.713-18.634,24.32-26.061c6.448-4.514,12.924-8.747,20.053-12.101
	c3.523-1.657,11.762-3.332,14.422-6.344c6.558-7.427-19.602-8.671-22.562-8.812c-5.228-0.25-10.427-0.102-15.653-0.099
	C235.922,57.208,228.086,59.152,218.538,61.342z"/>
<g>
	<path style="fill:#BA7068;" d="M162.149,93.347c-2.22-16.628-16.395-27.626-32.565-28.955
		c-24.539-2.017-43.905,12.654-45.806,37.622c-1.441,18.923,9.264,37.763,28.331,43.147c8.53,2.408,15.922-8.602,21.468-14.239
		c6.153-6.254,10.615-14.162,16.073-21.021C152.968,105.73,161.145,99.535,162.149,93.347z"/>
	<path style="fill:#BA7068;" d="M324.205,67.946c3.39-17.85,16.591-36.14,35.783-37.87c15.205-1.371,29.733,3.345,40.183,14.755
		c10.356,11.308,8.548,29.514,1.896,42.713c-3.32,6.588-11.502,16.993-19.438,17.459c-7.363,0.432-12.824-9.264-18.341-13.909
		C351.698,80.497,338.437,71.559,324.205,67.946z"/>
</g>
<g>
	<path style="fill:#A95C57;" d="M136.749,119.255c-0.488,4.405-7.483,3.979-10.77,3.249c-6.877-1.528-13.357-8.352-16.261-14.503
		c-3.536-7.489-0.263-17.032-3.861-24.103c-3.82-7.506-13.245-5.805-16.682,0.912c-4.691,9.171-4.745,23.442-2.94,33.374
		c2.265,12.462,13.161,22.358,25.085,26C125.007,148.366,131.587,134.563,136.749,119.255z"/>
	<path style="fill:#A95C57;" d="M325.221,65.914c-1.305-11.985,10.869-28.143,21.339-32.966c7.152-3.295,16.904-4.489,24.371-1.599
		c8.569,3.318,2.822,7.97-1.376,13.159c-6.061,7.491-8.819,15.01-4.717,24.209c2.481,5.564,9.763,12.363,1.293,15.589
		c-9.519,3.626-17.674-5.604-24.781-9.931C337.553,72.064,324.908,68.91,325.221,65.914z"/>
</g>
<g>
	<path style="fill:#FED3BA;" d="M148.493,105.317c0.157-6.004-11.081-12.057-15.768-13.76c-3.054-1.109-8.451-3.076-11.77-2.397
		c-5.103,1.043-2.71,3.435-3.823,6.55c-1.138,3.183-4.616,3.225-5.745,6.566c-1.595,4.72,2.391,3.724,3.539,7.149
		c0.858,2.56-2.141,5.326-2.602,8.126c-0.817,4.97,2.274,8.73,5.856,11.767c5.994,5.08,8.637,3.26,13.356-2.635
		C138.211,118.343,145.839,109.637,148.493,105.317z"/>
	<path style="fill:#FED3BA;" d="M268.876,194.296c-4.996,1.881-11.006,2.354-16.268,4.003c-7.398,2.318-15.33,6.504-21.565,11.132
		c-12.938,9.602-21.298,23.216-25.09,38.718c-7.625,31.167,2.764,65.306,34.781,76.57c24.785,8.72,63.088,5.981,82.867-12.406
		c18.067-16.796,24.098-43.599,20.863-67.18C339.402,208.242,302.598,195.224,268.876,194.296z"/>
	<path style="fill:#FED3BA;" d="M346.514,77.403c0.523-5.43,7.573-36.046,18.132-27.642c1.072,0.853,1.076,4.166,2.455,5.015
		c1.765,1.087,3.669-0.336,5.593-0.074c3.309,0.451,5.621,2.096,5.911,5.489c0.474,5.551-2.055,3.61,2.247,7.618
		c4.174,3.888,5.03,9.184,2.754,14.753C375.391,102.67,354.867,81.986,346.514,77.403z"/>
</g>
<g>
	<path style="fill:#FBC3A6;" d="M148.493,105.753c-5.823,5.953-14.569,28.852-24.757,25.402c-3.722-1.261-10.011-5.661-10.941-9.615
		c-0.848-3.605,3.024-7.906,2.058-10.9c-1.297-4.016-7.081-3.231-2.526-9.473c3.089-4.233,4.254-2.729,7.882-1.409
		c4.722,1.72,7.337,2.481,12.421,1.111c3.4-0.916,9.247-3.32,12.821-1.147C147.523,100.981,149.412,105.162,148.493,105.753z"/>
	<path style="fill:#FBC3A6;" d="M347.849,75.597c-2.102-7.597,2.784-19.565,8.126-25.061c3.858-3.969,5.123-4.296,7.034,0.2
		c1.078,2.536-0.602,6.047,0.134,8.697c1.216,4.372,2.047,3.333,5.294,5.941c6.102,4.903,14.471,19.456,7.2,25.874
		c-5.048,4.456-6.018,0.841-10.023-2.484C360.342,84.388,353.774,82.334,347.849,75.597z"/>
	<path style="fill:#FBC3A6;" d="M253.114,198.643c-5.306-3.475-22.895,12.712-26.768,16.25c-10.231,9.348-15.55,20.721-20.08,33.652
		c-8.041,22.951-0.616,46.819,15.693,64.337c15.02,16.134,39.524,18.489,60.379,16.576c12.536-1.15,27.084-4.855,37.574-11.879
		c5.975-4.001,22.424-18.045,12.923-25.258c-8.257-6.269-27.514-1.594-37.293-3.601c-17.488-3.589-33.454-17.115-37.852-34.796
		c-4.024-16.174,4.77-28.831,8.001-44.022C267.409,201.824,262.064,194.715,253.114,198.643z"/>
</g>
<path style="fill:#7F7B78;" d="M273.803,212.799c-11.196,2.809-25.01,7.662-28.023,20.986c-2.646,11.7,6.712,18.096,16.715,20.57
	c11.258,2.784,28.701-1.347,34.185-12.524C301.84,231.316,291.468,212.574,273.803,212.799z"/>
<path style="fill:#716F6B;" d="M269.448,254.177c-5.947,0.092-13.345-3.364-18.193-6.603c-5.497-3.673-9.405-10.332-4.907-16.608
	c6.312-8.807,13.839,1.368,21.452,3.025c8.535,1.858,15.795-1.928,23.965-1.622c5.316,0.199,5.939,0.974,4.653,5.737
	c-1.213,4.492-5.13,9.113-9.023,11.468C283.785,251.758,271.464,255.954,269.448,254.177z"/>
<path style="fill:#F13636;" d="M344.398,330.578c-9.036,4.981-20.146,7.514-29.995,10.481c-16.047,4.834-31.906,7.103-48.582,7.948
	c-11.804,0.598-23.029,0.807-34.667-1.722c-11.156-2.424-21.665-6.002-32.276-10.124c-10.021-3.892-21.314-6.572-30.293-12.701
	c-8.844-6.037-16.689-14.145-23.525-22.313c-4.786-5.718-9.704-11.35-14.692-16.891c-2.11-2.344-4.193-4.675-5.884-7.352
	c-0.564-0.892-1.371-3.587-2.34-4.105c-3.139-1.677-5.151,2.196-6.883,5.064c-4.315,7.141-3.171,18.081-1.97,25.981
	c3.374,22.188,15.68,42.972,33.657,56.408c15.255,11.402,35.538,18.203,53.019,25.713c3.538,1.52,11.205,3.27,13.553,6.75
	c2.256,3.344,0.204,11.964-0.146,15.533c-0.744,7.597-1.574,15.121-2.809,22.653c-1.028,6.264-2.729,15.913,2.296,20.9
	c3.505,3.479,9.385,3.393,13.971,2.591c3.777-0.66,6.809-2.606,9.667,0.931c2.889,3.575,0.784,9.389,3.038,13.36
	c4.129,7.273,15.766,6.739,22.765,6.799c21.179,0.182,42.154-1.166,63.077-4.429c11.947-1.863,24.782-4.171,29.316-16.869
	c6.266-17.549-2.954-32.773-4.35-50.019c-0.483-5.965,2.689-6.415,6.814-10.296c1.909-1.795,3.501-3.813,4.685-6.155
	c1.266-2.504,1.281-6.6,3.15-8.676c3.214-3.569,10.358-5.558,14.414-8.457c8.484-6.064,15.372-14.173,21.897-22.259
	c15.323-18.99,27.362-39.632,28.492-64.645c0.755-16.721,2.147-40.018-10.502-53.381c-4-4.226-5.599-0.146-7.422,4.305
	c-3.329,8.129-5.104,16.971-8.469,25.16c-5.561,13.535-15.02,26.574-23.729,38.314C370.707,311.164,359.012,321.016,344.398,330.578
	z"/>
<g>
	<path style="fill:#E81D1D;" d="M421.05,323.243c0.776-3.858,1.627-7.691,2.624-11.51c1.543-5.908,8.787-25.019,2.554-29.952
		c-7.018-5.554-19.75,9.689-23.105,14.128c-8.101,10.718-13.921,23.207-20.643,34.812c-5.162,8.912-10.831,18.032-19.558,23.868
		c-12.712,8.502-28.857,9.895-43.199,14.325c-15.89,4.908-31.013,12.789-47.253,16.444c-15.477,3.483-30.534,0.173-45.629-3.679
		c-12.987-3.313-23.555-7.346-32.809-17.358c-6.815-7.374-10.191-16.245-15.529-24.543c-7.657-11.902-17.901-20.922-27.791-30.86
		c-8.75-8.793-16.719-17.988-24.833-27.323c-1.261-1.451-3.932-5.566-6.329-5.208c-2.93,0.439-3.853,8.122-4.387,10.336
		c-14.011,58.158,57.716,87.379,100.159,105.018c3.222,1.339,6.675,2.555,9.789,4.112c7.238,3.621,7.325,12.339,13.426,17.204
		c20.543,16.38,51.986,7.774,75.278,3.982c12.392-2.017,23.126-4.437,33.746-11.205c8.407-5.357,11.223-11.586,14.813-20.649
		c4.013-10.133,16.773-12.243,24.794-18.932C399.977,355.574,413.1,341.476,421.05,323.243z"/>
	<path style="fill:#E81D1D;" d="M215.667,396.227c0.289,7.272-1.768,14.995-2.585,22.21c-1.012,8.944-3.447,20.992-0.701,29.856
		c2.753,8.885,23.302,16.479,26.054,4.262c1.49-6.612,0.778-14.754-0.03-21.412c-0.655-5.401,0.282-11.72-1.066-16.947
		C235.387,406.627,223.252,389.572,215.667,396.227z"/>
	<path style="fill:#E81D1D;" d="M351.733,403.195c-0.634,2.582-0.443,5.438-1.185,8.009c-2.556,8.855-12.342,12.538-20.265,15.187
		c-16.712,5.587-36.388,8.316-51.256,18.279c-8.876,5.948-12.946,14.017-16.378,23.749c-2.382,6.755-5.011,9.166-12.434,7.524
		c-3.451-0.763-8.419-2.033-10.319-5.359c-1.494-2.615-0.778-6.516-0.937-9.426c-0.251-4.582-1.202-9.044-1.582-13.611
		c-0.364-4.367-0.85-8.714-1.171-13.09c-0.322-4.382-2.103-10.908-0.629-15.153c1.455-4.192,5.123-4.85,8.884-3.263
		c5.874,2.478,10.164,4.407,16.841,5.048c17.749,1.704,35.525,1.399,52.954-2.594C329.505,415.003,342.194,408.435,351.733,403.195z
		"/>
</g>
<path style="fill:#6BD046;" d="M135.157,298.199c-8.182,9.695-8.087,25.437-7.025,37.406c0.236,2.664,0.261,6.013,1.741,8.288
	c1.802,2.771,5.617,4.658,8.304,6.533c4.356,3.038,7.943,7.318,12.399,10.143c0.992-4.584,0.59-9.16,1.075-13.749
	c0.6-5.675,2.323-11.968,4.089-17.389c1.2-3.683,4.248-7.398,2.505-11.251c-2.032-4.493-6.731-9.373-10.147-12.667
	C145.053,302.577,140.289,296.82,135.157,298.199z"/>
<g>
	<path style="fill:#8BEB6A;" d="M187.054,336.204c-0.568,1.006-0.422,2.912-0.572,4.263c-0.54,4.845-1.57,9.985-3.346,14.548
		c-2.09,5.37-5.534,11.353-6.589,17.063c-1.007,5.451,4.036,9.564,8.227,11.994c1.991,1.154,3.702,1.513,5.904,1.969
		c2.737,0.566,5.386,2.571,8.003,2.909c3.108,0.401,6.92-3.389,8.268-5.941c2.019-3.825,2.594-9.242,3.987-13.383
		c2.059-6.123,5.851-13.994,4.78-20.602c-1.505-9.279-12.759-9.982-20.012-11.246C192.64,335.077,191.106,336.464,187.054,336.204z"
		/>
	<path style="fill:#8BEB6A;" d="M234.495,350.095c3.605,8.131,5.332,15.849,3.643,24.887c-2.441,13.066-11.068,24.273-1.923,36.519
		c3.28,4.392,9.897,12.349,16.278,10.1c3.665-1.292,4.9-6.378,5.887-9.778c1.633-5.627,1.487-12.09,1.533-17.884
		c0.055-7.126,0.53-13.975-0.84-21.034C256.818,361.277,248.447,344.085,234.495,350.095z"/>
	<path style="fill:#8BEB6A;" d="M275.907,351.668c10.083,7.499,13.716,19.54,14.749,31.457c0.702,8.094,0.374,17.147-1.957,24.965
		c-0.811,2.718-3.681,7.898-2.816,10.8c0.961,3.223,5.864,2.612,8.508,2.36c4.916-0.469,9.821-1.311,14.718-1.966
		c3.077-0.411,7.962-0.366,10.049-2.961c1.494-1.858,1.944-5.865,2.354-8.117c0.677-3.718,1.412-7.474,1.586-11.265
		c0.331-7.232-0.804-14.543-2.641-21.51c-1.498-5.681-4.612-10.232-7.987-14.984c-2.671-3.76-5.639-8.351-9.241-11.274
		C296.562,343.759,284.117,348.832,275.907,351.668z"/>
	<path style="fill:#8BEB6A;" d="M327.28,341.446c2.268,3.323,6.117,5.938,8.72,9.173c3.272,4.065,6.601,8.913,8.577,13.754
		c2.392,5.862,4.221,11.753,3.874,18.165c-0.16,2.951-0.212,5.864-0.204,8.826c0.006,2.19-1.342,7.596,0.265,9.385
		c5.325,5.928,11.821-14.494,12.29-17.557c1.333-8.721,0.479-19.248-2.118-27.694c-2.064-6.711-5.841-17.168-11.751-21.389
		C342.612,331.024,325.728,335.566,327.28,341.446z"/>
	<path style="fill:#8BEB6A;" d="M366.858,313.663c6.62,2.483,12.309,10.913,14.55,17.385c2.602,7.513,4.175,14.892,5.369,22.741
		c0.343,2.253,0.144,7.779,2.061,9.432c2.418,2.085,5.159-0.969,6.872-2.62c6.603-6.362,13.694-15.587,16.878-24.305
		c1.788-4.895,0.726-9.496-1.356-14.17c-3.622-8.13-9.19-15.514-16.671-20.329c-2.512-1.617-8.252-6.106-11.441-5.431
		c-3.039,0.643-7.666,5.793-9.69,7.738C370.484,306.935,367.843,310.026,366.858,313.663z"/>
	<path style="fill:#8BEB6A;" d="M414.299,230.051c-1.116,6.499-4.513,12.777-7.024,18.848c-1.649,3.986-3.443,7.923-4.919,11.977
		c-0.524,1.439-2.385,4.983-2.051,6.657c0.505,2.523,3.872,3.275,6.126,4.233c4.305,1.83,7.396,4.815,10.621,8.087
		c1.549,1.572,3.167,3.104,4.467,4.893c0.819,1.126,2.5,5.354,4.184,5.445c5.077,0.274,3.806-15.882,3.277-18.546
		c-1.853-9.33-2.829-18.808-5.241-28.007C422.713,239.725,420.427,233.156,414.299,230.051z"/>
	<path style="fill:#8BEB6A;" d="M238.426,438.425c-2.239,5.612-1.035,12.43,0.315,18.174c2.019,8.589,5.699,12.486,13.99,15.178
		c13.586,4.411,29.039,2.477,43.06,1.814c11.686-0.553,23.421-0.098,35.085-1.251c3.639-0.36,7.89-0.819,11.132-2.645
		c5.027-2.831,8.466-9.829,10.801-14.825c1.387-2.968,4.052-8.925,3.012-12.344c-0.87-2.863-3.31-1.949-5.793-1.591
		c-19.711,2.847-39.02,8.866-59.135,8.213c-10.333-0.335-21.28-0.41-31.428-2.458c-3.986-0.805-8.096-1.714-11.864-3.274
		C245.619,442.597,238.631,440.684,238.426,438.425z"/>
</g>
<path style="fill:#6BD046;" d="M216.409,400.944c-1.697,5.129-5.68,15.377-2.897,20.578c3.028,5.66,12.643,8.279,18.636,7.146
	c2.387-0.451,3.1-1.657,4.063-4.048c1.044-2.592,3.916-9.266,2.653-11.943c-0.535-1.134-3.004-2.559-3.853-3.368
	c-2.317-2.206-3.772-4.536-5.574-7.105C226.006,397.311,220.15,396.786,216.409,400.944z"/>
<path style="fill:#F13636;" d="M210.119,452.054c-3.233,6.201-3.828,15.793-2.561,22.584c0.68,3.647,4.234,10.24,8.719,7.326
	c2.728-1.772,3.538-6.605,6.279-1.641c1.189,2.153,2.493,6.649,5.675,4.569c1.866-1.22,5.471-6.116,7.626-2.338
	c1.148,2.012,0.96,5.324,1.313,7.59c0.278,1.787,0.487,3.515,1.847,4.86c0.796,0.787,1.826,1.12,2.718,1.752
	c0.69,0.489,1.094,1.127,1.946,1.347c1.416,0.367,2.786-0.406,3.689-1.428c1.826-2.068,2.324-5.554,4.961-6.865
	c3.758-1.869,4.075,5.516,5.465,8.317c1.204,2.428,3.166,5.229,6.002,4.305c3.253-1.059,3.415-7.516,5.95-8.094
	c4.225-0.965,3.146,11.001,8.492,11.241c4.076,0.183,8.92-12.267,12.101-7.25c1.303,2.055,0.666,4.912,2.575,6.824
	c1.952,1.955,4.572,1.9,6.934,0.785c4.308-2.033,6.609-13.952,10.725-6.981c1.296,2.195,2.01,5.497,4.754,6.362
	c3.329,1.049,7.351-2.156,9.099-4.673c1.199-1.727,2.835-7.965,5.583-7.212c2.632,0.721,2.648,6.309,6.101,7.109
	c4.116,0.954,8.347-3.581,9.883-6.823c2.496-5.27,2.653-11.67,2.066-17.357c-0.522-5.053-1.2-7.156-6.545-6.068
	c-8.389,1.708-16.658,3.944-25.181,5.03c-17.168,2.186-34.113,2.309-51.384,1.311c-11.285-0.652-29.165,1.165-29.684-14.068
	c-0.156-4.575-1.036-5.227-5.412-6.318C224.353,454.883,217.637,454.891,210.119,452.054z"/>
<g>
	<path style="fill:#6BD046;" d="M184.008,351.761c3.805,5.811,8.833,11.694,14.462,15.966c2.538,1.926,5.233,3.814,7.94,5.496
		c2.286,1.42,2.652,0.873,2.333,3.321c-0.393,3.015-3.137,8.2-4.805,10.89c-2.172,3.503-3.207,2.052-6.122,0.128
		c-7.017-4.632-15.035-10.521-23.016-13.336c0.462-2.252,2.376-4.871,3.331-7.142c1.289-3.068,2.734-6.035,3.861-9.178
		C182.615,356.17,184.562,352.627,184.008,351.761z"/>
	<path style="fill:#6BD046;" d="M235.835,384.865c3.093-0.164,8.185,2.014,11.494,2.725c4.296,0.923,7.691-0.086,11.799,0.027
		c-0.018,1.382,0.707,2.382,1.073,3.642c0.995,3.418,0.279,6.632-0.217,10.108c-0.541,3.787-0.371,14.76-4.309,16.477
		c-5.116,2.23-17.111-4.652-20.475-8.085C230.494,404.956,231.728,391.315,235.835,384.865z"/>
	<path style="fill:#6BD046;" d="M291.19,381.066c3.115-1.708,6.264-3.54,9.533-5.001c3.905-1.745,11.623-5.996,16.277-5.601
		c5.538,0.47,5.461,11.14,6.097,15.087c1.248,7.746,4.636,25.947-4.73,29.783c-6.755,2.767-14.162,3.19-21.283,4.263
		c-3.096,0.466-8.404,2.56-11.372,1.422C288.95,407.516,290.986,394.413,291.19,381.066z"/>
	<path style="fill:#6BD046;" d="M343.017,363.428c4.517-1.64,8.635-4.446,13.363-5.577c4.57-1.093,4.055,2.109,4.559,6.166
		c1.259,10.135,0.411,31.519-12.418,34.62c-0.532-6.105,1.465-12.38,0.35-18.495C347.693,373.685,345.992,367.046,343.017,363.428z"
		/>
	<path style="fill:#6BD046;" d="M382.634,333.852c1.946-8.284,7.041-17.24,12.001-24.121c4.643-6.44,9.388-0.292,12.365,4.644
		c3.668,6.081,7.378,13.231,4.956,20.47c-2.25,6.725-7.161,13.133-11.215,18.865c-2.526,3.572-6.145,10.826-10.837,11.92
		c-1.984-4.228-1.626-9.62-2.805-14.155C385.36,344.796,383.228,337.85,382.634,333.852z"/>
	<path style="fill:#6BD046;" d="M417.366,279.854c-0.055-0.609,0.266-0.995,0.625-1.926c1.631-4.236,2.777-8.209,4.049-12.612
		c0.482-1.667,1.782-6.992,4.53-6.58c2.047,0.307,2.393,7.174,2.598,8.626c0.574,4.069,1.167,15.314-2.539,18.524
		C423.101,288.941,416.757,284.994,417.366,279.854z"/>
	<path style="fill:#6BD046;" d="M277.08,447.274c-4.716,6.973-8.051,13.359-10.03,21.655c-0.642,2.691-0.936,5.679-3.877,6.851
		c-3.022,1.205-8.613-0.328-11.552-1.266c-7.967-2.541-10.944-6.061-12.713-14.276c-0.995-4.617-0.662-10.021-0.848-14.749
		c-0.081-2.045-0.28-4.447,0.118-6.367c2.431,3.469,10.532,4.618,14.348,5.716c3.944,1.135,7.951,1.864,12.063,2.115
		C269.079,447.229,274.639,447.895,277.08,447.274z"/>
</g>
<path d="M431.705,256.903c-1.52-10.921-4.085-23.845-13.399-29.965c3.333-16.676,3.991-33.882,1.512-50.915
	c-3.508-24.109-12.764-47.319-27.473-66.654c12.968-7.335,20.508-23.953,21.071-38.275c0.663-16.869-8.735-32.349-23.102-40.861
	c-14.617-8.661-32.966-8.893-47.417,0.219c-6.672,4.207-12.296,10.032-16.11,16.946c-2.169,3.932-4.849,9.929-4.734,15.123
	c-10.131-3.009-20.564-5.131-31.051-6.494c-12.967-1.686-26.275-2.786-39.47-2.567c2.706-5.92,4.657-12.464,7.105-18.355
	c2.629-6.329,5.506-12.938,6.418-19.788c1.296-9.741-4.682-17.565-15.027-14.728c-11.542,3.165-17.887,16.343-18.063,27.479
	c-0.127,8.053,2.921,19.91,9.822,25.809c-19.941,1.397-39.361,6.279-56.655,17.287c-7.426,4.726-14.685,10.002-21.633,15.741
	c-1.876-12.766-14.09-23.499-25.936-27.245c-16.383-5.181-35.059,1.174-46.273,13.819c-11.781,13.284-15.083,32.566-10.164,49.413
	c3.779,12.945,16.826,30.395,32.087,29.265c-15.719,38.009-13.91,81.96,3.127,118.744c-16.572,25.029-6.885,59.621,13.966,79.252
	c13.386,12.602,29.251,23.207,45.266,32.137c8.157,4.548,16.543,8.675,25.117,12.376c3.722,1.607,7.566,3.39,11.487,4.946
	c-2.398,7.025-3.301,14.875-4.45,21.928c-1.273,7.813-4.113,17.76-2.275,25.621c0.451,1.93,1.317,3.767,2.491,5.46
	c-2.223,4.789-3.149,10.032-2.974,15.436c0.17,5.236,0.888,13.142,5.525,16.549c4.413,3.242,7.677,1.299,10.012-2.667
	c1.613,4.919,4.535,8.297,9.751,6.98c1.491-0.377,2.742-1.196,3.79-2.318c0.11,0.539,0.21,1.077,0.344,1.621
	c1.003,4.061,2.604,10.598,7.008,12.317c4.566,1.782,7.793-0.611,10.071-4.531c1.459,6.498,4.388,11.774,10.237,10.885
	c3.399-0.517,5.909-2.52,7.736-5.312c0.167,0.604,0.318,1.218,0.514,1.803c1.391,4.154,4.613,6.792,9.188,5.951
	c3.851-0.708,6.643-2.826,8.687-5.69c1.728,4.85,4.716,8.374,9.757,8.355c5.615-0.021,9.1-3.979,11.292-9.284
	c1.987,4.486,5.093,7.531,9.871,6.8c5.155-0.789,8.369-5.495,10.322-11.271c2.484,4.486,6.057,7.469,11.001,6.342
	c11.651-2.656,10.895-28.17,10.035-36.832c1.021-1.082,2.007-2.221,2.914-3.483c12.934-17.979,8.742-40.779,4.105-60.809
	c-0.018-0.077-0.051-0.136-0.071-0.211c3.271-3.246,6.108-6.977,8.33-11.324c1.219-2.385,2.151-4.781,2.852-7.179
	c13.383-3.593,26.073-15.809,34.686-25.597c11.47-13.035,19.943-28.498,24.878-45.143
	C433.248,295.631,434.339,275.839,431.705,256.903z M333.308,54.092c3.558-6.147,8.374-11.56,14.435-15.349
	c11.64-7.278,25.922-7.036,37.633-0.063c11.416,6.798,18.762,18.989,18.119,32.414c-0.645,13.471-7.734,22.533-17.422,30.655
	c-1.989-2.24-4.035-4.435-6.187-6.539c-0.627-0.613-1.266-1.206-1.904-1.802c9.94-4.591,14.808-19.238,5.666-27.087
	c-0.376-0.323-2.257-1.311-3.377-2.006c0.761-0.402,1.696-2.215,1.803-2.411c0.913-1.659,0.928-3.958-0.03-5.605
	c-2.152-3.7-7.663-3.948-12.32-3.549c1.431-7.448-4.485-12.246-12.909-6.519c-8.053,5.475-13.008,15.293-12.191,24.85
	c-5.134-2.411-10.409-4.538-15.794-6.384C330.543,61.338,331.433,57.332,333.308,54.092z M366.45,58.537
	c2.785-0.524,8.566-0.648,8.824,2.554c0.046,0.573-1.474,2.708-1.598,3.593c-0.212,1.506,0.181,2.613,1.426,3.504
	c6.245,4.47,8.261,9.514,2.347,15.796c-1.73,1.837-3.265,3.031-4.573,4.919c-7.15-5.957-14.891-11.014-23.059-15.261
	c0.419-4.224,1.28-8.534,3.101-12.313c0.932-1.935,2.14-3.887,3.525-5.524c0.795-0.955,1.668-1.829,2.619-2.624
	C363.357,49.591,361.877,59.397,366.45,58.537z M239.372,34.9c-1.366-6.219-1.56-13.744,1.479-19.578
	c2.866-5.502,9.952-12.487,16.026-8.088c9.552,6.917-5.158,29.091-9.988,42.853C243.836,45.325,240.712,41.003,239.372,34.9z
	 M100.218,135.931c-6.275-4.686-9.75-12.059-11.259-19.604c-2.7-13.5,0.827-28.404,10.665-38.277
	c9.057-9.089,23.071-13.786,35.574-9.823c11.917,3.778,17.961,12.656,23.276,22.961c-3.589,3.16-7.068,6.457-10.428,9.869
	c-1.337-9.185-13.512-15.579-21.7-16.745c-4.582-0.652-10.461-0.501-13.444,3.618c-2.172,2.999-1.381,5.179-0.205,7.721
	c-2.619,3.218-6.416,4.903-6.016,9.981c0.203,2.57,1.373,4.518,3.084,5.961c-4.764,9.351,2.414,20.243,12.563,22.477
	c-1.559,2.629-3.045,5.294-4.431,8.002C111.722,140.052,105.794,140.096,100.218,135.931z M115.626,107.136
	c-4.755-1.628,3.883-8.114,4.296-9.749c0.756-2.992-2.004-4.047,1.542-5.87c3.536-1.817,11.584,2.173,14.415,3.996
	c3.621,2.331,6.114,5.821,9.506,8.298c-7.116,7.517-13.617,15.587-19.243,24.14c-5.876-2.494-15.857-7.283-8.986-15.018
	C118.944,110.921,118.166,108.006,115.626,107.136z M118.25,168.784c8.708-30.065,29.137-55.175,53.105-74.679
	c13.023-10.598,27.424-20.418,43.691-25.178c16.343-4.782,33.865-4.665,50.737-3.969c31.752,1.31,64.557,7.593,91.243,25.772
	c24.101,16.417,40.794,42.316,48.871,70.082c17.489,60.124-10.113,117.283-52.56,158.625c-23.653,14.042-48.831,22.342-76.97,24.335
	c-29.552,2.093-60.102-2.523-87.101-14.986c-28.253-13.042-51.146-34.632-64.127-63.082
	C111.5,235.809,109.122,200.299,118.25,168.784z M306.781,350.164c6.695-1.643,13.294-3.699,19.709-6.169
	c7.289,6.502,13.242,14.79,16.528,23.905c4.008,11.12,2.887,21.228,1.793,32.345c-5.953,4.427-13.052,7.711-20.614,10.151
	C330.994,389.226,322.974,364.861,306.781,350.164z M293.122,379.811c-1.833-9.853-6.141-18.435-12.995-25.189
	c7.945-0.735,15.952-1.986,23.856-3.787c6.673,7.574,12.168,16.661,14.964,26.233c3.554,12.17,2.063,23.173-0.577,35.041
	c-9.419,2.479-19.229,3.856-28.152,4.698C294.995,405.798,295.151,390.719,293.122,379.811z M255.271,355.262
	c3.214,0.122,6.425,0.192,9.627,0.155c3.892-0.044,7.83-0.226,11.786-0.519c6.594,8.262,10.785,18.289,12.082,28.817
	c1.465,11.882-2.443,22.262-3.848,33.546c-8.225,0.623-16.766,0.663-25.003-0.658C265.732,397.928,266.197,371.853,255.271,355.262z
	 M127.371,314.185c-0.852,5.402-1.311,11.204-0.746,16.815c-3.957-5.64-6.98-11.914-8.637-19.067
	c-2.716-11.728-1.408-22.875,1.92-33.857c3.573,6.715,7.68,13.146,12.297,19.209C129.251,302.345,128.13,309.381,127.371,314.185z
	 M149.506,353.043c-1.491-1.111-2.973-2.235-4.437-3.38c-4.963-3.886-9.603-8.04-13.647-12.613
	c-0.222-6.823-0.941-13.493,0.07-20.421c0.786-5.388,2.255-10.191,4.321-14.867c5.933,7.146,12.607,13.721,20.024,19.555
	c-2.549,5.675-4.15,11.854-5.166,17.886C149.944,343.522,149.027,348.464,149.506,353.043z M153.853,356.2
	c-1.435-6.695,1.183-15.694,2.819-21.782c0.912-3.395,2.125-6.658,3.398-9.9c7.271,5.24,15.012,9.762,23.081,13.62
	c-2.457,10.686-4.77,21.352-7.405,32.019C168.24,365.844,160.904,361.216,153.853,356.2z M186.429,376.04
	c-2.641-1.376-5.261-2.8-7.864-4.257c4.897-9.477,8.364-20.768,9.259-31.497c8.047,3.537,16.392,6.423,24.91,8.697
	c-1.335,12.619-4.408,23.2-10.016,34.871C197.201,381.435,191.769,378.822,186.429,376.04z M207.722,385.984
	c-0.514-0.211-1.02-0.438-1.533-0.653c7.266-9.792,11.591-22.737,11.698-35.056c3.715,0.877,7.456,1.646,11.217,2.294
	c2.603,4.375,4.175,8.705,3.818,14.465c-0.439,7.087-3.388,13.826-4.802,20.724c-0.389,1.895-0.692,3.84-0.883,5.798
	C221.153,390.306,214.085,388.606,207.722,385.984z M218.613,467.032c-0.202,1.785-0.529,3.557-1.087,5.306
	c-0.436,1.364-1.425,6.626-3.22,6.629c-1.95,0.003-2.953-4.461-3.382-5.808c-1.746-5.484-1.275-11.508-0.127-17.246
	c2.247,2.119,4.995,3.845,7.932,5.053C218.666,462.467,218.594,464.598,218.613,467.032z M229.558,480.553
	c-0.087,0.082-0.178,0.152-0.272,0.208c-1.572,0.936-2.47-1.658-2.775-2.743c-0.647-2.301-1.03-4.649-1.148-7.043
	c-0.175-2.333-0.155-4.679-0.086-7.021c0.038-0.442,0.067-0.861,0.091-1.258c2.054,0.23,4.083,0.163,6.01-0.243
	c-0.105,4.355,0.757,8.753,0.033,13.088C231.211,476.74,230.621,479.553,229.558,480.553z M232.062,449.578
	c0.005,0.541,0.006,1.088,0.006,1.64c-5.613,1.282-11.28,0.591-15.169-4.537c-3.606-4.755-1.889-11.732-1.395-17.55
	c0.071-0.84,0.167-1.689,0.264-2.54c4.797,2.447,11.011,4.296,16.597,4.251C231.928,437.158,232.009,443.556,232.062,449.578z
	 M232.867,425.551c-2.286-0.298-4.629-0.416-6.86-0.778c-3.278-0.532-6.498-1.324-9.762-1.916
	c0.978-6.872,2.392-13.977,2.787-20.887c2.548,0.724,5.117,1.272,7.703,1.489c0.259,0.022,0.503,0.013,0.742-0.005
	c0.768,4.645,2.597,9.03,6.053,12.645c0.304,0.318,0.626,0.613,0.945,0.912C233.741,419.778,233.233,422.642,232.867,425.551z
	 M237.723,387.078c1.763-8.279,5.65-23.517,1.437-33.053c3.993,0.474,7.997,0.817,11.999,1.052
	c3.893,9.849,6.965,19.278,7.251,30.203c0.272,10.404-2.156,20.194-3.681,30.268c-0.952-0.228-1.907-0.45-2.847-0.722
	C237.756,410.739,234.853,400.558,237.723,387.078z M239.959,488.273c-1.228-3.518-1.822-7.205-2.028-10.924
	c0.177-1.083,0.305-2.19,0.376-3.304c0.046,0.04,0.084,0.085,0.131,0.125c3.14,2.678,7.123,4.127,11.322,5.003
	C248.527,486.289,244.434,501.095,239.959,488.273z M266.074,490.933c-0.757,2.04-1.493,7.159-4.44,6.775
	c-2.406-0.313-3.814-4.415-4.29-6.427c-0.853-3.61-0.843-7.412-0.792-11.101c2.57,0.266,5.101,0.447,7.452,0.679
	c0.944,0.093,1.891,0.148,2.835,0.231c0.065,0.72,0.124,1.45,0.182,2.181C267.071,485.821,266.795,488.326,266.074,490.933z
	 M285.698,490.618c-0.528,4.025-1.729,7.734-4.401,9.326c-7.12,4.239-5.7-5.731-6.205-9.686c-0.366-2.872-0.732-5.743-1.099-8.615
	c3.926,0.241,7.856,0.373,11.789,0.443C285.649,484.534,285.576,487.504,285.698,490.618z M304.024,492.945
	c-0.555,2.501-3.069,14.558-9.092,8.857c-1.326-1.255-2.035-10.024-2.116-10.978c-0.066-0.776-0.095-1.549-0.123-2.323
	c0.237-2.214,0.351-4.373,0.383-6.37c2.435-0.021,4.87-0.051,7.304-0.137c1.693-0.06,3.423-0.123,5.167-0.193
	C305.293,485.548,304.843,489.253,304.024,492.945z M323.234,489.941c-0.504,2.136-1.93,9.095-3.552,9.842
	c-6.656,3.063-7.152-12.09-7.01-18.36c3.911-0.269,7.843-0.681,11.696-1.35c0.001,0.009,0.001,0.018,0.001,0.027
	C324.327,483.405,324.008,486.659,323.234,489.941z M340.847,491.506c-0.961,2.373-2.39,3.787-4.509,3.127
	c-3.493-1.087-4.406-9.176-4.575-12.187c0.072-1.488,0.096-2.869,0.083-4.086c3.859-1.127,7.54-2.637,10.918-4.685
	C342.806,476.099,342.996,486.2,340.847,491.506z M345.578,456.864c-9.808,15.527-32.274,14.78-48.506,15.274
	c-8.824,0.268-17.661,0.107-26.469-0.485c-7.105-0.478-19.565,0.413-25.451-4.303c-5.455-4.37-5.119-16.127-4.964-24.451
	c16.257,7.087,36.336,8.085,53.494,8.11c17.804,0.026,40.089-0.753,57.025-8.013C349.928,447.824,348.336,452.497,345.578,456.864z
	 M351.239,437.673c-8.163,1.041-16.159,3.626-24.284,4.995c-10.456,1.762-21.042,2.719-31.645,2.87
	c-18.309,0.261-37.333-1.412-55.09-6.355c-0.004-0.388-0.006-0.777-0.018-1.13c-0.188-5.678,0.018-11.41-0.33-17.085
	c6.825,3.857,15.191,5.258,22.743,6.115c13.952,1.584,27.997,0.217,41.758-2.281c14.378-2.611,30.606-6.238,43.435-14.291
	C349.807,419.288,351.668,428.649,351.239,437.673z M351.278,394.438c3.538-19.035-6.659-39.498-21.384-51.788
	c4.343-1.795,8.59-3.789,12.703-5.999C356.398,353.066,367.484,376.408,351.278,394.438z M377.863,368.382
	c-2.581,1.79-5.335,3.326-8.043,4.919c-0.11-15.159-8.475-29.847-18.335-41.857c6.016-3.894,11.667-8.293,16.818-13.249
	c0.12-0.116,0.197-0.245,0.294-0.369c13.805,10.669,14.583,28.075,17.001,44.548C383.122,364.505,380.548,366.519,377.863,368.382z
	 M393.195,355.148c-0.757,0.794-1.544,1.559-2.324,2.331c-0.493-8.473-2.743-17.294-5.761-24.534
	c-2.696-6.466-7.577-15.599-14.544-19.132c5.153-4.963,9.964-10.279,14.434-15.869c7.985,3.596,14.395,9.206,19.066,16.866
	c3.071,5.037,4.586,10.577,6.439,15.99C405.891,339.664,400.086,347.912,393.195,355.148z M416.425,317.346
	c-0.688,1.917-1.442,3.81-2.237,5.686c-4.64-12.466-14.762-24.014-26.577-28.446c5.232-6.894,9.928-14.194,14.044-21.802
	c3.977,2.101,7.895,4.117,11.346,7.187c2.054,1.827,3.948,3.861,5.538,6.107c1.399,1.976,2.354,4.208,4.085,5.878
	C421.42,300.591,419.384,309.104,416.425,317.346z M423.455,284.384c-2.127-3.268-5.256-6.228-7.675-8.234
	c-3.591-2.978-7.802-5.571-12.367-6.696c5.708-11.14,10.172-22.906,13.209-35.025c6.492,9.744,6.936,24.136,7.252,34.972
	C424.02,274.407,423.859,279.408,423.455,284.384z"/>
<path d="M241.104,330.613c17.464,5.596,36.938,4.357,54.657,0.566c16.638-3.56,32.31-11.195,42.369-25.342
	c18.523-26.05,18.554-66.11-2.606-90.469c-0.977-1.125-1.991-2.219-3.039-3.278c-15.752-15.921-38.541-22.913-60.616-20.981
	c-23.787,2.082-46.411,14.342-60.1,34.003c-5.694,8.177-9.661,17.508-11.623,27.276
	C193.573,285.094,207.995,320.003,241.104,330.613z M206.371,264.785c0.524-23.751,13.964-45.499,34.083-57.815
	c10.934-6.693,26.054-8.031,38.631-7.734c13.461,0.317,26.703,4.021,37.829,11.736c0.233,0.162,0.465,0.325,0.695,0.489
	c24.629,17.558,30.2,49.017,19.751,76.468c-11.536,30.306-45.975,38.857-75.568,37.221c-15.351-0.848-31.258-6.071-41.536-18.065
	C210.379,295.559,206.041,279.768,206.371,264.785z"/>
<path d="M288.132,254.714c13.919-7.778,19.882-28.619,6.032-39.602c-2.517-1.996-5.487-3.359-8.56-4.248
	c-11.142-3.223-22.884-0.345-32.148,6.356c-8.171,5.911-15.087,15.785-11.416,26.217
	C248.221,260.998,274.098,262.557,288.132,254.714z M265.679,218.304c5.251-1.544,10.909-1.682,16.751-0.069
	c15.214,4.202,13.764,22.399,1.513,29.31c-9.641,5.438-28.375,5.876-34.946-4.707C242.131,231.78,254.602,222.828,265.679,218.304z"
	/>
<path d="M294.276,284.618c-4.091,6.912-5.188,13.13-14.585,14.738c-10.556,1.806-16.419-3.743-20.785-12.296
	c-1.407-2.757-6.437-2.333-6.963,0.91c-2.484,15.323,14.801,23.605,27.885,22.41c11.527-1.052,28.048-12.475,21.505-25.763
	C299.944,281.796,295.752,282.124,294.276,284.618z"/>
<path d="M181.526,203.989c11.404,8.889,26.533-5.648,23.484-17.976c-2-8.088-10.553-12.6-18.448-10.238
	c-5.676,1.698-9.13,6.523-9.827,12.283C176.111,193.216,177.18,200.601,181.526,203.989z"/>
<path d="M323.441,184.19c3.7,3.154,9.028,3.861,14.035,1.177c6.504-3.487,11.131-11.579,9.301-18.98
	c-3.297-13.33-21.777-14.71-27.384-2.411c-1.828,4.009-1.257,9.203-0.15,13.361C320.006,180.205,321.499,182.535,323.441,184.19z"/>
<g>
</g>
<g>
</g>
<g>
</g>
<g>
</g>
<g>
</g>
<g>
</g>
<g>
</g>
<g>
</g>
<g>
</g>
<g>
</g>
<g>
</g>
<g>
</g>
<g>
</g>
<g>
</g>
<g>
</g>
</svg>
