<?xml version="1.0" encoding="iso-8859-1"?>
<!-- Generator: Adobe Illustrator 19.0.0, SVG Export Plug-In . SVG Version: 6.00 Build 0)  -->
<svg version="1.1" id="Capa_1" xmlns="http://www.w3.org/2000/svg" xmlns:xlink="http://www.w3.org/1999/xlink" x="0px" y="0px"
	 viewBox="0 0 511.998 511.998" style="enable-background:new 0 0 511.998 511.998;" xml:space="preserve">
<path style="fill:#7F7B78;" d="M190.28,207.988c-28.29,11.712-55.861,29.291-70.166,56.363
	c-13.798,26.112-13.384,57.168-12.025,86.671c1.377,29.882,3.849,61.216,20.084,86.34c7.449,11.528,17.258,19.868,28.186,27.9
	c9.402,6.911,16.515,14.857,27.455,20.202c22.92,11.2,48.91,14.609,74.115,15.897c36.095,1.845,73.229-0.23,106.567-14.192
	c39.057-16.357,70.686-48.805,87.951-87.47c17.264-38.665,20.422-83.1,10.847-124.348c-12.32-53.069-50.909-102.469-110.311-97.566
	c-35.469,2.928-70.814,5.149-105.697,12.715C227.838,194.719,208.677,200.372,190.28,207.988z"/>
<path style="fill:#716F6B;" d="M142.056,236.343c14.252-12.873,31.348-22.222,48.952-29.899
	c25.736-11.223,52.93-19.084,80.672-23.396c13.871-2.156,27.88-3.426,41.913-3.786c12.098-0.31,24.079-2.26,36.116-0.18
	c1.998,0.345,4.289,1.012,5.031,2.899c1.238,3.151-2.805,5.656-6.042,6.648c-6.403,1.961-12.806,3.923-19.208,5.884
	c-20.009,6.13-40.017,12.26-60.026,18.389c-14.536,4.453-28.472,13.183-40.309,22.856c-24.428,19.964-41.419,49.092-45.965,80.38
	c-5.771,39.718,8.687,81.848,37.629,109.653c28.942,27.805,71.618,40.563,111.072,33.206c18-3.357,34.516-11.35,51.842-16.466
	c17.813-5.26,35.168-15.911,49.792-27.143c2.074-1.593,5.194-3.193,7.001-1.303c1.428,1.493,0.684,3.939-0.202,5.806
	c-28.347,59.806-103.816,86.378-166.248,85.484c-19.933-0.285-39.839-3.37-58.849-9.398c-40.268-12.77-77.666-39.339-95.713-77.534
	c-11.432-24.196-14.358-51.295-13.246-77.772c0.572-13.614,2.218-27.145,4.287-40.605c1.619-10.534,2.256-20.216,6.62-30.129
	C122.835,257.078,131.665,245.728,142.056,236.343z"/>
<path style="fill:#F7F7F0;" d="M248.708,253.12c-27.785-2.792-54.58,10.684-73.658,30.158
	c-32.682,33.359-34.388,83.032-7.652,120.965c19.329,27.424,50.597,45.102,83.435,51.984c34.741,7.281,71.848,3.051,103.909-12.181
	s58.851-41.427,74.483-73.295c10.045-20.479,15.544-43.924,11.077-66.292c-5.452-27.299-26.464-50.926-52.94-59.527
	c-26.476-8.601-57.362-1.835-77.817,17.048c-3.207,2.961-6.225,6.23-10.047,8.337c-9.911,5.464-15.769-2.152-23.362-7.244
	C267.878,257.538,258.61,254.115,248.708,253.12z"/>
<path style="fill:#F1F1E7;" d="M230.428,449.992c-23.92-7.493-46.6-20.652-62.141-40.319c-25.73-32.56-27.641-81.882-4.507-116.335
	c3.109-4.63,6.714-9.089,11.479-11.986s10.889-4.021,15.993-1.774c9.589,4.221,11.059,16.993,10.99,27.469
	c-0.195,29.553-0.874,61.141,15.057,86.034c17.267,26.98,51.641,39.832,83.556,37.098s61.375-18.991,85.877-39.623
	c10.416-8.771,20.118-18.371,30.659-26.991c3.414-2.791,8.07-5.602,11.925-3.46c2.659,1.478,3.716,4.924,3.246,7.93
	c-0.47,3.006-2.16,5.665-3.892,8.166c-13.628,19.672-32.097,35.397-50.344,50.881c-10.119,8.587-20.332,17.239-32,23.562
	c-15.984,8.662-33.6,10.298-51.451,9.421C273.123,458.996,251.282,456.525,230.428,449.992z"/>
<path style="fill:#FB743C;" d="M277.915,371.281c2.178,9.031,8.502,17.277,17.219,20.487c8.717,3.211,19.613,0.559,24.915-7.069
	c2.593-3.729,3.742-8.245,5.638-12.373c1.895-4.128,4.971-8.184,9.403-9.179c2.467-0.554,5.22-0.127,7.39-1.424
	c2.552-1.526,3.334-5.021,2.598-7.902c-0.736-2.881-2.649-5.294-4.514-7.611c-9.105-11.313-27.767-32.665-44.747-23.203
	C281.737,330.854,274.417,356.78,277.915,371.281z"/>
<path style="fill:#F45C28;" d="M275.161,356.451c-0.006-3.418,0.874-7.426,4.003-8.802c3.411-1.5,7.101,1.025,10.35,2.85
	c12.587,7.068,28.107,4.212,42.439,2.479c2.234-0.27,4.56-0.498,6.683,0.249c2.122,0.747,3.972,2.759,3.78,5.001
	c-0.193,2.247-2.28,3.872-4.391,4.667c-2.111,0.794-4.42,1.063-6.413,2.118c-5.085,2.694-6.336,9.234-9.057,14.305
	C306.812,408.657,275.201,379.391,275.161,356.451z"/>
<path style="fill:#F13636;" d="M87.177,231.904c-2.908,6.822-5.871,14.286-3.961,21.451c0.965,3.618,3.129,6.876,3.722,10.573
	c0.769,4.794-1.195,9.561-1.757,14.384c-1.447,12.414,7.892,25.136,20.169,27.475c0.76-35.371,23.976-67.477,53.697-86.669
	c29.721-19.193,65.234-27.25,100.307-31.892c38.441-5.088,77.43-6.481,116.051-3.02c20.358,1.825,42.743,6.21,55.023,22.549
	c4.286,5.703,8.298,13.352,15.426,13.648c7.106,0.295,12.141-7.892,11.338-14.959c-0.803-7.066-5.508-12.986-10.026-18.479
	c-12.178-14.807-24.356-29.614-36.534-44.42c-6.73-8.183-14.311-16.892-24.713-18.906c-7.283-1.41-15.001,0.733-22.144-1.27
	c-9.163-2.57-16.357-11.669-25.861-11.184c-9.182,0.469-15.728,9.799-24.775,11.435c-10.75,1.944-21.141-7.514-31.89-5.561
	c-11.497,2.089-18.562,16.408-30.247,16.471c-8.115,0.044-15.497-7.138-23.415-5.365c-9.172,2.053-13.147,14.924-22.478,16.051
	c-5.576,0.673-10.632-3.268-16.175-4.177c-13.606-2.229-23.286,13.331-36.421,17.52c-3.874,1.235-8.026,1.449-11.859,2.804
	c-6.05,2.139-10.744,6.893-15.213,11.499c-7.826,8.066-18.435,16.239-23.86,26.047c-2.86,5.17-4.733,11.309-7.054,16.754
	C92.609,219.162,87.177,227.088,87.177,231.904z"/>
<path style="fill:#E81D1D;" d="M386.582,182.563c-21.36-6.002-43.916-6.287-66.059-4.89c-37.994,2.397-75.68,9.641-111.855,21.5
	c-18.572,6.089-36.948,13.497-52.849,24.862s-29.276,27.041-35.043,45.715c-3.403,11.02-6.076,25.084-17.203,28.118
	c-8.095,2.207-16.652-3.545-20.488-11.007c-3.836-7.462-4.091-16.186-4.266-24.574c-0.1-4.806-0.164-9.797,1.81-14.179
	c3.22-7.148,11.226-11.289,14.281-18.509c4.691-11.086-3.227-26.73,5.938-34.536c7.247-6.172,18.318-1.174,27.758-2.395
	c18.391-2.379,27.342-27.706,45.802-29.48c9.769-0.939,19.167,5.313,28.937,4.377c8.782-0.841,16.838-7.198,24.572-10.953
	c8.028-3.897,14.986-7.616,23.779-9.862c8.248-2.108,15.203-1.712,22.655,2.348c5.356,2.918,10.061,5.456,16.408,5.432
	c14.451-0.055,24.711-13.444,39.731-13.445c11.77-0.001,15.549,12.497,26.484,14.179c11.593,1.783,25-4.916,35.991,0.93
	c6.86,3.649,7.756,10.79,16.548,11.338c7.88,0.492,12.813-0.502,19.172,4.977c6.529,5.626,14.786,11.338,19.569,18.491
	c4.612,6.897,7.894,18.29,1.423,25.263c-6.663,7.181-13.714-3.337-18.118-7.906C419.404,195.748,403.339,187.271,386.582,182.563z"
	/>
<path style="fill:#F13636;" d="M119.073,61.336c5.489,5.07,13.249,19.816,5.077,24.73c-12.613,7.586-28.799,14.41-35.381,28.772
	c-2.308,5.035-3.317,10.961-4.11,16.422c-0.54,3.715,0.297,12.46-2.387,15.431c-1.982,2.194-8.036,2.852-10.681,3.575
	c-6.27,1.713-12.154,1.611-18.523-0.567c-5.549-1.898-13.308-8.554-14.328-14.679c-1.341-8.055,5.899-7.764,8.37-13.405
	c2.745-6.266-9.731-12.272-9.086-20.512c0.424-5.416,5.92-10.979,9.986-14.157c2.765-2.161,6.161-2.904,7.187-6.543
	c1.231-4.368-1.146-8.391,1.324-12.865c2.489-4.508,7.748-6.858,12.466-8.289c5.651-1.714,8.506-0.04,13.729,1.191
	c5.251,1.237,5.758-0.704,9.027-4.219C101.29,45.957,109.709,54.752,119.073,61.336z"/>
<path style="fill:#E81D1D;" d="M128.605,80.4c-1.871-15.187-23.176-16.58-32.581-8.358c-5.268,4.605-6.482,12.731-13.933,14.291
	c-7.152,1.497-15.981-0.43-23.243-0.652c-7.205-0.22-17.296,1.328-20.543,9.105c-1.962,4.699,0.833,9.563,3.173,13.584
	c4.011,6.894,7.777,10.154,2.668,17.652c-8.495,12.469,1.509,23.216,14.402,25.443c5.897,1.019,18.677,1.784,22.729-3.893
	c1.779-2.493,1.754-7.6,2.337-10.419c1.989-9.619,5.097-19.407,10.188-27.876C101.956,95.712,116.446,86.663,128.605,80.4z"/>
<path style="fill:#8BEB6A;" d="M100.874,99.899c-17.941,22.734-17.386,49.193-14.851,76.226c0.471,5.018,0.884,22.089,6.165,25.212
	c6.475,3.829,12.915-10.207,16.282-13.637c5.434-5.538,10.259-9.538,17.394-12.381c8.418-3.354,8.09-12.521,15.396-16.987
	c6.381-3.901,12.185,0.124,18.561-1.028c9.116-1.647,11.357-14.578,20.738-17.688c7.22-2.393,13.761-1.317,20.759,1.12
	c9.007,3.136,9.239-0.019,16.255-5.817c5.003-4.133,10.574-7.08,17.005-5.672c6.948,1.521,12.323,6.755,19.736,4.516
	c9.518-2.875,14.766-11.967,25.01-13.981c8.543-1.68,16.815-0.038,25.008,2.429c7.65,2.304,10.067,1.686,17.208-1.947
	c6.618-3.367,23.137-2.91,14.405-13.162c-5.468-6.42-15.367-8.431-23.038-10.886c-11.785-3.772-23.716-7.299-35.712-10.328
	c-21.641-5.466-45.914-9.042-68.169-10.461C173.168,73.138,133.001,73.128,100.874,99.899z"/>
<path style="fill:#6BD046;" d="M342.652,111.598c-5.751-8.774-19.058-12.557-28.608-14.293c-14.717-2.677-31.284-3.531-46.046-0.822
	c-17.619,3.233-34.688,10.183-52.059,14.564c-13.133,3.312-25.179,4.543-38.365,0.754c-10.235-2.941-18.848-8.972-28.642-12.899
	c-14.353-5.755-38.329-9.353-50.296,3.731c-7.356,8.042-10.915,23.869-13.511,34.219c-2.757,10.99-2.289,23.885-0.303,34.978
	c1.063,5.938,2.848,21.524,8.32,25.119c7.901,5.191,11.905-6.74,15.965-10.849c4.358-4.411,9.3-4.465,13.891-7.803
	c7.65-5.562,9.174-16.835,18.539-20.32c2.965-1.103,5.498-1.918,8.666-1.693c2.953,0.209,4.812,1.919,7.961,0.79
	c3.89-1.394,6.078-5.96,8.68-8.809c3.409-3.732,7.08-6.174,12.009-7.338c6.705-1.584,10.959,0.341,17.201,1.778
	c8.74,2.013,12.971-4.278,19.861-8.584c6.147-3.841,11.125-5.187,18.318-3.925c5.728,1.005,10.816,4.178,16.804,2.682
	c9.843-2.459,16.498-10.736,27.075-12.341c8.698-1.32,14.917,1.029,22.854,3.645c8.949,2.95,16.016-3.9,24.949-4.934
	C330.813,118.684,343.452,118.658,342.652,111.598z"/>
<path d="M451.791,223.598c6.325-5.34,9.89-12.626,9.21-21.234c-0.343-4.339-1.819-8.594-4.42-12.095
	c-2.801-3.769-7.246-5.609-9.957-9.354c-3.159-4.363-2.763-10.605-5.363-15.605c-2.168-4.171-5.182-7.704-8.937-10.543
	c-4.074-3.079-8.892-3.203-12.894-5.692c-4.33-2.693-4.018-10.312-6.302-14.651c-4.082-7.755-11.287-13.683-19.457-16.705
	c-4.046-1.496-8.424-2.4-12.764-2.342c-3.216,0.043-5.884,1.037-8.644,1.939c-14.604-10.481-32.251-17.453-48.968-23.627
	c-18.51-6.836-37.544-12.252-56.878-16.194c-6.223-1.269-12.525-2.425-18.878-3.454c2.269-6.882,4.563-13.704,7.472-20.517
	c3.675-8.607,7.473-17.29,9.438-26.483c2.702-12.64-0.201-28.03-16.355-26.991c-14.876,0.955-22.259,17.42-24.496,30.172
	c-2.779,15.846,5.772,30.105,15.239,42.499c-26.456-3.734-53.63-5.004-79.812-1.984c-9.794,1.13-19.669,3.178-29.004,6.419
	c0.691-22.237-36.129-42.601-44.907-23.657c-15.189-3.042-33.933,0.374-37.483,18.152c-0.332,1.66,0.161,8.441,0.44,7.819
	c-0.735,1.64-7.347,3.86-9.208,5.769c-5.581,5.726-7.713,13.97-5.727,21.679c0.919,3.569,2.722,6.872,5.188,9.61
	c0.637,0.708,2.057,1.608,3.072,2.478c-0.274,0.282-0.653,0.655-1.264,1.178c-5.311,4.548-6.462,13.16-4.721,19.55
	c5.057,18.56,26.501,20.164,42.25,16.333c0.083,2.23,0.232,4.459,0.45,6.681c1.418,14.413,4.253,30.484,10.177,44.314
	c-1.499,5.484-1.863,11.241-0.768,16.829c-14.199,9.542-17.78,29.162-6.343,42.645c-4.675,8.224-6.201,18.004-1.745,26.962
	c2.574,5.174,6.768,9.809,12.022,12.335c6.167,2.965,12.183,3.127,10.78,11.26c-1.648,9.55-2.166,19.383-2.377,29.116
	c-0.431,19.884,1.295,39.966,6.963,59.097c15.741,53.137,62.856,88.444,115.499,100.607c29.631,6.846,60.749,7.53,90.877,3.969
	c28.974-3.425,57.324-11.657,80.986-29.258c43.447-32.317,75.574-84.061,83.575-137.728
	C483.593,303.747,475.629,257.32,451.791,223.598z M230.206,39.261c-0.727-10.389,12.895-44.731,25.056-26.979
	c7.51,10.962-3.227,29.681-7.887,40.71c-1.984,4.695-4.166,9.491-5.96,14.396C236.409,58.274,230.877,48.839,230.206,39.261z
	 M77.899,144.157c-0.152,0.025-0.295,0.025-0.451,0.061c-7.658,1.792-16.35,3.784-23.803,0.15
	c-8.112-3.956-9.262-11.322-3.811-17.661c6.651-7.735,3.389-10.565-2.685-17.091c-6.695-7.194-3.292-15.396,4.141-19.717
	c2.831-1.646,5.359-2.24,6.736-5.602c2.457-5.998-1.556-11.076,3.64-16.824c6.461-7.148,17.573-5.083,25.636-2.622
	c4.66,1.418,7.133-4.231,10.305-6.226c3.883-2.442,8.004-1.169,11.591,1.066c2.528,1.576,4.831,3.424,6.909,5.544
	c4.001,4.015,6.874,8.862,7.317,14.463c-15.696,6.68-29.269,17.257-37.286,33.536C81.351,122.954,78.746,133.464,77.899,144.157z
	 M88.278,162.748c-0.772-15.877,1.331-32.68,9.415-46.638c15.699-27.106,49.224-33.842,78.104-35.009
	c13.697-0.554,27.426-0.242,41.09,0.856c19.572,1.573,40.011,4.944,59.071,9.59c16.177,3.943,32.1,8.922,47.637,14.911
	c3.065,1.181,6.098,2.449,9.121,3.746c-7.331,0.942-14.265,3.803-20.023,8.388c-8.366-4.926-18.087-7.263-27.838-6.376
	c-5.343,0.486-10.547,1.782-15.428,4.022c-5.122,2.351-8.315,6.683-12.963,9.221c-5.581,3.046-10.785-1.959-16.393-3.039
	c-5.27-1.014-10.884-0.708-16.057,0.701c-8.416,2.293-15.718,7.479-20.404,14.682c-18.431-6.076-38.272-1.102-50.89,13.997
	c-8.378-0.348-16.603,2.218-23.028,7.856c-3.331,2.924-5.599,6.32-7.772,10.132c-3.756,6.589-8.412,8.675-14.728,12.335
	c-5.347,3.099-9.909,7.532-13.35,12.712C91.604,184.218,88.808,173.645,88.278,162.748z M103.784,302.587
	c-11.562-7.397-22.916-18.664-11.668-32.876c2.302-2.908,2.091-6.539-1.122-8.708c-12.366-8.349-7.954-24.433,5.739-27.77
	c3.459-0.843,5.291-4.614,4.497-7.921c-1.818-7.572-1.996-15.309,1.355-22.521c4.025-8.666,10.997-11.205,18.583-15.811
	c5.623-3.414,7.664-7.411,11.196-12.68c5.46-8.145,13.299-11.66,23.022-10.602c2.108,0.229,3.953-1.318,5.059-2.902
	c9.409-13.472,28.176-18.725,42.872-10.969c2.649,1.398,6.348,0.779,7.846-2.057c4.625-8.755,13.346-14.431,23.448-13.905
	c7.934,0.413,15.192,8.403,23.413,5.522c7.788-2.729,11.911-11.498,20.232-14.485c10.352-3.717,22.432-2.056,30.886,5.054
	c2.523,2.122,5.671,2.216,8.204,0c7.222-6.318,16.451-9.579,26.078-7.719c7.746,1.497,13.069,8.82,20.709,9.557
	c7.296,0.704,13.289-4.802,20.963-3.643c8.509,1.285,16.399,7.184,19.058,15.519c1.95,6.111,1.584,11.936,7.997,15.372
	c8.222,4.405,16.295,4.207,19.685,14.718c2.293,7.108,1.622,12.39,7.74,17.751c3.167,2.775,6.872,4.335,8.498,8.465
	c1.917,4.869,0.448,10.863-3.741,14.117c-1.502-1.729-3.038-3.427-4.64-5.061c-13.293-25.195-43.559-32.324-70-34.628
	c-37.802-3.293-76.91,0.444-114.017,7.942c-47.762,9.652-103.144,24.827-132.418,67.205
	C112.238,265.504,106.806,283.604,103.784,302.587z M466.901,324.584c-2.576,49.893-28.065,96.887-63.666,131.109
	c-40.384,38.82-97.354,47.122-151.383,41.697c-50.342-5.054-101.298-28.951-125.727-75.306
	c-14.046-26.653-17.27-57.65-16.496-87.338c0.355-13.617,1.286-27.538,3.525-41.194c4.623-13.129,7.83-25.868,16.264-37.546
	c9.401-13.019,22.223-23.483,36.02-31.531c28.756-16.775,62.641-25.599,95.112-31.769c33.4-6.346,67.839-8.91,101.806-6.958
	c18.451,1.06,36.95,4.709,52.704,13.638c16.521,16.632,30.844,34.262,39.937,56.199
	C463.996,277.292,468.113,301.125,466.901,324.584z"/>
<path d="M369.098,234.306c-29.334-1.404-55.832,12.469-73.169,35.47c-4.236-2.621-8.504-5.138-12.836-7.547
	c-35.956-30.212-98.624-5.35-123.982,29.19c-36.867,50.218-9.146,118.073,38.838,149.076c52.08,33.65,128.884,39.068,178.575-1.379
	c24.41-19.869,48.362-47.117,62.187-75.556c12.699-26.123,14.811-55.101,1.673-81.477
	C426.837,254.886,399.663,235.769,369.098,234.306z M382.859,418.246c-21.188,21.251-46.004,34.736-76.181,37.468
	c-26.466,2.396-53.925-1.814-78.648-11.485c-47.874-18.728-87.772-67.296-73.77-121.186c12.359-47.564,77.863-82.972,122.35-56.267
	c4.266,2.561,19.741,16.877,24.023,10.722c29.803-42.835,96.339-42.086,124.985,1.133
	C459.208,329.308,418.718,382.28,382.859,418.246z"/>
<path d="M228.072,320.185c-5.576,1.022-9.82,5.91-10.814,11.39c-1.087,5.993,1.294,12.207,6.917,15.028
	c5.443,2.73,12.348,1.76,16.219-2.924c4.325-3.844,5.452-9.894,2.973-15.203C240.705,322.768,234.368,319.031,228.072,320.185z"/>
<path d="M296.441,318.516c-14.875,5.95-24.914,27.655-25.18,42.964c-0.262,15.083,12.686,32.934,28.036,35.614
	c14.679,2.563,30.211-14.751,32.856-28.12c3.038-0.212,6.064-0.472,9.066-0.811c18.54-2.095,6.489-21.429-1.385-29.812
	C329.946,327.824,312.117,312.246,296.441,318.516z M295.197,385.386c-6.196-3.916-9.161-10.224-12.71-15.902
	c6.838,0.994,13.746,1.041,20.824,0.733c6.743-0.294,13.582-0.462,20.402-0.77C316.037,378.629,308.292,393.663,295.197,385.386z
	 M337.211,358.8c-5.517,1.963-14.181,0.863-20.042,1.22c-6.319,0.384-12.635,0.946-18.967,1.049
	c-3.192,0.052-15.72,1.26-17.81-1.527c-4.243-5.659,8.491-22.075,11.749-26.531c11.771-16.102,30.702-0.076,40.305,10.396
	C336.189,347.491,344.738,356.122,337.211,358.8z"/>
<path d="M373.371,311.237c-4.323-2.291-9.792-2.388-13.912,0.427c-2.503,1.711-4.301,4.374-4.991,7.265
	c-0.668,1.351-1.092,2.871-1.17,4.533c-0.485,10.259,10.762,16.656,19.596,12.007C382.087,330.631,382.867,316.269,373.371,311.237z
	"/>
<g>
</g>
<g>
</g>
<g>
</g>
<g>
</g>
<g>
</g>
<g>
</g>
<g>
</g>
<g>
</g>
<g>
</g>
<g>
</g>
<g>
</g>
<g>
</g>
<g>
</g>
<g>
</g>
<g>
</g>
</svg>
