<?xml version="1.0" encoding="iso-8859-1"?>
<!-- Generator: Adobe Illustrator 19.0.0, SVG Export Plug-In . SVG Version: 6.00 Build 0)  -->
<svg version="1.1" id="Capa_1" xmlns="http://www.w3.org/2000/svg" xmlns:xlink="http://www.w3.org/1999/xlink" x="0px" y="0px"
	 viewBox="0 0 511.999 511.999" style="enable-background:new 0 0 511.999 511.999;" xml:space="preserve">
<path style="fill:#FDC4B9;" d="M372.053,232.046c-4.698,0.161-9.134-0.941-13.762,0.62c-6.14,2.071-10.74,5.296-17.542,5.111
	c-5.658-0.154-10.384-2.951-15.797-3.783c-7.217-1.109-12.809,3.219-18.902,6.217c-6.649,3.271-13.445,5.418-20.823,6.227
	c-3.654,0.401-7.316,0.711-10.963,0.107c-3.388-0.561-6.132-2.595-9.386-3.258c-6.575-1.339-11.68,3.218-17.238,5.691
	c-5.703,2.538-12.465,4.018-18.725,3.264c-5.233-0.63-10.854-3.889-16.193-2.536c-4.631,1.174-8.776,4.945-13.447,6.5
	c-5.037,1.676-10.346,2.769-15.493,4.057c-4.635,1.16-5.131,0.41-4.944,4.357c0.278,5.861,2.938,11.829,3.439,17.842
	c0.284,3.413-2.273,13.591-0.076,16.176c2.064,2.429,7.288,1.314,10.201,3.544c4.258,3.26,5.316,8.811,6.504,13.765
	c0.981,4.091,0.784,13.74,5.299,15.494c3.813,1.481,6.293-1.197,9.805,1.885c2.894,2.54,4.862,6.548,6.848,9.749
	c0.857,1.381,3.335,7.252,5.367,7.542c1.506,0.215,5.96-6.689,8.23-7.784c4.938-2.383,10.823-0.411,15.371-3.334
	c7.581-4.873,8.311-18.248,19.028-15.383c5.404,1.445,9.925,2.214,15.554,1.465c7.246-0.964,13.518-5.044,20.453-6.144
	c4.196-0.666,7.982,1.566,11.16,4.109c2.072,1.658,4.419,5.589,7.208,6.092c3.159,0.57,5.834-2.116,9.344-1.403
	c3.579,0.727,5.832,3.768,9.112,4.907c3.143,1.091,2.642,0.702,5.16-1.755c3.815-3.721,7.958-6.707,12.811-8.935
	c4.206-1.931,8.393-2.512,9.148-7.479c0.79-5.196-0.432-8.344,2.782-13.037c3.273-4.78,8.39-7.446,11.901-11.864
	c2.599-3.27,2.463-6.536,2.326-10.564c-0.351-10.348,1.411-20.365,4.664-30.278c1.195-3.642,4.349-10.209,0.887-13.566
	C387.427,231.844,378.493,234.804,372.053,232.046z"/>
<path style="fill:#FBB0A6;" d="M387.23,242.308c-1.34,7.201-11.099,8.305-16.927,8.482c-16.086,0.49-28.399-3.752-43.581,3.881
	c-4.169,2.096-7.979,4.141-12.712,4.66c-6.411,0.703-12.775-1.074-19.248-0.506c-13.465,1.181-28.139,9.253-29.803,23.885
	c-1.114,9.796,3.713,18.462,11.452,24.118c4.044,2.955,17.868,6.892,16.126,13.88c-2.097,8.415-24.978,2.482-30.059-1.04
	c-1.12,4.288-4.855,7.018-7.915,10.007c-1.928,1.884-3.13,4.319-4.951,6.042c-3.881,3.672-9.012,2.548-13.565,4.247
	c-4.421,1.65-5.507,5.803-8.948,8.385c-3.612-4.373-5.335-9.693-10.363-12.925c-2.065-1.327-4.022-2.165-6.518-2.332
	c-1.545-0.103-4.993,1.316-6.451,0.412c-2.746-1.704-2.511-9.417-3.096-12.47c-1.305-6.812-3.128-15.446-8.899-20.077
	c-2.879-2.311-9.974-1.541-11.759-3.774c-0.694-0.868-0.078-4.097,0.018-5.175c0.549-6.117,0.959-11.652,0.118-17.824
	c-0.388-2.849-3.846-11.467-1.17-13.743c0.66-0.561,4.955,0.059,5.592,0.041c4.371-0.128,8.466-0.789,12.714-1.85
	c5.907-1.475,12.636-7.822,18.336-8.215c4.794-0.331,9.353,3.772,13.937,4.988c13.264,3.518,22.574-11.215,35.405-11.282
	c5.679-0.03,9.291,3.749,14.207,5.565c5.557,2.053,11.347,0.086,16.494-2.224c11.293-5.067,19.943-15.193,32.396-9.815
	c6.133,2.649,11.815,4.81,18.491,2.837c6.719-1.986,12.15-8.286,18.715-9.879c4.621-1.121,8.815,1.882,13.448,2.51
	C386.641,234.193,389.864,233.779,387.23,242.308z"/>
<path style="fill:#F8F8F9;" d="M225.272,345.707c-2.302-11.635-13.416-13.42-23.443-13.681c4.424-7.506-0.084-23.962-6.258-29.622
	c-3.238-2.968-7.233-2.825-11.099-4.093c-3.815-1.251-2.954-0.577-2.331-4.735c1.511-10.088,0.558-24.561-5.121-33.366
	c-4.528-7.02-12.388-8.302-19.771-9.835c-2.956-0.614-3.264-1.643-6.233,0.172c-2.672,1.633-5.999,5.609-7.777,8.119
	c-5.369,7.577-0.575,14.053-0.474,21.776c0.056,4.295-3.144,9.183-4.717,13.097c-2.706,6.73-3.186,10.333-0.549,16.982
	c1.469,3.704,4.075,7.635,4.85,11.531c1.019,5.124-1.547,10.637-1.86,15.674c-0.662,10.635,8.905,15.446,11.604,24.714
	c2.99,10.267-3.113,20.815,1.583,31.248c3.564,7.919,10.944,11.336,13.324,19.978c1.43,5.193,2.322,10.932,5.196,15.577
	c2.95,4.768,7.997,7.94,12.362,11.287c7.953,6.099,7.309,14.913,12.907,22.57c5.366,7.34,13.976,5.69,20.148,11.221
	c5.983,5.362,7.701,14.693,14.367,19.133c7.695,5.126,13.677-0.718,21.591-0.205c7.582,0.491,12.098,8.979,18.154,12.605
	c3.224,1.93,7.559,3.234,11.361,2.949c4.925-0.369,8.975-4.033,13.784-4.601c8.525-1.007,15.398,6.432,24.328,2.691
	c4.217-1.766,6.655-5.328,10.03-8.186c4.09-3.463,7.735-3.507,12.834-3.264c11.066,0.526,18.208-2.123,24.326-11.638
	c2.5-3.888,3.866-8.65,6.603-12.328c2.232-3,5.765-4.343,8.236-7.144c2.895-3.281,4.875-7.653,5.418-12.02
	c0.641-5.155-1.397-10.927,0.014-15.909c2.889-10.205,14.91-16.077,15.97-27.226c0.441-4.643-1.8-8.798-1.943-13.285
	c-0.156-4.892,3.444-7.434,5.907-11.247c5.501-8.518,4.499-19.764,3.134-29.346c-0.754-5.293-1.537-9.154,0.14-14.323
	c1.608-4.958,4.267-9.521,5.324-14.659c1.612-7.84-2.244-14.758-0.83-22.439c0.675-3.664,2.648-6.775,3.005-10.458
	c0.423-4.365-1.271-6.974-2.674-10.803c-3.272-8.926,0.069-18.671-2.716-27.723c-1.898-6.17-4.909-18.39-11.624-21.127
	c-9.162-3.735-11.954,8.296-12.502,14.536c-0.332,3.777,0.206,7.945-0.835,11.616c-1.473,5.195-4.343,8.154-4.765,14.016
	c-0.292,4.055,0.959,8.472-0.153,12.39c-1.32,4.647-5.217,7.965-8.633,11.056c-3.416,3.09-5.402,5.535-6.395,10.091
	c-0.689,3.159-0.382,7.232-2.46,9.959c-2.24,2.941-7.084,5.062-10.062,7.4c-2.657,2.087-5.311,4.316-8.243,5.92
	c-6.124,3.351-10.061-2.785-17.005-2.844c-4.972-0.042-5.986,0.306-9.901-2.622c-3.513-2.628-7.845-4.956-12.497-4.889
	c-6.612,0.096-13.075,4.481-19.67,5.568c-3.946,0.651-8.459,1.256-12.457,0.764c-3.157-0.388-5.438-2.191-8.36-3.022
	c-11.088-3.154-12.9,11.688-21.538,14.355c-4.838,1.494-8.719,2.416-12.815,6.1C231.148,346.785,226.718,351.496,225.272,345.707z"
	/>
<path style="fill:#EEF0F1;" d="M150.044,251.665c3.906-1.538,7.926-2.473,11.825,0.208c6.123,4.21,5.835,14.232,4.995,20.601
	c-1.138,8.634-10.875,19.412-10.47,27.447c9.204,2.064,13.832,4.196,15.026,14.687c0.662,5.813-0.68,12.222-2.22,17.797
	c-0.993,3.595-5.01,9.644-2.87,13.405c1.994,3.505,9.859,3.944,12.935,5.961c4.057,2.66,6.096,4.914,7.249,9.876
	c1.553,6.681-5.912,19.202-1.324,23.787c1.576,1.575,12.093,0.933,14.113,1.465c7.41,1.952,11.76,5.783,13.004,13.458
	c0.834,5.152-3.161,14.775,1.656,17.508c2.171,1.232,7.854-0.38,10.007-0.442c7.048-0.204,13.625,0.807,19.847,4.382
	c8.702,5.001,13.033,12.506,16.545,21.364c11.518-13.16,30.953-12.891,46.377-6.59c3.314,1.354,6.334,4.191,9.426,3.859
	c1.004-0.108,6.552-5.606,7.047-5.938c4.283-2.863,9.404-5.198,14.472-6.209c7.718-1.54,21.543,2.283,27.006-4.708
	c3.412-4.366,3.433-11.6,6.46-16.532c4.255-6.935,9.987-13.176,14.71-19.822c3.422-4.815,7.356-10.904,12.667-13.971
	c4.792-2.768,9.9-2.238,12.827,2.482c3.951,6.369-2.008,11.364-5.212,16.521c-5.857,9.426,2.928,16.64-2.2,26.779
	c-3.183,6.295-9.181,8.426-12.852,13.765c-3.139,4.566-1.369,10.506-1.747,15.739c-0.964,13.343-9.264,16.03-17.1,24.871
	c-4.326,4.881-4.044,11.224-7.286,16.675c-4.041,6.795-7.34,4.922-14.24,4.205c-12.917-1.342-17.258,8.219-28.661,11.831
	c-11.718,3.712-21.841-5-33.81-2.145c-5.023,1.198-10.948,3.538-16.22,2.035c-4.632-1.32-8.116-5.979-12.173-8.464
	c-8.494-5.203-17.838,0.112-26.304-4.362c-10.505-5.552-14.183-20.015-24.208-24.731c-5.331-2.507-9.915-2.12-14.5-6.311
	c-4.362-3.987-5.54-8.627-7.378-14.158c-1.484-4.466-2.242-8.396-5.924-11.518c-3.753-3.183-7.025-4.393-10.296-8.461
	c-7.09-8.817-5.634-19.604-13.181-27.052c-8.639-8.527-8.028-16.242-8.019-27.972c0.004-5.533,0.441-11.439-2.057-16.556
	c-2.211-4.528-5.822-8.226-7.629-13.061c-3.331-8.915,4.311-16.621,0.729-24.992c-2.635-6.158-5.759-8.164-5.657-15.711
	c0.091-6.688,2.936-10.557,5.626-16.305c2.749-5.873,1.201-6.377-0.446-11.924C138.237,266.449,142.668,258.792,150.044,251.665z"/>
<g>
	<path style="fill:#F13636;" d="M187.355,258.718c-4.862,0.051-8.532,0.262-12.967-2.313c-2.407-1.398-4.536-3.365-7.143-4.432
		c-3.185-1.303-6.417-1.183-9.718-1.728c-12.629-2.086-18.455-21.984-11.055-31.606c2.784-3.62,6.883-4.78,7.84-9.512
		c0.967-4.78,0.036-9.172,2.602-13.651c6.605-11.526,24.117-16.54,36.399-13.706c5.237,1.208,7.207,1.494,11.652-2.075
		c5.863-4.707,11.651-8.899,19.465-9.344c5.11-0.292,9.108,4.095,14.146,3.5c2.276-0.269,3.396-1.375,5.279-2.718
		c3.373-2.406,6.665-4.258,10.823-4.932c5.706-0.925,10.416-0.055,15.538,2.446c5.589,2.729,8.677,2.455,14.093-0.853
		c5.565-3.4,12.957-8.19,19.824-7.449c4.522,0.488,6.802,4.612,10.905,5.917c5.373,1.708,10.586-1.992,14.919-4.637
		c5.849-3.571,13.234-5.542,19.952-2.994c3.931,1.491,6.592,5.141,10.981,5.661c5.589,0.661,10.34-4.028,15.65-5.114
		c6.902-1.41,12.135,4.309,16.711,8.516c1.337,1.23,2.951,2.799,4.806,3.222c2.77,0.632,4.568-0.72,7.247,1.153
		c12.522,8.756,1.524,23.911-0.038,34.908c-0.742,5.223,2.364,10.734,0.962,15.856c-1.399,5.113-8.189,11.121-13.096,12.968
		c-5.41,2.036-8.713,0.071-13.131-2.419c-5.037-2.839-13.032-3.896-18.63-2.351c-7.36,2.031-12.059,8.243-20.048,9.271
		c-4.265,0.549-8.477,0.076-12.5-1.407c-3.137-1.156-6.232-2.915-9.684-2.918c-7.039-0.006-16.208,6.723-22.381,9.621
		c-7.717,3.624-16.369,6.366-24.576,2.853c-8.199-3.51-12.534-2.338-20.187,2.106c-5.615,3.26-13.949,5.105-20.382,3.83
		c-3.033-0.601-5.672-2.268-8.738-2.774c-3.628-0.599-7.702-0.302-11.259,0.519C203.53,253.995,196.045,259.864,187.355,258.718z"/>
	<path style="fill:#F13636;" d="M154.679,166.816c-2.257-1.179-5.77,0.348-8.181,0.546c-4.967,0.408-12.076-0.298-16.725-2.249
		c-10.548-4.429-4.743-17.535-3.961-25.953c0.813-8.748-9.528-9.529-15.867-6.769c-3.168,1.379-8.13,3.699-8.944,7.498
		c-0.651,3.042,1.38,6.638-0.13,9.601c-0.714,1.4-2.459,2.096-3.593,3.092c-1.964,1.724-3.34,3.672-4.343,6.109
		c-1.757,4.271-0.846,9.898,2.208,13.416c4.447,5.123,11.954,1.309,15.853,6.661c3.634,4.988,2.957,11.712,10.35,13.233
		c3.957,0.814,6.367-2.052,9.965,0.238c6.086,3.872,8.259,8.738,15.138,2.065c4.73-4.588,8.194-10.761,10.321-16.961
		C158.235,173.073,160.604,163.962,154.679,166.816z"/>
</g>
<g>
	<path style="fill:#E81D1D;" d="M143.3,230.418c-0.829-1.965-0.092-4.598,0.59-6.547c2.132-6.093,6.8-6.867,10.884-10.993
		c2.111-2.132,1.806-3.831,1.921-6.806c0.255-6.573,3.125-12.231,7.891-16.816c3.506-3.373,8.334-5.93,13.288-5.374
		c4.529,0.509,10.17,2.47,9.785,7.774c-0.396,5.46-8.671,15.364-0.443,18.528c3.434,1.321,7.447-0.554,10.602-1.762
		c6.057-2.319,11.737-5.639,17.861-7.756c4.274-1.478,9.824-3.069,14.286-1.732c3.84,1.151,4.753,3.86,6.215,7.261
		c1.162,2.705,1.763,6.082,4.17,8.036c3.436,2.79,8.709,1.486,12.609,0.48c12.972-3.346,24.676-12.435,38.557-12.278
		c8.702,0.099,15.243,6.759,23.969,7.423c11.748,0.894,22.033-2.532,33.191-5.6c5.363-1.474,11.005-3.149,16.63-2.793
		c3.975,0.251,7.318,2.053,11.063,3.059c6.867,1.845,11.997-1.448,18.438-3.208c4.012-1.096,9.009-1.593,9.892,3.518
		c0.588,3.404,0.122,7.324,0.615,10.879c0.56,4.04,0.048,7.168-2.365,10.525c-4.561,6.345-14.711,9.289-22.21,7.668
		c-4.801-1.038-8.849-2.966-13.911-2.929c-4.482,0.032-7.76,2.151-11.54,4.395c-6.736,3.998-17.104,8.636-24.974,5.251
		c-2.885-1.241-4.742-2.744-8.068-2.935c-4.362-0.25-7.682,1.795-11.482,3.659c-7.544,3.702-16.167,8.449-24.68,9.158
		c-8.3,0.691-15.044-6.573-22.822-5.397c-9.12,1.38-17.178,7.929-26.418,9.678c-9.901,1.874-18.304-6.564-28.063-2.219
		c-4.115,1.832-7.858,4.134-12.353,5.013c-4.719,0.923-9.538,0.436-14.299,0.276c-3.882-0.131-8.162-1.024-11.8-2.461
		c-3.279-1.295-5.828-3.953-9.02-5.389c-3.177-1.429-6.96-0.841-9.993-2.749C146.594,244.284,144.145,236.729,143.3,230.418z"/>
	<path style="fill:#E81D1D;" d="M122.002,161.564c-0.06,6.686-10.065,7.366-14.311,5.079c-3.475-1.872-6.765-5.61-11.145-4.52
		c-3.392,0.843-6.409,4.207-4.286,7.557c3.69,5.823,12.976,2.44,17.297,6.824c2.853,2.895,3.367,8.127,6.377,11.148
		c5.045,5.063,12.56-0.196,16.87,3.739c3.045,2.78,3.041,6.768,8.518,5.576c7.141-1.554,13.636-11.036,16.294-17.174
		C166.33,159.671,124.252,173.517,122.002,161.564z"/>
</g>
<path style="fill:#8BEB6A;" d="M201.359,181.404c1.637-3.471,6.431-6.156,9.72-7.844c7.086-3.636,13.765-3.628,21.322-1.791
	c4.747,1.154,7.538,2.251,11.826-0.536c4.226-2.747,7.685-5.892,13.002-6.375c4.363-0.396,8.083,1.598,11.675,3.715
	c3.981,2.346,6.051,2.258,10.149,0.174c9.536-4.848,19.073-9.58,29.736-5.244c3.202,1.302,7.002,3.64,10.599,2.998
	c4.406-0.786,7.891-5.45,11.827-7.471c9.497-4.876,17.84,1.705,26.672,4.322c3.745,1.11,5.735-0.868,9.209-2.385
	c2.646-1.155,7.518-1.905,9.422-4.329c5.468-6.962-9.221-22.214-13.051-26.929c-10.142-12.486-23.076-23.683-36.744-32.17
	c-15.29-9.494-33.16-18.424-50.873-22.131c-36.63-7.665-80.651-1.94-110.93,21.017c-10.908,8.27-20.861,17.659-29.693,28.121
	c-6.394,7.574-14.759,17.969-11.702,28.425c2.411,8.246,9.548,13.583,18.059,14.385c5.498,0.518,10.468-1.779,15.8-2.003
	c14.224-0.598-7.411,26.863,8.854,21.011c6.035-2.171,12.593-5.205,19.041-5.789c3.141-0.284,4.269,0.926,6.951,1.946
	C196.457,184.129,201.741,182.684,201.359,181.404z"/>
<path style="fill:#6BD046;" d="M376.119,158.939c4.432-13.36-25.133-17.23-32.347-17.791c-17.334-1.347-34.538,1.116-51.797,2.465
	c-19.947,1.559-42.069,3.592-61.599-1.814c-9.011-2.494-16.713-8.965-17.85-18.674c-0.511-4.367,0.86-8.185,1.854-12.363
	c0.437-1.837,1.819-5.671,0.694-7.551c-4.5-7.52-22.764,13.092-25.627,16.51c-2.937,3.507-12.071,15.902-17.821,13.542
	c-5.489-2.253-4.038-14.295-3.891-18.642c0.169-5.034,1.124-9.89-5.325-8.503c-8.576,1.844-15.87,9.25-21.348,15.694
	c-7.28,8.563-19.189,21.814-14.064,33.926c3.254,7.691,11.094,10.489,18.891,10.801c3.028,0.121,6.07,0.148,8.991-0.592
	c1.599-0.405,4.858-2.675,6.45-2.364c6.236,1.218-2.805,14.645-3.146,17.812c-1.124,10.451,12.509,0.111,16.281-1.131
	c7.105-2.339,13.356-0.488,19.909,2.321c2.044,0.877,4.539,2.49,6.621,1.505c1.227-0.581,1.905-2.348,2.725-3.323
	c1.737-2.065,3.834-3.719,6.027-5.279c4.525-3.217,8.645-4.37,14.154-4.314c4.975,0.051,8.585,2.108,13.209,2.982
	c4.327,0.818,6.146-2.738,9.363-5.026c3.809-2.71,8.266-4.164,12.962-4.106c3.758,0.046,7.748,1.163,11.119,2.813
	c3.102,1.519,3.507,2.943,6.68,1.352c8.79-4.408,18.635-10,28.859-6.448c2.828,0.983,5.527,3.848,8.458,4.195
	c3.985,0.472,8.206-3.917,11.303-5.823c4.982-3.066,10.504-5.828,16.46-4.54c4.654,1.006,8.294,3.877,12.102,6.55
	C361.224,167.901,369.104,161.292,376.119,158.939z"/>
<path d="M236.66,283.884c-3.792-4.061-10.21-5.601-15.437-1.862c-2.934,2.099-6.407,5.449-7.208,9.141
	c-0.756,3.484,1.794,7.663,4.448,9.717c3.554,2.751,7.991,2.708,12.199,1.965c3.705-0.654,6.539-2.676,8.062-5.859
	c1.179-1.723,1.909-3.718,1.92-5.781C240.659,288.031,239.017,285.516,236.66,283.884z"/>
<path d="M328.188,268.02c-2.66,3.027-4.013,7.105-2.476,10.991c1.636,4.138,6.01,6.749,10.43,6.46
	c0.072-0.005,0.143-0.018,0.215-0.025c3.714,0.584,7.979-0.87,10.391-3.744c2.725-3.246,2.589-7.736,0.947-11.473
	C344.155,262.173,333.6,261.861,328.188,268.02z"/>
<path d="M305.805,354.682c-1.583,3.042-1.122,4.584-0.923,7.804c0.312,5.05-3.571,7.885-8.292,9.668
	c-4.22,1.593-11.146,1.184-14.615-2.046c-2.309-2.151-3.634-6.122-5.119-8.978c-1.781-3.423-6.342-2.069-7.514,0.982
	c-2.121,5.52,1.178,13.027,5.25,16.896c5.181,4.924,14.4,7.151,21.361,5.918c13.683-2.424,27.225-16.55,17.777-30.244
	C311.891,352.02,307.506,351.414,305.805,354.682z"/>
<path d="M423.838,287.804c-0.758-2.536-2.828-4.509-3.615-6.856c-1.203-3.588,0.692-7.617,1.092-11.156
	c0.937-8.269-0.685-16.611-4.882-23.818c-1.7-2.92-4.316-4.493-6.183-7.093c-2.024-2.819-1.587-7.633-0.517-10.721
	c1.435-4.136,2.676-7.65,1.636-12.123c-0.979-4.208-3.071-5.887-1.242-10.144c1.553-3.614,3.576-6.873,4.719-10.71
	c4.307-14.461-1.119-29.52-16.732-30.357c-4.033-5.42-10.198-9.102-16.932-10.111c0.153-10.683-7.993-22.013-13.779-30.141
	c-7.796-10.951-18.21-19.015-28.981-26.859c-23.102-16.822-48.692-27.755-77.23-30.027c1.106-3.718,1.806-7.704,2.842-10.72
	c3.18-9.263,6.199-17.78,7.843-27.521c1.836-10.876,2.081-30.669-13.708-29.388c-13.186,1.069-22.618,14.884-23.053,27.223
	c-0.449,12.717,5.346,29.375,14.23,39.881c-26.648-0.238-54.766,5.662-77.355,19.352c-16.607,10.064-34.192,25.036-44.907,42.774
	c-4.977-3.549-13.7-3.199-18.747-1.756c-8.973,2.564-12.989,9.055-10.889,16.963c-6.146,6.866-12.344,14.38-9.413,24.52
	c1.103,3.816,3.619,7.034,7.1,8.953c1.959,1.08,4.405,1.781,6.594,2.104c1.767,0.261,4.244-0.329,6.211-0.03
	c0.643,5.483,1.645,9.782,7.064,13.482c5.359,3.66,9.816,3.354,15.199,2.274c5.291,6.222,12.496,8.046,20.164,1.782
	c1.637-1.338,3.148-2.986,4.482-4.821c0.003,0.024,0.002,0.048,0.005,0.073c-2.42,4.355-3.201,9.493-1.804,15.267
	c-9.774,5.431-14.214,15.484-12.708,27.26c0.74,5.792,3.165,10.743,7.373,14.669c-7.508,4.351-12.163,16.953-10.954,24.347
	c0.564,3.448,2.25,6.264,1.276,9.675c-0.807,2.826-3.535,5.62-4.629,8.532c-2.554,6.792-3.106,14.338-0.654,21.245
	c0.961,2.708,2.542,4.712,4.009,7.099c2.197,3.574,2.449,1.511,1.02,6.237c-2.393,7.911-2.79,16.918,1.346,24.366
	c1.563,2.814,4.596,4.554,6.156,7.135c3.395,5.617,0.397,11.389-0.156,17.174c-0.653,6.827,0.313,16.33,3.849,22.386
	c1.191,2.04,2.747,3.698,4.597,5.146c5.61,4.393,7.394,6.984,8.454,14.197c1.014,6.905,3.606,12.484,8.4,17.573
	c5.48,5.818,13.883,8.185,15.714,15.977c1.732,7.372,4.112,13.143,10.24,18.087c3.126,2.521,6.677,4.305,10.385,5.814
	c2.159,0.878,6.126,0.916,7.806,2.156c2.107,1.555,3.563,7.805,5.034,10.076c2.12,3.272,4.803,6.321,8.027,8.539
	c5.365,3.69,12.164,4.72,18.57,4.279c0.496-0.034,8.235-2.603,7.368-2.791c1.351,0.294,5.857,6.001,7.284,7.057
	c6.142,4.545,13.879,7.627,21.621,7.664c3.451,0.017,6.426-0.99,9.589-2.231c5.822-2.282,7.376-1.453,13.039,0.666
	c6.965,2.606,15.004,1.622,21.898-0.851c3.427-1.23,6.712-2.918,9.349-5.464c1.816-1.754,2.685-3.723,3.768-5.661
	c7.71,2.5,14.867,1.135,22.761-3.074c4.094-2.184,7.796-5.146,10.497-8.941c2.779-3.905,3.262-9.795,6.818-12.706
	c7.285-5.964,12.033-11.324,14.56-20.935c1.355-5.154,0.649-9.573,0.528-14.74c-0.149-6.326,4.742-8.789,8.431-13.594
	c7.38-9.614,6.563-17.432,4.895-28.702c-0.425-2.871-0.84-1.105,2.014-3.124c1.467-1.038,2.849-3.197,3.746-4.723
	c2.572-4.379,4.045-9.764,4.333-14.809c0.341-5.966-1.271-11.238-2.701-16.933c-1.99-7.924,1.887-12.25,4.45-19.362
	c1.432-3.973,2.207-8.332,1.658-12.544c-0.515-3.943-2.285-6.94-2.162-10.955c0.117-3.782,1.626-5.715,2.869-9.138
	C424.701,298.996,425.434,293.144,423.838,287.804z M243.769,42.281c-4.174-12.614-3.464-29.759,11.314-35.131
	c17.627-6.408,10.317,26.51,8.016,35.023c-1.461,5.404-3.954,10.615-5.699,15.954c-0.698,2.135-1.281,5.54-2.139,8.592
	c-1.205-2.223-2.813-4.354-3.87-6.517C248.593,54.477,245.764,48.31,243.769,42.281z M135.622,188.947
	c-1.06-1.718-2.892-2.312-4.8-1.953c-8.249,1.553-12.968,0.551-14.829-8.056c-0.723-3.345-0.899-5.505-4.718-6.728
	c-6.025-1.93-15.086,2.971-15.96-7.415c-0.609-7.238,5.256-11.771,9.512-16.478c1.323-1.464,1.395-3.152,0.63-4.881
	c-3.493-7.886,11.896-11.799,18.985-9.421c-2.143,4.13-3.923,8.383-5.194,12.754c-3.082,10.604,0.739,20.454,11.747,23.63
	c5.916,1.706,14.084,2.27,21.748,1.222C151.717,179.294,143.941,202.435,135.622,188.947z M144.992,162.298
	c-8.724,0.519-19.537-0.291-16.915-11.992c2.872-12.817,14.245-25.433,23.197-34.448c21.713-21.864,50.392-33.709,80.733-36.983
	c29.333-3.165,57.051,2.027,82.922,16.132c12.667,6.906,25.379,15.38,35.97,25.23c10.165,9.454,17.579,21.885,23.2,34.544
	c-1.204,0.207-2.402,0.481-3.582,0.897c-2.526,0.891-4.398,2.626-6.498,4.011c-3.608-1.964-6.849-4.399-10.969-5.743
	c-5.997-1.956-11.47-2.412-17.697-1.675c-4.43,0.524-8.714,1.281-12.231,4.243c-1.619,1.364-2.536,4.302-4.773,4.682
	c-1.177,0.2-5.905-2.542-7.586-3.138c-9.365-3.317-21.513-2.449-29.548,3.942c-1.172,0.932-2.809,3.878-4.45,4.048
	c-0.903,0.094-6.178-3.442-7.406-3.82c-4.936-1.519-10.342-1.71-15.369-0.549c-5.721,1.32-10.208,6.383-16.114,6.18
	c-6.006-0.206-10.521-2.234-16.721-1.382c-5.28,0.725-10.269,1.88-14.652,5.067c-1.759,1.279-3.313,2.781-4.699,4.458
	c-1.257,1.521-1.825,3.52-3.892,3.788c-2.074,0.268-4.051-1.903-6.043-2.244c-2.017-0.342-4.15-0.526-6.189-0.462
	c-5.339,0.168-11.05,1.706-15.973,3.82c-0.122,0.02-0.24,0.017-0.366,0.069c-1.247,0.511-2.428,1.083-3.566,1.691
	c2.201-5.607,2.708-12.422,4.508-17.941c2.741-8.403,7.477-16.51,11.609-24.299c8.503-16.028,19.242-29.729,33.894-40.742
	c1.055-0.793,0.158-2.483-1.061-1.814c-7.579,4.16-14.652,9.196-20.83,15.214c-7.652,7.454-12.484,14.824-18.044,23.811
	c-4.615,7.46-9.64,15.288-13.098,23.452C157.111,161.694,150.425,161.975,144.992,162.298z M159.915,213.688
	c1.982-0.98,2.441-3.714,1.445-5.511c-2.577-4.65-2.304-8.663-0.58-12.247c7.322-10.793,23.916-12.392,35.369-8.095
	c9.703,3.641,11.12-7.497,19.015-10.752c6.978-2.877,13.244-1.706,20.306-0.488c3.429,0.591,6.765,0.804,10.044-0.604
	c6.943-2.982,10.737-7.31,19.174-5.44c4.752,1.053,8.679,5.53,13.785,4.884c3.603-0.456,5.301-3.33,7.997-5.358
	c5.827-4.382,13.638-5.255,20.447-3.192c4.2,1.273,8.907,4.844,13.505,4.128c5.152-0.802,6.968-6.562,11.421-8.552
	c6.137-2.742,14.95-1.001,20.796,1.344c3.577,1.435,7.455,5.806,11.504,5.796c3.936-0.01,6.431-4.18,9.987-5.311
	c4.337-1.38,8.871,0.236,12.69,2.319c3.583,1.954,6.63,5.28,10.346,6.742c6.957,2.736,10.738,6.516,9.73,14.497
	c-0.848,6.71-4.516,11.22-7.362,16.995c-2.034,4.128-1.001,6.114,0.646,9.997c3.592,8.472-2.234,12.963-10.439,14.417
	c-7.44,1.319-12.461-1.841-19.311-3.535c-4.618-1.143-7.6,0.457-11.603,2.872c-6.237,3.763-11.915,6.785-19.409,6.934
	c-3.29,0.065-6.53-0.165-9.502-1.616c-2.097-1.024-3.707-2.882-5.925-3.663c-4.461-1.57-8.281,0.983-11.985,3.226
	c-5.902,3.574-11.545,6.917-18.195,9.017c-3.996,1.262-8.375,2.414-12.572,1.872c-3.955-0.511-6.472-2.763-9.938-4.411
	c-3.505-1.667-6.772-2.041-10.199,0.065c-5.453,3.349-8.888,6.924-15.522,8.529c-8.959,2.166-14.627,0.965-22.779-2.825
	c-8.912-4.142-16.151,5.28-24.592,7.839c-7.589,2.301-15.56,3.999-22.104-1.384c-3.559-2.928-5.191-5.251-10.199-5.302
	c-4.324-0.044-7.214,0.699-11.136-2.119c-4.578-3.291-6.122-8.49-6.219-13.947C148.408,222.645,153.023,217.094,159.915,213.688z
	 M384.661,258.675c-0.079,2.586-1.988,5.354-2.735,8.086c-1.185,4.332-1.61,8.949-1.35,13.429c0.071,1.217,0.407,2.484,0.395,3.699
	c-0.045,4.535-1.169,5.426-4.81,8.263c-2.653,2.068-5.55,3.643-7.893,6.122c-1.891,2.002-3.595,4.351-4.336,7.045
	c-1.053,3.826,0.94,7.139-1.408,10.172c-4.18,5.398-13.237,4.473-17.171,11.159c-0.202,0.344-1.02,1.552-1.294,2.432
	c-1.365-1.132-3.825-2.922-3.778-2.895c-2.666-1.558-5.737-2.484-8.832-2.575c-1.813-0.053-4.064,0.366-5.826-0.164
	c-1.326-0.398-2.209-1.369-3.319-2.212c-0.787-0.598-5.309-4.489-6.333-3.171c1.227-1.579,2.313-3.282,3.202-5.12
	c4.461-9.219,2.551-23.211-7.133-28.077c-2.72-1.367-5.872,1.443-4.265,4.265c4.388,7.701,8.654,15.71,1.618,23.716
	c-6.702,7.625-16.06,9.518-25.758,8.163c-7.816-1.092-18.742-3.056-22.085-11.231c-2.102-5.141,0.996-10.037-0.557-15.051
	c-0.206-0.665-1.071-0.943-1.58-0.417c-6.783,7.003-8.87,15.214-3.14,23.982c0.648,0.991,1.431,1.898,2.279,2.759
	c-3.215,2.157-5.829,5.707-7.685,9.062c-0.716,1.294-1.078,3.161-2.403,4.061c-1.44,0.978-5.076,0.925-6.963,1.606
	c-4.6,1.66-8.65,3.827-11.872,6.853c-1.603-3.483-3.885-6.652-6.795-9.263c-2.631-2.362-5.993-4.555-9.535-5.242
	c-1.364-0.264-3.218-0.474-4.574-0.095c-1.411,0.394-2.098,1.076-2.388,1.506c0.052-0.175,0.11-0.415,0.167-0.734
	c1.453-8.185-0.78-20.265-5.705-26.991c-4.414-6.029-9.86-7.454-16.054-6.65c0.35-3.556,1.001-7.153,0.852-10.729
	c-0.274-6.603-1.285-13.175-3.392-19.449c-0.07-0.208-0.141-0.396-0.21-0.597c7.26,1.371,16.016-0.547,22.706-3.042
	c3.466-1.292,6.42-3.601,9.76-5.15c0.754-0.35,3.073-1.933,3.803-1.925c0.457,0.005,1.784,1.269,2.359,1.458
	c7.503,2.455,13.919,4.337,22.152,3.231c6.879-0.924,13.583-2.832,19.132-7.122c3.755-2.902,3.922-3.763,8.351-1.709
	c3.599,1.669,6.3,3.487,10.365,4.027c7.688,1.02,15.851-1.584,22.856-4.482c3.59-1.486,6.843-3.214,10.103-5.323
	c5.072-3.282,5.765-5.093,11.149-2.596c5.983,2.774,12.104,3.716,18.736,3.173c3.835-0.314,7.464-1.294,11.034-2.733
	c3.736-1.506,6.755-4.498,10.387-5.953c5.143-2.06,14.824,3.107,21.012,3.119c0.263,0.001,0.538-0.02,0.804-0.024
	c-1.321,2.424-2.389,4.979-2.964,7.703C382.826,251.372,384.782,254.728,384.661,258.675z M409.791,312.654
	c-0.384,6.133,3.81,10.97,2.773,17.319c-0.96,5.872-5.046,10.386-6.804,15.956c-1.888,5.983,0.131,10.153,1.594,15.95
	c2.156,8.542,2.053,16.752-3.692,23.798c-2.489,3.053-5.718,4.808-5.622,9.173c0.141,6.404,4.197,10.956,1.397,18.02
	c-3.793,9.574-16.267,12.654-14.835,23.767c1.022,7.931,1.121,14.812-3.045,21.891c-3.071,5.218-8.901,5.834-12.058,10.432
	c-3.174,4.624-2.397,9.904-6.975,14.228c-5.51,5.204-14.636,9.076-21.777,5.348c-1.763-0.921-4.366-0.891-5.771,0.744
	c-4.265,4.966-6.056,9.377-12.928,11.635c-3.233,1.063-6.718,1.746-10.118,1.45c-4.324-0.375-7.23-2.969-11.173-4.348
	c-5.524-1.933-8.15,0.64-13.186,2.6c-7.544,2.937-16.737-0.606-22.572-5.807c-3.089-2.753-4.616-6.803-8.995-7.492
	c-5.138-0.809-9.81,2.868-15.21,2.397c-9.466-0.825-12.598-7.891-16.176-15.461c-2.31-4.888-4.756-5.882-9.723-6.932
	c-9.162-1.937-17.421-7.129-19.173-16.886c-0.887-4.938-0.595-9.355-4.876-12.799c-2.396-1.928-5.568-2.639-8.097-4.399
	c-2.95-2.053-6.057-4.853-8.07-7.833c-4.393-6.502-2.182-14.442-5.489-21.108c-2.314-4.662-7.192-5.566-10.599-9.047
	c-6.754-6.902-4.585-18.927-2.957-27.475c0.893-4.694,1.475-8.82-1.482-12.852c-1.284-1.75-3.139-2.902-4.595-4.483
	c-4.484-4.87-5.318-11.571-3.848-17.859c1.258-5.384,5.085-9.32,1.349-14.499c-2.359-3.269-5.16-4.571-6.339-8.933
	c-1.139-4.211-0.843-8.756,0.504-12.877c1.794-5.489,6.736-9.846,5.558-15.865c-0.194-0.989-1.05-2.106-1.497-2.998
	c-2.329-4.655-2.908-7.702-1.216-12.666c1.115-3.27,4.034-9.697,7.741-11.619c1.636,0.986,3.384,1.788,5.231,2.232
	c6.391,1.536,13.734,0.377,17.337,7.319c2.715,5.23,2.957,11.554,3.359,17.314c0.484,6.922-1.507,13.513-1.331,20.242
	c0.07,2.686,2.548,4.592,5.165,3.935c13.068-3.279,15.191,7.875,15.67,18.051c0.177,3.771-1.405,10.31,1.49,13.554
	c3.082,3.452,5.993,1.306,9.605,0.896c9.029-1.025,14.872,8.452,15.147,16.45c0.174,5.064,6.995,5.817,8.626,1.167
	c4.531-12.917,20.617-7.574,25.456-18.791c1.129-2.618,2.185-5.559,4.197-7.652c2.922-3.04,5.024-1.114,8.423,0.076
	c6.611,2.315,13.888,3.338,20.882,2.892c4.023-0.257,8.002-1.207,11.712-2.781c2.786-1.182,6.602-5.222,9.928-3.668
	c3.34,1.562,4.623,6.216,8.363,7.703c2.581,1.026,4.382,0.1,6.958-0.094c2.91-0.219,5.512-0.493,8.246,1.067
	c1.358,0.775,3.271,3.697,4.953,4.397c5.171,2.152,7.136-1.434,9.928-5.076c5.092-6.643,15.441-5.403,19.943-11.782
	c4.551-6.449-3.067-12.171,3.9-18.752c4.261-4.025,11.82-5.919,13.574-12.151c0.852-3.027-0.055-6.432-0.16-9.483
	c-0.198-5.739,0.896-10.718,3.451-15.807c1.151-2.293,1.781-3.465,1.625-6.175c-0.135-2.351-1.452-4.66-1.522-7.065
	c-0.126-4.343,2.422-15.855,8.784-14.356c2.029,0.479,3.327,2.263,3.7,4.226c0.254,1.331,0.07,1.731,0.719,3.019
	c0.605,1.2,1.387,2.329,2.039,3.506c2.529,4.573,4.497,9.412,5.053,14.646c0.64,6.015-1.935,11.066-1.855,16.845
	c0.084,6.129,5.535,9.764,5.187,16.128C415.244,301.6,410.185,306.373,409.791,312.654z"/>
<g>
</g>
<g>
</g>
<g>
</g>
<g>
</g>
<g>
</g>
<g>
</g>
<g>
</g>
<g>
</g>
<g>
</g>
<g>
</g>
<g>
</g>
<g>
</g>
<g>
</g>
<g>
</g>
<g>
</g>
</svg>
