<?xml version="1.0" encoding="iso-8859-1"?>
<!-- Generator: Adobe Illustrator 19.0.0, SVG Export Plug-In . SVG Version: 6.00 Build 0)  -->
<svg version="1.1" id="Capa_1" xmlns="http://www.w3.org/2000/svg" xmlns:xlink="http://www.w3.org/1999/xlink" x="0px" y="0px"
	 viewBox="0 0 512.002 512.002" style="enable-background:new 0 0 512.002 512.002;" xml:space="preserve">
<g>
	<path style="fill:#22AE7B;" d="M155.852,353.362c-2.168,19.84-4.335,39.68-6.503,59.519c-0.101,0.926-0.232,1.92-0.86,2.608
		c-0.89,0.974-2.393,0.961-3.713,0.981c-6.718,0.102-13.345,3.071-17.894,8.016c-3.13,3.403-5.654,7.919-10.104,9.175
		c-2.766,0.781-5.706,0.095-8.509-0.539c-26.502-5.99-54.095-7.113-80.996-3.299c14.034-21.631,27.271-43.779,39.676-66.384
		c2.55-4.647,5.087-9.366,6.479-14.48c0.564-2.073,0.931-4.3,0.289-6.35c-0.488-1.558-1.518-2.88-2.556-4.139
		c-14.984-18.184-36.227-31.109-59.264-36.058c7.986-7.156,19.184-9.098,29.588-11.693c16.033-4,31.511-10.216,45.856-18.418
		c2.87-1.641,5.79-3.396,9.06-3.884c4.553-0.679,9.081,1.185,13.676,1.456c4.811,0.284,9.707-1.26,13.485-4.251
		c1.175-0.931,2.325-2.035,3.797-2.316c1.659-0.318,3.308,0.488,4.788,1.304c6.942,3.828,13.433,8.431,19.38,13.67
		c7.113,6.267,7.801,8.995,8.014,18.694C159.955,315.837,157.897,334.64,155.852,353.362z"/>
	<path style="fill:#22AE7B;" d="M337.715,251.132c-2.764,2.457-5.532,5.017-7.365,8.229c-3.464,6.072-3.086,13.71-0.838,20.329
		c2.248,6.619,6.173,12.511,9.703,18.546c14.905,25.482,23.194,54.796,23.842,84.31c0.034,1.524,0.211,3.337,1.548,4.069
		c0.646,0.354,1.419,0.354,2.155,0.371c14.308,0.33,26.441,9.946,38.028,18.346c1.239,0.898,2.56,1.818,4.082,1.982
		c3.018,0.326,5.42-2.302,7.554-4.461c8.339-8.438,20.004-12.581,31.38-15.947c15.101-4.468,30.468-8.038,45.992-10.685
		c-6.967-5.023-13.934-10.046-20.9-15.069c-17.081-12.316-35.015-25.7-42.704-45.304c9.585-2.257,18.728-6.369,26.776-12.044
		c1.073-0.757,2.144-1.557,2.926-2.613c1.143-1.543,1.566-3.484,2.045-5.344c5.652-21.977,22.237-39.451,39.952-53.634
		c-12.637-7.189-28.142-5.69-42.673-6.171c-16.287-0.539-32.478-3.858-47.662-9.772c-2.456-0.956-4.946-1.994-7.579-2.112
		c-3.458-0.155-6.763,1.284-9.942,2.653c-5.576,2.4-11.403,4.803-17.519,5.287c-4.66,0.369-9.729-1.644-14.248-0.209
		C353.515,234.666,344.435,245.159,337.715,251.132z"/>
</g>
<g>
	<path style="fill:#119260;" d="M356.072,337.913c3.485,14.998,6.416,30.125,8.784,45.339c0.156,1.005,0.327,2.052,0.919,2.879
		c0.847,1.182,2.351,1.654,3.743,2.075c11.908,3.61,23.303,8.906,33.739,15.683c1.945,1.263,4.092,2.637,6.391,2.333
		c1.552-0.205,2.89-1.151,4.174-2.046c13.163-9.179,27.966-15.998,43.497-20.036c5.913-1.537,12.008-2.704,17.429-5.522
		c1.836-0.954,3.835-2.962,2.816-4.763c-0.346-0.611-0.972-1.001-1.572-1.365c-5.696-3.451-11.63-6.986-18.251-7.708
		c-6.971-0.76-13.841,1.685-20.49,3.911c-5.442,1.823-10.925,3.523-16.444,5.099c-5.141,1.469-11.429,2.559-15.197-1.235
		c-3.479-3.504-2.817-9.246-1.709-14.057c0.227-0.983,0.455-2.049,0.047-2.972c-0.371-0.839-1.196-1.38-2.021-1.781
		c-5.267-2.558-12.38-1.514-16.257-5.901c-3.337-3.777-2.473-9.698-4.749-14.194c-2.677-5.288-9.021-7.485-14.853-8.539
		c-4.725-0.854-9.536-2.473-14.13-3.221C350.6,325.34,355.174,334.05,356.072,337.913z"/>
	<path style="fill:#119260;" d="M402.357,272.171c4.544-0.051,8.774,2.152,13.198,3.191c7.604,1.786,15.666,0.063,22.818-3.077
		c7.152-3.14,13.605-7.637,20.258-11.73c11.865-7.3,24.483-13.375,37.589-18.097c0.986-0.355,2.424-0.506,2.763,0.485
		c-9.686,6.719-18.233,15.074-25.171,24.605c-2.882,3.96-5.506,8.157-7.209,12.749c-2.752,7.419-3.149,15.919-7.94,22.217
		c-0.985,1.296-2.171,2.487-3.644,3.178c-1.349,0.632-2.858,0.811-4.331,1.031c-8.504,1.265-16.764,4.152-24.204,8.462
		c-1.747-7.073-3.979-14.843-10.156-18.706c-5.111-3.196-11.564-2.831-17.559-3.462c-5.416-0.571-15.083-3.586-13.849-10.846
		C385.973,275.963,396.985,272.231,402.357,272.171z"/>
	<path style="fill:#119260;" d="M336.688,277.635c1.905,2.872,2.174,6.479,2.977,9.83c2.171,9.056,9.041,17.043,17.946,19.767
		c8.905,2.724,19.504-0.364,24.941-7.925c-1.667,3.097-3.364,6.288-3.786,9.78c-0.421,3.492,0.721,7.405,3.683,9.302
		c3.528,2.259,8.151,1.005,12.126-0.316c2.478-0.823,4.956-1.647,7.434-2.47c-0.807,4.453-1.453,9.571,1.456,13.038
		c3.701,4.411,10.622,3.416,16.21,2.026c0.884,2.687-0.665,5.783,0.421,8.395c1.775,4.269,8.322,3.426,11.853,6.41
		c1.295,1.094,2.098,2.647,2.867,4.157c2.184,4.285,4.367,8.57,6.551,12.855c-1.551-0.161-2.883-1.129-4.135-2.06
		c-19.971-14.858-41.267-29.362-65.705-34.094c-5.667-1.097-11.484-1.634-17.013-3.362c-6.067-1.896-7.879-5.957-10.519-11.53
		C339.019,300.929,336.467,289.266,336.688,277.635z"/>
	<path style="fill:#119260;" d="M366.227,232.467c-1.091,3.472-2.183,6.944-3.275,10.417c-1.64,5.217-2.96,11.763,1.083,15.445
		c2.704,2.462,6.961,2.505,10.327,1.076c3.366-1.43,6.049-4.065,8.645-6.642c3.177-3.153,6.354-6.307,9.531-9.46
		c-1.021,3.688-2.051,7.513-1.457,11.293c0.594,3.78,3.285,7.515,7.076,8.038c3.371,0.465,6.511-1.613,9.279-3.592
		c3.802-2.719,7.605-5.437,11.407-8.156c0.147,3.589,4.568,5.572,8.11,4.979c3.543-0.593,6.58-2.801,9.939-4.074
		c6.048-2.291,12.773-1.445,19.18-0.568c2.361,0.323,5.15,0.973,5.979,3.207c-7.348,6.05-17.703,6.161-27.16,7.234
		c-16.935,1.922-33.395,7.902-47.615,17.298c-2.035,1.345-4.302,2.826-6.709,2.432c-2.331-0.381-4.022-2.432-5.108-4.529
		c-1.087-2.097-1.825-4.418-3.355-6.217c-2.841-3.337-7.754-4.088-12.101-3.528c-4.347,0.559-8.507,2.179-12.86,2.691
		c-3.208,0.378-11.53,0.898-12.573-3.369c-0.86-3.514,6.029-9.341,8.141-11.711C349.901,246.663,357.776,239.204,366.227,232.467z"
		/>
	<path style="fill:#119260;" d="M125.444,384.603c-5.473,2.423-9.275,7.412-13.332,11.812c-4.057,4.401-9.177,8.615-15.162,8.589
		c-4.216-0.018-8.429-2.172-12.507-1.099c-3.437,0.904-5.858,3.864-8.616,6.105c-7.02,5.705-16.546,6.894-25.493,8.226
		s-18.533,3.396-24.552,10.148c2.033,2.947,6.228,3.199,9.806,3.035c11.172-0.512,22.269-2.196,33.445-2.616
		c11.176-0.421,22.636,0.485,32.907,4.91c2.003,0.863,3.977,1.864,6.117,2.283c4.489,0.878,9.091-0.924,12.972-3.345
		c7.984-4.98,14.048-12.563,21.87-17.794c2.134-1.427,4.436-2.713,6.047-4.711c2.05-2.543,2.714-5.901,3.249-9.123
		c1.147-6.915,1.994-13.879,2.54-20.867c0.3-3.837,1.842-10.927-0.452-14.257c-2.699,6.119-4.071,11.987-10.941,14.621
		C137.589,382.727,131.125,382.088,125.444,384.603z"/>
	<path style="fill:#119260;" d="M87.73,389.487c-5.042,3.457-10.337,7.171-16.434,7.609c-1.381,0.099-3.008-0.106-3.721-1.293
		c-0.811-1.351,0.072-3.084,1.114-4.266c6.833-7.755,19.321-7.083,27.761-13.05c1.404-0.993,2.804-2.477,2.54-4.176
		c-0.12-0.774-0.578-1.451-1.062-2.067c-2.498-3.179-6.024-5.533-8.045-9.034c-0.517-0.896-0.936-1.943-0.687-2.948
		c0.284-1.148,1.36-1.92,2.438-2.405c6.54-2.939,14.372,1.19,21.266-0.777c-1.644-3.728-3.288-7.455-4.932-11.183
		c-0.781-1.772-1.56-3.846-0.668-5.565c0.55-1.06,1.64-1.736,2.752-2.169c6.405-2.494,13.253,1.557,19.775,3.727
		c0.873,0.291,1.96,0.502,2.608-0.151c0.414-0.418,0.493-1.055,0.52-1.643c0.158-3.447-0.677-6.89-0.433-10.332
		s2.006-7.18,5.329-8.112c1.595-0.448,3.29-0.178,4.946-0.171c5.081,0.021,10.096-2.653,12.91-6.884
		c-0.755,1.134,1.897,9.704,2.073,11.483c0.408,4.142,0.464,8.32,0.168,12.472c-0.392,5.479-0.46,12.72-5.601,15.949
		c-5.467,3.435-12.558,5.317-18.402,8.149c-7.537,3.652-14.945,7.571-22.206,11.743C103.54,379.103,95.528,384.14,87.73,389.487z"/>
	<path style="fill:#119260;" d="M103.848,322.119c-8.353,3.777-18.942,4.957-23.747,12.764c-1.102,1.791-1.922,3.953-3.781,4.935
		c-2.234,1.181-5.083,0.077-6.856-1.723c-1.774-1.8-2.817-4.174-4.208-6.284c-8.647-13.12-28.843-14.099-38.039-26.84
		c-0.567-0.785-1.103-1.676-1.059-2.644c0.064-1.41,1.405-2.506,2.797-2.734c1.393-0.227,2.804,0.221,4.108,0.759
		c11.558,4.769,19.994,17.001,32.463,17.91c7.785,0.567,15.033-3.542,21.973-7.114c2.32-1.194,5.113-2.347,7.427-1.142
		c0.998,0.519,1.757,1.424,2.763,1.926c1.887,0.942,4.214,0.257,5.96-0.926c1.746-1.182,3.146-2.816,4.866-4.036
		c3.657-2.596,13.861-4.451,10.088,2.771C115.769,315.168,109.266,319.669,103.848,322.119z"/>
	<path style="fill:#119260;" d="M138.9,305.508c-10.163,0.27-20.084-3.304-30.248-3.548c-6.471-0.156-12.896,1.042-19.363,1.322
		s-13.274-0.468-18.646-4.08c-1.445-0.971-2.897-2.722-2.097-4.268c0.567-1.096,2.049-1.416,3.242-1.099
		c1.192,0.317,2.191,1.106,3.232,1.769c4.6,2.932,10.628,3.49,15.688,1.452c5.06-2.038,9.018-6.618,10.302-11.919
		c2.216,1.003,2.785,3.835,4.236,5.787c3.017,4.056,9.672,3.512,13.51,0.222c3.838-3.29,5.563-8.353,7.098-13.169
		c1.131,5.908,4.024,12.613,9.933,13.737c3.161,0.601,6.484-0.687,8.859-2.857c2.376-2.17,3.902-5.128,4.931-8.177
		c1.378,2.242,3.654,3.915,6.206,4.561c1.036,0.262,2.173,0.391,2.974,1.097c0.789,0.695,1.066,1.789,1.303,2.813
		c1.138,4.919,1.89,10.582-3.336,12.939C151.567,304.415,144.501,305.359,138.9,305.508z"/>
</g>
<path style="fill:#FFC94E;" d="M234.189,54.584c-2.064,3.806-3.58,8.155-4.977,11.425c-6.251,14.631-12.232,29.456-16.844,44.693
	c-5.751,19-7.751,40.472-15.914,58.624c-4.076,9.064-17.595,7.989-25.97,9.406c-18.998,3.214-38.387,0.932-57.524,3.667
	c-9.521,1.361-18.798,3.081-28.001,5.887c-6.72,2.049-14.548,3.998-19.786,9.066c-8.407,8.135,7.436,21.569,12.271,26.938
	c8.74,9.708,20.048,17.286,30.616,24.87c8.939,6.415,17.14,13.361,26.719,18.703c12.41,6.92,26.347,14.189,26.206,30.36
	c-0.08,9.225-2.589,18.696-3.733,27.823c-1.38,11.007-1.699,22.154-2.663,33.205c-1.807,20.73-3.802,41.98-3.445,62.804
	c0.079,4.627-0.074,10.559,5.105,12.237c5.833,1.89,9.972-5.186,13.197-8.75c11.252-12.44,24.764-23.379,36.953-34.928
	c7.656-7.254,14.652-15.033,21.897-22.687c7.262-7.673,18.367-22.346,30.689-16.65c10.382,4.8,19.332,14.418,28.25,21.422
	c12.058,9.47,25.092,18.275,38.225,26.182c5.234,3.151,10.777,5.667,16.151,8.553c3.786,2.034,8.382,5.736,12.647,6.668
	c8.49,1.856,5.37-13.886,5.377-18.839c0.024-19.418-0.838-39.862-4.198-59.011c-2.632-15.002-7.833-30.336-15.936-43.315
	c-3.282-5.258-7.103-9.753-8.399-15.981c-3.236-15.553,8.931-26.134,18.125-36.465c8.52-9.575,18.072-18.479,27.694-26.928
	c8.478-7.446,16.952-15.044,24.599-23.35c5.059-5.495,11.684-11.926,13.874-19.3c2.404-8.094-4.791-10.397-11.463-11.512
	c-10.928-1.826-23.943,0.077-34.89,1.255c-15.431,1.66-30.943,3.075-46.274,5.749c-5.347,0.933-12.982,2.632-17.814-0.839
	c-3.951-2.838-5.819-10.768-7.634-15.157c-7.468-18.058-14.023-36.444-21.588-54.485c-4.741-11.304-10.268-22.256-14.988-33.581
	c-2.515-6.035-4.869-13.171-11.591-15.569C241.83,44.163,237.362,48.732,234.189,54.584z"/>
<g>
	<path style="fill:#FAB732;" d="M235.926,49.443c-11.279,21.204-19.655,45.82-26.134,68.885c-3.51,12.497-7.207,24.734-9.96,37.423
		c-1.55,7.145-3.973,14.587-2.904,21.936c0.895,6.147,4.661,10.398,8.404,15.187c5.615,7.182,11.131,14.412,17.142,21.253
		c6.38,7.261,12.79,15.285,18.405,23.152c3.067,4.297,6.841,13.337,12.444,14.587c2.316-4.621,1.311-9.914,2.082-14.824
		c0.774-4.934,0.821-9.422,0.515-14.493c-0.723-12.014-2.191-23.971-2.784-35.994c-0.675-13.671-0.754-27.385-2.264-41.001
		c-1.654-14.913-4.241-29.694-5.79-44.627C244.616,96.427,240.912,47.79,235.926,49.443z"/>
	<path style="fill:#FAB732;" d="M163.29,290.051c16.763-5.48,34.048-11.367,50.693-17.895c9.78-3.836,19.88-6.644,29.287-11.357
		c3.007-1.507,8.776-2.724,10.433-5.847c-20.432-9.018-42.479-14.761-63.328-22.878c-14.168-5.516-29.692-10.649-44.489-14.166
		c-14.175-3.37-28.626-5.259-42.79-8.626c-10.945-2.602-21.936-4.493-32.935-6.815c-1.283-0.271-6.656-2.364-7.883-1.032
		c-2.091,2.27,3.439,7.56,4.689,9.037c8.933,10.549,20.167,19.04,30.52,28.147c10.76,9.464,21.343,18.889,32.631,27.727
		c6.447,5.048,12.981,10.053,19.41,15.053C154.896,285.575,159.993,289.509,163.29,290.051z"/>
	<path style="fill:#FAB732;" d="M154.589,430.405c8.995-13.782,15.448-29.681,23.045-44.276
		c9.944-19.104,21.34-37.532,31.737-56.385c8.699-15.775,17.315-31.546,26.755-46.897c4.089-6.649,7.807-15.056,13.045-20.845
		c5.483-6.06,10.019-2.829,14.352,2.669c3.82,4.848,5.998,10.265,9.158,15.535c4.474,7.461,9.737,14.605,14.781,21.686
		c18.972,26.639,36.806,53.926,54.124,81.711c2.275,3.651,16.55,23.576,9.034,25.986c-3.047,0.977-13.201-5.884-15.945-7.255
		c-7.961-3.978-15.24-8.827-22.338-14.185c-12.073-9.113-24.014-18.608-37.221-26.114c-6.845-3.891-14.29-7.813-22.188-8.908
		c-9.324-1.293-12.771,3.879-19.453,9.352c-9.546,7.819-18.978,15.852-27.874,24.41c-11.182,10.757-21.656,22.012-32.116,33.444
		C171.268,422.756,155.331,440.512,154.589,430.405z"/>
	<path style="fill:#FAB732;" d="M324.83,273.783c-10.027-3.361-21.798-2.771-32.174-5.861c-7.078-2.108-14.027-4.599-21.105-6.688
		c-4.485-1.323-9.615-1.886-13.74-4.174c2.229-2.894,6.509-5.057,9.736-6.649c6.222-3.07,12.324-6.096,18.449-9.383
		c16.806-9.019,32.539-19.906,49.245-29.062c16.368-8.971,32.64-18.169,49.089-26.999c5.877-3.155,11.9-5.776,17.974-8.51
		c2.564-1.154,6.832-4.128,9.876-3.625c1.095,6.328-7.152,12.344-10.936,16.315c-11.356,11.917-22.914,23.717-34.033,35.853
		c-9.136,9.971-18.844,18.938-26.967,29.775C334.753,262.102,329.7,269.691,324.83,273.783z"/>
</g>
<path style="fill:#FB743C;" d="M233.273,365.404c-1.202,5.398-0.196,11.825-0.314,17.304c-0.179,8.349-0.722,16.446,0.038,24.773
	c0.588,6.442,0.686,12.914,1.282,19.364c0.369,3.995,0.259,5.066-3.046,7.384c-3.673,2.577-8.195,2.174-11.756,5.148
	c-4.863,4.062-7.187,11.673-6.041,17.808c2.208,11.817,20.234,11.605,29.472,11.509c10.256-0.107,21.776-1.006,31.41-4.691
	c8.172-3.125,18.245-14.299,12.138-23.043c-3.357-4.808-11.97-5.093-17.039-7.12c-2.81-1.124-3.217-1.686-3.148-5.205
	c0.118-6.03,2.878-11.975,3.784-17.925c2.295-15.073,2.113-31.621-3.655-45.915c-2.321-5.751-5.68-11.308-11.965-13.247
	C245.577,348.815,240.224,355.138,233.273,365.404z"/>
<path style="fill:#F45C28;" d="M262.445,361.611c-2.435,0.259-4.752,2.516-6.533,4.018c-7.505,6.328-9.429,15.814-9.399,25.167
	c0.026,8.137,0.475,16.175,0.25,24.327c-0.194,7.027-1.873,13.818-2.127,20.725c-0.065,1.757,0.032,3.861,0.683,5.531
	c1.08,2.772,2.293,1.992,3.989,3.743c2.812,2.903-0.456,6.103-1.018,9.949c-0.872,5.971,3.284,7.089,8.359,7.745
	c2.62,0.339,9.808,0.778,6.355,5.263c-2.391,3.106-8.067,0.248-11.29,0.201c-11.524-0.167-23.464,1.566-32.585-7.411
	c-6.171-6.073-3.856-14.499,1.967-19.807c4.955-4.517,12.395-4.558,13.761-12.4c1.601-9.19-1.484-18.916-2.035-28.089
	c-0.508-8.451-1.241-17.164-0.097-25.583c0.729-5.365,1.753-15.796,6.783-19.093c3.661-2.4,13.148-3.649,17.3-2.647
	C263.242,354.805,261.712,358.313,262.445,361.611z"/>
<path d="M507.697,235.203c-26.576-2.245-53.109-3.297-79.199-9.387c-6.188-1.445-12.217-3.248-18.256-5.213
	c-3.961-1.289-7.263-2.294-11.276-0.664c-4.805,1.952-8.341,5.529-13.448,7.221c-4.316,1.43-8.88,1.956-13.243,1.156
	c0.901-0.889,1.798-1.782,2.7-2.67c8.023-7.898,16.093-15.75,23.957-23.808c3.572-3.66,7.105-7.357,10.57-11.118
	c3.977-4.318,9.57-9.011,11.755-14.599c7.202-18.413-30.811-19.42-40.701-19.74c-11.404-0.369-22.809,0.561-34.139,1.775
	c-5.206,0.558-10.402,1.193-15.603,1.801c-6.166,0.721-14.741,3.244-20.858,2.13c-6.07-1.106-7.587-7.857-9.771-12.732
	c-2.7-6.026-5.228-12.127-7.696-18.251c-4.155-10.31-8.112-20.698-12.294-30.997c-3.956-9.742-8.069-19.432-12.707-28.871
	c-4.459-9.075-9.201-20.929-16.702-27.977c-6.224-5.848-14.005-3.98-18.28,2.95c-6.417,10.402-10.748,23.257-15.35,34.576
	c-5.283,12.991-10.029,26.204-14.127,39.617c-4.039,13.217-8.581,27.167-9.684,40.952c-0.103,1.284-0.208,2.583-0.611,3.807
	c-2.068,6.282-11.45,5.653-16.655,6.49c-7.549,1.213-15.147,2.096-22.749,2.897c-25.873,2.727-52.324,4.098-77.286,12.014
	c-7.413,2.351-21.132,5.15-22.264,14.784c-1.178,10.026,13.352,18.18,19.683,23.776c15.215,13.452,30.822,26.33,46.956,38.594
	c-3.933,1.818-8.231,2.55-12.695,1.97c-4.687-0.609-8.978-2.832-13.789-2.111c-8.715,1.306-17.421,8.183-25.435,11.728
	c-21.201,9.38-43.475,15.501-65.508,22.517c-4.701,1.497-3.509,7.785,1.117,8.249c27.276,2.739,49.581,18.346,66.18,39.411
	c0.213,0.27,0.437,0.496,0.667,0.692c-1.523,4.067-3.192,8.068-5.172,12.027c-13.155,26.296-33.882,47.002-49.485,71.586
	c-2.334,3.678,1.511,8.003,5.429,7.062c24.675-5.926,52.503-9.31,77.239-1.768c8.31,2.534,15.634,8.666,23.246,1.895
	c7.731-6.877,14.514-13.36,23.087-18.572c-0.469,4.658-1.103,9.657,0.497,14.07c2.799,7.723,10.893,9.45,17.038,4.216
	c10.699-9.112,20.299-20.074,30.528-29.766c12.062-11.429,24.163-22.816,36.275-34.193c-1.57,16.715-2.169,33.568-0.797,50.312
	c0.262,3.198,1.027,6.087,2.205,8.629c-12.082,1.389-26.147,12.272-22.331,25.753c4.667,16.489,32.658,15.521,45.565,14.068
	c13.396-1.508,34.376-2.982,37.477-19.537c2.7-14.414-9.429-22.236-21.868-23.474c1.291-3.589,2.07-7.467,2.523-11.201
	c1.995-16.435,1.657-34.876-2.342-51.393c0.836,0.59,1.626,1.13,2.358,1.587c28.232,17.664,56.477,35.305,84.729,52.937
	c2.838,1.771,7.247,0.146,7.961-3.239c1.724-8.181,2.625-16.336,2.858-24.451c11.268,2.972,21.888,7.532,31.6,14.099
	c3.712,2.51,6.879,5.473,11.581,4.98c4.997-0.523,9.303-5.401,13.149-8.111c19.918-14.031,46.204-23.091,70.759-21.719
	c5.346,0.299,6.245-6.685,2.52-9.304c-15.257-10.725-30.2-21.752-43.233-35.177c-6.159-6.344-11.869-13.15-17.046-20.322
	c4.12-1.449,8.195-3.032,12.288-4.554c4.337-1.614,9.663-2.812,13.331-5.791c5.922-4.809,6.151-13.866,8.657-20.591
	c6.93-18.596,20.871-33.744,38.285-43.018C513.913,241.056,511.652,235.537,507.697,235.203z M409.575,175.628
	c-1.124,2.73-5.205,5.786-7.221,7.943c-14.677,15.707-30.48,30.296-45.733,45.43c-7.256,7.199-14.451,14.468-21.309,22.049
	c-5.332,5.893-12.016,11.865-11.907,20.211c-19.946-2.964-38.334-11.993-57.817-16.94c5.447-2.098,10.677-5.621,16.885-9.103
	c14.591-8.183,29.182-16.366,43.773-24.548c27.808-15.596,55.608-31.239,83.753-46.224
	C409.896,174.792,409.76,175.177,409.575,175.628z M306.732,172.883c5.833,0.828,12.544-0.814,17.852-1.432
	c11.428-1.331,22.83-2.932,34.302-3.846c10.25-0.816,20.605-1.165,30.856-0.161c4.372,0.428,11.318,0.754,15.772,2.621
	c-26.246,14.973-52.819,29.382-79.373,43.798c-13.726,7.452-27.452,14.905-41.179,22.357c-6.738,3.658-13.528,8.241-20.59,11.178
	c-0.063,0.026-0.12,0.039-0.182,0.065C279.949,223.522,294.133,198.632,306.732,172.883z M245.239,52.855
	c1.776,1.709,3.49,5.597,4.728,7.718c10.952,18.761,18.852,39.061,26.701,59.255c3.659,9.414,7.324,18.826,11.261,28.128
	c3.079,7.275,5.865,18.518,12.987,22.938c0.049,0.031,0.102,0.053,0.152,0.082c-12.237,26.005-26.084,51.183-41.464,75.464
	c0.366-7.385-0.602-14.965-1.03-22.214c-1.678-28.395-3.767-56.774-6.428-85.095c-2.766-29.44-6.018-58.783-10.346-88.026
	C242.684,50.411,243.229,50.92,245.239,52.855z M203.192,163.996c1.636-7.173,3.251-14.343,5.099-21.466
	c7.41-28.562,17.27-56.614,29.389-83.529c3.135,31.141,6.35,62.276,8.991,93.464c1.411,16.671,2.664,33.356,3.756,50.051
	c0.583,8.904,1.12,17.811,1.612,26.721c0.237,4.28,0.715,8.788,0.825,13.266c-19.216-21.497-37.488-43.843-54.991-66.753
	C201.226,172.756,202.183,168.418,203.192,163.996z M83.209,195.653c25.322-7.212,51.665-8.715,77.671-11.903
	c6.462-0.792,12.915-1.672,19.332-2.774c3.751-0.644,8.295-0.997,12.225-2.277c17.861,23.686,36.613,46.627,56.006,69.069
	c-2.709-0.86-5.505-2.007-8.665-3.122c-54.143-19.086-109.556-34.829-165.881-46.01C76.97,197.547,80.077,196.545,83.209,195.653z
	 M150.573,351.632l-0.007,0.088c-8.579-7.132-17.114-14.34-25.964-21.133c-2.336-1.793-5.503,2.264-3.173,4.113
	c8.708,6.911,17.745,13.415,26.716,19.983c-5.257,1.376-10.318,3.122-15.247,5.114c-1.292-0.899-2.852-1.579-4.038-2.309
	c-6.374-3.927-12.89-7.659-19.485-11.201c-2.675-1.437-5.057,2.621-2.383,4.077c6.947,3.784,13.842,7.621,20.616,11.696
	c-5.674,2.576-11.142,5.53-16.461,8.748c-1.807-0.98-3.673-1.815-5.014-2.533c-4.917-2.635-9.978-4.867-15.187-6.858
	c-3.122-1.193-4.388,3.743-1.369,4.968c3.003,1.218,6.044,2.402,9.075,3.613c0.892,0.399,1.78,0.808,2.662,1.236
	c1.236,0.6,3.374,1.421,5.33,2.384c-4.853,3.125-9.569,6.487-14.202,9.981c-3.979-3.273-11.159-4.505-15.168-6.041
	c-3.097-1.187-4.644,4.05-1.388,5.035c2.944,0.912,5.896,1.796,8.8,2.834c1.516,0.542,2.578,0.985,3.371,1.527
	c-9.423,7.38-18.49,15.304-27.46,23.204c-2.111,1.859,0.947,4.823,3.063,3.063c8.69-7.233,17.572-14.478,26.787-21.24
	c0.02,0.121,0.042,0.215,0.062,0.341c0.944,5.976,0.827,12.332,1.232,18.372c0.237,3.54,5.825,3.524,5.517,0
	c-0.401-4.593-0.802-9.186-1.204-13.779c-0.215-2.468-0.069-5.729-0.684-8.467c5.187-3.647,10.476-7.132,15.92-10.322
	c0.855,3.89-1.265,10.267-1.878,13.501c-0.762,4.019-1.529,8.027-2.131,12.074c-0.539,3.624,4.871,5.299,5.629,1.552
	c1.418-7.012,2.441-14.11,3.566-21.174c0.45-2.825,1.4-6.176-0.045-8.857c4.232-2.301,8.55-4.43,12.971-6.336
	c-0.729,9.755-2.893,19.545-3.872,29.264c-0.293,2.908,4.674,3.613,5.144,0.696c1.017-6.318,1.761-12.681,2.59-19.027
	c0.424-3.243,2.183-8.913,2.333-13.431c4.611-1.731,9.32-3.244,14.167-4.436c-0.9,11.46-1.8,22.92-2.7,34.38
	c-0.318,4.044-0.635,8.087-0.953,12.131c-9.325,4.453-17.998,10.217-25.401,17.468c-2.182,2.137-4.134,5.485-7.556,5.713
	c-1.871,0.125-4.645-1.747-6.397-2.338c-5.652-1.903-11.483-3.28-17.377-4.177c-19.287-2.935-38.459-0.587-57.671,1.278
	c7.455-9.252,14.322-19.179,21.047-28.791c8.318-11.889,15.868-24.37,21.672-37.692c2.732-6.272,3.923-14.159,7.201-20.034
	c3.721-6.669,13.882-7.415,20.38-10.071c9.746-3.984,17.194-9.855,21.432-19.054c10.31,1.855,20.75,1.222,30.667-1.941
	C152.86,323.088,151.694,337.357,150.573,351.632z M154.887,301.243c-4.684,1.007-9.27,1.612-13.861,1.825
	c-2.758-7.642-4.935-15.556-8.389-22.913c-1.5-3.196-6.19-0.412-4.729,2.764c3.148,6.846,7.031,13.296,10.035,20.205
	c-0.638,0.004-1.274,0.035-1.913,0.024c-7.069-1.14-14.118-1.994-21.17-2.637c-2.217-6.533-4.52-13.118-7.529-19.313
	c-1.345-2.77-6.256-0.774-5.042,2.125c2.43,5.803,5.463,11.374,8.582,16.852c-5.45-0.429-10.906-0.709-16.375-0.874
	c-3.169-5.031-5.232-11.066-9.132-15.502c-1.803-2.051-5.18,0.126-4.477,2.606c1.353,4.771,4.858,8.894,8.203,12.774
	c-4.719-0.072-9.451-0.054-14.204,0.051c-1.674-3.35-5.362-6.709-7.479-9.197c-1.209-1.42-3.456,0.405-2.543,1.962
	c1.039,1.773,3.596,4.743,4.875,7.393c-3.019,0.105-6.044,0.232-9.084,0.406c-3.146,0.18-3.19,5.043,0,4.931
	c3.115-0.11,6.24-0.166,9.368-0.198c-0.837,2.699-2.567,5.613-3.336,8.005c-0.884,2.751,3.534,4.719,4.75,2.003
	c1.217-2.719,3.465-6.581,4.147-10.039c4.87,0.017,9.75,0.119,14.634,0.297c-2.648,4.548-5.15,9.183-7.611,13.833
	c-1.796,3.394,3.549,5.755,4.896,2.064c1.964-5.379,4.277-10.577,6.749-15.734c7.336,0.333,14.674,0.83,21.988,1.479
	c-3.715,14.71-22.495,16.341-34.132,21.667c-4.169,1.908-6.207,4.286-7.724,8.297c-14.134-16.632-33.516-28.046-54.238-34.664
	c16.953-4.958,33.764-10.682,49.824-17.909c5.101-2.296,10.126-4.762,15.047-7.422c6.614-3.575,10.966-4.208,18.536-3.078
	c8.109,1.21,15.605-1.188,22.194-5.609c3.384,2.525,6.783,5.033,10.215,7.504c5.039,3.627,11.31,6.854,15.46,11.525
	C155.071,290.854,155.311,296.03,154.887,301.243z M143.671,268.138c-11.176-7.569-22.077-15.549-32.721-23.85
	c-10.564-8.239-21-16.731-30.975-25.678c-3.907-3.503-10.968-8.162-13.441-12.785c-0.663-1.24-0.835-2.178-0.68-2.922
	c61.596,13.815,121.394,31.742,181.242,51.82c0.941,0.316,1.845,0.552,2.734,0.758c-28.385,10.831-56.914,21.287-85.667,31.102
	C160.377,277.963,151.162,273.211,143.671,268.138z M157.457,409.576c1.11-13.796,2.221-27.593,3.331-41.389
	c1.154-14.347,2.384-28.69,3.439-43.045c0.752-10.235,3.56-22.772,1.519-33.255c27.842-9.3,55.481-19.157,82.859-29.738
	c-2.667,5.048-6.219,9.767-9.271,14.39c-4.714,7.143-9.37,14.325-13.965,21.546c-8.618,13.539-16.993,27.22-25.099,41.072
	c-15.606,26.668-30.41,53.793-44.32,81.381C156.428,415.972,157.348,410.938,157.457,409.576z M171.363,415.829
	c-1.194,1.118-7.637,7.596-11.689,10.89c24.164-46.467,50.302-91.864,78.517-135.996c4.769-7.459,10.413-14.878,14.793-22.779
	c-2.955,25.809-4.655,51.929-5.205,77.875c-5.607,1.491-10.13,6.52-14.471,10.694C212.705,376.327,192.228,396.292,171.363,415.829z
	 M260.357,360.861c2.707,13.543,5.386,26.429,5.216,40.348c-0.128,10.44,0.625,33.567-14.695,33.329
	c-16.48-0.256-13.601-20.385-13.858-32.059c-0.276-12.53-0.303-25.058,0.239-37.58c3.883-3.968,8.13-7.708,12.626-8.63
	c3.134-0.643,6.81,0.812,10.443,2.938C260.24,359.713,260.238,360.264,260.357,360.861z M278.457,439.645
	c6.054,3.639,7.378,11.451,2.395,16.607c-6.191,6.406-19.698,6.936-28.053,7.771c-9.275,0.927-19.082,1.029-27.902-2.388
	c-17.336-6.717-1.528-22.393,9.316-24.818c0.068-0.015,0.124-0.042,0.188-0.061c4.39,4.841,11.069,7.253,19.163,6.283
	c5.192-0.622,8.991-3.01,11.792-6.355C269.828,436.864,274.562,437.304,278.457,439.645z M290.182,366.78
	c-5.685-3.468-11.369-6.936-17.054-10.403c-5.664-3.455-11.539-8.269-17.88-10.322c-0.582-0.189-1.152-0.335-1.712-0.444
	c1.324-27.926,2.517-55.901,3.408-83.843c32.81,46.35,64.259,93.626,93.889,142.074C330.62,391.48,310.408,379.119,290.182,366.78z
	 M356.695,399.623c-29.794-48.807-61.728-96.297-96.093-142.003c21.72,5.489,41.678,16.655,63.934,20.138
	c2.396,8.24,7.891,16.68,11.085,24.097c5.175,12.016,9.86,24.275,13.598,36.818C355.151,358.575,358.375,379.084,356.695,399.623z
	 M449.803,347.79c9.321,9.479,19.62,18.15,30.61,25.731c-17.374,2.317-33.922,6.555-49.959,15.024
	c-5.087,2.687-10.061,5.603-14.81,8.853c-6.953,4.759-9.331,1.044-15.783-2.614c-9.965-5.65-20.726-9.575-31.919-11.93
	c-0.724-19.493-5.125-38.705-11.389-57.409c4.328,0.743,8.624,1.733,12.886,2.894c0.896,11.122,1.959,22.168,3.449,33.243
	c0.467,3.469,6.008,2.08,5.359-1.477c-1.846-10.123-3.476-20.35-4.689-30.583c5.869,1.781,11.652,3.93,17.328,6.354
	c-0.205,12.044,0.522,24.073,3.113,35.873c0.704,3.205,5.711,1.853,4.935-1.36c-2.667-11.029-4.678-21.999-5.246-33.295
	c6.301,2.812,12.448,5.979,18.416,9.375c0.03,9.064,0.719,18.198,2.668,27.036c0.798,3.616,6.349,2.086,5.551-1.531
	c-1.681-7.624-3.007-15.115-3.569-22.789c5.488,3.289,10.812,6.756,15.917,10.344c2.01,1.413,4.435-1.757,2.624-3.401
	c-5.744-5.216-12.014-9.904-18.638-14.028c3.629-2.163,7.341-4.176,11.18-5.96c2.623-1.219,0.263-5.463-2.3-3.935
	c-3.865,2.303-7.647,4.721-11.339,7.278c-0.441,0.022-0.872,0.163-1.227,0.422c-5.227-3.031-10.638-5.735-16.184-8.043
	c5.028-3.159,10.096-6.236,15.25-9.208c2.697-1.555,0.225-5.801-2.442-4.177c-5.805,3.536-11.345,7.563-16.59,11.902
	c-6.329-2.387-12.589-4.162-18.91-5.507c5.303-4.097,10.526-8.331,15.826-12.424c2.47-1.908,0.184-6.181-2.522-4.315
	c-6.51,4.49-13.009,9.829-18.314,15.754c-4.519-0.815-9.085-1.474-13.758-2.03c-0.974-2.795-2.001-5.574-3.048-8.345
	c7.362-5.661,14.533-12.069,20.977-18.608c2.137-2.168-1.013-5.139-3.279-3.279c-6.654,5.46-13.252,11.562-19.233,17.924
	c-1.993-5.105-4.103-10.151-6.26-15.165c1.835-1.204,3.557-2.693,5.116-4.117c2.265-2.069,4.584-4.284,6.03-7.021
	c1.211-2.293-1.799-4.88-3.705-2.858c-1.986,2.107-3.574,4.522-5.636,6.569c-1.158,1.15-2.414,2.155-3.681,3.148
	c-0.785-1.782-1.546-3.583-2.345-5.352c-1.276-2.822-2.685-5.608-3.885-8.462c-0.789-1.877-1.053-3.464-0.953-4.939
	c7.091,0.852,14.186,0.954,21.329-0.03c2.897-0.399,5.777-1.525,8.678-0.593c3.395,1.091,3.106,1.844,4.773,4.791
	c1.763,3.116,3.953,6.045,6.385,8.67c4.902,5.293,11.077,9.48,17.75,12.188c3.405,1.382,6.859,2.366,10.497,2.867
	c6.824,0.94,11.002,0.693,15.041,7.105c4.825,7.659,8.568,15.734,14.039,23.048C438.771,335.887,444.122,342.013,449.803,347.79z
	 M469.499,269.156c-4.106,6.715-7.305,14.079-9.452,21.651c-2.106,7.427-6.121,9.849-13.04,12.423
	c-4.968,1.848-9.974,3.622-14.877,5.637c-2.815-5.161-5.653-10.636-9.789-14.027c-6.06-4.969-15.032-3.841-22.154-6.062
	c-4.53-1.413-8.767-3.641-12.528-6.502c2.016-1.253,4.063-2.435,6.127-3.577c0.41,0.279,0.825,0.553,1.23,0.834
	c4.374,3.027,8.738,6.08,13.146,9.056c2.815,1.901,5.37-2.603,2.643-4.522c-3.484-2.452-8.516-4.832-11.766-8.147
	c3.808-1.901,7.698-3.598,11.642-5.146c0.331,0.436,0.775,0.874,1.382,1.417c3.666,3.282,8.063,6.038,11.935,9.098
	c2.836,2.241,5.985-1.761,3.052-3.956c-2.947-2.206-7.288-4.609-9.622-7.388c-0.466-0.379-0.932-0.759-1.398-1.138
	c4.927-1.716,9.947-3.164,15.04-4.378c0.671,0.892,1.407,1.742,2.023,2.587c2.197,3.012,4.374,6.037,6.627,9.007
	c2.001,2.636,6.532,0.096,4.522-2.643c-2.244-3.06-5.856-6.549-8.129-10.063c5.656-1.155,11.394-2.025,17.207-2.585
	c3.265-0.315,3.408-5.23,0-5.197c-6.384,0.06-12.691,0.656-18.884,1.741c0.559-4.156,3.518-9.21,4.648-12.312
	c0.816-2.241-2.907-3.849-3.89-1.64c-0.228,0.512-0.439,1.028-0.66,1.542c-1.683,3.733-4.824,9.145-5.338,13.462
	c-4.276,0.951-8.494,2.123-12.634,3.53c1.195-5.159,2.696-10.256,3.918-15.409c0.704-2.967-3.722-4.201-4.573-1.261
	c-1.246,4.306-2.507,8.599-3.678,12.919c-0.622,1.934-1.423,4.021-1.926,6.078c-4.859,1.949-9.605,4.197-14.211,6.738
	c-0.144-0.6-0.248-1.216-0.258-1.872c-0.105-6.617,2.307-14.106,3.478-20.616c0.53-2.945-3.703-4.224-4.552-1.255
	c-2.438,8.524-4.281,17.124-5.571,25.895c-0.099,0.67,0.148,1.213,0.531,1.612c-2.066,1.295-4.109,2.632-6.109,4.042
	c-2.006-1.978-3.839-4.134-5.41-6.481c-2.606-3.893-3.912-8.586-7.96-9.995c0.508-4.401,1.299-8.708,2.334-13.069
	c0.571-2.408-2.828-3.282-3.663-1.01c-1.64,4.467-2.848,9.155-3.679,13.869c-4.248,0.639-8.606,2.466-12.891,2.979
	c-4.865,0.582-9.686,0.653-14.523,0.309c0.39-0.599,0.805-1.212,1.258-1.859c2.887-4.117,6.759-7.801,10.15-11.501
	c6.069-6.622,12.357-13.03,18.72-19.365c6.369,3.314,13.397,3.978,20.877,1.788c4.329-1.268,7.847-4.551,11.933-5.908
	c6.568-2.181,17.353,3.34,23.998,4.969c22.463,5.507,45.829,8.158,69.01,9.596C484.074,250.045,475.793,258.864,469.499,269.156z"/>
<g>
</g>
<g>
</g>
<g>
</g>
<g>
</g>
<g>
</g>
<g>
</g>
<g>
</g>
<g>
</g>
<g>
</g>
<g>
</g>
<g>
</g>
<g>
</g>
<g>
</g>
<g>
</g>
<g>
</g>
</svg>
