<?xml version="1.0" standalone="no"?>
<!DOCTYPE svg PUBLIC "-//W3C//DTD SVG 20010904//EN"
 "http://www.w3.org/TR/2001/REC-SVG-20010904/DTD/svg10.dtd">
<svg version="1.0" xmlns="http://www.w3.org/2000/svg"
 width="1104.000000pt" height="1104.000000pt" viewBox="0 0 1104.000000 1104.000000"
 preserveAspectRatio="xMidYMid meet">
<metadata>
Created by potrace 1.11, written by Peter Selinger 2001-2013
</metadata>
<g transform="translate(0.000000,1104.000000) scale(0.100000,-0.100000)"
fill="#000000" stroke="none">
<path d="M1225 10176 c-69 -30 -154 -141 -214 -276 -18 -41 -39 -88 -46 -105
-8 -16 -11 -33 -9 -37 3 -4 1 -8 -3 -8 -5 0 -15 -21 -23 -47 -15 -54 -14 -53
-23 -73 -9 -21 -64 -222 -71 -257 -3 -15 -10 -47 -16 -71 -6 -23 -12 -57 -14
-75 -3 -18 -5 -32 -6 -32 -4 0 -19 -81 -35 -190 -2 -11 -8 -58 -14 -105 -7
-47 -14 -101 -16 -120 -34 -244 -48 -687 -31 -980 11 -186 20 -271 50 -475 22
-146 106 -457 146 -540 6 -11 12 -29 13 -40 2 -11 7 -28 11 -37 4 -9 9 -22 10
-30 2 -7 6 -20 9 -28 4 -8 8 -24 10 -35 2 -11 7 -27 10 -35 4 -8 16 -51 27
-95 28 -106 179 -506 250 -660 5 -11 44 -101 86 -200 42 -99 81 -186 86 -192
6 -7 8 -13 5 -13 -6 0 23 -66 84 -198 16 -34 29 -67 29 -72 0 -6 5 -10 11 -10
5 0 7 -5 4 -11 -4 -5 0 -18 9 -28 9 -10 18 -27 20 -37 7 -33 257 -557 269
-562 4 -2 7 -12 7 -22 0 -10 4 -20 8 -22 19 -7 109 -215 108 -248 -1 -27 -67
-19 -141 17 -39 19 -78 36 -89 38 -10 2 -23 9 -30 14 -6 5 -49 29 -96 52 -47
24 -87 46 -90 49 -3 3 -15 11 -27 18 -13 6 -33 18 -45 25 -13 6 -25 15 -28 18
-3 3 -27 20 -55 39 -27 19 -52 36 -55 39 -3 3 -25 22 -50 41 -25 19 -54 42
-64 50 -29 22 -278 270 -271 270 3 0 -3 8 -12 18 -26 27 -61 72 -90 115 -14
20 -30 37 -34 37 -5 0 -9 5 -9 10 0 6 -20 39 -45 74 -25 36 -45 70 -45 75 0 6
-3 11 -8 11 -7 0 -13 10 -42 66 -8 16 -17 31 -20 34 -3 3 -21 37 -40 75 -19
39 -38 72 -42 73 -5 2 -8 9 -8 16 0 7 -18 52 -40 99 -22 47 -40 92 -40 101 0
9 -5 16 -12 16 -6 0 -8 3 -5 7 4 3 3 11 -2 17 -4 6 -16 36 -25 66 -10 30 -21
64 -26 75 -14 36 -35 110 -32 118 1 4 -3 7 -9 7 -5 0 -8 4 -5 9 9 13 -68 242
-109 326 -44 89 -94 138 -127 126 -58 -21 -88 -157 -83 -375 1 -77 6 -161 9
-186 4 -25 8 -58 10 -75 4 -27 9 -52 21 -110 2 -11 10 -40 16 -65 6 -25 12
-51 12 -57 0 -7 4 -13 9 -13 5 0 7 -4 4 -8 -5 -9 46 -159 80 -237 10 -22 18
-42 19 -45 3 -13 88 -181 117 -232 63 -110 114 -187 215 -327 77 -106 167
-209 298 -343 150 -153 234 -229 382 -345 54 -41 100 -78 103 -82 3 -3 13 -10
22 -16 9 -5 62 -41 118 -80 56 -38 109 -74 118 -80 9 -5 34 -21 57 -35 73 -45
58 -36 215 -124 74 -41 312 -160 322 -161 3 0 9 -3 13 -7 4 -4 32 -19 63 -34
32 -15 62 -33 69 -38 6 -6 31 -28 55 -48 25 -20 65 -63 89 -95 24 -32 47 -60
52 -61 4 -2 7 -10 7 -17 0 -7 3 -15 8 -17 11 -5 52 -66 52 -78 0 -5 5 -10 10
-10 6 0 10 -7 10 -15 0 -8 4 -15 9 -15 5 0 13 -9 16 -20 3 -11 12 -26 18 -33
7 -7 23 -34 37 -60 13 -26 28 -47 31 -47 4 0 9 -8 12 -17 4 -10 17 -36 30 -58
32 -53 227 -388 259 -445 98 -174 163 -286 168 -290 3 -3 20 -34 39 -70 19
-36 37 -67 40 -70 4 -3 12 -16 19 -30 6 -14 20 -38 30 -55 10 -16 37 -64 60
-105 24 -41 51 -88 61 -105 32 -54 74 -129 85 -152 6 -13 14 -23 19 -23 4 0 7
-5 7 -12 0 -6 20 -44 45 -84 25 -39 45 -77 45 -83 0 -6 4 -11 8 -11 5 0 14
-12 21 -27 7 -16 46 -77 86 -138 135 -201 188 -238 345 -240 52 -1 119 4 148
11 62 14 126 56 150 99 9 17 21 33 25 36 5 3 8 9 8 13 -1 3 6 20 14 36 9 17
13 30 10 30 -3 0 -1 10 6 21 12 23 76 235 84 279 10 52 14 72 21 93 4 12 9 29
10 37 3 19 4 25 54 227 23 92 43 173 44 178 1 6 5 19 9 30 3 11 8 31 11 45 3
14 13 52 22 85 9 33 18 67 19 75 10 40 72 262 85 300 5 14 18 59 30 100 12 41
25 84 29 95 10 25 136 408 136 415 1 3 6 14 12 25 6 11 11 22 11 25 1 11 30
90 53 145 36 87 56 145 51 149 -3 3 0 6 6 6 7 0 12 6 12 14 0 13 49 140 90
231 17 37 14 63 -10 85 -3 3 -37 48 -75 100 -37 52 -81 111 -98 130 -77 93
-121 139 -129 134 -4 -3 -8 0 -8 7 0 40 -121 -140 -171 -256 -8 -16 -18 -33
-24 -37 -5 -4 -7 -8 -2 -8 4 0 0 -15 -10 -32 -9 -18 -18 -35 -18 -38 -1 -3
-11 -26 -23 -53 -12 -26 -31 -68 -43 -94 -11 -27 -26 -61 -34 -78 -7 -16 -22
-53 -34 -82 -11 -28 -26 -64 -33 -80 -6 -15 -12 -32 -14 -38 -2 -8 -61 -161
-89 -230 -5 -11 -9 -23 -10 -27 -2 -5 -4 -10 -5 -13 -1 -3 -4 -9 -5 -15 -1 -5
-4 -12 -5 -15 -1 -3 -3 -8 -5 -12 -1 -5 -5 -15 -8 -23 -11 -25 -79 -224 -82
-240 -2 -8 -8 -28 -15 -45 -6 -16 -12 -32 -12 -35 0 -3 -5 -16 -10 -30 -5 -14
-11 -32 -13 -40 -2 -8 -27 -82 -55 -165 -28 -82 -53 -159 -56 -170 -9 -33 -11
-39 -17 -55 -4 -8 -15 -42 -25 -75 l-18 -60 -71 105 c-40 58 -76 110 -80 115
-22 26 -173 254 -173 260 0 4 -12 25 -28 48 -15 23 -33 51 -40 62 -7 11 -18
32 -25 47 -6 16 -15 28 -19 28 -4 0 -8 7 -8 15 0 8 -5 15 -12 15 -6 0 -8 3 -5
7 4 3 1 13 -6 22 -8 9 -25 36 -38 61 -13 25 -26 47 -29 50 -3 3 -12 18 -20 35
-8 16 -36 67 -62 111 -27 45 -48 87 -48 92 0 6 -3 12 -7 14 -5 2 -17 21 -29
43 -11 22 -35 66 -52 97 -17 31 -43 78 -57 104 -14 26 -30 53 -36 60 -6 8 -8
14 -5 14 4 0 -1 12 -12 28 -10 15 -34 56 -52 92 -47 90 -71 136 -147 280 -73
139 -225 442 -271 541 -26 57 -87 200 -97 229 -1 3 -6 16 -12 30 -44 105 -153
463 -156 513 -1 9 -6 17 -11 17 -5 0 -7 3 -4 6 3 3 1 22 -4 42 -6 20 -12 46
-13 57 -2 11 -6 31 -9 45 -5 22 -15 74 -31 165 -2 17 -7 39 -9 50 -2 12 -7 47
-11 80 -4 32 -9 72 -12 89 -2 17 -5 64 -7 103 -3 40 -7 76 -9 80 -12 21 -15
484 -4 603 4 41 9 102 11 135 3 33 10 92 16 130 6 39 13 84 16 100 4 25 17 91
39 205 2 8 4 15 5 15 2 0 5 16 13 57 3 15 8 31 11 36 3 5 7 19 10 33 11 55 51
175 60 181 6 4 8 8 4 8 -8 0 39 121 85 220 64 136 185 334 224 367 8 6 13 13
11 15 -4 5 50 66 128 143 84 82 110 104 184 153 30 21 58 41 61 45 3 5 8 7 10
6 6 -5 100 61 142 100 52 48 89 127 79 166 -11 39 -68 72 -119 69 -126 -7
-290 -70 -430 -165 -24 -16 -46 -29 -49 -29 -2 0 -12 -8 -22 -17 -10 -10 -29
-25 -41 -33 -72 -48 -258 -231 -349 -345 -4 -5 -28 -37 -52 -70 -25 -33 -47
-62 -50 -65 -15 -15 -50 -71 -50 -80 0 -5 -4 -10 -10 -10 -5 0 -10 -7 -10 -15
0 -8 -4 -15 -10 -15 -5 0 -10 -7 -10 -15 0 -8 -4 -15 -10 -15 -5 0 -10 -4 -10
-10 0 -5 -18 -39 -40 -75 -22 -36 -40 -68 -40 -71 0 -4 -10 -23 -22 -43 -13
-20 -23 -38 -24 -41 0 -3 -20 -45 -43 -95 -58 -123 -64 -137 -104 -240 -37
-95 -78 -220 -81 -245 -1 -9 -5 -20 -8 -25 -6 -10 -36 -121 -44 -160 -8 -43
-26 -121 -31 -135 -3 -8 -6 -26 -8 -40 -2 -23 -6 -54 -25 -173 -4 -27 -7 -66
-6 -88 1 -21 -1 -39 -4 -39 -3 0 -6 -17 -7 -38 -3 -62 -11 -81 -31 -76 -14 4
-50 50 -57 74 -1 3 -13 30 -27 60 -14 30 -31 73 -39 95 -8 22 -18 43 -22 46
-4 3 -7 10 -6 15 2 5 -5 26 -14 48 -9 21 -17 46 -17 56 0 9 -3 20 -8 24 -4 4
-7 11 -7 14 -1 4 -14 47 -29 96 -16 49 -29 94 -30 100 -1 6 -5 17 -9 24 -5 6
-6 12 -3 12 3 0 1 12 -5 28 -6 15 -13 34 -15 42 -23 89 -37 141 -45 170 -5 19
-12 46 -15 60 -2 14 -7 32 -10 40 -3 8 -12 49 -20 90 -8 41 -16 86 -19 100 -2
13 -7 42 -10 65 -3 22 -10 65 -15 95 -6 30 -12 84 -15 120 -2 36 -5 65 -5 65
-2 0 -9 63 -14 125 -3 30 -5 55 -6 55 -2 0 -11 151 -13 217 -1 32 -6 58 -10
58 -4 0 -4 7 1 16 5 9 6 31 2 48 -7 34 -5 680 4 787 18 239 30 352 41 369 3 6
1 10 -5 10 -6 0 -8 5 -3 13 4 6 8 17 9 22 20 123 26 150 31 165 3 8 7 20 8 25
9 36 29 106 40 142 35 103 37 241 6 305 -31 64 -80 83 -146 54z"/>
<path d="M9589 10155 c-15 -8 -31 -28 -37 -44 -9 -26 -8 -196 2 -261 2 -14 6
-45 10 -70 4 -25 9 -56 11 -70 3 -14 7 -40 10 -57 7 -46 14 -84 20 -113 3 -14
8 -47 10 -73 3 -27 7 -52 9 -56 3 -4 6 -27 7 -52 1 -24 5 -48 7 -53 3 -5 7
-26 8 -45 2 -20 5 -56 8 -81 13 -116 19 -176 19 -190 0 -8 4 -20 9 -27 5 -7 5
-14 -2 -18 -6 -3 -8 -10 -5 -15 10 -16 19 -248 19 -465 -1 -232 -11 -441 -29
-580 -4 -27 -8 -63 -10 -80 -10 -75 -15 -112 -19 -135 -2 -14 -7 -43 -10 -65
-5 -39 -10 -66 -22 -122 -3 -16 -7 -41 -10 -58 -3 -16 -12 -57 -20 -90 -8 -33
-17 -68 -19 -77 -2 -10 -16 -62 -30 -115 -15 -54 -29 -105 -31 -113 -2 -8 -11
-35 -20 -60 -9 -25 -18 -54 -20 -65 -2 -11 -18 -56 -34 -100 -17 -44 -33 -87
-35 -95 -3 -16 -32 -93 -46 -125 -4 -11 -22 -56 -40 -100 -44 -115 -109 -243
-126 -249 -18 -7 -35 2 -28 14 3 5 1 11 -3 14 -5 3 -10 40 -11 83 -3 113 -9
202 -16 248 -3 22 -10 72 -16 110 -6 39 -19 104 -30 146 -10 42 -20 85 -22 95
-2 10 -7 26 -10 34 -9 25 -20 74 -19 83 1 4 -2 7 -6 7 -4 0 -9 11 -10 25 -1
14 -9 39 -17 55 -8 16 -15 34 -15 40 0 5 -9 29 -19 53 -10 23 -29 69 -42 102
-35 88 -178 367 -191 373 -5 2 -8 8 -8 13 0 13 -132 210 -194 289 -28 36 -54
70 -59 75 -106 138 -323 334 -483 437 -35 23 -160 90 -174 93 -3 1 -25 11 -50
22 -192 86 -315 90 -304 11 4 -35 62 -137 82 -145 6 -3 12 -9 12 -15 0 -16
336 -338 345 -330 3 3 5 1 5 -5 0 -5 19 -30 43 -54 24 -24 71 -80 106 -124 34
-44 68 -87 74 -95 7 -8 32 -47 56 -85 24 -39 51 -81 60 -95 41 -61 136 -269
176 -385 15 -44 30 -87 33 -95 3 -8 4 -18 4 -22 -1 -5 1 -8 5 -8 5 0 9 -10 10
-23 3 -33 8 -51 16 -64 5 -7 6 -13 3 -13 -3 0 -1 -11 4 -26 6 -14 12 -39 15
-57 3 -18 8 -39 10 -47 2 -8 7 -28 10 -45 2 -16 7 -39 9 -50 2 -11 7 -46 11
-79 3 -32 8 -68 10 -80 2 -11 7 -57 10 -100 3 -44 8 -83 11 -88 3 -4 0 -8 -6
-8 -7 0 -8 -5 -3 -12 9 -14 11 -408 3 -408 -3 0 -5 -21 -6 -48 -1 -52 -11
-157 -19 -212 -3 -19 -8 -53 -10 -75 -5 -42 -10 -71 -19 -120 -3 -16 -8 -48
-12 -70 -3 -22 -7 -42 -9 -45 -2 -3 -6 -24 -9 -46 -4 -22 -8 -49 -11 -59 -2
-11 -12 -51 -20 -90 -9 -38 -19 -77 -22 -85 -3 -8 -7 -22 -8 -30 -2 -8 -6 -26
-10 -40 -3 -14 -8 -36 -11 -50 -2 -14 -13 -52 -24 -85 -11 -33 -33 -105 -50
-160 -17 -55 -33 -107 -37 -115 -3 -8 -7 -19 -8 -25 -9 -35 -110 -307 -124
-334 -7 -12 -9 -21 -6 -21 3 0 -1 -10 -9 -23 -8 -12 -15 -25 -16 -29 -1 -10
-23 -62 -67 -163 -19 -44 -45 -102 -56 -130 -79 -183 -353 -703 -498 -943 -38
-63 -69 -117 -69 -122 0 -5 -4 -10 -8 -12 -7 -3 -126 -188 -147 -229 -5 -10
-13 -19 -17 -19 -5 0 -8 -5 -8 -10 0 -12 -81 -134 -92 -138 -5 -2 -8 -8 -8
-14 0 -6 -13 -27 -30 -48 -16 -21 -30 -43 -30 -49 0 -7 -7 -14 -15 -17 -8 -4
-13 -10 -10 -14 3 -5 0 -12 -6 -15 -6 -4 -27 -32 -47 -62 -59 -89 -66 -99 -85
-124 -9 -13 -40 -57 -68 -97 -28 -41 -55 -70 -59 -65 -4 4 -15 37 -24 73 -10
36 -40 142 -68 235 -28 94 -52 177 -53 185 -2 8 -4 16 -5 18 -2 1 -4 7 -5 12
-1 6 -3 11 -5 13 -1 2 -6 20 -13 50 -1 6 -6 18 -10 25 -5 6 -6 12 -3 12 3 0
-2 16 -10 35 -8 19 -12 35 -10 35 3 0 -2 17 -10 37 -9 20 -17 44 -19 52 -3 16
-61 192 -72 221 -4 8 -7 17 -8 20 -1 3 -4 12 -8 20 -3 8 -11 33 -18 55 -6 22
-15 45 -19 50 -4 6 -11 21 -15 35 -15 53 -69 176 -162 370 -38 80 -70 147 -71
150 0 3 -18 37 -39 75 -21 39 -59 111 -83 160 -25 50 -48 92 -51 95 -3 3 -19
32 -34 65 -16 33 -34 63 -40 67 -5 4 -6 8 -1 8 5 0 4 6 -2 13 -5 6 -34 57 -62
112 -29 55 -68 128 -86 162 -20 38 -31 69 -27 80 4 9 54 73 112 142 58 69 109
131 113 136 79 100 232 251 353 350 27 22 62 51 79 65 53 43 138 106 201 146
33 22 63 43 66 47 3 5 8 8 10 6 5 -3 175 106 195 124 7 7 27 23 46 37 41 30
128 118 128 129 0 16 -41 60 -68 74 -27 13 -138 15 -191 3 -153 -35 -362 -132
-551 -255 -30 -19 -58 -40 -62 -46 -4 -5 -8 -6 -8 -2 0 7 -61 -34 -80 -53 -3
-3 -27 -21 -55 -40 -27 -19 -59 -42 -70 -51 -138 -114 -224 -186 -241 -203
-12 -12 -32 -30 -45 -40 -34 -27 -221 -188 -237 -203 -15 -14 -37 -6 -63 24
-9 10 -42 41 -75 70 -60 52 -105 92 -159 141 -16 15 -61 54 -100 87 -38 33
-72 62 -75 65 -25 28 -381 270 -396 270 -3 0 -19 9 -34 20 -45 32 -319 166
-390 190 -36 12 -99 28 -140 34 -67 11 -80 10 -125 -7 -87 -33 -108 -75 -68
-133 35 -53 54 -67 183 -134 63 -33 129 -68 145 -78 17 -10 56 -33 88 -51 31
-18 57 -38 57 -44 0 -6 3 -8 6 -4 3 3 13 -1 22 -8 10 -8 53 -41 97 -74 44 -33
99 -77 123 -99 23 -21 42 -37 42 -35 0 6 187 -185 256 -260 33 -37 59 -67 57
-67 -2 0 8 -13 22 -29 14 -15 52 -64 85 -107 33 -44 63 -84 67 -89 29 -37 142
-211 208 -320 73 -120 284 -520 289 -548 2 -7 17 -41 34 -77 17 -36 45 -99 62
-140 17 -41 35 -85 41 -97 10 -26 28 -69 40 -98 4 -11 27 -69 49 -130 23 -60
49 -130 59 -155 10 -25 50 -146 90 -270 41 -124 77 -234 82 -245 5 -11 11 -29
12 -40 2 -11 6 -27 9 -35 9 -27 26 -84 39 -130 7 -25 13 -47 14 -50 1 -3 7
-25 14 -50 7 -25 15 -52 17 -60 8 -29 43 -155 45 -160 1 -3 2 -9 4 -15 1 -5 3
-12 4 -15 2 -3 4 -12 6 -21 1 -9 20 -83 40 -165 21 -82 39 -158 41 -169 2 -11
11 -47 20 -80 8 -33 17 -67 18 -75 1 -8 6 -25 10 -36 3 -12 9 -35 11 -50 6
-39 64 -264 75 -289 5 -11 18 -46 29 -78 37 -104 103 -176 178 -198 28 -8 96
-13 163 -13 100 0 121 3 159 23 47 24 151 126 151 148 0 7 4 13 9 13 5 0 14
14 21 30 7 17 16 30 19 30 4 0 17 17 28 38 54 99 78 137 85 140 4 2 8 8 8 13
0 4 19 41 43 81 23 40 51 90 62 111 11 20 23 37 26 37 4 0 9 10 13 22 3 13 21
47 40 76 19 28 33 52 31 52 -4 0 34 65 73 125 7 11 15 28 18 38 4 9 9 17 13
17 4 0 13 16 20 35 7 19 16 35 21 35 5 0 12 9 15 21 4 11 31 60 61 109 30 48
54 93 54 99 0 6 4 11 8 11 5 0 17 18 27 40 10 22 22 40 27 40 4 0 8 5 8 10 0
6 74 134 165 286 91 152 165 280 165 285 0 5 7 12 15 15 8 4 15 11 15 18 0 6
23 46 50 89 28 43 50 80 50 83 0 17 135 207 171 239 55 51 155 125 168 125 5
0 11 3 13 8 4 10 144 92 156 92 6 0 12 3 14 8 2 4 96 54 211 111 114 58 207
108 207 113 0 4 6 8 13 8 12 0 138 76 164 99 7 6 15 11 18 11 6 0 134 88 145
100 3 3 41 32 85 65 44 33 84 65 88 72 4 7 15 13 24 13 9 0 13 3 10 7 -4 3 6
16 21 27 132 100 522 515 522 556 0 5 4 10 8 10 11 0 143 191 204 295 26 44
52 85 57 92 6 7 11 19 11 28 0 8 3 15 8 15 4 0 16 20 27 45 11 25 23 45 27 45
5 0 7 3 6 8 -1 4 3 18 9 32 12 27 58 133 73 165 20 42 69 185 64 185 -2 0 2
14 11 30 9 17 13 30 11 30 -3 0 -1 12 5 28 10 25 14 38 24 87 3 11 7 31 10 45
59 262 64 499 12 599 -77 152 -214 -23 -328 -420 -7 -24 -13 -47 -15 -51 -1
-5 -3 -10 -4 -13 -1 -3 -3 -8 -5 -12 -1 -5 -5 -16 -9 -25 -4 -9 -9 -25 -11
-35 -2 -10 -4 -19 -5 -20 -2 -2 -3 -6 -5 -10 -1 -5 -7 -21 -13 -36 -7 -16 -12
-30 -12 -32 0 -6 -56 -129 -112 -245 -57 -119 -126 -241 -142 -252 -6 -4 -8
-8 -3 -8 8 0 -106 -174 -130 -198 -7 -7 -13 -17 -13 -21 0 -4 -8 -16 -18 -27
-9 -10 -33 -39 -52 -64 -92 -119 -219 -253 -335 -355 -31 -27 -64 -58 -73 -67
-9 -10 -21 -18 -27 -18 -6 0 -17 -9 -25 -20 -8 -11 -20 -20 -26 -20 -7 0 -14
-4 -16 -8 -9 -23 -188 -131 -323 -196 -125 -60 -149 -68 -181 -64 -26 3 -29 7
-30 38 0 19 3 41 9 47 5 7 7 13 3 13 -4 0 0 13 8 29 9 16 12 31 9 35 -4 3 -1
6 5 6 7 0 12 6 12 14 0 14 35 91 157 346 168 350 292 625 290 640 -1 3 7 19
16 35 23 41 137 317 137 333 0 6 4 12 10 12 5 0 9 3 8 8 0 4 2 16 6 27 4 11
23 61 41 110 18 50 37 99 41 110 4 11 8 22 9 25 1 3 5 12 8 20 8 18 88 241 91
255 2 6 6 17 9 25 10 28 37 115 38 125 0 6 4 15 9 20 4 6 11 26 16 45 10 46
11 49 14 58 1 4 2 10 1 15 0 4 3 7 7 7 4 0 9 12 10 26 1 14 5 31 9 37 4 7 8
17 9 22 1 6 7 28 13 50 6 22 11 43 11 47 0 5 7 25 14 45 8 21 20 63 27 93 16
67 15 62 21 80 5 13 26 104 43 188 3 12 7 30 9 40 23 100 35 155 42 197 4 28
9 57 11 65 2 8 5 33 8 55 2 22 5 40 5 40 3 0 12 52 25 145 3 25 8 61 10 80 9
61 18 183 19 232 1 27 4 48 7 48 7 0 2 559 -6 630 -3 30 -8 73 -10 95 -10 98
-18 154 -34 240 -16 89 -18 95 -34 158 -8 31 -13 57 -10 57 3 0 0 7 -7 15 -7
8 -10 15 -7 15 4 0 0 18 -8 40 -8 22 -12 40 -10 40 2 0 -17 57 -41 128 -24 70
-46 132 -47 137 -2 6 -11 27 -20 49 -9 21 -17 40 -17 41 0 1 -8 20 -17 41 -9
22 -17 41 -18 44 -3 15 -88 176 -106 203 -58 84 -150 158 -196 157 -10 -1 -30
-7 -44 -15z"/>
</g>
</svg>
