<?xml version="1.0" encoding="iso-8859-1"?>
<!-- Generator: Adobe Illustrator 19.0.0, SVG Export Plug-In . SVG Version: 6.00 Build 0)  -->
<svg version="1.1" id="Capa_1" xmlns="http://www.w3.org/2000/svg" xmlns:xlink="http://www.w3.org/1999/xlink" x="0px" y="0px"
	 viewBox="0 0 511.999 511.999" style="enable-background:new 0 0 511.999 511.999;" xml:space="preserve">
<path style="fill:#8BEB6A;" d="M156.148,20.275C113.669,21.03,73.285,52.276,46.053,82.248
	c-12.681,13.957-31.216,31.257-38.04,49.127c-6.482,16.973,0.27,33.733,11.238,46.438c8.758,10.145,17.05,17.579,31.494,15.817
	c19.677-2.4,29.079-20.685,39.849-35.107c10.649-14.259,23.99-29.265,41.64-33.957c16.111-4.283,20.673,2.813,25.221,17.365
	c6.489,20.762,0.127,37.406-6.508,57.442c-9.035,27.284-22.334,53.549-33.525,80.063c-11.323,26.826-22.35,53.872-37.418,78.889
	c-14.797,24.568-30.2,50.364-36.667,78.543c-4.249,18.512,0.997,29.661,15.088,41.709c11.454,9.793,27.364,16.561,42.373,10.955
	c10.897-4.07,19.105-14.41,25.517-23.583c9.622-13.765,19.147-27.812,27.331-42.479c11.098-19.889,19.842-40.636,29.708-60.743
	c9.766-19.907,22.095-37.621,27.589-59.488c4.471-17.794,10.904-35.319,16.472-52.843c9.887-31.115,18.876-63.403,19.546-96.31
	c0.487-23.927,2.973-55.595-6.593-78.111C226.535,43.415,189.098,25.874,156.148,20.275z"/>
<g>
	<path style="fill:#6BD046;" d="M62.022,476.787c3.503-9.272,11.622-17.007,17.768-24.575
		c17.905-22.046,34.447-45.454,48.887-69.913c15.712-26.612,32.398-52.608,45.04-80.868c9.615-21.493,16.574-43.319,23.957-65.612
		c2.772-8.371,22.667-85.551,39.547-75.633c5.948,3.495,2.568,29.601,2.229,34.977c-0.891,14.121-3.389,29.087-6.253,42.926
		c-6.855,33.124-23.219,63.162-34.035,95.03c-10.704,31.538-26.427,59.459-46.062,86.301
		c-14.621,19.987-26.024,44.673-48.013,58.144C95.556,483.404,61.329,494.828,62.022,476.787z"/>
	<path style="fill:#6BD046;" d="M45.837,192.986C16.938,205.71-1.834,164.3,25.848,150.713
		c23.872-11.717,45.799-23.822,68.556-38.031c11.124-6.946,38.164-20.805,51.428-11.553c6.231,4.346,8.823,14.45,2.97,19.906
		c-2.012,1.875-8.964,1.95-11.361,2.723c-7.589,2.446-14.66,7.308-21.21,11.754c-14.631,9.932-25.176,21.467-35.145,35.824
		C72.388,183.862,61.996,192.66,45.837,192.986z"/>
</g>
<g>
	<path style="fill:#22AE7B;" d="M48.006,79.935c-2.332,30.072,9.021,49.519,32.112,67.523c14.569,11.36,16.814,3.915,30.905-6.387
		c7.912-5.784,18.415-10.48,24.074-18.68c-17.512-19.296-19.238-53.625-18.028-78.276c0.62-12.633,2.146-18.946-11.366-7.344
		C87.74,52.195,66.476,61.843,48.006,79.935z"/>
	<path style="fill:#22AE7B;" d="M190.695,98.728c6.637-3.654,11.904-10.25,18.604-14.335c5.197-3.169,18.028-11.836,24.546-9.517
		c5.101,1.815,6.867,10.894,8.393,15.499c1.195,3.606,6.967,14.236,4.013,18.026c-1.693,2.172-15.225,6.609-18.553,8.262
		c-4.434,2.203-3.608,3.432-8.409,1.239C208.94,113.173,200.671,100.817,190.695,98.728z"/>
	<path style="fill:#22AE7B;" d="M136.403,242.81c-6.551,10.634-11.001,23.707-16.97,34.894
		c-6.512,12.204-11.181,24.814-16.227,37.608c18.35,18.212,39.618,28.505,63.293,38.111c5.529,2.243,11.247,6.52,17.39,5.604
		c11.907-1.774,15.414-22.984,18.231-32.488c3.653-12.324,8.59-24.341,11.574-36.856c0.212-0.891,2.753-8.143,2.108-9.337
		c-1.935-3.583-11.839-3.714-15.833-5.35c-11.462-4.696-24.019-8.966-34.866-14.789C158.383,256.599,145.064,243.555,136.403,242.81
		z"/>
	<path style="fill:#22AE7B;" d="M70.279,385.499c2.185-0.064,10.097,7.6,13.126,9.711c10.78,7.513,23.214,13.068,35.288,18.229
		c6.808,2.91,13.971,6.001,21.227,7.747c4.467,1.075,9.972,0.478,13.841,3.198c-5.409,22.724-25.829,46.632-45.708,57.906
		c-19.466,11.039-33.387,9.007-51.334-4.232c-5.892-4.346-15.213-10.509-18.533-17.13c-4.211-8.398,0.778-18.372,3.564-26.331
		C47.706,417.572,56.908,394.84,70.279,385.499z"/>
</g>
<g>
	<path style="fill:#119260;" d="M65.407,132.138c6.95-4.201,13.055-10.81,19.794-15.662c6.342-4.567,26.425-22.935,35.107-20.533
		c3.891,1.077,14.618,19.769,14.613,23.683c-0.009,6.967-11.242,12.073-16.222,15.601c-7.176,5.085-15.506,14.677-23.756,17.854
		C85.558,156.693,62.989,142.195,65.407,132.138z"/>
	<path style="fill:#119260;" d="M191.995,272.325c-2.907,0.407-5.646,1.692-7.65,3.995c-8.186,9.411-10.611,23.059-15.593,34.175
		c-3.693,8.236-7.654,16.274-11.705,24.343c-1.343,2.675-5.63,8.241-4.684,11.658c1.624,5.868,14.189,4.238,19.591,6.256
		c6.008,2.244,11.21,6.554,17.197,8.438c4.269-16.955,11.939-32.52,18.47-48.71c2.68-6.645,6.556-12.745,9.185-19.424
		c1.303-3.311,1.99-6.743,2.959-10.133c1.093-3.828-3.066-5.044-6.136-5.355c-4.142-0.419-7.271-0.417-10.828-2.79
		C199.716,272.721,195.717,271.804,191.995,272.325z"/>
	<path style="fill:#119260;" d="M112.042,411.253c-0.064,6.993-10.789,23.032-15.31,29.89c-5.732,8.694-11.576,12.989-19.346,19.415
		c-3.979,3.29-14.024,12.491-14.644,18.451c-1.04,9.999,11.933,11.522,19.388,12.513c13.466,1.79,23.846-1.456,34.807-9.58
		c11.319-8.389,21.559-24.457,27.708-37.149c2.543-5.249,6.795-13.089,4.991-18.942c-1.481-4.807-6.298-7.382-10.873-8.72
		C131.375,414.968,120.06,410.913,112.042,411.253z"/>
</g>
<path style="fill:#8BEB6A;" d="M285.357,55.573c-10.003,6.515-14.75,24.95-18.147,35.952c-8.663,28.052-4.944,60.031-1.22,88.643
	c5.211,40.03,17.538,78.77,32.061,116.303c13.717,35.45,27.833,70.156,44.207,104.691c10.765,22.704,24.649,44.936,40.565,64.363
	c9.068,11.069,18.512,25.714,33.716,28.063c12.693,1.961,25.324-0.595,36.703-6.383c12.269-6.241,26.491-19.628,23.606-34.491
	c-3.483-17.943-14.438-36.787-21.985-53.288c-18.981-41.501-44.392-79.563-65.906-119.719
	c-20.102-37.521-42.002-80.429-45.003-123.581c-0.924-13.29,3.696-30.713,19.044-33.652c12.668-2.425,23.489,12.298,32.133,19.732
	c11.786,10.135,22.031,21.069,32.911,32.087c8.644,8.753,17.44,16.998,29.356,20.559c24.087,7.199,46.606-25.585,47.502-46.599
	c0.908-21.303-21.908-44.157-34.245-59.789c-20.338-25.77-49.601-47.751-80.23-59.912c-17.333-6.882-36.221-8.107-54.621-5.079
	C309.807,27.75,294.266,41.477,285.357,55.573z"/>
<g>
	<path style="fill:#6BD046;" d="M351.482,188.518c1.334,24.061-19.864,43.699-21.5,67.774
		c-2.806,41.303,30.936,82.348,49.816,116.591c9.648,17.499,15.8,37.279,27.179,53.726c8.25,11.925,17.677,22.869,27.041,33.888
		c8.53,10.038,17.15,28.286-3.646,29.35c-51.435,2.631-80.741-65.211-98.992-102.556c-18.288-37.421-29.112-76.822-42.576-115.863
		c-2.436-7.064-8.408-15.459-0.191-17.707c5.801-1.587,7.876,2.935,10.187-5.344c0.952-3.411,0.209-6.964-0.16-10.316
		c7.096-2.136,13.358-1.986,20.711-2.291c2.914-21.076-25.951-34.145-29.812-52.225c-2.316-10.849,7.989-8.196,15.156-5.359
		C319.141,183.907,335.178,194.2,351.482,188.518z"/>
	<path style="fill:#6BD046;" d="M441.968,187.822c-2.335-7.077-8.367-12.521-13.042-18.069
		c-10.25-12.164-19.235-23.459-33.715-30.897c-11.138-5.722-31.128-12.021-30.186-28.037c0.561-9.536,8.8-15.199,17.421-16.73
		c12.641-2.245,22.915,4.441,32.492,11.746c9.141,6.972,17.063,14.866,23.368,24.48c5.826,8.885,10.927,18.872,22.157,21.554
		c11.221,2.68,34.428-9.151,36.869,8.972c1.412,10.482-8.16,26.367-17.402,31.113C466.576,198.809,450.666,191.863,441.968,187.822z
		"/>
</g>
<g>
	<path style="fill:#22AE7B;" d="M375.843,124.482c3.774-9.177,8.117-18.134,11.458-27.67c5.889-16.808,5.955-29.971,5.946-47.583
		c-0.003-6.202-2.086-21.095,7.129-20.277c4.05,0.359,10.18,7.016,13.574,9.217c15.909,10.315,34.567,23.44,44.756,39.829
		c5.855,9.418,8.449,16.231,5.494,27.274c-3.765,14.072-13.833,24.614-24.56,34.158c-9.021,8.026-15.834,14.146-26.787,7.067
		C399.434,137.826,384.28,129.838,375.843,124.482z"/>
	<path style="fill:#22AE7B;" d="M277.005,73.67c-5.354,3.485-14.358,27.116-12.621,33.668c1.824,6.877,12.098,7.534,17.125,4.502
		c5.833-3.518,17.869-16.629,17.982-23.722C299.634,79.175,283.517,72.362,277.005,73.67z"/>
	<path style="fill:#22AE7B;" d="M371.055,244.773c-0.757-0.202-1.557-0.225-2.403-0.027c-2.823,0.663-7.051,6.068-9.5,7.788
		c-9.664,6.786-19.869,11.605-31.016,15.378c-9.863,3.339-18.806,8.876-28.746,12.495c-5.857,2.133-6.353,0.571-6.473,7.01
		c-0.143,7.68,7.201,18.128,10.016,24.918c4.258,10.269,9.523,19.545,14.237,29.522c1.993,4.219,3.615,13.039,8.671,14.836
		c4.26,1.514,12.718-2.044,16.819-3.26c12.19-3.613,29.751-9.371,39.838-17.218c5.857-4.556,18.434-14.265,21.547-20.829
		c4.06-8.562-1.488-20.519-6.016-28.521c-5.169-9.136-11.153-17.782-16.364-26.893C379.5,256.188,376.316,246.176,371.055,244.773z"
		/>
	<path style="fill:#22AE7B;" d="M354.266,423.782c11.865-0.073,24.429-4.186,35.442-8.28c19.533-7.262,34.375-24.929,53.726-31.383
		c9.07,15.347,17.729,31.55,24.317,48.222c9.622,24.351,3.34,41.585-21.313,52.829c-9.288,4.236-20.008,9.482-29.709,5.571
		c-9.277-3.74-15.518-11.103-22.092-18.284c-8.27-9.032-13.275-19.413-21.927-28.178
		C365.607,437.081,358.15,431.872,354.266,423.782z"/>
</g>
<g>
	<path style="fill:#119260;" d="M334.081,269.259c-7.416,17.95,17.219,49.481,25.732,64.399c3.35,5.87,6.777,7.823,1.593,11.959
		c-3.477,2.774-10.89,3.948-15.001,5.949c-4.548,2.212-8.997,4.272-13.641,6.277c-7.374,3.183-6.868,4.922-11.321-2.118
		c-9.687-15.317-13.794-35.64-20.628-52.365c-2.576-6.305-10.576-18.008-6.112-23.782c2.532-3.275,12.536-4.042,16.372-5.447
		C317.041,271.945,325.308,270.684,334.081,269.259z"/>
	<path style="fill:#119260;" d="M397.421,409.861c1.679,3.09,2.652,8.65,4.061,12.515c5.218,14.315,13.621,22.927,24.192,33.274
		c4.671,4.572,18.241,14.141,19.366,20.755c1.488,8.753-8.5,10.293-14.7,10.729c-11.386,0.802-15-1.102-24.003-7.384
		c-9.053-6.317-18.636-10.549-26.589-18.561c-6.952-7.003-11.745-16.498-17.27-24.627c-2.741-4.033-4.528-7.919-5.47-12.626
		c6.253-2.716,13.268-7.781,20.089-8.35C386.691,414.785,392.476,417.096,397.421,409.861z"/>
	<path style="fill:#119260;" d="M379.324,126.57c-1.538-3.496,3.542-23.426,6.961-26.563c7.367-6.758,19.287,8.044,24.868,12.486
		c5.933,4.721,12.33,8.608,18.179,13.433c1.576,1.3,9.624,6.255,9.995,8.267c1.414,7.664-17.531,18.338-23.007,19.431
		c-1.434-5.969-7.394-10.764-12.082-14.228C397.794,134.634,385.822,123.788,379.324,126.57z"/>
</g>
<path style="fill:#F13636;" d="M257.726,109.695c-8.989-3.301-19.165,5.738-25.303,11.319c-2.156-1.385-3.663-3.818-5.815-5.392
	c-6.21-4.542-14.544-7.079-21.492-10.335c-9.253-4.336-17.72-4.772-27.816-5.033c-6.485-0.167-12.509-0.243-14.342,6.996
	c-5.919,23.369,3.625,49.651,9.164,72.163c2.137,8.684,1.46,20.916,6.742,28.448c6.35,9.056,15.185,6.737,23.015,0.877
	c4.443-3.325,7.443-8.179,11.121-12.229c3.165-3.485,7.042-6.1,10.355-9.422c3.1-3.108,6.2-10.038,11.493-7.559
	c4.155,1.946,5.478,8.945,5.316,12.737c-0.424,9.888-2.632,19.598-4.753,29.227c-2.514,11.414-6.767,23.042-7.52,34.755
	c-0.499,7.775,5.366,9.278,10.706,3.934c3.192-3.195,7.783-11.298,13.226-11.382c5.062-0.078,5.952,9.768,8.034,13.505
	c5.614,10.077,10.877-1.279,12.914-7.487c0.718-2.186,1.338-4.601,1.787-6.876c0.277-1.402,0.057-6.352,0.964-7.562
	c1.524-2.034,1.06-1.692,2.978,0.574c2.775,3.279,6.974,17.706,14.2,15.061c5.801-2.124,4.041-15.203,7.675-19.348
	c5.258,2.367,19.095,12.944,19.604,0.875c0.325-7.711-6.051-14.55-10.299-20.401c-4.971-6.847-9.968-13.318-14.125-20.697
	c-2.786-4.947-12.85-17.665-6.279-23.443c4.887-4.297,15.072,4.937,19.034,7.451c11.38,7.219,28.862,18.416,39.212,3.968
	c4.39-6.128,4.237-15.647,3.981-22.802c-0.452-12.592-2.62-24.966-3.247-37.511c-0.525-10.511-1.813-20.786-4.675-30.942
	c-1.684-5.975-3.82-13.774-9.25-17.522c-15.409-10.637-36.152,12.512-44.142,23.063c-3.374,4.456-9.735,14.962-15.627,16.621
	c-3.205,0.903-4.096-0.986-6.76-2.372C264.563,111.267,261.349,110.73,257.726,109.695z"/>
<g>
	<path style="fill:#E81D1D;" d="M222.674,160.955c-2.224-0.544-2.603-3.747-2.982-5.745c-2.109-11.113,1.196-23.824,8.62-32.29
		c2.39-2.725,7.728-8.724,12.131-6.555c2.743,1.351,2.975,7.064,3.477,9.397c2.175,10.127,6.601,20.312,16.412,25.156
		c5.198,2.566,15.184,3.133,18.186,8.817c3.849,7.289-6.566,14.566-11.739,17.528c-8.845,5.064-16.394,3.888-25.635,0.331
		C231.2,173.767,225.635,168.926,222.674,160.955z"/>
	<path style="fill:#E81D1D;" d="M165.762,150.401c3.776,19.941,5.757,40.491,15.165,58.884c8.892,17.387,36.802-8.878,43.731-17.425
		c1.748-2.156,9.569-8.221,9.307-11.277c-0.158-1.838-4.23-4.549-5.365-6.036c-3.122-4.094-6.144-8.77-8.393-13.39
		c-1.8-3.697-2.275-8.103-3.973-11.546c-2.736,1.042-4.404,3.893-6.986,5.424c-5.446,3.227-13.607,5.166-19.758,3.351
		C179.223,155.359,172.689,136.009,165.762,150.401z"/>
	<path style="fill:#E81D1D;" d="M205.713,136.833c-5.192-2.229-11.086-2.436-16.237-4.555c-9.353-3.847-12.936-18.241,0.421-18.398
		c7.253-0.085,20.414,7.401,24.176,13.868C218.839,135.942,206.453,143.486,205.713,136.833z"/>
	<path style="fill:#E81D1D;" d="M288.255,145.125c-0.409-4.603-4.535-8.699-6.359-12.817c-1.931-4.359-7.675-25.288,3.814-22.05
		c5.988,1.688,5.247,11.204,13.244,6.921c5.205-2.787,19.217-15.78,25.554-7.929c5.787,7.17-8.333,14.085-12.543,16.326
		c-4.927,2.622-11.697,4.854-12.534,11.184c-0.747,5.65,2.366,8.904,7.284,10.581c10.934,3.729,26.63,4.773,33.171,15.665
		c3.818,6.359,4.364,18.962-2.827,23.537c-5.219,3.32-14.991-0.895-20.066-2.734c-4.802-1.74-8.483-4.926-13.103-6.926
		c-3.283-1.421-7.181-1.722-10.229-3.662C285.248,167.866,288.731,159.705,288.255,145.125z"/>
	<path style="fill:#E81D1D;" d="M278.833,177.538c0.158,2.443-0.857,4.637-2.144,6.672c-6.67,10.546-19.765,14.868-26.328,25.872
		c-5.486,9.198-6.166,19.774-8.885,29.896c-1.172,4.364-4.188,15.648-9.674,16.695c-1.773-3.89,0.642-10.044,1.493-14.052
		c1.527-7.194,3.255-14.286,4.029-21.612c1.219-11.554,1.855-23.473,0.998-34.984c-0.683-9.178,6.899-3.707,13.21-3.249
		c5.792,0.421,9.959-0.278,15.078-2.964C270.456,177.793,273.221,176.376,278.833,177.538z"/>
	<path style="fill:#E81D1D;" d="M283.356,201.66c-0.475,1.437-0.585,4.07-0.778,5.856c-0.655,6.059-1.488,12.037-2.704,18.012
		c-0.819,4.027-3.586,10.848-2.369,15.113c1.79,6.277,13.525,8.309,18.99,10.016c-0.233-5.232,0.914-11.113,0.422-16.216
		c-0.687-7.122-5.421-14.229-6.674-21.492c-1.541-8.929,4.568-21.198-0.409-29.27C281.96,170.908,280.435,201.137,283.356,201.66z"
		/>
</g>
<path d="M501.74,121.412c-14.707-22.681-33.192-43.37-53.316-61.365c-6.691-5.983-13.96-11.967-21.66-17.545
	c-0.436-0.318-0.88-0.627-1.319-0.941c-0.896-0.639-1.795-1.275-2.702-1.902c-0.548-0.379-1.099-0.754-1.651-1.126
	c-21.234-14.391-45.356-25.088-69.679-24.057c-0.698-0.008-1.391-0.045-2.091-0.038c-26.246,0.258-50.876,10.659-67.993,30.754
	c-13.47,15.814-21.334,33.938-25.328,53.11c-3.994-19.172-11.861-37.296-25.33-53.11c-17.117-20.095-41.746-30.496-67.993-30.754
	c-0.7-0.007-1.393,0.03-2.091,0.038c-24.324-1.031-48.446,9.666-69.679,24.057c-0.552,0.373-1.103,0.748-1.651,1.126
	c-0.907,0.627-1.806,1.263-2.702,1.902c-0.439,0.315-0.883,0.623-1.319,0.941c-7.7,5.578-14.969,11.562-21.66,17.545
	C43.451,78.042,24.967,98.731,10.26,121.412c-13.389,20.648-14.425,42.547,1.368,62.296c13.263,16.585,35.78,29.297,55.02,14.344
	c19.73-15.334,31.33-39.041,51.154-54.438c9.292-7.218,24.436-17.277,35.178-7.359c1.441,1.33,2.61,2.779,3.549,4.318
	c0.588,4.918,1.302,9.807,2.007,14.611c0.228,1.551,0.51,3.093,0.761,4.64c-0.911,6.374-2.953,12.745-4.706,18.115
	c-9.093,27.854-20.886,54.911-33.33,81.411c-23.493,50.028-50.915,98.061-75.254,147.663c-9.839,20.053-26.645,46.571-8.64,67.03
	c14.292,16.24,40.878,28.258,62.34,21.744c22.456-6.815,37.271-30.936,49.652-49.149c15.595-22.943,28.863-47.426,40.602-72.54
	c14.784-31.628,26.004-64.563,39.526-96.537c0.512-1.211,1.02-2.444,1.299-3.723c3.208-1.681,6.14-3.767,8.923-6.345
	c4.071-3.769,7.695-9.421,12.271-13.008c3.12,4.571,6.386,14.59,7.859,17.57c2.538,5.132,9.214,2.879,10.956-1.432
	c1.941-4.803,3.716-9.734,5.339-14.748c0.503,1.512,1.031,3.017,1.616,4.512c0.063,0.162,0.145,0.3,0.222,0.444
	c12.165,38.687,26.947,76.644,44.065,113.267c11.739,25.113,25.007,49.596,40.602,72.54c12.381,18.213,27.196,42.334,49.652,49.149
	c21.461,6.513,48.048-5.505,62.339-21.744c18.005-20.459,1.199-46.977-8.64-67.03c-24.339-49.602-51.76-97.635-75.253-147.663
	c-12.444-26.5-24.237-53.557-33.33-81.411c-0.547-1.675-1.122-3.452-1.684-5.292c0.041-1.67,0.049-3.328,0.061-4.943
	c0.069-8.845-0.1-17.697-0.635-26.525c0.993-1.762,2.244-3.424,3.869-4.925c10.742-9.917,25.885,0.142,35.178,7.359
	c19.824,15.398,31.424,39.104,51.154,54.438c19.24,14.954,41.757,2.241,55.02-14.344C516.166,163.959,515.129,142.06,501.74,121.412
	z M277.977,80.263c4.962,1.847,9.777,3.904,14.452,6.156c-7.406,6.892-13.726,14.977-18.2,23.31
	c-1.171-0.731-2.409-1.377-3.679-1.981C272.035,98.298,274.423,89.07,277.977,80.263z M309.253,147.435
	c-5.408-1.685-10.859-3.239-16.292-4.84c-0.025-0.008-0.047-0.008-0.072-0.014c-0.173-2.695-0.565-5.369-1.208-7.977
	c0.3-0.127,0.604-0.285,0.915-0.507c6.105-4.379,11.121-10.954,16.429-16.275c2.789-2.796-1.014-8.208-4.373-5.668
	c-0.247,0.187-0.475,0.39-0.72,0.578c-0.004-0.005-0.007-0.009-0.011-0.014c-0.085,0.077-0.171,0.152-0.256,0.229
	c-3.382,2.622-6.561,5.437-9.541,8.456c-1.853,1.549-3.757,3.123-5.395,4.867c-1.725-3.635-3.94-7.02-6.643-9.987
	c5.086-5.811,10.573-11.324,16.168-16.611c5.992-5.662,12.783-12.92,20.044-16.917c14.685-8.084,16.962,8.696,19.169,18.926
	c1.948,9.031,3.215,18.182,3.965,27.387c0.698,8.56,0.972,17.154,0.957,25.741c-0.012,7.008,2.76,26.263-6.09,29.096
	c-6.305,2.019-19.76-5.477-24.958-7.812c-7.781-3.496-15.216-7.652-22.43-12.184c2.107-4.42,3.354-9.139,3.842-13.914
	c4.734,1.914,9.461,3.851,14.227,5.687C312.05,157.635,314.568,149.09,309.253,147.435z M241.441,107.66
	c-4.723,2.125-9.17,5.147-13.028,8.806c-8.246-7.178-16.657-13.088-27.002-17.353c-0.698-0.288-1.416-0.578-2.144-0.869
	c10.56-7.386,22.218-13.314,34.756-17.981C237.565,89.043,239.949,98.242,241.441,107.66z M194.268,135.216
	c3.341,2.143,6.763,3.746,10.295,5.057c3.078,2.391,6.014,5.085,9.584,6.615c-0.341,4.315,0.114,8.745,1.433,13.157
	c-0.115,0.063-0.236,0.109-0.344,0.189c-4.06,3.047-8.076,6.148-12.278,8.998c-4.513,3.061-0.52,10.154,4.319,7.389
	c4.096-2.34,8.396-4.808,12.367-7.515c0.341,0.562,0.661,1.126,1.036,1.684c2.051,3.053,4.432,5.65,7.043,7.827
	c-6.297,5.462-12.423,11.104-18.717,16.574c-4.518,3.927-16.533,17.609-22.43,15.052c-4.86-2.107-7.764-19.716-9.136-24.671
	c-2.55-9.207-4.625-18.545-6.297-27.95c-1.797-10.107-3.275-20.352-3.652-30.623c-0.14-3.798-0.191-7.63,0.09-11.424
	c0.564-7.598,0.659-11.384,8.922-11.349c15.935,0.066,33.95,8.265,47.16,17.442c-3.561,4.504-6.277,9.586-7.76,14.874
	c-2.909-1.281-5.762-2.786-8.577-4.356c-2.866-2.27-5.866-4.317-9.563-5.26C192.717,125.639,189.947,132.445,194.268,135.216z
	 M77.324,166.984c-7.478,9.335-17.901,26.082-31.22,25.317c-14.081-0.809-27.098-15.395-32.25-27.593
	c-6.3-14.918-0.038-28.222,8.197-40.799c6.159-9.407,12.951-18.409,20.162-27.044c4.944,25.272,21.072,47.162,44.155,58.84
	C83.308,159.456,80.315,163.25,77.324,166.984z M122.814,123.327c-12.118,6.071-21.808,15.314-30.606,25.424
	c-23.469-11.23-40.132-33.376-43.608-59.35c14.132-15.933,32.448-33.551,52.86-46.579c3.337-1.733,6.756-3.35,10.229-4.852
	c-4.664,29.515,6.004,56.072,20.032,81.946C128.725,120.732,125.734,121.865,122.814,123.327z M155.492,113.684
	c-0.199,2.607-0.255,5.235-0.25,7.87c-4.977-2.512-10.58-3.433-16.362-2.942c-13.777-25.33-23.965-55.315-18.445-84.12
	c35.102-12.654,74.351-11.608,99.698,21.324c4.149,5.391,7.624,11.079,10.544,16.985c-15.575,3.916-29.965,11.517-42.444,21.564
	c-6.563-1.929-13.435-3.147-19.596-2.383C157.475,93.366,156.21,104.286,155.492,113.684z M114.42,469.404
	c-7.862,8.272-17.264,14.899-29.157,14.22c-12.06-0.689-25.385-7.89-34.166-16.032c-11.142-10.33-7.009-22.203-1.549-34.379
	c5.402-12.046,11.239-23.911,17.114-35.732c1.13-2.273,2.291-4.529,3.431-6.797c22.547,17.985,48.883,30.06,77.407,34.853
	C137.801,441.357,126.915,456.257,114.42,469.404z M152.475,417.146c-28.365-5.794-55.044-17.438-78.174-34.797
	c10.44-20.514,21.198-40.869,31.788-61.307c4.219,4.11,8.367,8.251,13.215,11.803c6.512,4.772,13.576,8.882,20.692,12.676
	c12.679,6.761,26.03,12.23,39.651,16.807C171.571,380.805,162.69,399.439,152.475,417.146z M188.551,341.403
	c-1.709,4.116-3.46,8.269-5.235,12.432c-13.684-3.854-26.731-9.236-39.238-16.126c-11.567-6.372-24.461-13.636-35.239-21.964
	c8.521-16.517,16.888-33.11,24.821-49.921c2.527-5.355,4.995-10.734,7.405-16.137c0.195,0.143,0.389,0.279,0.584,0.422
	c14.85,18.564,43.674,27.026,66.502,31.403c1.013,0.283,2.024,0.566,3.04,0.844C204.234,302.299,196.607,321.998,188.551,341.403z
	 M230.114,225.523c-1.955,8.425-4.644,16.652-7.278,24.882c-1.333,4.164-2.654,8.332-3.86,12.535
	c-0.598,2.084-0.957,4.235-1.655,6.291c-0.36,1.06-0.782,2.12-1.394,3.062c-2.667,4.102-7.636,0.944-11.184-0.117
	c-3.802-1.137-7.578-2.358-11.33-3.651c-7.579-2.613-15.057-5.518-22.443-8.636c-9.121-5.256-17.928-11.524-27.589-15.517
	c6.675-15.275,12.865-30.747,18.385-46.501c1.097-3.131,2.273-6.371,3.432-9.684c0.689,2.706,1.387,5.41,2.142,8.099
	c2.6,9.258,5.224,22.788,15.228,27.045c9.714,4.134,17.638-3.729,24.515-9.564c9.54-8.095,18.985-16.355,27.581-25.447
	C234.451,200.83,232.948,213.309,230.114,225.523z M264.525,254.384c-3.489-6.544-8.076-12.706-13.918-11.176
	c-4.552,1.193-8.488,6.619-11.614,9.797c-1.724,1.753-3.426,3.486-5.201,5.086c7.206-23.114,11.327-48.835,7.609-72.382
	c11.436,3.14,24.209,0.861,34.223-6.154C276.129,205.571,273.303,230.19,264.525,254.384z M276.412,163.232
	c-11.398,16.526-37.247,17.676-47.872-0.327c-6.745-11.428-4.84-25.872,3.729-35.801c7.229-8.375,18.965-14.219,29.941-10.548
	C281.049,122.856,287.279,147.476,276.412,163.232z M292.403,249.352c-3.987-2.93-7.155-6.545-9.882-11.116
	c-0.336-0.564-0.732-0.993-1.158-1.323c3.826-16.882,5.589-34.333,4.631-51.365c6.203,17.155,14.874,33.112,25.791,47.829
	c-3.94-0.296-7.865-0.813-11.883-1.556c-3.066-0.567-6.534,1.349-6.391,4.868C293.688,241.049,293.276,245.216,292.403,249.352z
	 M445.338,397.483c5.875,11.821,11.712,23.685,17.114,35.732c5.46,12.176,9.594,24.048-1.549,34.379
	c-8.781,8.141-22.105,15.343-34.166,16.032c-11.894,0.679-21.296-5.949-29.157-14.22c-12.495-13.147-23.381-28.047-33.08-43.865
	c28.525-4.793,54.86-16.868,77.407-34.853C443.047,392.953,444.208,395.21,445.338,397.483z M437.699,382.35
	c-23.13,17.358-49.809,29.002-78.174,34.797c-10.215-17.707-19.096-36.342-27.172-54.819c13.621-4.577,26.972-10.046,39.651-16.807
	c7.117-3.794,14.18-7.904,20.693-12.676c4.848-3.552,8.995-7.692,13.215-11.803C416.501,341.481,427.259,361.835,437.699,382.35z
	 M370.937,249.688c2.409,5.403,4.877,10.782,7.404,16.137c7.934,16.81,16.301,33.404,24.821,49.921
	c-10.778,8.327-23.673,15.592-35.239,21.964c-12.508,6.89-25.554,12.272-39.238,16.126c-1.775-4.164-3.527-8.316-5.235-12.432
	c-8.056-19.405-15.684-39.104-22.639-59.047c1.016-0.279,2.027-0.562,3.04-0.844c22.828-4.377,51.652-12.839,66.502-31.403
	C370.548,249.967,370.742,249.83,370.937,249.688z M368.618,244.372c-9.661,3.993-18.468,10.261-27.589,15.517
	c-14.051,5.933-28.516,11.117-42.848,14.819c-1.541-4.55-3-9.127-4.462-13.702c2.565,0.878,5.248-0.399,6.133-3.099
	c1.626-4.966,2.598-9.807,3.19-14.809c6.658,1.475,13.422,1.977,20.316,1.605c4.951-0.267,7.126-5.804,3.924-9.474
	c-14.264-16.353-25.884-34.766-34.786-54.495c7.529,4.625,15.366,8.698,23.569,12.16c9.728,4.107,22.122,8.718,31.578,1.476
	c0.368-0.282,0.7-0.584,1.035-0.883c0.528,1.481,1.051,2.947,1.555,4.385C355.753,213.625,361.944,229.098,368.618,244.372z
	 M353.539,123.448c-1.602-12.862-3.789-26.066-8.043-38.35c-3-8.661-8.692-17.268-18.811-17.625
	c-5.268-0.186-9.931,1.859-14.123,4.868c-4.167,2.04-8.219,4.546-12.085,7.394c-6.143-2.896-12.533-5.269-19.153-6.934
	c2.92-5.905,6.395-11.594,10.544-16.985c25.347-32.932,64.596-33.978,99.697-21.324c5.521,28.805-4.668,58.791-18.445,84.12
	C366.056,118.012,359.247,119.49,353.539,123.448z M389.186,123.327c-2.92-1.463-5.911-2.596-8.907-3.41
	c14.029-25.874,24.696-52.432,20.032-81.946c3.473,1.502,6.891,3.119,10.229,4.852c20.412,13.028,38.728,30.646,52.86,46.579
	c-3.476,25.974-20.138,48.12-43.608,59.35C410.994,138.642,401.304,129.398,389.186,123.327z M498.145,164.708
	c-5.151,12.197-18.169,26.784-32.25,27.593c-13.318,0.766-23.742-15.982-31.22-25.317c-2.991-3.733-5.984-7.528-9.046-11.279
	c23.084-11.678,39.212-33.568,44.155-58.84c7.211,8.635,14.003,17.637,20.162,27.044
	C498.184,136.486,504.446,149.789,498.145,164.708z"/>
<g>
</g>
<g>
</g>
<g>
</g>
<g>
</g>
<g>
</g>
<g>
</g>
<g>
</g>
<g>
</g>
<g>
</g>
<g>
</g>
<g>
</g>
<g>
</g>
<g>
</g>
<g>
</g>
<g>
</g>
</svg>
