<?xml version="1.0" encoding="iso-8859-1"?>
<!-- Generator: Adobe Illustrator 19.0.0, SVG Export Plug-In . SVG Version: 6.00 Build 0)  -->
<svg version="1.1" id="Capa_1" xmlns="http://www.w3.org/2000/svg" xmlns:xlink="http://www.w3.org/1999/xlink" x="0px" y="0px"
	 viewBox="0 0 511.998 511.998" style="enable-background:new 0 0 511.998 511.998;" xml:space="preserve">
<path style="fill:#22AE7B;" d="M196.858,162.204c-1.278,2.108-2.535,4.911-1.014,6.851c0.913,1.165,2.503,1.507,3.959,1.772
	c4.205,0.764,8.409,1.528,12.614,2.292c-10.228,14.019-20.457,28.039-30.685,42.058c-2.762,3.786-5.663,8.498-3.915,12.847
	c2.024,5.037,9.105,6.331,11.488,11.209c1.945,3.982,0.027,8.697-2.006,12.635c-5.098,9.877-11.006,19.336-17.645,28.25
	c-3.106,4.17-6.439,8.349-7.939,13.327s-0.697,11.063,3.386,14.283c1.507,1.188,3.359,1.92,4.73,3.263
	c4.952,4.853,0.702,13.103-3.62,18.524c-3.272,4.103-6.543,8.206-9.815,12.31c-1.397,1.753-2.848,3.627-3.132,5.851
	c-1.177,9.238,16.881,12.269,15.293,21.446c-0.368,2.124-1.822,3.874-3.222,5.513c-6.035,7.062-12.069,14.123-18.104,21.185
	c-2.195,2.568-4.516,5.474-4.421,8.851c0.156,5.591,6.597,8.89,8.487,14.154c2.057,5.729-1.785,11.819-5.894,16.31
	c-4.11,4.49-8.977,9.118-9.464,15.186c-0.48,5.975,3.735,11.57,9.028,14.383c7.968,4.234,14.938,2.612,23.225,2.008
	c10.535-0.768,21.788,1.433,32.449,1.445c55.438,0.067,110.878-1.599,166.213-4.994c4.175-0.256,8.844-0.762,11.51-3.986
	c4.449-5.38,0.016-13.376-4.681-18.541c-4.697-5.164-10.143-11.942-7.271-18.305c5.497,0.937,9.749-5.773,8.753-11.259
	c-0.995-5.487-5.21-9.723-9.042-13.774s-7.69-8.817-7.663-14.394c0.047-9.51,11.34-17.01,9.347-26.309
	c-1.61-7.512-11.372-11.714-11.65-19.392c-0.216-5.954,5.464-10.395,7.262-16.075c2.752-8.695-3.982-17.254-10.088-24.028
	c-6.106-6.774-12.475-15.82-8.979-24.244c1.247-3.005,3.646-5.449,4.719-8.521c2.342-6.701-2.223-13.735-6.955-19.025
	c-4.732-5.291-10.238-11.017-10.145-18.115c0.106-8.184,7.798-15.008,7.244-23.174c-0.602-8.881-10.172-13.939-15.366-21.168
	c-3.895-5.421-5.332-12.539-3.847-19.046c0.717-3.142,2.087-6.236,1.794-9.445c-0.259-2.834-1.786-5.372-3.274-7.798
	c-8.875-14.466-17.75-28.932-26.625-43.399c-5.537-9.025-12.163-26.981-21.754-32.563c-9.334-5.432-18.821,3.285-24.166,10.222
	c-3.684,4.78-14.423,17.866-14.423,24.155C219.987,124.054,208.423,143.129,196.858,162.204z"/>
<path style="fill:#119260;" d="M226.353,113.717c1.03-1.917,2.023-3.854,2.978-5.812c3.916-8.032,19.859-49.329,33.62-37.203
	c2.915,2.568,3.576,6.977,2.708,10.764c-1.219,5.316-4.889,9.674-8.346,13.893c-6.799,8.296-13.398,17.312-15.442,27.841
	c-2.044,10.53,1.756,22.919,11.348,27.718c3.828,1.915,8.952,3.233,9.855,7.417c0.287,1.33,0.044,2.713-0.249,4.042
	c-1.657,7.521-4.923,14.683-9.515,20.865c-4.05,5.453-9.202,10.307-11.522,16.691c-3.215,8.848-0.772,24.401,2.597,33.166
	c1.262,3.284,22.418,25.251,25.642,19.544c-6.567,11.625-18.289,20.73-20.793,33.846c-1.733,9.078,1.736,18.968,8.761,24.974
	c7.025,6.006,17.333,7.896,26.032,4.773c-5.51,5.79-11.116,11.716-14.499,18.957c-3.384,7.241-4.217,16.158-0.154,23.041
	c6.656,11.272,22.274,12.305,35.361,12.013c-5.951,12.596-11.523,28.739-2.446,39.307c7.021,8.174,19.355,8.506,30.118,7.999
	c-0.945,6.855,4.212,13.125,9.99,16.932c5.778,3.807,12.504,6.195,17.712,10.752c2.305,2.017,4.363,4.68,4.434,7.742
	c0.16,6.894-8.669,9.747-15.53,10.441c-67.656,6.837-135.962,7.235-203.694,1.188c-4.917-0.439-11.046-1.965-11.893-6.829
	c-0.32-1.839,0.276-3.706,0.958-5.443c3.881-9.887,10.893-18.519,19.776-24.343c1.583-1.038,3.348-2.143,3.909-3.951
	c0.823-2.649-1.421-5.324-3.896-6.576c-2.476-1.252-5.34-1.729-7.599-3.339c-5.502-3.922-4.76-12.696-0.867-18.219
	c3.893-5.523,9.948-9.075,14.728-13.85s8.364-12.066,5.512-18.191c-2.594-5.571-9.833-8.624-10.622-14.719
	c-0.529-4.083,2.157-7.84,4.914-10.898c3.529-3.915,7.465-7.563,10.054-12.154c2.588-4.592,3.612-10.502,1.001-15.081
	c-2.74-4.803-8.839-7.184-10.919-12.308c-2.251-5.545,1.122-11.639,4.371-16.666c6.1-9.439,12.2-18.879,18.3-28.318
	c3.896-6.029,7.33-15.144,1.512-19.349c-3.189-2.305-8.473-2.251-9.792-5.958c-0.891-2.506,0.754-5.139,2.318-7.289
	c8.631-11.869,17.261-23.738,25.892-35.607c1.488-2.047,3.04-4.681,1.897-6.94c-0.858-1.697-2.873-2.371-4.49-3.373
	c-5.363-3.324-6.529-10.971-4.472-16.936s6.529-10.717,10.619-15.521C214.139,133.808,220.795,124.058,226.353,113.717z"/>
<path style="fill:#F13636;" d="M208.104,376.149c-2.993,3.313-5.297,7.36-5.991,11.77s0.359,9.19,3.322,12.531
	c2.81,3.168,7.131,4.802,11.366,4.747c4.234-0.056,8.358-1.695,11.782-4.187c1.651-1.201,3.168-2.612,4.329-4.29
	c2.796-4.039,3.294-9.214,3.303-14.127c0.005-2.81-0.143-5.714-1.369-8.242c-1.645-3.394-5.164-5.704-8.895-6.254
	C218.931,367.061,212.591,371.185,208.104,376.149z"/>
<path style="fill:#E81D1D;" d="M213.947,388.674c-2.345-3.218-1.616-7.673-2.638-11.522c-0.093-0.351-0.218-0.722-0.511-0.937
	c-0.302-0.222-0.711-0.223-1.083-0.177c-3.653,0.449-5.917,4.245-6.836,7.809c-1.033,4.008-1.074,8.318,0.228,12.247
	s4.003,7.442,7.643,9.413c6.927,3.749,16.231,1.033,21.161-5.111c1.507-1.878,2.698-4.471,1.64-6.634
	c-0.839-1.714-2.887-2.561-4.795-2.53c-2.686,0.043-4.767,1.223-7.511,0.911C218.46,391.827,215.687,391.061,213.947,388.674z"/>
<path style="fill:#F13636;" d="M288.456,407.421c-2.993,3.313-5.297,7.36-5.991,11.77s0.359,9.191,3.322,12.531
	c2.81,3.168,7.131,4.803,11.366,4.747c4.234-0.056,8.358-1.695,11.782-4.187c1.651-1.201,3.168-2.612,4.329-4.29
	c2.796-4.04,3.294-9.214,3.303-14.127c0.005-2.81-0.143-5.714-1.369-8.242c-1.645-3.394-5.164-5.704-8.895-6.254
	C299.282,398.333,292.942,402.457,288.456,407.421z"/>
<path style="fill:#E81D1D;" d="M294.299,419.946c-2.345-3.218-1.616-7.673-2.638-11.522c-0.093-0.351-0.218-0.722-0.511-0.937
	c-0.302-0.222-0.71-0.223-1.082-0.177c-3.653,0.449-5.917,4.245-6.836,7.81c-1.033,4.008-1.074,8.318,0.228,12.247
	c1.302,3.929,4.003,7.442,7.643,9.413c6.927,3.749,16.231,1.033,21.161-5.111c1.507-1.878,2.698-4.471,1.64-6.634
	c-0.839-1.714-2.887-2.561-4.795-2.53c-2.686,0.043-4.767,1.223-7.511,0.911C298.812,423.099,296.039,422.333,294.299,419.946z"/>
<path style="fill:#F13636;" d="M288.673,319.035c-2.993,3.313-5.297,7.36-5.991,11.77s0.359,9.19,3.322,12.531
	c2.81,3.168,7.131,4.802,11.366,4.747c4.234-0.056,8.358-1.695,11.782-4.187c1.651-1.201,3.168-2.612,4.329-4.29
	c2.796-4.039,3.294-9.214,3.303-14.127c0.005-2.81-0.143-5.714-1.369-8.242c-1.645-3.394-5.164-5.704-8.895-6.254
	C299.499,309.946,293.159,314.07,288.673,319.035z"/>
<path style="fill:#E81D1D;" d="M294.516,331.559c-2.345-3.218-1.616-7.673-2.638-11.522c-0.093-0.351-0.218-0.722-0.511-0.937
	c-0.302-0.222-0.711-0.223-1.083-0.177c-3.653,0.449-5.917,4.245-6.836,7.809c-1.033,4.008-1.074,8.318,0.228,12.247
	c1.302,3.929,4.003,7.442,7.643,9.413c6.927,3.749,16.231,1.033,21.161-5.111c1.507-1.878,2.698-4.471,1.64-6.634
	c-0.839-1.714-2.887-2.561-4.795-2.53c-2.686,0.043-4.767,1.223-7.511,0.911C299.029,334.712,296.256,333.946,294.516,331.559z"/>
<path style="fill:#F13636;" d="M210.928,291.454c-2.993,3.313-5.297,7.36-5.991,11.77s0.359,9.19,3.322,12.531
	c2.81,3.168,7.131,4.803,11.366,4.747c4.234-0.056,8.358-1.695,11.782-4.187c1.651-1.201,3.168-2.612,4.329-4.29
	c2.796-4.039,3.294-9.214,3.303-14.127c0.005-2.81-0.143-5.714-1.369-8.242c-1.645-3.394-5.164-5.704-8.895-6.254
	C221.754,282.366,215.414,286.489,210.928,291.454z"/>
<path style="fill:#E81D1D;" d="M216.77,303.979c-2.345-3.218-1.616-7.673-2.638-11.522c-0.093-0.351-0.218-0.722-0.511-0.937
	c-0.302-0.222-0.71-0.223-1.083-0.177c-3.653,0.449-5.917,4.245-6.836,7.809c-1.033,4.008-1.074,8.318,0.228,12.247
	c1.302,3.929,4.003,7.442,7.643,9.413c6.927,3.749,16.231,1.033,21.161-5.111c1.507-1.878,2.698-4.471,1.64-6.634
	c-0.839-1.714-2.887-2.561-4.795-2.53c-2.686,0.043-4.767,1.223-7.511,0.911C221.283,307.132,218.51,306.366,216.77,303.979z"/>
<path style="fill:#F13636;" d="M265.219,238.466c-2.993,3.313-5.297,7.36-5.991,11.77s0.359,9.19,3.321,12.531
	c2.81,3.168,7.131,4.803,11.366,4.747c4.234-0.056,8.358-1.695,11.782-4.187c1.651-1.201,3.168-2.612,4.329-4.29
	c2.796-4.039,3.294-9.214,3.303-14.127c0.005-2.81-0.143-5.714-1.369-8.242c-1.645-3.394-5.164-5.704-8.895-6.254
	C276.045,229.377,269.706,233.501,265.219,238.466z"/>
<path style="fill:#E81D1D;" d="M271.062,250.99c-2.345-3.218-1.616-7.674-2.638-11.522c-0.093-0.351-0.218-0.722-0.511-0.937
	c-0.302-0.222-0.711-0.223-1.082-0.177c-3.653,0.449-5.918,4.245-6.836,7.809c-1.033,4.008-1.074,8.318,0.228,12.247
	c1.302,3.929,4.003,7.442,7.643,9.413c6.927,3.749,16.231,1.033,21.161-5.111c1.507-1.878,2.698-4.471,1.64-6.634
	c-0.839-1.714-2.887-2.561-4.795-2.53c-2.686,0.043-4.767,1.222-7.511,0.911C275.575,254.143,272.802,253.377,271.062,250.99z"/>
<path style="fill:#F13636;" d="M233.73,188.083c-2.993,3.313-5.297,7.36-5.991,11.77s0.359,9.191,3.322,12.531
	c2.81,3.168,7.131,4.803,11.366,4.747c4.234-0.056,8.358-1.695,11.782-4.187c1.651-1.201,3.168-2.612,4.329-4.29
	c2.796-4.04,3.294-9.214,3.303-14.127c0.005-2.81-0.143-5.714-1.369-8.242c-1.645-3.394-5.164-5.704-8.895-6.254
	C244.556,178.995,238.216,183.118,233.73,188.083z"/>
<path style="fill:#E81D1D;" d="M239.573,200.607c-2.345-3.218-1.616-7.673-2.638-11.522c-0.093-0.351-0.218-0.722-0.511-0.937
	c-0.302-0.222-0.711-0.223-1.083-0.177c-3.653,0.449-5.917,4.245-6.836,7.809c-1.033,4.008-1.074,8.318,0.228,12.247
	s4.003,7.442,7.643,9.412c6.927,3.749,16.231,1.033,21.161-5.111c1.507-1.878,2.698-4.471,1.64-6.634
	c-0.839-1.714-2.887-2.561-4.795-2.53c-2.686,0.044-4.767,1.223-7.511,0.911C244.086,203.761,241.313,202.994,239.573,200.607z"/>
<path style="fill:#F13636;" d="M251.791,127.484c-2.993,3.313-5.297,7.36-5.991,11.77s0.359,9.19,3.322,12.531
	c2.81,3.168,7.131,4.803,11.366,4.747c4.234-0.056,8.358-1.695,11.782-4.187c1.651-1.201,3.168-2.612,4.329-4.29
	c2.796-4.04,3.294-9.214,3.303-14.127c0.005-2.81-0.143-5.714-1.369-8.242c-1.645-3.394-5.164-5.704-8.895-6.254
	C262.617,118.396,256.277,122.519,251.791,127.484z"/>
<path style="fill:#E81D1D;" d="M257.634,140.008c-2.345-3.218-1.616-7.674-2.638-11.522c-0.093-0.351-0.218-0.722-0.511-0.937
	c-0.302-0.222-0.711-0.223-1.083-0.177c-3.653,0.449-5.917,4.245-6.836,7.809c-1.033,4.008-1.074,8.318,0.228,12.247
	s4.003,7.442,7.643,9.413c6.927,3.749,16.231,1.032,21.161-5.111c1.507-1.878,2.698-4.471,1.64-6.634
	c-0.839-1.714-2.887-2.561-4.795-2.53c-2.686,0.044-4.767,1.223-7.511,0.911C262.147,143.162,259.374,142.395,257.634,140.008z"/>
<path style="fill:#F9A363;" d="M211.186,469.56c-4.145,1.924-3.329,14.978-3.486,19.096c-0.157,4.116-0.921,11.905,1.95,15.476
	c2.336,2.905,5.885,2.125,9.387,2.479c13.932,1.408,27.528-0.13,41.49,0.455c9.831,0.412,21.798,2.1,31.46-0.317
	c4.96-1.241,10.495-2.996,12.529-7.866c2.771-6.635,3.01-22.297-0.043-29.056c-4.551-10.074-29.325-3.459-37.447-2.646
	C248.246,469.061,229.948,467.895,211.186,469.56z"/>
<path style="fill:#F38C47;" d="M257.935,502.892c-4.974-4.506-3.211-10.998,1.102-15.249c11.174-11.014,27.575-5.184,41.203-8.054
	c7.509-1.581,6.606-8.512,0.283-12.534c-4.699-2.99-13.241-1.848-18.551-1.822c-9.488,0.046-18.982-0.12-28.469-0.016
	c-8.085,0.089-16.146,0.8-24.226,0.99c-3.545,0.083-10.82-1.364-14.039-0.016c-5.378,2.252-2.983,13.417-3.99,19.272
	c-0.934,5.428-2.614,12.94,2.378,16.968C223.709,510.566,244.944,505.589,257.935,502.892z"/>
<path d="M380.156,440.315c-1.971-2.587-7.843-6.542-8.624-9.594c-0.423-0.192-0.845-0.383-1.267-0.575
	c1.304-0.767,2.614-1.523,3.93-2.269c0.909-0.602,2.15-1.444,3.007-2.233c5.809-5.349,5.806-13.172,3.017-20.069
	c-3.263-8.069-13.718-13.983-15.347-22.274c-1.114-5.667,4.761-8.898,7.062-13.158c2.185-4.045,2.606-8.903,1.764-13.373
	c-0.87-4.623-2.98-8.613-5.504-12.507c-1.541-2.377-7.323-7.932-6.328-10.944c0.173-0.523,4.144-3.594,4.655-4.277
	c0.926-1.236,1.295-1.874,1.988-3.473c1.641-3.789,1.921-8.198,0.971-12.218c-2.15-9.09-9.724-16.349-15.414-23.382
	c-4.697-5.805-8.598-8.132-4.816-15.491c2.3-4.474,4.717-7.33,4.596-12.667c-0.201-8.815-6.185-15.338-11.257-21.895
	c-4.515-5.837-6.94-10.29-3.137-17.163c2.234-4.037,5.124-7.209,6.165-11.866c1.995-8.925-3.38-16.765-9.377-22.754
	c-3.825-3.82-8.501-6.991-11.312-11.722c-3.996-6.724,1.548-9.355,2.099-15.42c0.479-5.275-3.513-10.189-6.016-14.456
	c-3.514-5.991-7.12-11.925-10.717-17.865c-7.13-11.773-14.26-23.546-21.389-35.32c-6.027-9.953-14.095-26.702-25.592-28.453
	c-0.223-17.258,11.955-31.208,14.526-48c2.09-13.654-7.828-20.292-20.371-15.173c-13.281,5.421-22.603,16.554-20.593,31.146
	c1.858,13.486,6.795,25.226,16.274,34.355c-1.185,0.706-2.398,1.568-3.643,2.613c-1.423,1.195-2.735,2.536-3.973,3.966
	c-0.524,0.323-0.975,0.812-1.253,1.506c-0.001,0.003-0.003,0.006-0.004,0.009c-6.016,7.607-10.063,17.538-14.581,25.616
	c-4.393,7.855-8.711,15.724-12.884,23.675c-4.693,6.465-9.685,12.704-14.944,18.675c-5.355,6.079-17.28,14.118-16.154,23.486
	c0.936,7.796,9.067,9.673,16.633,10.705c-5.157,6.434-10.275,12.898-15.381,19.374c-6.136,7.783-16.446,17.281-19.475,26.85
	c-2.007,6.342,0.881,12.61,7.14,14.922c4.55,1.681,10.049,0.736,9.062,7.492c-0.751,5.135-7.119,10.907-10.094,15.035
	c-7.969,11.059-30.043,33.124-14.985,46.795c2.321,2.107,6.633,2.797,8.61,4.957c4.069,4.448-4.697,11.959-7.707,15.812
	c-5.126,6.564-14.554,15.151-10.456,24.358c3.682,8.272,16.27,8.548,10.722,20.032c-4.297,8.894-14.893,13.346-20.407,21.517
	c-4.172,6.183-6.29,14.295-0.851,20.411c3.643,4.096,9.971,6.183,6.416,13.114c-2.538,4.949-7.648,8.395-11.164,12.591
	c-4.313,5.147-8.349,12.632-5.709,19.501c2.83,7.362,10.436,8.765,17.393,9.423c19.877,1.882,39.844,3.196,59.806,4.117
	c-0.669,8.193-2.51,17.488-1.512,25.515c0.601,4.838,3.168,7.835,7.746,9.501c6.164,2.242,14.615,2.314,21.129,2.753
	c9.444,0.636,18.923,0.539,28.374,0.093c9.478-0.448,18.958-1.203,28.413-1.999c5.374-0.452,11.211-0.49,15.543-4.201
	c7.58-6.494,6.973-20.42,4.955-31.035c18.33-0.454,36.893-1.111,54.861-3.716C380.829,468.365,391.265,454.894,380.156,440.315z
	 M246.567,36.579c-1.26-5.949-2.294-11.862,1.268-17.279c2.799-4.256,10.995-11.981,16.526-11.62
	c14.453,0.946-0.131,26.111-3.238,33.138c-2.617,5.921-4.721,11.84-5.627,18.059C250.894,52.322,248.229,44.427,246.567,36.579z
	 M298.663,492.252c-1.421,4.217-5.121,5.295-9.249,6.17c-10.742,2.275-22.795,2.158-33.745,2.491
	c-11.859,0.361-23.918,0.193-35.661-1.661c-7.015-1.108-5.917-2.166-6.181-9.103c-0.203-5.344-0.42-10.688-0.632-16.032
	c2.51,0.103,5.021,0.227,7.531,0.317c24.529,0.884,49.086,1.001,73.622,0.354c1.422-0.037,2.854-0.07,4.281-0.105
	c0.117,3.204,0.268,6.408,0.263,9.619C298.888,486.732,299.425,489.99,298.663,492.252z M366.067,457.151
	c-9.397,2.79-20.718,2.286-30.464,2.977c-11.349,0.804-22.709,1.449-34.077,1.924c-22.132,0.926-44.29,1.23-66.439,0.909
	c-22.746-0.329-45.484-1.26-68.158-3.117c-4.774-0.391-9.551-0.784-14.318-1.26c-6.154-0.616-13.709,0.128-10.314-8.022
	c1.355-3.252,5.344-5.886,7.669-8.477c2.939-3.275,5.582-6.685,7.107-10.876c2.231-6.13,2.214-12.737-1.967-18.04
	c-2.787-3.535-7.644-4.193-5.923-9.712c1.356-4.348,6.465-8.009,9.611-11.002c9.306-8.851,20.192-24.035,10.42-36.641
	c-1.413-1.823-8.274-5.32-8.757-7.034c-0.865-3.069,6.857-10.325,8.608-12.692c5.117-6.916,14.253-16.023,10.778-25.591
	c-2.397-6.6-14.298-9.008-13.603-15.931c0.488-4.854,6.407-11.159,9.009-14.917c3.518-5.082,7.111-10.122,10.558-15.251
	c7.162-10.655,15.871-28.162-0.819-34.715c-1.132-0.444-4.638-0.701-5.312-1.551c-2.015-2.541,3.682-7.33,5.009-9.036
	c3.173-4.082,6.329-8.174,9.469-12.281c7.771-10.165,15.577-20.299,23.168-30.6c1.993-2.705-0.008-7.482-3.279-8.06
	c-2.231-0.394-14.604-1.676-15.87-3.282c0.144-0.195,0.306-0.417,0.507-0.697c0.921-1.304,1.984-2.484,3.189-3.541
	c1.387-1.504,2.821-2.963,4.2-4.475c6.847-7.511,13.376-15.509,18.895-24.053c7.489-11.594,13.603-23.962,18.586-36.791
	c2.081-3.436,4.186-6.857,6.366-10.232c3.443-5.331,9.22-12.942,15.714-7.2c3.421,3.025,5.609,8.648,7.972,12.566
	c5.581,9.254,11.162,18.509,16.742,27.763c5.379,8.92,10.729,17.859,16.138,26.762c1.977,3.253,7.633,9.407,8.234,13.284
	c0.544,3.507-2.533,6.138-3.199,9.917c-1.134,6.436,1.852,12.723,5.629,17.731c5.13,6.801,20.248,14.887,15.97,24.802
	c-2.8,6.49-8.094,10.579-8.108,18.234c-0.015,8.156,5.201,14.591,9.901,20.708c3.696,4.811,8.647,10.246,5.682,16.78
	c-1.44,3.175-4.136,5.402-5.23,8.856c-2.505,7.911,2.588,13.34,7.094,19.308c3.783,5.011,18.742,19.84,14.164,26.811
	c-1.755,2.672-5.585,3.001-7.37,6.106c-1.547,2.691-1.278,6.067-0.395,8.902c2.534,8.128,13.308,16.13,12.803,24.975
	c-0.24,4.197-4.221,7.21-6.272,10.521c-2.109,3.404-3.083,7.195-2.672,11.19c0.793,7.715,6.257,13.554,11.075,19.147
	c2.197,2.551,6.923,7.682,6.323,11.63c-0.664,4.371-6.421,5.093-9.102,7.708c-4.355,4.247-4.238,10.02-1.088,14.939
	C363.67,442.371,378.956,453.323,366.067,457.151z"/>
<path d="M226.905,365.701c-11.333-2.623-25.468,7.934-27.354,19.539c-1.831,5.156-1.505,10.78,2.473,16.078
	c8.536,11.371,25.606,9,33.185-2.141C242.129,389.003,241.143,368.996,226.905,365.701z M229.481,397.563
	c-6.181,7.127-17.5,8.096-23.383,0.188c-3.597-4.835-3.146-10.285-0.696-15.104c3.737-6.682,11.549-12.354,18.709-11.711
	C236.397,372.039,235.674,390.422,229.481,397.563z"/>
<path d="M307.802,396.957c-11.333-2.622-25.468,7.934-27.354,19.539c-1.831,5.156-1.505,10.78,2.473,16.078
	c8.536,11.371,25.606,9,33.185-2.141C323.026,420.259,322.04,400.252,307.802,396.957z M310.378,428.819
	c-6.181,7.127-17.5,8.096-23.383,0.188c-3.597-4.835-3.147-10.285-0.696-15.104c3.737-6.682,11.549-12.354,18.709-11.711
	C317.294,403.295,316.572,421.678,310.378,428.819z"/>
<path d="M307.802,308.705c-11.333-2.623-25.468,7.934-27.354,19.539c-1.831,5.156-1.505,10.78,2.473,16.078
	c8.536,11.371,25.606,9,33.185-2.141C323.026,332.008,322.04,312,307.802,308.705z M310.378,340.567
	c-6.181,7.127-17.5,8.096-23.383,0.188c-3.597-4.835-3.147-10.285-0.696-15.104c3.737-6.682,11.549-12.354,18.709-11.711
	C317.294,315.043,316.572,333.426,310.378,340.567z"/>
<path d="M230.582,281.127c-11.333-2.623-25.468,7.934-27.354,19.539c-1.831,5.157-1.505,10.78,2.473,16.078
	c8.536,11.371,25.606,9,33.185-2.142C245.806,304.429,244.82,284.421,230.582,281.127z M233.158,312.989
	c-6.181,7.127-17.5,8.096-23.383,0.188c-3.597-4.835-3.146-10.285-0.696-15.104c3.737-6.682,11.549-12.354,18.709-11.711
	C240.074,287.464,239.352,305.847,233.158,312.989z"/>
<path d="M292.204,261.284c6.921-10.174,5.935-30.182-8.303-33.476c-11.333-2.622-25.468,7.934-27.354,19.539
	c-1.831,5.156-1.505,10.78,2.473,16.078C267.555,274.797,284.625,272.425,292.204,261.284z M263.094,259.858
	c-3.597-4.835-3.147-10.285-0.696-15.104c3.737-6.682,11.549-12.354,18.709-11.711c12.286,1.103,11.564,19.486,5.37,26.627
	C280.296,266.797,268.977,267.766,263.094,259.858z"/>
<path d="M260.948,211.642c6.921-10.174,5.935-30.182-8.303-33.476c-11.333-2.622-25.468,7.934-27.354,19.539
	c-1.831,5.156-1.505,10.78,2.473,16.078C236.299,225.155,253.369,222.784,260.948,211.642z M231.838,210.216
	c-3.597-4.835-3.146-10.285-0.696-15.104c3.737-6.682,11.549-12.354,18.709-11.711c12.286,1.103,11.564,19.486,5.37,26.627
	C249.04,217.155,237.721,218.124,231.838,210.216z"/>
<path d="M279.334,150.969c6.921-10.174,5.935-30.182-8.303-33.476c-11.333-2.622-25.468,7.934-27.354,19.539
	c-1.831,5.156-1.505,10.78,2.473,16.078C254.685,164.482,271.755,162.111,279.334,150.969z M249.527,134.439
	c3.737-6.682,11.549-12.354,18.709-11.711c12.286,1.103,11.564,19.486,5.37,26.627c-6.181,7.127-17.5,8.096-23.383,0.188
	C246.626,144.709,247.077,139.258,249.527,134.439z"/>
<g>
</g>
<g>
</g>
<g>
</g>
<g>
</g>
<g>
</g>
<g>
</g>
<g>
</g>
<g>
</g>
<g>
</g>
<g>
</g>
<g>
</g>
<g>
</g>
<g>
</g>
<g>
</g>
<g>
</g>
</svg>
