<?xml version="1.0" encoding="iso-8859-1"?>
<!-- Generator: Adobe Illustrator 19.0.0, SVG Export Plug-In . SVG Version: 6.00 Build 0)  -->
<svg version="1.1" id="Capa_1" xmlns="http://www.w3.org/2000/svg" xmlns:xlink="http://www.w3.org/1999/xlink" x="0px" y="0px"
	 viewBox="0 0 512.002 512.002" style="enable-background:new 0 0 512.002 512.002;" xml:space="preserve">
<path style="fill:#F9A363;" d="M211.177,49.728c-32.122,5.894-58.04,36.173-59.851,68.478c-1.419,25.314,9.021,44.86,24.441,63.753
	c4.555,5.581,8.909,10.341,2.15,14.657c-10.194,6.508-27.162,7.107-38.799,11.093c-23.63,8.093-52.806,21.901-52.766,50.748
	c0.032,23.622,26.236,30.074,45.503,29.945c12.753-0.086,30.329-6.6,41.939-1.175c22.622,10.569,9.928,41.019,5.768,58.951
	c-4.119,17.758-5.456,34.963-6.594,53.067c-1.333,21.205-3.111,42.168-1.892,63.448c1.006,17.557,6.3,36.304,25.027,41.969
	c9.203,2.784,18.321,0.579,24.745-6.669c5.722-6.455,7.347-15.496,9.693-23.632c5.467-18.965,12.912-38.046,15.809-57.544
	c1.348-9.074,4.031-27.652,16.935-26.422c16.492,1.573,16.462,34.089,17.377,44.866c1.605,18.902,3.432,38.331,12.901,55.291
	c9.336,16.723,30.169,15.854,42.278,1.989c19.711-22.571,15.379-61.493,12.084-88.937c-3.955-32.935-11.705-65.29-17.395-97.947
	c-1.479-8.492-2.605-23.211,3.737-30.32c3.992-4.47,12.309-3.932,17.605-4.705c19.495-2.843,36.774-11.798,53.904-21.069
	c19.781-10.705,33.724-30.554,15.959-49.923c-15.637-17.049-35.993-20.96-58.591-21.594c-6.779-0.19-13.517,0.171-20.267,0.647
	c-9.186,0.648-20.253,3.774-29.296,1.371c-15.731-4.18-3.268-17.717-1.507-25.97c5.033-23.599,8.754-45.856-5.564-67.097
	c-10.203-15.137-25.473-27.822-42.789-33.891c-9.249-3.242-17.31-2.594-26.772-3.145C227.915,49.433,220.457,47.736,211.177,49.728z
	"/>
<g>
	<path style="fill:#F38C47;" d="M193.765,57.466c-5.586-0.103-11.139,6.361-14.783,9.698c-9.524,8.723-16.126,16.815-19.92,29.078
		c-4.238,13.696-9.065,29.724-6.611,44.157c2.943,17.313,18.434,35.483,30.648,47.574c5.923,5.864,14.342,11.016,22.975,6.139
		c17.456-9.861-11.206-37.375-14.908-48.351c-4.879-14.467-5.094-30.079,0.448-44.36c5.97-15.384,20.093-24.881,30.625-36.848
		c4.339-4.93,9.636-10.991,2-15.766C215.269,43.179,202.108,52.994,193.765,57.466z"/>
	<path style="fill:#F38C47;" d="M82.845,262.539c-0.147-6.93-0.882-12.376,1.906-19.191C90.21,230,97.885,228.475,110.29,232.563
		c12.204,4.022,22.343,12.399,34.53,16.423c14.228,4.698,27.842-0.648,42.104,1.393c29.971,4.289,20.346,59.944,19.094,79.852
		c-2.572,40.888-7.729,82.018-8.366,122.978c-0.162,10.384,2.34,37.051-5.619,44.894c-7.534,7.425-16.455-2.763-18.884-10.231
		c-3.696-11.363-0.31-24.696-0.003-36.378c0.313-11.939,1.472-23.729,2.384-35.638c1.883-24.591,3.941-49.087,6.145-73.636
		c0.976-10.877,2.848-21.553,3.084-32.5c0.109-5.075,1.439-15.547-1.9-20.04c-4.405-5.927-14.01-4.279-20.315-3.437
		c-11.016,1.473-22.579,2.918-33.702,2.709c-10.137-0.191-18.984-1.866-27.755-7.028C91.024,276.002,87.168,265.635,82.845,262.539z
		"/>
	<path style="fill:#F38C47;" d="M276.955,411.506c-2.172-5.502-4.949-10.206-7.77-15.523c-5.25-9.894-5.081-39.821,13.987-31.182
		c7.853,3.558,10.278,18.624,11.931,25.836c2.879,12.56,3.447,25.43,4.714,38.207c1.081,10.901,1.301,25.593,7.652,35.069
		c4.51,6.731,11.143,6.168,17.245,10.78c23.604,17.843-17.36,41.984-30.598,20.979c-6.754-10.717-10.338-28.822-13.517-41.019
		C277.946,444.478,280.215,421.041,276.955,411.506z"/>
	<path style="fill:#F38C47;" d="M334.994,275.436c11.973-5.997,26.517-10.912,39.314-14.943
		c16.245-5.117,32.073-5.195,42.786-19.877c3.71-5.084,13.77-16.774,5.372-21.946c-5.363-3.303-17.418,0.902-22.835,2.573
		c-13.503,4.165-26.125,11.335-39.169,16.682c-10.988,4.504-22.09,8.45-33.582,11.453c-6.921,1.809-14.778,2.294-19.455,8.128
		c-7.366,9.189-6.216,27.971-2.049,38.136c3.477,8.482,9.85,14.452,15.995,4.673C327.932,289.875,328.45,278.45,334.994,275.436z"/>
</g>
<g>
	<path style="fill:#F8F8F9;" d="M132.862,287.728c-3.132-1.525-5.062-7.819-6.171-10.946c-2.952-8.323,0.813-14.257,5.875-20.834
		c6.818-8.861,7.014-25.817-1.107-33.998c-4.329-4.361-8.782-7.621-1.291-12.318c3.386-2.123,8.165-2.619,12.099-3.169
		c4.263-0.597,5.442,0.38,7.939,3.633c10.785,14.051,9.705,30.858,2.549,46.688c-3.483,7.705-4.847,16.503-2.99,24.783
		c0.543,2.422,2.26,5.775-0.198,7.361c-1.651,1.065-6.119,0.148-7.977,0.232C139.157,289.27,135.791,290.63,132.862,287.728z"/>
	<path style="fill:#F8F8F9;" d="M251.44,209.148c-11.407,2.928-13.169,24.727,1.225,23.724
		C269.175,231.722,263.181,202.227,251.44,209.148z"/>
	<path style="fill:#F8F8F9;" d="M254.98,270.738c-11.407,2.928-13.169,24.727,1.225,23.724
		C272.715,293.312,266.72,263.816,254.98,270.738z"/>
	<path style="fill:#F8F8F9;" d="M259.227,328.434c-11.407,2.928-13.169,24.727,1.225,23.724
		C276.962,351.008,270.968,321.512,259.227,328.434z"/>
	<path style="fill:#F8F8F9;" d="M362.23,264.013c-1.522-4.055-6.27-6.564-8.512-10.24c-3.676-6.026-5.821-14.16-3.14-20.942
		c5.424-13.722,20.159-26.716,16.641-43.149c-0.663-3.096-3.496-5.698-2.778-8.928c1.195-5.378,9.194-5.888,13.492-5.105
		c10.234,1.863,12.914,14.789,11.207,23.468c-2.048,10.411-10.872,18.279-12.413,28.735c-0.717,4.864-0.619,10.044,0.363,14.832
		c0.797,3.883,3.293,7.125,3.656,11.006c0.471,5.034-1.636,7.714-5.787,10.315C369.309,267.544,365.962,269.582,362.23,264.013z"/>
	<path style="fill:#F8F8F9;" d="M237.635,426.128c-4.166,2.834-8.79,3.762-13.884,3.201c-7.941-0.874-12.434-5.076-19.136-9.235
		c-5.042-3.129-9.76-4.659-15.632-4.575c-5.462,0.078-14.523-0.736-16.315,5.636c-1.097,3.899-3.234,19.378,0.772,21.283
		c2.313,1.1,6.138-1.051,8.518-1.426c3.479-0.549,7.364-1.221,10.839-0.758c10.46,1.392,17.74,8.4,27.201,12.085
		c4.531,1.765,12.162,2.098,15.781-1.753c3.137-3.338,2.526-9.625,3.106-13.828c0.344-2.495,0.924-5.143,0.414-7.661
		C238.978,427.512,237.791,426.717,237.635,426.128z"/>
	<path style="fill:#F8F8F9;" d="M281.527,429.667c1.81-4.398,8.112-8.102,12.219-10.101c4.883-2.377,8.47-2.446,13.694-1.79
		c5.211,0.654,10.93,3.186,16.004,3.365c6.77,0.238,12.241-9.309,18.969-8.133c4.645,0.813,4.251,8.923,4.597,12.599
		c0.661,7.026,2.979,13.843-4.483,17.142c-6.5,2.874-14.677,0.71-21.448,0.352c-7.836-0.414-17.715-0.467-24.666,3.61
		c-2.697,1.582-9.828,9.85-12.407,7.849c-2.517-1.953-3.321-12.358-4.185-15.536C278.367,433.677,278.957,430.38,281.527,429.667z"
		/>
	<path style="fill:#F8F8F9;" d="M197.284,112.517c-5.296,1.021-7.82,11.606-7.068,16.081c0.843,5.015,8.152,10.541,13.569,9.405
		C218.25,134.97,214.66,104.358,197.284,112.517z"/>
	<path style="fill:#F8F8F9;" d="M271.97,101.544c-11.948,3.78-11.861,25.936,2.511,24.421
		C290.879,124.237,285.623,95.514,271.97,101.544z"/>
	<path style="fill:#F8F8F9;" d="M261.705,136.586c-4.474,3.749-11.709,7.362-17.256,9.484c-6.212,2.376-9.743,0.092-15.829-0.2
		c-4.048-0.194-10.504,1.566-8.643,7.272c1.314,4.03,9.318,5.788,12.872,6.627c9.594,2.264,19.391,1.688,27.972-3.69
		c4.249-2.663,10.95-7.938,10.551-13.476C270.993,137.362,266.683,136.175,261.705,136.586z"/>
</g>
<g>
	<path style="fill:#EEF0F1;" d="M133.263,287.964c-3.394-4.169-6.029-10.518-5.762-15.912c0.423-8.543,5.714-14.674,8.55-22.357
		c2.518-6.821,2.992-15.256,0.249-22.103c-0.855-2.134-2.252-4.571-3.861-6.218c-1.446-1.48-4.475-2.567-5.447-4.448
		c-1.12-2.167-0.953-2.449,1.585-4.204c1.994-1.38,5.882-2.968,8.346-1.73c3.624,1.82,5.628,9.534,6.895,12.904
		c2.436,6.483,4.077,13.715,3.057,20.678c-1.79,12.215-13.174,18.39-9.182,31.841c1.015,3.421,3.053,6.53,3.04,10.196
		C140.712,292.139,137.732,293.525,133.263,287.964z"/>
	<path style="fill:#EEF0F1;" d="M243.634,216.023c-2.686,3.49-1.826,10.466,0.358,13.929c3.471,5.502,12.37,4.75,14.029-2.07
		c1.335-5.487-3.958-2.961-6.63-5.632c-1.89-1.889-0.604-5.216-2.409-7.151C247.357,213.358,245.267,213.453,243.634,216.023z"/>
	<path style="fill:#EEF0F1;" d="M247.938,278.126c-2.686,3.49-1.826,10.466,0.358,13.929c3.471,5.502,12.37,4.75,14.029-2.07
		c1.335-5.487-3.958-2.961-6.63-5.632c-1.89-1.889-0.604-5.216-2.409-7.151C251.661,275.461,249.572,275.555,247.938,278.126z"/>
	<path style="fill:#EEF0F1;" d="M252.857,335.002c-2.686,3.49-1.826,10.466,0.358,13.929c3.471,5.502,12.37,4.75,14.03-2.07
		c1.335-5.487-3.958-2.961-6.63-5.632c-1.89-1.889-0.604-5.216-2.409-7.151C256.58,332.337,254.491,332.431,252.857,335.002z"/>
	<path style="fill:#EEF0F1;" d="M231.644,449.676c-1.662,3.056-8.556,3.269-11.522,2.819c-2.841-0.432-6.328-1.447-8.939-2.695
		c-3.021-1.444-4.909-4.102-7.709-5.846c-5.921-3.689-13.099-3.648-19.791-2.736c-4.739,0.645-15.722,8.867-15.977-0.379
		c-0.257-9.318,9.956-9.218,16.562-9.322c9.589-0.151,21.733,0.585,29.67,6.607c2.616,1.984,4.642,4.503,7.772,5.774
		c4.772,1.937,6.358-0.634,10.62-1.614C239.672,440.595,232.337,449.305,231.644,449.676z"/>
	<path style="fill:#EEF0F1;" d="M286.982,452.135c1.656-2.394,5.646-3.685,8.212-4.973c5.875-2.95,12.425-6.282,19.187-6.098
		c11.756,0.32,25.451,7.874,32.521-6.789c1.812-3.757,0.271-6.805-3.841-6.703c-3.902,0.097-8.664,2.73-12.293,3.91
		c-5.116,1.663-10.186,2.617-15.56,2.954c-7.346,0.461-15.375-1.81-22.441,0.737C287.118,437.208,279.357,444.202,286.982,452.135z"
		/>
	<path style="fill:#EEF0F1;" d="M362.612,263.676c-3.007-1.622-6.061-7.997-7.703-10.898c-4.378-7.734-5.24-15.204-1.677-23.313
		c3.04-6.918,7.262-13.337,10.624-20.133c1.444-2.919,3.254-6.389,3.347-9.72c0.1-3.583-1.962-6.883-2.739-10.345
		c-1.074-4.785,0.371-14.895,7.563-9.691c7.495,5.423,4.101,19.092,2.449,26.063c-1.655,6.984-4.092,13.227-7.847,19.359
		c-4.004,6.538-6.921,11.89-5.919,19.807c0.646,5.1,3.155,8.329,5.195,12.867C367.157,260.459,368.482,265.249,362.612,263.676z"/>
	<path style="fill:#EEF0F1;" d="M229.799,158.84c-2.43-1.08-5.517-1.447-7.736-2.831c-1.714-1.07-3.811-3.27-2.129-5.411
		c1.552-1.977,3.351-0.366,5.118,0.307c7.699,2.934,13.017,3.815,21.124,1.491c6.198-1.777,11.159-4.677,16.505-8.172
		c2.455-1.605,5.026-4.313,5.822-0.277c0.843,4.271-3.589,7.747-6.486,9.87c-4.06,2.974-8.14,4.993-12.835,6.617
		C243.396,162.436,238.296,161.352,229.799,158.84z"/>
	<path style="fill:#EEF0F1;" d="M200.285,137.012c-12.665,0.482-16.574-22.436-2.487-22.448c2.243,5.332-3.713,10.474,2.163,15.077
		c1.482,1.161,4.676,1.893,4.335,4.469C204.015,136.22,200.188,137.418,200.285,137.012z"/>
	<path style="fill:#EEF0F1;" d="M266.999,122.87c-7.425-4.035-3.368-18.108,2.808-21.233c1.638,3.105-0.077,7.63,1.449,11.174
		c1.319,3.065,4.718,3.794,6.128,6.262C281.345,126.009,269.867,125.79,266.999,122.87z"/>
</g>
<path d="M433.879,209.315c-9.809-21.042-33.565-30.991-55.124-34.684c-22.029-3.774-44.582-2.389-66.693,0.585
	c18.5-37.587,21.052-81.96-13.806-111.921c-19.939-17.137-46.096-23.419-71.665-20.798c5.346-9.072,10.32-20.577,7.923-30.22
	c-2.286-9.196-12.402-14.2-21.314-11.586c-9.478,2.781-14.848,12.775-13.96,22.221c0.881,9.383,6.677,16.401,13.775,21.848
	c-1.023,0.234-2.05,0.444-3.066,0.706c-31.603,8.141-54.683,29.515-63.128,61.534c-8.404,31.861,3.884,65.694,29.593,84.753
	c-19.196,3.527-38.429,8.263-56.355,15.713c-17.099,7.107-35.986,18.912-43.106,36.987c-6.35,16.118,2.296,31.107,16.174,39.641
	c18.078,11.117,41.284,11.206,61.717,9.44c5.321-0.46,10.611-1.16,15.906-1.846c10.713-1.388,9.573,6.63,9.704,14.764
	c0.209,12.987-0.786,26.006-2.161,38.911c-2.711,25.441-7.704,50.575-10.565,75.998c-2.419,21.492-5.989,47.745,3.002,68.222
	c6.813,15.515,23.445,26.982,40.532,20.636c19.037-7.071,25.102-27.966,28.021-46.01c1.859-11.49,3.79-22.918,6.461-34.256
	c1.646-6.988,7.3-40.736,18.089-33.97c8.956,5.617,8.628,28.255,9.995,37.46c1.934,13.021,3.366,26.236,5.876,39.159
	c3.428,17.645,13.799,37.794,34.124,39.169c43.495,2.942,41.477-71.768,39.577-98.303c-1.796-25.078-7.061-49.775-12.014-74.368
	c-2.553-12.673-5.192-25.347-7.402-38.085c-1.04-5.992-2.943-13.597,1.541-18.716c3.37-3.847,9.276-5.462,13.998-6.776
	c22.366-6.228,47.957-8.161,68.216-20.386C433.881,245.396,442.238,227.248,433.879,209.315z M213.928,11.491
	c4.143-2.905,9.815-2.245,11.776,3.215c1.123,3.126-0.494,8.111-1.386,11.122c-1.542,5.206-3.784,10.072-6.463,14.742
	C210.562,32.427,203.122,19.068,213.928,11.491z M91.832,269.409c-19.034-20.746,13.522-41.937,30.153-49.507
	c0.711-0.324,1.432-0.628,2.148-0.941c9.426,2.543,12.882,13.698,10.154,23.287c-2.209,7.763-7.282,14.39-9.386,22.212
	c-1.871,6.957-1.343,13.964,2.437,19.454C113.816,282.853,100.731,279.108,91.832,269.409z M146.768,283.938
	c-3.983,0.236-8.09,0.37-12.22,0.306c-11.211-8.562-1.654-23.61,2.503-33.375c2.629-6.174,4.423-12.558,3.312-19.291
	c-1.125-6.817-5.118-12.405-10.649-14.952c5.793-2.298,11.742-4.288,17.764-6.099c10.587,14.415,9.213,32.552,2.316,48.618
	C146.403,267.046,142.928,276.639,146.768,283.938z M196.933,500.38c-22.167-6.357-21.244-36.762-20.414-55.137
	c4.775-1.59,9.736-2.606,14.811-2.271c7.9,0.521,12.319,5.152,18.456,9.329c6.297,4.286,12.909,5.612,19.75,3.829
	C226.837,473.792,221.245,507.352,196.933,500.38z M230.843,448.028c-14.442,5.2-21.164-8.591-34.231-11.121
	c-6.807-1.318-13.447-0.15-19.736,2.233c0.396-6.151,0.996-12.283,1.706-18.406c7.368-2.484,14.857-2.095,21.929,2.246
	c5.597,3.436,10.032,8.057,16.298,10.487c5.625,2.181,11.498,2.624,16.624,0.698C232.486,438.77,231.624,443.392,230.843,448.028z
	 M325.09,497.041c-8.775,5.979-19.165,1.501-25.44-5.929c-7.562-8.956-9.244-21.625-11.1-32.784
	c-0.149-0.897-0.284-1.796-0.431-2.694c9.516-8.767,20.535-9.169,34.382-8.503c6.66,0.321,13.194-0.107,18.895-2.739
	C341.108,461.762,339.615,487.144,325.09,497.041z M341.447,436.236c-11.657,8.017-27.38,1.448-40.554,5.043
	c-5.403,1.475-10.087,4.308-13.768,8.145c-1.048-6.579-2.067-13.162-3.091-19.744c4.382-3.851,9.437-7.038,15.032-8.644
	c8.315-2.387,15.469,0.385,23.596,1.604c6.902,1.035,13.058-0.128,18.225-3.584C341.246,424.777,341.448,430.505,341.447,436.236z
	 M337.84,266.885c-15.975,5.65-20.067,18.766-17.325,34.479c3.999,22.909,9.813,45.48,13.975,68.365
	c2.474,13.604,4.556,27.353,5.78,41.162c-11.572,10.135-24.367,1.105-38.215,3.44c-7.397,1.247-13.547,4.869-18.899,9.635
	c-1.422-9.7-1.934-20.669-6.524-29.444c-6.995-13.374-24.664-15.569-31.918-1.356c-4.152,8.134-5.933,18.131-8.109,26.94
	c-0.339,1.371-0.652,2.748-0.975,4.124c-12.542,11.517-25.771-5.95-37.446-10.083c-6.516-2.306-12.797-1.574-18.87,0.496
	c4.476-34.842,12.28-69.388,11.234-104.649c-0.224-7.548,0.99-19.531-4.863-25.463c-6.704-6.794-19.139-2.324-27.196-1.541
	c-2.117,0.206-4.332,0.401-6.59,0.582c-3.288-8.492,1.432-17.238,4.992-25.508c2.557-5.937,4.256-12.119,4.743-18.584
	c0.834-11.087-1.883-21.872-8.247-30.68c12.964-3.605,26.205-6.41,39.099-9.197c4.177-0.903,5.391-7.753,1.255-9.606
	c-29.124-13.053-44.012-49.858-36.234-80.05c6.09-23.641,24.838-42.611,47.095-53.03c29.098-8.094,60.183-5.447,84.839,15.191
	c33.754,28.254,29.576,73.332,7.315,107.466c-2.21,3.389,0.636,9.061,4.93,8.592c20.288-2.214,40.615-4.904,61.035-3.47
	c0.038,0.1,0.058,0.195,0.104,0.297c8.046,17.751-11.897,33.349-14.201,50.273c-1.479,10.859,2.55,19.898,9.914,26.794
	C349.691,263.859,342.185,265.348,337.84,266.885z M362.822,261.182c-13.005-12.795-8.226-29.578-0.023-44.172
	c5.557-9.888,10.385-20.464,7.302-31.595c4.711,0.581,9.624,1.43,14.529,2.649c6.423,11.965-9.646,31.854-11.781,43.323
	c-1.627,8.741-0.71,19.167,4.681,26.541C372.507,259.141,367.527,260.209,362.822,261.182z M385.03,256
	c-4.982-7.552-7.363-14.817-5.555-24.397c1.534-8.125,5.935-14.899,8.967-22.436c2.615-6.5,3.639-13.71,1.329-19.687
	c13.459,4.116,26.098,11.261,32.816,23.357C435.868,236.746,411.548,248.741,385.03,256z"/>
<path d="M196.145,111.123c-2.128,1.121-3.944,3.108-5.321,5.495c-1.262,1.354-2.299,2.934-2.987,4.833
	c-1.891,5.212-0.794,11.417,3.203,15.369c8.188,8.094,20.416,2.695,23.066-7.584C216.746,118.997,207.758,105.005,196.145,111.123z
	 M208.014,128.241c-1.771,6.15-9.123,9.474-13.799,3.922c-0.544-0.646-0.962-1.332-1.308-2.037
	c-1.108-4.208,0.469-9.697,3.472-12.452C203.362,111.267,209.909,121.66,208.014,128.241z"/>
<path d="M269.108,99.603c-2.128,1.121-3.944,3.108-5.321,5.495c-1.262,1.354-2.299,2.934-2.988,4.834
	c-1.891,5.212-0.794,11.417,3.203,15.368c8.188,8.094,20.416,2.695,23.066-7.584C289.709,107.477,280.72,93.485,269.108,99.603z
	 M280.977,116.721c-1.771,6.15-9.123,9.475-13.799,3.922c-0.544-0.646-0.962-1.332-1.309-2.037
	c-1.108-4.208,0.469-9.697,3.472-12.453C276.325,99.747,282.872,110.139,280.977,116.721z"/>
<path d="M265.948,225.241c2.64-10.24-6.349-24.232-17.961-18.114c-2.128,1.121-3.944,3.108-5.321,5.495
	c-1.262,1.354-2.299,2.934-2.988,4.833c-1.891,5.212-0.794,11.417,3.203,15.368C251.07,240.919,263.298,235.519,265.948,225.241z
	 M248.221,213.677c6.982-6.407,13.53,3.986,11.635,10.567c-1.771,6.15-9.123,9.475-13.799,3.922
	c-0.544-0.646-0.962-1.332-1.309-2.037C243.641,221.922,245.218,216.433,248.221,213.677z"/>
<path d="M269.788,286.683c2.64-10.24-6.349-24.232-17.961-18.114c-2.128,1.121-3.944,3.108-5.321,5.495
	c-1.262,1.354-2.299,2.934-2.987,4.833c-1.891,5.212-0.794,11.417,3.203,15.368C254.91,302.361,267.138,296.962,269.788,286.683z
	 M252.062,275.12c6.982-6.407,13.53,3.986,11.635,10.567c-1.771,6.15-9.123,9.474-13.799,3.922
	c-0.544-0.646-0.962-1.332-1.308-2.037C247.481,283.364,249.058,277.876,252.062,275.12z"/>
<path d="M255.667,326.171c-2.128,1.121-3.944,3.108-5.321,5.495c-1.262,1.354-2.299,2.934-2.988,4.833
	c-1.891,5.212-0.794,11.417,3.203,15.369c8.188,8.094,20.416,2.695,23.066-7.584C276.269,334.045,267.28,320.053,255.667,326.171z
	 M267.537,343.289c-1.771,6.15-9.123,9.475-13.799,3.922c-0.544-0.646-0.962-1.332-1.309-2.036
	c-1.108-4.208,0.469-9.697,3.472-12.453C262.884,326.315,269.432,336.708,267.537,343.289z"/>
<path d="M247.26,163.623c10.933-1.275,28.144-9.675,25.392-23.492c-0.929-4.662-4.625-7.489-9.347-6.852
	c-2.553,0.345-4.584,1.859-6.594,3.357c-4.708,3.506-8.901,6.238-14.354,7.942c-0.809,0.098-1.626,0.162-2.454,0.179
	c-4.819,0.096-9.173-2.228-13.868-2.333c-3.993-0.09-7.703,1.4-8.906,5.472C212.933,162.095,238.966,164.59,247.26,163.623z
	 M226.909,156.059c-1.256-0.583-2.562-1.275-3.248-2.478c-0.803-1.408-0.483-3.358,0.728-4.435c2.278-2.026,6.105-0.601,8.776-0.278
	c2.751,0.333,6.031,1.295,8.803,0.857c8.753-1.386,13.042-8.179,20.803-10.848c0.544-0.187,1.155-0.345,1.682-0.112
	c0.495,0.219,0.788,0.731,0.999,1.231c1.801,4.273,0.083,8.102-2.864,11.1c-2.561,2.606-6.051,4.584-8.965,5.68
	c-4.24,1.595-9.027,2.783-13.542,3.145C235.783,160.268,230.738,157.834,226.909,156.059z"/>
<g>
</g>
<g>
</g>
<g>
</g>
<g>
</g>
<g>
</g>
<g>
</g>
<g>
</g>
<g>
</g>
<g>
</g>
<g>
</g>
<g>
</g>
<g>
</g>
<g>
</g>
<g>
</g>
<g>
</g>
</svg>
