<?xml version="1.0" encoding="iso-8859-1"?>
<!-- Generator: Adobe Illustrator 19.0.0, SVG Export Plug-In . SVG Version: 6.00 Build 0)  -->
<svg version="1.1" id="Capa_1" xmlns="http://www.w3.org/2000/svg" xmlns:xlink="http://www.w3.org/1999/xlink" x="0px" y="0px"
	 viewBox="0 0 512.001 512.001" style="enable-background:new 0 0 512.001 512.001;" xml:space="preserve">
<path style="fill:#8BEB6A;" d="M466.133,159.665c-38.102,30.968-78.068,60.541-116.416,91.736
	c-12.712,10.341-26.509,22.367-43.79,19.656c-6.99-1.096-12.448-3.923-18.786-6.693c-9.213-4.027-19.254-5.512-28.919-8.087
	c-19.844-5.287-38.751-13.509-58.707-18.525c-21.318-5.358-43.519-8.901-65.138-12.958c-18.221-3.419-36.123-8.177-54.318-11.661
	c-7.767-1.487-14.585-2.564-21.678-6.069c-4.62-2.283-8.133-5.832-11.474-0.371c-3.23,5.281,0.536,17.611,1.527,23.138
	c1.548,8.635,3.783,17.13,5.813,25.662c5.177,21.754,8.17,43.873,11.85,65.928c5.378,32.229,3.003,67.429,17.739,97.442
	c8.099,16.495,19.962,24.287,35.174,33.306c17.052,10.109,34.928,10.181,53.868,14.892c17.889,4.45,35.591,10.39,53.755,14.026
	c16.105,3.223,31.901,7.064,48.16,9.567c12.349,1.901,24.12,6.648,36.47,8.278c11.627,1.534,26.68-1.922,37.87-5.426
	c13.307-4.167,24.786-18.67,34.387-28.202c14.655-14.551,29.449-28.436,45.226-41.827c17.44-14.802,51.778-32.851,53.472-58.86
	c0.339-5.205-1.502-10.398-2.14-15.523c-1.127-9.059-0.915-18.318-1.412-27.421c-1.048-19.178-2.542-37.947-2.531-57.205
	c0.013-20.745-0.033-41.504-1.125-62.226c-0.542-10.28-2.345-20.697-2.524-30.957C472.439,168.648,473.471,153.701,466.133,159.665z
	"/>
<path style="fill:#6BD046;" d="M468.713,164.257c0.325,14.24-9.213,29.71-17.73,40.197c-13.641,16.796-32.748,29.653-49.27,43.389
	c-16.579,13.784-33.108,27.855-50.876,40.095c-12.714,8.759-25.609,16.942-37.699,26.589c-14.718,11.743-26.048,26.92-36.357,42.554
	c-18.732,28.41-26.141,61.416-38.488,92.609c-14.638,36.977-54.012,25.195-83.726,14.485c-13.677-4.93-26.926-10.991-40.798-15.429
	c-6.999-2.239-15.352-3.984-21.035-9.042c-7.299-6.495-11.08-18.256-14.005-27.207c-6.923-21.184-10.342-46.552-12.861-68.651
	c-3.487-30.592-10.529-60.843-13.623-91.402c-0.966-9.542-2.804-17.97-5.21-27.194c-1.001-3.836-4.45-12.231,0.25-15.135
	c3.407-2.105,13.001,1.719,16.359,2.674c8.296,2.359,16.531,5.036,24.77,7.611c57.432,17.951,119.102,19.387,176.95,35.512
	c11.485,3.202,24.149,7.762,36.007,8.907c22.507,2.172,40.94-10.731,57.914-23.839c23.551-18.189,44.633-37.353,65.576-58.429
	C430.318,177.058,461.295,148.787,468.713,164.257z"/>
<path style="fill:#22AE7B;" d="M345.499,53.484c-2.916-1.113-5.714-2.556-8.582-3.824c-9.793-4.33-20.316-5.239-30.501-8.408
	c-11.241-3.498-23.108-6.374-34.092-10.581c-6.614-2.533-11.166-4.847-18.385-3.735c-30.072,4.63-54.624,23.468-81.532,36.722
	c-21.773,10.725-42.691,23.086-64.458,33.822c-16.522,8.149-31.129,18.39-46.918,27.607c-11.368,6.637-22.564,10.353-26.908,24.062
	c-4.501,14.205,0.125,33.114,4.8,46.846c4.434,13.025,11.292,16.144,24.396,19.385c23.947,5.922,48.491,7.72,72.349,14.366
	c20.561,5.727,41.879,8.199,62.814,12.084c20.658,3.835,41.095,8.587,61.862,11.859c17.546,2.765,35.442,8.207,53.154,8.318
	c16.69,0.104,28.965-5.28,42.037-15.524c24.169-18.94,47.074-39.483,71.663-57.906c15.65-11.726,31.642-23.205,44.367-38.25
	c7.194-8.506,8.52-15.335,7.723-26.44c-0.83-11.57-3.565-26.855-8.179-37.671c-2.723-6.384-4.929-6.635-11.623-8.192
	c-12.325-2.867-24.483-5.47-37.091-6.785c-13.514-1.41-27.067-3.959-40.125-7.774C371.136,60.213,360.857,54.569,345.499,53.484z"/>
<g>
	<path style="fill:#119260;" d="M476.772,146.165c5.844-5.012,6.499-13.798-2.848-14.862c-12.507-1.424-27.383,11.206-36.216,18.225
		c-12.521,9.95-25.265,19.683-36.969,30.594c-17.39,16.213-44.554,41.441-70.673,35.906c-7.883-1.671-11.717-6.047-16.98-11.662
		c-4.947-5.278-9.053-6.192-16.02-6.497c-15.431-0.674-28.167-2.148-42.935-6.792c-16.407-5.159-33.357-10.409-50.031-14.475
		c-17.427-4.249-34.819-8.46-52.249-12.678c-18.204-4.405-37.373-5.876-55.941-8.324c-15.125-1.994-30.096-4.531-45.278-5.997
		c-3.937-0.38-11.986-2.288-15.463,0.298c-5.827,4.335-0.006,17.486,1.529,22.902c3.519,12.416,4.689,27.429,16.226,35.216
		c15.382,10.383,38.862,11.599,56.754,15.201c55.046,11.084,111.471,19.427,165.335,35.827c10.945,3.333,25.657,9.186,37.224,7.291
		c8.446-1.384,16.423-6.258,23.879-10.115c10.364-5.361,20.493-11.208,30.092-17.861c23.59-16.353,46.616-33.684,69.51-50.996
		c9.173-6.936,18.932-14.115,27.177-22.163c8.035-7.842,13.229-17.789,20.565-26.209"/>
	<path style="fill:#119260;" d="M339.636,109.372c4.331-6.827,35.9-25.207,38.779-10.592c1.895,9.618-14.949,23.706-20.631,29.219
		c-11.947,11.591-25.086,23.01-39.159,31.992c-19.4,12.382-40.931,19.283-63.988,18.253c-7.23-0.323-13.157-0.664-19.559-4.239
		c-3.443-1.922-6.901-7.174-9.982-8.501c-9.32-4.014-17.928,17.812-27.179,10.035c-8.022-6.744,14.265-19.374,19.09-22.869
		c9.873-7.152,14.909-4.587,22.369,4.088c12.925,15.03,32.143,5.333,46.54-3.3c9.925-5.951,19.259-12.778,28.101-20.238
		C323.466,125.25,334.32,117.627,339.636,109.372z"/>
	<path style="fill:#119260;" d="M159.496,130.874c-21.262,4.458-44.121,1.463-65.12-3.532c-5.723-1.361-9.759-2.879-10.603-9.225
		c-0.618-4.644,1.429-11.18,5.471-14.041c6.198-4.387,12.782-0.65,18.746,1.861c7.332,3.088,13.839,7.283,21.645,9.055
		c9.855,2.237,17.749,1.361,27.237-2.05c3.717-1.337,21.399-7.621,24.251-2.261C184.135,116.346,164.559,125.861,159.496,130.874z"
		/>
</g>
<path style="fill:#F13636;" d="M183.96,186.036c0.389-16.71,15.372-23.719,27.447-32.881c4.023-3.053,8.899-7.09,14.192-7.627
	c4.855-0.492,6.852,3.535,9.807,6.531c4.304,4.363,9.225,6.771,14.896,8.993c12.695,4.975,27.102,2.339,38.702-4.549
	c15.233-9.045,30.377-21.677,42.426-34.599c10.737-11.516,38.07-46.531,19.636-61.675c-11.498-9.447-26.19,0.285-37.601-5.126
	c2.699-3.977,8.304-5.841,11.407-9.346c-4.494-3.229-12.176-3.194-17.513-4.093c-5.9-0.994-8.938-3.064-14.045-0.604
	c-8.802,4.239-16.678,10.391-25.424,14.812c-3.619,1.829-8.774,4.996-13.025,4.717c-0.856-0.056-1.702-0.191-2.542-0.38
	c-4.936-1.114-9.675-4.129-15.075-4.335c-7.066-0.269-14.082,4.274-20.654,3.66c-0.451-4.276,2.388-8.638,2.412-13.151
	c0.03-5.454-1.564-11.272-3.626-16.259c-6.447-15.59-17.385-27.004-35.329-24.031c-14.425,2.39-29.639,11.476-41.499,19.628
	c-11.33,7.788-21.906,17.982-29.626,29.43c-10.584,15.697-17.813,40.825,1.191,52.766c13.869,8.714,37.122,7.191,52.127,2.61
	c6.983-2.132,23.144-8.913,29.582-3.977c10.154,7.786-22.114,22.167-26.162,24.429c-7.515,4.199-15.155,8.097-22.982,11.672
	c-6.248,2.854-16.503,6.292-18.488,13.725c-1.243,4.654,1.454,10.808,2.002,15.492c1.107,9.469,0.979,19.127,1.327,28.643
	c0.378,10.334,2.125,20.53,2.607,30.86c0.635,13.603-1.877,28.086,0.741,41.417c2.69,13.701,2.24,28.339,3.753,42.324
	c3.298,30.482,8.635,60.804,9.34,91.517c0.34,14.802,0.479,33.732,7.464,47.221c5.739,11.084,22.378,19.184,33.188,23.386
	c10.099,3.926,20.019,5.276,22.267-7.664c4.142-23.851-0.681-51.508-2.009-75.456c-1.729-31.163-6.5-62.226-9.785-93.246
	c-1.886-17.81-2.402-35.834-5.08-53.483C186.894,226.858,183.477,206.793,183.96,186.036z"/>
<g>
	<path style="fill:#E81D1D;" d="M348.918,92.607c-1.939,3.844-5.003,6.842-7.823,10.059c-8.429,9.614-16.859,19.482-26.046,28.389
		c-13.228,12.826-29.737,24.708-47.764,29.601c-10.576,2.87-26.697,4.699-34.292-5.079c-5.019-6.462-4.803-15.2-4.586-22.955
		c0.098-3.476-0.426-15.691,2.33-18.55c2.23-2.314,5.966-2.017,8.885-3.23c7.059-2.933,12.057-9.052,18.462-12.886
		c4.693-2.809,5.459-3.274,7.727,1.91c1.599,3.655,1.037,7.895,3.277,11.478c2.886,4.618,7.252,6.942,12.328,8.263
		c28.096,7.314,44.1-20.558,59.047-38.306c2.287-2.716,12.706-15.108,17.581-11.049C363.878,75.107,351.407,92.758,348.918,92.607z"
		/>
	<path style="fill:#E81D1D;" d="M201.961,107.103c-3.081-0.952-3.313-4.274-4.01-7.217c-2.185-9.223-0.104-21.099,8.353-26.621
		c8.588-5.608,10.764-0.307,13.976,6.926c3.387,7.624,9.208,9.549,17.563,7.686c4.065-0.906,13.362-8.052,16.726-3.243
		c2.531,3.618-2.056,10.943-4.108,13.398C239.716,110.888,214.726,118.533,201.961,107.103z"/>
	<path style="fill:#E81D1D;" d="M163.472,114.101c-11.695,0.758-21.914,2.712-33.815,0.335
		c-17.749-3.545-32.384-17.684-29.971-37.151c1.032-8.328,5.058-20.659,13.301-24.676c7.762-3.783,10.76,2.488,14.688,7.986
		c10.555,14.772,25.121,20.545,42.269,13.69c8.752-3.499,11.918-7.485,10.793-16.948c-0.692-5.822-4.855-16.799,2.33-20.249
		c5.1-2.449,7.148,2.307,8.343,6.394c1.778,6.085,2.419,9.975,5.452,15.635c8.399,15.671,3.806,30.711-6.164,44.757
		C185.152,111.687,168.422,116.984,163.472,114.101z"/>
	<path style="fill:#E81D1D;" d="M306.882,84.526c-6.562-1.874-13.213-1.057-20.375-0.397c-3.992,0.368-18.03,3.655-11.204,10.128
		c7.403,7.021,26.794,4.885,35.499,2.4c7.725-2.205,8.066-6.267,1.643-9.826C310.592,85.803,308.741,85.057,306.882,84.526z"/>
	<path style="fill:#E81D1D;" d="M153.263,162.646c0.54-2.583,1.565-5.022,3.504-7.211c4.261-4.809,10.406-7.701,15.891-10.835
		c8.291-4.737,15.208-6.613,24.755-6.574c5.669,0.023,12.392,1.673,18.006,0.672c5.353-0.954,14.487-9.012,12.945-15.545
		c-1.587-6.725-12.369-3.702-16.64-5.047c-6.959-2.19-8.525-9.822-16.63-7.075c-6.05,2.051-11.643,7.13-17.195,10.304
		c-6.455,3.69-13.05,6.877-19.789,10.006c-5.813,2.699-11.519,5.657-17.388,8.139c-6.003,2.539-7.569,5.464-10.125,11.721
		c-5.132,12.559-4.726,24.727-4.636,38.068c0.124,18.376,3.599,36.322,4.434,54.645c0.9,19.742,2.14,39.429,3.586,59.143
		c2.036,27.75,2.401,56.299,6.098,83.865c1.725,12.859,3.533,25.676,5.286,38.534c1.291,9.471,1.384,21.104,6.165,29.639
		c4.148,7.405,10.598,13.26,18.749,15.453c4.101,1.103,20.119,4.177,22.416-1.83c1.051-2.749-2.181-5.473-3.413-7.556
		c-2.84-4.799-4.437-10.203-5.942-15.531c-6.719-23.783-12.269-48.265-15.766-72.72c-6.765-47.307-14.357-94.184-18.171-141.831
		c-1.436-17.941,1.86-35.73,3.138-53.571C152.9,172.504,152.282,167.338,153.263,162.646z"/>
</g>
<path d="M488.666,144.803c3.211-8.557-0.221-18.765-1.703-27.32c-2.206-12.732-2.073-27.856-6.37-40.05
	c-2.465-6.993-7.817-9.9-14.734-11.178c-12.607-2.329-25.527-3.311-38.187-5.487c-24.616-4.231-49.085-9.324-73.337-15.293
	c-26.742-6.583-52.749-15.507-79.333-22.545c-19.247-5.095-39.627-5.543-55.776,6.39c-4.222-18.731-14.48-33.675-39.037-28.16
	c-26.999,6.063-55.016,23.222-71.984,45.045c-10.276,13.216-21.038,36.559-15.187,53.809c-19.246,9.165-38.928,18.398-57.093,29.374
	C18.22,140.087,21.24,157.917,24.48,175.897c1.69,9.379,3.484,19.856,7.601,28.524c2.482,5.226,5.989,8.289,10.379,10.373
	c7.197,51.483,15.069,102.814,23.477,154.12c2.036,12.421,4.072,24.843,6.107,37.265c1.744,10.643,1.815,24.115,7.827,33.392
	c4.841,7.471,12.975,10.078,21.111,12.496c13.254,3.939,26.417,8.124,39.59,12.325c2.469,0.788,4.523,0.229,6.032-1.003
	c1.061,1.706,2.379,3.291,4.06,4.7c7.65,6.412,19.5,9.202,28.766,12.326c8.79,2.964,23.915,10.699,32.621,4.122
	c0.43-0.325,0.822-0.671,1.188-1.03c15.955,5.497,31.987,10.396,48.316,14.842c16.768,4.565,34.805,11.946,52.159,13.524
	c16.248,1.478,29.427-10.123,41.949-18.888c14.331-10.032,28.35-20.504,42.077-31.347c27.71-21.888,55.859-44.977,79.993-70.837
	c11.525-12.349,9.615-26.936,9.472-42.861c-0.179-19.889-0.56-39.777-1.112-59.659c-1.22-43.941-3.39-87.835-6.471-131.684
	C483.528,153.174,486.954,149.364,488.666,144.803z M364.934,64.102c29.351,6.66,58.912,11.936,88.624,17.016
	c-28.161,23.622-56.759,46.686-85.624,69.446c-15.204,11.989-30.353,24.119-45.93,35.622c-9.829,7.259-17.429,9.139-29.208,6.34
	c-9.862-2.344-19.655-5.029-29.465-7.577c-19.785-5.139-39.575-10.239-59.413-15.07c2.865-1.881,5.757-3.595,8.131-5.264
	c5.46-3.838,10.919-7.677,16.379-11.516c1.205,2.54,2.679,4.993,4.524,7.324c8.08,10.211,20.279,13.238,32.813,11.137
	c30.162-5.056,59.727-30.634,78.431-53.672C353.818,106.036,368.552,81.756,364.934,64.102z M191.346,184.76
	c0.304-2.165,1.181-4.112,2.408-5.902c29.361,7.121,58.57,14.801,87.654,22.27c8.542,2.194,16.078,4.044,23.441,3.851
	c0.409,18.612-0.053,37.708,1.344,56.349c-3.591-0.646-7.164-1.806-10.483-2.667c-11.219-2.907-22.406-5.929-33.576-9.02
	c-22.23-6.15-44.281-12.879-66.598-18.698c-0.044-0.437-0.088-0.873-0.132-1.31l-2.433-24.112
	C192.311,198.977,190.415,191.388,191.346,184.76z M188.272,166.137c-17.036-4.004-34.117-7.757-51.27-11.109
	c1.593-1.515,3.644-2.893,6.189-4.493c6.609-4.155,13.283-8.202,19.772-12.542c11.256-7.529,22.548-14.98,33.941-22.295
	c7.014,5.688,18.03,6.841,26.581,6.108c-0.056,6.663,0.104,13.378,1.307,19.807c-9.755,6.468-19.525,12.915-29.259,19.413
	C193.055,162.682,190.576,164.337,188.272,166.137z M336.822,60.699c5.223,0.463,10.732,1.468,12.021,6.976
	c1.108,4.733-1.037,10.74-2.572,15.236c-3.711,10.874-10.42,20.571-18.052,29.055c-13.714,15.245-30.886,30.047-49.424,39.028
	c-10.605,5.138-25.123,10.18-34.835,0.936c-8.567-8.153-9.456-20.982-9.405-32.316c9.68-3.041,18.321-8.914,24.697-16.944
	c1.292,6.586,2.585,13.172,3.879,19.758c1.213,6.176,10.396,3.502,9.366-2.582c-1.187-7.015-2.373-14.03-3.561-21.045
	c8.136-1.681,16.741-0.992,24.819,0.526c5.493,1.899,8.09-7.236,2.411-8.746c-8.658-2.303-16.918-2.391-25.453-1.658
	c-1.07-0.028-2.144-0.031-3.219-0.03c1.232-2.959,2.166-6.023,2.592-9.087c0.676-0.143,1.369-0.357,2.089-0.73
	C291.816,68.872,313.939,58.668,336.822,60.699z M306.683,48.791c-13.7,3.454-27.524,9.071-39.016,17.071
	c-0.321-0.553-0.64-1.107-1.027-1.645c-0.501-0.698-1.05-1.372-1.633-2.026c10.588-5.156,21.197-10.472,31.258-16.561
	C299.739,46.679,303.204,47.762,306.683,48.791z M224.846,43.081c15.709-13.608,37.885-7.752,55.673-2.233
	c0.498,0.154,0.998,0.3,1.496,0.454c-8.231,4.719-16.263,9.852-24.216,14.959c-8.627-5.36-20.064-7.899-28.974-6.647
	c-2.494,0.351-4.787,1.019-6.941,1.898c-0.094-2.224-0.232-4.484-0.416-6.751C222.619,44.524,223.77,44.013,224.846,43.081z
	 M255.173,73.794c0.157,0.238,0.33,0.444,0.511,0.63c2.608,11.81-17.238,27.723-26.603,30.873
	c-8.012,2.695-22.598,4.855-25.573-6.172c-1.742-6.453,2.924-17.156,6.456-22.309C220.118,62,244.189,57.155,255.173,73.794z
	 M120.789,53.851c12.686-15.304,30.456-26.071,48.816-33.23c10.063-3.924,24.693-10.405,32.694,0.214
	c6.881,9.134,10.566,23.595,12.203,34.985c-1.732,1.347-3.359,2.838-4.874,4.469c-0.965,0.679-1.908,1.408-2.827,2.183
	c-2.337-5.038-5.049-9.89-8.408-14.346c-3.685-4.889-10.911-0.839-8.267,4.832c2.357,5.055,4.405,10.152,6.117,15.404
	c-5.624,0.52-11.27,1.54-16.786,2.362c-7.06,1.052-4.202,12.29,3.001,10.886c3.93-0.766,7.927-1.364,11.904-2.037
	c-2.745,6.14-4.679,13.21-4.592,19.78c-21.949,6.583-43.496,11.573-66.547,6.747C94.605,100.111,107.883,69.42,120.789,53.851z
	 M56.752,133.702c13.563-8.561,27.163-17.038,40.807-25.459c1.985,2.424,4.497,4.609,7.623,6.478
	c11.993,7.17,29.504,7.835,43.081,7.733c6.997-0.053,14.111-0.649,21.125-1.834c-3.55,1.976-7.093,3.961-10.653,5.923
	c-10.67,5.881-24.146,11.492-32.936,20.062c-1.781,1.737-3.062,3.602-3.983,5.566c-25.897-4.672-51.98-8.314-78.339-10.435
	C47.693,138.454,53.172,135.962,56.752,133.702z M40.797,175.583c-1.519-7.166-4.719-17.047-3.413-24.665
	c27.6,2.463,55.02,6.572,82.287,11.735c-0.066,2.713,0.1,5.508,0.269,8.337c0.929,15.507,2.024,31.007,3.091,46.505
	c-16.037-2.773-31.991-5.98-47.817-9.786c-6.33-1.522-20.97-2.954-26.093-7.382C43.619,195.574,42.237,182.376,40.797,175.583z
	 M111.069,440.099c-4.504-1.502-11.242-2.653-15.081-5.632c-5.402-4.191-5.599-10.928-6.721-17
	c-4.298-23.26-8.449-46.548-12.673-69.821c-7.882-43.42-16.366-86.682-25.248-129.899c23.395,5.789,47.052,10.61,70.853,14.381
	c0.665,0.105,1.295,0.109,1.903,0.063c3.899,54.546,8.705,109.023,13.561,163.491c1.307,14.665,2.67,29.325,4.025,43.985
	c0.314,3.399,0.487,6.941,0.894,10.415C132.06,446.805,121.521,443.584,111.069,440.099z M202.594,473.094
	c-1.846,0.89-10.003-3.027-11.705-3.584c-9.424-3.088-25.634-6.166-31.705-14.215c-3.795-5.031-3.343-13.917-4.005-20.025
	c-0.795-7.329-1.577-14.66-2.353-21.991c-5.588-52.767-10.394-105.588-14.364-158.502c-2.192-29.218-5.539-58.886-5.659-88.199
	c-0.002-0.472,0.011-0.917,0.028-1.356c15.794,3.181,31.537,6.671,47.235,10.367c-0.651,1.305-1.226,2.673-1.609,4.2
	c-2.571,10.24,0.224,22.021,1.257,32.308c1.394,13.883,2.788,27.765,4.181,41.648c5.277,52.564,10.626,105.119,16.048,157.668
	c1.264,12.246,2.462,24.503,3.312,36.786c0.447,6.469,0.999,13.027,1.029,19.517C204.296,470.695,205.09,471.89,202.594,473.094z
	 M315.095,496.551c-1.976,0.056-4.052-0.104-6.282-0.545c-11.11-2.197-22.104-5.269-33.107-7.945
	c-19.513-4.745-38.919-9.184-58.636-12.71c0.623-3.938,0.27-8.223,0.142-11.976c-0.516-15.19-1.713-30.344-3.092-45.477
	c-2.657-29.163-5.599-58.3-8.539-87.435c-2.936-29.095-5.872-58.19-8.808-87.285c21.47,8.462,43.454,15.46,65.531,22.205
	c13.75,4.2,30.665,12.007,46.365,12.596C312.576,350.87,315.978,423.525,315.095,496.551z M470.525,372.867
	c-1.68,5.527-7.167,9.698-11.087,13.611c-7.628,7.613-15.398,15.086-23.303,22.411c-31.153,28.869-64.599,55.205-99.877,78.857
	c-2.866,1.922-5.569,3.674-8.277,5.104c2.417-71.53-0.192-143.863-11.147-214.619c0.333-0.229,0.649-0.487,0.924-0.803
	c2.477-0.441,4.899-1.125,7.243-2.123c43.272-18.439,79.408-55.846,114.799-85.719c8.385-7.078,16.77-14.156,25.156-21.234
	c2.349,40.68,4.09,81.4,5.021,122.136c0.539,23.567,0.76,47.137,0.9,70.709C470.898,364.692,471.578,369.404,470.525,372.867z
	 M473.934,136.734c-1.374,8.061-15.793,16.532-21.587,21.473c-8.468,7.22-16.937,14.439-25.405,21.659
	c-30.926,26.366-61.409,53.728-96.835,74.021c-3.504,2.007-7.343,4.537-11.277,6.195c-0.862-18.78-3.588-37.788-5.31-56.398
	c3.687-1.049,7.412-2.768,11.281-5.42c16.582-11.366,32.303-24.347,48.168-36.689c31.237-24.299,61.701-49.629,91.789-75.337
	c0.127,0.734,0.261,1.617,0.467,2.709c0.964,5.1,2.036,10.182,3.054,15.272c1.018,5.091,2.075,10.177,3.001,15.286
	C472.177,124.454,474.796,131.674,473.934,136.734z"/>
<g>
</g>
<g>
</g>
<g>
</g>
<g>
</g>
<g>
</g>
<g>
</g>
<g>
</g>
<g>
</g>
<g>
</g>
<g>
</g>
<g>
</g>
<g>
</g>
<g>
</g>
<g>
</g>
<g>
</g>
</svg>
