<?xml version="1.0" encoding="iso-8859-1"?>
<!-- Generator: Adobe Illustrator 19.0.0, SVG Export Plug-In . SVG Version: 6.00 Build 0)  -->
<svg version="1.1" id="Capa_1" xmlns="http://www.w3.org/2000/svg" xmlns:xlink="http://www.w3.org/1999/xlink" x="0px" y="0px"
	 viewBox="0 0 511.998 511.998" style="enable-background:new 0 0 511.998 511.998;" xml:space="preserve">
<path style="fill:#F13636;" d="M144.876,143.42c-1.984,3.649-2.546,8.559-3.706,12.526c-2.935,10.033-7.112,19.08-11.899,28.372
	c-8.281,16.074-15.793,33.388-19.926,50.974c-6.261,26.636-10.943,53.826-11.202,81.248c-0.083,8.788-0.182,17.597,0.46,26.369
	c0.603,8.236,3.325,16.455,3.464,24.608c0.288,16.936,1.094,32.976,6.776,49.279c3.869,11.103,10.45,21.219,15.703,31.693
	c9.347,18.637,24.805,39.4,45.732,44.99c20.673,5.522,41.047,9.911,61.056-0.772c18.767-10.02,28.033-28.933,34.805-48.446
	c7.041-20.29,14.367-40.58,17.638-61.867c2.854-18.573,7.118-31.625,24.523-41.111c24.801-13.517,25.001,36.663,38.413,47.999
	c13.899,11.748,43.7-21.069,50.787-30.859c9.55-13.192,7.346-27.265,7.749-42.672c0.509-19.417,2.074-39.512-0.618-58.773
	c-2.81-20.102-7.821-40.631-13.604-60.073c-1.531-5.148-3.854-21.617-9.921-24.373c-3.666-1.665-11.588,3.169-15.116,4.195
	c-8.722,2.536-18.454,3.973-26.062-2.216c-4.06-3.303-8.276-13.826-13.642-15.102c-4.115-0.979-9.139,3.856-12.799,5.143
	c-10.935,3.846-25.011,3.764-35.307-1.942c-5.27-2.921-8.28-8.237-14.615-9.149c-6.783-0.977-13.583,3.215-19.865,5.095
	c-13.681,4.095-23.063,4.543-33.831-4.812c-11.616-10.092-20.034,4.101-33.186,2.98c-6.084-0.519-11.905-2.725-16.552-6.628
	C154.19,145.101,151.693,143.74,144.876,143.42z"/>
<g>
	<path style="fill:#E81D1D;" d="M379.382,172.07c-8.167,21.565-36.37,24.035-55.71,25.421c-25.429,1.822-49.47,0.155-74.261,7.999
		c-30.68,9.708-56.22,30.141-73.67,57.053c-15.526,23.945-23.125,50.453-22.994,78.872c0.118,25.656,7.088,50.27,12.028,75.216
		c3.478,17.564,5.297,35.831-1.188,52.967c-3.211,8.484-13.294,21.312-23.005,13.458c-4.333-3.505-7.015-12.114-9.657-17.031
		c-2.956-5.503-6.052-10.894-8.488-16.659c-5.427-12.844-10.081-26.243-14.063-39.594c-8.075-27.076-14.47-55.005-13.553-83.428
		c1.604-49.719,17.892-94.219,33.947-140.461c3.97-11.435,7.844-22.497,12.843-33.492c2.956-6.501,3.827-9.076,11.553-7.395
		c5.797,1.261,7.327,4.529,11.795,7.763c4.703,3.403,9.235,3.597,14.871,3.005c7.681-0.806,16.387-5.982,23.974-4.926
		c5.196,0.723,9.249,5.402,14.182,7.635c9.133,4.135,20.473,3.511,29.476-0.98c6.284-3.134,10.949-8.724,17.888-3.896
		c5.761,4.008,8.217,9.785,15.45,12.395c11.722,4.23,21.613-1.035,31.988-5.736c7.266-3.292,12.293,1.019,16.974,6.513
		c5.219,6.126,9.608,10.205,18.455,9.568c3.996-0.287,7.617-1.737,11.443-2.807C364.477,172.185,368.565,172.682,379.382,172.07z"/>
	<path style="fill:#E81D1D;" d="M331.632,362.009c0.113-3.631-1.72-6.741-3.192-9.962c-5.437-11.904-13.326-22.074-16.354-35.037
		c-2.281-9.763-1.437-18.604,5.453-26.027c5.003-5.391,12.286-10.972,19.644-7.288c7.919,3.965,9.417,15.402,10.922,23.234
		c1.893,9.849,4.111,18.676,9.002,27.541c3.311,6.001,7.142,11.65,12.553,15.974c4.062,3.246,9.339,5.249,12.53,9.531
		c5.997,8.047-0.594,18.312-7.514,23.606C358.218,396.174,334.096,382.092,331.632,362.009z"/>
</g>
<g>
	<path style="fill:#F8F8F9;" d="M279.574,67.559c-3.754-1.077-8.167-0.968-12.111-1.124c-4.878-0.193-9.713,0.029-14.527,0.818
		c-3.988,0.654-9.581,3.385-13.665,2.451c-6.271-1.433-5.532-5.058-13.32-2.101c-9.829,3.732-14.456,7.229-25.2,4.792
		c-9.851-2.234-18.25-7.084-28.127-1.42c-10.317,5.916-6.511,16.954-12.818,24.618c-5.24,6.367-11.768,0.55-17.984,2.404
		c-9.364,2.793-15.438,19.669-15.3,28.344c0.159,10.018,6.386,14.215,15.65,14.752c2.67,0.155,7.419-0.728,9.875,0.043
		c3.831,1.204,0.87-0.065,3.501,2.645c4.222,4.348,4.977,8.533,11.251,11.308c7.608,3.366,16.12,1.736,23.646-1.371
		c5.697-2.352,11.908-5.775,17.789-3.578c6.569,2.453,10.486,8.992,18.059,11.117c4.751,1.333,9.076,1.384,13.963,0.116
		c5.755-1.492,12.366-8.553,17.921-9.032c4.594-0.396,4.822,3.253,9.417,6.342c17.381,11.689,37.212,9.939,54.173,0.102
		c1.629,6.694,11.354,11.513,16.674,14.884c4.784,3.032,10.321,5.264,16.113,5.302c6.734,0.044,9.957-5.089,15.523-6.175
		c5.045-0.985,7.974,6.249,14.468,3.938c7.217-2.568,12.822-16.161,12.372-23.181c-0.512-7.987-8.098-13.852-7.306-21.074
		c0.592-5.401,4.902-9.77,6.347-14.863c1.376-4.852,1.447-10.999-0.16-15.757c-3.616-10.712-14.209-14.383-24.126-17.026
		c-9.813-2.616-10.321-12.488-19.1-16.945c-13.805-7.01-27.105-1.744-40.723,1.563c-5.979,1.452-7.957-0.428-13.355-2.472
		C291.492,64.332,284.688,64.495,279.574,67.559z"/>
	<path style="fill:#F8F8F9;" d="M265.417,257.043c-1.452-8.151-3.536-23.291-11.846-28.482
		c-3.51-11.989-11.902-23.196-21.328-30.662c-15.084-11.947-37.958-10.487-54.249-2.078c-11.032,5.694-20.54,14.49-28.428,24.032
		c-2.699,3.264-5.802,7.007-7.156,11.071c-1.13,3.392-2.103,5.908-4.036,9.031c-4.393,7.1-7.864,14.731-9.673,22.908
		c-2.098,9.477-1.504,19.306-1.03,28.934c0.959,19.483,8.116,38.594,21.729,52.86c4.25,4.454,9.248,6.374,15.04,7.56
		c6.91,1.414,12.975,5.512,20.073,6.54c6.762,0.979,13.362,0.488,20.088-0.382c6.936-0.897,13.521-1.802,20.029-4.665
		c5.732-2.521,10.117-6.863,14.519-11.184c11.787-11.57,19.169-25.948,24.754-41.388
		C268.882,287.37,267.941,271.214,265.417,257.043z M224.333,283.125c-0.999,4.25-3.496,7.792-6.479,10.896
		c-3.063,3.189-5.42,6.034-8,9.651c-2.828,3.965-6.116,8.079-9.723,11.351c-15.533,14.09-32.687-10.876-39.761-22.251
		c-5.504-8.851-9.413-18.156-8.918-28.777c0.233-5.006,1.607-10.848,5.295-14.483c3.743-3.691,12.598-5.896,17.635-4.648
		c6.017,1.489,12.652,8.183,16.106,13.029c7.199-4.703,9.659-16.489,21.26-15.395c4.732,0.446,9.097,2.199,12.277,5.82
		c1.879,2.139,2.252,5.556,3.978,7.668c-0.351,4.989,0.023,9.929-0.949,14.924C226.26,274.984,225.283,279.086,224.333,283.125z"/>
</g>
<g>
	<path style="fill:#EEF0F1;" d="M136.291,140.257c4.702,2.295,11.558-0.717,15.549,1.468c2.58,1.413,4.505,6.186,7.25,8.238
		c10.732,8.025,22.226,4.564,34.129,2.138c4.487-0.914,11.239-4.082,15.827-3.198c3.682,0.709,4.85,2.984,7.457,5.589
		c4.023,4.02,8.511,5.892,14.247,6.343c10.803,0.848,18.6-3.967,28.217-7.441c7.442-2.689,12.916,4.492,19.214,8.043
		c7.238,4.081,17.277,4.943,25.38,2.649c5.048-1.429,11.862-5.976,17.214-4.04c6.641,2.402,10.295,9.701,17.91,11.297
		c6.365,1.334,13.524-0.213,20.048-0.192c3.124,0.01,6.466-0.67,9.157,0.469c2.126,0.9,3.869,3.323,6.19,4.339
		c4.401,1.926,7.554,1.138,11.691-1.178c6.297-3.527,12.133-10.968,12.897-18.29c2.032-19.45-31.325-19.096-43.997-18.258
		c-13.183,0.872-26.758,2.766-39.822-0.251c-12.995-3.001-16.706-13.025-26.707-19.949c-7.99-5.531-20.212-2.989-29.359-3.726
		c-12.321-0.992-23.391-5.063-32.306-13.895c-10.751-10.652-21.736-24.194-37.315-27.28c-15.44-3.058-18.861,8.372-25.971,18.945
		c-2.593,3.856-5.005,4.321-9.227,4.814c-5.787,0.676-9.589,1.836-14.086,5.777C129.094,112.119,123.396,129.214,136.291,140.257z"
		/>
	<path style="fill:#EEF0F1;" d="M153.234,342.761c-4.514-9.009-1.501-21.922,1.255-30.988c1.44-4.736,5.089-10.652,5.007-15.737
		c-0.051-3.201-1.826-4.807-3.036-7.738c-3.239-7.845-9.091-21.979-6.844-30.42c2.598-9.761,11.858-17.432,22.166-14.845
		c5.93,1.488,8.9,6.463,13.46,9.784c2.844,2.071,2.788,2.661,5.29-1.875c4.107-7.446,6.633-15.132,12.475-21.714
		c9.408-10.599,21.984-9.91,34.084-14.869c10.872-4.456,5.15-11.57-2.09-16.743c-9.213-6.583-23.47-6.762-34.434-6.695
		c-21.896,0.135-46.883,19.313-56.704,37.907c-4.122,7.805-8.912,16.226-12.274,24.376c-5.458,13.234-6.211,31.597-3.311,45.522
		c1.403,6.737,3.95,12.926,6.216,19.392C137.367,326.311,139.308,334.053,153.234,342.761z"/>
</g>
<path d="M418.439,285.372c-0.889-14.561-3.062-28.846-5.721-41.92c-4.48-22.029-11.668-43.514-21.445-63.76
	c9.388-4.652,15.176-15.669,13.679-26.04c-0.737-5.107-3.035-9.897-3.688-15.016c-0.975-7.642,1.778-15.255,2.031-22.954
	c0.358-10.91-5.094-21.498-13.375-28.42c-4.379-3.661-9.19-5.753-14.592-7.386c-6.336-1.917-9.157-7.684-13.983-11.547
	c-4.74-3.794-12.291-6.011-18.207-7.166c-4.969-0.971-10.019-1.316-15.063-0.817c-2.331,0.231-4.647,0.581-6.927,1.119
	c-2.85,0.672-7.615,3.584-10.42,3.18c-1.904-0.275-5.05-3.615-6.926-4.556c-2.228-1.117-4.686-1.998-7.102-2.587
	c-5.393-1.315-11.228-1.203-16.598,0.125c-0.231,0.057-0.452,0.122-0.678,0.184c10.617-19.819,29.673-62.435-2.098-57.401
	c-27.093,4.293-24.676,42.862-10.519,60.413c-0.025,0.041-0.049,0.083-0.074,0.124c-0.104,0.169-0.164,0.336-0.245,0.504
	c-1.831,0.042-3.765-0.284-5.935-1.236c-5.096-2.235-10.133-3.915-15.737-4.297c-5.294-0.361-10.828,0.277-15.895,1.872
	c-5.591,1.761-10.656,6.764-16.143,7.19c-6.544,0.508-13.863-3.786-20.784-3.963c-5.848-0.149-11.694,0.884-17.028,3.287
	c-4.441,2.001-8.401,4.924-11.52,8.676c-1.486,1.788-2.722,3.688-3.723,5.778c-1.073,2.24-1.173,6.687-2.565,8.458
	c-2.505,3.188-12.159,3.695-16.01,5.52c-5.176,2.453-9.861,5.898-13.417,10.413c-7.247,9.201-9.502,22.8-3.249,33.127
	c3.71,6.128,9.801,9.93,16.393,10.88c-0.258,0.273-0.5,0.584-0.699,0.98c-30.064,60.009-48.909,125.041-46.904,192.679
	c1.774,59.864,15.866,132.654,75.121,161.475c28.366,13.797,60.43,14.611,83.821-8.879c24.038-24.14,28.227-59.498,34.548-91.282
	c3.216-16.172,6.761-33.84,16.06-47.773c1.97-2.951,4.509-6.424,7.513-8.51c1.914-1.33,6.065-3.858,8.714-1.794
	c0.883,0.688,1.547,4.826,1.783,5.68c2.185,7.92,4.264,15.684,7.701,23.187c5.884,12.848,15.205,26.005,30.796,25.722
	c13.074-0.237,25.581-8.958,33.977-18.427C415.563,355.112,420.523,319.486,418.439,285.372z M282.53,12.415
	c5.958,3.053,3.312,6.694,1.509,12.172c-1.382,4.2-2.987,8.318-4.724,12.382c-2.146,5.024-4.579,9.889-7.192,14.662
	c-2.263-4.539-3.487-9.783-4.317-14.56C266.304,28.414,269.1,5.532,282.53,12.415z M133.985,123.504
	c-0.277-7.73,5.001-14.119,11.363-17.806c9.55-5.534,20.315-2.711,23.804-15.176c4.394-15.699,17.815-18.378,32.651-14.402
	c5.342,1.432,10.214,4.004,15.822,2.412c4.763-1.352,8.38-5.315,13.003-7.119c5.732-2.236,12.012-2.648,17.988-1.124
	c5.124,1.307,9.558,4.579,14.859,5.231c5.439,0.669,9.702-1.423,14.518-3.602c7.259-3.285,14.969-3.596,22.069,0.432
	c4.693,2.662,7.182,5.449,12.976,4.585c5.25-0.783,9.898-4.084,15.219-5.082c8.382-1.572,17.147-0.283,24.807,3.431
	c2.908,1.41,6.81,3.19,8.39,6.157c1.105,2.075,0.566,4.78,1.821,6.784c1.641,2.622,4.548,2.782,7.282,3.431
	c5.794,1.377,11.199,4.31,15.065,8.903c7.765,9.226,6.966,22.143,0.332,31.745c-1.481,2.144-0.825,5.417,0.927,7.18
	c6.029,6.066,9.224,16.851,4.013,24.492c-4.214,6.178-14.329,9.286-20.347,3.934c-2.039-1.813-4.916-2.349-7.349-0.948
	c-7.628,4.391-16.611,5.127-24.543,0.885c-6.247-3.341-8.077-11.587-14.487-14.16c-7.174-2.879-14.814,3.766-21.559,5.395
	c-11.855,2.863-28.136,0.682-33.304-12.228c-1.274-3.181-5.084-5.748-8.462-3.443c-13.399,9.14-36.985,19.988-48.804,2.259
	c-1.831-2.747-4.914-3.471-7.865-2.062c-15.408,7.356-38.295,12.965-47.947-5.906c-1.049-2.052-3.911-3.147-6.085-2.476
	C142.222,137.669,134.282,131.808,133.985,123.504z M391.258,357.427c-5.827,11.173-17.397,26.367-31.296,26.896
	c-18.023,0.686-22.193-27.966-25.892-40.914c-2.824-9.887-9.376-18.763-20.888-16.44c-12.508,2.524-21.861,13.742-27.566,24.387
	c-14.577,27.2-15.924,58.967-24.047,88.221c-7.996,28.795-26.767,60.091-61.133,55.893c-66.877-8.17-87.564-82.85-92.612-139.291
	c-4.253-47.552,1.071-95.906,14.642-141.637c3.463-11.669,7.472-23.177,12.02-34.468c2.309-5.733,4.758-11.41,7.345-17.023
	c1.882-4.082,4.832-14.89,10.661-11.449c2.578,1.522,4.544,4.319,7.264,5.895c2.642,1.531,5.508,2.646,8.465,3.397
	c12.437,3.156,26.07,0.086,37.48-5.208c15.76,16.329,39.082,13.906,56.826,1.059c5.231,6.708,12.043,11.845,20.57,14.114
	c6.288,1.673,12.997,1.813,19.365,0.487c3.387-0.706,6.548-1.828,9.722-3.185c2.101-0.898,6.04-4.096,8.147-3.832
	c1.66,0.208,6.844,8.545,8.736,10.176c3.432,2.959,7.462,5.189,11.763,6.602c8.378,2.753,17.624,2.31,25.376-1.777
	c3.605,1.976,7.578,3.024,11.573,3.206c11.118,28.604,20.526,58.093,24.062,88.686C405.096,299.392,404.684,331.684,391.258,357.427
	z"/>
<path d="M231.101,190.717c-20.217-11.098-43.847-9.612-62.756,3.487c-10.114,7.006-17.947,15.94-24.398,25.888
	c-13.768,18.875-21.831,43.021-22.432,63.752c-1.085,37.39,24.565,75.418,62.817,81.792c40.905,6.816,75.132-26.289,84.481-63.788
	C278.471,263.107,268.725,211.37,231.101,190.717z M260.963,284.491c-3.292,34.446-27.964,70.267-65.663,70.518
	c-31.92,0.212-58.18-28.222-63.061-58.332c-3.398-20.964,1.753-42.47,11.622-61.019c3.26-6.128,7.102-12.343,11.557-18.07
	c7.417-8.9,15.992-16.476,25.801-20.912c2.34-0.953,4.769-1.73,7.296-2.29c0.528-0.117,0.923-0.354,1.22-0.652
	c7.605-1.837,15.863-1.771,24.807,0.912C251.686,205.785,264.275,249.847,260.963,284.491z"/>
<path d="M215.466,237.722c-11.459-1.821-19.577,6.685-25.423,15.516c-1.382-1.446-2.825-2.818-4.31-4.139
	c-14.283-18.422-40.197-4.158-39.833,17.992c0.227,13.793,8.643,26.75,16.636,37.401c5.892,7.851,16.599,24.918,28.486,21.767
	c11.329-3.004,23.071-15.972,29.659-24.861c7.547-10.183,12.831-22.546,13.395-35.331
	C234.613,253.886,228.876,239.853,215.466,237.722z M221.533,279.639c-5.18,14.133-16.062,25.703-28.48,33.87
	c-5.01,3.294-7.577,1.442-11.998-2.351c-2.475-2.123-4.791-4.754-6.971-7.172c-5.606-6.217-10.889-13.125-14.853-20.538
	c-4.382-8.195-7.39-18.115-2.788-26.956c4.124-7.923,13.22-9.912,19.803-5.438c1.387,1.438,2.778,2.869,4.169,4.298
	c0.043,0.065,0.093,0.12,0.135,0.186c0.365,0.576,0.806,0.994,1.286,1.294c2.001,2.081,3.977,4.188,5.849,6.41
	c1.808,2.146,5.349,1.311,6.661-0.858c5.255-8.684,18.301-24.252,27.518-10.147C226.928,259.989,224.508,271.521,221.533,279.639z"
	/>
<g>
</g>
<g>
</g>
<g>
</g>
<g>
</g>
<g>
</g>
<g>
</g>
<g>
</g>
<g>
</g>
<g>
</g>
<g>
</g>
<g>
</g>
<g>
</g>
<g>
</g>
<g>
</g>
<g>
</g>
</svg>
