<?xml version="1.0" encoding="iso-8859-1"?>
<!-- Generator: Adobe Illustrator 19.0.0, SVG Export Plug-In . SVG Version: 6.00 Build 0)  -->
<svg version="1.1" id="Capa_1" xmlns="http://www.w3.org/2000/svg" xmlns:xlink="http://www.w3.org/1999/xlink" x="0px" y="0px"
	 viewBox="0 0 512.002 512.002" style="enable-background:new 0 0 512.002 512.002;" xml:space="preserve">
<path style="fill:#47D4F7;" d="M221.767,101.904c-9.68,22.338-22.018,43.47-33.331,65.008
	c-12.72,24.216-21.134,50.951-30.702,76.491c-10.799,28.824-21.437,57.648-32.034,86.546c-2.202,6.006-20.174,46.286-11.226,48.081
	c2.549,0.512,7.545-4.997,9.676-6.149c9.824-5.314,20.427-5.516,31.22-3.594c9.869,1.758,14.058,5.552,23.13-0.511
	c7.893-5.275,12.46-8.123,22.116-8.578c10.983-0.518,18.057,4.155,28.16,6.035c8.251,1.535,12.084-5.315,19.298-8.114
	c5.536-2.148,15.543-4.887,21.501-3.876c7.385,1.252,11.986,9.118,18.621,10.827c6.525,1.681,15.231-8.444,21.661-11.04
	c8.302-3.352,14.235-2.886,22.668,0.237c8.11,3.003,12.302,9.897,19.947,4.496c5.223-3.69,11.94-9.424,18.205-10.992
	c8.07-2.02,21.071,7.707,21.932-3.597c0.886-11.624-2.711-23.03-7.073-33.681c-5.837-14.251-13.641-27.862-20.04-41.91
	c-7.111-15.613-14.734-31.016-21.746-46.691c-8.466-18.927-17.497-37.457-28.294-55.172c-8.426-13.825-16.531-29.205-26.329-42.063
	c-8.594-11.278-17.599-22.425-27.175-32.891c-2.886-3.154-6.768-8.124-11.259-9.008c-5.674-1.117-7.558,2.997-11.842,5.525
	c-3.968,2.341-7.042,2.915-10.41,6.654C226.221,96.4,224.672,100.133,221.767,101.904z"/>
<path style="fill:#2DC9ED;" d="M249.36,83.696c-2.88,1.382-7.415,13.074-8.973,16.424c-10.93,23.493-19.127,47.99-21.966,73.818
	c-5.409,49.199,1.094,110.133,54.362,130.28c18.045,6.825,35.759,10.742,55.056,11.38c15.051,0.498,33.242,1.837,47.696,6.706
	c11.53,3.884,16.597,8.232,18.587,19.449c-6.958,0.67-13.086-1.221-20.195,1.283c-6.191,2.18-11.816,5.741-16.602,10.19
	c-3.007,2.795-4.901,6.219-8.844,7.605c-5.783-9.705-17.764-10.719-28.624-10.013c-13.951,0.907-22.611,11.249-35.002,14.862
	c-0.927-10.752-16.856-13.573-25.293-12.608c-8.407,0.962-13.894,4.859-20.587,9.3c-3.228,2.142-5.035,3.642-8.719,2.764
	c-3.769-0.899-6.731-5.742-11.302-6.795c-5.789-1.334-11.805-0.295-17.365,1.318c-11.208,3.252-16.094,8.545-25.082,14.811
	c-7.221-7.156-20.209-8.648-29.885-8.713c-6.611-0.044-12.792,1.275-18.745,4.14c-4.02,1.934-7.363,4.896-11.884,4.596
	c-0.775-8.527,4.223-19.388,6.715-27.442c4.732-15.291,8.907-30.77,13.939-45.967c4.013-12.12,10.335-23.448,14.696-35.671
	c10.749-30.129,23.898-59.317,35.794-88.994c7.871-19.636,15.832-38.294,26.073-56.833c4.829-8.742,11.867-15.807,18.148-23.469
	c2.82-3.44,4.965-6.838,8.66-9.368C243.133,84.615,246.528,85.055,249.36,83.696z"/>
<g>
	<path style="fill:#2989E8;" d="M176.935,234.635c6.363-5.293,12.043-11.401,18.093-3.005c4.854,6.736,6.85,18.582,13.782,23.54
		c8.791,6.288,24.053-12.957,28.769-18.49c4.759-5.584,20.956-32.132,30.796-25.106c3.232,2.308,5.343,8.456,7.295,11.824
		c2.606,4.495,5.639,8.646,8.286,13.109c4.383,7.388,10.54,16.399,19.375,7.743c7.096-6.952,8.939-25.558,21.851-22.35
		c9.631,2.393,20.42,7.956,27.274,15.279c8.46,9.039,10.072,19.764,12.257,31.491c0.837,4.492,2.104,15.468-5.615,15.368
		c-8.896-0.116-15.967-11.519-19.911-17.768c-1.992-3.156-4.66-8.843-9.359-7.484c-4.665,1.349-9.835,11.445-12.303,14.989
		c-3.459,4.966-7.088,12.658-12.648,15.497c-6.703,3.423-8.545-0.511-11.596-6.142c-5.065-9.35-15.034-21.487-25.317-25.451
		c-3.591-1.384-7.893,0.426-10.83,2.879c-2.216,1.85-3.21,4.546-4.914,6.812c-2.742,3.647-6.167,6.633-8.876,10.337
		c-5.119,6.998-16.967,25.457-27.829,20.37c-4.643-2.175-8.234-7.97-11.265-11.945c-3.709-4.866-7.999-9.181-12.052-13.737
		c-7.562-8.501-13.604-6.073-22.7-0.757c-5.373,3.14-9.397,7.047-13.79,11.429c-3.439,3.431-8.147,10.455-13.26,10.984
		c-4.06-5.137,2.061-12.643,3.884-17.364c2.953-7.648,2.989-15.198,8.983-21.389C162.198,248.192,169.329,240.963,176.935,234.635z"
		/>
	<path style="fill:#2989E8;" d="M188.841,187.242c9.006-6.884,15.901,3.672,19.613,10.588c2.842,5.294,5.436,11.751,12.527,10.832
		c8.463-1.096,14.711-12.49,19.531-18.593c4.115-5.211,9.661-13.14,17.019-13.908c5.299-0.553,10.983,3.675,14.419,7.405
		c2.757,2.993,5.77,6.183,7.943,9.638c1.97,3.133,3.06,6.779,5.689,9.477c5.366,5.507,11.946,4.006,17.749-0.196
		c9.849-7.132,20.264-20.219,14.18-32.321c-1.638-3.259-6.824-14.391-11.584-13.834c-2.445,0.286-4.343,4.017-5.694,5.659
		c-2.546,3.095-5.406,6.129-9.037,7.958c-5.587,2.815-7.14-0.378-10.021-4.772c-3.659-5.58-8.412-11.044-12.745-16.093
		c-3.667-4.274-7.933-8.816-13.976-9.259c-5.698-0.418-10.725,6.19-14.116,10.279c-2.862,3.451-12.707,20.345-18.462,18.4
		c-2.038-0.689-3.839-4.587-5.63-5.988c-2.502-1.957-4.929-3.422-7.03-5.913c-4.427-5.251-6.663-10.793-10.686-1.261
		C195.928,161.512,187.007,178.987,188.841,187.242z"/>
</g>
<g>
	<path style="fill:#197CCD;" d="M222.292,252.566c0.993,7.55,3.586,16.301,8.107,22.532c4.635,6.388,10.173,9.253,3.937,17.521
		c-8.208,10.882-19.185,6.646-26.848-1.489c-4.987-5.294-9.016-11.313-14.067-16.501c-4.118-4.23-7.007-7.882-12.674-5.502
		c-7.394,3.105-14.175,8.725-20.584,13.452c-4.575,3.374-11.846,10.859-17.468,11.202c0.83-15.651,10.915-33.314,20.311-45.269
		c3.778-4.807,8.195-8.56,12.679-12.674c2.476-2.272,9.829-11.762,13.165-11.951c3.222-0.182,4.467,3.898,5.477,6.394
		c2.294,5.67,5.299,10.262,8.279,15.589C205.832,251.639,212.85,263.258,222.292,252.566z"/>
	<path style="fill:#197CCD;" d="M217.42,211.156c1.803-6.104,1.985-13.023,2.99-19.306c0.821-5.133,4.896-15.969,2.132-20.786
		c-0.829-1.445-3.502-2.629-4.698-3.787c-2.619-2.536-4.241-5.653-7.148-7.877c-2.79-2.134-7.294-5.616-10.659-3.542
		c-3.714,2.289-6.469,14.256-8.537,18.07c-1.584,2.921-7.284,11.188-6.041,14.717c1.523,4.326,7.415-0.859,11.098-1.608
		c7.643-1.554,7.587,2.992,10.199,8.882C209.087,201.175,213.902,211.09,217.42,211.156z"/>
</g>
<g>
	<path style="fill:#F8F8F9;" d="M289.236,362.398c-1.396-2.884-5.31-4.649-8.051-6.074c-11.187-5.813-23.266-3.44-34.467,1.471
		c-5.902,2.588-11.591,9.06-18.307,7.473c-10.231-2.418-16.636-8.427-28.264-5.692c-6.041,1.421-11.57,4.733-16.369,8.555
		c-1.875,1.493-5.608,6.839-8.125,7.165c-4.07,0.528-8.374-5.356-12.257-7.236c-19.798-9.585-41.057-1.043-50.227,17.915
		c-12.06-3.499-30.733,3.634-35.704,15.646c-5.364,12.962,4.699,17.341,9.639,26.597c-3.475,9.745-14.368,16.152-9.503,27.601
		c2.015,4.741,5.516,8.897,9.85,11.625c3.049,1.92,7.787,2.507,9.863,5.631c2.406,3.621,0.583,8.827,1.089,12.876
		c0.64,5.117,2.992,8.669,7.401,11.513c12.327,7.949,25.829,8.622,39.308,3.574c10.127-3.792,17.979-14.088,27.218-5.468
		c8.393,7.831,17.856,10.448,29.449,9.351c8.056-0.762,15.148-9.819,22.683-7.874c3.511,0.906,7.212,4.352,10.46,6.018
		c6.462,3.315,12.24,4.87,19.553,3.816c12.712-1.833,21.596-13.611,33.706-15.392c4.675-0.688,5.797,2.188,9.86,4.473
		c5.397,3.036,12.1,4.22,18.211,4.365c9.094,0.215,16.856-1.016,24.708-5.789c5.536-3.364,11.383-9.146,17.293-11.6
		c6.929-2.878,11.935,6.594,19.767,6.498c12.368-0.151,30.919-12.057,37.593-21.961c4.235-6.285,6.787-17.475,4.629-24.717
		c-2.924-9.815,1.504-13.835,6.262-22.704c4.422-8.243,8.996-22.486-0.269-29.514c-3.862-2.929-11.729-0.922-14.45-4.257
		c-2.669-3.271,0.367-12.892-0.336-17.073c-2.518-14.993-20.714-22.549-34.334-22.999c-13.303-0.439-22.447,15.291-34.671,10.655
		c-6.741-2.557-12.899-4.968-20.231-5.557C309.71,350.305,302.498,357.364,289.236,362.398z"/>
	<path style="fill:#F8F8F9;" d="M260.2,10.463c-8.707-5.422-21.312-6.82-28.672,1.586c-4.157,4.748-3.757,12.485-8.031,16.75
		c-2.895,2.889-6.167,0.515-9.841,1.594c-5.755,1.689-11.532,8.958-10.5,15.06c0.686,4.052,5.11,6.794,5.482,10.688
		c0.712,7.462-13.832,17.009-4.623,24.403c4.218,3.387,12.245,4.698,17.437,4.783c2.626,0.043,5.514,1.256,7.781,1.285
		c2.545,0.033,4.51-1.804,6.635-2.998c4.886-2.745,11.375-5.042,17.029-3.464c8.233,2.298,10.287,11.86,19.73,11.62
		c14.011-0.357,22.194-14.828,24.383-27.163c1.201-6.767-0.36-11.971-4.067-17.752c-2.553-3.982-7.552-8.293-8.553-12.94
		c-1.173-5.448,1.594-10.878-0.129-16.522C280.983,6.655,268.938,7.652,260.2,10.463z"/>
</g>
<g>
	<path style="fill:#EEF0F1;" d="M418.187,452.262c4.266-11.839-14.306-23.918-24.353-23.782
		c-18.749,0.255-33.734,14.366-51.426,17.549c-11.707,2.106-17.204-6.88-27.044-11.002c-17.58-7.364-31.767,6.195-47.679,11.385
		c-14.111,4.603-23.202,0.12-33.433-10.319c-13.75-14.03-22.333-19.055-42.14-16.909c-12.447,1.348-21.567-0.872-28.513-11.87
		c-5.89-9.327-8.173-16.055-19.206-19.427c-5.072-1.55-10.198-3.583-15.366-4.758c-9.8-2.228-17.624-0.956-27.089,2.078
		c-12.795,4.102-22.135,13.047-19.617,26.934c1.424,7.854,3.634,12.898,8.174,19.334c-6.363,5.735-12.56,12.413-11.143,22.023
		c1.416,9.607,8.769,12.16,14.612,18.426c6.184,6.633,0.619,15.284,4.974,22.719c5.073,8.66,17.311,9.692,26.15,9.674
		c13.019-0.026,23.72-5.313,35.932-9.139c6.864-2.151,10.896-3.572,17.158-0.048c7.59,4.27,14.186,8.757,23.333,9.211
		c10.16,0.504,16.369-5.839,25.084-9.713c4.781,5.733,11.574,8.639,18.69,10.399c15.897,3.932,21.38-3.996,34.665-10.541
		c14.824-7.303,29.027,6.781,45.127,2.541c8.709-2.294,15.965-8.217,23.068-13.444c7.14-5.254,7.954-1.612,15.679,1.804
		c9.582,4.238,23.109,4.56,32.643-0.188C406.372,480.267,429.23,457.453,418.187,452.262z"/>
	<path style="fill:#EEF0F1;" d="M273.079,90.359c14.433-1.199,16.555-25.417,3.564-30.831c-8.483-3.535-22.397,1.263-29.597-4.891
		c-7.239-6.188-1.183-20.203-5.986-27.937c-1.783-2.87-8.41-8.383-11.956-7.514c-4.372,1.071-3.767,6.958-6.395,9.38
		c-3.243,2.99-9.837,1.743-13.495,4.825c-4.231,3.566-4.024,7.058-2.786,12.197c0.945,3.92,4.2,9.1,3.732,13.257
		c-0.575,5.111-5.689,6.393-6.441,11.078c-1.123,6.993,6.382,9.177,11.17,11.629c3.369,1.725,6.095,5.278,9.224,6.739
		c7.771,3.628,12.042-4.551,19.471-3.791c4.587,0.47,7.102,4.268,11.402,5.478C261.817,91.901,266.949,87.185,273.079,90.359z"/>
</g>
<path d="M251.523,146.628c-0.133,0-0.134,0.207,0,0.207S251.657,146.628,251.523,146.628z"/>
<path d="M439.298,404.42c-1.604-9.341-8.218-17.314-16.979-19.851c1.206-10.302-0.628-20.487-9.743-25.965
	c-11.08-18.954-16.773-41.658-24.828-61.974c-8.364-21.097-17.733-41.776-27.891-62.068
	c-20.993-41.938-45.335-81.993-70.105-121.775c-2.615-4.2-5.353-8.836-8.4-13.326c0.126-0.07,0.25-0.111,0.376-0.192
	c19.152-12.345,34.668-40.727,14.449-59.922c-1.097-1.041-4.654-2.783-5.455-4.091c-2.488-4.061-0.169-5.803,0.328-10.484
	c0.514-4.839-0.132-9.828-3.116-13.838c-6.347-8.529-17.458-7.369-26.667-4.871c-10.316-8.562-25.599-8.441-34.449,2.835
	c-2.379,3.031-2.505,6.591-4.436,9.534c-2.6,3.96-6.79,3.262-10.693,5.129c-5.796,2.773-10.006,8.361-11.573,14.548
	c-0.714,2.82-0.812,5.734-0.316,8.605c0.391,2.263,4.432,8.052,4.273,9.697c-0.199,2.064-4.058,4.37-5.187,6.318
	c-1.485,2.561-2.246,5.607-2.167,8.575c0.391,14.714,14.41,20.191,27.05,20.701c-2.606,3.218-4.891,6.723-6.835,10.25
	c-22.581,40.986-40.943,85.2-58.726,128.433c-19.908,48.399-37.636,97.779-51.935,148.139c-1.692,0.479-3.312,0.144-6.142,0.416
	c-26.862,2.582-34.946,33.469-18.956,51.113c-14.076,14.652-11.301,38.348,8.042,47.03c-1.11,11.342,4.085,22.494,14.161,28.769
	c13.719,8.543,30.963,6.551,45.501,1.475c3.81-1.33,7.558-2.883,11.243-4.527c5.255-2.344,8.217-4.547,13.357-1.312
	c4.876,3.069,8.895,6.208,14.708,7.645c6.359,1.572,13.296,1.549,19.612-0.233c3.111-0.878,6.258-2.207,9.012-3.896
	c4.023-2.467,3.803-4.551,8.316-2.693c6.343,2.61,11.021,6.71,18.093,8.187c6.639,1.387,13.489,1.46,20.152,0.191
	c5.991-1.141,11.948-3.471,17.04-6.855c2.701-1.795,4.95-4.702,7.669-6.317c4.795-2.847,4.822-1.488,9.41,1.122
	c20.572,11.704,46.146,6.978,61.427-9.792c12.982,13.206,32.479,8.341,48.23-1.505c18.976-11.862,28.515-31.556,19.685-52.062
	C434.842,427.352,441.298,416.066,439.298,404.42z M213.514,78.987c-6.639-4.832-4.075-9.202-0.405-14.536
	c5.835-8.482-1.875-12.439-1.596-21.008c0.359-11.005,11.953-8.755,17.873-14.506c3.146-3.056,3.662-7.512,5.982-11.035
	c4.917-7.469,14.223-8.156,20.726-2.116c1.338,1.243,3.37,1.997,5.186,1.371c3.78-1.304,8.719-3.347,12.797-2.711
	c10.94,1.707,6.72,9.528,4.721,15.481c-2.022,6.021-0.851,9.461,4.229,13.185c4.043,2.964,7.61,4.131,9.966,9.048
	c2.258,4.714,2.586,10.153,1.249,15.163c-2.577,9.66-10.451,16.479-18.566,21.593c-0.608,0.383-1.072,0.834-1.471,1.31
	c-5.432-6.011-11.872-10.744-20.003-12.145c-9.095-1.567-16.897,1.508-23.358,6.764c-0.28-0.151-0.582-0.286-0.933-0.379
	C224.595,83.066,218.059,82.294,213.514,78.987z M213.793,138.907c4.674-9.507,9.291-19.107,14.455-28.361
	c4.001-7.17,9.52-17.057,17.849-19.833c19.134-6.375,33.468,26.634,41.069,38.985c5.076,8.249,10.079,16.55,15,24.903
	c-3.19,4.441-7.049,9.912-11.069,11.951c-3.445,1.748-2.97,0.686-5.906-2.6c-2.174-2.433-4.332-4.879-6.498-7.318
	c-5.749-6.475-13.845-20.525-23.692-21.121c-9.222-0.558-16.208,10.986-21.547,16.786c-2.284,2.481-4.577,4.955-6.853,7.444
	c-1.659,1.815-3.23,5.117-5.739,3.816c-2.105-1.092-3.67-3.382-5.282-5.057c-2.55-2.648-4.878-5.501-7.214-8.336
	C210.174,146.413,211.954,142.647,213.793,138.907z M204.654,157.87c5.021,8.327,12.514,18.929,20.006,16.709
	c10.158-3.01,21.151-37.208,34.079-29.432c5.983,3.599,11.234,13.244,15.679,18.528c3.436,4.085,7.066,10.951,12.148,13.107
	c6.941,2.944,14.997-6.325,20.542-13.698c3.307,5.702,6.589,11.419,9.814,17.169c-3.08,3.134-6.152,6.276-9.222,9.42
	c-3.697,3.786-7.677,9.963-12.165,12.598c-5.475,3.214-7.809-3.437-10.977-7.863c-3.057-4.271-6.142-8.522-9.147-12.83
	c-3.103-4.449-6.025-10.542-11.927-11.513c-7.037-1.158-12.258,5.127-16.717,9.502c-7.353,7.215-14.752,14.386-22.043,21.662
	c-4.938,4.928-6.123,5.947-10.064-0.712c-2.402-4.059-4.034-8.526-6.725-12.426c-4.861-7.044-10.067-7.274-15.189-4.722
	C196.646,174.841,200.625,166.345,204.654,157.87z M187.649,194.628c1.416-0.967,2.852-1.846,4.309-2.505
	c3.131-1.417,5.416-3.025,8.832,0.142c1.339,1.241,2.211,3.876,3.022,5.488c2.781,5.529,5.457,13.774,11.519,16.728
	c5.289,2.578,9.244-0.634,13.056-4.124c8.057-7.379,15.623-15.365,23.387-23.051c1.554-1.539,3.558-4.448,5.491-5.436
	c4.72-2.411,6.862-0.337,9.69,2.376c3.551,3.406,6.178,8.875,8.971,12.933c3.535,5.137,7.354,13.636,13.635,16.11
	c5.243,2.065,8.928-0.922,12.567-4.424c6.723-6.47,13.094-13.365,19.49-20.182c6.32,11.475,12.462,23.048,18.382,34.727
	c-10.702-6.081-23.206-8.626-31.841,3.148c-2.665,3.634-3.814,8.02-5.965,11.927c-1.647,2.991-6.908,8.68-11.285,6.424
	c-1.73-0.892-3.899-6.007-4.99-7.803c-4.715-7.761-9.413-20.722-16.878-26.224c-6.384-4.706-12.917-0.298-17.642,4.556
	c-9.279,9.535-17.73,20.109-26.441,30.167c-4.738,5.471-7.952,12.385-14.078,5.163c-2.96-3.49-4.734-8.337-6.905-12.326
	c-3.771-6.931-7.867-13.053-14.994-16.82c-1.599-0.845-3.451-0.622-4.772,0.616c-4.897,4.589-9.793,9.179-14.69,13.768
	C175.411,222.15,181.469,208.364,187.649,194.628z M162.865,251.781c8.137-7.249,16.274-14.497,24.412-21.746
	c10.287,8.831,13.606,33.764,28.045,34.459c7.458,0.359,12.809-9.47,17.021-14.333c4.381-5.058,8.726-10.145,13.068-15.236
	c3.517-4.125,8.158-12.443,12.878-14.969c15.115-8.09,18.126,38.082,37.528,35.008c8.309-1.316,12.797-8.882,15.893-15.863
	c2.903-6.545,5.966-11.95,13.712-12.6c7.801-0.654,14.432,5.745,19.841,10.514c0.629,0.555,1.306,0.85,1.983,0.978
	c1.052,2.159,2.126,4.309,3.161,6.475c4.514,9.446,8.853,18.976,13.01,28.585c-1.281,2.991-2.853,6.304-4.561,7.31
	c-0.429,0.66-0.857,1.32-1.286,1.98c-1.761-2.074-3.523-4.148-5.284-6.221c-6.173-7.267-12.268-14.587-18.289-21.982
	c-1.934-2.376-5.274-1.108-6.761,0.871c-3.787,5.039-7.489,10.14-11.239,15.207c-2.989,4.04-9.744,16.398-14.518,15.818
	c-4.736-0.575-9.323-8.884-12.192-12.492c-4.217-5.303-8.192-10.909-12.641-16.017c-15.511-17.812-30.085,9.96-39.514,21.216
	c-3.589,4.284-7.417,11.044-11.968,14.225c-7.723,5.397-11.817-3.055-16.023-8.067c-5.932-7.069-12.961-19.837-22.175-22.973
	c-8.219-2.797-15.065,4.375-20.729,9.223c-6.269,5.365-12.29,10.988-18.143,16.785C152.933,275.848,157.855,263.796,162.865,251.781
	z M143.617,299.177c9.379-8.859,19.141-17.349,29.515-25.025c4.11-3.041,4.8-4.186,10.363-3.005
	c5.699,1.211,5.708,2.095,9.235,6.353c3.997,4.826,7.948,9.69,11.921,14.535c4.777,5.824,10.472,14.8,19.361,11.986
	c8.892-2.815,15.971-15.394,21.722-22.073c4.159-4.83,8.33-9.649,12.477-14.489c1.32-1.54,3.597-5.846,5.625-6.465
	c4.565-1.393,6.707,2.898,8.925,5.627c6.915,8.505,13.746,21.046,22.762,27.365c6.068,4.253,11.616,1.665,15.97-3.381
	c7.119-8.253,13.566-17.422,19.837-26.446c4.217,4.842,8.412,9.701,12.543,14.62c3.02,3.595,7.051,10.901,12.06,12.164
	c4.926,1.243,8.794-3.069,11.661-8.042c4.093,9.842,7.986,19.767,11.618,29.79c3.428,9.458,6.443,19.084,10.29,28.385
	c-12.475-4.065-27.296-0.562-36.916,10.723c-19.615-8.953-43.024-10.84-60.038,3.347c-16.144-12.531-36.083-10.574-53.502,0.128
	c-7.364,4.524-14.549,0.499-22.69-0.722c-5.879-0.882-11.811-1.125-17.704-0.188c-9.462,1.505-17.682,5.965-23.891,12.904
	c-12.729-5.52-26.074-10.209-40.14-7.551c-6.177,1.167-12.331,3.689-17.236,7.718C125.932,344.604,134.648,321.838,143.617,299.177z
	 M426.117,413.005c-1.837,6.879-7.198,11.752-12.266,16.363c-2.177,1.981-2.522,5.68-1.052,8.153
	c9.324,15.687,2.434,30.164-12.226,38.871c-12.089,7.18-27.167,14.54-35.981-1.384c-2.423-4.377-8.759-4.073-11.253,0
	c-6.353,10.373-18.632,16.772-30.632,17.378c-5.631,0.284-11.496-0.617-16.579-3.145c-4.1-2.039-7.365-5.763-12.005-6.663
	c-11.07-2.148-17.793,10.123-26.913,13.89c-13.203,5.453-25.389,2.131-36.721-5.404c-11.746-7.811-15.114,2.984-25.91,6.447
	c-6.778,2.174-14.727,1.408-20.844-2.272c-4.394-2.644-7.108-7.425-12.478-8.208c-5.204-0.758-11.364,2.709-16.023,4.471
	c-6.506,2.461-12.985,5.099-19.842,6.442c-14.125,2.765-38.94-3.517-33.104-22.973c0.963-3.211-1.155-6.774-4.341-7.645
	c-14.841-4.055-19.305-23.635-5.095-31.889c2.991-1.737,4.057-6.645,1.169-9.068c-9.339-7.835-11.419-21.482-1.229-29.574
	c7.333-5.823,17.068-1.759,23.946-7.747c2.967-2.583,4.404-6.422,7.017-9.288c3.75-4.116,8.9-6.444,14.372-7.326
	c12.54-2.02,25.498,3.783,36.838,8.379c2.56,1.037,5.671-0.711,7.007-2.851c6.606-10.58,19.368-12.619,30.909-10.796
	c8.396,1.327,17.53,6.999,26.081,4.07c7.57-2.593,12.363-9.276,20.614-10.944c10.093-2.041,21.045,0.995,28.654,7.938
	c2.463,2.248,6.57,2.616,8.993,0c14.829-16.009,36.341-11.592,54.183-3.633c2.863,1.277,6.583,0.964,8.227-2.157
	c4.669-8.862,13.98-14.439,24.074-13.378c4.89,0.514,9.555,2.544,13.304,5.72c5.359,4.539,7.924,8.469,10.786,14.651
	c3.16,6.827,2.467,11.747,0.701,19.096c-0.913,3.8,1.884,8.543,6.247,8.2C423.628,396.029,428.214,405.153,426.117,413.005z"/>
<g>
</g>
<g>
</g>
<g>
</g>
<g>
</g>
<g>
</g>
<g>
</g>
<g>
</g>
<g>
</g>
<g>
</g>
<g>
</g>
<g>
</g>
<g>
</g>
<g>
</g>
<g>
</g>
<g>
</g>
</svg>
