<?xml version="1.0" encoding="iso-8859-1"?>
<!-- Generator: Adobe Illustrator 19.0.0, SVG Export Plug-In . SVG Version: 6.00 Build 0)  -->
<svg version="1.1" id="Capa_1" xmlns="http://www.w3.org/2000/svg" xmlns:xlink="http://www.w3.org/1999/xlink" x="0px" y="0px"
	 viewBox="0 0 511.999 511.999" style="enable-background:new 0 0 511.999 511.999;" xml:space="preserve">
<path style="fill:#F13636;" d="M173.447,263.887c6.66,16.159,9.842,33.762,12.408,51.019c1.277,8.591,3.748,16.127,1.346,24.684
	c-2.504,8.921-8.094,17.255-15.653,22.598c-2.99,2.114-11.129,6.409-11.274,10.664c-0.128,3.77,9.598,9.609,11.902,11.593
	c13.809,11.892,21.046,27.971,28.23,44.132c7.999,17.996,11.335,37.49,11.814,57.222c0.132,5.44-2.053,10.607,2.787,13.71
	c7.434,4.766,21.145-1.744,28.384-3.821c27.407-7.862,56.543-18.847,81.258-33.205c8.243-4.789,27.972-13.482,28.504-24.615
	c0.379-7.918-7.988-16.954-11.179-23.978c-6.633-14.598-9.963-38.314-5.474-53.742c5.322-18.291,18.559-37.171,32.28-50.207
	c3.919-3.724,9.784-6.682,11.769-11.922c3.101-8.189-1.793-20.047-3.599-28.041c-2.612-11.562-5.834-22.447-9.326-33.757
	c-1.972-6.387-4.05-14.277-9.292-19c-3.429-3.09-6.839-3.143-11.369-3.978c-2.721-0.501-4.238-0.43-6.517-2.108
	c-2.111-1.554-3.334-6.26-5.4-7.178c-6.594-2.932-12.543,14.673-21.005,14.231c-6.023-0.314-8.848-8.193-14.506-9.395
	c-7.298-1.55-9.468,6.804-11.839,12.029c-3.951,8.71-8.987,14.245-18.344,17.19c-8.174,2.572-11.623,0.731-17.537-5.051
	c-3.939-3.851-7.639-10.322-12.434-4.934c-1.915,2.153-1.95,5.671-3.399,8.111c-1.801,3.033-4.844,5.869-7.462,8.187
	c-10.315,9.133-20.088,11.086-29.896,0.194c-4.096-4.549-4.138-9.204-9.915-5.348C182.076,243.598,175.039,254.168,173.447,263.887z
	"/>
<path style="fill:#E81D1D;" d="M360.359,215.259c-4.546,0.222-11.018,0.362-15.27-0.889c-6.392-1.88-8.434-7.953-12.604-12.205
	c-6.078,7.08-6.833,18.713-19.374,17.003c-8.663-1.182-14.473-15.97-20.4-5.055c-6.066,11.171-7.09,21.608-20.645,26.433
	c-7.23,2.574-11.492-2.607-18.004-4.501c-1.583,19.334,10.078,33.245,15.643,50.575c13.998,43.591,1.963,89.602-32.455,120.183
	c-5.43,4.824-11.307,10.38-17.817,13.632c-3.857,1.927-9.793,2.15-13.187,4.774c-5.718,4.421,0.339,8.525,2.126,14.528
	c3.226,10.832,2.594,23.578,3.075,34.802c0.432,10.067,0.79,20.126,0.969,30.19c8.925,1.588,18.074-1.951,26.243-5.126
	c15.376-5.976,29.377-15.201,44.787-20.732c13.769-4.943,26.912-10.39,39.396-18.194c8.199-5.125,18.355-10.903,25.583-17.292
	c5.201-4.598,3.642-7.517,1.293-14.113c-4.269-11.991-9.594-22.932-11.438-35.779c-2.465-17.175-2.331-36.659,5.718-52.39
	c7.397-14.457,18.165-28.12,30.453-38.753c8.289-7.173,8.061-18.371,5.743-28.898C375.556,252.372,366.733,232.699,360.359,215.259z
	"/>
<g>
	<path style="fill:#F8F8F9;" d="M124.331,151.507c-4.712,15.962-2.857,34.6,0.331,50.61c3.389,17.019,9.155,36.942,19.396,51.315
		c5.664,7.95,17.251,16.464,26.685,9.805c6.619-4.672,11.697-12.124,14.044-19.734c0.764-2.476,0.732-5.99,2.646-7.749
		c7.649,5.546,14.752,16.628,25.413,15.755c16.823-1.377,20.324-17.638,24.794-30.468c7.039,6.191,15.85,20.954,26.438,20.488
		c17.242-0.758,32.601-22.707,34.389-38.311c-0.587,7.776,6.964,18.553,15.274,18.896c12.58,0.52,15.977-16.074,18.923-24.543
		c3.906,5.042,7.742,10.865,14.139,13.471c11.117,4.529,14.784-8.044,15.934-16.33c2.036-14.672,0.173-30.077-2.231-44.54
		c-2.756-16.586-4.909-33.616-12.977-48.683c-5.201-9.713-7.544-19.778-19.774-18.398c-21.099,2.38-42.802,10.91-63.084,16.941
		c-26.639,7.922-52.796,16.997-79.245,25.461c-12.136,3.884-24.034,8.824-36.257,12.386
		C138.218,141.07,133.922,144.648,124.331,151.507z"/>
	<path style="fill:#F8F8F9;" d="M157.038,377.228c-7.832,0.122-14.926,4.508-21.117,8.973c-12.092,8.721-23.35,19.817-28.962,33.868
		c-8.158,20.428-1.94,43.702,11.699,60.42c10.369,12.709,27.216,20.747,43.239,22.98c11.134,1.552,22.944,5.203,34.289,4.628
		c28.124-1.426,14.396-50.615,10.508-66.52c-3.76-15.381-10.587-33.627-19.833-46.564
		C180.055,385.49,166.213,368.53,157.038,377.228z"/>
	<path style="fill:#F8F8F9;" d="M364.793,314.118c-2.609,0.701-4.271,2.672-6.151,4.665c-8.143,8.638-13.962,18.994-18.022,30.081
		c-5.724,15.63-5.664,28.744-2.736,44.7c1.88,10.245,5.628,19.708,9.53,29.275c3.189,7.821,6.211,14.25,13.619,6.098
		c23.157-25.485,28.043-63.085,29.487-96.072c0.338-7.715,2.234-30.055-6.691-34.663
		C375.671,293.989,364.393,310.78,364.793,314.118z"/>
</g>
<g>
	<path style="fill:#EEF0F1;" d="M205.346,427.126c-11.106,2.663-20.899,10.793-32.495,13.322
		c-12.913,2.816-25.516,0.437-38.416-0.662c-8.406-0.716-20.042-0.572-26.106,6.543c-8.887,10.427,8.333,26.625,15.276,34.168
		c8.968,9.743,20.902,16.937,33.47,20.873c10.871,3.405,21.884,4.271,33.185,4.625c5.601,0.176,12.991,0.594,16.778-4.149
		c4.956-6.207,5.905-17.569,6.168-25.005c0.277-7.832-0.553-15.959-2.025-23.648C209.967,446.863,209.133,436.812,205.346,427.126z"
		/>
	<path style="fill:#EEF0F1;" d="M383.714,306.249c-1.692-6.931-8.451-4.533-13.009-1.355c-12.078,8.421-22.376,25.721-27.712,39.217
		c-9.582,24.238-8.117,47.68,1.106,71.65c1.602,4.164,5.501,16.149,10.838,17.235c4.714,0.959,8.473-8.209,10.424-11.129
		c6.087-9.109,11.085-17.175,14.624-27.717c6.484-19.311,7.952-39.616,9.007-59.825
		C389.517,324.282,390.082,312.535,383.714,306.249z"/>
	<path style="fill:#EEF0F1;" d="M344.404,101.838c0.356,2.539,2.191,4.464,3.311,6.748c3.958,8.069,5.871,17.463,8.615,26.03
		c5.924,18.499,7.749,37.8,5.026,57.046c-1.074,7.589-1.836,19.609-12.676,17.76c-5.855-0.998-13.842-17.004-19.127-9.816
		c-1.044,1.42-0.342,4.495-0.898,6.27c-0.937,2.988-2.67,5.956-4.972,8.072c-4.38,4.025-6.235,3.004-11.045,0.885
		c-5.287-2.329-9.34-5.174-14.2-8.169c-5.263-3.244-7.034-1.76-9.533,3.628c-5.065,10.921-10.938,30.362-26.182,29.67
		c-13.601-0.617-15.838-15.139-23.913-22.757c-5.166,0.611-7.108,10.056-8.874,14.084c-2.844,6.487-6.096,13.986-12.173,18.199
		c-15.214,10.549-16.58-13.971-28.298-12.074c-5.176,0.838-8.001,10.246-10.504,14.061c-3.748,5.712-9.555,14.04-17.199,14.074
		c-28.472,0.124-29.505-52.35-13.188-65.439c10.619-8.518,27.806,1.595,40.12,1.976c22.536,0.698,41.412-10.955,56.869-26.42
		c7.015-7.019,12.651-16.101,20.996-21.677c6.399-4.276,11.687-4.08,18.889-4.813c13.047-1.328,29.853-10.975,33.314-24.717
		c2.582-10.25-6.237-18.363-5.113-28.583c0.965-8.771,7.175-14.458,16.071-13.726C338.371,82.86,344.43,101.241,344.404,101.838z"/>
</g>
<g>
	<path style="fill:#8BEB6A;" d="M164.306,375.548c22.085,20.536,44.132,46.369,45.426,77.885c0.35,8.536,0.38,17.212,0.359,25.758
		c-0.015,6.101-1.286,14.038,2.503,19.135c5.977,8.04,17.429,5.24,25.429,2.162c8.101-3.116,10.292-7.697,10.578-16.341
		c0.443-13.417,0.625-26.405-0.78-39.83c-1.557-14.882-6.632-30.125-14.607-42.81c-6.994-11.125-14.892-22.716-25.042-31.177
		c-5.788-4.825-11.661-9.665-18.901-12.047C179.59,355.097,173.156,366.477,164.306,375.548z"/>
	<path style="fill:#8BEB6A;" d="M287.445,479.262c1.204-0.268-2.824-32.877-3.253-35.664c-1.916-12.457-5.311-24.704-10.302-36.284
		c-3.341-7.752-7.569-15.532-12.199-22.594c-4.964-7.571-11.082-12.478-18.125-18.277c-5.601-4.611-10.403-10.048-16.373-14.227
		c-4.992-3.494-10.499-5.924-15.963-8.568c-5.526-2.674-12.815-5.021-17.447-9.059c-4.273-3.726-8.771-15.211-7.223-20.887
		c2.072-7.595,13.811-4.918,19.296-3.896c5.351,0.996,9.666,2.756,14.658,4.656c5.138,1.956,10.873,2.724,16.114,4.53
		c8.049,2.774,16.302,5.373,23.939,9.183c8.055,4.019,14.169,9.661,20.631,15.731c11.331,10.643,22.189,23.713,29.562,37.446
		c9.098,16.947,11.188,35.037,15.473,53.547c1.703,7.355,3.427,17.313-1.523,23.7c-3.772,4.867-8.748,9.127-13.8,12.572
		C305.039,475.175,299.109,476.663,287.445,479.262z"/>
	<path style="fill:#8BEB6A;" d="M336.353,341.902c-2.964-0.866-4.971-3.432-7.329-5.273c-5.617-4.387-10.11-9.48-15.383-14.236
		c-10.02-9.039-20.173-15.594-32.888-20.078c-28.418-10.021-60.282-16.436-90.317-9.289c-4.294,1.022-5.061,1.795-7.932-1.605
		c-1.923-2.277-6.429-10.763-4.351-13.918c1.644-2.496,8.302-1.635,11.201-1.524c6.45,0.247,12.934-0.187,19.321-1.165
		c12.214-1.869,24.257-4.507,36.413-6.692c11.142-2.003,21.971-5.625,33.001-8.161c11.426-2.626,27.114-4.552,36.712-11.728
		c9.705-7.257,20.512-11.778,31.374-17.336c3.418-1.749,10.011-3.538,12.291-6.556c-0.565,0.747,6.095,10.535,6.704,11.775
		c1.57,3.194,4.299,8.612,2.033,12.008c-2.315,3.47-9.593,6.221-13.182,8.199c-4.839,2.667-9.813,5.09-14.911,7.219
		c-9.433,3.939-19.377,5.925-28.514,10.491c-6.343,3.17-5.753,6.67-1.581,11.573c9.574,11.251,21.007,19.971,33.252,28.231
		c3.513,2.37,8.508,2.876,8.884,7.794c0.313,4.09-3.323,10.051-5.399,13.381C342.844,339.677,339,342.196,336.353,341.902z"/>
</g>
<g>
	<path style="fill:#6BD046;" d="M374.162,274.262c-6.402,1.318-18.151,5.869-22.201,11.611c-3.704,5.253,3.089,13.256,7.301,15.977
		c1.691,1.092,3.27,2.225,5.388,2.404c2.1,0.178,3.354-0.451,5.356-1.229c2.326-0.904,5.481-1.282,7.665-2.41
		C389.632,294.434,378.088,281.298,374.162,274.262z"/>
	<path style="fill:#6BD046;" d="M275.651,338.433c0.135,10.077-3.721,21.086-8.376,29.853c-1.115,2.1-8.185,9.434-7.867,12.082
		c0.101,0.841,1.467,0.898,1.764,1.521c0.826,1.729,1.722,3.423,2.485,5.249c9.303,22.277,22.238,43.329,22.399,68.247
		c0.044,6.781,0.042,13.678,0.325,20.453c0.225,5.376,2.042,5.321,6.883,3.753c6.842-2.216,13.072-6.452,19.363-9.888
		c3.738-2.042,8.329-3.807,11.712-6.371c5.365-4.065,2.999-18.83,2.598-24.836c-0.76-11.389-2.227-23.193-6.506-33.847
		c-5.832-14.52-11.605-28.34-20.499-41.275C293.161,353.526,283.529,348.342,275.651,338.433z"/>
	<path style="fill:#6BD046;" d="M236.108,409.888c-1.693,1.14-3.454,2.507-5.103,3.771c-6.365,4.881-12.964,7.388-19.718,11.341
		c-0.789,0.462-5.509,2.367-5.995,3.215c-1.266,2.203,1.442,9.148,1.757,11.079c2.602,15.955,3.396,32.328,3.391,48.479
		c-0.002,6.475-0.089,10.825,7.24,12.833c4.194,1.149,8.448,0.372,12.633-0.202c2.855-0.392,6,0.173,8.722-0.643
		c7.787-2.335,8.072-12.308,8.475-19.088c0.854-14.337-0.118-29.607-2.376-43.76C243.667,427.715,239.65,419.324,236.108,409.888z"
		/>
	<path style="fill:#6BD046;" d="M271.489,297.849c-2.143-6.101-6.07-12.793-8.858-18.931c-0.769-1.693-4.465-7.996-3.267-10.177
		c1.151-2.095,7.499-3.172,9.535-4.042c19.481-8.334,40.157-12.596,59.203-22.272c8.08-4.104,16.213-8.359,24.107-12.803
		c2.472-1.392,5.306-3.667,8.09-3.846c2.728,7.361,5.538,16.563,5.176,24.486c-9.443,4.189-18.182,8.347-27.958,11.908
		c-6.63,2.415-12.647,6.758-19.412,9.332c-5.019,1.91-11.991,3.655-11.172,10.183c0.698,5.563,6.172,8.827,10.068,12.246
		c5.729,5.027,11.271,10.351,17.2,15.125c4.7,3.784,9.69,4.965,14.594,8.042c5.307,3.33,2.122,6.867-0.827,11.318
		c-3.284,4.956-5.991,12.414-11.035,15.844c-9.316-7.394-17.116-17.152-27.288-24.026c-5.599-3.784-11.045-7.546-16.967-10.796
		C287.687,306.7,277.902,298.483,271.489,297.849z"/>
</g>
<path d="M403.303,2.396c-18.983-8.714-38.54,8.133-49.823,21.823c-12.551,15.228-20.538,34.054-20.718,53.746
	c-9.01-0.693-19.921,4.542-27.274,6.656c-13.919,4-27.738,8.257-41.493,12.711c-10.698,2.726-21.379,5.524-32.003,8.552
	c-31.443,8.963-62.598,19.012-93.583,29.446c-10.297,3.467-21.084,7.041-23.394,18.984c-2.477,12.804,1.851,28.934,4.09,41.595
	c2.745,15.529,6.215,30.957,11.055,45.978c3.107,9.642,7.137,19.756,15.43,26.095c7.671,5.864,17.22,6.392,25.624,2.878
	c2.372,11.589,5.277,22.98,8.235,34.498c3.618,14.087,7.509,30.13-0.21,43.581c-12.392,21.592-41.722,27.322-59.907,42.712
	c-37.932,32.105-26.611,91.553,17.747,110.811c49.225,21.371,108.394,2.861,155.137-16.73c45.213-18.95,86.302-51.44,99.046-100.783
	c7.333-28.395,5.342-58.373,0.025-86.928c-5.499-29.538-13.965-59.957-27.997-86.717c2.696-3.259,4.489-7.437,5.384-11.645
	c5.922-27.852-3.49-59.731-12.692-85.796c-2.426-6.872-5.118-13.649-7.852-20.404c-1.433-3.541-2.681-7.383-5.073-10.37
	c14.615-16.927,41.496-19.673,58.076-34.797C414.298,36.285,424.739,12.235,403.303,2.396z M178.613,266.414
	c7.567-6.032,11.615-14.496,14.358-23.493c2.346,3.511,4.593,7.107,7.913,9.846c5.269,4.346,12.189,5.759,18.818,4.131
	c12.555-3.083,19.018-13.151,22.658-24.408c6.973,9.165,16.186,16.14,28.863,13.178c15.079-3.522,22.125-16.861,25.803-30.685
	c6.501,6.589,14.503,11.433,24.33,8.913c7.531-1.931,11.599-7.493,13.944-14.032c4.107,4.521,9.249,7.808,15.854,7.615
	c0.366-0.011,0.715-0.056,1.069-0.089c0.699,1.909,1.398,3.825,2.098,5.739c-52.884,30.81-111.376,48.709-172.61,51.587
	C180.703,271.941,179.679,269.171,178.613,266.414z M207.863,498.252c-20.254,3.026-41.189,2.843-60.547-4.052
	c-23.22-8.27-40.328-28.912-39.3-54.303c1.071-26.434,19.768-41.582,41.695-52.352c4.557-2.239,9.158-4.586,13.613-7.137
	C202.826,402.746,208.179,456.945,207.863,498.252z M242.036,490.512c-5.287,1.512-10.589,2.923-15.893,4.184
	c-2.701,0.642-5.433,1.232-8.18,1.784c4.76-42.519-8.654-98.648-47.324-120.597c6.991-4.693,13.24-10.159,17.807-16.942
	C231.428,386.368,253.106,441.19,242.036,490.512z M282.502,476.278c-10.978,4.621-22.27,8.706-33.688,12.214
	c5.012-26.955,2.066-55.148-9.913-80.013c-11.085-23.009-27.988-39.125-49.106-51.655c2.791-4.677,4.801-9.956,5.752-15.999
	c0.178-1.127,0.28-2.257,0.381-3.386C252.033,359.492,287.411,416.035,282.502,476.278z M296.731,469.905
	c-2.443,1.169-4.915,2.299-7.399,3.411c3.832-62.65-34.073-119.883-93.174-140.572c0.044-7.302-1.239-14.601-3.012-21.707
	c34.084,2.313,68.111,17.499,92.014,41.733c26.727,27.096,39.129,63.155,39.631,100.717c0.001,0.092,0.021,0.17,0.028,0.258
	C316.037,459.81,306.593,465.187,296.731,469.905z M331.502,448.893c0.473-37.141-15.601-74.615-41.668-100.797
	c-26.314-26.431-60.982-40.331-97.782-41.218c-0.135-0.488-0.265-0.98-0.403-1.467c-0.828-2.922-1.697-5.826-2.583-8.723
	c12.567-1.512,24.877-3.45,37.677-2.992c15.199,0.544,30.322,3.479,44.61,8.711c25.764,9.435,46.785,26.048,64.471,46.694
	c-7.854,27.963-3.777,59.362,13.221,84.239C343.668,438.923,337.785,444.101,331.502,448.893z M382.321,361.954
	c-2.397,26.582-13.16,48.714-29.129,66.867c-11.399-22.145-14.942-48.288-8.772-72.519c5.451-21.409,18.101-38.062,34.453-52.027
	C382.482,323.17,384.087,342.377,382.321,361.954z M376.703,293.941c-4.009,2.474-7.736,5.228-11.214,8.199
	c-4.794-3.749-10.621-8.904-10.091-13.892c0.305-2.869,0.968-2.727,3.363-4.126c1.832-1.07,3.678-2.118,5.544-3.128
	c2.626-1.42,5.287-2.795,7.988-4.081C373.89,282.565,375.397,288.235,376.703,293.941z M364.331,251.352
	c2.479,7.321,4.831,14.685,6.992,22.091c-4.291,1.67-8.566,3.362-12.758,5.297c-3.634,1.677-9.133,3.255-9.942,7.873
	c-1.161,6.626,6.302,14.501,12.545,19.453c-3.028,2.943-5.834,6.065-8.4,9.35c-7.936-4.182-15.671-8.747-22.978-13.963
	c-4.634-3.308-9.061-6.867-13.332-10.635c-2.774-2.448-6.819-6.761-5.516-10.515c2.48-7.127,21.615-10.487,27.664-13.423
	C347.693,262.467,355.987,256.966,364.331,251.352z M323.827,266.904c-6.175,2.337-21.785,3.843-22.581,12.792
	c-0.756,8.514,11.794,16.091,17.276,20.466c9.6,7.662,19.679,14.545,30.348,20.603c-4.269,6.343-7.743,13.168-10.407,20.294
	c-16.599-20.371-39.196-35.778-63.817-44.784c-26.17-9.574-59.841-13.434-86.928-3.875c-1.445-4.56-2.959-9.093-4.543-13.602
	c60.834-0.309,121.638-17.127,173.506-49.177c2.14,5.902,4.252,11.831,6.304,17.785
	C350.885,255.372,337.336,261.793,323.827,266.904z M355.848,158.986c1.966,11.017,3.164,22.957,1.952,34.15
	c-0.318,2.94-0.897,10.157-3.971,11.736c-5.086,2.612-10.296-1.722-12.851-5.397c-1.358-1.955-2.419-4.172-3.52-6.27
	c-2.871-5.469-9.766-2.122-10.423,2.823c-0.77,5.792-1.861,15.114-8.704,16.902c-8.74,2.284-15.426-7.912-19.501-13.91
	c-2.593-3.816-9.696-3.925-10.733,1.403c-2.282,11.727-4.461,27.474-16.928,32.822c-13.209,5.666-21.32-8.937-26.224-18.766
	c-2.216-4.443-9.828-3.49-10.822,1.415c-2.151,10.612-4.587,27.179-17.523,29.756c-11.04,2.199-15.394-13.057-22.329-19.124
	c-3.248-2.841-8.468-1.848-9.718,2.565c-3.355,11.85-9.261,33.08-25.41,31.788c-13.805-1.105-18.26-21.965-21.263-32.443
	c-4.546-15.863-7.947-32.01-9.836-48.409c-0.74-6.423-2.023-13.508-1.218-19.985c1.191-9.581,10.986-10.688,18.624-13.354
	c30.313-10.579,60.826-20.568,91.267-30.768c10.325-3.46,20.643-7.041,30.976-10.605c3.434-0.985,6.867-1.973,10.303-2.951
	c10.009-2.85,20.044-5.61,30.114-8.236c5.331-1.391,10.677-2.765,16.062-3.929c8.362-1.808,11.18,2.389,13.896,9.781
	C345.151,119.252,352.229,138.709,355.848,158.986z M392.427,41.772c-7.618,6.342-16.37,10.261-25.462,14
	c-9.266,3.811-18.277,7.871-25.484,14.175c3.262-11.41,7.914-22.363,14.71-32.218c7.258-10.526,30.977-37.696,45.525-23.952
	C411.347,22.877,399.879,35.567,392.427,41.772z"/>
<g>
</g>
<g>
</g>
<g>
</g>
<g>
</g>
<g>
</g>
<g>
</g>
<g>
</g>
<g>
</g>
<g>
</g>
<g>
</g>
<g>
</g>
<g>
</g>
<g>
</g>
<g>
</g>
<g>
</g>
</svg>
