<svg height="511pt" viewBox="0 -53 511.99967 511" width="511pt" xmlns="http://www.w3.org/2000/svg"><path d="m379.273438 398.882812c-22.574219 0-39.886719-.710937-56.132813-2.304687-6.625-.652344-14.285156-1.554687-21.402344-4.03125-4.042969-1.402344-6.351562-3.023437-7.484375-5.257813-.941406-1.851562-1-4.152343-1.050781-6.179687-.359375-13.691406-.730469-27.386719-1.097656-41.082031l-1.09375-40.75c-.171875-6.253906-.492188-12.75-.804688-19.03125l-.050781-1.019532c-1.023438-20.027343-2.074219-40.738281 1.117188-60.214843.570312-3.542969 1.542968-7.453125 4.375-9.523438 1.6875-1.238281 3.851562-1.671875 5.933593-1.953125l1.195313-.152344c12.085937-1.371093 25.472656-2.179687 40.925781-2.472656l2.84375.039063c1.863281.03125 3.726563.058593 5.597656.078125l7.914063.082031c7.917968.089844 16.097656.179687 24.390625.179687 5.285156 0 10.667969-.050781 16.007812-.148437h.140625c28.039063.464844 55.328125 1.839844 81.121094 4.082031 17.414062 1.507813 21.960938 12.296875 23.652344 29.21875 1.402344 14.101563.027344 28.429688-1.300782 42.289063-.484374 5.0625-.914062 9.628906-1.25 14.238281-.59375 7.960938-.914062 16.050781-1.21875 23.875-.90625 22.871094-1.757812 44.398438-8.496093 65.816406-1.148438 3.660156-2.644531 7.753906-5.882813 9.960938-2.597656 1.78125-5.898437 2.105468-9.632812 2.320312-22.160156 1.261719-45.324219 1.476563-65.761719 1.667969l-13.0625.140625c-5.335937.0625-12.378906.132812-19.492187.132812zm-9.90625-171.84375c-12.015626 0-27.796876.226563-43.296876 1.984376l-.992187.117187c-.761719.105469-1.738281.261719-2.71875.570313-.992187.316406-1.816406.71875-2.503906 1.226562-2.648438 1.941406-3.511719 5.289062-4.007813 8.308594-2.414062 14.730468-1.628906 30.371094-.871094 45.496094l.015626.378906c.25 4.902344.503906 9.972656.636718 14.839844l.425782 15.613281c.410156 15.308593.820312 30.621093 1.222656 45.929687.046875 1.714844.09375 3.65625.992187 5.414063 1.390625 2.71875 4.269531 4.003906 6.621094 4.820312 5.558594 1.941407 11.441406 2.632813 16.519531 3.128907 12.289063 1.203124 25.347656 1.742187 42.339844 1.742187 5.105469 0 10.222656-.054687 14.738281-.101563 3.234375-.039062 6.488281-.066406 9.730469-.097656l.421875-.003906c16.144531-.160156 32.835937-.324219 49.210937-1.261719 2.402344-.140625 5.644532-.335937 8.148438-2.046875 2.617188-1.785156 3.941406-4.664062 5.121094-8.433594 5.152344-16.371093 5.820312-33.421874 6.46875-49.914062.234375-5.878906.472656-11.960938.910156-17.941406.238281-3.210938.546875-6.472656.847656-9.632813l.097656-1.035156c1.007813-10.578125 2.042969-21.4375.972657-32.175781-1.328125-13.25-5.140625-22.332032-19.40625-23.570313-21.59375-1.875-44.273438-2.9375-67.402344-3.167969l-5.957031-.058593c-6.035156-.0625-12.1875-.128907-18.285156-.128907zm0 0" fill="#59bd8b"/><path d="m383.726562 374.570312c-16.949218 0-29.9375-.535156-42.117187-1.730468-4.980469-.492188-10.738281-1.171875-16.042969-3.023438-3.015625-1.046875-4.71875-2.25-5.511718-3.890625-.5625-1.144531-.691407-2.46875-.734376-4.496093-.292968-11.214844-.597656-22.460938-.898437-33.707032l-.75-27.816406c-.117187-4.546875-.355469-9.269531-.585937-13.839844l-.0625-1.246094c-.761719-15.113281-1.546876-30.691406.839843-45.234374.609375-3.71875 1.5625-5.8125 3.195313-7.003907 1.230468-.910156 2.894531-1.234375 4.359375-1.425781l.875-.109375c15.371093-1.746094 31.050781-1.96875 42.992187-1.96875 6.132813 0 12.308594.066406 18.28125.132813l6.023438.0625c23.164062.230468 45.789062 1.292968 67.246094 3.15625 12.925781 1.128906 16.296874 9.160156 17.554687 21.746093 1.058594 10.582031.066406 20.875-.980469 31.769531l-.085937.933594c-.300781 3.210938-.613281 6.53125-.855469 9.78125-.449219 6.046875-.683594 12.132813-.914062 18.019532-.683594 17.152343-1.324219 33.308593-6.378907 49.375-.851562 2.710937-1.960937 5.742187-4.316406 7.359374-1.890625 1.292969-4.3125 1.535157-7.054687 1.699219-16.390626.933594-33.054688 1.097657-49.167969 1.257813l-.339844.003906c-3.277344.027344-6.5625.058594-9.832031.097656-4.046875.042969-9.378906.097656-14.738282.097656zm-5.019531-123.351562c-4.058593 0-7.085937.699219-9.246093 2.132812-1.808594 1.203126-2.941407 2.910157-3.367188 5.070313-.632812 3.269531-.507812 6.808594-.386719 10.234375l.007813.214844c.058594 1.707031.113281 3.324218.074218 4.875-.179687 6.820312-.484374 13.792968-.894531 20.710937-.441406 7.441407-1.050781 15.195313-1.804687 23.042969l-.382813 3.792969c-.785156 7.800781-1.59375 15.882812-1.429687 23.992187.015625.957032.039062 2.695313 1.074218 3.945313 1.125 1.355469 2.882813 1.628906 4.441407 1.773437 20.226562 2.015625 40.832031 3.035156 61.265625 3.035156 3.433594 0 6.933594-.03125 10.390625-.089843 1.421875-.023438 2.996093-.207031 3.945312-1.40625.597657-.757813.738281-1.742188.8125-2.273438 1.117188-7.320312 1.460938-14.71875 1.027344-22.035156-.046875-.867187-.113281-2.023437-.761719-3.011719-1.058594-1.625-3.101562-1.984375-4.761718-2.117187-1.707032-.136719-3.511719-.207031-5.378907-.207031-5.761719 0-11.570312.652343-17.1875 1.285156l-.128906.011718c-4.289063.484376-8.34375.941407-12.480469 1.148438l-4.988281.246094.851563-4.921875c2.1875-12.667969 2.820312-25.679688 3.433593-38.265625l.851563-17.339844c.117187-2.332031.339844-6.652344-2.367188-9.164062-1.644531-1.523438-4.019531-1.980469-5.441406-2.253907 0 0-1.550781-.316406-1.9375-.390625-5.121094-1.058594-10.472656-2.035156-15.230469-2.035156zm0 0" fill="#fff"/><path d="m398.484375 203.066406c-2.050781-.03125-4.101563-.0625-6.164063-.078125l-8.660156-.097656c-7.71875-.082031-15.703125-.164063-23.613281-.164063-5.914063 0-11.21875.046876-16.210937.140626h-.140626c-27.789062-.460938-55.027343-1.832032-80.96875-4.070313-17.414062-1.523437-21.957031-12.308594-23.648437-29.21875-1.40625-14.054687-.035156-28.382813 1.292969-42.234375l.171875-1.816406c.382812-4.097656.785156-8.332032 1.085937-12.488282.566406-7.695312.882813-15.53125 1.191406-23.113281l.03125-.828125c.890626-22.773437 1.730469-44.289062 8.480469-65.746094 1.226563-3.855468 2.6875-7.789062 5.902344-9.96875 2.570313-1.765624 5.875-2.089843 9.613281-2.304687 21.707032-1.25 43.871094-1.464844 65.308594-1.671875l.441406-.003906c4.359375-.042969 8.726563-.089844 13.085938-.140625 6.183594-.070313 12.832031-.128907 19.523437-.128907 22.578125 0 39.875.707032 56.089844 2.296876 6.617187.652343 14.273437 1.554687 21.414063 4.03125 4.027343 1.40625 6.332031 3.023437 7.476562 5.257812.949219 1.84375 1.007812 4.148438 1.058594 6.183594.5625 21.492187 1.140625 43.003906 1.722656 64.5l.46875 17.332031c.179688 6.53125.507812 13.207031.855469 20.042969 1.015625 20.121094 2.058593 40.84375-1.117188 60.222656-.574219 3.546875-1.546875 7.453125-4.375 9.523438-1.726562 1.269531-3.984375 1.703124-5.960937 1.957031-.378906.050781-.796875.105469-1.199219.148437-12.054687 1.367188-25.441406 2.179688-40.90625 2.472656h-.066406zm-37.816406-171.667968c-5.304688 0-10.414063.050781-14.710938.101562l-9.839843.109375c-15.34375.140625-32.71875.300781-49.53125 1.253906-2.394532.144531-5.636719.335938-8.15625 2.050781-2.59375 1.777344-3.917969 4.65625-5.101563 8.433594-5.152344 16.339844-5.820313 33.40625-6.46875 49.910156-.230469 5.867188-.472656 11.925782-.917969 17.957032-.230468 3.21875-.546875 6.519531-.851562 9.710937l-.089844.949219c-1.007812 10.515625-2.054688 21.382812-.972656 32.164062 1.320312 13.253907 5.128906 22.332032 19.410156 23.574219 21.585938 1.871094 44.261719 2.9375 67.390625 3.164063l5.953125.0625c5.675781.066406 12.101562.140625 18.367188.140625 11.964843 0 27.6875-.226563 43.21875-1.996094l.101562-.011719c.261719-.019531.515625-.050781.773438-.089844 1.160156-.15625 2.054687-.339843 2.875-.597656.960937-.292968 1.773437-.691406 2.496093-1.21875 2.617188-1.925781 3.480469-5.28125 3.976563-8.304687 2.429687-14.8125 1.632812-30.5.863281-45.667969-.253906-5.027344-.511719-10.136719-.644531-15.035156l-.398438-14.773438c-.421875-15.589844-.839844-31.191406-1.25-46.78125-.046875-1.742187-.09375-3.679687-.984375-5.414062-1.390625-2.722656-4.269531-4.003906-6.625-4.820313-5.476562-1.914062-11.167969-2.59375-16.527343-3.128906-12.25-1.203125-25.3125-1.742187-42.355469-1.742187zm0 0" fill="#5bd0fc"/><path d="m428.050781 352.003906c-20.332031 0-40.824219-1.015625-60.921875-3.011718-.382812-.023438-.75-.09375-1.101562-.214844l-2.664063-.902344-.050781-2.8125c-.144531-7.808594.648438-15.757812 1.414062-23.445312l.394532-3.9375c.738281-7.605469 1.347656-15.382813 1.804687-23.097657.414063-6.804687.714844-13.792969.894531-20.777343.050782-1.714844-.011718-3.507813-.078124-5.199219-.113282-3.171875-.238282-6.753907.367187-9.796875.296875-1.59375 1.105469-2.832032 2.464844-3.746094 1.847656-1.226562 4.4375-1.8125 7.945312-1.8125 5.371094 0 11.851563 1.34375 14.964844 1.992188l.859375.175781c.394531.078125.761719.152343 1.097656.214843 2.414063.464844 3.578125.921876 4.480469 1.753907 1.675781 1.53125 1.902344 4.039062 1.722656 7.582031l-.839843 17.324219c-.648438 13.21875-1.316407 26.859375-3.78125 40.03125-.261719 1.445312-.367188 2.921875.59375 4.011719.6875.785156 1.707031 1.148437 3.21875 1.148437.167968 0 .320312-.003906.445312-.003906 4.945312-.132813 9.9375-.691407 14.769531-1.234375l.316407-.035156c5.558593-.625 11.3125-1.277344 16.980468-1.277344 1.808594 0 3.496094.0625 5.164063.195312h3.519531l.011719.277344.1875.015625v3.417969l.003906.070312c.355469 6.484375.078125 13.070313-.820313 19.5625l-.46875 3.398438-3.433593.054687c-3.136719.050781-6.320313.078125-9.460938.078125zm0 0" fill="#59bd8b"/><path d="m375.152344 178.933594c-6.136719 0-12.3125-.070313-18.289063-.132813l-6.015625-.0625c-23.023437-.21875-45.644531-1.28125-67.234375-3.15625-12.925781-1.117187-16.300781-9.148437-17.554687-21.746093-1.054688-10.515626-.078125-20.773438.953125-31.632813l.015625-.132813c.335937-3.496093.683594-7.105468.941406-10.707031.433594-5.816406.667969-11.730469.898438-17.453125l.023437-.570312c.671875-17.105469 1.304687-33.269532 6.371094-49.378906 1.054687-3.363282 2.195312-5.898438 4.324219-7.359376 1.921874-1.316406 4.472656-1.554687 7.136718-1.695312 16.304688-.9375 32.976563-1.105469 49.097656-1.261719l.746094-.007812c3.140625-.03125 6.28125-.058594 9.414063-.097657 4.503906-.046874 9.601562-.101562 14.6875-.101562 16.957031 0 29.960937.535156 42.160156 1.730469 4.984375.496093 10.742187 1.175781 16.046875 3.023437 2.910156 1.007813 4.65625 2.21875 5.476562 3.808594.628907 1.234375.714844 2.605469.773438 4.410156l.003906.125c.410156 15.617188.828125 31.214844 1.25 46.804688l.390625 14.773437c.136719 4.894531.390625 9.984375.636719 14.90625l.007812.167969c.765626 15.125 1.550782 30.695312-.828124 45.246094-.601563 3.6875-1.550782 5.773437-3.171876 6.976562-1.277343.933594-2.929687 1.25-4.378906 1.445313-.230468.035156-.535156.066406-.828125.101562-15.429687 1.753907-31.109375 1.976563-43.054687 1.976563zm-19.878906-119.3125c-5.476563 0-10.75 1.433594-17.628907 4.792968-6.800781 3.324219-12.71875 7.566407-17.589843 12.605469-8.894532 9.199219-14.078126 21.203125-14.226563 32.941407-.152344 12.785156 5.824219 25.015624 15.605469 31.917968 3.894531 2.757813 8.625 4.859375 14.066406 6.253906 4.503906 1.152344 9.15625 1.734376 13.828125 1.734376 1.6875 0 3.433594-.082032 5.191406-.242188 6.015625-.546875 10.898438-1.976562 14.933594-4.375 6.003906-3.558594 10.265625-9.492188 13.3125-14.265625 5.015625-7.851563 8.308594-15.0625 10.074219-22.054687 2.160156-8.585938 2.007812-16.980469-.445313-24.277344-3.851562-11.433594-13.398437-19.964844-26.195312-23.402344-4.144531-1.109375-7.617188-1.628906-10.925781-1.628906zm0 0" fill="#fff"/><path d="m349.363281 147.828125c-4.511719 0-9.007812-.5625-13.363281-1.671875-5.179688-1.324219-9.683594-3.320312-13.390625-5.941406-9.234375-6.515625-14.886719-18.101563-14.738281-30.234375.128906-11.203125 5.105468-22.703125 13.652344-31.550781 4.667968-4.839844 10.394531-8.941407 17.015624-12.183594 6.679688-3.261719 11.527344-4.59375 16.738282-4.59375 3.109375 0 6.417968.5 10.398437 1.574218 12.300781 3.296876 21.105469 11.140626 24.785157 22.085938 2.332031 6.917969 2.476562 14.914062.40625 23.113281-1.722657 6.796875-4.9375 13.816407-9.820313 21.464844-3.09375 4.855469-7.015625 10.273437-12.625 13.605469-3.765625 2.234375-8.367187 3.578125-14.074219 4.105468-1.660156.152344-3.335937.226563-4.984375.226563zm2.660157-60.460937c-2.121094 0-4.230469.566406-6.828126 1.835937-2.609374 1.277344-4.867187 2.894531-6.707031 4.804687-1.691406 1.746094-3.074219 3.824219-4.011719 6.015626-.9375 2.199218-1.425781 4.433593-1.445312 6.636718-.066406 4.960938 2.257812 9.707032 6.058594 12.394532 1.519531 1.066406 3.347656 1.878906 5.425781 2.40625 1.714844.445312 3.492187.667968 5.292969.667968.628906 0 1.300781-.03125 1.996094-.09375 2.328124-.214844 4.230468-.773437 5.808593-1.707031 2.308594-1.378906 3.898438-3.558594 5.148438-5.507813 1.886719-2.960937 3.136719-5.703124 3.8125-8.371093.832031-3.304688.769531-6.546875-.175781-9.371094-1.503907-4.445313-5.207032-7.761719-10.164063-9.085937-1.5625-.421876-2.9375-.625-4.210937-.625zm0 0" fill="#5bd0fc"/><path d="m349.789062 120.089844c-1.613281 0-3.222656-.203125-4.78125-.609375-1.8125-.460938-3.40625-1.164063-4.722656-2.078125-3.285156-2.328125-5.273437-6.425782-5.214844-10.71875.039063-3.964844 1.816407-8.070313 4.878907-11.25 1.695312-1.757813 3.765625-3.238282 6.148437-4.398438 2.003906-.980468 3.78125-1.636718 5.933594-1.636718 1.101562 0 2.238281.171874 3.675781.558593 4.289063 1.152344 7.480469 3.992188 8.753907 7.789063 1.039062 3.082031.648437 6.164062.140624 8.203125-.617187 2.445312-1.78125 4.988281-3.558593 7.777343-1.125 1.753907-2.53125 3.691407-4.488281 4.847657-1.296876.78125-2.929688 1.253906-4.960938 1.433593-.570312.050782-1.191406.082032-1.804688.082032zm0 0" fill="#fff"/><path d="m143.074219 396.292969c-22.574219 0-39.886719-.710938-56.136719-2.304688-6.621094-.652343-14.28125-1.554687-21.402344-4.03125-4.027344-1.402343-6.332031-3.023437-7.476562-5.253906-.949219-1.847656-1.007813-4.148437-1.058594-6.183594-.558594-21.492187-1.140625-43.003906-1.71875-64.5l-.472656-17.332031c-.175782-6.53125-.503906-13.207031-.855469-20.042969-1.011719-20.121093-2.058594-40.84375 1.117187-60.222656.578126-3.542969 1.546876-7.453125 4.378907-9.523437 1.722656-1.269532 3.980469-1.703126 5.960937-1.957032.375-.050781.792969-.105468 1.199219-.148437 12.535156-1.429688 26.101563-2.222657 42.660156-2.503907h.140625c3.417969.0625 6.84375.109376 10.273438.140626l7.9375.089843c7.945312.089844 16.160156.179688 24.375.179688 4.820312 0 9.710937-.039063 14.535156-.121094h.136719c27.042969.492187 53.574219 1.855469 78.855469 4.046875 17.410156 1.519531 21.957031 12.304688 23.644531 29.214844 1.40625 14.058594.035156 28.382812-1.292969 42.238281-.402344 4.226563-.898438 9.398437-1.257812 14.304687-.605469 8.261719-.949219 16.953126-1.222657 23.933594-.902343 22.804688-1.753906 44.328125-8.492187 65.753906-1.152344 3.667969-2.65625 7.765626-5.882813 9.964844-2.582031 1.769532-5.890625 2.09375-9.632812 2.308594-21.707031 1.246094-43.867188 1.460938-65.300781 1.671875l-.4375.003906c-4.359376.039063-8.730469.089844-13.085938.140625-5.332031.0625-12.371094.132813-19.488281.132813zm-54.386719-169.714844c-1.65625.238281-3.515625.648437-5.042969 1.769531-2.636719 1.9375-3.5 5.289063-3.996093 8.308594-2.421876 14.769531-1.625 30.464844-.855469 45.644531l.007812.105469c.25 4.945312.507813 10.054688.640625 14.953125l.796875 29.863281c.285157 10.566406.566407 21.132813.84375 31.691406.042969 1.714844.09375 3.65625.992188 5.414063 1.386719 2.71875 4.265625 4.003906 6.621093 4.824219 5.476563 1.910156 11.167969 2.589844 16.523438 3.125 12.289062 1.203125 25.351562 1.742187 42.34375 1.742187 5 0 9.945312-.050781 14.726562-.101562l9.832032-.109375c15.347656-.140625 32.730468-.300782 49.53125-1.253906 2.398437-.140626 5.640625-.332032 8.148437-2.046876 2.613281-1.789062 3.941407-4.667968 5.121094-8.4375 5.152344-16.375 5.820313-33.425781 6.472656-49.917968.226563-5.859375.46875-11.917969.917969-17.949219.226562-3.21875.542969-6.519531.847656-9.710937l.089844-.949219c1.007812-10.515625 2.054688-21.382813.972656-32.164063-1.320312-13.253906-5.128906-22.332031-19.40625-23.574218-21.601562-1.871094-44.277344-2.9375-67.40625-3.164063l-5.9375-.0625c-6.003906-.066406-12.207031-.136719-18.449218-.136719-11.953126 0-27.65625.226563-43.140626 1.992188l-.101562.011718c-.261719.019532-.515625.050782-.773438.089844l-.292968.042969zm0 0" fill="#f9d889"/><path d="m147.679688 371.976562c-16.992188 0-30.03125-.53125-42.269532-1.726562-4.984375-.496094-10.734375-1.179688-16.042968-3.023438-2.914063-1.011718-4.648438-2.222656-5.46875-3.808593-.601563-1.179688-.738282-2.515625-.777344-4.578125-.269532-10.457032-.554688-20.933594-.835938-31.410156l-.425781-15.921876-.390625-14.199218c-.125-4.890625-.375-9.917969-.644531-15.070313-.761719-15.078125-1.546875-30.660156.835937-45.253906.609375-3.707031 1.5625-5.796875 3.195313-6.992187 1.257812-.917969 2.90625-1.234376 4.355469-1.429688.261718-.039062.585937-.074219.921874-.109375 15.339844-1.742187 31.019532-1.96875 42.964844-1.96875 6.136719 0 12.3125.070313 18.285156.132813l6.015626.0625c23.023437.21875 45.644531 1.28125 67.234374 3.15625 12.925782 1.117187 16.300782 9.148437 17.554688 21.746093 1.054688 10.515625.078125 20.773438-.953125 31.632813l-.015625.132812c-.335938 3.496094-.683594 7.105469-.949219 10.71875-.429687 5.882813-.675781 11.875-.914062 18.003906l-.003907.152344c-.679687 17.070313-1.320312 33.191406-6.367187 49.234375-.867187 2.726563-1.984375 5.757813-4.324219 7.359375-1.921875 1.316406-4.472656 1.550782-7.136718 1.695313-16.304688.9375-32.972657 1.101562-49.09375 1.261719l-.769532.007812c-3.132812.027344-6.269531.058594-9.394531.097656-3.980469.046875-9.238281.097656-14.585937.097656zm16.695312-122.042968c-6.027344 0-11.878906.25-17.304688.519531-6.921874.34375-13.230468 1-19.28125 2.011719-1.75.296875-4.027343.753906-6.007812 1.621094-1.871094.8125-3.273438 1.882812-4.292969 3.265624-1.75 2.375-2.089843 5.328126-2.289062 8.152344-.710938 9.929688-.375 19.84375-.050781 29.429688l1.609374 48.65625c.050782 1.59375.117188 3.773437 1.417969 5.433594 1.105469 1.40625 2.78125 2.046874 4.429688 2.53125 6.226562 1.835937 12.8125 2.371093 18.492187 2.722656 8.265625.519531 16.578125.785156 24.710938.785156 5.238281 0 10.703125-.113281 16.238281-.339844.894531-.035156 2.117187-.089844 3.105469-.824218 1.238281-.910157 1.59375-2.519532 1.785156-3.386719.976562-4.519531 1.589844-9.105469 1.824219-13.640625.046875-.859375.121093-2.304688-.632813-3.484375-.636718-.992188-1.679687-1.503907-2.617187-1.875-2.1875-.855469-4.6875-1.273438-7.628907-1.273438-2.5625 0-5.035156.304688-7.429687.597657l-16.175781 1.996093-.355469.039063-3.023437.308594-1.109376-2.832032c-.1875-.480468-.355468-1.066406-.535156-1.835937-.464844-2.082031-.84375-4.15625-1.136718-6.207031l-.722657-5.074219 5.101563.535156c3.117187.324219 6.234375.824219 9.257812 1.476563l.527344.121093c1.65625.359375 3.371094.734375 5.121094.734375.921875 0 1.757812-.105468 2.558594-.320312 2.761718-.738282 5.222656-2.953125 6.753906-6.078125 1.308594-2.667969 1.816406-5.566407 2.3125-8.371094.378906-2.183594 1.140625-6.585937-1.605469-9.109375-1.148437-1.054688-2.511719-1.546875-4.292969-1.546875-2.070312 0-4.230468.667969-5.964844 1.203125-3.863281 1.207031-7.902343 1.953125-12.011718 2.226562l-.101563.007813c-.238281.011719-.445312.023437-.609375.023437h-2.464844l-1.109374-2.199218-.113282-.222656c-1.449218-2.941407-2.398437-6.0625-2.839844-9.300782-.210937-1.558594-.636718-6.777344 2.703126-8.574218.6875-.382813 1.550781-.589844 2.515624-.589844 1.539063 0 3.410157.535156 5.195313 1.078125l.28125.082031c5.15625 1.546875 10.476563 2.417969 15.816406 2.585938.355469.011718.71875.019531 1.082031.019531 1.796876 0 3.132813-.203125 4.324219-.652344 3.65625-1.378906 5.6875-5.085937 6.742188-7.957031 1.601562-4.355469 3.484375-13.082032.390625-18.09375-1.273438-2.058594-3.226563-3.253906-5.804688-3.546875-5.023437-.558594-10.511718-.828125-16.785156-.828125zm0 0" fill="#fff"/><path d="m166.371094 200.539062c-3.414063-.058593-6.835938-.109374-10.269532-.148437l-7.921874-.082031c-7.855469-.085938-15.972657-.175782-24.144532-.175782-5.304687 0-10.097656.039063-14.648437.113282h-.140625c-27.144532-.492188-53.710938-1.855469-78.964844-4.054688-17.414062-1.503906-21.960938-12.292968-23.652344-29.214844-1.402344-14.101562-.027344-28.429687 1.300782-42.289062.484374-5.0625.914062-9.628906 1.25-14.238281.59375-7.964844.914062-16.050781 1.222656-23.875.902344-22.871094 1.753906-44.398438 8.492187-65.816407 1.148438-3.660156 2.644531-7.753906 5.882813-9.960937 2.597656-1.78125 5.898437-2.105469 9.632812-2.320313 22.160156-1.261718 45.324219-1.476562 65.761719-1.667968l13.0625-.140625c6.195313-.066407 12.851563-.128907 19.546875-.128907 22.574219 0 39.871094.707032 56.082031 2.300782 6.625.652344 14.285157 1.554687 21.402344 4.03125 4.039063 1.402344 6.347656 3.023437 7.480469 5.257812.945312 1.851563 1.003906 4.152344 1.054687 6.179688.359375 13.695312.726563 27.386718 1.09375 41.082031l1.097657 40.75c.167968 6.285156.492187 12.816406.808593 19.132813l.046875.90625c1.019532 20.03125 2.074219 40.75-1.117187 60.226562-.574219 3.542969-1.546875 7.453125-4.378907 9.523438-1.6875 1.238281-3.851562 1.671874-5.933593 1.953124l-1.199219.152344c-12.480469 1.410156-26.453125 2.230469-42.710938 2.503906zm-38.140625-171.730468c-5.304688 0-10.414063.050781-14.714844.101562-3.242187.039063-6.492187.066406-9.738281.097656l-.417969.003907c-16.144531.160156-32.835937.324219-49.210937 1.261719-2.40625.144531-5.644532.335937-8.152344 2.046874-2.617188 1.785157-3.9375 4.664063-5.121094 8.433594-5.148438 16.371094-5.820312 33.421875-6.46875 49.914063-.230469 5.867187-.46875 11.9375-.90625 17.941406-.265625 3.570313-.613281 7.246094-.949219 10.691406-1.003906 10.550781-2.039062 21.410157-.972656 32.152344 1.332031 13.25 5.140625 22.332031 19.40625 23.570313 21.597656 1.871093 44.273437 2.9375 67.402344 3.167968l5.960937.058594c5.867188.066406 12.148438.128906 18.351563.128906 12.007812 0 27.769531-.226562 43.226562-1.984375l.996094-.117187c.714844-.097656 1.734375-.253906 2.730469-.570313.980468-.316406 1.800781-.71875 2.492187-1.226562 2.648438-1.941407 3.511719-5.289063 4.007813-8.308594 2.410156-14.730469 1.628906-30.371094.871094-45.496094l-.019532-.378906c-.246094-4.902344-.503906-9.96875-.632812-14.839844l-.429688-15.613281c-.410156-15.308594-.820312-30.617188-1.222656-45.925781-.042969-1.71875-.09375-3.660157-.988281-5.414063-1.386719-2.71875-4.265625-4.003906-6.625-4.824218-5.554688-1.941407-11.4375-2.632813-16.515625-3.128907-12.253906-1.203125-25.316406-1.742187-42.359375-1.742187zm0 0" fill="#ed6d66"/><path d="m142.714844 176.34375c-6.136719 0-12.308594-.070312-18.28125-.132812l-6.023438-.0625c-23.03125-.21875-45.65625-1.28125-67.246094-3.15625-12.925781-1.132813-16.300781-9.160157-17.554687-21.746094-1.058594-10.574219-.070313-20.871094.980469-31.769532l.09375-1.019531c.300781-3.179687.605468-6.464843.847656-9.695312.449219-6.058594.683594-12.132813.914062-18.007813.679688-17.152344 1.324219-33.320312 6.378907-49.386718.851562-2.710938 1.957031-5.742188 4.316406-7.359376 1.886719-1.292968 4.3125-1.535156 7.054687-1.699218 16.390626-.933594 33.054688-1.097656 49.167969-1.257813h.339844c3.277344-.03125 6.5625-.0625 9.828125-.101562 5.410156-.066407 10.21875-.101563 14.699219-.101563 10.519531 0 26.335937.179688 42.160156 1.730469 4.984375.492187 10.738281 1.175781 16.046875 3.023437 2.945312 1.023438 4.691406 2.253907 5.492188 3.863282.574218 1.121094.707031 2.460937.75 4.523437.296874 11.214844.597656 22.464844.902343 33.707031l.746094 27.816407c.117187 4.550781.355469 9.273437.585937 13.839843l.0625 1.246094c.761719 15.117188 1.546876 30.695313-.839843 45.238282-.605469 3.714843-1.5625 5.808593-3.195313 7-1.230468.914062-2.894531 1.234374-4.359375 1.429687l-.875.105469c-15.371093 1.746094-31.050781 1.972656-42.992187 1.972656zm-40.105469-115.734375c-.398437 0-.761719.050781-1.082031.09375l-21.015625 2.820313c-.515625.066406-1.1875.152343-1.832031.476562-1.847657.9375-2.210938 3.078125-2.324219 5.050781-.71875 13.355469-1.53125 28.480469-1.875 43.121094-.191407 7.976563-.230469 15.144531-.121094 21.921875.03125 1.800781-.09375 3.527344-.222656 5.355469l-.019531.234375c-.277344 3.851562-.5625 7.816406.667968 11.859375.335938 1.109375.78125 2.238281 1.765625 3.011719.808594.628906 1.832031.863281 2.328125.972656 2.660156.632812 5.367188.953125 8.078125.953125.738281 0 1.433594-.023438 2.066407-.0625 1.519531-.089844 3.09375-.285157 4.484374-1.144531 3.355469-2.054688 3.648438-6.742188 3.808594-9.257813.488282-7.726563 1.339844-15.496094 2.53125-23.105469l2.269532-14.523437 5.402343 13.671875c.660157 1.675781 1.253907 3.507812 1.8125 5.597656.800781 3.003906 1.390625 6.042969 1.960938 8.976562.617187 3.160157 1.316406 6.738282 2.285156 10.183594.445313 1.566406 1.226563 1.847656 1.484375 1.941406.234375.085938.464844.125.722656.125.21875 0 .402344-.027343.566406-.050781l34.648438-4.855469c2.441406-.34375 5.464844-.769531 7.578125-2.867187 2.867187-2.847656 2.609375-7.449219 2.453125-10.199219l-3.777344-68.875c-.101562-1.9375-.242187-4.582031-2.019531-6.402344-1.699219-1.746093-4.265625-2.015624-5.964844-2.191406-4.988281-.496094-10.082031-.746094-15.175781-.746094l-.582031.003907c-.457031 0-1.128907 0-1.773438.285156-1.394531.617187-2.035156 2.171875-1.90625 4.625.605469 11.792969.59375 23.734375-.042969 35.503906l-.660156 12.28125-6.6875-10.320312c-6.445312-9.945313-11.941406-20.542969-16.335937-31.496094-.417969-1.035156-.960938-2.1875-2.105469-2.695313-.410156-.183593-.859375-.273437-1.390625-.273437zm0 0" fill="#fff"/><path d="m165.832031 353.015625c-8.179687 0-16.453125-.261719-24.59375-.773437-5.882812-.375-12.121093-.890626-18.054687-2.648438-.808594-.230469-1.480469-.480469-2.015625-.746094l-1.621094-.8125-.457031-1.753906c-.175782-.664062-.261719-1.503906-.289063-2.800781l-1.628906-48.894531c-.3125-9.496094-.632813-19.316407.058594-28.929688.175781-2.519531.46875-5.148438 1.898437-7.089844 1.898438-2.578125 5.449219-3.488281 9.003906-4.089844 5.894532-.992187 12.113282-1.640624 19.023438-1.992187 5.433594-.261719 11.269531-.507813 17.195312-.507813 6.210938 0 11.640626.265626 16.589844.820313 1.964844.222656 3.367188 1.074219 4.296875 2.609375 2.492188 4.003906 1.023438 11.941406-.574219 16.292969-.917968 2.472656-2.617187 5.644531-5.539062 6.75-1.234375.460937-2.535156.523437-3.648438.523437-.316406 0-.636718-.003906-.957031-.011718-5.207031-.175782-10.351562-1.019532-15.320312-2.507813l-.203125-.054687c-1.890625-.574219-3.925782-1.1875-5.894532-1.1875-1.3125 0-2.457031.277343-3.5.851562-2.992187 1.648438-4.378906 5.613281-3.707031 10.605469.460938 3.449219 1.480469 6.792969 3.023438 9.9375.332031.667969 1.03125 2.078125 2.296875 2.863281.777344.476562 1.769531.710938 3.011718.710938.417969 0 .777344-.023438 1.054688-.042969 4.242188-.277344 8.441406-1.054688 12.472656-2.308594 2.558594-.796875 4.097656-1.125 5.300782-1.125.292968 0 .558593.019531.792968.054687l2.660156.367188.667969 2.601562c.308594 1.195313.261719 2.789063-.140625 5.164063-.484375 2.757813-.960937 5.511719-2.148437 7.914063-1.257813 2.570312-3.238281 4.394531-5.433594 5-.664063.175781-1.320313.257812-2.054687.257812-1.535157 0-3.152344-.359375-4.71875-.707031l-.488282-.105469c-3.996094-.867188-8.0625-1.457031-12.082031-1.75-.257813-.019531-.5-.03125-.730469-.03125-2.289062 0-2.914062.921875-3.179687 1.316406-.648438.953125-.535157 2.050782-.460938 2.777344.3125 3.132812.824219 6.277344 1.523438 9.363281.507812 2.25 1.40625 4.929688 3.902343 5.792969.507813.175781 1.070313.261719 1.710938.261719.570312 0 1.113281-.066407 1.636719-.128907l16.136719-1.992187c2.230468-.273437 4.734374-.582031 7.203124-.582031 2.320313 0 4.308594.273437 6.066407.828125l2.964843.941406-.179687 3.101563c-.242187 4.175781-.792969 8.339843-1.640625 12.378906l-.636719 3.050781-3.117187.125c-5.105469.207031-10.3125.3125-15.476563.3125zm0 0" fill="#f9d889"/><path d="m86.960938 154.441406c-2.46875 0-4.929688-.277344-7.3125-.824218l-2.277344-.519532-.664063-2.238281c-1.09375-3.671875-.832031-7.242187-.558593-11.019531l.011718-.132813c.128906-1.832031.265625-3.722656.238282-5.652343-.109376-6.734376-.070313-13.882813.121093-21.839844.335938-14.507813 1.148438-29.601563 1.867188-42.933594v-3.390625l3.472656-.496094 21.605469-2.890625 1.167968 2.863282c6.171876 15.140624 14.355469 29.433593 24.316407 42.484374.191406.253907.492187.402344.804687.402344.089844 0 .179688-.015625.269532-.039062.414062-.117188.703124-.46875.746093-.886719 1.539063-16.019531 1.933594-32.304687 1.175781-48.398437l-.203124-4.25 4.253906.058593c4.445312.066407 8.832031.3125 13.042968.730469 1.707032.183594 2.707032.394531 3.46875.726562l1.472657.648438.613281 1.484375c.390625.9375.527344 2.125.625 3.730469l3.785156 68.960937c.167969 3.308594.160156 6.628907-1.84375 8.636719-1.535156 1.511719-3.828125 1.929688-6.445312 2.292969l-35.078125 4.925781-.847657-3.535156c-.539062-2.246094-.976562-4.480469-1.445312-6.84375l-.050781-.257813c-.585938-2.992187-1.191407-6.082031-1.992188-9.109375-2.070312-7.828125-5.191406-13.542968-9.542969-17.472656-.179687-.164062-.425781-.257812-.683593-.257812-.109375 0-.21875.019531-.328125.054687-.339844.109375-.59375.398437-.671875.769531-2.417969 11.660156-4.03125 23.664063-4.792969 35.660156-.273438 4.4375-1.023438 6.503907-2.769531 7.617188l-.105469.066406-.109375.0625c-.800781.441406-1.785156.660156-3.390625.753906-.644531.039063-1.292969.058594-1.945312.058594zm0 0" fill="#ed6d66"/><path d="m225.160156 223.816406c-21.695312-1.882812-44.476562-2.953125-67.707031-3.175781l-5.945313-.0625c-20.429687-.222656-41.5625-.457031-62.082031 1.875-.335937.039063-.671875.078125-1.003906.125-.003906 0-.007813 0-.007813 0-2.085937.277344-4.78125.816406-7.132812 2.542969-3.824219 2.804687-4.988281 7.292968-5.578125 10.890625-2.488281 15.203125-1.683594 31.125-.90625 46.519531.25 4.941406.507813 10.054688.640625 14.941406l.378906 14.195313c.425782 15.785156.851563 31.566406 1.265625 47.355469.050781 1.925781.121094 4.570312 1.425781 7.125 2.054688 4.027343 6.050782 5.800781 8.875 6.785156 5.957032 2.070312 12.125 2.800781 17.4375 3.324218 14.394532 1.414063 28.800782 1.761719 42.734376 1.761719 4.996093 0 9.929687-.046875 14.777343-.101562 3.277344-.039063 6.558594-.070313 9.839844-.101563 16.292969-.160156 33.140625-.324218 49.710937-1.269531 2.683594-.15625 6.738282-.386719 10.179688-2.738281 3.765625-2.574219 5.433594-6.585938 6.679688-10.539063 5.300781-16.851562 5.984374-34.1875 6.644531-50.953125.230469-5.855468.472656-11.910156.90625-17.8125.257812-3.503906.601562-7.101562.933593-10.582031 1.027344-10.714844 2.085938-21.792969.972657-32.941406-1.25-12.550781-4.96875-25.59375-23.039063-27.164063zm12.074219 59.148438c-.335937 3.53125-.6875 7.1875-.953125 10.800781-.445312 6.074219-.6875 12.214844-.921875 18.152344-.667969 16.851562-1.292969 32.765625-6.195313 48.339843-.699218 2.230469-1.519531 4.410157-2.765624 5.261719-1.136719.777344-3.421876.90625-5.089844 1.003907-16.332032.933593-33.058594 1.097656-49.230469 1.253906-3.289063.03125-6.578125.0625-9.863281.101562-18.097656.207032-37.367188.257813-56.414063-1.613281-4.734375-.464844-10.203125-1.105469-15.117187-2.816406-2.503906-.871094-3.097656-1.597657-3.234375-1.867188-.273438-.53125-.304688-1.855469-.332031-2.824219-.414063-15.785156-.835938-31.574218-1.261719-47.359374l-.382813-14.195313c-.132812-5.007813-.394531-10.175781-.648437-15.179687-.75-14.867188-1.527344-30.246094.789062-44.390626.398438-2.441406.9375-3.925781 1.605469-4.417968.585938-.429688 1.992188-.617188 2.519531-.6875.273438-.035156.546875-.066406.816407-.097656 19.902343-2.261719 40.71875-2.03125 60.84375-1.816407l5.957031.066407c22.976562.222656 45.496093 1.277343 66.933593 3.140624 9.246094.800782 12.632813 5.214844 13.921876 18.160157 1.015624 10.167969.050781 20.28125-.976563 30.984375zm0 0"/><path d="m511.378906 237.835938c-1.601562-16.015626-6.316406-32.652344-29.136718-34.632813-9.035157-.78125-18.226563-1.449219-27.519532-2.019531 2.78125-3.304688 3.824219-7.609375 4.414063-11.207032 3.28125-20.042968 2.21875-41.121093 1.1875-61.507812-.332031-6.582031-.675781-13.382812-.851563-19.898438l-.46875-17.335937c-.578125-21.5-1.15625-43-1.722656-64.5-.0625-2.40625-.148438-5.703125-1.714844-8.765625-2.464844-4.824219-7.382812-6.996094-10.871094-8.207031-7.746093-2.699219-15.832031-3.652344-22.804687-4.335938-25.910156-2.546875-51.890625-2.484375-76.28125-2.199219-4.355469.046876-8.710937.089844-13.070313.132813-21.648437.207031-44.035156.425781-66.03125 1.6875-3.585937.203125-8.5.484375-12.695312 3.351563-4.59375 3.136718-6.675781 8.171874-8.238281 13.140624-6.980469 22.195313-7.886719 45.136719-8.761719 67.320313-.308594 7.796875-.628906 15.859375-1.207031 23.738281-.34375 4.675782-.804688 9.464844-1.246094 14.097656-1.355469 14.167969-2.757813 28.820313-1.292969 43.480469 1.203125 12.054688 4.175782 24.460938 15.304688 30.703125-.753906-.105468-1.527344-.195312-2.328125-.265625-7.878907-.683593-15.878907-1.277343-23.957031-1.800781 2.921874-3.332031 4.003906-7.746094 4.605468-11.425781 3.28125-20.042969 2.214844-41.121094 1.183594-61.507813-.332031-6.582031-.675781-13.382812-.851562-19.898437l-.480469-17.886719c-.574219-21.316406-1.148438-42.632812-1.707031-63.949219-.0625-2.40625-.148438-5.699219-1.714844-8.765625-2.464844-4.824218-7.382813-6.996094-10.871094-8.210937-7.746094-2.695313-15.832031-3.652344-22.804688-4.335938-25.914062-2.542969-51.894531-2.480469-76.285156-2.199219-4.347656.050782-8.699218.09375-13.050781.136719-21.652344.207031-44.042969.425781-66.046875 1.683594-3.585938.207031-8.5.488281-12.699219 3.355469-4.589843 3.136718-6.667969 8.167968-8.234375 13.140625-6.980468 22.191406-7.886718 45.128906-8.761718 67.3125-.308594 7.796875-.625 15.863281-1.207032 23.742187-.34375 4.675782-.800781 9.472656-1.246094 14.105469-1.355468 14.167969-2.753906 28.816406-1.292968 43.472656 1.601562 16.015625 6.316406 32.652344 29.136718 34.632813 7.878907.683594 15.878907 1.277344 23.957032 1.800781-2.921875 3.332031-4.003906 7.75-4.605469 11.425781-3.28125 20.042969-2.214844 41.121094-1.1875 61.507813.332031 6.582031.679687 13.382812.855469 19.898437l.464844 17.335938c.578124 21.5 1.160156 43 1.722656 64.5.0625 2.40625.152344 5.703125 1.714844 8.765625 2.464843 4.824219 7.382812 6.996093 10.871093 8.207031 7.746094 2.699219 15.832031 3.652344 22.804688 4.335938 19.070312 1.875 38.175781 2.335937 56.660156 2.335937 6.628906 0 13.183594-.058594 19.625-.136719 4.351563-.046875 8.710937-.089844 13.070313-.132812 21.644531-.207032 44.03125-.425782 66.027343-1.6875 3.589844-.203125 8.503907-.484375 12.699219-3.351563 4.589844-3.136719 6.671875-8.171875 8.234375-13.140625 6.980469-22.195312 7.886719-45.136718 8.765625-67.320312.304688-7.796875.625-15.859375 1.203125-23.738282.34375-4.675781.804687-9.464843 1.246094-14.097656 1.355469-14.167968 2.757812-28.820312 1.292969-43.480468-1.203126-12.054688-4.175782-24.460938-15.304688-30.703126.757812.105469 1.53125.195313 2.328125.265626 9.035156.785156 18.226563 1.449218 27.519531 2.019531-2.78125 3.304687-3.824218 7.609375-4.414062 11.207031-3.28125 20.039062-2.21875 41.117188-1.1875 61.5.332031 6.582031.675781 13.386719.851562 19.90625l.480469 17.886719c.574219 21.316406 1.148437 42.632812 1.710937 63.949219.0625 2.40625.148438 5.699218 1.710938 8.765624 2.464844 4.824219 7.386719 6.996094 10.871094 8.210938 7.746094 2.695312 15.835937 3.652344 22.804687 4.335938 19.066407 1.871093 38.167969 2.332031 56.648438 2.332031 6.636719 0 13.191406-.058594 19.636719-.132813 4.347656-.050781 8.699218-.09375 13.050781-.136718 21.65625-.207032 44.042969-.425782 66.050781-1.683594 3.585938-.207032 8.5-.488282 12.695312-3.355469 4.589844-3.136719 6.671876-8.167969 8.238282-13.140625 6.980468-22.191406 7.886718-45.128906 8.761718-67.316406.308594-7.796875.625-15.859375 1.207032-23.742188.34375-4.675781.804687-9.46875 1.246094-14.105468 1.355468-14.164063 2.753906-28.8125 1.292968-43.46875zm-500.765625-71.253907c-1.367187-13.679687-.011719-27.828125 1.296875-41.515625.449219-4.6875.910156-9.539062 1.261719-14.328125.59375-8.046875.917969-16.199219 1.226563-24.082031.890624-22.515625 1.730468-43.785156 8.308593-64.695312.953125-3.027344 2.152344-6.382813 4.324219-7.867188 1.75-1.195312 4.480469-1.441406 7.609375-1.621094 21.765625-1.246094 44.035156-1.460937 65.570313-1.667968 4.359374-.042969 8.714843-.085938 13.070312-.136719 6.402344-.074219 12.914062-.132813 19.503906-.132813 18.21875 0 37.019532.453125 55.683594 2.285156 6.398438.628907 13.78125 1.492188 20.484375 3.828126 2.90625 1.007812 4.613281 2.085937 5.230469 3.292968.53125 1.039063.578125 2.859375.621094 4.464844.558593 21.316406 1.132812 42.636719 1.707031 63.953125l.480469 17.886719c.179687 6.632812.527343 13.496094.863281 20.136718 1.003906 19.855469 2.042969 40.394532-1.070313 59.378907-.421875 2.585937-1.121094 5.714843-2.789062 6.9375-.988282.726562-2.628906 1.023437-4.109375 1.21875-.375.050781-.753907.097656-1.121094.136719-13.886719 1.582031-28.09375 2.246093-42.320313 2.484374-3.421874-.0625-6.851562-.113281-10.292968-.148437l-7.925782-.082031c-12.824218-.140625-25.855468-.277344-38.902343-.0625-26.976563-.488282-53.402344-1.835938-78.695313-4.03125-13.164062-1.144532-18.214844-7.613282-20.015625-25.632813zm254.574219 69.660157c1.367188 13.683593.015625 27.835937-1.296875 41.527343-.445313 4.683594-.910156 9.53125-1.261719 14.316407-.59375 8.046874-.914062 16.195312-1.226562 24.074218-.886719 22.519532-1.730469 43.789063-8.308594 64.707032-.953125 3.027343-2.148438 6.378906-4.320312 7.863281-1.753907 1.195312-4.484376 1.441406-7.609376 1.621093-21.761718 1.246094-44.023437 1.460938-65.554687 1.671876-4.363281.039062-8.726563.082031-13.085937.132812-24.113282.277344-49.78125.34375-75.1875-2.152344-6.398438-.625-13.78125-1.492187-20.484376-3.824218-2.90625-1.011719-4.613281-2.089844-5.230468-3.296876-.53125-1.035156-.578125-2.855468-.621094-4.460937-.5625-21.503906-1.140625-43.007813-1.722656-64.511719l-.464844-17.332031c-.179688-6.632813-.527344-13.496094-.863281-20.132813-1.003907-19.859374-2.042969-40.394531 1.070312-59.378906.421875-2.585937 1.121094-5.714844 2.789063-6.9375.984375-.726562 2.632812-1.023437 4.109375-1.222656.375-.046875.746093-.09375 1.121093-.132812 13.882813-1.582032 28.082032-2.246094 42.304688-2.484376 3.429688.058594 6.863281.113282 10.308594.148438l7.925781.082031c8.074219.085938 16.230469.175781 24.421875.175781 4.859375 0 9.730469-.03125 14.601562-.113281 26.933594.488281 53.320313 1.839844 78.574219 4.03125 13.164063 1.144531 18.210938 7.609375 20.011719 25.628907zm-22.128906-67.066407c-1.367188-13.683593-.011719-27.835937 1.296875-41.527343.449219-4.683594.914062-9.53125 1.265625-14.316407.589844-8.046875.914062-16.195312 1.222656-24.074219.890625-22.519531 1.730469-43.789062 8.308594-64.707031.953125-3.027343 2.152344-6.378906 4.324218-7.863281 1.75-1.195312 4.480469-1.441406 7.609376-1.621094 21.757812-1.246094 44.023437-1.460937 65.550781-1.671875 4.363281-.039062 8.730469-.082031 13.089843-.132812 6.398438-.074219 12.902344-.132813 19.484376-.132813 18.226562 0 37.035156.449219 55.699218 2.285156 6.398438.628907 13.78125 1.492188 20.488282 3.824219 2.902343 1.011719 4.609374 2.089844 5.226562 3.296875.53125 1.035156.578125 2.855469.621094 4.460938.566406 21.503906 1.144531 43.007812 1.722656 64.511718l.46875 17.332032c.175781 6.632812.523438 13.496094.859375 20.132812 1.003906 19.859375 2.042969 40.394532-1.066406 59.378906-.425781 2.585938-1.125 5.714844-2.792969 6.941407-.984375.722656-2.628906 1.019531-4.109375 1.21875-.375.046875-.746094.09375-1.117187.132812-13.3125 1.515625-26.917969 2.191407-40.550782 2.457031-2.765625-.046874-5.535156-.09375-8.3125-.121093l-7.925781-.082031c-13.402344-.144532-27.027344-.292969-40.660156-.035157-27.667969-.453125-54.773438-1.8125-80.691407-4.058593-13.160156-1.140626-18.210937-7.609376-20.011718-25.628907zm257.03125 111.175781c-.449219 4.691407-.914063 9.539063-1.265625 14.328126-.589844 8.046874-.914063 16.199218-1.222657 24.082031-.890624 22.515625-1.730468 43.785156-8.308593 64.695312-.953125 3.027344-2.152344 6.382813-4.324219 7.867188-1.75 1.195312-4.480469 1.441406-7.609375 1.621093-21.765625 1.246094-44.035156 1.460938-65.570313 1.667969-4.359374.042969-8.714843.085938-13.070312.136719-24.109375.277344-49.777344.34375-75.1875-2.152344-6.398438-.628906-13.78125-1.492187-20.484375-3.828125-2.902344-1.007812-4.613281-2.085937-5.230469-3.292969-.53125-1.039062-.578125-2.859374-.621094-4.464843-.558593-21.316407-1.132812-42.636719-1.707031-63.953125l-.480469-17.886719c-.179687-6.636719-.527343-13.503906-.859374-20.144531-1.003907-19.855469-2.042969-40.390625 1.066406-59.371094.421875-2.585938 1.125-5.714844 2.789062-6.9375.988282-.722656 2.632813-1.023438 4.109375-1.21875.378907-.050781.753907-.097656 1.121094-.136719 13.308594-1.515625 26.910156-2.191406 40.542969-2.457031 2.769531.046875 5.539062.09375 8.316406.121094l7.929688.082031c8.078124.085937 16.230468.175781 24.425781.175781 5.347656 0 10.710937-.042968 16.078125-.144531 27.71875.453125 54.878906 1.808594 80.84375 4.0625 13.164062 1.144531 18.214844 7.609375 20.015625 25.632813 1.367187 13.679687.011719 27.832031-1.296875 41.515624zm0 0"/><path d="m461.355469 226.410156c-21.691407-1.882812-44.46875-2.953125-67.707031-3.179687l-5.960938-.0625c-20.429688-.222657-41.554688-.453125-62.074219 1.878906-.332031.039063-.667969.078125-1 .121094 0 .003906-.003906.003906-.003906.003906-2.085937.273437-4.78125.816406-7.132813 2.542969-3.820312 2.804687-4.984374 7.292968-5.574218 10.886718-2.492188 15.203126-1.6875 31.125-.910156 46.523438.25 4.941406.511718 10.050781.640624 14.9375l.300782 11.179688c.453125 16.789062.90625 33.578124 1.347656 50.367187.046875 1.929687.117188 4.570313 1.425781 7.128906 2.058594 4.03125 6.050781 5.804688 8.875 6.785157 5.953125 2.070312 12.121094 2.800781 17.4375 3.324218 14.390625 1.414063 28.796875 1.761719 42.730469 1.761719 4.992188 0 9.929688-.046875 14.78125-.101563 3.269531-.039062 6.546875-.070312 9.820312-.101562 16.296876-.15625 33.148438-.320312 49.726563-1.269531 2.683594-.15625 6.738281-.386719 10.179687-2.738281 3.765626-2.570313 5.4375-6.582032 6.679688-10.539063 5.300781-16.847656 5.984375-34.183594 6.648438-50.949219.230468-5.855468.472656-11.910156.90625-17.816406.257812-3.503906.601562-7.101562.933593-10.578125 1.027344-10.714844 2.085938-21.796875.972657-32.941406-1.253907-12.550781-4.972657-25.597657-23.042969-27.164063zm12.078125 59.152344c-.339844 3.53125-.6875 7.183594-.953125 10.796875-.449219 6.074219-.691407 12.214844-.925781 18.15625-.664063 16.847656-1.292969 32.761719-6.191407 48.335937-.703125 2.230469-1.523437 4.410157-2.765625 5.261719-1.136718.777344-3.425781.90625-5.09375 1.003907-16.335937.933593-33.066406 1.097656-49.246094 1.25-3.28125.035156-6.5625.066406-9.839843.105468-18.105469.207032-37.371094.253906-56.414063-1.613281-4.742187-.464844-10.210937-1.105469-15.121094-2.816406-2.503906-.871094-3.097656-1.597657-3.234374-1.867188-.273438-.53125-.304688-1.855469-.332032-2.824219-.4375-16.792968-.890625-33.585937-1.34375-50.378906l-.300781-11.175781c-.132813-5.003906-.394531-10.175781-.648437-15.179687-.75-14.867188-1.527344-30.246094.789062-44.390626.398438-2.441406.9375-3.925781 1.605469-4.417968.585937-.425782 1.992187-.613282 2.519531-.6875.277344-.035156.550781-.066406.820312-.097656 19.894532-2.261719 40.703126-2.035157 60.824219-1.8125l5.972657.0625c22.980468.222656 45.5 1.28125 66.933593 3.140624 9.246094.800782 12.628907 5.214844 13.925781 18.160157 1.011719 10.167969.042969 20.28125-.980468 30.988281zm0 0"/><path d="m350.792969 184.78125 5.945312.0625c6.085938.066406 12.230469.132812 18.40625.132812 14.558594 0 29.269531-.375 43.679688-2.011718.332031-.039063.667969-.078125 1.003906-.121094 0 0 .003906-.003906.003906-.003906 2.085938-.277344 4.78125-.816406 7.136719-2.542969 3.820312-2.804687 4.984375-7.292969 5.574219-10.890625 2.492187-15.203125 1.6875-31.121094.90625-46.519531-.25-4.941407-.507813-10.050781-.636719-14.941407l-.398438-14.761718c-.421874-15.59375-.839843-31.191406-1.25-46.78125-.050781-1.929688-.117187-4.570313-1.421874-7.128906-2.058594-4.03125-6.050782-5.800782-8.878907-6.785157-5.957031-2.074219-12.125-2.804687-17.4375-3.324219-19.550781-1.921874-39.132812-1.875-57.511719-1.660156-3.277343.039063-6.558593.070313-9.839843.101563-16.289063.15625-33.136719.320312-49.707031 1.269531-2.683594.152344-6.738282.386719-10.179688 2.738281-3.765625 2.570313-5.4375 6.582031-6.679688 10.535157-5.304687 16.851562-5.988281 34.191406-6.648437 50.957031-.230469 5.855469-.472656 11.90625-.90625 17.8125-.257813 3.503906-.601563 7.101562-.933594 10.578125-1.023437 10.714844-2.085937 21.796875-.972656 32.941406 1.253906 12.550781 4.972656 25.59375 23.042969 27.164062 21.695312 1.882813 44.472656 2.953126 67.703125 3.179688zm-80.757813-31.34375c-1.015625-10.167969-.046875-20.28125.976563-30.984375.335937-3.53125.6875-7.1875.953125-10.800781.445312-6.074219.6875-12.214844.921875-18.152344.667969-16.851562 1.292969-32.765625 6.195312-48.339844.699219-2.230468 1.523438-4.414062 2.765625-5.261718 1.136719-.777344 3.421875-.90625 5.089844-1.003907 16.332031-.933593 33.058594-1.097656 49.230469-1.253906 3.289062-.03125 6.578125-.0625 9.863281-.101563 4.804688-.054687 9.695312-.097656 14.636719-.097656 13.679687 0 27.785156.335938 41.777343 1.710938 4.734376.464844 10.203126 1.105468 15.117188 2.816406 2.503906.871094 3.097656 1.597656 3.234375 1.867188.273437.53125.304687 1.855468.332031 2.824218.40625 15.597656.828125 31.195313 1.246094 46.789063l.398438 14.765625c.132812 5.007812.394531 10.175781.648437 15.179687.75 14.867188 1.527344 30.246094-.789063 44.390625-.398437 2.441406-.9375 3.925782-1.605468 4.417969-.585938.429687-1.992188.617187-2.519532.6875-.273437.035156-.546874.066406-.816406.097656-19.90625 2.261719-40.71875 2.035157-60.84375 1.816407l-5.957031-.066407c-22.976563-.222656-45.496094-1.277343-66.933594-3.140625-9.246093-.800781-12.628906-5.214844-13.921875-18.160156zm0 0"/><path d="m118.351562 182.1875 5.960938.0625c6.078125.066406 12.21875.132812 18.386719.132812 14.558593 0 29.273437-.375 43.683593-2.011718.332032-.039063.667969-.078125 1.003907-.125 2.089843-.277344 4.78125-.816406 7.136719-2.542969 3.820312-2.804687 4.984374-7.292969 5.574218-10.890625 2.492188-15.203125 1.6875-31.121094.90625-46.519531-.25-4.941407-.507812-10.054688-.636718-14.941407l-.300782-11.175781c-.453125-16.789062-.90625-33.582031-1.347656-50.371093-.050781-1.925782-.117188-4.566407-1.425781-7.125-2.054688-4.03125-6.050781-5.804688-8.875-6.785157-5.953125-2.074219-12.121094-2.804687-17.4375-3.328125-19.546875-1.917968-39.128907-1.871094-57.511719-1.65625-3.273438.035156-6.546875.066406-9.820312.101563-16.296876.15625-33.152344.316406-49.726563 1.269531-2.683594.152344-6.742187.386719-10.183594 2.734375-3.761719 2.574219-5.433593 6.585937-6.679687 10.539063-5.300782 16.851562-5.984375 34.1875-6.648438 50.957031-.230468 5.851562-.46875 11.90625-.902344 17.808593-.257812 3.507813-.601562 7.105469-.933593 10.582032-1.027344 10.714844-2.085938 21.796875-.972657 32.941406 1.253907 12.550781 4.972657 25.59375 23.042969 27.164062 21.691407 1.882813 44.46875 2.953126 67.707031 3.179688zm-80.761718-31.339844c-1.015625-10.167968-.046875-20.28125.976562-30.984375.335938-3.535156.6875-7.1875.953125-10.800781.445313-6.078125.6875-12.214844.925781-18.15625.664063-16.847656 1.292969-32.765625 6.191407-48.335938.703125-2.230468 1.523437-4.414062 2.765625-5.261718 1.136718-.777344 3.425781-.910156 5.09375-1.003906 16.335937-.9375 33.066406-1.097657 49.246094-1.253907 3.28125-.03125 6.5625-.0625 9.839843-.101562 4.8125-.054688 9.699219-.101563 14.644531-.101563 13.679688 0 27.785157.339844 41.769532 1.714844 4.742187.464844 10.210937 1.105469 15.121094 2.8125 2.503906.871094 3.097656 1.597656 3.234374 1.871094.273438.527344.304688 1.855468.332032 2.824218.4375 16.792969.890625 33.582032 1.34375 50.375l.300781 11.175782c.132813 5.007812.398437 10.179687.648437 15.179687.753907 14.871094 1.527344 30.246094-.785156 44.390625-.402344 2.441406-.941406 3.929688-1.609375 4.417969-.585937.429687-1.992187.617187-2.519531.6875-.277344.035156-.550781.070313-.820312.101563-19.894532 2.261718-40.703126 2.035156-60.824219 1.8125l-5.972657-.0625c-22.980468-.222657-45.496093-1.28125-66.933593-3.140626-9.246094-.804687-12.628907-5.214843-13.921875-18.160156zm0 0"/><path d="m74.085938 157.695312c1.480468 1.164063 3.117187 1.550782 3.90625 1.738282 2.941406.695312 5.949218 1.046875 8.96875 1.046875.773437 0 1.546874-.023438 2.320312-.070313 1.929688-.113281 4.1875-.40625 6.332031-1.726562 5.117188-3.140625 5.511719-9.414063 5.699219-12.425782.476562-7.582031 1.3125-15.1875 2.484375-22.726562.621094 1.570312 1.175781 3.289062 1.671875 5.15625.746094 2.820312 1.308594 5.679688 1.898438 8.707031.671874 3.4375 1.367187 6.988281 2.367187 10.507813.828125 2.925781 2.613281 4.125 3.964844 4.617187 1.445312.527344 2.703125.347657 3.238281.273438l34.621094-4.855469c2.703125-.378906 6.785156-.953125 9.84375-3.988281 4.132812-4.101563 3.804687-10.0625 3.628906-13.261719l-3.777344-68.871094c-.128906-2.273437-.335937-6.085937-3.152344-8.972656-2.734374-2.804688-6.457031-3.179688-8.460937-3.378906-5.339844-.535156-10.773437-.789063-16.140625-.769532-.695312.003907-1.980469.011719-3.378906.628907-1.722656.765625-4.570313 2.886719-4.277344 8.492187.601562 11.648438.585938 23.402344-.046875 35.085938-6.300781-9.722656-11.652344-20.042969-15.976563-30.816406-.441406-1.089844-1.464843-3.640626-4.191406-4.855469-1.914062-.855469-3.753906-.609375-4.632812-.492188l-21.015625 2.820313c-.699219.09375-1.871094.25-3.097657.875-4.179687 2.121094-4.433593 6.859375-4.519531 8.421875-.757812 14.128906-1.542969 28.742187-1.882812 43.222656-.1875 8.007813-.226563 15.230469-.121094 22.082031.027344 1.699219-.097656 3.417969-.230469 5.238282-.292968 4.007812-.621094 8.550781.832032 13.316406.472656 1.546875 1.253906 3.511718 3.125 4.980468zm6.054687-17.566406c.144531-1.957031.289063-3.980468.257813-6.125-.105469-6.722656-.066407-13.816406.117187-21.691406.335937-14.332031 1.117187-28.863281 1.875-42.921875 0-.007813 0-.019531 0-.027344l18.535156-2.488281c6.328125 15.5 14.683594 30.097656 24.839844 43.40625 1.253906 1.640625 3.382813 2.347656 5.367187 1.78125 1.984376-.570312 3.421876-2.292969 3.621094-4.347656 1.558594-16.214844 1.957032-32.683594 1.1875-48.972656 4.234375.050781 8.5.289062 12.699219.710937 1.40625.140625 2.007813.292969 2.253906.40625.226563.527344.304688 2.003906.335938 2.507813l3.777343 68.867187c.074219 1.394531.253907 4.660156-.679687 5.589844-.683594.679687-2.863281.984375-4.164063 1.167969l-31.488281 4.414062c-.535156-2.246094-.984375-4.546875-1.457031-6.941406-.597656-3.054688-1.214844-6.214844-2.046875-9.355469-2.285156-8.621094-5.796875-14.972656-10.734375-19.417969-1.335938-1.203125-3.210938-1.601562-4.925781-1.039062-1.707031.558594-2.984375 1.988281-3.351563 3.75-2.464844 11.90625-4.101562 24.09375-4.867187 36.21875-.246094 3.894531-.820313 4.4375-.929688 4.503906-.09375.054688-.453125.191406-1.679687.261719-2.734375.164062-5.472656-.0625-8.140625-.667969-.886719-2.953125-.660157-6.03125-.402344-9.589844zm0 0"/><path d="m319.128906 145.152344c4.316406 3.042968 9.488282 5.351562 15.378906 6.855468 4.847657 1.238282 9.8125 1.859376 14.824219 1.859376 1.847657 0 3.703125-.085938 5.558594-.253907 6.613281-.605469 12.046875-2.214843 16.613281-4.925781 6.726563-3.992188 11.355469-10.40625 14.636719-15.542969 5.246094-8.222656 8.710937-15.824219 10.578125-23.234375 2.355469-9.332031 2.171875-18.503906-.527344-26.527344-4.285156-12.734374-14.835937-22.207031-28.949218-25.992187-11.597657-3.113281-19.796876-2.214844-31.347657 3.429687-7.242187 3.542969-13.539062 8.054688-18.71875 13.414063-9.597656 9.9375-15.191406 22.9375-15.34375 35.671875-.171875 14.089844 6.457031 27.59375 17.296875 35.246094zm5.269532-63.941406c4.363281-4.519532 9.714843-8.34375 15.90625-11.371094 9.394531-4.59375 15.082031-5.238282 24.335937-2.753906 10.96875 2.945312 18.792969 9.867187 22.035156 19.5 2.085938 6.191406 2.191407 13.410156.3125 20.867187-1.605469 6.351563-4.648437 12.988281-9.308593 20.289063-2.851563 4.464843-6.421876 9.417968-11.300782 12.3125-3.25 1.929687-7.308594 3.097656-12.398437 3.5625-5.746094.523437-11.460938.074218-16.988281-1.335938-4.699219-1.199219-8.761719-2.996094-12.074219-5.332031-8.179688-5.769531-13.175781-16.085938-13.046875-26.921875.121094-10.199219 4.6875-20.703125 12.527344-28.816406zm0 0"/><path d="m336.78125 122.316406c1.917969 1.351563 4.1875 2.371094 6.746094 3.023438 2.054687.523437 4.160156.789062 6.28125.789062.78125 0 1.566406-.035156 2.351562-.109375 2.929688-.265625 5.378906-1.003906 7.484375-2.253906 3.070313-1.820313 5.078125-4.582031 6.480469-6.785156 2.132812-3.339844 3.546875-6.460938 4.328125-9.546875 1.019531-4.050782.929687-8.070313-.265625-11.621094-1.933594-5.742188-6.640625-10.003906-12.914062-11.683594-5.019532-1.347656-8.898438-.933594-13.835938 1.484375-3.019531 1.476563-5.652344 3.367188-7.828125 5.617188v.003906c-4.117187 4.257813-6.515625 9.867187-6.582031 15.386719-.074219 6.253906 2.898437 12.265625 7.753906 15.695312zm6.046875-24.109375c1.363281-1.410156 3.050781-2.613281 5.019531-3.574219 2.804688-1.371093 4.140625-1.53125 6.824219-.808593 1.746094.46875 4.847656 1.765625 6 5.191406.734375 2.175781.429687 4.445313.046875 5.960937-.511719 2.023438-1.507812 4.183594-3.050781 6.601563-.808594 1.265625-1.894531 2.8125-3.144531 3.554687-.78125.464844-1.886719.761719-3.277344.890626-1.769532.160156-3.53125.023437-5.230469-.410157-1.371094-.351562-2.527344-.855469-3.441406-1.5-2.164063-1.527343-3.539063-4.421875-3.503907-7.371093.035157-2.984376 1.40625-6.097657 3.757813-8.535157zm0 0"/><path d="m186.984375 327.792969c-5.886719-2.300781-12.089844-1.539063-17.070313-.925781l-16.128906 1.988281c-.078125.007812-.171875.019531-.269531.03125-.101563-.277344-.230469-.6875-.363281-1.285157-.433594-1.929687-.792969-3.894531-1.070313-5.867187 2.960938.3125 5.917969.785156 8.820313 1.417969l.488281.105468c2.703125.597657 6.070313 1.335938 9.609375.382813 3.878906-1.046875 7.273438-4.027344 9.308594-8.179687 1.570312-3.207032 2.152344-6.5625 2.667968-9.523438.449219-2.59375 1.507813-8.671875-2.851562-12.667969-4.5625-4.1875-10.574219-2.324219-14.164062-1.210937-3.589844 1.117187-7.316407 1.804687-11.074219 2.046875-.179688.011719-.328125.019531-.449219.023437-.03125-.0625-.066406-.132812-.105469-.207031-1.253906-2.539063-2.078125-5.25-2.453125-8.058594-.347656-2.578125.214844-4.28125.628906-4.507812.71875-.394531 3.183594.347656 4.65625.789062l.292969.089844c5.464844 1.644531 11.132813 2.570313 16.839844 2.753906 2.199219.070313 4.566406.015625 6.953125-.886719 4.003906-1.511718 7.144531-5.082031 9.074219-10.320312.511719-1.386719 4.855469-13.785156.039062-21.578125-1.925781-3.117187-4.953125-4.988281-8.753906-5.410156-11.78125-1.316407-24.109375-.863281-34.742187-.335938-7.121094.351563-13.578126 1.027344-19.738282 2.0625h-.003906c-4.570312.773438-9.675781 2.140625-12.855469 6.457031-2.382812 3.230469-2.828125 6.980469-3.066406 10.246094-.714844 10.023438-.378906 20.101563-.058594 29.847656l1.613281 48.644532c.066407 1.90625.171876 5.09375 2.269532 7.769531 1.800781 2.296875 4.269531 3.261719 6.449218 3.90625 6.566407 1.9375 13.441407 2.503906 19.375 2.878906 8.273438.523438 16.617188.785157 24.953126.785157 5.480468 0 10.957031-.113282 16.402343-.339844 1.171875-.050782 3.351563-.140625 5.332031-1.605469 2.445313-1.804687 3.050782-4.578125 3.304688-5.765625 1.019531-4.675781 1.660156-9.476562 1.910156-14.269531.0625-1.167969.1875-3.59375-1.257812-5.839844-1.292969-2.011719-3.195313-2.929687-4.511719-3.441406zm-5.839844 20.917969c-13.167969.527343-26.503906.371093-39.65625-.460938-5.632812-.355469-11.597656-.84375-17.164062-2.484375-.804688-.238281-1.1875-.402344-1.367188-.5-.117187-.457031-.148437-1.433594-.164062-1.878906l-1.613281-48.648438c-.3125-9.488281-.640626-19.296875.039062-28.796875.132812-1.859375.34375-3.933594 1.132812-5.003906 1.058594-1.4375 3.851563-2.078125 6.441407-2.515625 5.773437-.96875 11.847656-1.605469 18.570312-1.9375 10.242188-.507813 22.09375-.945313 33.132813.285156.882812.097657 1.125.378907 1.328125.710938 1.292969 2.09375.871093 7.96875-.921875 12.832031-.867188 2.355469-2.03125 3.957031-3.199219 4.398438-.742187.277343-1.917969.28125-3.082031.246093-4.835938-.15625-9.640625-.945312-14.277344-2.335937l-.285156-.085938c-3.367188-1.015625-7.976563-2.402344-12.386719.023438-4.496094 2.472656-6.640625 7.949218-5.746094 14.644531.523438 3.886719 1.667969 7.644531 3.40625 11.160156.460938.9375 1.542969 3.128907 3.777344 4.5 2.472656 1.519531 5.140625 1.34375 6.425781 1.261719 4.546875-.292969 9.054688-1.128906 13.402344-2.476562.960938-.296876 3.417969-1.054688 4.363281-.929688.089844.351562.171875 1.273438-.214843 3.503906-.4375 2.523438-.851563 4.902344-1.792969 6.820313-.738281 1.507812-1.851563 2.621093-2.902344 2.90625-1.171875.316406-2.953125-.078125-4.84375-.492188l-.507813-.113281c-4.152343-.902344-8.40625-1.519531-12.640624-1.835938-3.445313-.253906-5.96875.765626-7.511719 3.039063-1.464844 2.152344-1.230469 4.453125-1.128907 5.433594.335938 3.296875.875 6.605469 1.601563 9.828125.386719 1.730468 1.570313 6.992187 6.503906 8.695312 2.035157.699219 3.90625.472656 5.144531.316406l16.132813-1.984374c3.828125-.472657 8.132813-1 11.570313.089843-.226563 3.953125-.753907 7.914063-1.566407 11.785157zm0 0"/><path d="m446.820312 323.027344c-2.277343-3.46875-6.421874-3.800782-7.785156-3.910156-7.945312-.636719-15.777344.242187-23.34375 1.09375-4.253906.480468-8.304687.9375-12.355468 1.140624 2.234374-12.914062 2.875-26.042968 3.496093-38.757812l.847657-17.335938c.136718-2.765624.417968-8.515624-3.640626-12.285156-2.480468-2.300781-5.6875-2.921875-7.410156-3.257812-.5625-.109375-1.210937-.242188-1.925781-.390625-9.742187-2.015625-20.703125-3.789063-27.449219.695312-2.695312 1.792969-4.453125 4.429688-5.078125 7.636719-.726562 3.703125-.59375 7.488281-.464843 11.148438.058593 1.71875.117187 3.339843.078124 4.839843-.179687 6.824219-.480468 13.75-.886718 20.578125-.457032 7.601563-1.058594 15.304688-1.796875 22.894532-.121094 1.253906-.246094 2.511718-.375 3.765624-.800781 7.96875-1.625 16.207032-1.453125 24.488282.027344 1.332031.082031 4.105468 1.996094 6.414062 2.253906 2.726563 5.558593 3.054688 7.144531 3.210938 20.40625 2.023437 41.089843 3.046875 61.644531 3.046875 3.488281 0 6.976562-.03125 10.453125-.089844 1.304687-.023437 4.765625-.082031 7.011719-2.921875 1.25-1.582031 1.519531-3.351562 1.644531-4.203125 1.152344-7.535156 1.507813-15.21875 1.0625-22.824219-.0625-1.078125-.179687-3.082031-1.414063-4.976562zm-9.371093 24.902344c-23.292969.363281-46.855469-.625-70.039063-2.925782-.035156-.003906-.066406-.007812-.101562-.011718-.140625-7.621094.648437-15.492188 1.410156-23.105469.128906-1.269531.253906-2.535157.378906-3.800781.75-7.710938 1.363282-15.539063 1.824219-23.261719.417969-6.941407.71875-13.976563.902344-20.914063.046875-1.808594-.019531-3.664062-.082031-5.460937-.109376-3.089844-.21875-6.289063.285156-8.859375.113281-.582032.316406-.898438.785156-1.207032 3.824219-2.542968 15.472656-.132812 19.855469.777344.765625.15625 1.453125.300782 2.050781.414063.523438.101562 2.113281.410156 2.488281.761719.238281.21875.609375 1.085937.445313 4.433593l-.847656 17.335938c-.636719 13.066406-1.300782 26.578125-3.710938 39.488281-.238281 1.273438-.875 4.667969 1.515625 7.386719 2.296875 2.613281 5.542969 2.535156 6.769531 2.496093 5.226563-.136718 10.417969-.71875 15.433594-1.285156 7.425781-.835937 14.4375-1.625 21.417969-1.0625h.011719c.332031 6.265625.066406 12.582032-.792969 18.800782zm0 0"/></svg>