<svg height="511pt" viewBox="0 -55 511.99981 511" width="511pt" xmlns="http://www.w3.org/2000/svg"><path d="m160.996094 217.546875c-2.742188 0-4.464844-.320313-5.757813-1.078125l-.734375-.429688-.492187-.691406c-1.511719-2.105468-1.363281-5.070312.609375-12.203125.285156-1.011719.582031-2.089843.78125-3.003906 3.453125-16.125 7.433594-32.519531 11.828125-48.703125 0 0 .1875-.660156.246093-.851562l.738282-2.421876 2.503906-.367187c.355469-.050781.753906-.089844 1.003906-.105469 10.460938-.960937 21.667969-1.429687 34.269532-1.429687 16.574218 0 33.234374.8125 49.351562 1.59375l.109375.003906c16.285156.792969 33.039063 1.601563 49.664063 1.601563 6.625 0 12.722656-.125 18.640624-.382813.371094-.015625 1.003907-.042969 1.660157-.042969 1.898437 0 3.410156.195313 4.628906 1.152344 1.28125 1.035156 1.824219 2.53125 2.457031 4.535156l.050782.15625c5.195312 17.097656 9.601562 34.664063 13.117187 52.25.054687.25.097656.507813.128906.71875l.550781 3.855469-3.652343.621094-.203125.105469-.980469-.003907c-3.613281-.019531-7.25-.027343-10.921875-.027343-15.179688 0-30.777344.148437-47.679688.457031-35.703124.625-71.371093 1.863281-104.601562 3.105469-1.5.0625-3.449219.300781-6.035156.632812-2.714844.339844-7.59375.953125-11.28125.953125zm0 0" fill="#fff"/><path d="m351.070312 342.625c-32.417968-1.042969-65.21875-1.660156-97.492187-1.839844l-3.835937-.019531-.140626-3.835937c-1.398437-38.726563-1.902343-77.800782-1.492187-116.136719 0-.011719-.003906-.101563-.046875-.273438l-1.144531-4.703125-.808594 4.707032c-.019531.113281-.039063.222656-.042969.339843-.398437 38.285157.101563 77.261719 1.480469 115.75l.148437 4.15625-4.160156-.011719c-3.957031-.015624-7.917968-.019531-11.871094-.019531-24.308593 0-48.761718.242188-72.675781.71875l-4.097656.082031.019531-4.101562c.054688-12.40625-3.714844-24.503906-10.625-34.058594-9.910156-13.71875-26.703125-22.582031-46.074218-24.320312-2.246094-.199219-4.511719-.300782-6.738282-.300782-16.828125 0-31.96875 5.652344-42.628906 15.921876-8.964844 8.621093-15.042969 20.410156-17.117188 33.199218l-.5 3.089844-3.285156.269531s-.300781.003907-.335937 0c-2.433594.242188-4.960938.367188-7.464844.367188-3.472656 0-6.992187-.242188-10.453125-.714844l-3.613281-.496094 2.445312-56.226562 4.695313 1.09375c2.550781.59375 5.15625.898437 7.742187.898437 7.308594 0 14.464844-2.304687 20.152344-6.484375 2.574219-1.894531 4.238281-3.742187 5.238281-5.804687 1.046875-2.140625 1.355469-4.488282 1.53125-6.710938.621094-7.429687.132813-14.863281-1.449218-22.109375-.164063-.714843-.273438-1.320312-.324219-1.808593l-.148438-1.488282.722657-1.023437 1.027343-2.070313 53.019531-2.636718c4.355469-.21875 9.261719-.46875 13.429688-2.8125 7.230469-4.054688 9.867188-12.925782 11.769531-20.925782l14.03125-58.832031c.65625-2.738281 1.457031-6.050781 3.632813-8.082031 2.167968-2.015625 5.398437-2.574219 8.796875-3.007813 48.375-6.242187 97.730469-9.40625 146.6875-9.40625 16.175781 0 32.539062.347657 48.632812 1.035157 2.570313.109374 4.820313.308593 6.410157 1.644531 1.328124 1.113281 1.96875 2.839843 2.667968 4.980469l20.667969 62.894531c2.078125 6.3125 4.425781 13.457031 10.054687 18.128906 6.175782 5.140625 15.109376 5.871094 21.632813 6.40625l55.839844 4.53125-1.796875 4.929687c-3.285156 9.011719-4.074219 19.015626-4.765625 27.84375-.210938 2.730469-.464844 6.050782 1 8.878907 2.019531 3.910156 6.6875 5.582031 10.027343 6.5 6.984376 1.929687 14.207032 2.90625 21.46875 2.90625 1.105469 0 2.261719-.023438 3.539063-.074219.191406-.011719.386719-.074219.546875-.195312l5.585938-4.152344.773437 6.917968c2.261719 20.207032 3.753906 40.367188 4.433594 59.925782l.140625 4.140625h-26.753906l-.058594-3.941407c-.183594-11.992187-3.953125-23.667968-10.613282-32.875-9.910156-13.71875-26.703124-22.582031-46.074218-24.320312-2.246094-.199219-4.515625-.304688-6.738282-.304688-16.828124 0-31.96875 5.65625-42.632812 15.921876-11.523438 11.101562-18.203125 27.5-17.863281 43.867187l.085937 4.214844zm-133.476562-86.886719c2.183594 0 4.382812.175781 6.542969.53125.105469.015625.140625.015625.171875.015625.414062 0 .902344-.296875.992187-.851562.058594-.355469-.0625-.613282-.175781-.769532-.109375-.15625-.316406-.355468-.664062-.410156-2.265626-.371094-4.578126-.554687-6.867188-.554687s-4.601562.183593-6.871094.554687c-.335937.054688-.542968.253906-.660156.414063-.109375.152343-.230469.410156-.175781.746093.089843.574219.574219.867188 1.003906.867188.058594 0 .117187-.003906.175781-.015625 2.144532-.351563 4.347656-.527344 6.527344-.527344zm59.203125-5.40625c-2.851563 0-5.738281.195313-8.570313.578125-.363281.050782-.582031.273438-.679687.398438-.113281.152344-.242187.402344-.195313.738281.070313.519531.5.898437 1 .898437.054688 0 .109376-.007812.164063-.015624 2.742187-.367188 5.539063-.554688 8.300781-.554688 2.574219 0 5.167969.160156 7.707032.484375.042968.003906.089843.007813.132812.007813.507812 0 .941406-.390626 1.003906-.90625.042969-.34375-.085937-.59375-.203125-.746094-.117187-.148438-.328125-.335938-.667969-.378906-2.644531-.335938-5.328124-.503907-7.992187-.503907zm-70.78125-106.113281c-12.679687 0-23.972656.472656-34.53125 1.441406-1.167969.109375-2.921875.277344-4.1875 1.34375-1.269531 1.070313-1.714844 2.707032-2.039063 3.902344-4.335937 15.964844-8.328124 32.394531-11.859374 48.828125-.144532.6875-.378907 1.53125-.625 2.425781l-.097657.355469c-2.183593 7.828125-2.695312 13.171875 1.480469 15.679687 1.546875.929688 3.882812 1.378907 7.152344 1.378907 3.03125 0 6.539062-.367188 11.21875-.957031 2.539062-.328126 4.453125-.566407 5.855468-.617188 23.394532-.871094 43.171876-1.570312 63.671876-2.152344l4.839843-.136718 4.949219-.132813c10.203125-.269531 20.664062-.5 31.101562-.691406 17.175782-.304688 33.015626-.453125 48.4375-.453125 3.402344 0 6.773438.007812 10.121094.023437h.351563c1.71875 0 3.652343-.1875 4.945312-1.578125 1.535157-1.65625 1.269531-4.144531.867188-6.125-3.503907-17.605468-7.929688-35.234375-13.15625-52.414062-.550781-1.800782-1.292969-4.238282-3.191407-5.734375-1.390624-1.101563-3.269531-1.613281-5.910156-1.613281-.636718 0-1.222656.027343-1.734375.046874-5.886719.257813-11.945312.382813-18.535156.382813-16.597656 0-33.320313-.8125-49.492187-1.597656l-.105469-.003907c-16.152344-.785156-32.859375-1.601562-49.527344-1.601562zm0 0" fill="#5bd0fc"/><path d="m494.78125 271.617188c-.144531-.0625-.285156-.09375-.417969-.09375-1.152343.046874-2.308593.074218-3.453125.074218-7.066406 0-14.105468-.953125-20.925781-2.835937-4.777344-1.316407-7.480469-3.003907-8.753906-5.464844-1.203125-2.332031-.96875-5.332031-.777344-7.742187.792969-10.175782 1.617187-20.695313 5.785156-30.179688l1.144531-2.605469 17.050782 1.378907c3.320312.261718 6.472656.667968 8.4375 2.726562 1.683594 1.757812 2.160156 4.5 2.542968 6.699219l.019532.121093c1.800781 10.722657 3.453125 22.082032 4.902344 33.757813l.867187 6.945313zm0 0" fill="#f9d889"/><path d="m416.828125 395.457031c-2.9375 0-5.894531-.214843-8.789063-.632812-7.824218-1.132813-15.503906-3.832031-22.207031-7.808594-15.15625-9.003906-25.957031-25.359375-28.1875-42.6875-2.257812-17.542969 4.191407-36.003906 16.832031-48.183594 10.125-9.746093 25.234376-15.335937 41.457032-15.335937 2.09375 0 4.222656.097656 6.320312.285156 18.515625 1.664062 35.183594 10.441406 44.597656 23.480469 10.140626 14.023437 13.023438 33.160156 7.519532 49.9375-5.417969 16.53125-18.535156 30.261719-35.09375 36.730469-7.183594 2.796874-14.734375 4.214843-22.449219 4.214843zm-.371094-85.664062c-8.011719 0-15.226562 2.703125-20.324219 7.605469-6.246093 6.019531-9.4375 15.148437-8.324218 23.820312 1.121094 8.6875 6.328125 16.574219 13.925781 21.089844 3.316406 1.960937 7.101563 3.296875 10.9375 3.847656 1.449219.207031 2.910156.308594 4.328125.308594 3.8125 0 7.53125-.695313 11.054688-2.074219 8.167968-3.191406 14.640624-9.964844 17.3125-18.121094 2.722656-8.304687 1.292968-17.78125-3.726563-24.730469-4.730469-6.542968-12.734375-10.769531-21.96875-11.597656-1.074219-.097656-2.15625-.148437-3.214844-.148437zm0 0" fill="#939baa"/><path d="m417.007812 364.425781c-1.347656 0-2.710937-.097656-4.039062-.289062-3.601562-.515625-7.132812-1.757813-10.210938-3.597657-6.945312-4.117187-11.902343-11.621093-12.925781-19.582031-1.039062-8.042969 1.914063-16.507812 7.710938-22.089843 4.648437-4.46875 11.578125-7.03125 19.015625-7.03125.96875 0 1.960937.046874 2.945312.136718 8.5.761719 16.15625 4.785156 20.476563 10.761719 4.648437 6.429687 5.96875 15.207031 3.449219 22.898437-2.453126 7.480469-8.628907 13.941407-16.117188 16.859376-3.296875 1.285156-6.765625 1.933593-10.304688 1.933593zm0 0" fill="#5b5d6d"/><path d="m251.765625 64.242188c-5.367187 0-11.273437-1.675782-17.546875-4.976563-6.339844-3.34375-10.644531-7.089844-13.164062-11.449219-4.964844-8.605468-2.800782-21.308594 5.035156-29.558594 6.863281-7.226562 17.824218-11.714843 28.609375-11.714843.464843 0 .933593.007812 1.398437.023437 9.222656.332032 17.160156 3.992188 22.34375 10.308594 5.445313 6.636719 7.078125 16.488281 4.0625 24.515625-1.683594 4.503906-4.753906 8.792969-9.386718 13.101563-5.859376 5.449218-11.863282 8.644531-17.847657 9.503906-1.136719.164062-2.316406.246094-3.503906.246094zm0 0" fill="#288fc9"/><path d="m245.222656 117.941406c.222656-16.257812.78125-32.378906 1.652344-47.921875l.214844-3.773437h3.78125c.214844 0 .429687.007812.648437.019531.082031.003906.164063.011719.25.011719 1.300781 0 2.570313-.089844 3.777344-.269532.394531-.050781.757813-.105468 1.113281-.179687l5.59375-1.144531-.839844 5.648437c-.003906.050781-.015624.101563-.015624.152344.5 15.410156 2.308593 30.96875 5.371093 46.214844l.933594 4.640625-4.730469.144531c-4.5.136719-9.070312.308594-13.578125.507813l-4.234375.1875zm0 0" fill="#939baa"/><path d="m92.605469 395.457031c-2.933594 0-5.890625-.214843-8.785157-.632812-7.828124-1.132813-15.503906-3.832031-22.210937-7.808594-15.152344-9.003906-25.953125-25.359375-28.1875-42.6875-2.257813-17.542969 4.191406-36.003906 16.832031-48.183594 10.125-9.746093 25.238282-15.335937 41.457032-15.335937 2.097656 0 4.226562.097656 6.324218.285156 18.507813 1.664062 35.183594 10.441406 44.605469 23.480469 10.132813 14.027343 13.011719 33.164062 7.507813 49.9375-5.414063 16.53125-18.535157 30.261719-35.09375 36.730469-7.179688 2.796874-14.730469 4.214843-22.449219 4.214843zm-.371094-85.664062c-8.015625 0-15.230469 2.703125-20.320313 7.601562-6.25 6.023438-9.4375 15.152344-8.328124 23.824219 1.125 8.6875 6.328124 16.574219 13.925781 21.089844 3.320312 1.964844 7.101562 3.296875 10.9375 3.847656 1.449219.207031 2.910156.308594 4.328125.308594 3.8125 0 7.53125-.695313 11.054687-2.074219 8.171875-3.191406 14.644531-9.964844 17.316407-18.121094 2.71875-8.308593 1.289062-17.785156-3.730469-24.730469-4.726563-6.542968-12.734375-10.773437-21.964844-11.597656-1.074219-.097656-2.15625-.148437-3.21875-.148437zm0 0" fill="#939baa"/><path d="m92.789062 364.425781c-1.351562 0-2.710937-.097656-4.042968-.289062-3.597656-.515625-7.128906-1.757813-10.207032-3.597657-6.945312-4.117187-11.902343-11.621093-12.925781-19.582031-1.039062-8.046875 1.917969-16.511719 7.722657-22.09375 2.351562-2.269531 5.253906-4.035156 8.617187-5.25 3.230469-1.175781 6.730469-1.777343 10.386719-1.777343.96875 0 1.960937.046874 2.945312.136718 8.5.761719 16.15625 4.785156 20.476563 10.761719 4.648437 6.429687 5.972656 15.207031 3.449219 22.898437-2.453126 7.480469-8.628907 13.941407-16.117188 16.859376-3.300781 1.285156-6.765625 1.933593-10.304688 1.933593zm0 0" fill="#5b5d6d"/><path d="m20.925781 274.074219c-3.21875 0-6.359375-.460938-9.335937-1.375l-2.960938-.90625 1.535156-35.308594c.078126-1.828125.246094-2.609375.382813-3.085937l.566406-1.96875 1.925781-.6875c.585938-.210938 1.472657-.4375 3.640626-.539063l27.230468-1.363281.148438 4.050781c.039062 1.066406.257812 2.046875.375 2.574219 1.542968 7.109375 2.019531 14.339844 1.421875 21.515625-.175781 2.054687-.457031 4.195312-1.332031 5.988281-.859376 1.753906-2.375 3.40625-4.632813 5.070312-5.296875 3.890626-12.03125 6.035157-18.964844 6.035157zm0 0" fill="#f9d889"/><path d="m95.8125 305.953125c-10.339844-.929687-20.058594 2.195313-26.671875 8.5625-7.144531 6.878906-10.792969 17.308594-9.519531 27.214844 1.273437 9.902343 7.199218 18.878906 15.84375 24.011719 3.753906 2.226562 8.046875 3.738281 12.414062 4.371093 1.628906.234375 3.269532.351563 4.90625.351563 4.261719 0 8.515625-.792969 12.503906-2.351563 9.269532-3.617187 16.617188-11.320312 19.660157-20.601562 3.109375-9.5 1.46875-20.347657-4.289063-28.3125-5.414062-7.488281-14.46875-12.316407-24.847656-13.246094zm19.59375 38.433594c-2.085938 6.367187-7.359375 11.875-13.765625 14.375-3.910156 1.527343-8.167969 2.015625-12.324219 1.414062-3.078125-.445312-6.09375-1.503906-8.726562-3.066406-5.921875-3.515625-10.140625-9.898437-11.011719-16.660156-.875-6.816407 1.625-13.984375 6.527344-18.703125 3.925781-3.777344 9.859375-5.910156 16.234375-5.910156.851562 0 1.710937.039062 2.574218.117187 7.375.660156 13.953126 4.070313 17.609376 9.125 3.910156 5.410156 5.015624 12.808594 2.882812 19.308594zm0 0"/><path d="m420.03125 305.953125c-10.34375-.929687-20.054688 2.195313-26.667969 8.5625-7.148437 6.878906-10.792969 17.308594-9.519531 27.214844 1.273438 9.902343 7.195312 18.878906 15.84375 24.011719 3.75 2.230468 8.042969 3.742187 12.414062 4.371093 1.625.234375 3.265626.351563 4.902344.351563 4.265625 0 8.515625-.792969 12.507813-2.347656 9.265625-3.621094 16.613281-11.320313 19.65625-20.605469 3.113281-9.496094 1.46875-20.347657-4.289063-28.3125-5.410156-7.488281-14.46875-12.316407-24.847656-13.246094zm19.597656 38.433594c-2.085937 6.367187-7.363281 11.875-13.769531 14.375-3.910156 1.527343-8.167969 2.015625-12.324219 1.414062-3.078125-.445312-6.09375-1.503906-8.726562-3.066406-5.921875-3.515625-10.140625-9.898437-11.011719-16.660156-.875-6.816407 1.625-13.984375 6.527344-18.703125 3.925781-3.777344 9.859375-5.910156 16.234375-5.910156.851562 0 1.714844.039062 2.578125.117187 7.371093.660156 13.949219 4.070313 17.605469 9.125 3.910156 5.410156 5.015624 12.808594 2.886718 19.308594zm0 0"/><path d="m501.386719 232.6875c-.464844-2.738281-1.160157-6.875-4.164063-10.007812-3.703125-3.851563-9.085937-4.289063-12.300781-4.550782l-75.234375-6.101562c-7.433594-.601563-13.945312-1.398438-18.316406-5.03125-3.980469-3.308594-5.976563-8.6875-8.171875-15.375l-20.667969-62.898438c-.710938-2.15625-1.78125-5.410156-4.527344-7.71875-3.289062-2.761718-7.511718-2.945312-10.03125-3.050781-24.917968-1.0625-49.933594-1.304687-74.945312-.738281-3.199219-15.425782-5.082032-31.222656-5.589844-46.96875-.042969-1.332032-.609375-2.515625-1.488281-3.382813 3.832031-1.878906 7.601562-4.53125 11.277343-7.945312 5.328126-4.949219 8.902344-9.992188 10.933594-15.410157 3.800782-10.136718 1.816406-22.097656-5.050781-30.46875-6.296875-7.671874-15.8125-12.113281-26.792969-12.511718-12.96875-.4609378-26.214844 4.734375-34.609375 13.574218-9.753906 10.277344-12.226562 25.726563-5.878906 36.730469 3.105469 5.386719 8.199219 9.890625 15.578125 13.773438 3.261719 1.714843 6.449219 3.023437 9.558594 3.960937-.035156.195313-.082032.390625-.09375.597656-.921875 16.34375-1.480469 32.90625-1.703125 49.3125-29.304688 1.519532-58.546875 4.148438-87.550781 7.890626-3.339844.429687-8.378907 1.082031-12.132813 4.570312-3.535156 3.289062-4.613281 7.808594-5.398437 11.109375l-14.027344 58.828125c-1.6875 7.066406-3.757813 14.207031-8.851563 17.066406-2.941406 1.648438-6.925781 1.847656-10.773437 2.039063l-84.0625 4.183593c-2.28125.113282-6.527344.328126-9.457032 3.570313-2.53125 2.808594-2.6875 6.359375-2.777343 8.480469l-4.13281275 94.703125c-.10546825 2.476562 1.60937475 4.660156 4.03906275 5.140625 7.546875 1.5 15.246093 1.921875 22.910156 1.289062 0 2.585938.152344 5.175782.480469 7.746094 2.460937 19.132812 14.375 37.183594 31.097656 47.109375 7.375 4.382813 15.820312 7.355469 24.417969 8.597656 3.207031.464844 6.4375.695313 9.660156.695313 8.402344 0 16.777344-1.5625 24.636719-4.632813 18.226562-7.113281 32.675781-22.242187 38.648437-40.46875.953125-2.90625 1.648438-5.882812 2.152344-8.886719 64.058594-1.292968 128.984375-.90625 193.007813 1.160157h.164062c.339844 0 .671875-.03125.992188-.097657 3.371093 17.820313 14.835937 34.3125 30.539062 43.632813 7.378906 4.382813 15.820312 7.355469 24.417969 8.597656 3.207031.464844 6.4375.695313 9.660156.695313 8.402344 0 16.777344-1.5625 24.640625-4.632813 18.222656-7.113281 32.671875-22.242187 38.644531-40.46875 1.085938-3.316406 1.863281-6.71875 2.363281-10.15625h24.503907c1.355469 0 2.652343-.546875 3.597656-1.523437.945313-.972656 1.457031-2.285156 1.417969-3.636719-1.019532-36.207031-4.589844-72.675781-10.609375-108.390625zm-11.40625-3.054688c.859375.898438 1.230469 3.109376 1.503906 4.726563 1.878906 11.128906 3.488281 22.335937 4.878906 33.585937-.667969-.289062-1.40625-.449218-2.183593-.417968-7.808594.339844-15.589844-.542969-23.125-2.621094-3.527344-.972656-5.578126-2.101562-6.273438-3.445312-.675781-1.308594-.488281-3.683594-.339844-5.597657.765625-9.847656 1.570313-20.027343 5.453125-28.878906l14.214844 1.152344c1.914063.152343 4.804687.390625 5.871094 1.496093zm-265.457031-183.8125c-4.113282-7.128906-2.191407-17.792968 4.464843-24.804687 6.371094-6.710937 16.945313-10.824219 26.964844-10.453125 8.0625.292969 14.949219 3.433594 19.394531 8.851562 4.566406 5.5625 5.9375 13.832032 3.414063 20.574219-1.472657 3.925781-4.210938 7.714844-8.367188 11.578125-5.25 4.878906-10.53125 7.726563-15.691406 8.46875-5.441406.78125-11.703125-.671875-18.621094-4.3125-5.648437-2.972656-9.429687-6.210937-11.558593-9.902344zm26.34375 24.421876c.300781.007812.609374.035156.90625.035156 1.476562 0 2.925781-.101563 4.351562-.308594.445312-.0625.890625-.136719 1.332031-.21875-.035156.269531-.0625.542969-.054687.824219.507812 15.71875 2.347656 31.488281 5.445312 46.914062-4.546875.144531-9.089844.3125-13.632812.507813.222656-15.894532.769531-31.921875 1.652344-47.753906zm-236.476563 164.261718c.394531-.144531 1.222656-.246094 2.476563-.308594l23.191406-1.15625c.046875 1.351563.300781 2.535157.46875 3.296876 1.457031 6.671874 1.90625 13.503906 1.339844 20.304687-.136719 1.660156-.34375 3.359375-.9375 4.578125-.558594 1.140625-1.671876 2.316406-3.40625 3.59375-6.910157 5.085938-16.535157 6.589844-24.765626 4.066406l1.40625-32.222656c.019532-.464844.070313-1.632812.226563-2.152344zm131.960937 118.765625c-5.046874 15.40625-17.292968 28.207031-32.753906 34.242188-9.265625 3.617187-19.363281 4.777343-29.210937 3.355469-7.304688-1.058594-14.476563-3.578126-20.734375-7.292969-14.125-8.386719-24.1875-23.621094-26.261719-39.757813-2.097656-16.320312 3.894531-33.480468 15.636719-44.785156 10.679687-10.28125 27.375-15.496094 44.648437-13.953125 17.363281 1.554687 32.960938 9.71875 41.71875 21.835937 9.398438 13.007813 12.066407 30.769532 6.957031 46.355469zm324.222657 0c-5.050781 15.40625-17.292969 28.207031-32.757813 34.242188-9.265625 3.617187-19.363281 4.777343-29.210937 3.355469-7.304688-1.058594-14.476563-3.578126-20.730469-7.292969-14.125-8.386719-24.1875-23.621094-26.261719-39.757813-2.097656-16.320312 3.894531-33.480468 15.636719-44.785156 10.679688-10.28125 27.371094-15.496094 44.644531-13.953125 17.367188 1.554687 32.964844 9.71875 41.71875 21.835937 9.402344 13.007813 12.066407 30.769532 6.960938 46.355469zm12.542969-17.070312c-.183594-12.59375-4.070313-25.070313-11.367188-35.164063-10.589844-14.660156-28.4375-24.117187-48.960938-25.957031-20.429687-1.828125-39.566406 4.265625-52.503906 16.71875-12.4375 11.980469-19.441406 29.457031-19.089844 46.832031-32.378906-1.042968-64.988281-1.660156-97.597656-1.84375-1.386718-38.484375-1.894531-77.476562-1.488281-115.953125.007813-.433593-.0625-.847656-.160156-1.25 10.292969-.269531 20.667969-.507812 31.074219-.691406 20.871093-.371094 39.996093-.511719 58.46875-.429687 1.816406.007812 5.5625.027343 8.238281-2.851563 3.121093-3.363281 2.207031-7.933594 1.863281-9.65625-3.539062-17.726563-7.996094-35.484375-13.25-52.777344-.617188-2.027343-1.652344-5.425781-4.542969-7.710937-3.4375-2.714844-7.742187-2.527344-10.308593-2.414063-22.484376.980469-45.496094-.140625-67.75-1.222656-27.714844-1.351563-56.378907-2.742187-84.625-.148437-1.453126.132812-4.164063.382812-6.398438 2.265624-2.21875 1.871094-2.90625 4.398438-3.316406 5.910157-4.390625 16.160156-8.398438 32.660156-11.90625 49.039062-.144532.664063-.402344 1.585938-.675782 2.5625-1.515624 5.449219-4.34375 15.585938 3.277344 20.167969 2.386719 1.433594 5.5 1.949219 9.207032 1.949219 3.433593 0 7.375-.441407 11.722656-.992188 2.171875-.273437 4.226562-.535156 5.511718-.582031 20.433594-.765625 41.8125-1.527344 63.632813-2.152344-.054687.289063-.09375.578125-.097656.878906-.40625 38.503907.09375 77.519532 1.476562 116.03125-28.277343-.085937-56.539062.136719-84.640625.695313.066406-13.015625-3.839844-25.988281-11.375-36.417969-10.59375-14.65625-28.4375-24.117187-48.960937-25.953125-20.429688-1.832031-39.574219 4.261719-52.507813 16.714844-9.710937 9.351563-16.113281 22.054687-18.289062 35.441406-.117188.003907-.230469-.011719-.347656 0-5.734376.578125-11.503907.472657-17.203126-.3125l2.082032-47.765625c2.835937.660156 5.738281.996094 8.644531.996094 8.011719 0 16.027344-2.476562 22.523437-7.257812 3.113282-2.292969 5.171876-4.605469 6.476563-7.277344 1.320313-2.707032 1.703125-5.515625 1.921875-8.144532.648438-7.800781.128906-15.632812-1.539062-23.28125-.132813-.605468-.214844-1.058593-.246094-1.359374.066406-.097657.105468-.203126.164062-.300782l50.675782-2.523437c4.539062-.226563 10.1875-.507813 15.1875-3.3125 8.628906-4.84375 11.597656-14.664063 13.703124-23.492188l14.027344-58.828125c.515625-2.167968 1.160156-4.867187 2.472656-6.085937 1.285157-1.199219 3.84375-1.613281 6.574219-1.964844 64.339844-8.304687 129.828125-11.109375 194.644531-8.34375 1.164063.046875 3.332032.140625 4.003907.707031.5625.46875 1.09375 2.089844 1.445312 3.164063l20.667969 62.898437c2.128906 6.484375 4.78125 14.546875 11.296875 19.964844 7.167969 5.957031 16.851563 6.742188 23.921875 7.316406l50.550781 4.097656c-3.476562 9.546876-4.28125 19.789063-4.992187 28.949219-.238282 3.011719-.558594 7.136719 1.429687 10.988281 2.734375 5.289063 8.453125 7.390626 12.519531 8.511719 7.359376 2.03125 14.921876 3.054688 22.535157 3.050781 1.230469 0 2.464843-.023437 3.699219-.078124 1.039062-.046876 1.992187-.402344 2.769531-.980469 2.226562 19.828125 3.71875 39.753906 4.410156 59.621093zm-312.027344-183.714844c.046875-.167969.128906-.46875.210937-.730469.273438-.035156.578125-.0625.734375-.078125 27.542969-2.53125 55.847656-1.152343 83.21875.175781 22.484375 1.097657 45.730469 2.230469 68.675782 1.226563.859374-.039063 3.140624-.136719 3.648437.261719.421875.335937.957031 2.089844 1.160156 2.753906 5.160157 16.980469 9.539063 34.414062 13.011719 51.824219.035156.1875.066406.355469.09375.503906-.058594 0-.121094 0-.183594 0-.039062 0-.101562 0-.121094 0-18.550781-.082031-37.75.058594-58.695312.429687-35.957031.640626-71.5625 1.875-104.679688 3.113282-1.730468.066406-3.894531.339844-6.398437.65625-3.734375.472656-12.476563 1.582031-14.507813.394531-.890624-1.242187.710938-6.976563 1.234376-8.863281.316406-1.128906.613281-2.195313.820312-3.15625 3.472656-16.203125 7.433594-32.523438 11.777344-48.511719zm0 0"/><path d="m285.277344 246.863281c-5.839844-.734375-11.757813-.703125-17.59375.085938-2.746094.375-4.671875 2.902343-4.296875 5.648437.339843 2.519532 2.492187 4.347656 4.96875 4.347656.222656 0 .453125-.015624.679687-.046874 4.96875-.675782 10.011719-.699219 14.988282-.074219 2.757812.347656 5.261718-1.605469 5.605468-4.355469.347656-2.75-1.601562-5.257812-4.351562-5.605469zm0 0"/><path d="m211.695312 260.214844c3.914063-.636719 7.882813-.636719 11.792969.003906.273438.042969.546875.066406.816407.066406 2.417968 0 4.546874-1.75 4.949218-4.210937.445313-2.734375-1.410156-5.316407-4.144531-5.765625-4.984375-.8125-10.042969-.816406-15.027344 0-2.734375.445312-4.59375 3.023437-4.148437 5.761718.449218 2.734376 3.023437 4.589844 5.761718 4.144532zm0 0"/></svg>