<svg height="512pt" viewBox="-28 0 512 512.00074" width="512pt" xmlns="http://www.w3.org/2000/svg"><path d="m384.933594 406.378906c-.429688-22.355468-1.050782-45.480468-1.839844-68.742187l-.082031-2.402344 63.828125-36.710937 3.703125 58.746093c.253906 4.140625.539062 8.757813-1.355469 12.585938-1.839844 3.703125-5.308594 6.117187-9.65625 8.886719l-54.460938 34.769531zm0 0" fill="#59bd8b"/><path d="m382.703125 326.289062c-.863281-23.546874-1.960937-48.011718-3.265625-72.707031l-.132812-2.523437 2.222656-1.203125c18.210937-9.863281 36.636718-19.664063 54.773437-29.140625l5.457031-2.851563 4.941407 78.386719-63.753907 36.664062zm0 0" fill="#59bd8b"/><path d="m378.847656 242.5c-1.265625-23.105469-2.667968-45.691406-4.167968-67.128906-.183594-2.613282-.390626-5.515625-1.703126-8.066406-.070312-.101563-.144531-.222657-.214843-.347657l-1.746094-3.113281 2.894531-2.085938c18.625-13.425781 37.160156-27.472656 55.085938-41.753906l5.117187-4.074218 1.296875 6.40625c.449219 2.210937.625 4.640624.773438 6.933593l5.433594 86.394531-2.5 1.28125-.042969.019532c-17.4375 9.078125-35.21875 18.515625-54.332031 28.835937l-5.550782 2.996094zm0 0" fill="#59bd8b"/><path d="m366.40625 160.84375c-.371094-.246094-.734375-.492188-1.082031-.714844l-61.957031-40.195312 5.335937-3.328125c18.816406-11.726563 38.097656-23.523438 57.316406-35.066407l.046875-.039062.355469-.222656 1.925781-1.140625 55.925782 29.480469c1.136718.609374 2.3125 1.242187 3.457031 1.949218l4.835937 2.988282-4.445312 3.542968c-18.519532 14.757813-37.609375 29.210938-56.738282 42.949219l-2.246093 1.613281zm0 0" fill="#ed6d66"/><path d="m311.601562 453.042969c.355469-21.269531-.371093-44.410157-2.292968-72.820313l-.167969-2.492187 71.867187-41.347657.21875 6.65625c.796876 23.945313 1.398438 47.335938 1.792969 69.523438l.039063 2.234375-71.582032 45.691406zm0 0" fill="#59bd8b"/><path d="m308.523438 369.117188c-.863282-11.59375-1.8125-23.152344-2.710938-33.996094l-3.398438-41.3125 2.21875-1.265625c22.101563-12.574219 44.679688-25.152344 67.113282-37.382813l5.582031-3.042968.328125 6.347656c1.242188 24.042968 2.316406 48.671875 3.191406 73.203125l.085938 2.410156-71.941406 41.378906zm0 0" fill="#59bd8b"/><path d="m296.773438 225.371094c-.160157-1.988282-.359376-4.449219-1.425782-6.632813l-1.582031-3.234375 3.050781-1.914062c23.289063-14.589844 46.441406-30.042969 68.820313-45.929688l4.410156-3.132812 1.699219 5.136718c.628906 1.898438.777344 4 .90625 5.851563 1.601562 23.027344 3.085937 47.203125 4.414062 71.859375l.132813 2.523438-2.21875 1.207031c-22.859375 12.429687-45.503907 25-67.304688 37.367187l-5.445312 3.085938zm0 0" fill="#59bd8b"/><path d="m288.988281 212.578125c-19.582031-13-39.648437-25.957031-59.632812-38.507813l-5.28125-3.320312 5.214843-3.414062c23.296876-15.257813 46.851563-30.347657 70.007813-44.855469l2.164063-1.355469 4.96875 3.222656 60.980468 39.570313-4.820312 3.410156c-22.222656 15.71875-45.335938 31.09375-68.699219 45.695313l-2.21875 1.386718zm0 0" fill="#ed6d66"/><path d="m299.347656 117.316406c-18.269531-11.835937-39.554687-25.546875-61.023437-38.5l-5.835938-3.523437 5.921875-3.375c17.152344-9.785157 34.804688-19.597657 52.46875-29.164063.019532-.011718.085938-.054687.246094-.210937l2.09375-2.09375 2.609375 1.390625c6.449219 3.429687 12.886719 6.847656 19.320313 10.246094l51.105468 26.945312-6.078125 3.65625c-18.386719 11.066406-37.40625 22.730469-56.535156 34.667969l-2.160156 1.347656zm0 0" fill="#ed6d66"/><path d="m237.960938 499.96875c-.296876-25.660156-.878907-51.855469-1.726563-77.855469l-.078125-2.402343 71.023438-40.851563.414062 6.414063c1.808594 28.09375 2.410156 51.046874 1.894531 72.226562-.003906.148438.015625.265625.058594.363281l1.230469 3.078125-61.863282 39.492188c-1.589843 1.019531-3.296874 2.09375-5.105468 3.035156l-5.773438 3.007812zm0 0" fill="#59bd8b"/><path d="m235.84375 410.765625c-.867188-24.1875-2-48.988281-3.367188-73.722656l-.132812-2.421875 2.082031-1.238282c19.945313-11.859374 40.328125-23.753906 60.578125-35.34375l5.457032-3.121093 3.507812 42.566406c.976562 11.957031 1.992188 24.316406 2.871094 36.613281l.179687 2.5-70.941406 40.800782zm0 0" fill="#59bd8b"/><path d="m231.839844 325.777344c-1.390625-23.597656-2.996094-47.191406-4.777344-70.128906l-.300781-3.867188 3.859375-.417969c2.972656-.320312 5.703125-1.855469 7.902344-3.089843 16.59375-9.34375 33.308593-19.199219 49.667968-29.296876l4.632813-2.859374 1.34375 5.277343c.328125 1.285157.457031 2.636719.578125 4.136719l5.53125 67.171875-2.214844 1.261719c-20.480469 11.6875-40.734375 23.46875-60.191406 35.015625l-5.644532 3.351562zm0 0" fill="#59bd8b"/><path d="m228.46875 72.9375c-22.949219-13.539062-43.699219-24.667969-63.429688-34.023438l-7.539062-3.570312 7.503906-3.640625c3.71875-1.804687 7.4375-3.597656 11.167969-5.375 5.816406-2.761719 11.734375-5.476563 16.824219-7.804687 3.367187-1.539063 6.722656-3.085938 10.066406-4.632813 1.46875-.683594 3.007812-1.5 4.496094-2.292969l.5-.261718c4.566406-2.449219 9.308594-4.988282 14.105468-5.269532.335938-.019531.675782-.027344 1.011719-.027344 6.242188 0 12.335938 3.375 17.710938 6.351563l.773437.425781c.671875.367188 1.339844.734375 2.003906 1.089844 6.585938 3.527344 13.175782 7.058594 19.765626 10.597656l8.601562 4.609375c4.503906 2.414063 8.984375 4.816407 13.449219 7.199219l6.554687 3.496094-6.523437 3.546875c-17.628907 9.582031-35.46875 19.542969-53.023438 29.605469l-2.019531 1.15625zm0 0" fill="#ed6d66"/><path d="m229.421875 249.402344c-2.800781-.050782-5.519531-1.550782-7.707031-2.761719-18.308594-10.117187-36.71875-20.457031-54.71875-30.726563l-5.558594-3.171874 5.289062-3.605469c16.878907-11.511719 34.820313-23.535157 53.320313-35.734375l2.148437-1.414063 2.175782 1.363281c19.84375 12.414063 40.105468 25.457032 60.214844 38.765626l5.234374 3.460937-5.347656 3.28125c-15.769531 9.679687-31.566406 18.976563-46.953125 27.636719-2.9375 1.648437-5.394531 2.90625-8.050781 2.90625zm0 0" fill="#ed6d66"/><path d="m219.996094 168.207031c-21.613282-13.460937-43.617188-26.761719-65.40625-39.535156l-5.730469-3.355469 5.648437-3.496094c24.597657-15.21875 49.46875-30.082031 73.925782-44.175781l2.035156-1.167969 2.011719 1.203126c19.828125 11.828124 39.054687 24.074218 61.824219 38.816406l5.265624 3.40625-5.308593 3.335937c-23.574219 14.808594-47.113281 29.921875-69.953125 44.917969l-2.140625 1.402344zm0 0" fill="#ed6d66"/><path d="m230.972656 505.398438c-3.425781-.875-6.890625-2.726563-10.144531-4.546876l-50.058594-27.984374-.183593-2.109376c-2.230469-25.753906-4.042969-51.796874-5.390626-77.40625l-.359374-6.824218 6.128906 3.03125c20.5625 10.171875 40.503906 19.824218 60.957031 29.507812l2.207031 1.042969.078125 2.441406c.84375 25.773438 1.425781 52.191407 1.730469 78.523438.011719.152343.023438.300781.023438.445312v5.152344zm0 0" fill="#5bd0fc"/><path d="m228.105469 414.996094c-20.199219-9.59375-40.238281-19.332032-61.261719-29.761719l-2.105469-1.042969-.113281-2.351562c-1.261719-26.542969-2.074219-53.402344-2.425781-79.824219l-.089844-6.8125 5.996094 3.242187c21.375 11.5625 41.042969 22.316407 60.132812 32.875l1.933594 1.070313.125 2.207031c1.421875 25.183594 2.605469 50.96875 3.523437 76.640625l.234376 6.582031zm0 0" fill="#5bd0fc"/><path d="m223.6875 326.484375c-18.902344-10.433594-38.925781-21.363281-59.515625-32.484375l-2.082031-1.125-.019532-2.363281c-.179687-22.597657-.027343-45.480469.453126-68.007813l.140624-6.714844 5.839844 3.328126c16.886719 9.628906 34.460938 19.492187 52.230469 29.3125.585937.328124 1.21875.664062 1.894531 1.015624l1.984375 1.019532.175781 2.222656c1.820313 23.277344 3.445313 46.847656 4.824219 70.054688l.429688 7.246093zm0 0" fill="#5bd0fc"/><path d="m144.78125 122.960938c-22.355469-12.980469-45.003906-25.726563-67.3125-37.878907l-6.28125-3.417969 6.203125-3.5625c24.804687-14.246093 50.371094-27.933593 75.988281-40.679687l1.710938-.851563 1.734375.792969c20.660156 9.453125 42.148437 20.714844 65.691406 34.433594l5.949219 3.464844-5.957032 3.453125c-24.835937 14.386718-49.601562 29.25-73.605468 44.183594l-2.039063 1.269531zm0 0" fill="#ed6d66"/><path d="m157.300781 210.359375c-22.773437-13.066406-45.695312-26.496094-68.132812-39.90625l-5.464844-3.265625 5.316406-3.503906c18.21875-12.019532 37.003907-24.082032 55.832031-35.855469l2.046876-1.28125 2.089843 1.21875c22.050781 12.867187 44.253907 26.238281 66.003907 39.734375l5.308593 3.296875-5.214843 3.441406c-17.960938 11.851563-35.972657 23.949219-53.539063 35.953125l-2.070313 1.417969zm0 0" fill="#ed6d66"/><g fill="#5bd0fc"><path d="m104.519531 435.820312c-.765625-.429687-1.535156-.863281-2.304687-1.289062l-2.332032-1.289062.292969-2.648438c.007813-.09375.023438-.191406.027344-.289062l-3.683594-78.464844 6.15625 3.175781c20.136719 10.394531 39.105469 20.015625 57.988281 29.414063l2.09375 1.042968.117188 2.339844c1.253906 25.035156 2.972656 50.726562 5.109375 76.355469l.625 7.496093zm0 0"/><path d="m156.542969 380.101562c-18.367188-9.175781-37.363281-18.84375-58.078125-29.558593l-2.050782-1.058594-4.296874-91.59375 6.191406 3.261719c19.585937 10.328125 39.664062 21.039062 59.679687 31.828125l2.078125 1.117187.023438 2.359375c.292968 26.722657 1.042968 53.597657 2.238281 79.882813l.308594 6.800781zm0 0"/><path d="m154.105469 288.5625c-20.277344-10.910156-40.488281-21.667969-60.070313-31.980469l-2.023437-1.066406-.105469-2.285156c-1.136719-24.242188-2.3125-49.308594-5.148438-74.371094l-.90625-8.011719 6.925782 4.128906c21.796875 12.984376 43.945312 25.933594 65.824218 38.472657l2.066407 1.1875-.058594 2.378906c-.535156 22.386719-.738281 45.265625-.609375 68.003906l.039062 6.738281zm0 0"/><path d="m91.949219 428.765625c-20.234375-11.386719-41.742188-23.804687-61.945313-37.449219-4.179687-2.824218-7.792968-5.472656-9.777344-9.324218-1.839843-3.539063-2.054687-7.847657-2.25-11.652344l-3.0625-61.542969 6.234376 3.335937c25.039062 13.398438 48.339843 25.683594 71.234374 37.558594l2.046876 1.058594 3.8125 81.558594zm0 0"/><path d="m88.15625 345.199219c-22.617188-11.757813-45.960938-24.09375-71.367188-37.710938l-1.992187-1.070312-4.535156-90.972657 6.164062 3.15625c23.875 12.222657 47.957031 24.714844 71.578125 37.128907l2.023438 1.066406 4.292968 91.609375zm0 0"/></g><path d="m79.609375 164.730469c-21.917969-13.171875-44.25-26.851563-66.367187-40.667969l-5.113282-3.191406 4.929688-3.46875c.75-.53125 1.546875-1.050782 2.382812-1.589844 16.574219-10.675781 33.984375-21.371094 51.757813-31.792969l1.945312-1.140625 1.980469 1.074219c22.804688 12.355469 45.699219 25.171875 68.050781 38.105469l5.742188 3.324218-5.621094 3.527344c-18.851563 11.824219-37.496094 23.84375-55.417969 35.722656l-2.105468 1.398438zm0 0" fill="#ed6d66"/><path d="m83.730469 251.191406c-23.839844-12.515625-47.90625-24.980468-71.53125-37.046875l-2.058594-1.054687-4.019531-80.632813c-.050782-1.097656-.097656-2.234375-.066406-3.375l.1875-6.984375 5.929687 3.699219c23.101563 14.429687 46.558594 28.789063 69.726563 42.683594l1.664062 1 .246094 1.925781c3.210937 25.164062 4.566406 50.335938 5.78125 76.058594l.328125 6.976562zm0 0" fill="#5bd0fc"/><path d="m456.566406 356.890625-14.355468-227.996094c-.300782-4.753906-.710938-11.265625-4.507813-16.46875-3.015625-4.140625-7.433594-6.46875-10.984375-8.339843l-108.757812-57.34375c-15.792969-8.328126-31.550782-16.765626-47.644532-25.402344l-4.027344-2.160156c-6.59375-3.535157-13.1875-7.070313-19.785156-10.601563-.890625-.476563-1.789062-.972656-2.699218-1.476563-6.410157-3.546874-13.683594-7.5625-22-7.0585932-6.117188.3593752-11.691407 3.3398432-16.609376 5.9726562-1.644531.878906-3.203124 1.710937-4.679687 2.394531-3.339844 1.550782-6.6875 3.085938-10.035156 4.621094-5.542969 2.542969-11.277344 5.167969-16.898438 7.839844-6.476562 3.078125-12.9375 6.230468-19.390625 9.417968-1.183594.125-2.289062.664063-3.121094 1.539063-27.628906 13.730469-54.976562 28.414063-81.558593 43.832031-19.300781 11.191406-38.59375 22.992188-57.339844 35.074219-3.574219 2.300781-8.464844 5.453125-10.757813 10.917969-1.675781 4-1.4726558 8.144531-1.304687 11.476562l11.835937 237.457032c.210938 4.21875.472657 9.460937 2.914063 14.183593 2.652344 5.128907 7.078125 8.390625 11.769531 11.554688 24.71875 16.683593 51.082032 31.425781 76.574219 45.679687l114.683594 64.121094c4.476562 2.503906 10.507812 5.875 17.257812 5.875.453125 0 .910157-.015625 1.367188-.046875 6.25-.429687 11.460937-3.753906 15.644531-6.425781l190.632812-121.695313c3.828126-2.445312 9.074219-5.792969 11.804688-11.296875 2.625-5.296875 2.261719-11.035156 1.972656-15.644531zm-144.058594 11.933594c-.847656-11.425781-1.777343-22.785157-2.707031-34.035157l-3.191406-38.769531c22.226563-12.648437 44.601563-25.109375 67.054687-37.34375 1.253907 24.363281 2.316407 48.757813 3.183594 73.136719zm64.726563-25.652344c.765625 23.203125 1.375 46.371094 1.785156 69.457031l-63.414062 40.484375c.410156-24.390625-.667969-48.902343-2.308594-73.164062zm-297.390625-171.265625c3.199219 25.09375 4.5625 50.726562 5.75 75.742188-23.851562-12.515626-47.730469-24.890626-71.574219-37.070313l-3.886719-77.949219c-.054687-1.15625-.109374-2.324218-.082031-3.4375 23.058594 14.40625 46.34375 28.65625 69.792969 42.714844zm75.320312-130.902344c22.3125 10.210938 44.054688 21.847656 65.335938 34.25-24.785156 14.355469-49.386719 29.121094-73.710938 44.246094-22.335937-12.972656-44.824218-25.625-67.40625-37.925781 24.757813-14.226563 50.140626-27.816407 75.78125-40.570313zm75.265626 40.109375c20.957031 12.507813 41.480468 25.644531 61.699218 38.734375-23.480468 14.75-46.84375 29.75-70.019531 44.964844-21.640625-13.480469-43.492187-26.6875-65.496094-39.585938 24.367188-15.089843 49-29.8125 73.816407-44.113281zm73.824218 46.59375 56.027344 36.351563c-22.394531 15.84375-45.257812 31.042968-68.511719 45.570312-.1875-.125-.378906-.253906-.558593-.375-19.691407-13.074218-39.621094-25.9375-59.730469-38.570312 23.152343-15.164063 46.492187-30.117188 69.941406-44.8125.941406.609375 1.890625 1.222656 2.832031 1.835937zm127.238282-4.578125c.375 1.878906.546874 4.023438.695312 6.398438l5.277344 83.773437c-.027344.011719-.054688.019531-.078125.03125-18.203125 9.484375-36.394531 19.144531-54.542969 28.949219-1.234375-22.460938-2.617188-44.875-4.171875-67.191406-.199219-2.816406-.445313-6.320313-2.144531-9.625-.085938-.160156-.1875-.304688-.277344-.464844 18.773438-13.523438 37.199219-27.5 55.242188-41.871094zm-62.835938 52.660156c1.664062 23.84375 3.121094 47.800782 4.417969 71.800782-22.554688 12.257812-45.039063 24.730468-67.375 37.402344l-4.9375-59.953126c-.195313-2.351562-.449219-5.253906-1.820313-8.054687 23.425782-14.683594 46.453125-30.054687 69.007813-46.0625.457031 1.386719.585937 3.148437.707031 4.867187zm-202.132812 46.804688c17.398437 9.914062 34.832031 19.699219 52.277343 29.335938.613281.335937 1.285157.703124 1.996094 1.070312 1.824219 23.242188 3.429687 46.585938 4.820313 69.976562-19.75-10.894531-39.609376-21.730468-59.546876-32.496093-.183593-22.667969-.03125-45.308594.453126-67.886719zm62.949218 22.804688c-.019531 0-.035156 0-.054687 0-1.71875-.023438-3.867188-1.210938-5.765625-2.257813-18.246094-10.078125-36.480469-20.320313-54.671875-30.703125 17.617187-12.003906 35.386719-23.910156 53.277343-35.695312 20.242188 12.675781 40.296876 25.585937 60.121094 38.710937-15.453125 9.488281-31.0625 18.6875-46.824218 27.558594-2.402344 1.351562-4.378907 2.386719-6.082032 2.386719zm1.574219 9.949218c3.78125-.414062 6.996094-2.21875 9.429687-3.589844 16.773438-9.4375 33.386719-19.238281 49.808594-29.375.265625 1.015626.371094 2.261719.472656 3.480469l5.320313 64.621094c-20.222656 11.546875-40.328125 23.230469-60.25 35.050781-1.375-23.460937-2.96875-46.871094-4.78125-70.1875zm-18.167969-84.449218c-17.996094 11.886718-35.871094 23.886718-53.585937 35.992187-22.789063-13.082031-45.496094-26.382813-68.066407-39.867187 18.386719-12.132813 36.984376-24.070313 55.75-35.800782 22.136719 12.921875 44.121094 26.160156 65.902344 39.675782zm-56.269531 46.023437c-.542969 22.652344-.742187 45.375-.613281 68.121094-19.980469-10.75-40.023438-21.425781-60.097656-32-1.148438-24.507813-2.351563-49.703125-5.167969-74.628907 21.855469 13.023438 43.832031 25.867188 65.878906 38.507813zm-142.011719 5.234375c23.835938 12.203125 47.703125 24.582031 71.542969 37.113281l3.855469 82.378907c-22.59375-11.75-46.222656-24.238282-71.320313-37.683594zm81.84375 42.535156c19.929688 10.511719 39.820313 21.121094 59.648438 31.808594.285156 26.671875 1.027344 53.367188 2.234375 80.019531-18.769531-9.382812-38.011719-19.175781-58.027344-29.527343zm69.757813 37.265625c20.128906 10.890625 40.175781 21.847657 60.105469 32.863281 1.433593 25.496094 2.605468 51.035157 3.515624 76.5625-20.1875-9.59375-40.445312-19.429687-61.199218-29.734374-1.265625-26.539063-2.074219-53.121094-2.421875-79.691407zm70.269531 34.867188c20.007812-11.90625 40.199219-23.6875 60.519531-35.316407l2.808594 34.105469c1.054687 12.804688 2.121094 25.75 3.050781 38.765625l-63.007812 36.242188c-.878906-24.601563-2.003906-49.21875-3.371094-73.796875zm146.964844-83.457031c18.207031-9.859376 36.457031-19.566407 54.722656-29.109376l4.390625 69.765626-55.84375 32.121093c-.890625-24.261719-1.992187-48.539062-3.269531-72.777343zm42.195312-138.398438c-18.46875 14.71875-37.339844 29.011719-56.574218 42.835938-.542969-.367188-1.078126-.71875-1.574219-1.039063l-56.660157-36.765625c19.113282-11.90625 38.289063-23.644531 57.492188-35.171875.054688-.03125.097656-.074219.148438-.109375l53.574218 28.246094c1.21875.644531 2.445313 1.296875 3.59375 2.003906zm-67.523437-35.710938c-18.902344 11.386719-37.777344 22.960938-56.585938 34.707032-20.03125-12.980469-40.363281-26.046875-61.125-38.570313 17.390625-9.921875 34.863281-19.636719 52.390625-29.125.445313-.242187.824219-.558593 1.164063-.902343 6.449219 3.4375 12.886719 6.859374 19.328125 10.253906zm-180.214844-49.316406c5.554687-2.644531 11.257813-5.257812 16.773437-7.785156 3.363282-1.539062 6.726563-3.082031 10.078126-4.636719 1.734374-.804687 3.488281-1.742187 5.1875-2.652343 4.203124-2.246094 8.546874-4.570313 12.472656-4.800782 5.425781-.320312 11.074218 2.796875 16.542968 5.820313.953126.527343 1.894532 1.046875 2.820313 1.542969 6.59375 3.527343 13.183594 7.0625 19.777344 10.597656l4.027343 2.164062c6.054688 3.246094 12.050782 6.457032 18.027344 9.652344-17.765625 9.660156-35.472656 19.550781-53.09375 29.652344-20.757812-12.246094-41.957031-23.863282-63.757812-34.191406 3.710937-1.804688 7.425781-3.597657 11.144531-5.363282zm-108.667969 57.53125c22.757813 12.332032 45.429688 25.023438 67.949219 38.046875-18.683594 11.726563-37.199219 23.65625-55.496094 35.777344-22.273437-13.378906-44.398437-26.933594-66.316406-40.628906.707031-.496094 1.464844-.988281 2.25-1.496094 16.886719-10.882813 34.230469-21.515625 51.613281-31.699219zm-45.445312 292.683594c-1.441406-2.785156-1.625-6.488281-1.804688-10.070312l-2.714844-54.421876c25.066407 13.402344 48.679688 25.855469 71.28125 37.578126l3.375 72.042968c-20.792968-11.707031-41.828124-23.890625-61.671874-37.28125-3.703126-2.5-6.898438-4.816406-8.464844-7.847656zm80.375 50.871094c.03125-.269532.058594-.546875.042968-.828125l-3.355468-71.625c19.996094 10.316406 39.234375 20.074219 58.039062 29.441406 1.285156 25.566406 3 51.078125 5.125 76.480469l-55.898437-31.253906c-1.316407-.734376-2.636719-1.476563-3.953125-2.214844zm70.421875 39.378906c-2.226563-25.65625-4.019531-51.433594-5.382813-77.269531 20.65625 10.21875 40.851563 19.992187 61.019532 29.542969.855468 26.253906 1.433593 52.476562 1.726562 78.597656 0 .085937.023438.164062.027344.246094-2.828125-.71875-5.804688-2.273438-9.179688-4.160157zm72.183593 26.660156c-1.527343.972656-3.144531 1.996094-4.796874 2.859375-.300782-25.90625-.878907-51.910156-1.730469-77.949219l63.371093-36.449218c1.535157 23.914062 2.472657 48.011718 1.886719 71.875-.015625.6875.105469 1.347656.34375 1.949218zm198.839844-128.988281c-1.378906 2.78125-4.402344 4.859375-8.210937 7.292969l-48.457031 30.933594c-.4375-22.875-1.054688-45.820313-1.839844-68.796876l56.164062-32.308593 3.292969 52.320312c.226563 3.59375.480469 7.667969-.949219 10.558594zm0 0"/></svg>