<svg height="512pt" viewBox="-8 0 512 512.00069" width="512pt" xmlns="http://www.w3.org/2000/svg"><path d="m398.820312 251.425781c10.210938-44.003906 2.742188-91.671875-20.492187-130.78125l-3.628906-6.113281 7.109375.070312c31.734375.3125 64.480468 2.703126 85.542968 27.617188 15.953126 18.890625 20.808594 42.515625 22.074219 59.007812.910157 11.847657.3125 33.402344-13.917969 44.652344-9.289062 7.332032-22.066406 8.554688-34.355468 9.175782-11.144532.5625-23.332032.96875-38.351563 1.273437l-5.140625.105469zm0 0" fill="#ed6d66"/><path d="m392.699219 328.402344-6.328125-.046875 2.757812-5.699219c1.382813-2.855469 2.105469-6.109375 2.628906-8.917969 3.042969-16.429687 3.148438-33.917969.308594-50.5625l-.785156-4.59375 4.660156-.082031c18.320313-.3125 32.296875-.75 45.316406-1.414062 2.5625-.125 4.640626-.257813 6.539063-.410157l2.917969-.238281 1.109375 2.710938c4.757812 11.660156 7.675781 23.875 8.671875 36.3125.492187 6.042968.535156 12.972656-2.878906 18.464843-4.847657 7.777344-15.058594 10.292969-23.414063 11.617188-12.058594 1.929687-24.851563 2.867187-39.101563 2.867187-.800781 0-1.601562-.003906-2.402343-.007812zm0 0" fill="#f9d889"/><path d="m408.703125 47.65625c-1.734375 0-3.445313-.109375-4.890625-.214844l-126.316406-9.480468.136718-3.839844c.074219-2.214844-.152343-4.492188-.679687-6.765625l-.980469-4.234375 4.296875-.628906c39.566407-5.796876 79.761719-9.527344 119.460938-11.089844 1.644531-.0625 2.898437-.089844 4.066406-.089844 5.09375 0 11.496094.511719 15.871094 4.503906 4.378906 4 6.054687 11.296875 4.480469 19.515625-.777344 4.09375-2.039063 6.886719-3.96875 8.789063-3.21875 3.167968-8.09375 3.535156-11.476563 3.535156zm0 0" fill="#f9d889"/><path d="m251.644531 254.441406c-2.640625-45.386718-4.007812-91.472656-4.058593-136.976562l-.003907-3.996094 3.996094-.007812c3.632813-.007813 7.265625-.011719 10.902344-.011719 32.082031 0 64.210937.324219 95.5.960937 3.480469.074219 7.164062.109375 11.9375.121094l2.167969.003906 1.179687 1.824219c25.347656 39.1875 34.121094 89.65625 23.476563 135.003906-.027344.117188-.027344.269531 0 .429688l.84375 4.640625-4.714844.074218c-7.324219.121094-14.609375.207032-21.8125.296876l-119.191406 1.453124zm0 0" fill="#ed6d66"/><path d="m380.550781 328.125c-16.742187-.667969-33.292969-2.328125-51.640625-4.265625l-4.035156-.425781.480469-4.027344c2.183593-18.292969 2.949219-37.824219 3.453125-56.207031l.105468-3.84375 41.726563-.503907c5.019531-.0625 10.066406-.132812 15.144531-.199218l3.378906-.046875.609376 3.324219c3.09375 16.867187 3.085937 34.65625-.019532 51.449218-.863281 4.675782-2.117187 9.429688-5.410156 12.492188-.011719.007812-.058594.058594-.144531.210937l-1.195313 2.144531zm0 0" fill="#f9d889"/><path d="m333.929688 492.347656c-21.101563 0-42.425782-5.164062-61.242188-9.71875l-3.820312-.925781.859374-3.835937c2.9375-13.101563 4.273438-26.566407 3.972657-40.015626l-.03125-1.402343.851562-1.117188c10.101563-13.230469 21.546875-28.226562 30.1875-44.488281l2.480469-4.667969 3.820312 3.65625c26.464844 25.332031 44.398438 54.964844 51.867188 85.695313.652344 2.644531 1.277344 5.699218.375 8.300781-1.367188 3.914063-5.769531 6.414063-13.085938 7.433594-5.183593.722656-10.644531 1.085937-16.234374 1.085937zm0 0" fill="#f9d889"/><path d="m222.722656 428.914062c-10.917968-13.238281-22.203125-27.507812-29.664062-43.589843-3.742188-8.070313-6.800782-17.089844-9.621094-28.398438-7.519531-30.242187-9.566406-61.269531-6.082031-92.222656l.394531-3.507813 149.136719-1.816406-.117188 4.164063c-1.261719 45.082031-3.742187 85.347656-21.40625 121.550781-7.164062 14.660156-16.601562 27.949219-25.730469 40.125l-5.683593 7.578125-1.46875-9.355469c-2.132813-13.589844-6.996094-24.175781-14.445313-31.460937-3.292968-3.21875-6.414062-3.894531-8.453125-3.894531l-.1875.003906c-3.550781.042968-7.230469 1.945312-10.671875 5.496094-4.050781 4.199218-5.039062 10.035156-5.996094 15.683593-.175781 1.015625-.351562 2.027344-.535156 3.007813-.949218 4.910156-1.761718 9.828125-2.417968 14.632812l-1.234376 9.054688zm0 0" fill="#bfc7d8"/><path d="m181.285156 107.230469c2.929688-14.007813 6.886719-27.808594 11.761719-41.015625 2.4375-6.601563 5.539063-14.003906 11.519531-18.269532 4.039063-2.875 8.921875-4.125 15.011719-5.113281 8.851563-1.445312 17.964844-2.179687 27.085937-2.179687 13.570313 0 27.03125 1.601562 40.011719 4.761718 3.675781.894532 7.507813 1.976563 10.382813 4.480469 3.640625 3.1875 5.160156 8.207031 6.515625 13.503907 3.582031 14.140624 6.761719 28.78125 9.453125 43.523437l.867187 4.765625-4.84375-.046875c-15.613281-.152344-31.382812-.230469-46.867187-.230469-17.082032 0-34.257813.09375-51.050782.28125-8.980468.09375-18.113281.234375-25.867187.359375l-5.003906.082031zm0 0" fill="#bfc7d8"/><g fill="#ed6d66"><path d="m270.78125 40.300781c-7.9375-1.117187-16.042969-1.683593-24.09375-1.683593-7.535156 0-15.101562.496093-22.484375 1.476562l-3.066406.410156-1.164063-2.871094c-2.058594-5.0625-1.855468-10.992187.546875-16.269531 2.300781-5.066406 6.539063-9.386719 11.9375-12.167969 3.972657-2.054687 8.601563-3.144531 13.382813-3.144531 8.71875 0 17.195312 3.578125 22.671875 9.570313 5.542969 6.0625 8.074219 14.070312 6.765625 21.417968l-.675782 3.796876zm0 0"/><path d="m251.539062 505.976562c-5.117187 0-9.308593-3.71875-10.472656-4.859374-8.082031-7.925782-10.019531-20.042969-10.804687-29.710938-.394531-4.746094-.59375-9.695312-.59375-14.707031 0-13.757813 1.480469-28.15625 4.519531-44.023438.125-.667969.25-1.382812.378906-2.101562l.171875-.992188c.855469-5.054687 1.828125-10.824219 5.449219-14.578125 3.0625-3.160156 6.25-4.839844 9.21875-4.871094h.101562c2.46875 0 4.855469 1.113282 7.101563 3.3125 9.507813 9.292969 14.574219 24.15625 15.046875 44.171876.453125 19.117187-2.394531 37.992187-8.453125 56.09375-1.566406 4.679687-3.757813 9.707031-8.105469 11.558593-1.097656.46875-2.296875.707031-3.558594.707031zm0 0"/><path d="m101.808594 256.683594c-4.496094-21.105469-3.753906-45.066406 2.199218-71.210938 5.445313-23.890625 14.507813-47.109375 22.503907-67.597656l.964843-2.464844 2.648438-.078125c26.824219-.765625 54.085938-1.308593 81.027344-1.609375 9.671875-.105468 19.609375-.179687 30.378906-.222656l4.011719-.015625.007812 4.011719c.046875 45.492187 1.40625 91.449218 4.03125 136.601562l.242188 4.183594-70.335938.847656c-23.578125.292969-48.695312.589844-73.75.722656l-3.253906.015626zm0 0"/></g><path d="m168.675781 490.683594c-6.65625 0-13.40625-.3125-20.066406-.929688-3.316406-.308594-7.273437-1.039062-8.550781-3.945312-.527344-1.1875-.535156-2.53125-.371094-4.308594.890625-9.742188 4.910156-18.925781 8.3125-25.835938 11.039062-22.449218 27.09375-43.242187 41.273438-60.972656l3.691406-4.613281 2.914062 5.140625c8.085938 14.277344 18.589844 26.949219 28.746094 39.199219.191406.234375.429688.320312.59375.351562l3.503906.707031-.308594 3.558594c-.984374 11.402344-1.046874 22.046875-.1875 32.539063.199219 2.414062.460938 4.746093.78125 6.929687l.554688 3.808594-3.78125.703125c-.113281.019531-.222656.035156-.332031.050781-18.488281 5.046875-37.617188 7.617188-56.773438 7.617188zm0 0" fill="#f9d889"/><path d="m99.6875 41.910156c-7.902344-.023437-17.484375-.902344-21.476562-7.539062-1.675782-2.789063-2.089844-6.222656-2.347657-9.226563-.34375-3.957031-.355469-8.019531 1.835938-10.9375 2.285156-3.027343 6.496093-4.078125 9.910156-4.660156 4.597656-.78125 9.449219-1.164063 14.835937-1.164063 9.382813 0 18.773438 1.167969 27.855469 2.296876l82.648438 10.269531h4.972656l-.929687 4.765625c-.457032 2.347656-.5625 4.703125-.316407 6.996094l.433594 4.046874-4.050781.363282c-35.234375 3.179687-72.125 4.792968-109.648438 4.792968-1.238281 0-2.480468 0-3.722656-.003906zm0 0" fill="#f9d889"/><path d="m109.164062 318.679688c-1.988281-18.035157-.851562-36.132813 3.386719-53.78125l.726563-3.042969 3.132812-.023438c18.460938-.128906 37.226563-.347656 54.75-.558593l4.507813-.058594-.480469 4.484375c-1.808594 16.800781-2.003906 33.773437-.582031 50.441406l.378906 4.429687-4.445313-.089843c-2.355468-.046875-4.820312-.070313-7.320312-.070313-13.578125 0-27.558594.710938-39.894531 1.335938-3.316407.171875-6.648438.332031-9.992188.492187l-3.757812.179688zm0 0" fill="#f9d889"/><path d="m82.445312 259.914062c-4.34375 0-8.679687-.007812-13.011718-.023437-14.1875-.050781-30.269532-.109375-45.480469-4.132813-9.175781-2.433593-14.863281-6.390624-16.902344-11.769531-1.261719-3.285156-1.097656-6.941406-.800781-10.714843 2.113281-26.320313 9.003906-51.710938 20.488281-75.472657 4.394531-9.105469 10.722657-20.46875 20.699219-27.535156 5.917969-4.195313 13.226562-7.113281 23.695312-9.457031 15.039063-3.378906 30.089844-4.5 48.0625-5.144532l6.074219-.21875-2.203125 5.667969c-8.242187 21.175781-16.054687 42-21.046875 63.90625-5.839843 25.609375-6.71875 49.195313-2.617187 70.101563l.933594 4.753906-4.84375.015625c-4.355469.015625-8.703126.023437-13.046876.023437zm0 0" fill="#ed6d66"/><path d="m83.613281 323.074219c-14.207031 0-26.5625-.789063-37.769531-2.414063-6.09375-.886718-12.773438-2.460937-16.105469-7.417968-3.40625-5.058594-2.246093-11.875-.761719-18.417969l7.808594-34.4375 3.546875.386719c10.058594 1.09375 20.167969 1.128906 29.089844 1.15625 4.476563.019531 8.964844.03125 13.445313.03125 7.734374 0 15.480468-.03125 23.222656-.070313l5.019531-.027344-1.097656 4.902344c-3.789063 16.894531-4.78125 34.214844-2.945313 51.480469l.453125 4.261718-4.28125.160157c-7.320312.273437-13.738281.40625-19.625.40625zm0 0" fill="#f9d889"/><path d="m495.449219 200.761719c-1.332031-17.386719-6.492188-42.328125-23.484375-62.4375-24.976563-29.558594-64.660156-29.699219-99.675782-29.824219-4.925781-.015625-9.582031-.03125-14.1875-.125-12.886718-.265625-25.820312-.46875-38.777343-.628906-2.746094-15.320313-6.070313-30.734375-9.898438-45.824219-1.46875-5.789063-3.296875-11.78125-7.878906-16.097656l101.8125 7.636719c1.757813.132812 3.574219.238281 5.402344.238281 5.609375 0 11.304687-.996094 15.652343-5.277344 3.734376-3.675781 5.023438-8.585937 5.664063-11.960937 1.996094-10.445313-.3125-19.59375-6.332031-25.101563-6.71875-6.140625-16.035156-6.3125-24.253906-5.988281-40.804688 1.601562-81.972657 5.460937-122.367188 11.464844-.0625.007812-.121094.035156-.183594.046874-1.136718-1.882812-2.453125-3.679687-3.96875-5.335937-10.65625-11.652344-29.269531-14.972656-43.292968-7.722656-5.597657 2.894531-10.179688 7.191406-13.191407 12.269531-.710937-.585938-1.582031-.992188-2.5625-1.113281l-82.882812-10.292969c-14.460938-1.796875-29.414063-3.652344-44.445313-1.101562-4.511718.769531-10.148437 2.253906-13.710937 6.972656-3.441407 4.558594-3.46875 10.195312-3.042969 15.109375.34375 3.949219.96875 8.113281 3.191406 11.8125 6.253906 10.40625 20.535156 10.449219 26.628906 10.46875 1.328126.003906 2.648438.003906 3.972657.003906 32.6875 0 64.796875-1.226563 95.761719-3.621094-6.269532 5.28125-9.492188 12.933594-12.019532 19.792969-5.28125 14.316406-9.460937 29.148438-12.464844 44.109375-15.664062.296875-31.34375.660156-46.90625 1.109375-21.714843.625-39.789062 1.433594-58.203124 5.566406-7.59375 1.703125-17.390626 4.429688-25.855469 10.425782-11.101563 7.859374-17.9375 20.074218-22.652344 29.835937-11.808594 24.445313-18.894531 50.558594-21.066406 77.617187-.34375 4.300782-.535157 8.875 1.171875 13.355469 2.78125 7.300781 9.851562 12.5 21.011718 15.453125 2.496094.660156 5.007813 1.210938 7.523438 1.683594l-6.847656 30.207031c-1.699219 7.488281-3.113282 16.070313 1.640625 23.128907 4.640625 6.90625 12.835937 8.9375 20.238281 10.011718 12.824219 1.867188 25.769531 2.496094 38.671875 2.496094 13.433594 0 26.820313-.679688 39.980469-1.351562 15.792968-.800782 32.089844-1.613282 48.054687-1.230469 1.320313 10.679687 3.28125 21.304687 5.902344 31.839843 2.851563 11.457032 5.96875 20.691407 9.792969 29.019532-15.554688 19.378906-32.804688 41.210937-44.792969 65.589844-3.632813 7.382812-7.925781 17.226562-8.910156 27.945312-.207031 2.222656-.257813 4.839844.90625 7.398438 2.925781 6.453124 10.585937 7.164062 13.472656 7.433593 6.886719.636719 13.769531.957031 20.636719.957031 19.738281 0 39.347656-2.636718 58.523437-7.878906 1.84375 6 4.789063 11.835938 9.628907 16.578125 4.355468 4.269531 9.699218 6.574219 14.726562 6.574219 2.046875 0 4.042969-.382812 5.898438-1.171875 6.589843-2.804687 9.589843-9.597656 11.464843-15.203125.796875-2.371094 1.535157-4.757812 2.222657-7.152344 19.609374 4.742188 41.226562 9.890625 63.011718 9.890625 5.609375 0 11.234375-.339843 16.832032-1.117187 9.753906-1.355469 15.792968-5.203125 17.957031-11.429688 1.4375-4.144531.648437-8.226562-.203125-11.722656-7.988282-32.839844-27.296875-64.195312-55.878906-90.800781 7.667968-16.976563 12.265624-34.765625 15.113281-53.457031 21.976562 2.320312 44.402343 4.632812 66.898437 4.628906 13.425782 0 26.882813-.820313 40.273438-2.957032 9.632812-1.535156 21.46875-4.558593 27.585937-14.394531 4.367188-7.023437 4.3125-15.523437 3.78125-22.144531-.988281-12.226562-3.726562-24.183594-8.117187-35.613281 7.523437-1.386719 14.707031-3.890625 20.84375-8.738281 8.617187-6.804688 18.421875-20.980469 16.203125-49.855469zm-125.535157-82.226563c24.78125 38.328125 33.367188 87.492188 22.9375 131.917969-.164062.699219-.167968 1.394531-.046874 2.054687-7.464844.121094-14.894532.210938-22.238282.300782l-114.925781 1.398437c-2.648437-45.34375-4.007813-91.332031-4.050781-136.746093 35.445312-.082032 71.054687.230468 106.304687.949218 3.945313.082032 7.90625.109375 12.019531.125zm-190.476562 136.601563c-24.207031.292969-48.964844.589843-73.714844.714843-4.371094-20.527343-3.644531-43.890624 2.183594-69.488281 5.21875-22.914062 13.863281-45.328125 22.335938-67.035156 26.878906-.765625 54.101562-1.304687 80.957031-1.601563 10.089843-.113281 20.214843-.183593 30.351562-.226562.042969 45.441406 1.402344 91.453125 4.042969 136.832031zm220.449219-239.730469c6.5-.253906 13.175781-.207031 17.085937 3.367188 3.339844 3.050781 4.550782 8.960937 3.246094 15.804687-.625 3.265625-1.527344 5.390625-2.847656 6.6875-2.765625 2.726563-8.296875 2.558594-13.261719 2.1875l-122.484375-9.1875c.089844-2.597656-.175781-5.226563-.777344-7.816406 39.3125-5.761719 79.347656-9.484375 119.039063-11.042969zm-175.730469 7.617188c1.933594-4.25 5.535156-7.898438 10.132812-10.277344 9.96875-5.152344 23.703126-2.703125 31.273438 5.578125 4.6875 5.128906 6.851562 11.949219 5.78125 18.015625-15.773438-2.222656-31.933594-2.300782-47.664062-.214844-1.625-3.980469-1.460938-8.84375.476562-13.101562zm-124.460938 14.882812c-6.851562-.019531-15.09375-.671875-18.054687-5.597656-1.230469-2.042969-1.570313-4.949219-1.792969-7.507813-.261718-3.015625-.339844-6.34375 1.050782-8.191406 1.453124-1.921875 4.910156-2.703125 7.382812-3.125 13.570312-2.304687 27.78125-.539063 41.523438 1.167969l82.882812 10.292968c.128906.015626.253906.003907.382812.007813-.535156 2.71875-.664062 5.492187-.378906 8.191406-36.230468 3.265625-74.246094 4.871094-112.996094 4.761719zm97.105469 29.695312c2.226563-6.042968 5.027344-12.789062 10.089844-16.398437 3.398437-2.417969 7.785156-3.519531 13.328125-4.425781 21.59375-3.53125 44.246094-2.660156 65.507812 2.523437 3.210938.78125 6.527344 1.703125 8.703126 3.609375 2.792968 2.445313 4.085937 6.824219 5.265624 11.480469 3.613282 14.246094 6.753907 28.777344 9.390626 43.25-32.699219-.324219-65.5-.316406-97.996094.046875-8.597656.09375-17.238282.222656-25.886719.367188 2.863281-13.722657 6.75-27.3125 11.597656-40.453126zm-186.015625 174.96875c-.964844-2.53125-.808594-5.691406-.542968-8.980468 2.070312-25.8125 8.832031-50.726563 20.09375-74.050782 4.195312-8.675781 10.191406-19.476562 19.414062-26.011718 5.472656-3.875 12.335938-6.59375 22.253906-8.820313 15.003906-3.371093 30.046875-4.425781 47.332032-5.042969-8.097657 20.804688-16.15625 42.261719-21.21875 64.464844-5.964844 26.191406-6.84375 50.3125-2.636719 71.765625-8.695313.023438-17.382813.027344-26.03125-.003906-13.953125-.050781-29.765625-.109375-44.464844-4-7.859375-2.078125-12.632813-5.214844-14.199219-9.320313zm35.628906 74.125c-5.222656-.757812-10.898437-2.03125-13.351562-5.679687-2.519531-3.742187-1.46875-9.613281-.179688-15.308594l7.019532-30.960937c10.195312 1.113281 20.246094 1.152344 29.507812 1.1875 4.480469.015625 8.964844.023437 13.457032.023437 7.738281 0 15.492187-.023437 23.246093-.0625-3.890625 17.351563-4.902343 35.070313-3.023437 52.78125-18.929688.710938-38.066406.726563-56.675782-1.980469zm76.699219 1.054688c-3.308593.167969-6.636719.335938-9.972656.492188-1.941406-17.59375-.832031-35.207032 3.296875-52.414063 18.378906-.125 36.707031-.335937 54.769531-.550781-1.835937 17.09375-2.042969 34.207031-.59375 51.199218-15.902343-.320312-31.945312.480469-47.5 1.273438zm58.210938-52.597656 141.441406-1.71875c-1.246094 44.695312-3.761719 84.589844-21 119.90625-6.832031 13.992187-15.953125 26.972656-25.335937 39.484375-2.269532-14.464844-7.488282-25.773438-15.601563-33.707031-4.328125-4.230469-8.660156-5.085938-11.519531-5.03125-4.613282.066406-9.265625 2.390624-13.453125 6.71875-4.917969 5.085937-6.066407 11.835937-7.078125 17.792968-.171875.996094-.335938 1.984375-.519532 2.941406-.972656 5.058594-1.785156 9.996094-2.449218 14.828126-10.96875-13.300782-21.890625-27.136719-29.125-42.734376-3.640625-7.851562-6.617188-16.644531-9.363282-27.675781-7.414062-29.792969-9.417968-60.328125-5.996093-90.804687zm43.242187 214.007812c-24.679687 6.75-50.117187 8.972656-75.589844 6.613282-4.609374-.429688-5.207031-1.464844-5.257812-1.585938-.148438-.320312-.164062-1.105469-.054688-2.328125.835938-9.082031 4.675782-17.828125 7.921876-24.433594 10.8125-21.976562 26.347656-42.148437 40.8125-60.234375 8.199218 14.476563 18.8125 27.304688 29.148437 39.777344.761719.925781 1.789063 1.5 2.878906 1.71875-.996093 11.574219-1.054687 22.578125-.183593 33.214844.1875 2.285156.441406 4.703125.808593 7.175781-.160156.03125-.320312.039063-.484375.082031zm34.839844 13.277344c-1.210938 3.609375-2.96875 7.917969-5.878906 9.152344-2.996094 1.277344-7.109375-.832032-9.664063-3.332032-7.125-6.984374-8.878906-18.191406-9.613281-27.175781-1.449219-17.707031-.183594-36.5625 3.867188-57.648437.195312-1.027344.375-2.082032.558593-3.152344.804688-4.742188 1.640625-9.648438 4.394531-12.496094 2.257813-2.332031 4.523438-3.632812 6.378907-3.660156h.058593c1.398438 0 2.808594.710938 4.304688 2.171875 8.738281 8.542969 13.394531 22.476563 13.847656 41.410156.445313 18.636719-2.332031 37.050781-8.253906 54.730469zm99.582031-15.96875c.515625 2.109375 1.019531 4.492188.476563 6.054688-1.082032 3.117187-6.640625 4.332031-9.855469 4.777343-25.441406 3.535157-51.121094-2.542969-75.984375-8.558593 3.011719-13.417969 4.382812-27.136719 4.074219-40.976563 10.824219-14.191406 21.925781-28.839844 30.535156-45.042969 25.925781 24.804688 43.441406 53.667969 50.753906 83.746094zm-26.175781-213.160156 37.875-.460938c5.015625-.058594 10.074219-.121094 15.15625-.195312 3.003906 16.40625 3.003906 33.628906-.027344 49.996094-.742187 4.011718-1.765625 8.035156-4.195312 10.292968-.378906.351563-.667969.757813-.914063 1.183594-17.222656-.679688-34.433593-2.453125-51.378906-4.242188 2.148437-18.007812 2.9375-36.84375 3.484375-56.574218zm123.699219 32.46875c.4375 5.398437.503906 11.53125-2.296875 16.035156-3.972656 6.386719-13.117188 8.582031-20.640625 9.78125-13.5 2.152344-27.15625 2.902344-40.84375 2.8125 1.507812-3.121094 2.332031-6.554688 2.957031-9.933594 3.148438-17.007812 3.246094-34.878906.320312-51.976562 15.09375-.257813 30.339844-.652344 45.445313-1.414063 2.214844-.113281 4.441406-.246093 6.667969-.425781 4.578125 11.222656 7.414062 23.03125 8.390625 35.121094zm16.511719-53.035156c-8.351563 6.597656-20.425782 7.726562-32.074219 8.3125-12.679688.640624-25.488281 1.015624-38.230469 1.273437 10.402344-44.820313 2.566406-94.140625-20.949219-133.730469 31.359375.308594 62.5625 2.582032 82.523438 26.207032 15.265625 18.0625 19.925781 40.816406 21.148437 56.726562.847656 11.054688.363282 31.113281-12.417968 41.210938zm0 0"/></svg>