<svg height="512pt" viewBox="-4 0 512 512.00042" width="512pt" xmlns="http://www.w3.org/2000/svg"><path d="m350.488281 505.949219c-38.148437 0-71.675781-1.289063-102.503906-3.933594l-5.320313-.453125 1.933594-4.976562c.894532-2.308594 1.28125-4.632813 1.5625-6.328126 4.335938-26.003906 3.582032-53.351562-2.179687-79.09375-.632813-2.824218-1.441407-5.746093-3.699219-7.632812-1.507812-1.261719-3.347656-1.875-5.628906-1.875-2.050782 0-4.441406.503906-7.101563 1.496094-3.980469 1.484375-8.019531 3.324218-11.929687 5.101562-9.652344 4.386719-18.730469 8.515625-28.070313 8.515625-2.671875 0-5.273437-.351562-7.730469-1.046875-12.011718-3.394531-21.15625-16.859375-20.824218-30.65625.308594-12.410156 7.332031-25.207031 18.78125-34.234375 6.964844-5.488281 14.597656-8.511719 21.5-8.511719 2.566406 0 5.011718.414063 7.257812 1.234376 3.285156 1.199218 6.15625 3.191406 9.191406 5.300781l.160157.113281c3.9375 2.746094 7.636719 5.328125 12.21875 6.324219 1.246093.273437 2.519531.410156 3.789062.410156 4.503907 0 9.03125-1.710937 13.097657-4.949219 4.78125-3.820312 8.460937-9.398437 10.097656-15.308594 2.828125-10.214843 1.230468-20.925781-.320313-31.28125l-.027343-.191406c-.203126-1.363281-.40625-2.726562-.589844-4.082031-1.742188-12.28125-2.550782-24.914063-2.394532-37.527344l.046876-4.054687 77.046874 2.011718c2.359376.070313 4.800782.140626 6.898438 1.140626 4.492188 2.164062 7.125 9.429687 3.582031 17.414062-1.285156 2.886719-3.011719 5.488281-4.839843 8.246094-2.140626 3.203125-4.332032 6.492187-5.699219 10.226562-3.429688 9.339844-1.027344 20.921875 6.117187 29.507813 7.648438 9.199219 18.632813 13.402343 26.5 15.3125 4.925782 1.195312 9.808594 1.800781 14.519532 1.800781 5.777343 0 11.234374-.90625 16.21875-2.6875 10.417968-3.734375 18.695312-11.566406 22.144531-20.957031 3.898437-10.617188 1.644531-21.953125-.535157-32.917969-1.125-5.632812-2.285156-11.449219-2.605468-17.160156-.113282-2.355469 0-4.160156.921875-5.59375 1.238281-1.953125 3.597656-2.75 7-3.394532l.101562-.019531c10.847657-1.984375 21.910157-2.992187 32.878907-2.992187 9.605468 0 19.3125.773437 28.847656 2.296875 3.28125.519531 6.699218 1.203125 9.144531 3.289062 2.492187 2.113281 3.679687 5.46875 4.515625 8.472657 2.332031 8.472656 2.890625 17.5625 3.261719 26.148437 1.347656 31.421875.496093 63.421875-.324219 94.367187l-.011719.402344c-.6875 26.195313-1.398437 53.277344-.78125 79.917969.210938 9.097656-.015625 17.085937-4.914062 22.703125-5.472657 6.289062-14.804688 7.121094-23.898438 7.429688-38.234375 1.3125-77.769531 2.675781-117.40625 2.675781zm0 0" fill="#ed6d66"/><path d="m375.929688 341.933594c-4.542969 0-9.265626-.585938-14.035157-1.746094-7.582031-1.84375-18.140625-5.882812-25.417969-14.648438-6.679687-8.023437-8.949218-18.8125-5.777343-27.480468 1.28125-3.476563 3.308593-6.527344 5.453125-9.753906 1.835937-2.773438 3.691406-5.566407 5.035156-8.601563 1.566406-3.519531 2.117188-7.609375 1.523438-11.230469-.695313-4.214844-2.789063-7.269531-6.0625-8.84375-2.535157-1.210937-5.371094-1.285156-7.875-1.347656l-72.585938-1.898438 1.640625-5.085937c.5625-1.746094.679687-3.582031.757813-4.792969 1.332031-21.625.273437-43.425781-3.148438-64.785156l-.199219-1.230469c-.78125-4.886719-1.519531-9.5-.882812-14.152343.285156-2.089844 1.6875-9.113282 7.636719-11.933594 1.507812-.71875 3.183593-1.082032 4.980468-1.082032 5.914063 0 11.457032 3.960938 13.566406 5.664063 1.777344 1.445313 3.445313 3.003906 5.058594 4.507813l.082032.074218c3.703124 3.441406 7.203124 6.691406 11.703124 8.765625 3.160157 1.460938 6.554688 2.199219 10.089844 2.199219 12.503906 0 24.21875-8.988281 30.277344-17.894531 9.917969-14.574219 11.945312-33.332031 5.167969-47.78125-6.125-13.074219-20.207031-22.207031-34.242188-22.207031-2.507812 0-4.976562.292968-7.332031.871093-3.753906.917969-7.300781 2.496094-10.730469 4.023438-3.085937 1.378906-6.191406 2.765625-9.398437 3.679687-2.152344.617188-4.460938.945313-6.671875.945313-5.296875 0-9.5-1.835938-11.839844-5.175781-1.730469-2.453126-2.371094-5.5-2.800781-9.320313-1.96875-17.214844.316406-34.8125 2.527344-51.828125l.074218-.570312c.453125-3.484376.90625-6.964844 1.320313-10.441407.132812-1.144531.316406-2.734375.195312-4.3125l-.335937-4.25 187.804687-2.730469c1.101563-.015624 2.214844-.027343 3.335938-.027343 11.972656 0 25.242187 1.207031 32.910156 10.164062 6.4375 7.523438 7.054687 18.253907 7.152344 29.519531l1.328125 153.617188c.121094 14.726562-1.265625 30.21875-2.609375 45.199219l-.066407.695312c-.292968 3.25-.59375 6.5625-.867187 9.863281l-.433594 5.25-4.941406-1.832031c-2.039063-.757812-4.21875-1.164062-6.082031-1.460937-9.632813-1.535156-19.433594-2.316406-29.136719-2.316406-11.101563 0-22.296875 1.019531-33.269531 3.03125-2.257813.410156-6.445313 1.167968-8.457032 4.324218-1.304687 2.039063-1.359374 4.464844-1.230468 6.785156.3125 5.757813 1.46875 11.601563 2.589844 17.25l.039062.195313c2.132812 10.671875 4.339844 21.714844.632812 31.828125-3.25 8.828125-11.070312 16.207031-20.925781 19.738281-4.761719 1.703125-9.984375 2.570313-15.527343 2.570313zm0 0" fill="#59bd8b"/><path d="m208.539062 255.660156c-13.304687 0-26.722656-.226562-39.878906-.667968-7.386718-.242188-11.558594-2.097657-12.742187-5.671876-.601563-1.824218-.265625-3.917968.1875-5.910156 1.097656-4.71875 2.769531-9.273437 4.386719-13.675781 1.984374-5.433594 4.039062-11.058594 5.042968-16.914063 2.808594-16.511718-3.484375-33.746093-16.035156-43.910156-7.457031-6.035156-17.015625-9.359375-26.914062-9.359375-6.871094 0-13.503907 1.648438-19.171876 4.765625-14.617187 8.046875-22.703124 26.007813-18.8125 41.777344 1.789063 7.25 5.773438 13.667969 9.625 19.871094l-3.335937 2.207031 3.398437-2.113281c2.445313 3.933594 4.757813 7.644531 6.640626 11.667968 1.316406 2.738282 1.75 4.746094 1.378906 6.472657-.945313 4.476562-6.9375 6-11.792969 6.484375-12.394531 1.242187-25.019531 1.871094-37.527344 1.871094-12.808593 0-25.738281-.660157-38.429687-1.964844l-3.398438-.347656-.195312-3.59375c-.910156-18.351563-1.9375-39.132813-2.769532-59.148438-1.761718-42.066406-2.398437-74.539062-2.066406-105.289062.203125-18.675782.75-35.867188 1.675782-52.558594.066406-1.089844.082031-2.1875.097656-3.25l.007812-.542969c.070313-5.316406.136719-10.34375 4.117188-13.898437 4.125-3.695313 10.265625-4.3125 16.285156-4.425782l.273438-.003906c40.003906-.734375 81.375-1.492188 122.574218-1.492188 36.785156 0 69.273438.609376 99.320313 1.855469 4.183593.179688 9.195312.835938 10.917969 4.398438.84375 1.789062.679687 3.894531.402343 6.265625-.359375 3.050781-.75 6.082031-1.144531 9.113281l-.246094 1.902344c-2.226562 17.140625-4.527344 34.859375-2.539062 52.324219.472656 4.128906 1.1875 7.457031 3.160156 10.269531 1 1.425781 4.941406 6.097656 13.445312 6.097656 2.320313 0 4.773438-.367187 7.296876-1.089844 3.316406-.941406 6.492187-2.359375 9.5625-3.730469 3.375-1.503906 6.855468-3.054687 10.484374-3.945312 2.1875-.539062 4.480469-.8125 6.820313-.8125 13.292969 0 26.625 8.644531 32.425781 21.027344 6.476563 13.820312 4.511719 31.785156-5.007812 45.769531-6.902344 10.148437-18.398438 16.972656-28.601563 16.972656-3.265625 0-6.367187-.667969-9.21875-1.984375-4.214843-1.9375-7.589843-5.074218-11.164062-8.394531l-.089844-.082031c-1.726563-1.613282-3.40625-3.167969-5.167969-4.601563-4.859375-3.933593-10.144531-6.101562-14.871094-6.101562-2.105468 0-4.066406.425781-5.835937 1.265625-4.636719 2.199218-7.917969 7.246094-8.773437 13.496094-.6875 4.996093.125 10.015624.90625 14.871093l.179687 1.089844c3.394531 21.226563 4.445313 42.875 3.125 64.363281-.175781 2.976563-.558594 5.121094-1.9375 6.566406-1.546875 1.589844-3.84375 1.964844-7.296875 2.082032-12.828125.421875-25.867188.632812-38.773438.632812zm0 0" fill="#f9d889"/><path d="m180.285156 504.847656c-22.242187 0-44.578125-.761718-66.183594-1.5l-78.03125-2.667968c-9.597656-.324219-19.109374-1.570313-23.695312-8.410157-2.585938-3.867187-3.011719-8.535156-3.304688-14.230469-3.710937-73.464843-3.589843-148.058593.359376-221.710937l.226562-4.226563s4.582031.507813 4.742188.527344c12.734374 1.308594 25.710937 1.96875 38.566406 1.96875 12.582031 0 25.285156-.632812 37.75-1.882812 5.535156-.554688 12.382812-2.40625 13.585937-8.089844.589844-2.742188-.441406-5.464844-1.523437-7.769531-1.941406-4.140625-4.398438-8.085938-6.773438-11.90625-3.964844-6.367188-7.707031-12.378907-9.421875-19.351563-3.625-14.648437 4.203125-31.996094 17.816407-39.488281 5.410156-2.984375 11.71875-4.558594 18.238281-4.558594 9.371093 0 18.457031 3.175781 25.574219 8.945313 11.8125 9.5625 17.964843 26.433594 15.304687 41.980468-.949219 5.605469-2.863281 10.851563-4.886719 16.402344l-.054687.152344c-1.644531 4.480469-3.339844 9.105469-4.453125 13.914062-.503906 2.164063-.914063 4.6875-.132813 7.019532 1.46875 4.414062 6.382813 6.792968 14.609375 7.070312 13.359375.441406 26.777344.667969 39.875.667969 12.261719 0 24.757813-.199219 37.136719-.585937l4.195313-.132813-.070313 4.195313c-.21875 13.058593.585937 26.1875 2.390625 39.019531l.628906 4.277343c1.585938 10.628907 3.078125 20.648438.367188 30.425782-2.558594 9.222656-11.210938 18.765625-21.269532 18.765625-1.109374 0-2.222656-.121094-3.304687-.359375-4.207031-.921875-7.910156-3.503906-11.492187-6.003906-3.046876-2.136719-6.191407-4.339844-9.820313-5.664063-2.4375-.886719-5.089844-1.335937-7.886719-1.335937-7.421875 0-15.527344 3.167968-22.828125 8.917968-11.933593 9.414063-19.246093 22.792969-19.558593 35.796875-.367188 14.921875 9.222656 28.964844 22.300781 32.664063 2.710937.765625 5.433593 1.140625 8.316406 1.140625 9.714844 0 19.433594-4.421875 28.835937-8.695313l.207032-.09375c4-1.816406 7.78125-3.53125 11.648437-4.972656 2.441407-.910156 4.578125-1.371094 6.34375-1.371094 1.78125 0 3.25.476563 4.359375 1.414063 1.761719 1.464843 2.453125 4.007812 3.007813 6.484375 5.714843 25.492187 6.464843 52.570312 2.167969 78.328125-.625 3.738281-1.53125 7.929687-4.371094 10.378906-2.644532 2.304687-6.441406 2.738281-10.425782 3.007813-14.921874 1.039062-30.972656 1.542968-49.066406 1.542968zm0 0" fill="#5bd0fc"/><path d="m503.855469 298.195312c-.378907-8.910156-.960938-18.371093-3.476563-27.492187-.53125-1.929687-1.253906-4.125-2.363281-6.242187.0625-.253907.113281-.511719.136719-.78125.421875-5.566407.941406-11.371094 1.449218-16.980469 1.367188-15.171875 2.777344-30.867188 2.648438-45.941407l-1.320312-153.625c-.109376-12.417968-.847657-24.3125-8.609376-33.386718-10.015624-11.703125-26.378906-12.457032-40.921874-12.25l-188.820313 2.742187c-.3125.003907-.617187.046875-.914063.105469-3.960937-2.179688-8.667968-2.386719-10.929687-2.480469-74.210937-3.085937-149.613281-1.703125-222.535156-.363281-7.183594.128906-14.601563.945312-20.210938 5.960938-5.941406 5.3125-6.039062 12.527343-6.121093 18.324218-.015626 1.230469-.03125 2.394532-.09375 3.527344-.9375 16.921875-1.488282 34.207031-1.6914068 52.835938-.3281252 30.75.3085938 63.316406 2.0703128 105.601562.820312 19.738281 1.8125 39.789062 2.773437 59.183594l.019531.367187c.019532.386719.046876.875.109376 1.414063-.820313.84375-1.367188 1.964844-1.4375 3.234375-4.183594 75.097656-4.375 151.269531-.574219 226.390625.25 4.953125.59375 11.730468 4.308593 17.28125 6.09375 9.105468 17.304688 10.714844 28.511719 11.097656l77.847657 2.660156c21.875.75 44.171874 1.511719 66.546874 1.511719 16.515626 0 33.074219-.417969 49.523438-1.558594 3.398438-.238281 6.90625-.617187 10.097656-2.035156.25.066406.507813.128906.777344.152344 36.347656 3.394531 72.996094 4.550781 109.535156 4.550781 39.625 0 79.117188-1.359375 117.914063-2.695312 9.953125-.34375 21.167969-1.386719 28.238281-9.496094 6.84375-7.84375 6.585938-18.804688 6.398438-26.808594-.621094-26.609375.097656-53.738281.792968-79.972656.824219-31.0625 1.671875-63.183594.320313-94.832032zm-52.3125-286.660156c12.261719-.179687 25.960937.335938 33.148437 8.738282 5.566406 6.503906 6.109375 16.457031 6.199219 26.945312l1.320313 153.625c.128906 14.582031-1.261719 30.023438-2.609376 44.957031-.308593 3.433594-.621093 6.9375-.917968 10.429688-2.289063-.847657-4.648438-1.308594-6.835938-1.65625-21.195312-3.386719-42.644531-3.140625-63.757812.726562-2.652344.488281-8.167969 1.5-11.113282 6.113281-1.910156 2.988282-2.007812 6.308594-1.851562 9.164063.332031 6.09375 1.539062 12.144531 2.703125 17.996094 2.113281 10.613281 4.109375 20.636719.796875 29.667969-2.835938 7.722656-9.757812 14.210937-18.519531 17.351562-7.972657 2.859375-17.40625 3.105469-27.269531.707031-6.980469-1.695312-16.683594-5.382812-23.28125-13.3125-5.792969-6.960937-7.792969-16.207031-5.09375-23.558593 1.113281-3.039063 3.023437-5.910157 5.042968-8.949219 1.894532-2.847657 3.855469-5.796875 5.34375-9.15625 1.871094-4.210938 2.53125-9.132813 1.8125-13.5-.90625-5.484375-3.847656-9.671875-8.289062-11.800781-3.292969-1.578126-6.730469-1.667969-9.488282-1.742188l-67.246093-1.761719c.710937-2.191406.851562-4.335937.9375-5.765625 1.351562-21.90625.28125-44-3.183594-65.671875l-.179687-1.117187c-.746094-4.621094-1.453126-8.988282-.890626-13.085938.449219-3.265625 2.097657-7.304687 5.382813-8.867187 4.316406-2.046875 10.226563.769531 14.320313 4.085937 1.628906 1.320313 3.191406 2.773438 4.84375 4.316406 3.796874 3.53125 7.71875 7.183594 12.84375 9.550782 16.667968 7.683594 35.804687-3.0625 45.347656-17.082032 10.691406-15.710937 12.84375-36.015624 5.480468-51.726562-8.214843-17.53125-28.492187-27.867188-46.152343-23.523438-4.128907 1.011719-7.871094 2.683594-11.492188 4.296876-3.019531 1.34375-5.871093 2.617187-8.777343 3.445312-4.917969 1.40625-11.445313 1.167969-14.144532-2.675781-1.238281-1.765625-1.734375-4.265625-2.101562-7.480469-1.902344-16.710938.347656-34.070312 2.527344-50.859375.480468-3.6875.957031-7.375 1.394531-11.054687.164062-1.382813.363281-3.175782.207031-5.101563zm-441.421875 70.722656c.199218-18.480468.746094-35.617187 1.675781-52.390624.074219-1.339844.089844-2.664063.109375-3.945313.074219-5.332031.246094-8.71875 2.773438-10.980469 3.167968-2.832031 8.457031-3.308594 13.703124-3.40625 72.773438-1.335937 148.027344-2.714844 221.933594.355469 5.441406.226563 7.070313 1.289063 7.476563 2.140625.414062.871094.183593 2.804688.03125 4.082031-.433594 3.644531-.90625 7.296875-1.378907 10.949219-2.257812 17.386719-4.59375 35.363281-2.546874 53.289062.464843 4.101563 1.257812 8.40625 3.855468 12.109376 3.707032 5.28125 12.511719 10.167968 25.121094 6.566406 3.589844-1.027344 6.902344-2.503906 10.105469-3.929688 3.363281-1.5 6.542969-2.917968 9.796875-3.71875 12.96875-3.183594 28.519531 4.90625 34.671875 18.035156 5.886719 12.566407 4.042969 28.980469-4.695313 41.816407-7.320312 10.761719-21.609375 18.792969-32.839844 13.613281-3.664062-1.6875-6.839843-4.648438-10.203124-7.78125-1.707032-1.589844-3.472657-3.230469-5.367188-4.765625-8.378906-6.789063-17.703125-8.792969-24.941406-5.359375-5.863282 2.785156-9.988282 8.980469-11.03125 16.574219-.765625 5.582031.097656 10.90625.929687 16.050781l.175781 1.101562c3.347657 20.941407 4.382813 42.296876 3.078126 63.46875-.0625 1.015626-.210938 3.390626-.839844 4.042969-.695313.726563-3.398438.8125-4.550782.851563-26.003906.851562-52.367187.839844-78.363281-.03125-5.210937-.175782-8.519531-1.246094-9.085937-2.941406-.300782-.898438 0-2.480469.292968-3.761719 1.015626-4.394531 2.578126-8.664063 4.234376-13.1875 2.050781-5.609375 4.171874-11.410157 5.230468-17.613281 3.050782-17.90625-3.800781-36.625-17.457031-47.691407-8.335937-6.753906-18.941406-10.25-29.425781-10.25-7.371094 0-14.683594 1.726563-21.101563 5.261719-16.15625 8.890625-25.085937 28.769531-20.773437 46.234375 1.949218 7.890625 6.121094 14.597656 10.152344 21.085937 2.390624 3.839844 4.648437 7.46875 6.441406 11.285157.363281.773437 1.328125 2.828125 1.089844 3.941406-.332032 1.5625-3.582032 2.875-8.285157 3.34375-24.9375 2.5-50.222656 2.46875-75.152343-.085937 0-.003907 0-.003907 0-.003907l-.007813-.179687c-.960937-19.371094-1.953125-39.402344-2.773437-59.105469-1.75-42.097656-2.382813-74.503906-2.058594-105.070313zm218.960937 417.058594c-38.21875 2.652344-77.269531 1.320313-115.03125.03125l-77.847656-2.664062c-8.535156-.289063-16.929687-1.296875-20.507813-6.644532-2.011718-3.007812-2.367187-7.128906-2.625-12.207031-3.714843-73.425781-3.589843-147.851562.355469-221.285156.179688.019531.359375.039063.507813.054687 25.605468 2.628907 51.570312 2.660157 77.179687.09375 12.421875-1.246093 16.15625-6.800781 17.101563-11.242187.835937-3.917969-.535156-7.5625-1.824219-10.300781-2.039063-4.351563-4.5625-8.402344-7-12.320313-3.785156-6.09375-7.363281-11.84375-8.929687-18.191406-3.207032-12.980469 3.761718-28.371094 15.863281-35.03125 12.074219-6.648437 28.261719-5.007813 39.367187 3.992187 10.71875 8.683594 16.296875 24.035157 13.882813 38.203126-.902344 5.300781-2.777344 10.425781-4.765625 15.851562-1.683594 4.609375-3.429688 9.378906-4.582032 14.378906-.628906 2.71875-1.125 5.9375-.035156 9.195313 2.054688 6.164062 8.199219 9.460937 18.269532 9.800781 13.277343.441406 26.640624.667969 40.007812.667969 12.449219 0 24.894531-.199219 37.261719-.585938-.21875 13.222657.589843 26.546875 2.4375 39.640625.203125 1.425782.414062 2.859375.628906 4.292969 1.519531 10.191406 2.953125 19.816406.464844 28.789063-2.457031 8.878906-11.226563 17.453124-19.859375 15.5625-3.421875-.75-6.644532-3-10.054688-5.378907-3.277344-2.289062-6.667968-4.652343-10.746094-6.136719-10.34375-3.769531-23.265624-.703124-34.5625 8.203126-12.855468 10.136718-20.738281 24.652343-21.078124 38.832031-.402344 16.699219 10.4375 32.4375 25.214843 36.613281 14.085938 3.976562 27.222657-2 39.925781-7.773438 3.996094-1.820312 7.769532-3.535156 11.558594-4.945312 3.257813-1.214844 5.777344-1.457031 6.738282-.648438.886718.742188 1.40625 3.074219 1.6875 4.328126 5.59375 24.976562 6.324218 51.523437 2.117187 76.769531-.507813 3.042969-1.203125 6.421875-3.042969 8.015625-1.707031 1.484375-4.792968 1.808594-8.078125 2.039062zm264.417969-106.554687c-.699219 26.359375-1.417969 53.613281-.792969 80.472656.191407 8.242187.03125 15.4375-3.929687 19.976563-4.425782 5.078124-12.808594 5.777343-21.015625 6.058593-72.039063 2.484375-146.453125 5.019531-219.433594-1.238281 1.035156-2.683594 1.476563-5.3125 1.78125-7.117188 4.417969-26.511718 3.648437-54.386718-2.222656-80.617187-.75-3.339844-1.816407-7.128906-5.042969-9.832031-3.988281-3.339844-9.601562-3.699219-16.683594-1.058594-4.121094 1.53125-8.234375 3.402344-12.210937 5.210938-11.570313 5.261718-22.496094 10.234374-33.042969 7.253906-10.332031-2.917969-18.199219-14.648438-17.90625-26.707032.273438-11.226562 6.722656-22.886718 17.257812-31.191406 8.542969-6.738281 17.859376-9.226562 24.910157-6.65625 2.847656 1.039063 5.5625 2.933594 8.4375 4.9375 4.070312 2.839844 8.277343 5.773438 13.652343 6.953125 6.855469 1.5 14.042969-.390625 20.234376-5.328125 5.417968-4.324218 9.589843-10.652344 11.449218-17.363281 3.054688-11.027344 1.394532-22.167969-.210937-32.945313-.210938-1.410156-.421875-2.816406-.617188-4.21875-1.722656-12.203124-2.507812-24.613281-2.359375-36.941406l72.863282 1.90625c1.992187.050782 4.054687.105469 5.417968.757813 3.324219 1.59375 3.605469 7.738281 1.636719 12.171875-1.144531 2.585937-2.789063 5.054687-4.53125 7.671875-2.253906 3.390625-4.582031 6.898437-6.105469 11.050781-3.910156 10.652344-1.238281 23.777344 6.800782 33.4375 8.351562 10.039062 20.175781 14.59375 28.628906 16.648438 11.78125 2.859374 23.199218 2.507812 33.027344-1.015626 11.527343-4.132812 20.707031-12.859374 24.554687-23.339843 4.285156-11.683594 1.917969-23.582031-.371094-35.089844-1.148437-5.757813-2.230469-11.199219-2.527343-16.582031-.03125-.632813-.136719-2.546875.285156-3.214844.597656-.929688 3.507812-1.464844 4.464844-1.636719 19.988281-3.664062 40.296874-3.894531 60.363281-.6875 2.726562.433594 5.53125.976563 7.179687 2.378907 1.699219 1.445312 2.636719 4.234374 3.261719 6.5 2.230469 8.105468 2.765625 16.921874 3.125 25.253906 1.335937 31.304687.488281 63.25-.328125 94.140625zm0 0"/></svg>