<svg height="512pt" viewBox="-16 0 512 512.00168" width="512pt" xmlns="http://www.w3.org/2000/svg"><path d="m300.027344 505.960938c-85.539063 0-171.53125-4.609376-254.691406-9.070313l-.144532-.007813c-8.695312-.472656-17.648437-.957031-25.554687-4.746093-7.113281-3.421875-14.066407-10.832031-13.574219-19.683594.34375-6.042969 4.453125-12.199219 10.722656-16.070313 5.894532-3.632812 12.890625-5.144531 19.574219-6.242187 15.925781-2.625 32.0625-3.375 49.992187-4.019531 28.679688-1.039063 58.171876-1.816406 87.65625-2.3125 25.117188-.417969 50.699219-.628906 76.039063-.628906 26.183594 0 52.796875.226562 79.109375.679687 26.070312.457031 52.164062 1.132813 77.550781 2.011719 2.867188.101562 5.8125.125 8.933594.152344l.839844.007812c16.9375.132812 36.09375.289062 48.789062 10.742188 7.851563 6.449218 11.492188 16.808593 8.851563 25.1875-2.046875 6.507812-7.96875 12.257812-15.839844 15.375-6.910156 2.753906-14.175781 3.457031-22.953125 4.09375-42.125 3.046874-86.382813 4.53125-135.300781 4.53125zm0 0" fill="#c67045"/><path d="m45.070312 445.964844c-7.332031-4.515625-10.796874-19.242188-8.390624-27.683594 2.289062-7.972656 8.851562-15.074219 18.011718-19.484375 8.40625-4.054687 17.910156-5.566406 26.925782-6.773437 40.089843-5.363282 80.484374-6.085938 114.714843-6.085938 12.980469 0 25.996094.117188 38.582031.230469l1.960938.019531c11.839844.105469 24.082031.210938 36.101562.210938 7.542969 0 15.085938-.03125 22.628907-.070313 7.082031-.035156 14.207031-.066406 21.363281-.066406 30.121094 0 62.347656.566406 93.886719 4.691406 13.230469 1.730469 26.601562 4.628906 34.832031 14.019531 4.671875 5.34375 6.984375 12.875 6.347656 20.664063-.597656 7.238281-3.742187 13.964843-8.625 18.464843l-1.375 1.265626-1.847656-.242188c-7.863281-1.015625-15.910156-1.078125-23.691406-1.136719l-.820313-.003906c-3.113281-.027344-6.054687-.054687-8.902343-.15625-25.960938-.886719-52.066407-1.5625-77.574219-2.007813-26.167969-.453124-52.804688-.679687-79.167969-.679687-25.371094 0-50.957031.210937-76.046875.628906-29 .488281-58.511719 1.265625-87.703125 2.308594-13.222656.480469-26.128906 1.027344-38.660156 2.457031l-1.375.15625zm0 0" fill="#f9d889"/><path d="m61.65625 389.0625c-.015625-.160156-.050781-.296875-.105469-.402344-7.738281-15.097656-8.890625-27.628906-3.332031-36.222656 5.644531-8.726562 16.964844-11.792969 27.292969-13.644531 29.140625-5.195313 59.085937-5.933594 84.871093-6.214844 7.898438-.085937 16.101563-.128906 24.386719-.128906 39.800781 0 80.191407 1.003906 121.515625 2.121093l.765625.019532c19.839844.546875 42.328125 1.164062 64.019531 2.75 9.90625.71875 19.554688 1.644531 28.664063 5.003906 10.0625 3.707031 17.722656 10.054688 21.574219 17.878906 3.777344 7.671875 2.042968 21.960938-3.566406 29.394532l-1.566407 2.074218-2.53125-.585937c-3.613281-.839844-7.707031-1.550781-12.515625-2.167969-31.625-4.144531-63.894531-4.71875-94.050781-4.71875-7.167969 0-14.296875.035156-21.386719.070312l-.136718-4 .023437 4c-6.75.035157-13.492187.070313-20.246094.070313h-2.347656c-12.007813 0-24.25-.109375-36.085937-.214844l-1.964844-.015625c-12.578125-.113281-25.585938-.234375-38.542969-.234375-34.308594 0-74.808594.726563-115.042969 6.109375-4.742187.628906-9.8125 1.371094-14.78125 2.554688l-4.460937 1.0625zm0 0" fill="#ed6d66"/><path d="m397.691406 337.121094c-5.488281-.941406-11.160156-1.425782-16.472656-1.8125-22.191406-1.625-44.871094-2.234375-64.878906-2.769532-41.523438-1.125-82.082032-2.128906-121.738282-2.128906-8.234374 0-16.390624.042969-24.238281.128906-25.496093.277344-55.125 1-84.15625 6.070313l-3.203125.5625-1.351562-3.394531-.039063-.199219c-4.539062-13.238281-8.757812-28.320313-2.039062-40.25 7.351562-13.03125 24.621093-16.621094 38.847656-18.289063 31.453125-3.707031 63.671875-4.503906 94.832031-5.273437l.507813-.011719c27.492187-.671875 55.914062-1.367187 84.015625-1.367187 3.964844 0 7.917968.015625 11.871094.042969 17.382812.132812 37.574218.539062 57.273437 3.742187 7.863281 1.277344 16.976563 3.1875 24.914063 7.675781 8.234374 4.660156 14.039062 11.695313 15.933593 19.304688 1.523438 6.089844.652344 12.648437-.113281 18.4375-.941406 7.046875-2.128906 13.726562-6.347656 18.300781l-1.472656 1.601563zm0 0" fill="#5bd0fc"/><path d="m108.9375 271.375c-4.375-9.605469-5.476562-20.542969-3.105469-30.796875 1.5-6.554687 4.203125-11.710937 8.019531-15.316406 4.9375-4.636719 11.777344-6.691407 17.800782-8.253907 22.660156-5.878906 45.742187-8.15625 73.433594-9.769531 26.46875-1.539062 53.378906-2.316406 79.980468-2.316406 9.667969 0 19.433594.105469 29.027344.308594 14.480469.308593 27.457031.9375 39.636719 5.546875 13.859375 5.246094 23.886719 15.34375 26.824219 27.015625 2.304687 9.113281.367187 20.101562-5.453126 30.941406l-1.378906 2.566406-2.871094-.527343c-1.214843-.222657-2.410156-.425782-3.582031-.613282-19.738281-3.210937-40.082031-3.628906-57.605469-3.769531-3.945312-.027344-7.902343-.042969-11.859374-.042969-28.449219 0-56.917969.703125-84.449219 1.382813-31.230469.765625-63.527344 1.5625-95.171875 5.285156-1.925782.226563-3.523438.4375-5.015625.660156l-2.980469.445313zm0 0" fill="#59bd8b"/><path d="m138.351562 209.277344c-.050781-.230469-.097656-.308594-.097656-.308594-5.808594-9.480469-3.5-21.0625-1.605468-27.125 2.488281-7.9375 6.503906-14.296875 11.605468-18.386719 5.472656-4.375 12.410156-6.457031 18.476563-7.917969 15.519531-3.738281 31.3125-4.800781 43.339843-5.304687 6.929688-.296875 13.972657-.449219 20.925782-.449219 30.949218 0 62.046875 2.945313 92.441406 8.753906 6.519531 1.242188 14.066406 2.800782 21.054688 5.570313 4.917968 1.957031 8.058593 4.019531 10.1875 6.679687 1.886718 2.324219 3.191406 5.496094 3.859374 9.417969 1.476563 8.585938-.636718 18.003907-5.652343 25.183594l-1.621094 2.316406-2.722656-.75c-10.996094-3.035156-23.027344-3.523437-34.410157-3.769531-9.59375-.203125-19.351562-.304688-29.011718-.304688-26.707032 0-53.675782.78125-80.152344 2.320313-19.976562 1.164063-41.300781 2.824219-61.914062 7.074219l-3.808594.785156zm0 0" fill="#288fc9"/><path d="m325.789062 156.917969c-.539062-.113281-1.078124-.214844-1.613281-.320313l-.375-.074218c-30.492187-5.824219-61.722656-8.777344-92.808593-8.777344-6.980469 0-14.050782.152344-21.015626.449218-11.078124.464844-25.679687 1.40625-40.433593 4.613282l-3.183594.691406-1.320313-2.980469c-.136718-.308593-.289062-.417969-.339843-.453125-6.203125-4.488281-9.144531-13.453125-7.132813-21.785156 1.769532-7.34375 7.160156-14.296875 14.785156-19.074219 6.078126-3.796875 13.351563-6.367187 23.585938-8.335937 10.957031-2.097656 22.71875-3.117188 35.96875-3.117188 11.84375 0 22.992188.828125 31.382812 1.550782 15.824219 1.371093 33.910157 3.613281 48.273438 12.882812 12.804688 8.273438 23.765625 25.792969 18.859375 41.972656l-1.058594 3.496094zm0 0" fill="#f9d889"/><path d="m272.070312 98.121094c-2.964843-.339844-5.886718-.609375-8.605468-.847656-8.390625-.726563-19.5625-1.558594-31.515625-1.558594-6.617188 0-13.003907.261718-18.988281.777344l-4.554688.394531 2.496094-53.246094c.273437-5.800781.554687-11.695313 2.433594-17.136719 4.101562-11.863281 16.375-20.46875 29.175781-20.46875l.449219.003906c12.597656.214844 25.046874 9.058594 29.605468 21.023438 2.800782 7.324219 2.953125 15.324219 3.101563 23.058594l.949219 48.523437zm0 0" fill="#c67045"/><path d="m469.105469 452.101562c-5.09375-4.191406-10.9375-6.910156-17.152344-8.6875 3.425781-4.921874 5.578125-10.90625 6.101563-17.28125.773437-9.410156-2.082032-18.570312-7.828126-25.132812-4.355468-4.976562-9.777343-8.34375-15.746093-10.726562 5.296875-9.492188 6.605469-23.847657 2.242187-32.71875-4.53125-9.210938-13.375-16.625-24.898437-20.878907-.976563-.359375-1.964844-.6875-2.957031-1 2.910156-5.160156 3.976562-11.285156 4.769531-17.269531.796875-6.011719 1.792969-13.496094-.003907-20.710938-2.292968-9.214843-9.15625-17.640624-18.824218-23.105468-4.238282-2.398438-8.714844-4.113282-13.148438-5.40625 4.308594-8.796875 7.839844-20.628906 4.757813-32.863282-3.167969-12.570312-13.183594-23.480468-27.097657-29.75 4.914063-8.164062 6.800782-17.957031 5.175782-27.394531-.847656-4.921875-2.566406-9.023437-5.113282-12.183593-3.671874-4.570313-8.988281-7.035157-12.667968-8.496094-3.398438-1.347656-6.878906-2.410156-10.308594-3.300782 5.320312-18.992187-6.679688-38.46875-21.566406-48.078124-9.875-6.375-21.117188-9.648438-32.238282-11.558594l-.894531-45.558594c-.15625-7.871094-.332031-16.792969-3.496093-25.085938-5.5-14.40625-19.949219-24.648437-35.144532-24.91015575-15.515625-.28125025-30.425781 10.04687475-35.433594 24.52734375-2.171874 6.289062-2.484374 12.949219-2.761718 18.824219l-2.359375 50.316406c-2.566407.367187-5.132813.78125-7.703125 1.273437-10.992188 2.105469-18.902344 4.925782-25.652344 9.144532-8.949219 5.597656-15.3125 13.894531-17.457031 22.769531-2.171875 8.992187.28125 18.625 6.007812 24.964844-4.546875 1.539062-9.15625 3.667969-13.21875 6.917969-6.136719 4.910156-10.710937 12.074218-13.601562 21.304687-3.582031 11.457031-3.085938 22.242187 1.371093 30.589844-.707031.179687-1.414062.347656-2.121093.53125-7.246094 1.878906-14.730469 4.355469-20.410157 9.691406-4.703124 4.417969-7.996093 10.597656-9.785156 18.367187-2.488281 10.800782-1.5625 22.207032 2.558594 32.46875-11.3125 2.835938-22.210938 8.074219-28.183594 18.667969-7.808594 13.847657-3.535156 30.105469 1.324219 44.40625-8.816406 2.375-17.304687 6.378907-22.488281 14.390625-6.804688 10.511719-5.757813 25.128906 3.027344 42.269532.023437.042968.054687.078124.078124.121093-1.410156.542969-2.808593 1.136719-4.183593 1.800781-10.722657 5.164063-18.449219 13.644532-21.195313 23.269532-1.535156 5.367187-1.273437 12.546875.695313 19.199218.933593 3.160157 2.183593 5.976563 3.683593 8.382813-7.261718 1.203125-14.902343 2.894531-21.636718 7.042969-8.042969 4.960937-13.121094 12.757812-13.5859378 20.867187-.6601562 11.648438 8.0585938 21.183594 16.9921878 25.46875 9.007812 4.320313 19.011718 4.855469 27.839844 5.328125 83.78125 4.496094 169.417968 9.089844 255.128906 9.089844 45.320312 0 90.675781-1.285156 135.765625-4.546875 7.320312-.53125 16.429687-1.191406 24.753906-4.496094 9.675781-3.847656 16.738281-10.835937 19.367187-19.179687 3.417969-10.828125-.914062-23.558594-10.777343-31.675782zm-254.207031-408.277343c.257812-5.453125.519531-11.089844 2.222656-16.011719 3.570312-10.320312 14.644531-17.957031 25.773437-17.769531 11.019531.191406 21.929688 7.949219 25.9375 18.453125 2.542969 6.65625 2.691407 14.304687 2.835938 21.699218l.863281 43.953126c-2.957031-.335938-5.875-.613282-8.71875-.859376-15.507812-1.335937-33.125-2.339843-51.195312-.777343zm-53.441407 85.390625c1.53125-6.339844 6.277344-12.394532 13.023438-16.613282 5.648437-3.53125 12.5-5.9375 22.21875-7.796874 22.929687-4.390626 46.355469-3.230469 66.25-1.511719 15.332031 1.320312 32.828125 3.46875 46.445312 12.257812 11.613281 7.496094 21.539063 23.136719 17.199219 37.445313-.679688-.132813-1.359375-.265625-2.023438-.390625-37.75-7.214844-76.359374-10.046875-114.761718-8.410157-11.449219.488282-26.246094 1.472657-41.113282 4.707032-.347656-.792969-.882812-1.511719-1.632812-2.058594-4.941406-3.585938-7.25-10.835938-5.605469-17.628906zm-19.800781 77.652344c-4.976562-8.132813-2.878906-18.417969-1.1875-23.824219 2.25-7.183594 5.808594-12.875 10.289062-16.460938 4.84375-3.875 11.261719-5.789062 16.90625-7.148437 15.148438-3.652344 30.710938-4.703125 42.574219-5.207032 37.625-1.605468 75.460938 1.167969 112.449219 8.238282 6.34375 1.210937 13.671875 2.726562 20.324219 5.363281 4.226562 1.675781 6.863281 3.359375 8.550781 5.457031 1.460938 1.816406 2.484375 4.371094 3.035156 7.59375 1.3125 7.621094-.554687 15.875-4.992187 22.222656-11.265625-3.117187-23.183594-3.652343-35.390625-3.914062-36.351563-.769531-73.183594-.089844-109.476563 2.023438-23.167969 1.347656-43.179687 3.167968-62.496093 7.148437-.117188-.511719-.296876-1.019531-.585938-1.492187zm-31.933594 34.609374c1.335938-5.792968 3.648438-10.269531 6.878906-13.304687 4.234376-3.980469 10.507813-5.847656 16.054688-7.289063 22.363281-5.800781 45.222656-8.054687 72.664062-9.648437 36.03125-2.097656 72.597657-2.773437 108.683594-2.007813 14.097656.300782 26.714844.902344 38.308594 5.289063 12.636719 4.78125 21.746094 13.847656 24.367188 24.253906 2.0625 8.191407.246093 18.105469-5.105469 28.074219-1.25-.230469-2.480469-.441406-3.679688-.636719-20.074219-3.265625-40.566406-3.679687-58.195312-3.816406-32.171875-.242187-64.828125.558594-96.445313 1.335937-31.335937.769532-63.742187 1.566407-95.539062 5.308594-1.679688.199219-3.398438.425782-5.140625.6875-4.003907-8.808594-5.023438-18.808594-2.851563-28.246094zm-26.660156 53.816407c6.457031-11.453125 22.539062-14.71875 35.828125-16.285157 31.332031-3.6875 63.5-4.480468 94.640625-5.246093 31.503906-.773438 64.085938-1.574219 96.089844-1.328125 17.257812.128906 37.289062.53125 56.660156 3.683594 7.515625 1.222656 16.195312 3.035156 23.585938 7.214843 7.277343 4.113281 12.390624 10.234375 14.023437 16.792969 1.332031 5.359375.515625 11.523438-.207031 16.960938-.84375 6.375-1.902344 12.398437-5.316406 16.097656-5.648438-.972656-11.339844-1.464844-16.855469-1.867188-22.113281-1.613281-44.929688-2.234375-65.0625-2.777344-51.835938-1.402343-98.609375-2.523437-146.128907-2-25.722656.28125-55.558593 1.019532-84.804687 6.128907-.015625-.050781-.019531-.105469-.039063-.15625-4.285156-12.476563-8.359374-26.671875-2.414062-37.21875zm-17.949219 91.558593c-4.917969-9.601562-9.523437-22.984374-3.535156-32.238281 4.824219-7.453125 15.160156-10.1875 24.632813-11.878906 28.832031-5.148437 58.589843-5.878906 84.21875-6.160156 47.347656-.515625 94.015624.601562 145.746093 2 20.023438.542969 42.71875 1.15625 64.605469 2.753906 9.625.703125 18.980469 1.597656 27.566406 4.765625 9.097656 3.359375 15.976563 9 19.367188 15.894531 3.175781 6.460938 1.441406 19.117188-3.164063 25.222657-4.230469-.984376-8.578125-1.679688-12.910156-2.246094-38.539063-5.039063-77.953125-4.851563-116.066406-4.671875-7.53125.039062-15.054688.078125-22.589844.070312-12.65625-.003906-25.550781-.121093-38.019531-.234375-50.644532-.457031-103.011719-.929687-154.152344 5.90625-4.976562.667969-10.101562 1.429688-15.175781 2.640625-.054688-.621093-.222657-1.238281-.523438-1.824219zm-24.582031 32.527344c1.960938-6.875 7.757812-13.0625 15.898438-16.984375 7.875-3.792969 17.023437-5.246093 25.714843-6.410156 50.433594-6.742187 102.4375-6.273437 152.734375-5.816406 12.488282.113281 25.402344.230469 38.101563.234375 7.546875 0 15.09375-.03125 22.644531-.070313 37.777344-.179687 76.847656-.367187 114.714844 4.585938 12.445312 1.628906 24.976562 4.292969 32.332031 12.695312 3.96875 4.53125 5.929687 10.980469 5.378906 17.695313-.519531 6.300781-3.179687 12.011718-7.347656 15.847656-8.050781-1.039062-16.339844-1.105469-24.171875-1.167969-3.382812-.023437-6.574219-.050781-9.617188-.15625-25.746093-.882812-51.871093-1.558593-77.648437-2.007812-51.539063-.894531-103.804687-.914063-155.351563-.050781-29.148437.484374-58.683593 1.261718-87.777343 2.308593-13.773438.496094-26.507813 1.058594-38.972657 2.472657-5.519531-3.394532-8.617187-16.234376-6.632812-23.175782zm429.777344 61.378906c-1.691406 5.371094-6.738282 10.179688-13.5 12.867188-6.378906 2.53125-13.335938 3.199219-21.773438 3.8125-129.726562 9.390625-261.855468 2.300781-389.632812-4.550781-8.277344-.445313-16.832032-.90625-24.035156-4.359375-5.726563-2.742188-11.707032-8.875-11.308594-15.84375.269531-4.761719 3.652344-9.703125 8.828125-12.890625 5.292969-3.261719 11.835937-4.667969 18.117187-5.707031 15.699219-2.589844 31.703125-3.332032 49.492188-3.972657 29.03125-1.042969 58.5-1.820312 87.585937-2.304687 25.207031-.417969 50.582031-.628906 75.964844-.628906 26.410156 0 52.820313.226562 79.039063.683593 25.726562.445313 51.792968 1.121094 77.484374 2.003907 3.171876.109374 6.429688.136718 9.878907.164062 16.25.125 34.667969.269531 46.273437 9.824219 6.628906 5.453125 9.75 14.046875 7.585938 20.902343zm0 0"/></svg>