<svg height="512pt" viewBox="0 -30 512.00255 512" width="512pt" xmlns="http://www.w3.org/2000/svg"><path d="m498.589844 114.167969c-76.609375-.398438-154.507813-1.507813-231.535156-3.292969l-4.351563-.101562.464844-4.324219c.929687-8.625 6.0625-17.039063 14.082031-23.085938 6.894531-5.203125 15.890625-8.816406 27.503906-11.042969 13.414063-2.570312 27.175782-2.902343 41.265625-3.03125 4.667969-.042968 9.359375-.0625 14.058594-.0625 11.085937 0 22.394531.113282 33.609375.339844l3.707031.082032c25.066407.511718 50.988281 1.039062 76.261719 3.558593 17.355469 1.734375 32.753906 18.625 32.300781 35.4375-.023437.851563-.089843 1.390625-.148437 1.765625l-.339844 2.214844-2.074219.910156c-1.039062.4375-2.472656.632813-4.640625.632813zm0 0" fill="#f9d889"/><path d="m423.230469 445.171875c-14.660157 0-30.539063-4.367187-45.925781-12.628906-11.609376-6.234375-20.222657-13.160157-26.320313-21.171875-7.738281-10.164063-12.285156-23.640625-12.804687-37.949219-.894532-24.65625 10.445312-49.621094 29.597656-65.152344 4.78125-3.878906 10.113281-7.222656 15.847656-9.9375 5.675781-2.683593 11.730469-4.726562 18.003906-6.074219 4.8125-1.015624 9.707032-1.53125 14.558594-1.53125 15.4375 0 30.664062 5.121094 44.035156 14.800782 16.742188 12.117187 29.273438 30.597656 34.382813 50.707031 2.75 10.820313 3.347656 21.058594 1.777343 30.433594-2.941406 17.5625-13.933593 33.960937-30.15625 44.988281-11.550781 7.863281-24.78125 12.488281-38.269531 13.363281-1.550781.101563-3.144531.152344-4.726562.152344zm-6.222657-107.78125c-1.910156 0-3.816406.203125-5.675781.597656-4.949219 1.050781-9.574219 3.238281-13.386719 6.324219-7.566406 6.148438-12.046874 16.015625-11.691406 25.75.203125 5.691406 2.023438 11.0625 5.125 15.128906 2.417969 3.1875 5.816406 5.929688 10.390625 8.382813 6.023438 3.234375 12.253907 4.945312 18.019531 4.945312.632813 0 1.269532-.03125 1.902344-.066406 5.304688-.351563 10.542969-2.179687 15.117188-5.285156 6.445312-4.390625 10.816406-10.921875 11.984375-17.917969.621093-3.753906.390625-7.820312-.691407-12.078125-3.804687-14.9375-16.878906-25.78125-31.09375-25.78125zm0 0" fill="#5bd0fc"/><path d="m466.195312 236.496094c-58.875-1.625-118.71875-2.449219-177.863281-2.449219h-4.988281l-.066406-3.933594c-.640625-37.59375-.113282-75.578125 1.574218-112.898437l.175782-3.902344 3.90625.085938c59.695312 1.28125 120.089844 2.160156 179.503906 2.617187l3.921875.03125.050781 3.921875c.199219 16.695312-.523437 33.566406-1.226562 49.878906-.875 20.410156-1.773438 41.515625-.878906 62.476563l.183593 4.289062zm-116.15625-100.570313c-5.492187 0-10.910156.035157-16.101562.101563-5.582031.074218-10.542969.367187-14.652344 3.234375-4.925781 3.425781-6.855468 9.589843-7.988281 14.582031-2.804687 12.390625-3.148437 25.550781-.988281 38.054688.675781 3.929687 1.734375 7.90625 4.890625 10.382812 2.523437 1.984375 5.929687 2.464844 8.414062 2.816406 24.167969 3.390625 48.84375 5.109375 73.34375 5.109375 10.625 0 21.316407-.324219 31.789063-.960937 2.34375-.140625 5.550781-.332032 8.003906-2.078125 1.800781-1.269531 2.949219-3.109375 4.125-5.476563 4.882812-9.859375 7.496094-21.019531 7.5625-32.265625.03125-5.691406.132812-23.011719-7.132812-29.367187-2.671876-2.335938-7.15625-3.425782-14.117188-3.425782-2.441406 0-4.882812.125-7.238281.246094-1.882813.101563-3.761719.203125-5.324219.203125-.335938 0-.65625-.007812-.957031-.015625-14.636719-.445312-26.660157-.734375-37.835938-.917968-9.191406-.152344-17.628906-.222657-25.792969-.222657zm0 0" fill="#ed6d66"/><path d="m466.59375 307.949219c-1.867188-1.578125-3.554688-2.90625-5.164062-4.066407-13.730469-9.949218-29.359376-15.203124-45.203126-15.203124-5.023437 0-10.074218.535156-15.015624 1.589843-4.417969.933594-8.847657 2.261719-13.167969 3.953125l-5.277344 2.066406-.175781-5.667968c-.519532-16.855469-.917969-33.59375-1.179688-49.75l-.070312-4.125 4.128906.0625c27.433594.414062 54.691406.996094 81.011719 1.730468l3.863281.109376.023438 3.867187c.121093 20.644531 1.058593 41.519531 2.796874 62.046875l.8125 9.632812zm0 0" fill="#59bd8b"/><path d="m419.796875 396.472656c-5.433594 0-11.332031-1.621094-17.058594-4.691406-4.332031-2.332031-7.519531-4.890625-9.746093-7.824219-2.84375-3.757812-4.515626-8.714843-4.703126-13.964843-.332031-9.113282 3.859376-18.34375 10.949219-24.09375 3.539063-2.878907 7.867188-4.929688 12.511719-5.921876 1.644531-.351562 3.359375-.527343 5.097656-.527343 11.128906 0 25.039063 7.578125 29.277344 24.222656 1.007812 4.007813 1.226562 7.785156.660156 11.226563-1.070312 6.371093-5.226562 12.570312-11.125 16.585937-4.273437 2.902344-9.160156 4.605469-14.132812 4.933594-.574219.039062-1.148438.054687-1.730469.054687zm0 0" fill="#288fc9"/><path d="m396.925781 208.167969c-24.390625 0-48.964843-1.710938-73.035156-5.089844-2.921875-.414063-5.5-.878906-7.429687-2.402344-2.601563-2.035156-3.554688-5.746093-4.144532-9.109375-2.109375-12.265625-1.773437-25.152344.96875-37.273437 1.050782-4.625 2.808594-10.324219 7.160156-13.363281 3.648438-2.53125 8.28125-2.792969 13.519532-2.863282 5.03125-.066406 10.296875-.097656 16.089844-.097656 8.222656 0 16.882812.074219 25.75.21875 10.914062.179688 22.925781.46875 37.800781.914062.320312.007813.644531.011719.980469.011719 1.515624 0 3.269531-.085937 5.125-.175781l.277343-.015625c2.011719-.105469 4.527344-.234375 7.101563-.234375 6.597656 0 10.566406.898438 12.871094 2.910156 4.417968 3.859375 6.523437 12.957032 6.433593 27.816406-.0625 10.929688-2.601562 21.777344-7.34375 31.367188-1.050781 2.101562-2.035156 3.695312-3.464843 4.714844-1.816407 1.300781-4.199219 1.542968-6.898438 1.710937-10.546875.640625-21.214844.960938-31.761719.960938zm0 0" fill="#fff"/><path d="m350.394531 313.007812c-1.523437-24.078124-2.027343-48.535156-1.507812-72.6875l.085937-3.957031 3.957032.042969c7.503906.082031 14.992187.160156 22.480468.261719l3.878906.050781.066407 3.882812c.304687 18.277344.746093 36.570313 1.316406 54.367188l.082031 2.464844-2.167968 1.179687c-4.304688 2.335938-8.371094 5.050781-12.089844 8.070313-3.207032 2.597656-6.277344 5.539062-9.125 8.734375l-6.375 7.152343zm0 0" fill="#fff"/><path d="m187.734375 378.957031c-4.058594-10.507812-11.15625-20.105469-19.984375-27.023437l-1.515625-1.183594-.019531-1.925781c-.171875-18.664063-.148438-36.390625-.128906-53.53125.019531-17.363281.039062-35.230469-.136719-53.808594-.011719-.113281-.015625-.222656-.015625-.316406v-3.929688l3.929687-.070312c39.347657-.726563 79.230469-1.09375 118.550781-1.09375 18.09375 0 36.417969.078125 54.464844.230469l4.050782.035156-.085938 4.050781c-.585938 27.921875.175781 56.082031 2.273438 83.695313l.363281 1.71875-.835938 1.359374c-8.640625 14.027344-13.082031 30.484376-12.5 46.335938v.027344c.007813.125.011719.242187.011719.347656v3.855469l-3.851562.144531c-46.488282 1.710938-93.851563 2.9375-140.777344 3.640625l-2.785156.042969zm0 0" fill="#59bd8b"/><path d="m158.433594 84.492188c-21.988282 0-44.257813-.460938-66.191406-1.367188-3.023438-.132812-6.410157-.277344-9.125-1.839844-2.710938-1.566406-4.511719-4.367187-6.265626-7.347656-10.90625-18.46875-19.640624-38.222656-25.957031-58.703125l-1.316406-4.269531 4.390625-.835938c.164062-.03125.929688-.160156.929688-.160156 14.523437-2.09375 29.480468-2.238281 43.941406-2.378906l101.609375-.972656c1.46875-.007813 3.128906-.140626 4.730469-.265626 1.890624-.148437 4.003906-.308593 6.023437-.308593 2.757813 0 4.773437.304687 6.347656.96875 7.964844 3.335937 3.34375 14.589843.285157 22.035156-.492188 1.207031-.9375 2.3125-1.296876 3.265625l-14.601562 39.601562c-.957031 2.597657-2.042969 5.542969-3.988281 7.65625-3.929688 4.242188-10.382813 4.675782-16.660157 4.757813-7.546874.109375-15.238281.164063-22.855468.164063zm0 0" fill="#f9d889"/><path d="m82.65625 140.707031c0-17.335937.152344-34.835937.449219-52.007812l.078125-4.503907 4.460937.609376c1.578125.214843 3.101563.296874 4.507813.355468 22.164062.914063 44.519531 1.378906 66.445312 1.378906 7.332032 0 14.980469-.058593 22.730469-.171874 2.816406-.035157 6.105469-.15625 9.222656-.796876l5.050781-1.042968-.25 5.152344c-.824218 17.082031-1.433593 33.792968-1.804687 49.660156l-.089844 3.851562-110.800781 1.574219zm0 0" fill="#ed6d66"/><path d="m82.828125 171.675781c-.074219-7.441406-.121094-14.285156-.140625-20.917969l-.011719-3.953124 110.757813-1.566407-.078125 4.132813c-.132813 7.238281-.230469 14.28125-.289063 20.929687l-.035156 3.914063-110.164062 1.476562zm0 0" fill="#fff"/><path d="m84.078125 233.261719c-.527344-17.019531-.910156-34.359375-1.140625-51.53125l-.054688-4 110.136719-1.476563-.011719 4.066406c-.0625 17.3125.082032 34.261719.425782 50.382813l.085937 4.023437-4.019531.0625c-33.9375.519532-68.015625 1.308594-101.296875 2.347657l-4 .125zm0 0" fill="#ed6d66"/><path d="m140.515625 445.167969c-9.753906 0-20.3125-2.902344-30.542969-8.398438-7.738281-4.164062-13.460937-8.765625-17.488281-14.058593-5.136719-6.746094-8.152344-15.6875-8.492187-25.183594-.597657-16.371094 6.9375-32.960938 19.664062-43.285156 3.160156-2.570313 6.703125-4.796876 10.527344-6.609376 3.804687-1.792968 7.824218-3.148437 11.960937-4.027343 2.925781-.621094 5.992188-.9375 9.121094-.9375 20.035156 0 45.054687 13.601562 52.648437 43.464843 1.820313 7.199219 2.21875 13.996094 1.179688 20.203126-1.949219 11.644531-9.25 22.527343-20.027344 29.859374-7.675781 5.226563-16.464844 8.296876-25.410156 8.875-1.03125.066407-2.085938.097657-3.140625.097657zm-4.167969-72.054688c-1.300781 0-2.601562.136719-3.867187.40625-3.355469.710938-6.492188 2.195313-9.082031 4.292969-5.144532 4.175781-8.1875 10.875-7.941407 17.488281.140625 3.875 1.378907 7.535157 3.496094 10.3125 1.652344 2.175781 3.960937 4.039063 7.054687 5.699219 4.074219 2.1875 8.292969 3.34375 12.210938 3.34375.429688 0 .859375-.015625 1.28125-.042969 3.605469-.230469 7.167969-1.472656 10.273438-3.589843 4.394531-2.988282 7.367187-7.433594 8.15625-12.203126.429687-2.546874.273437-5.3125-.460938-8.226562-2.574219-10.125-11.457031-17.480469-21.121094-17.480469zm0 0" fill="#5bd0fc"/><path d="m158.324219 345.929688c-7.109375-3.589844-14.597657-5.410157-22.253907-5.410157-.5 0-1.003906.007813-1.507812.027344l-4.171875.128906.046875-4.171875c.347656-31.25-.46875-62.972656-2.421875-94.285156l-.261719-4.152344 4.15625-.097656c9.296875-.21875 18.609375-.429688 27.925782-.621094l4.082031-.082031v5.132813c.167969 18.226562.148437 35.800781.128906 52.808593-.019531 15.164063-.042969 30.757813.078125 47.121094l.050781 6.550781zm0 0" fill="#fff"/><path d="m138.183594 412.617188c-3.558594 0-7.433594-1.070313-11.207032-3.09375-2.847656-1.527344-4.945312-3.214844-6.410156-5.152344-1.847656-2.414063-2.945312-5.664063-3.074218-9.132813-.21875-5.996093 2.542968-12.0625 7.195312-15.835937 2.332031-1.898438 5.183594-3.246094 8.238281-3.890625 1.046875-.230469 2.1875-.355469 3.351563-.355469 7.296875 0 16.425781 4.992188 19.21875 15.945312.667968 2.636719.808594 5.121094.425781 7.386719-.695313 4.15625-3.417969 8.214844-7.28125 10.847657-2.800781 1.902343-6.011719 3.027343-9.289063 3.242187-.382812.027344-.773437.039063-1.167968.039063zm0 0" fill="#288fc9"/><path d="m81.222656 379.210938c-5.144531-.578126-10.324218-.875-15.402344-.882813l-3.992187-.007813v-3.992187c-.003906-.128906-.019531-.535156-.019531-.535156-.496094-12.9375-.890625-26.144531-1.160156-39.242188-.472657-23.730469-.558594-47.691406-.261719-71.226562.050781-3.71875.316406-7.578125.632812-11.882813.164063-2.359375.351563-5.054687.484375-7.714844l.179688-3.667968 3.671875-.128906c18.046875-.632813 37.058593-1.207032 56.5-1.703126l3.851562-.097656.242188 3.84375c2.007812 31.832032 2.828125 64.09375 2.4375 95.890625l-.039063 3.167969-3.089844.691406c-8.488281 1.886719-16.402343 5.667969-22.890624 10.929688-3.769532 3.058594-7.148438 6.691406-10.035157 10.804687-2.863281 4.058594-5.1875 8.484375-6.910156 13.164063l-1.085937 2.941406zm0 0" fill="#59bd8b"/><path d="m54.21875 401.808594c-7.996094-.09375-16.148438-3.511719-23.003906-9.628906-5.695313-5.089844-10.503906-11.933594-14.710938-20.929688-8.925781-19.113281-12.234375-41.363281-9.570312-64.332031 2.390625-20.625 9.484375-41.523438 21.078125-62.113281 3.589843-6.363282 7.734375-12.824219 13.746093-16.992188 3.589844-2.507812 8.191407-4.195312 11.441407-4.195312 1.085937 0 2.058593.191406 2.886719.566406 1.65625.730468 2.683593 2.308594 3.019531 4.675781.980469 7.011719.417969 14.839844-.125 22.414063-.289063 4.058593-.585938 8.171874-.632813 12.023437-.300781 23.671875-.210937 47.65625.269532 71.289063.257812 12.925781.644531 26.148437 1.148437 39.296874l.007813.28125c.316406 7.957032.644531 16.199219-1.371094 23.972657-.074219.3125-.15625.582031-.226563.796875l-.882812 2.796875-2.957031.078125zm0 0" fill="#f9d889"/><path d="m131.648438 369.605469c-3.972657.847656-7.699219 2.613281-10.769532 5.105469-6.097656 4.945312-9.707031 12.894531-9.421875 20.742187.167969 4.6875 1.699219 9.15625 4.308594 12.585937 2.003906 2.632813 4.734375 4.855469 8.347656 6.796876 4.675781 2.511718 9.515625 3.816406 14.101563 3.816406.511718 0 1.023437-.015625 1.527344-.046875 4.339843-.28125 8.589843-1.761719 12.289062-4.277344 5.28125-3.59375 8.871094-9.007813 9.851562-14.851563.515626-3.09375.335938-6.410156-.539062-9.855468-3.5-13.78125-16.820312-22.761719-29.695312-20.015625zm20.328124 28.214843c-.519531 3.109376-2.609374 6.179688-5.59375 8.207032-2.21875 1.507812-4.738281 2.394531-7.292968 2.558594-3.144532.207031-6.6875-.691407-10.226563-2.59375-2.324219-1.246094-3.992187-2.566407-5.109375-4.03125-1.367187-1.796876-2.171875-4.234376-2.265625-6.871094-.175781-4.761719 2.015625-9.582032 5.714844-12.582032 1.847656-1.5 4.109375-2.566406 6.539063-3.085937.820312-.171875 1.667968-.257813 2.53125-.257813 6.195312 0 13.1875 4.453126 15.339843 12.925782.53125 2.085937.652344 4.015625.363281 5.730468zm0 0"/><path d="m410.496094 334.074219c-5.566406 1.183593-10.773438 3.652343-15.066406 7.132812-8.523438 6.917969-13.574219 18.03125-13.171876 29.003907.234376 6.503906 2.34375 12.6875 5.9375 17.40625 2.773438 3.648437 6.597657 6.753906 11.683594 9.484374 6.628906 3.558594 13.464844 5.410157 19.910156 5.410157.710938 0 1.421876-.023438 2.125-.066407 6.050782-.394531 11.976563-2.460937 17.140626-5.972656 7.34375-4.996094 12.328124-12.492187 13.679687-20.566406.71875-4.292969.460937-8.90625-.761719-13.71875-4.910156-19.328125-23.523437-31.941406-41.476562-28.113281zm32.335937 40.175781c-.886719 5.308594-4.410156 10.515625-9.421875 13.925781-3.683594 2.503907-7.882812 3.972657-12.148437 4.253907-5.175781.328124-10.925781-1.109376-16.636719-4.171876-3.792969-2.039062-6.554688-4.234374-8.445312-6.71875-2.347657-3.089843-3.730469-7.238281-3.890626-11.695312-.289062-7.882812 3.339844-15.867188 9.464844-20.839844 3.066406-2.488281 6.8125-4.253906 10.832032-5.113281 11.128906-2.371094 25.625 4.898437 29.65625 20.773437.878906 3.453126 1.078124 6.679688.589843 9.585938zm0 0"/><path d="m474.253906 67.199219c-25.460937-2.539063-51.527344-3.074219-76.738281-3.589844l-3.699219-.078125c-15.890625-.324219-31.988281-.421875-47.851562-.28125-14.367188.128906-28.417969.464844-42.351563 3.136719-12.535156 2.40625-22.351562 6.378906-30.007812 12.15625-9.914063 7.476562-16.117188 18.429687-16.59375 29.292969-.042969 1.003906-.160157 3.660156 1.582031 5.933593 2.304688 3.007813 5.992188 3.09375 7.378906 3.125 4.273438.101563 8.558594.191407 12.832032.285157-1.683594 37.445312-2.207032 75.390624-1.566407 112.875-25.925781.046874-51.855469.246093-77.761719.597656-1.042968-48.386719-.324218-97.441406 2.136719-145.800782.007813-.136718-.015625-.269531-.019531-.40625.265625-.253906.53125-.503906.785156-.777343 2.765625-2.996094 4.128906-6.691407 5.222656-9.664063l14.617188-39.632812c.324219-.886719.746094-1.910156 1.207031-3.035156 3.226563-7.867188 9.941407-24.238282-3.546875-29.898438-4.585937-1.921875-10.199218-1.4882812-15.15625-1.105469-1.59375.121094-3.101562.238281-4.335937.25l-101.484375.96875c-14.699219.140625-29.898438.285157-44.867188 2.445313-6.582031.945312-8.769531 4.253906-9.445312 6.863281-.625 2.417969.046875 4.597656.410156 5.769531 6.476562 21.078125 15.445312 41.394532 26.648438 60.386719 1.535156 2.597656 3.230468 5.253906 5.578124 7.386719-.054687.285156-.097656.578125-.105468.882812-.90625 49.175782-.589844 99.007813.921875 148.179688-4.148438.132812-8.296875.269531-12.441407.410156-.085937-1.96875-.246093-3.917969-.511718-5.832031-.625-4.472657-2.980469-7.816407-6.632813-9.414063-6.378906-2.792968-14.839843.527344-20.152343 4.222656-7.015626 4.875-11.621094 12.007813-15.554688 18.988282-11.992188 21.289062-19.335938 42.949218-21.816406 64.382812-2.789063 24.085938.703125 47.453125 10.101562 67.578125 4.546875 9.746094 9.832032 17.230469 16.15625 22.878907 7.941406 7.097656 17.5 11.0625 26.914063 11.164062h.242187c1.523438 0 3.449219-.167969 5.28125-1.234375 3.308594-1.921875 4.25-5.539063 4.605469-6.902344 1.328125-5.101562 1.746094-10.242187 1.804687-15.34375 4.304688.019531 8.621094.253907 12.90625.683594-.789062 4.1875-1.148437 8.449219-.992187 12.703125.390625 10.722656 3.84375 20.886719 9.722656 28.617188 4.574219 6.011718 10.933594 11.152343 19.4375 15.722656 11.171875 6 22.644531 9.121094 33.410157 9.121094 1.183593 0 2.359374-.039063 3.523437-.113282 10.019531-.652344 19.847656-4.078125 28.417969-9.910156 12.128906-8.25 20.359375-20.589844 22.578125-33.851562 1.039062-6.210938.828125-12.867188-.621094-19.824219 46.054687-.714844 92.671875-1.929688 138.671875-3.621094.03125 0 .0625-.007813.089844-.011719 1.9375 11.675782 6.40625 22.484375 12.996094 31.148438 6.625 8.707031 15.871093 16.171875 28.273437 22.832031 16.347656 8.777344 33.101563 13.347656 48.792969 13.347656 1.714844 0 3.417968-.054687 5.105468-.164062 14.546876-.945313 28.816407-5.921875 41.269532-14.394531 17.582031-11.960938 29.507812-29.816407 32.714844-48.984376 1.710937-10.222656 1.078124-21.300781-1.875-32.925781-3.628907-14.28125-10.789063-27.789062-20.4375-39.046875.085937-.457031.132812-.925781.085937-1.410156-2.386719-24.371094-3.621094-49.121094-3.703125-73.617188.21875-.617187.320312-1.285156.277344-1.980468-1.429688-22.746094-.429688-46.042969.539062-68.578125.703125-16.375 1.421875-33.292969 1.226563-50.027344 6.707031.046875 13.414062.09375 20.105469.128906h.457031c2.691406 0 8.042969-.222656 11.0625-4.550781 1.597656-2.296875 1.863281-4.867188 1.917969-6.851562.539062-20.101563-17.09375-39.542969-37.738282-41.605469zm-387.570312 83.542969 102.667968-1.449219c-.128906 6.992187-.226562 13.984375-.285156 20.976562l-102.238281 1.367188c-.074219-6.964844-.121094-13.929688-.144531-20.894531zm102.863281-11.492188-102.886719 1.453125c0-17.351563.152344-34.683594.449219-51.9375 1.757813.246094 3.4375.328125 4.878906.386719 22.082031.917968 44.398438 1.378906 66.605469 1.378906 7.613281 0 15.21875-.054688 22.792969-.160156 3.242187-.046875 6.667969-.199219 9.964843-.882813-.796874 16.53125-1.414062 33.132813-1.804687 49.761719zm-134.832031-125.1875c.210937-.042969.460937-.089844.75-.132812 14.308594-2.058594 29.164062-2.203126 43.53125-2.339844l101.488281-.972656c1.574219-.015626 3.242187-.144532 5.015625-.277344 3.628906-.28125 8.148438-.628906 10.496094.355468 2.585937 1.082032 3.257812 4.359376-1.855469 16.828126-.511719 1.25-.976563 2.390624-1.339844 3.371093l-14.613281 39.632813c-.871094 2.359375-1.769531 4.796875-3.179688 6.324218-2.835937 3.070313-8.355468 3.402344-13.765624 3.480469-29.484376.425781-59.367188.015625-88.835938-1.210937-2.539062-.105469-5.417969-.226563-7.292969-1.300782-1.859375-1.070312-3.339843-3.40625-4.816406-5.910156-10.738281-18.195312-19.34375-37.65625-25.582031-57.847656zm32.222656 167.613281 102.066406-1.367187c-.058594 16.867187.074219 33.714844.4375 50.480468-33.851562.515626-67.660156 1.296876-101.363281 2.34375-.527344-17.089843-.90625-34.261718-1.140625-51.457031zm73.109375 113.613281c-.015625 15.207032-.035156 30.863282.078125 47.070313-7.773438-3.917969-16.457031-6.101563-25.691406-5.816406.355468-31.410157-.464844-63.195313-2.429688-94.574219 9.296875-.222656 18.597656-.433594 27.910156-.617188 0 .003907-.003906.011719-.003906.015626.171875 18.644531.152344 36.578124.136719 53.921874zm-105.527344 101.886719c-.066406.261719-.128906.46875-.179687.628907-.039063 0-.078125 0-.125 0-6.984375-.078126-14.203125-3.132813-20.335938-8.613282-5.285156-4.722656-9.785156-11.148437-13.75-19.640625-8.609375-18.4375-11.796875-39.9375-9.222656-62.171875 2.328125-20.101562 9.257812-40.492187 20.59375-60.613281 3.34375-5.941406 7.179688-11.949219 12.539062-15.671875 3.207032-2.234375 6.972657-3.472656 9.160157-3.472656.503906 0 .925781.066406 1.234375.203125.347656.148437.585937.691406.714844 1.601562.914062 6.59375.371093 14.222657-.15625 21.597657-.289063 4.054687-.589844 8.246093-.640626 12.21875-.304687 23.679687-.21875 47.710937.261719 71.425781.265625 13.101562.65625 26.347656 1.160157 39.367187l.011718.273438c.308594 8.070312.601563 15.695312-1.265625 22.867187zm27.148438-21.941406c-5.246094-.589844-10.546875-.894531-15.839844-.90625-.003906-.136719-.007813-.269531-.015625-.40625l-.011719-.273437c-.5-12.957032-.886719-26.140626-1.152343-39.183594-.476563-23.601563-.566407-47.523438-.261719-71.089844.046875-3.683594.324219-7.542969.617187-11.632812.183594-2.585938.367188-5.199219.496094-7.816407 18.785156-.652343 37.613281-1.214843 56.460938-1.703125 1.996093 31.71875 2.820312 63.859375 2.425781 95.597656-9.066407 2.015626-17.546875 6.058594-24.539063 11.734376-8.230468 6.675781-14.492187 15.710937-18.179687 25.679687zm103.476562 30.449219c-1.769531 10.570312-8.449219 20.488281-18.324219 27.207031-7.089843 4.820313-15.191406 7.65625-23.425781 8.191406-9.886719.640625-20.789062-2.070312-31.527343-7.835937-7.214844-3.875-12.511719-8.113282-16.199219-12.960938-4.640625-6.09375-7.367188-14.226562-7.679688-22.902344-.554687-15.144531 6.417969-30.488281 18.183594-40.035156 0-.003906 0-.003906 0-.003906 5.902344-4.785156 13.09375-8.183594 20.808594-9.828125 2.675781-.570313 5.457031-.851563 8.285156-.851563 19.808594 0 42.023437 13.910157 48.769531 40.449219 1.683594 6.640625 2.058594 12.886719 1.109375 18.570313zm6.324219-28.164063c-4.257812-11.007812-11.683594-21.234375-21.253906-28.726562-.167969-18.488281-.148438-36.28125-.128906-53.492188.015624-17.367187.035156-35.332031-.136719-54.027343 0-.035157-.011719-.070313-.011719-.109376 57.570312-1.054687 115.300781-1.34375 172.90625-.855468-.589844 27.988281.171875 56.296875 2.292969 84.191406.011719.195312.0625.382812.097656.570312-8.921875 14.5-13.707031 31.605469-13.089844 48.578126.003907.078124.011719.15625.015625.234374-46.679687 1.710938-93.984375 2.933594-140.691406 3.636719zm277.710938-72.621093c-1.757813-1.484376-3.554688-2.921876-5.414063-4.265626-19.121094-13.84375-41.632813-18.917968-63.390625-14.28125-4.726562 1.007813-9.339844 2.40625-13.792969 4.144532-.507812-16.527344-.902343-33.1875-1.175781-49.683594 27.039062.40625 54.035156.976562 80.960938 1.726562.113281 20.742188 1.0625 41.65625 2.8125 62.359376zm-93.816407-64.226563c.296875 18.074219.738281 36.34375 1.316407 54.421875-4.507813 2.453125-8.769532 5.292969-12.707032 8.488281-3.4375 2.789063-6.640625 5.867188-9.589844 9.179688-1.511718-24.039063-2.011718-48.316407-1.5-72.351563 7.496094.074219 14.988282.160156 22.480469.261719zm117.070313 145.339844c-2.757813 16.476562-13.128906 31.910156-28.460938 42.339843-10.96875 7.464844-23.511718 11.847657-36.269531 12.675782-15.25.988281-32.023437-3.160156-48.5-12.007813-11.109375-5.964843-19.296875-12.53125-25.03125-20.070312-7.246094-9.515625-11.503906-22.183594-11.992187-35.667969-.855469-23.421875 9.921874-47.140625 28.117187-61.90625 9.125-7.40625 20.25-12.664062 32.167969-15.203125 4.550781-.96875 9.136718-1.449219 13.71875-1.449219 14.503906 0 28.933594 4.800782 41.695312 14.039063 15.996094 11.585937 27.96875 29.246093 32.851563 48.453125 2.609375 10.265625 3.183593 19.957031 1.703125 28.796875zm-25.242188-216.332031c-.882812 20.570312-1.789062 41.773437-.882812 62.820312-59.425782-1.648438-119.210938-2.46875-179.027344-2.457031-.640625-37.40625-.121094-75.277344 1.566406-112.640625 59.671875 1.277344 119.851563 2.15625 179.5625 2.609375.195313 16.527343-.519531 33.363281-1.21875 49.667969zm34.652344-59.832032c-.308594.132813-1.132812.332032-3.234375.320313-76.789063-.402344-154.65625-1.507813-231.460937-3.285157.800781-7.457031 5.394531-14.964843 12.503906-20.328124 6.402344-4.828126 14.859375-8.199219 25.851562-10.308594 13.109375-2.511719 26.664063-2.832032 40.554688-2.957032 15.757812-.140624 31.757812-.046874 47.554687.28125l3.699219.074219c25.015625.511719 50.878906 1.042969 75.949219 3.542969 15.417969 1.539062 29.09375 16.480469 28.695312 31.351562-.023437.78125-.085937 1.164063-.113281 1.308594zm0 0"/><path d="m312.726562 205.425781c3.371094 2.652344 7.558594 3.242188 10.328126 3.628907 24.441406 3.429687 49.183593 5.148437 73.902343 5.148437 10.691407 0 21.378907-.320313 32.03125-.964844 2.664063-.164062 6.6875-.40625 10.082031-2.808593 2.617188-1.855469 4.136719-4.445313 5.386719-6.96875 5.152344-10.398438 7.910157-22.160157 7.976563-34.011719.066406-10.660157-.75-25.621094-8.5-32.398438-5.851563-5.121093-16.066406-4.585937-24.269532-4.164062-2.234374.117187-4.34375.226562-5.871093.179687-14.859375-.449218-26.898438-.742187-37.894531-.921875-15.335938-.25-29.078126-.289062-42.015626-.121093-6.023437.078124-11.851562.441406-16.886718 3.949218-6.050782 4.21875-8.308594 11.292969-9.597656 16.984375-2.921876 12.894531-3.277344 26.59375-1.03125 39.621094.773437 4.488281 2.132812 9.527344 6.359374 12.847656zm4.464844-50.25c.890625-3.925781 2.324219-8.71875 5.546875-10.964843 2.707031-1.886719 6.707031-2.085938 11.277344-2.148438 12.835937-.167969 26.484375-.128906 41.71875.121094 10.949219.179687 22.949219.46875 37.757813.917968 1.9375.0625 4.246093-.0625 6.691406-.1875 5.367187-.28125 14.355468-.746093 17.140625 1.691407 2.371093 2.074219 5.171875 8.050781 5.074219 24.785156-.058594 10.335937-2.457032 20.578125-6.933594 29.617187-.667969 1.339844-1.390625 2.660157-2.195313 3.230469-1.054687.746094-3.269531.882813-4.886719.980469-34.613281 2.09375-69.582031.714844-103.929687-4.105469-2.339844-.324219-4.371094-.671875-5.519531-1.574219-1.5625-1.230468-2.25-4.207031-2.671875-6.664062-2.023438-11.738281-1.703125-24.082031.929687-35.699219zm0 0"/></svg>