<svg id="Capa_1" enable-background="new 0 0 512 512" height="512" viewBox="0 0 512 512" width="512" xmlns="http://www.w3.org/2000/svg"><path d="m509.36 458.64c-.01 0-.02-.01-.02-.01-.44-.13-.88-.26-1.32-.4-.43-.14-.87-.29-1.31-.44-.93-.33-1.87-.68-2.81-1.05-.92-.36-1.83-.72-2.74-1.09l-.23-.1-.1-.04c-2.33-.94-4.74-1.91-7.12-2.65-1.28-.4-2.61-.74-3.97-1.04-.51-.11-1.02-.21-1.54-.31-3.62-.68-7.52-1-11.92-1-2.15 0-4.33.08-6.53.21-1.44.08-2.87.18-4.3.3-2.14.17-4.28.36-6.39.56-5.63.53-11.45 1.07-17.23 1.07-3.62 0-6.93-.22-10-.66-.46-.07-.92-.14-1.37-.22-.68-.11-1.34-.24-2-.38s-1.3-.29-1.94-.45c-.73-.18-1.46-.39-2.18-.6-.72-.22-1.44-.45-2.15-.7-.01 0-.03-.01-.04-.02-.48-.17-.96-.34-1.43-.52-.95-.36-1.9-.74-2.83-1.14-.93-.39-1.86-.82-2.79-1.26-.57-.27-1.15-.54-1.72-.83-.34-.17-.69-.34-1.03-.52-2.65-1.34-5.29-2.8-7.98-4.29l-.1-.05c-1.35-.76-2.75-1.53-4.18-2.31-1.49-.8-3.01-1.61-4.55-2.37-.37-.19-.74-.37-1.12-.55-2.24-1.1-4.53-2.11-6.88-2.99-.39-.15-.79-.29-1.18-.43-.46-.16-.93-.32-1.39-.46-.47-.15-.95-.3-1.42-.44-.48-.14-.97-.28-1.46-.42-.39-.1-.79-.21-1.19-.31-5.97-1.5-12.48-2.24-19.75-2.24-5.61 0-11.24.41-17 1-1.64.17-3.28.34-4.91.53-1.43.16-2.87.33-4.33.5-.42.04-.84.09-1.25.14l-.05.01-.14.02c-3.67.43-7.4.87-11.14 1.23-1.25.12-2.5.24-3.75.34-1.11.1-2.22.18-3.33.25-1.1.08-2.21.14-3.32.19-1.66.08-3.31.12-4.96.14h-1.06c-1.09 0-2.18-.01-3.27-.04-1.56-.04-3.12-.12-4.69-.22-2.6-.18-5.2-.44-7.78-.78-1.56-.21-3.1-.45-4.65-.71-1.54-.27-3.08-.57-4.61-.89-.54-.12-1.09-.24-1.63-.36-.58-.13-1.16-.27-1.74-.41-1.33-.32-2.65-.67-3.97-1.04-.84-.24-1.68-.48-2.52-.74-4.46-1.35-8.84-2.96-13.11-4.83-1.04-.45-2.07-.91-3.09-1.4-.51-.24-1.02-.48-1.53-.73-.8-.4-1.61-.81-2.41-1.22-.01 0-.03-.01-.05-.02-.79-.41-1.57-.82-2.35-1.24-.03 0-.05-.02-.07-.03-.78-.41-1.55-.83-2.31-1.24-.02 0-.04-.01-.05-.02-.77-.42-1.53-.84-2.28-1.25-.49-.26-.97-.53-1.46-.79-4.94-2.68-9.96-5.34-15.2-7.35-1.15-.44-2.31-.85-3.48-1.22-1.76-.56-3.55-1.03-5.36-1.39-.4-.08-.8-.15-1.21-.22-.2-.04-.41-.08-.61-.11-.3-.05-.61-.09-.92-.13-.68-.09-1.36-.17-2.06-.23-.83-.08-1.67-.13-2.54-.16-.09-.01-.18-.01-.27-.01-.62-.02-1.25-.03-1.9-.03-.77 0-1.54.01-2.31.04-.58.03-1.15.05-1.73.09s-1.15.08-1.73.12c-.58.05-1.16.1-1.74.16-.16.01-.32.03-.48.05-.42.04-.84.09-1.27.15-.51.06-1.02.13-1.54.2-.51.07-1.03.14-1.54.22-2.48.36-4.95.79-7.4 1.24-.01 0-.03 0-.04.01-.93.17-1.87.35-2.8.52-.63.12-1.26.23-1.89.35-1.18.22-2.36.43-3.55.64-1.84.32-3.68.62-5.52.88-1.36.18-2.72.35-4.07.49-2.29.22-4.56.36-6.81.36-3.18 0-6.13-.27-8.9-.82-.3-.06-.61-.13-.91-.19-.3-.07-.6-.14-.9-.22-.29-.07-.58-.15-.87-.22-.01-.01-.02-.01-.03-.01-.29-.08-.58-.17-.86-.26-.14-.04-.28-.08-.42-.13-.28-.09-.55-.18-.83-.28-.29-.1-.59-.2-.88-.32-.14-.05-.29-.1-.43-.16l-2.07-.82-.59 2.15c-.33 1.22-.67 2.45-1 3.68-.9 3.28-1.83 6.6-2.77 9.94-.47 1.67-.95 3.35-1.43 5.04-1.81 6.35-3.68 12.82-5.64 19.41-.31 1.07-.63 2.15-.96 3.23-.32 1.09-.64 2.17-.97 3.26l-.51 1.71h-.01l-12.21-2.22.56-2.09c.61-2.31 1.23-4.61 1.86-6.93.98-3.65 1.97-7.31 2.97-10.98.55-2.04 1.11-4.08 1.67-6.12 1.7-6.2 3.42-12.44 5.18-18.73.4-1.42.8-2.85 1.2-4.28l.45-1.63-1.53-.72-.59-.27c-1.65-.75-3.34-1.44-5.09-2.05-.15-.06-.3-.11-.46-.16-.51-.18-1.03-.35-1.55-.51-.61-.2-1.23-.38-1.86-.56s-1.26-.35-1.9-.51c-.55-.13-1.1-.26-1.66-.38-.22-.06-.44-.11-.66-.15-.53-.12-1.06-.23-1.6-.33-.67-.13-1.34-.25-2.02-.36-.56-.09-1.13-.18-1.7-.26-.04-.01-.08-.01-.12-.02-.35-.05-.71-.1-1.07-.14-.43-.06-.85-.11-1.28-.16-.58-.07-1.16-.13-1.75-.18-.08-.01-.15-.01-.23-.02-.33-.03-.67-.06-1-.08-.45-.04-.91-.08-1.37-.1-.71-.05-1.43-.09-2.15-.12-1.54-.07-3.1-.1-4.7-.1-4.37 0-9.1.25-14.07.74-1.01.1-2.03.21-3.04.32-1.08.12-2.16.25-3.24.39-1.04.13-2.09.26-3.13.4s-2.08.29-3.12.43c-1.42.2-2.82.41-4.22.61-.22.04-.44.07-.66.1-.68.1-1.36.2-2.03.3-1.01.15-2.02.3-3.03.45-2.85.43-5.74.84-8.64 1.22-.63.08-1.26.16-1.89.24-1.51.19-3.03.36-4.55.52-.57.06-1.14.12-1.71.17-.61.06-1.22.12-1.83.17-.49.04-.99.08-1.48.12-.31.02-.62.05-.93.07-.54.04-1.09.08-1.63.11-1.09.06-2.19.12-3.28.16-1.64.06-3.3.09-4.94.09-.69 0-1.39-.01-2.08-.02-.32-.01-.64-.01-.96-.02-2.34-.05-4.67-.16-6.99-.34-.55-.04-1.09-.09-1.64-.14-.34-.03-.69-.06-1.03-.1-.9-.08-1.81-.18-2.71-.28-1.08-.13-2.15-.27-3.22-.42-.43-.06-.86-.12-1.28-.19-1.14-.17-2.27-.36-3.39-.56-.49-.08-.98-.17-1.47-.27-.68-.13-1.36-.27-2.04-.41-2.2-.45-4.38-.96-6.55-1.52v115.28h512v-52.71c-.88-.18-1.76-.41-2.64-.65zm-407.81 15.15c-.03.13-.06.26-.1.39-.09.35-.21.71-.34 1.05-.06.17-.12.33-.19.49-.06.16-.13.32-.21.48-.05.12-.1.23-.16.34-.1.21-.2.41-.32.6-.54.97-1.21 1.86-1.97 2.64-.12.13-.24.25-.37.36-.12.12-.25.23-.38.34-.27.24-.54.45-.83.65-.13.09-.25.18-.38.26-.21.13-.42.26-.64.38-.04.02-.07.04-.11.06-.18.1-.37.2-.56.28-1.29.59-2.75.9-4.21.9-.38 0-.76-.02-1.13-.06s-.75-.1-1.11-.18c-.18-.04-.36-.08-.53-.13-.18-.04-.36-.1-.53-.16-.3-.09-.59-.2-.87-.33-.1-.04-.21-.09-.31-.14-.66-.31-1.27-.7-1.83-1.15-.14-.11-.27-.22-.4-.34-.14-.12-.27-.25-.39-.38-.13-.13-.25-.26-.36-.4-.12-.14-.23-.28-.34-.43-.18-.23-.31-.43-.38-.67-.09-.34-.11-.84.53-1.6l.09-.1c.13-.15.34-.35.65-.62.29-.24.57-.48.84-.73.35-.31.71-.62 1.07-.95s.72-.67 1.08-1.02c.1-.09.2-.19.3-.29l1.19-1.15.01-.01-.03-.03-.77-.73-.18-.17-.53-.51c-.11-.11-.22-.21-.34-.31-.34-.29-.7-.56-1.09-.8-.15-.11-.32-.2-.48-.28l-.31-.16c-.27-.14-.53-.26-.81-.36l-.62-.4-.04-.03-.49-.32-.07-.04-.23.18c-.16.13-.3.25-.44.37l-.01.01c-.26.22-.52.44-.79.64-.25.21-.52.42-.78.62-.19.15-.38.29-.57.42-.34.25-.69.5-1.04.74-.48.32-.95.63-1.44.93-.48.3-.98.59-1.47.87-.75.42-1.51.81-2.28 1.18-.78.37-1.56.71-2.36 1.03-.01 0-.01 0-.01 0-.9.36-1.81.69-2.74.98-.38.12-.77.24-1.16.35-.78.22-1.56.42-2.36.6-.4.09-.8.17-1.2.25-.01 0-.01 0-.02 0-1.6.31-3.23.52-4.88.64-.01.01-.01.01-.02 0-.99.06-1.99.1-2.99.1-1.12 0-2.25-.05-3.38-.14-1.89-.16-3.78-.46-5.66-.88l-.33-.06-.88-.17-.77.9c-.38.26-.74.55-1.07.88l-.02.02c-.4.41-.75.86-1.04 1.36-.1.16-.19.32-.27.49-.09.16-.17.33-.24.5-.07.14-.13.29-.18.44-.02.05-.04.1-.05.15-.08.22-.14.45-.19.68l-.38 1.71-.01.03 1.14.4c.83.3 1.67.58 2.52.85.18.06.36.11.55.17.32.09.65.17.98.25.05.01.11.02.16.04.18.05.36.09.54.13 1.75.41 3.51.83 4.89 1.76.1.07.19.13.28.2.06.05.13.1.18.16.03.02.06.04.08.07.06.05.12.11.16.16.08.07.14.14.19.22.08.1.15.2.22.31.05.07.09.15.13.23.05.09.09.18.13.28.05.13.09.26.12.39.11.44.13.9.07 1.41-.01.03-.01.06-.01.08-.01.12-.03.25-.07.37-.02.12-.05.25-.09.37-.05.18-.11.37-.18.55-.05.16-.11.31-.18.46-.08.19-.18.38-.28.57-.11.19-.22.39-.34.58-.11.19-.24.38-.38.56-.13.19-.27.37-.41.54-.42.54-.88 1.04-1.37 1.47-.16.14-.32.28-.48.42-.32.27-.64.51-.96.71-.47.31-.93.54-1.33.69-.86.31-1.8.47-2.8.47-.43 0-.84-.03-1.25-.09-.12-.01-.24-.03-.36-.05-.21-.03-.41-.07-.6-.11-.2-.04-.4-.08-.6-.14-.21-.05-.42-.11-.62-.18-.15-.04-.29-.09-.42-.14-.19-.06-.37-.13-.54-.2-.21-.08-.43-.17-.64-.27-.08-.03-.15-.07-.23-.11-.42-.2-.84-.41-1.25-.65-.15-.1-.31-.19-.47-.29-.3-.19-.58-.38-.86-.59-.11-.07-.21-.15-.32-.24-.03-.02-.05-.04-.08-.06-.24-.17-.48-.37-.7-.57-.14-.13-.29-.26-.43-.39-.29-.25-.57-.53-.82-.82-.27-.28-.53-.57-.76-.87-.38-.44-.71-.91-1.02-1.39-.33-.48-.62-.98-.87-1.49-.1-.17-.18-.34-.25-.51-.17-.34-.32-.69-.46-1.04-.15-.35-.27-.71-.37-1.07-.06-.18-.11-.36-.16-.54-.06-.17-.1-.35-.14-.52-.05-.19-.09-.38-.12-.57-.04-.19-.08-.37-.1-.55-.02-.13-.04-.24-.05-.36-.03-.17-.05-.34-.06-.5-.03-.21-.04-.43-.05-.65-.03-.4-.03-.8-.01-1.2l.03-.48c.02-.24.04-.48.07-.73.02-.24.08-.73.37-1.03.21-.22.53-.34.96-.36l.42-.02h.01l1.2-.07.25-1.6c.02-.15.05-.31.09-.46.03-.16.07-.31.12-.46.04-.15.09-.3.15-.45s.12-.3.19-.44.14-.29.22-.43c.06-.14.14-.28.24-.41.09-.12.18-.25.27-.38.03-.05.06-.1.11-.15.03-.05.07-.1.12-.15.13-.16.27-.31.42-.46l1.15-1.33-1.32-.88-.57-.39c-1.73-1.14-3.15-2.4-4.23-3.72l-.3-.35c-.01-.02-.02-.03-.04-.05l-.08-.1-.63-.17c-.06-.01-.11-.02-.17-.03-.4-.11-.82-.16-1.26-.16-.22 0-.45.01-.68.04l1.99-.37-.66-1.74-.19-.5c-.35-.92-.6-1.9-.74-2.93l-.06-.47-.02-.03-.25-.36c-.52-.76-1.34-1.11-2.11-1.27h.03l2.14.45.19-1.56.07-.62c.01-.05.02-.11.03-.17.05-.38.12-.77.2-1.15.02-.1.04-.21.06-.3l.04-.19.24-1.16-1.15-.75c-.18-.11-.35-.22-.53-.33l1.12.64 1.07-1.08.27-.27.05-.05.13-.34c.2-.43.43-.86.67-1.28.18-.31.37-.62.57-.92.21-.32.43-.64.66-.96.76-1.04 1.63-2.06 2.63-3.05.39-.41.82-.81 1.27-1.21 0-.01.01-.02.02-.02.44-.39.9-.79 1.37-1.17.25-.2.49-.39.74-.57.24-.19.49-.37.75-.56 7.22-5.28 16.42-8.3 25.25-8.3 6.23 0 11.9 1.53 16.57 4.45.01.01.02.02.04.03.56.35 1.1.74 1.63 1.13.17.12.33.24.49.36l.48.36.83.63 1.01-1.2-1 1.23.9.9.38.38c.15.14.29.29.41.43.4.43.77.87 1.11 1.26.07.07.14.15.2.23l1.13 1.33.6-.52c-.3.28-.61.59-.61.59l.76 1.36c.15.27.29.54.42.81.12.24.23.49.33.73.05.11.09.21.13.31l.74 1.67 1.9-1.02c.18-.09.36-.19.54-.28-.45.24-.9.49-1.34.73l-1.19.66.18 1.35c.07.5.1 1.01.1 1.52v.14c-.02 1.21-.22 2.47-.58 3.75l-.22.75-.36 1.24 1.61.42c.08.01.15.03.23.05.1.02.2.04.3.07.21.06.43.13.64.21.08.03.17.07.25.1.01.01.03.01.05.02.18.08.36.16.53.26.17.09.33.19.49.29.13.07.26.16.38.26l.28.21.24.21.8.73.01.01.44-.13h.01l.72-.2c.1-.01.19-.01.29-.01h.03c.1 0 .19.01.29.02.09.01.19.02.28.05.12.02.23.05.35.09.18.05.36.12.53.21.1.05.2.09.3.15.1.04.2.1.29.16.24.14.47.3.69.47l.27.21c.08.08.17.15.25.22.08.08.16.15.24.23l.22.22c.1.11.2.21.28.32.1.11.18.22.26.33.13.18.26.37.37.56.23.39.43.82.6 1.26.03.05.05.1.06.15.04.11.08.23.11.34.02.03.03.07.03.1.07.24.14.49.2.75.22.96.3 2.01.24 3.09-.04.78-.15 1.55-.34 2.3z" fill="#f7b36f"/><path d="m512 439.23v20.08c-.88-.19-1.76-.41-2.64-.67-.01 0-.02-.01-.02-.01-.44-.13-.88-.26-1.32-.4-.43-.14-.87-.29-1.31-.44-.93-.33-1.87-.68-2.81-1.05-.91-.36-1.82-.73-2.74-1.1l-.23-.09-.1-.04c-2.33-.94-4.74-1.91-7.12-2.65-1.28-.4-2.61-.74-3.97-1.04-.51-.11-1.02-.21-1.54-.31-3.64-.66-7.61-.99-11.99-.99-2.15 0-4.3.08-6.46.2-1.44.08-2.87.18-4.3.3-2.14.17-4.28.36-6.39.56-5.63.53-11.45 1.07-17.23 1.07-3.62 0-6.93-.22-10-.66-.46-.07-.92-.14-1.37-.22-1.36-.23-2.66-.5-3.93-.82-.74-.19-1.47-.39-2.19-.61s-1.44-.45-2.15-.7c-.01 0-.03-.01-.04-.02-.48-.17-.96-.34-1.43-.52-.95-.36-1.9-.74-2.83-1.14-.93-.39-1.86-.82-2.79-1.26-.57-.27-1.15-.54-1.72-.83-.34-.17-.69-.34-1.03-.52-2.65-1.34-5.29-2.8-7.98-4.29l-.1-.05c-1.38-.77-2.77-1.54-4.18-2.31-1.49-.8-3.01-1.61-4.55-2.37-.37-.19-.74-.37-1.12-.55-2.24-1.1-4.53-2.11-6.88-2.99-.39-.14-.78-.28-1.18-.42-.46-.16-.93-.32-1.39-.47-.47-.15-.95-.3-1.42-.44-.48-.14-.97-.28-1.46-.42-.39-.1-.79-.21-1.19-.31-5.96-1.48-12.52-2.21-19.87-2.21-5.59 0-11.25.41-16.88.97-1.64.17-3.28.34-4.91.53-1.43.16-2.87.33-4.33.5-.42.04-.84.09-1.25.14l-.05.01-.13.01c-3.68.43-7.41.87-11.15 1.24-1.25.12-2.5.24-3.75.34-1.11.09-2.22.18-3.33.25-1.1.07-2.21.14-3.32.19-1.66.08-3.31.12-4.96.14-.39 0-.77.01-1.16.01-8.91 0-17.83-1.02-26.53-3.01-.58-.13-1.16-.27-1.74-.41-1.33-.32-2.65-.67-3.97-1.04-.84-.24-1.68-.48-2.52-.74-4.46-1.35-8.84-2.96-13.11-4.83-1.04-.45-2.07-.91-3.09-1.4-.51-.24-1.02-.48-1.53-.73-.8-.4-1.61-.81-2.41-1.22-.01 0-.03-.01-.05-.02-.79-.41-1.57-.82-2.35-1.24-.03 0-.05-.02-.07-.03-.78-.41-1.55-.83-2.31-1.24-.02 0-.04-.01-.05-.02-.78-.42-1.53-.83-2.26-1.23-.49-.27-.99-.54-1.48-.81-4.94-2.68-9.96-5.34-15.2-7.35-1.15-.44-2.31-.85-3.48-1.22-1.76-.56-3.55-1.03-5.36-1.39-.4-.08-.8-.15-1.21-.22-.2-.03-.41-.07-.61-.1-.31-.05-.61-.09-.92-.14-.68-.09-1.36-.17-2.06-.23-.83-.08-1.67-.13-2.54-.16-.09-.01-.18-.01-.27-.01-.63-.03-1.28-.04-1.94-.04-4.07 0-8.19.42-12.3 1.04-2.48.36-4.95.79-7.4 1.24-.01 0-.03 0-.04.01-.92.16-1.83.33-2.74.5-.65.12-1.3.25-1.95.37-1.18.22-2.36.43-3.55.64-1.84.32-3.68.62-5.52.88-1.36.19-2.72.36-4.07.49-2.3.24-4.58.38-6.82.38-3.17 0-6.12-.27-8.89-.84-.3-.06-.61-.13-.91-.19-.3-.07-.6-.14-.9-.22-.29-.07-.58-.15-.87-.22-.01-.01-.02-.01-.03-.01-.29-.08-.58-.17-.86-.26-.14-.04-.28-.08-.42-.13-.28-.09-.55-.18-.83-.28-.29-.1-.58-.21-.88-.32-.29-.11-.57-.22-.86-.34l-1.63-.67c.15-.56.31-1.13.46-1.7.17-.61.33-1.22.49-1.83 1.4-5.21 2.76-10.34 4.06-15.42l2.08.78c1.72.64 3.48 1.16 5.31 1.56.29.06.59.13.88.19.43.08.86.16 1.29.24.65.11 1.31.21 1.98.29.99.12 2 .21 3.04.28h.03c1.04.06 2.1.09 3.19.09 4.66 0 9.42-.57 14.18-1.42.68-.12 1.36-.25 2.04-.38 4.23-.82 8.46-1.83 12.64-2.83 9.73-2.33 19.79-4.74 29.62-4.74 3.83 0 7.34.35 10.73 1.09 1.48.32 2.94.71 4.38 1.17.48.15.96.31 1.43.47.95.33 1.9.69 2.83 1.06.93.36 1.86.76 2.79 1.18.46.21.92.41 1.38.63 1.31.6 2.6 1.24 3.89 1.89.91.46 1.82.93 2.72 1.41.94.49 1.86.98 2.79 1.47 2.21 1.17 4.27 2.26 6.3 3.28.71.34 1.41.69 2.11 1.02.38.2.77.38 1.16.56 2.56 1.18 5.16 2.25 7.81 3.21 1.06.39 2.13.75 3.2 1.1l1.62.51c1.56.48 3.14.92 4.72 1.32 2.64.67 5.31 1.23 8 1.69 2.02.34 4.05.62 6.08.84 1.66.18 3.33.32 4.99.41 1.86.11 3.72.16 5.58.16 2.04 0 4.1-.06 6.14-.19.68-.04 1.36-.08 2.03-.14 1.99-.16 3.99-.39 5.99-.65 1.42-.19 2.84-.39 4.23-.59 1.49-.23 2.96-.46 4.38-.69.44-.07.89-.14 1.33-.21.78-.12 1.54-.25 2.31-.37l2.28-.36c1.51-.23 3.03-.46 4.55-.66 4.64-.64 9.17-1.08 13.68-1.08 3.08 0 5.96.21 8.7.65.45.06.9.14 1.34.22.64.12 1.27.25 1.89.39 1.22.27 2.41.6 3.58.97.39.13.78.26 1.17.4h.01c1.16.41 2.31.86 3.43 1.35 1.08.47 2.14.96 3.19 1.47.8.39 1.6.78 2.38 1.18.65.32 1.29.65 1.93.98l-.79 1.84.9-1.78c.39.2.79.4 1.19.6 1.55.78 3.11 1.56 4.7 2.29 1.14.53 2.3 1.03 3.47 1.49.46.18.93.35 1.4.52 9.93 3.54 20.94 3.6 31.62 3.66 2.16.01 4.32.03 6.49.06 1.44.03 2.88.07 4.31.13 9.26.39 18.01 1.64 25.88 6.03.6.34 1.2.69 1.8 1.07 1.48.93 2.86 1.95 4.33 3.1.19.14.38.29.57.44.52.41 1.05.83 1.6 1.28l.14.12c.97.77 1.92 1.53 2.88 2.26.85.64 1.7 1.26 2.58 1.85.65.44 1.31.86 1.99 1.25.37.21.74.42 1.12.62.75.39 1.52.76 2.31 1.1.92.4 1.86.76 2.84 1.08 1.12.37 2.28.69 3.49.97 3.61.83 7.6 1.23 12.13 1.23.84 0 1.71-.01 2.62-.05.55-.02 1.11-.04 1.69-.07s1.18-.06 1.79-.1c.43-.03.87-.06 1.33-.1z" fill="#e6faff"/><path d="m512 404.16v35.07c-.46.04-.9.07-1.33.1-1.22.08-2.38.13-3.48.17-.89.02-1.75.04-2.59.04-6.05 0-11.17-.71-15.65-2.19-.98-.32-1.92-.68-2.84-1.08-.79-.34-1.56-.71-2.31-1.1-.38-.2-.75-.41-1.12-.62-.68-.39-1.34-.81-1.99-1.25-.88-.58-1.73-1.2-2.58-1.85-.96-.73-1.91-1.49-2.88-2.26l-.14-.12c-.55-.45-1.08-.87-1.6-1.28-.19-.15-.38-.3-.57-.44-1.47-1.15-2.85-2.17-4.33-3.1-9.47-5.98-20.72-7-31.99-7.23-2.17-.03-4.33-.05-6.49-.06-10.68-.06-21.69-.12-31.62-3.66-.47-.17-.94-.34-1.4-.52-1.17-.46-2.33-.96-3.47-1.49-1.59-.73-3.15-1.51-4.7-2.29-.42-.22-.85-.43-1.27-.65-.01-.01-.02-.01-.03-.01-.64-.33-1.28-.66-1.93-.98-.78-.4-1.58-.79-2.38-1.18-1.05-.51-2.11-1-3.19-1.47-1.51-.64-3.04-1.24-4.61-1.74-1.17-.37-2.36-.7-3.58-.98-.62-.14-1.25-.27-1.89-.39-3.13-.57-6.46-.85-10.05-.85-6.02 0-12.18.79-18.22 1.72-1.51.23-3.01.47-4.51.71-1.85.3-3.8.61-5.79.92-1.39.2-2.81.4-4.23.59-2 .25-4.01.48-5.99.64-.67.06-1.35.11-2.03.15-2.04.13-4.1.19-6.14.19-1.86 0-3.72-.05-5.58-.16-1.66-.09-3.33-.23-4.99-.41-2.03-.22-4.06-.5-6.08-.84-4.3-.73-8.56-1.74-12.72-3.01-4.32-1.33-8.54-2.94-12.62-4.83-.39-.18-.78-.36-1.17-.55-.7-.33-1.4-.68-2.11-1.02-2.03-1.02-4.09-2.11-6.3-3.28-.93-.49-1.85-.98-2.79-1.47-.9-.48-1.81-.95-2.72-1.41-1.29-.65-2.58-1.29-3.89-1.89-.46-.22-.92-.42-1.38-.63-.92-.41-1.85-.8-2.79-1.18-.93-.37-1.88-.73-2.83-1.06-.47-.16-.95-.32-1.43-.47-1.44-.46-2.9-.85-4.38-1.17-3.39-.74-6.9-1.09-10.73-1.09-9.83 0-19.89 2.41-29.62 4.74-4.18 1-8.41 2.01-12.64 2.83-5.45 1.06-10.89 1.81-16.16 1.81-1.11 0-2.19-.03-3.25-.1h-.03c-1.03-.06-2.05-.15-3.04-.28-.67-.08-1.33-.18-1.98-.29-.43-.08-.86-.16-1.29-.24-.29-.06-.59-.13-.88-.19-1.96-.45-3.87-1.03-5.72-1.75l-1.65-.64h-.01l.44-1.72c.24-.94.48-1.89.73-2.84 1.75-6.85 3.41-13.6 4.99-20.25l.13-.52.86-.87.12-.12.31-.01h.18c.45-.16.89-.31 1.35-.45l.64-.19c1.26-.38 2.55-.69 3.87-.92.32-.07.65-.13.98-.17.39-.07.78-.12 1.18-.17.22-.04.44-.06.66-.08.44-.05.88-.09 1.33-.13.01-.01.02-.01.04 0 .59-.05 1.19-.08 1.8-.11.61-.02 1.22-.03 1.85-.03 3.68 0 7.39.41 11.11 1.05 6.21 1.09 12.45 2.86 18.56 4.6l2.98.86c11.94 3.36 22.75 5.7 32.91 7.11 5.66.78 11.13 1.28 16.48 1.5 1.07.04 2.14.08 3.2.1 1 .02 1.99.03 2.98.03h.81c7.29-.03 14.59-.61 21.83-1.46 7.23-.85 14.4-1.97 21.46-3.07l.17-.02c4.54-.71 9.14-1.42 13.78-2.06 3.9-.55 7.82-1.05 11.75-1.45.02 0 .04 0 .06-.01 3.92-.4 7.85-.7 11.76-.87.9-.04 1.76-.06 2.56-.08.85-.02 1.65-.03 2.43-.03.6 0 1.19.01 1.77.02.52.01 1.04.03 1.54.05.46.02.91.04 1.35.07.46.03.91.06 1.35.1.45.03.9.08 1.35.13.46.05.92.1 1.39.17.46.06.92.13 1.38.2.49.08.98.17 1.46.27.48.09.96.2 1.45.31.48.11.97.23 1.45.37.17.04.34.09.51.14.32.09.64.19.95.29.01 0 .02 0 .03.01.41.13.82.27 1.21.41.78.27 1.56.58 2.33.93.38.17.75.35 1.11.53.37.18.73.36 1.08.55 0 .01.01.01.01.01 1.13.61 2.2 1.29 3.24 2.02.5.35 1 .72 1.48 1.08.02.02.04.04.06.05 1.01.77 1.98 1.59 2.94 2.44.96.83 1.89 1.69 2.82 2.56.45.42.91.85 1.37 1.28.65.61 1.3 1.22 1.95 1.82.33.3.65.6.98.9.31.28.61.55.92.82 1.34 1.2 2.73 2.35 4.17 3.41 10.47 7.68 23.62 10.2 36.19 12.12 1.74.27 3.47.52 5.22.77 3.48.5 6.97.97 10.46 1.4 5.25.65 10.51 1.23 15.78 1.72h.01c3.51.34 7.03.64 10.55.9h.01c3.52.27 7.05.5 10.57.7h.01c10.59.61 21.19.91 31.76.91.4 0 .8 0 1.2-.01z" fill="#54c1f2"/><path d="m512 293.95v110.21h-1.2c-10.58 0-21.18-.3-31.76-.9-.01 0-.01 0-.01 0-3.53-.2-7.05-.44-10.57-.7h-.01c-3.52-.27-7.04-.57-10.55-.9-.01 0-.01 0-.01 0-5.27-.5-10.53-1.08-15.78-1.72-3.49-.44-6.98-.9-10.46-1.4-1.75-.25-3.48-.5-5.22-.77-12.57-1.92-25.72-4.44-36.19-12.12-1.44-1.06-2.83-2.21-4.17-3.41-.31-.27-.61-.54-.92-.82-.33-.3-.65-.6-.98-.9-.59-.54-1.17-1.08-1.75-1.62l-.2-.19c-.46-.43-.91-.86-1.37-1.29-.93-.87-1.86-1.73-2.82-2.56-.95-.84-1.93-1.66-2.94-2.44-.02-.01-.04-.03-.06-.05-.48-.36-.98-.73-1.48-1.08-1.04-.73-2.11-1.41-3.24-2.02 0 0-.01 0-.01-.01-.35-.19-.71-.37-1.08-.55-.36-.18-.73-.36-1.11-.53-.75-.33-1.53-.64-2.33-.93-.39-.14-.8-.28-1.21-.41-.01-.01-.02-.01-.03-.01-.31-.1-.63-.2-.95-.29-.17-.05-.34-.1-.51-.14-.47-.14-.96-.26-1.45-.37-.48-.12-.96-.22-1.45-.31-.48-.1-.97-.19-1.46-.27-.45-.08-.91-.14-1.38-.2-.46-.07-.92-.12-1.39-.17-.44-.05-.89-.09-1.35-.13-.44-.04-.89-.07-1.35-.1-.44-.03-.89-.05-1.35-.07-.5-.02-1.02-.04-1.54-.05-.58-.01-1.17-.02-1.77-.02-.78 0-1.58.01-2.43.03-.81.02-1.66.05-2.55.09-3.92.17-7.85.47-11.77.86-.02.01-.04.01-.06.01-3.93.41-7.85.9-11.75 1.45-4.64.64-9.24 1.35-13.78 2.06-.04.01-.08.01-.12.02-7.07 1.1-14.26 2.22-21.51 3.07-7.24.85-14.54 1.43-21.83 1.46h-.81c-.99 0-1.98-.01-2.98-.03-1.06-.02-2.13-.06-3.2-.1-5.34-.21-10.81-.71-16.48-1.5-10.16-1.41-20.97-3.75-32.91-7.11l-2.98-.86c-6.11-1.74-12.35-3.51-18.56-4.6-3.72-.66-7.43-1.06-11.08-1.06-.64 0-1.26.01-1.88.04-.61.02-1.21.05-1.8.11-.02-.01-.03-.01-.04 0-.45.03-.89.07-1.33.13-.22.02-.44.04-.66.08-.4.04-.79.1-1.18.17-.33.04-.66.1-.98.17-1.32.23-2.6.54-3.87.92l-.64.19-1.53.45-.43.13-.7.21.99-4.26.25-1.06c.36-1.56.74-3.18 1.14-4.82.21-.87.42-1.74.65-2.61.21-.85.44-1.71.67-2.57.19-.7.39-1.4.59-2.1.7-2.41 1.48-4.81 2.38-7.15l.38-.98.57-1.42v-.01l22.64 2.66 23.86 2.8 35.01 4.13 1.46.17 21.46 2.53 36.91 4.35-.01-.01c-6.22-6.33-12.45-12.74-18.64-19.21-2.26-2.36-4.52-4.72-6.77-7.09-2.2-2.31-4.39-4.62-6.57-6.95-2.01-2.13-4.01-4.27-6.01-6.42-2.09-2.23-4.17-4.47-6.24-6.72-1.77-1.91-3.54-3.83-5.29-5.75-1.12-1.21-2.23-2.41-3.33-3.63l-.64-.69h1.99z" fill="#1687cb"/><path d="m512 159.45v134.5l-255.79.33-.01.01-1.35.69c-.21-.23-.42-.46-.63-.69h-.01l-.39-.43c-2.7-2.97-5.4-5.95-8.09-8.94-4.74-5.26-9.45-10.56-14.13-15.87-7.02-7.97-13.97-15.99-20.85-24.06-4.6-5.38-9.15-10.78-13.66-16.19-2.27-2.71-4.52-5.42-6.76-8.13-1.19-1.44-2.38-2.89-3.56-4.33-.9-1.1-2.26-2.77-4.08-3-.15-.01-.3-.02-.44-.02-1.28 0-2.49.65-3.46 1.17-1.72.92-3.44 1.85-5.15 2.8-1.4.77-2.79 1.56-4.18 2.35-1.56.88-3.11 1.77-4.66 2.67s-3.09 1.81-4.62 2.74c-1.54.91-3.07 1.84-4.59 2.79-1.53.93-3.05 1.88-4.57 2.85-.18.12-.37.24-.56.35-1.33.84-2.65 1.68-3.97 2.54-1.75 1.13-3.49 2.26-5.22 3.41-.96.63-1.91 1.26-2.86 1.91-2.23 1.48-4.45 2.98-6.66 4.5-1.04.71-2.09 1.42-3.13 2.15-2.94 2.02-5.87 4.07-8.78 6.14-1.46 1.02-2.92 2.05-4.36 3.09-1.45 1.04-2.9 2.07-4.34 3.1-4.31 3.08-8.59 6.17-12.84 9.25-1.46 1.06-2.93 2.12-4.41 3.2-2.16 1.56-4.33 3.13-6.51 4.69-3.68 2.64-7.38 5.29-11.11 7.92-.02.02-.04.03-.05.04-2.97 2.08-5.94 4.16-8.93 6.22-1.5 1.04-3 2.07-4.5 3.09h-.01l-3.14 2.13-.63-.01c-6.36-.09-12.85-.14-19.29-.14-3.84 0-7.7.02-11.57.06-3.41.02-6.83.06-10.24.12-.19.01-.39.01-.59.01-2.38.04-4.76.09-7.13.14-2.57.06-5.13.12-7.67.19-.84.02-1.68.05-2.52.07v-146.69c.46-.44.91-.87 1.37-1.3.55-.52 1.11-1.04 1.68-1.55.53-.48 1.07-.96 1.61-1.43.35-.31.71-.62 1.07-.92.41-.36.82-.7 1.23-1.04.13-.11.27-.23.41-.34.44-.37.89-.73 1.35-1.09.79-.63 1.59-1.25 2.4-1.86.67-.5 1.34-1 2.02-1.49s1.36-.97 2.05-1.45c1.37-.94 2.76-1.86 4.17-2.75 0 0 0-.01.01-.01.71-.43 1.41-.87 2.13-1.3 7.14-4.29 14.74-7.85 22.59-10.56.79-.27 1.58-.54 2.37-.79.79-.26 1.58-.51 2.37-.74.11-.04.23-.08.36-.11.78-.23 1.57-.45 2.36-.66.72-.2 1.45-.39 2.18-.57.14-.04.29-.08.44-.11.64-.16 1.29-.31 1.93-.46.23-.05.45-.1.68-.15.45-.1.9-.2 1.35-.29.73-.15 1.46-.3 2.19-.43.43-.08.86-.16 1.29-.23.72-.13 1.44-.25 2.16-.36.52-.08 1.04-.16 1.56-.23.14-.02.27-.03.41-.05.43-.05.87-.1 1.31-.15.11-.01.22-.02.34-.03.58-.06 1.16-.11 1.74-.16.44-.04.89-.07 1.34-.09 1.37-.09 2.74-.13 4.1-.13.73 0 1.5.01 2.31.05.24.01.49.02.74.03.66.03 1.35.09 2.05.14.23.02.46.04.7.06.94.08 1.89.19 2.88.34.32.05.64.1.97.15.38.06.75.13 1.13.2 1.83.33 3.71.79 5.58 1.4 1.04.32 2.07.7 3.09 1.13h.01c.37.16.73.32 1.1.49.26.12.52.24.78.37.63.3 1.25.63 1.86.98 1.66.95 3.25 2.07 4.72 3.37.51.44 1 .91 1.47 1.4 1.55 1.61 2.94 3.45 4.09 5.58.28.52.54 1.04.78 1.56 2.01 4.25 3.29 9.65 1.86 17.7-.06.35-.12.7-.19 1.04-.07.36-.14.72-.23 1.09-1.24 5.55-3.7 12.27-7.93 20.58-.23.46-.47.92-.71 1.38-.32.62-.65 1.23-.98 1.85-.17.33-.35.66-.53.99l-18.05 33.1-.09.17c1.8-.75 3.74-1.52 5.79-2.26.51-.19 1.03-.37 1.56-.55 1.05-.36 2.14-.71 3.24-1.04.84-.26 1.66-.49 2.47-.7.03-.01.07-.02.1-.02.26-.07.53-.14.8-.2.29-.08.57-.15.86-.21.29-.07.58-.14.86-.2h.02c.37-.08.74-.16 1.1-.23.73-.14 1.47-.27 2.21-.39.38-.07.75-.12 1.12-.17s.75-.1 1.12-.14c.77-.09 1.53-.16 2.28-.21.38-.03.76-.05 1.14-.06.31-.02.62-.03.92-.03.15-.01.31-.02.46-.01h1.04c.2-.01.39 0 .59.01.4.01.8.02 1.19.05h.01c.49.03.98.07 1.47.11.11.01.23.03.35.04.4.04.81.09 1.21.15.16.02.31.04.47.07.35.05.7.11 1.04.18.32.06.64.12.95.19.23.04.46.09.69.15.25.06.49.12.74.19.32.07.63.16.94.26.22.06.44.13.66.2.19.05.38.11.58.19.2.06.4.13.6.2.35.12.7.25 1.05.39.25.1.49.2.73.3.58.23 1.15.5 1.72.79.28.13.55.28.83.42.29.15.58.31.87.49.22.12.44.25.66.39 1.12.67 2.18 1.43 3.17 2.24.15.13.31.26.45.39.34.28.66.58.98.88.33.31.65.63.96.96l.08.08c.25.27.51.56.75.85.05.05.1.11.15.17 1.02 1.22 1.91 2.53 2.65 3.91.74-8.64 5.79-16.88 12.95-21.85.25-.18.5-.35.76-.51.22-.15.44-.29.66-.42.3-.19.6-.36.91-.53.3-.17.6-.33.9-.48.26-.14.51-.27.78-.38.36-.18.72-.34 1.09-.49.31-.13.63-.26.95-.38 1.2-.45 2.42-.81 3.67-1.09.25-.06.51-.11.76-.16.26-.05.52-.1.78-.13.29-.05.59-.1.89-.13 1.26-.17 2.55-.25 3.85-.25 6.92 0 13.86 2.4 19.05 6.58l.11.1.1.11c.48.52.99.96 1.56 1.36-.47-.45-.97-.91-1.56-1.4l-.12-.11-.11-.12c-1.39-1.63-1.99-3.47-2.21-5.15l-.02-.13c0-.04-.01-.07-.01-.11-.02-.19-.04-.39-.05-.58-.02-.42-.03-.84-.01-1.26.01-.17.02-.33.03-.49 0-.06.01-.12.01-.18.03-.35.07-.68.11-.96.09-.57.21-1.14.37-1.71.05-.19.11-.37.16-.56.06-.2.12-.39.19-.58.08-.24.17-.49.27-.72.1-.25.2-.49.31-.73l.01-.01c.1-.22.2-.44.31-.66.12-.24.24-.48.38-.71.12-.21.25-.42.37-.63 1.08-1.74 2.43-3.3 3.97-4.56.19-.17.38-.32.58-.46.2-.15.4-.29.6-.43.2-.13.41-.26.62-.39.63-.38 1.29-.71 1.96-.99.33-.14.67-.26 1.01-.37.54-.17 1.1-.32 1.66-.44.28-.06.57-.12.85-.17.29-.06.57-.11.86-.15s.58-.08.87-.11c.89-.11 1.8-.16 2.73-.16.3 0 .59.01.89.03.48.02.96.05 1.45.09.47.04.94.09 1.42.15.02 0 .04.01.06.01.33.04.67.1 1.01.15.22.04.43.07.65.12.38.07.76.14 1.15.23.1.02.2.04.31.07.38.08.76.18 1.15.28.3.07.6.15.91.24.73.2 1.48.42 2.25.68.39.12.77.25 1.17.39.22.08.45.16.68.25.23.08.46.16.69.25.67.25 1.35.52 2.02.79.31.13.62.25.94.39.84.34 1.68.7 2.52 1.07 1.2.54 2.39 1.09 3.57 1.64-1.04-1.86-1.99-3.76-2.85-5.71-.09-.19-.18-.38-.25-.57-.27-.6-.52-1.2-.76-1.81-.28-.69-.55-1.39-.8-2.09-.47-1.28-.9-2.59-1.29-3.9-.09-.28-.17-.56-.25-.84-.11-.38-.22-.76-.32-1.15-.12-.46-.24-.92-.35-1.38-.15-.61-.3-1.23-.43-1.84-.14-.62-.26-1.23-.38-1.85s-.23-1.24-.33-1.86c-.08-.5-.16-1-.22-1.5-.03-.16-.05-.32-.07-.47-.06-.44-.12-.87-.16-1.31-.04-.24-.06-.49-.09-.74-.04-.39-.08-.79-.11-1.19-.03-.33-.06-.66-.08-.99-.03-.3-.05-.61-.06-.92-.04-.56-.07-1.12-.08-1.69-.04-.88-.05-1.77-.05-2.66.01-3.68.31-8.4 2.55-12.35.3-.53.63-1.04 1-1.52.19-.26.39-.52.63-.77 1.56-1.85 3.62-3.33 6.02-4.37.06-.03.11-.06.16-.08 2.62-1.11 5.63-1.71 8.86-1.71 2.07 0 4.16.26 6.12.75.28.07.56.15.84.23.34.1.67.2 1.01.32.45.15.89.32 1.33.49.49.2.98.4 1.47.62.41.18.81.38 1.21.58.01 0 .02.01.03.01.37.19.74.38 1.11.58.4.22.8.44 1.19.68.25.15.5.3.75.46.49.3.98.61 1.46.95.72.48 1.43.99 2.13 1.53.24.17.47.35.7.54.23.17.46.35.68.54.45.36.9.74 1.34 1.11h.01c.71.61 1.42 1.23 2.11 1.87 1.04.95 2.05 1.92 3.04 2.89l.05.05c1.18 1.15 2.32 2.31 3.43 3.43l.1.1c-.08-1.15-.14-2.43-.17-3.81l-.01-1.21c0-.38 0-.76.01-1.15 0-.67.02-1.33.05-1.99.02-.62.05-1.24.1-1.86.01-.2.02-.41.04-.62.03-.43.06-.86.11-1.29.04-.43.08-.86.13-1.28s.1-.84.16-1.27c.09-.64.18-1.27.28-1.9.01-.08.03-.16.04-.24.01-.06.02-.11.03-.17.07-.36.13-.72.2-1.08.08-.42.16-.83.25-1.24 1.07-5.15 2.93-10.47 5.99-15.33.21-.33.42-.65.63-.97.55-.83 1.12-1.62 1.72-2.39.68-.87 1.39-1.71 2.14-2.5.36-.38.73-.75 1.11-1.11.76-.72 1.57-1.4 2.41-2.05.34-.26.69-.51 1.05-.76l.75-.51c.51-.34 1.03-.67 1.56-.96.27-.15.53-.3.8-.45 4.67-2.56 9.99-4.01 15.18-4.01 3.02 0 5.88.48 8.51 1.44.37.13.74.27 1.1.42.96.4 1.89.86 2.78 1.39.96.57 1.87 1.2 2.73 1.91.27.23.54.46.8.7.22.2.44.41.65.61 1.49 1.45 2.72 3.05 3.74 4.73.29.49.57.97.82 1.47.26.5.5 1 .73 1.51.33.76.64 1.53.91 2.31.15.45.3.91.44 1.37.11.38.21.76.31 1.14.08.31.16.63.23.94.07.29.13.59.2.89v.02c.08.39.15.79.22 1.18v.01c.1.52.18 1.05.24 1.57v.01c.07.53.13 1.06.17 1.59.04.4.07.79.1 1.18.14 1.94.14 3.82.07 5.58-.03.73-.07 1.44-.12 2.12-.01.05-.01.11-.02.16-.04.66-.11 1.29-.17 1.89-.07.64-.15 1.24-.23 1.81-.13.92-.28 1.84-.44 2.76-.49 2.83-1.09 5.67-1.71 8.45-.12.53-.23 1.05-.35 1.57-.13.57-.25 1.14-.38 1.72s-.26 1.18-.39 1.77c-.27 1.26-.54 2.55-.79 3.85-.09.42-.17.83-.24 1.25-.12.64-.24 1.28-.34 1.92-.07.44-.14.89-.21 1.33-.13.82-.24 1.65-.34 2.48-.01.07-.02.13-.02.2v.02c0 .01-.01.03-.01.04-.25 2.15-.41 4.33-.42 6.5v.16c1.03-1.34 2.08-2.71 3.17-4.08l.78-.97c.86-1.07 1.77-2.17 2.73-3.26.35-.4.71-.8 1.07-1.19.39-.44.8-.87 1.22-1.31.2-.21.41-.43.63-.64l.63-.63c.21-.22.43-.42.65-.62.22-.21.44-.42.66-.61.32-.3.65-.59.99-.88.22-.2.45-.39.68-.58.35-.29.7-.58 1.07-.86.3-.23.6-.46.92-.69.17-.13.34-.25.52-.37.72-.52 1.48-1.01 2.25-1.48.36-.21.72-.42 1.09-.62.42-.23.85-.46 1.28-.67.42-.21.85-.4 1.29-.59.41-.17.83-.33 1.25-.48.46-.16.93-.32 1.41-.45.23-.07.46-.13.69-.19.25-.07.5-.13.75-.19.03-.01.06-.02.1-.02.29-.06.58-.13.87-.18.16-.03.33-.07.49-.09.32-.06.63-.11.95-.15.17-.02.34-.04.5-.06.26-.03.52-.06.78-.08.69-.05 1.37-.08 2.06-.08 3.45 0 6.58.69 9.24 2 .24.11.47.23.69.36.29.16.57.32.84.5.25.16.49.32.73.49.23.17.46.34.69.52.45.36.88.74 1.28 1.15.47.47.9.96 1.3 1.48 3.45 4.52 4.13 10.45 4.35 15.65.06 1.42.09 2.85.09 4.28 0 .77-.01 1.54-.03 2.3-.02.79-.04 1.58-.08 2.37s-.08 1.58-.13 2.37c-.04.56-.09 1.12-.13 1.68-.03.28-.05.56-.08.84-.07.78-.15 1.56-.24 2.35-.06.51-.12 1.02-.19 1.53-.06.47-.12.93-.19 1.39-.07.49-.14.98-.22 1.46-.08.49-.16.97-.24 1.46-.08.48-.17.97-.26 1.45s-.18.97-.28 1.45c-.09.43-.18.87-.27 1.3-.11.53-.23 1.06-.35 1.59-.35 1.53-.74 3.06-1.16 4.57-.21.77-.43 1.53-.66 2.29-.19.62-.38 1.24-.58 1.86-.09.26-.17.52-.26.78-.2.63-.42 1.25-.64 1.87-.22.64-.45 1.28-.69 1.91-.04.11-.08.21-.12.32-1.01 2.66-2.13 5.28-3.35 7.85 1.63-1.94 3.55-3.65 5.68-5.07l.6-.38c.02-.01.03-.02.05-.03.29-.18.58-.35.87-.52.28-.16.56-.31.84-.46.27-.14.53-.28.8-.41 3.98-2 8.48-3.09 13.06-3.09 1.67 0 3.3.14 4.89.43.81.14 1.6.32 2.38.54.38.1.76.21 1.14.34.38.12.75.25 1.12.39.33.13.66.26.99.4.24.1.47.21.71.32.28.13.56.26.83.4.55.28 1.09.58 1.62.9.36.22.72.45 1.07.68.29.19.57.39.85.59.25.18.49.36.73.54 3.39 2.58 6.19 5.96 8.15 9.77.14.27.28.54.41.82.15.32.3.64.44.96.17.39.34.79.49 1.19.16.4.31.81.44 1.22.08.23.15.47.22.7 0 .01.01.02.01.03.07.22.14.44.21.67.03.12.06.25.09.37.09.35.18.71.26 1.07.07.31.14.62.19.93.05.26.1.52.13.78.01.05.02.1.03.15.22 1.48.32 2.97.28 4.47.98-1.24 2.07-2.4 3.25-3.46.38-.36.78-.7 1.19-1.01.02-.03.04-.05.07-.06.37-.3.76-.59 1.15-.88.05-.04.1-.07.15-.11.39-.28.78-.55 1.18-.8.03-.02.07-.05.11-.07.43-.28.87-.54 1.32-.8.42-.24.86-.48 1.3-.7.36-.19.72-.36 1.09-.53.29-.14.59-.27.89-.39.15-.07.29-.14.44-.19.27-.12.54-.22.81-.32.25-.1.49-.19.74-.27.53-.19 1.06-.37 1.59-.52.54-.16 1.08-.31 1.63-.44.23-.06.46-.12.69-.17.09-.03.19-.05.29-.06.66-.15 1.34-.28 2.02-.38s1.37-.19 2.06-.26c.01-.01.02-.01.03 0 .28-.03.57-.05.85-.07.11-.01.22-.02.33-.03h.1c.29-.02.58-.04.87-.05.44-.01.88-.02 1.31-.02.45 0 .89.01 1.34.03.27.01.54.02.81.04.29.01.57.04.86.06.36.03.71.07 1.07.11.4.05.81.1 1.21.17.42.06.84.13 1.25.21.04.01.08.02.12.03 2.98.57 5.8 1.54 8.39 2.89.38.19.74.39 1.11.6.36.21.72.42 1.07.64.71.44 1.39.91 2.05 1.41l.27.2c.73.57 1.43 1.17 2.1 1.81.02-.06.03-.11.05-.17.35-1.23.65-2.49.89-3.75.07-.33.13-.66.19-1 .07-.33.12-.66.17-.99.2-1.22.36-2.45.5-3.68.09-.79.17-1.57.24-2.35.13-1.33.24-2.66.35-3.99.01-.03.01-.05.01-.08.1-1.23.2-2.41.31-3.57.04-.39.07-.77.11-1.15.09-.84.18-1.66.28-2.47.07-.63.16-1.25.25-1.87 0-.05.01-.11.02-.16v-.01c.1-.64.2-1.27.32-1.9.09-.51.19-1.01.3-1.51.04-.2.08-.39.13-.58.06-.27.12-.53.19-.79.08-.33.16-.65.25-.97.44-1.66.96-3.22 1.57-4.68.2-.5.41-.99.64-1.47.21-.45.43-.89.65-1.32.26-.49.53-.97.81-1.43.36-.61.75-1.2 1.17-1.78.16-.23.33-.45.5-.67.15-.19.3-.38.45-.56.14-.17.27-.33.41-.49.04-.05.08-.09.12-.14.14-.15.27-.3.41-.44.16-.17.32-.34.49-.5.32-.34.66-.65 1.01-.95.17-.15.35-.3.52-.44.18-.15.36-.29.54-.42.18-.14.36-.27.55-.4.18-.14.37-.27.56-.39.6-.39 1.24-.74 1.92-1.03 0 0 0 0 .01-.01 2.02-.91 4.33-1.39 6.68-1.39 1.19 0 2.36.12 3.49.37.67.13 1.32.32 1.96.54.27.1.54.2.8.32.26.11.51.22.76.34.23.12.46.24.69.37.03.02.05.03.08.04.22.14.44.27.65.41.34.22.66.46.97.71s.59.52.87.79c.19.19.36.37.53.57l.18.2c.78.97 1.39 2.08 1.79 3.28.58-1.7 1.19-3.45 1.83-5.22.22-.59.44-1.19.68-1.8.13-.34.27-.69.41-1.04.24-.6.48-1.2.74-1.8.19-.44.38-.88.58-1.33.13-.28.27-.57.4-.85.18-.38.36-.76.55-1.14.76-1.52 1.59-3.02 2.51-4.46.23-.36.46-.72.71-1.07.22-.32.44-.64.67-.95.09-.13.19-.25.29-.38.17-.23.35-.46.53-.69.28-.35.56-.69.86-1.03.28-.32.56-.63.86-.93.22-.24.45-.46.68-.68.18-.18.36-.35.54-.52.36-.33.73-.64 1.1-.95.32-.26.66-.52.99-.77.29-.22.59-.43.9-.63.3-.2.6-.4.91-.59.23-.14.47-.28.7-.42 1.64-.96 3.37-1.7 5.1-2.2z" fill="#fff"/><path d="m0 0v148.17c.46-.44.91-.87 1.37-1.3.55-.52 1.11-1.04 1.68-1.55.53-.48 1.07-.96 1.61-1.43.35-.31.71-.62 1.07-.92.41-.36.82-.7 1.23-1.04.13-.11.27-.23.41-.34.44-.37.89-.73 1.35-1.09.79-.63 1.59-1.25 2.4-1.86.67-.51 1.34-1.01 2.02-1.49.68-.49 1.36-.97 2.05-1.45 1.37-.95 2.76-1.87 4.17-2.75 0 0 0-.01.01-.01.7-.45 1.41-.88 2.13-1.3 7.15-4.33 14.74-7.88 22.59-10.56.79-.28 1.58-.55 2.37-.79.79-.26 1.58-.51 2.37-.74.11-.04.23-.08.36-.11.78-.23 1.57-.45 2.36-.66.72-.2 1.45-.39 2.18-.57.14-.04.29-.08.44-.11.64-.16 1.29-.31 1.93-.46.23-.05.45-.1.68-.15.45-.1.9-.2 1.35-.29.73-.15 1.46-.3 2.19-.43.43-.08.86-.16 1.29-.23.72-.13 1.44-.25 2.16-.36.52-.08 1.04-.16 1.56-.23.14-.02.27-.03.41-.05.43-.05.87-.1 1.31-.15.11-.01.22-.02.34-.03.58-.06 1.16-.11 1.74-.16.44-.04.89-.07 1.34-.09 1.33-.08 2.67-.12 3.99-.12.76 0 1.57.01 2.42.04.24.01.49.02.74.03.66.03 1.35.09 2.05.14.23.02.46.04.7.06.23.02.47.05.71.08.71.07 1.43.15 2.17.26.32.05.64.1.97.15.38.06.75.13 1.13.2 1.83.35 3.71.81 5.58 1.4 1.03.33 2.07.71 3.09 1.13h.01c.37.16.73.32 1.1.49.26.12.52.24.78.37.63.3 1.25.63 1.86.98 1.66.95 3.25 2.07 4.72 3.37.51.44 1 .91 1.47 1.4 1.55 1.61 2.94 3.45 4.09 5.58.28.52.54 1.04.78 1.56 2.53 5.55 2.87 11.56 1.86 17.7-.06.35-.12.7-.19 1.04-.07.36-.14.72-.23 1.09-1.45 6.88-4.48 13.89-7.93 20.58-.23.46-.47.92-.71 1.38-.32.62-.65 1.23-.98 1.85-.18.33-.36.66-.54.99l-18.04 33.1 5-1.84c.24-.09.47-.17.7-.25.53-.2 1.05-.38 1.56-.55 1.1-.38 2.18-.73 3.24-1.04.84-.26 1.66-.49 2.47-.7.03-.01.07-.02.1-.02.27-.08.53-.14.8-.2.29-.08.57-.15.86-.21.29-.07.58-.14.86-.2h.02c.37-.08.74-.16 1.1-.23.75-.15 1.49-.28 2.21-.39.38-.07.75-.12 1.12-.17.38-.06.75-.1 1.12-.14.77-.09 1.53-.16 2.28-.21.38-.03.76-.05 1.14-.06.31-.02.62-.03.92-.03.15-.01.31-.02.46-.01.15-.01.3-.01.45-.01.2 0 .4 0 .59.01.2-.01.39 0 .59.01.4.01.8.02 1.19.05h.01c.49.03.98.07 1.47.11.11.01.23.03.35.04.4.04.81.09 1.21.15.16.02.31.04.47.07.35.05.7.11 1.04.18.32.05.64.12.95.19.23.04.46.09.69.15.25.06.49.12.74.19.32.07.63.16.94.26.22.05.44.12.66.2.19.05.38.11.58.19.2.05.4.12.6.2.35.12.7.25 1.05.39.25.09.49.18.73.3.58.23 1.15.5 1.72.79.28.12.56.26.83.42.29.15.58.31.87.49.22.11.44.24.66.39 1.12.67 2.18 1.43 3.17 2.24.16.13.31.25.45.39.34.28.66.58.98.88.33.31.65.63.96.96l.08.08c.25.27.51.56.75.85.05.05.1.11.15.17l2.48 2.96.98-3.74c1.83-7.01 6.27-13.17 12.14-17.16.25-.18.5-.35.76-.51.22-.15.44-.29.66-.42.3-.19.6-.36.91-.53.29-.18.59-.34.9-.48.26-.14.51-.27.78-.38.36-.18.72-.34 1.09-.49.31-.14.63-.26.95-.38 1.2-.45 2.42-.81 3.67-1.09.25-.06.51-.11.76-.16.26-.05.52-.1.78-.13.29-.05.59-.1.89-.13 1.31-.2 2.65-.29 3.99-.29 4.77 0 9.53 1.14 13.76 3.29l3.32 1.69-.4-3.57-.02-.13c0-.04-.01-.07-.01-.11-.02-.19-.04-.39-.05-.58-.02-.42-.03-.84-.01-1.26.01-.17.02-.33.03-.49 0-.06.01-.12.01-.18.03-.32.07-.64.12-.96.09-.58.21-1.15.36-1.71.05-.19.11-.37.16-.56.06-.2.12-.39.19-.58.08-.24.17-.49.27-.72.1-.25.2-.49.31-.73l.01-.01c.09-.23.19-.44.31-.66.12-.24.24-.48.38-.71.11-.21.23-.42.37-.63 1.05-1.77 2.41-3.33 3.97-4.56.19-.17.38-.32.58-.46.19-.16.4-.3.6-.43s.41-.26.62-.39c.63-.38 1.29-.71 1.96-.99.34-.13.68-.25 1.02-.36.54-.17 1.09-.32 1.65-.45.28-.06.57-.12.85-.17.29-.06.57-.11.86-.15s.58-.08.87-.11c.88-.1 1.77-.15 2.67-.15.31 0 .63.01.95.02.48.01.97.05 1.45.09.47.04.94.09 1.42.15.02 0 .04.01.06.01.33.04.67.1 1.01.15.22.04.43.07.65.12.38.07.76.14 1.15.23.1.02.2.04.31.07.38.08.76.18 1.15.28.3.07.6.15.91.24.73.2 1.48.42 2.25.68.39.12.77.25 1.17.39.22.08.45.16.68.25.23.08.46.16.69.25.67.25 1.35.52 2.02.79.31.13.62.25.94.39.84.34 1.68.7 2.52 1.07l3.2 1.37-2.16-4.71c-.11-.24-.22-.49-.32-.73-.09-.19-.18-.38-.25-.57-.27-.6-.52-1.2-.76-1.81-.28-.69-.55-1.39-.8-2.09-.47-1.28-.9-2.59-1.29-3.9-.09-.28-.17-.56-.25-.84-.11-.38-.22-.76-.32-1.15-.12-.46-.24-.92-.35-1.38-.15-.61-.3-1.23-.43-1.84-.14-.62-.26-1.23-.38-1.85s-.23-1.24-.33-1.86c-.08-.5-.16-1-.22-1.5-.03-.16-.05-.32-.07-.47-.06-.44-.12-.87-.16-1.31-.04-.24-.06-.49-.09-.74-.04-.39-.08-.79-.11-1.19-.03-.33-.06-.66-.08-.99-.03-.3-.05-.61-.06-.92-.04-.56-.07-1.12-.08-1.69-.04-.88-.05-1.77-.05-2.66.01-3.68.31-8.4 2.55-12.35.3-.53.63-1.04 1-1.52.2-.26.41-.52.63-.77 1.58-1.82 3.65-3.31 6.02-4.37.06-.03.11-.06.16-.08 2.63-1.16 5.63-1.8 8.74-1.8 2.07 0 4.16.28 6.24.84.28.07.56.15.84.23.34.1.67.2 1.01.32.45.15.89.32 1.33.49.49.2.98.4 1.47.62.41.18.81.38 1.21.58.01 0 .02.01.03.01.37.19.74.38 1.11.58.4.22.8.44 1.19.68.25.15.5.3.75.46.49.3.98.61 1.46.95.72.48 1.43.99 2.13 1.53.24.17.47.35.7.54.23.17.46.35.68.54.45.35.9.72 1.34 1.11h.01c.71.61 1.42 1.23 2.11 1.87 1.04.95 2.05 1.92 3.04 2.89l.05.05 3.37 3.3-.01-3.58-.01-1.21c0-.38 0-.76.01-1.15 0-.67.02-1.33.05-1.99.02-.62.05-1.24.1-1.86.01-.2.02-.41.04-.62.03-.43.06-.86.11-1.29.04-.43.08-.86.13-1.28s.1-.84.16-1.27c.09-.64.18-1.27.28-1.9.01-.08.03-.16.04-.24.01-.06.02-.11.03-.17.07-.36.13-.72.2-1.08.08-.42.16-.83.25-1.24 1.23-5.73 3.25-10.91 5.99-15.33.21-.33.42-.65.63-.97.55-.83 1.12-1.62 1.72-2.39.68-.87 1.39-1.71 2.14-2.5.36-.38.73-.75 1.11-1.11.76-.72 1.57-1.4 2.41-2.05.34-.26.69-.51 1.05-.76l.75-.51c.51-.33 1.03-.65 1.56-.96.27-.15.53-.3.8-.45 4.68-2.52 10.04-3.96 15.26-3.96 3 0 5.83.47 8.43 1.39.37.13.74.27 1.1.42.96.4 1.89.86 2.78 1.39.96.57 1.87 1.2 2.73 1.91.27.22.54.45.8.69.23.2.45.41.65.62 1.49 1.45 2.72 3.05 3.74 4.73.29.49.57.97.82 1.47.26.5.5 1 .73 1.51.33.76.64 1.53.91 2.31.15.45.3.91.44 1.37.11.38.21.76.31 1.14.08.31.16.63.23.94.07.29.13.59.2.89v.02c.08.39.15.79.22 1.18v.01c.1.52.18 1.05.24 1.57v.01c.07.53.13 1.06.17 1.59.04.4.07.79.1 1.18.13 1.94.14 3.82.07 5.58-.03.73-.07 1.44-.12 2.12-.01.05-.01.11-.02.16-.04.66-.11 1.29-.17 1.89-.07.64-.15 1.24-.23 1.81-.13.92-.28 1.84-.44 2.76-.49 2.83-1.09 5.67-1.71 8.45-.08.39-.16.78-.25 1.17l-.09.4c-.13.57-.26 1.14-.39 1.72s-.26 1.18-.39 1.77c-.27 1.26-.54 2.55-.79 3.85-.09.42-.17.83-.24 1.25-.12.64-.24 1.28-.34 1.92-.07.44-.14.89-.21 1.33-.13.82-.24 1.65-.34 2.48-.01.07-.02.13-.02.2v.02c0 .01-.01.03-.01.04-.01.04-.02.08-.02.12l-.78 6.85.38-.47 3.17-3.92.78-.97c.86-1.07 1.77-2.17 2.73-3.26.35-.4.7-.79 1.07-1.19.39-.44.8-.87 1.22-1.31.2-.21.41-.43.63-.64.2-.21.42-.43.63-.63.21-.22.43-.42.65-.62.22-.21.44-.42.66-.61.32-.31.65-.6.99-.88.22-.2.45-.39.68-.58.35-.29.7-.58 1.07-.86.3-.23.6-.46.92-.69.17-.13.34-.25.52-.37.72-.52 1.48-1.01 2.25-1.48.36-.21.72-.42 1.09-.62.42-.23.85-.46 1.28-.67.42-.21.85-.4 1.29-.59.41-.17.83-.33 1.25-.48.46-.16.93-.32 1.41-.45.23-.07.46-.13.69-.19.25-.07.5-.13.75-.19.03-.01.06-.02.1-.02.29-.06.58-.13.87-.18.16-.03.33-.07.49-.09.32-.06.63-.11.95-.15.17-.02.34-.04.5-.06.26-.03.52-.06.78-.08.72-.07 1.44-.1 2.16-.1 3.41 0 6.51.69 9.14 2.02.24.11.47.23.69.36.29.16.57.32.84.5.25.15.5.31.73.49.24.16.47.34.69.52.45.36.88.74 1.28 1.15.47.47.9.96 1.3 1.48 3.45 4.52 4.13 10.45 4.35 15.65.06 1.42.09 2.85.09 4.28 0 .77-.01 1.54-.03 2.3-.02.79-.04 1.58-.08 2.37s-.08 1.58-.13 2.37c-.04.56-.09 1.12-.13 1.68-.03.28-.05.56-.08.84-.07.78-.15 1.56-.24 2.35-.06.51-.12 1.02-.19 1.53-.06.47-.12.93-.19 1.39-.07.49-.14.98-.22 1.46-.08.49-.16.97-.24 1.46-.08.48-.17.97-.26 1.45s-.18.97-.28 1.45c-.09.43-.18.87-.27 1.3-.11.53-.23 1.06-.35 1.59-.35 1.53-.74 3.06-1.16 4.57-.21.77-.43 1.53-.66 2.29-.19.62-.38 1.24-.58 1.86-.09.26-.17.52-.26.78-.2.63-.42 1.25-.64 1.87-.22.64-.45 1.28-.69 1.91-.04.11-.08.21-.12.32l-2.11 5.57 4.44-2.79.6-.38c.02-.01.03-.02.05-.03.29-.18.58-.35.87-.52.28-.16.56-.31.84-.46.27-.14.53-.28.8-.41 4.05-2 8.61-3.07 13.12-3.07 1.65 0 3.26.14 4.83.41.81.14 1.6.32 2.38.54.38.1.76.21 1.14.34.38.12.75.25 1.12.39.33.13.66.26.99.4.24.1.47.21.71.32.28.13.56.26.83.4.55.28 1.09.58 1.62.9.36.22.72.45 1.07.68.29.19.57.39.85.59.25.18.49.36.73.54 3.35 2.6 6.16 5.97 8.15 9.77.14.27.28.54.41.82.15.32.3.64.44.96.17.39.34.79.49 1.19.16.4.31.81.44 1.22.08.23.15.47.22.7 0 .01.01.02.01.03.07.22.14.44.21.67.03.12.06.25.09.37.09.35.18.71.26 1.07.07.31.14.62.19.93.05.26.1.52.13.78.01.05.02.1.03.15l.56 3.73 2.77-2.55c.06-.06.13-.12.2-.17.38-.36.78-.7 1.19-1.01.02-.03.04-.05.07-.06.38-.31.76-.6 1.15-.88.05-.04.1-.07.15-.11.39-.28.78-.55 1.18-.8.03-.02.07-.05.11-.07.43-.28.87-.54 1.32-.8.42-.24.86-.48 1.3-.7.36-.19.72-.36 1.09-.53.29-.14.59-.27.89-.39.15-.07.29-.14.44-.19.27-.12.54-.22.81-.32.25-.1.49-.19.74-.27.53-.19 1.06-.37 1.59-.52.54-.17 1.08-.32 1.63-.44.23-.07.46-.12.69-.17.09-.03.19-.05.29-.06.66-.15 1.34-.28 2.02-.38.68-.11 1.36-.19 2.06-.26.01-.01.02-.01.03 0 .28-.04.56-.06.85-.08.11-.01.21-.02.33-.02h.1c.29-.02.58-.04.87-.05.44-.01.88-.02 1.31-.02.45 0 .89.01 1.34.03.27.01.54.02.81.04.29.01.57.04.86.06.36.03.71.07 1.07.11.4.05.81.1 1.21.17.42.06.84.13 1.25.21.04.01.08.02.12.03 2.97.58 5.8 1.56 8.39 2.89.38.19.74.39 1.11.6.36.21.72.42 1.07.64.71.44 1.39.91 2.05 1.41l.27.2 2.15 1.64.09.07.66-3.08c.05-.25.1-.49.14-.74.07-.33.13-.66.19-1 .07-.33.12-.66.17-.99.2-1.22.36-2.45.5-3.68.09-.79.17-1.57.24-2.35.13-1.33.24-2.66.35-3.99.01-.03.01-.05.01-.08.1-1.23.2-2.41.31-3.57.04-.39.07-.77.11-1.15.09-.84.18-1.66.28-2.47.07-.63.16-1.25.25-1.87 0-.05.01-.11.02-.16v-.01c.1-.64.2-1.27.32-1.9.09-.51.19-1.01.3-1.51.04-.2.08-.39.13-.58.06-.27.12-.53.19-.79.08-.33.16-.65.25-.97.44-1.66.96-3.22 1.57-4.68.2-.5.41-.99.64-1.47.21-.45.43-.89.65-1.32.26-.49.53-.97.81-1.43.36-.61.75-1.2 1.17-1.78.16-.23.33-.45.5-.67.15-.19.3-.38.45-.56.14-.17.27-.33.41-.49.04-.05.08-.09.12-.14.14-.15.27-.3.41-.44.16-.17.32-.34.49-.5.32-.34.66-.65 1.01-.95.17-.15.35-.3.52-.44.18-.15.36-.29.54-.42.18-.14.36-.27.55-.4.18-.13.37-.26.56-.38.6-.39 1.24-.74 1.92-1.04 0 0 0 0 .01-.01 2.02-.89 4.34-1.37 6.71-1.37 1.19 0 2.34.12 3.46.35.67.14 1.32.33 1.96.55.27.1.54.2.8.31s.51.22.76.34c.23.12.46.24.69.37.03.02.05.03.08.04.22.14.44.27.65.41.34.22.66.46.97.71s.59.52.87.79c.19.19.36.37.53.57l.18.2 2.06 2.4 1.16-3.24c.13-.36.26-.73.4-1.1.22-.59.44-1.19.68-1.8.13-.34.27-.69.41-1.04.24-.6.48-1.2.74-1.8.19-.44.38-.88.58-1.33.13-.28.27-.57.4-.85.18-.38.36-.76.55-1.14.76-1.52 1.59-3.02 2.51-4.46.23-.36.46-.72.71-1.07.22-.32.44-.64.67-.95.09-.13.19-.25.29-.38.17-.23.35-.46.53-.69.28-.35.56-.69.86-1.03.28-.32.56-.63.86-.93.22-.24.45-.46.68-.68.18-.18.36-.35.54-.52.36-.33.73-.64 1.1-.95.32-.26.66-.52.99-.77.29-.22.59-.43.9-.63.3-.2.6-.4.91-.59.23-.14.47-.28.7-.42 1.65-.94 3.37-1.67 5.1-2.18v-159.47zm387.9 55.01c.06-.07.1-.15.15-.22.1-.15.21-.29.32-.44.14-.2.29-.4.45-.6.31-.41.63-.82.96-1.22.23-.29.46-.56.7-.84.13-.15.25-.3.38-.44.52-.6 1.06-1.19 1.63-1.75 4.08-4.18 8.92-7.46 14.07-9.51 3.9-1.55 7.85-2.34 11.72-2.34 2.56 0 5.08.34 7.52 1.04.48.13.96.28 1.44.44.46.15.93.32 1.39.5.01 0 .01.01.02.01.47.18.93.38 1.39.59.21.1.43.2.64.3.22.11.44.21.65.32.48.24.96.49 1.43.75.3.17.6.34.89.51.44.25.88.52 1.3.79.31.2.62.4.92.61.38.25.75.51 1.11.78.3.22.6.44.89.67.98.75 1.91 1.54 2.8 2.38.1.09.19.18.29.27.18.17.36.35.53.52.35.35.69.69 1.02 1.05.34.36.66.72.97 1.08.27.31.53.62.78.93.22.27.43.54.63.81.21.27.41.54.61.82.25.35.49.7.72 1.05.15.22.3.44.44.67.37.58.72 1.16 1.04 1.76.1.18.19.35.29.53s.2.37.29.55c.29.56.55 1.12.8 1.7.13.29.25.58.36.86.12.29.24.59.34.88.11.28.21.57.3.86.1.3.19.59.28.89.06.21.12.42.18.64.16.53.3 1.07.41 1.62.05.21.1.42.14.64.01.03.02.06.02.09.01.05.03.1.03.15.02.08.04.14.04.22v.01c.06.29.11.59.16.89.01.01.01.03.01.04.05.33.11.66.15.99.07.46.12.94.17 1.41.04.4.07.81.1 1.23s.05.84.07 1.27c.01.23.02.46.02.69.01.4.02.81.02 1.23 0 1.08-.03 2.2-.11 3.35s-.19 2.32-.33 3.53c-.1.85-.21 1.68-.34 2.49-.25 1.62-.56 3.15-.94 4.61-.12.45-.24.9-.36 1.34s-.26.87-.4 1.29c-.55 1.7-1.2 3.27-1.93 4.74-.19.37-.38.73-.57 1.08-.2.35-.4.7-.61 1.04-.16.26-.33.52-.49.78-.17.26-.34.52-.53.77-.18.26-.37.51-.56.76s-.38.5-.58.75c-.2.24-.4.49-.61.73-.2.23-.4.46-.6.68-.38.43-.78.84-1.2 1.25-.21.21-.43.42-.65.63-.25.24-.52.48-.79.72-.2.18-.42.36-.62.54-.51.43-1.05.86-1.59 1.27-.45.34-.91.67-1.38.99-.25.17-.51.35-.77.52s-.52.34-.78.5c-.68.42-1.38.83-2.1 1.22-.53.29-1.05.56-1.57.82-.97.48-1.93.9-2.88 1.26-.33.13-.66.25-.99.36-.7.25-1.39.46-2.07.64-.26.07-.51.14-.76.2-.31.08-.62.15-.93.21-.49.1-.98.18-1.47.25-.24.03-.49.06-.73.09s-.47.05-.71.07c-.65.05-1.27.07-1.83.07-.5 0-1-.01-1.5-.05-.31-.02-.61-.04-.92-.07-.91-.07-1.8-.19-2.66-.34-.46-.07-.91-.15-1.35-.25-.45-.09-.88-.18-1.3-.28-.42-.09-.84-.19-1.24-.3-.39-.1-.78-.2-1.15-.31-.19-.04-.37-.09-.55-.14-.73-.2-1.44-.42-2.12-.63-.51-.17-1.01-.33-1.5-.5-.25-.09-.49-.17-.73-.25-.82-.29-1.61-.59-2.37-.91-.34-.14-.67-.28-1-.42-.82-.36-1.6-.74-2.36-1.13-.23-.11-.45-.23-.66-.35-.83-.45-1.62-.93-2.38-1.43-.26-.16-.51-.33-.75-.5-.34-.24-.68-.49-1.01-.74-.02-.01-.04-.03-.06-.05-.33-.25-.66-.51-.98-.78-.33-.27-.66-.56-.98-.86-.32-.29-.64-.59-.95-.89-.27-.27-.54-.54-.79-.82-.2-.21-.4-.43-.6-.65-.19-.21-.38-.43-.57-.66s-.38-.45-.56-.68c-.19-.22-.37-.45-.54-.69-.14-.19-.29-.38-.43-.58-.15-.2-.29-.39-.42-.59-.18-.24-.34-.48-.49-.73-.24-.37-.48-.74-.7-1.12-.23-.38-.45-.76-.66-1.15-.15-.24-.28-.49-.4-.74-.14-.28-.28-.55-.42-.83-.26-.54-.5-1.08-.73-1.62-.17-.41-.33-.82-.49-1.24s-.31-.84-.45-1.26c-.28-.85-.53-1.71-.75-2.58-.18-.72-.34-1.46-.47-2.2s-.23-1.48-.32-2.23c-.18-1.61-.25-3.23-.21-4.87.02-.6.05-1.2.09-1.8.02-.33.05-.65.09-.98.03-.31.06-.62.1-.93v-.03c.05-.4.11-.79.17-1.18.04-.28.09-.57.15-.85.04-.24.08-.47.13-.71.1-.49.21-.98.33-1.47.23-.98.5-1.95.81-2.91.15-.48.32-.96.5-1.44.34-.95.72-1.89 1.14-2.82.16-.36.32-.72.5-1.07 0-.01 0-.01 0-.01.16-.34.33-.66.51-.99.17-.34.35-.68.54-1.02.18-.34.38-.68.58-1.01.53-.88 1.09-1.74 1.68-2.59zm-304.21 19.48c.19-.17.38-.33.57-.48l.01-.01c.42-.34.86-.67 1.3-.98.05-.04.1-.08.16-.12.34-.26.68-.5 1.04-.73.06-.04.13-.09.2-.13.16-.1.32-.21.48-.31.36-.24.73-.47 1.11-.7 1-.6 2.02-1.16 3.07-1.67s2.12-.98 3.21-1.41c.55-.21 1.1-.41 1.66-.6 1.12-.38 2.25-.71 3.4-1 .43-.11.86-.21 1.3-.3.38-.08.76-.16 1.14-.23.41-.08.82-.16 1.23-.23.42-.07.85-.13 1.27-.18.16-.03.32-.05.48-.06.08-.02.16-.03.24-.03.3-.04.59-.07.88-.09.12-.02.24-.03.36-.03.29-.03.59-.05.89-.06.14-.02.29-.03.43-.03.37-.02.75-.04 1.12-.05.45-.01.9-.02 1.36-.02 1.17 0 2.33.05 3.48.14.11 0 .23.01.34.03.48.04.95.1 1.42.15.32.04.64.08.96.13.32.04.64.09.95.15.38.06.76.13 1.13.21.28.05.57.11.85.18.23.05.47.1.7.15.05.02.1.03.15.04.26.06.51.12.76.2.7.18 1.38.38 2.06.6.41.13.82.27 1.22.41l.09.03 2.6.9-.34-2.35c-.03-.19-.06-.38-.08-.56-.05-.29-.09-.57-.13-.86-.07-.45-.13-.89-.19-1.34-.08-.57-.16-1.14-.22-1.72-.13-1.09-.25-2.18-.33-3.29-.07-.92-.11-1.84-.14-2.76-.06-2.37.03-4.73.38-7.05.07-.46.15-.93.24-1.39.01-.1.03-.2.06-.31.06-.35.15-.71.24-1.05.11-.46.23-.93.37-1.38s.29-.91.45-1.36c.17-.48.36-.95.57-1.42.04-.11.09-.23.15-.34.13-.29.27-.59.42-.88.21-.45.45-.89.7-1.33.3-.51.61-1.01.93-1.5.24-.37.5-.73.77-1.09.2-.27.4-.54.61-.8.2-.27.42-.53.64-.79.15-.17.3-.34.45-.51.29-.34.6-.67.92-.99.21-.22.43-.43.65-.65.44-.42.89-.82 1.35-1.23h.01c.46-.4.94-.79 1.43-1.16.49-.38 1-.74 1.51-1.09.26-.17.52-.34.79-.51.53-.34 1.07-.66 1.62-.97 1.38-.77 2.83-1.45 4.33-2.03.49-.2.99-.38 1.5-.55.05-.01.09-.03.14-.04.23-.08.46-.15.69-.22.27-.09.53-.17.8-.24.08-.02.16-.05.24-.07.11-.04.22-.07.34-.1.76-.2 1.52-.37 2.3-.52.39-.07.78-.14 1.17-.2.2-.04.4-.07.6-.09.01-.01.02-.01.03 0 .39-.06.78-.11 1.17-.15.52-.06 1.05-.11 1.57-.14.1-.02.2-.02.3-.02.75-.05 1.52-.07 2.28-.07 1.14 0 2.27.05 3.4.15.56.05 1.13.11 1.69.18.27.04.54.08.81.12.36.05.71.11 1.06.18.03-.01.06 0 .08.01.07 0 .15.02.21.04.29.05.57.1.85.17 1.68.35 3.34.82 4.94 1.39.29.1.58.21.87.32s.57.22.86.34c.47.19.94.39 1.4.61.42.19.83.39 1.24.6.13.06.27.12.39.2.23.11.46.23.68.36.23.11.45.24.67.37.44.25.87.51 1.3.78 2.18 1.38 4.21 3 6.06 4.81.24.23.47.46.69.69.4.41.79.83 1.17 1.26.19.22.38.43.56.65.19.21.37.43.55.66.35.43.69.87 1.03 1.32.67.91 1.31 1.85 1.91 2.82.15.23.29.47.42.7.14.23.27.47.4.7.03.04.06.09.08.14.26.47.51.95.75 1.43.13.25.25.5.37.76.2.39.37.78.54 1.18.11.25.22.5.32.76.14.35.28.71.42 1.06.14.38.28.77.41 1.16.07.23.15.46.22.69.44 1.39.79 2.79 1.06 4.22.07.35.13.7.18 1.05.04.27.08.55.11.84.02.2.04.4.06.6.03.3.06.61.08.91.02.29.03.58.04.89.01.6 0 1.22-.03 1.85 0 .05 0 .11-.01.16-.05.7-.13 1.38-.24 2.03-.04.24-.09.48-.14.72-.08.39-.18.78-.3 1.17l-1.1 3.63 3.07-.97c.26-.09.52-.18.79-.25.26-.08.52-.16.79-.23 1.75-.48 3.54-.79 5.36-.93.72-.05 1.45-.08 2.19-.08.58 0 1.16.02 1.74.05.29.02.57.04.86.07s.58.06.86.09c.29.04.57.08.86.12.85.13 1.7.3 2.53.51.01 0 .02.01.02.01.37.09.74.19 1.1.3.37.11.73.22 1.09.34.24.08.47.16.71.26.6.22 1.18.47 1.76.74.11.04.21.09.32.14.17.07.33.15.49.24.16.08.32.17.47.25.21.11.42.23.63.35s.41.24.61.37c.2.12.39.25.58.38.2.13.4.27.59.42.24.17.47.35.7.54.25.2.48.4.71.61.1.08.19.16.28.26.2.18.4.37.59.58.16.16.31.32.46.48.56.62 1.06 1.27 1.49 1.94.15.22.29.45.42.68.14.25.3.55.45.88.16.33.31.68.45 1.06.1.25.19.52.28.79.71 2.1 1.11 4.72-.38 5.98-.1.08-.21.17-.33.24-.17.11-.35.2-.55.27-.21.08-.43.15-.67.2-.26.05-.52.09-.78.12-.28.03-.56.05-.84.06-2.66.17-5.36.32-8.1.45-1.03.05-2.06.1-3.1.13-1.04.05-2.09.09-3.14.12-3.03.1-6.12.18-9.28.23-1.06.02-2.12.04-3.19.05-.93.01-1.86.01-2.8.02-1.51.01-3.04.02-4.58.02-17.46 0-34.39-.67-48.65-1.33-1.74-.08-3.48-.16-5.22-.25-.87-.05-1.74-.09-2.62-.13-6.71-.35-13.55-.77-20.42-1.24-1.63-.11-3.31-.2-4.96-.28-.55-.03-1.1-.06-1.65-.08l-1.28-.06c-.7-.03-1.41-.06-2.13-.09-.85-.04-1.71-.08-2.57-.12-.78-.04-1.57-.09-2.36-.14-1.55-.1-3.11-.22-4.67-.37-.66-.06-1.32-.14-1.98-.22-.33-.04-.67-.08-1-.13-.67-.08-1.33-.17-1.99-.28-.66-.1-1.31-.22-1.96-.34-.09-.02-.18-.04-.27-.06-.1-.02-.21-.04-.32-.07-.05-.01-.1-.02-.14-.03-.1-.02-.21-.05-.3-.08-.08-.02-.17-.04-.25-.08-.13-.03-.25-.08-.38-.12-.12-.04-.24-.08-.36-.13-.16-.06-.32-.13-.47-.21-.2-.09-.39-.2-.57-.31-.14-.09-.27-.18-.39-.28-.12-.09-.23-.19-.33-.29-.07-.06-.13-.13-.18-.2-.06-.06-.11-.13-.16-.2s-.1-.13-.13-.2c-.04-.06-.08-.13-.11-.2s-.06-.14-.09-.21c-.04-.12-.08-.25-.1-.38-.03-.12-.04-.26-.05-.39 0-.13.01-.26.03-.39s.05-.25.08-.37c.09-.33.25-.63.44-.91.14-.22.31-.42.48-.61.18-.19.36-.37.55-.54z" fill="#83e1f0"/><path d="m419.081 113.234c-3.983 0-7.786-.93-10.654-1.739-5.808-1.632-10.215-3.575-13.868-6.112-7.544-5.264-12.692-14.115-13.776-23.678-1.025-9.075 1.567-18.805 7.111-26.695 7.379-10.519 19.347-17.316 30.488-17.316 4.051 0 7.974.854 11.659 2.537 9.882 4.503 17.481 12.857 20.325 22.345 1.55 5.166 1.903 11.054 1.081 18-.805 6.806-2.49 12.232-5.149 16.587-2.935 4.792-7.519 8.979-13.258 12.113-4.208 2.29-8.284 3.598-12.117 3.889-.596.045-1.216.069-1.842.069z" fill="#ffd671"/><path d="m247.876 343.71.363-2.083-25.484-51.793c-7.827-15.914-15.917-32.364-25.078-47.897-.699-1.188-1.407-2.375-2.115-3.561-2.806-4.7-5.987-10.026-8.577-15.603l3.357-2.115c35.862 43.476 74.027 85.886 113.435 126.051l3.974 4.051z" fill="#ed6d66"/><path d="m189.011 336.783-.116-1.653c-2.534-36.077-4.094-72.821-4.635-109.21l3.792-.918c2.293 4.626 4.943 9.073 7.506 13.374.709 1.18 1.424 2.377 2.118 3.564 9.183 15.577 17.264 32.007 25.079 47.897l26.583 54.039z" fill="#fff"/><path d="m190.174 85.808c-17.46 0-34.394-.672-48.657-1.33-9.187-.412-18.694-.958-28.256-1.623-2.616-.179-5.334-.299-7.895-.407-6.221-.273-12.65-.555-18.658-1.693-2.885-.543-4.562-1.798-4.598-3.441 0-1.416 1.15-2.509 2.153-3.308 7.264-5.788 16.61-8.976 26.316-8.976 5.854 0 11.658 1.212 16.786 3.504-1.292-8.111-2.751-17.285.253-25.594 3.155-8.736 11.417-15.827 21.561-18.504 3.041-.801 6.221-1.208 9.453-1.208 7.228 0 14.479 2.071 20.418 5.831 8.722 5.512 15.065 14.863 16.966 25.012.678 3.61 1.215 10.347-2.808 14.894 4.096-2.3 8.812-3.517 13.639-3.517 4.132 0 8.233.911 11.861 2.635 3.48 1.651 6.331 4.175 8.023 7.106 1.231 2.143 3.053 7.365.464 8.954-.368.221-.761.369-1.221.464-.533.112-1.117.158-1.616.188-10.65.682-21.835 1.013-34.184 1.013z" fill="#fff"/><path d="m133.404 330.252.855-2.371c13.01-36.074 28.549-71.62 46.186-105.652l3.776.893c.501 37.071 2.057 74.503 4.625 111.257l.169 2.408z" fill="#ed6d66"/><path d="m78.245 323.776c-3.288-.39-6.586-.78-9.874-1.159l-21.934-2.57c-.572-.06-1.671-.111-3.062-.176-10.327-.488-13.103-1.234-14.374-1.829l-2.419-1.134 1.77-2.002c.377-.426 1.524-1.724 7.452-4.908.886-.481 1.567-.86 1.981-1.128 6.984-4.519 14.17-9.266 21.357-14.108l.496-.334.598-.007.225-.542.439-.3c.453-.314.912-.623 1.368-.931l.521-.352c11.96-8.126 23.904-16.759 35.454-25.107 22.788-16.483 46.283-33.479 71.214-47.548 1.391-.79 2.788-1.574 4.184-2.348l2.317 3.227c-35.468 32.348-69.487 64.522-95.835 102.414l-.686.986z" fill="#ed6d66"/><path d="m121.178 452.331.56-2.097c9.85-36.883 20.555-74.775 32.725-115.842l.48-1.621 1.678.204c2.264.274 4.527.54 6.79.806l2.928.343-.922 2.403c-2.4 6.256-3.94 12.866-5.429 19.257l-.252 1.06c-6.939 29.741-15.389 61.143-25.829 95.991l-.514 1.713z" fill="#af7979"/><path d="m131.827 330.066.233-1.986-.285 1.98-52.326-6.146 1.936-2.747c26.408-37.464 59.322-68.539 96.488-102.396l3.122 2.4c-18.043 34.727-33.874 70.924-47.053 107.585l-.538 1.495z" fill="#fff"/><path d="m154.93 332.78-.47 1.61-.71 2.38c-.51 1.72-1.01 3.43-1.51 5.14-.76 2.59-1.52 5.17-2.27 7.73-.74 2.51-1.47 5-2.19 7.48l-.38 1.32-1.37.11c-.25.02-.49.04-.75.06l-.72.04c-.42.02-.82.04-1.21.06-.46.01-.91.02-1.34.02-.4 0-.8 0-1.2-.02-.25 0-.5-.01-.75-.02-.72-.03-1.43-.07-2.14-.12-.62-.04-1.24-.1-1.86-.18-.08-.01-.16-.02-.24-.02-2.66-.29-5.29-.77-7.93-1.39-.33-.08-.66-.16-1-.24-.99-.24-1.99-.5-2.97-.76-1.24-.33-2.49-.69-3.74-1.07-.07-.03-.14-.05-.22-.07-1.13-.35-2.27-.71-3.4-1.07-.46-.15-.92-.3-1.38-.46-1.66-.54-3.31-1.1-4.96-1.66-.58-.2-1.16-.39-1.75-.59-1.04-.35-2.09-.7-3.14-1.04-1.53-.51-3.08-1.01-4.63-1.48-.74-.22-1.49-.44-2.24-.66-1.81-.53-3.62-1.02-5.45-1.45-.56-.13-1.12-.26-1.69-.38-.01-.01-.03-.01-.05-.01-.58-.13-1.15-.25-1.73-.36-.59-.12-1.18-.22-1.76-.32-.55-.1-1.09-.18-1.64-.26-1.22-.18-2.44-.33-3.67-.43-1.72-.15-3.51-.22-5.34-.22-.64 0-1.27.01-1.91.03-.44.01-.89.02-1.34.05-.31.01-.62.02-.93.04-.99.06-1.98.13-2.97.23-.35.03-.69.06-1.03.1-.45.04-.9.09-1.35.15-.64.07-1.27.15-1.91.24-3.18.43-6.35 1-9.5 1.64-1.86.37-3.71.77-5.55 1.18-.03.01-.05.01-.07.01-1.22.28-2.43.55-3.64.82l-.14.03c-.95.22-1.97.45-3.03.68-.55.13-1.11.25-1.68.38-1.22.26-2.46.53-3.68.78-1.68.35-3.62.74-5.75 1.1-.43.07-.86.14-1.31.21-2.27.37-4.73.7-7.29.93-.42.04-.83.08-1.26.11-.16.01-.33.03-.5.04-.42.03-.84.06-1.27.08-.45.03-.9.05-1.36.06-.45.03-.9.04-1.35.05-.55.01-1.1.02-1.65.02-.78 0-1.54-.01-2.3-.04-.75-.02-1.5-.06-2.23-.11-.49-.03-.97-.07-1.45-.12-.48-.04-.95-.09-1.42-.15-.51-.06-1.02-.12-1.52-.2-.42-.06-.84-.13-1.26-.2-.34-.06-.67-.12-1.01-.19-.31-.05-.61-.12-.92-.18-.69-.15-1.38-.31-2.05-.48-.02-.01-.04-.02-.06-.02-.42-.11-.82-.22-1.23-.34s-.81-.24-1.21-.37v-56.15c.84-.02 1.68-.05 2.52-.07 2.54-.07 5.1-.13 7.67-.19 2.37-.05 4.75-.1 7.13-.14.2 0 .4 0 .59-.01 3.41-.05 6.82-.09 10.24-.12 3.62-.03 7.25-.04 10.87-.04 4.69 0 9.46.02 14.17.07l6.45.07h.03l-3.22 2.14-2.17 1.45c-1.07.72-2.15 1.43-3.21 2.14-1.04.69-2.07 1.37-3.1 2.05-1.65 1.09-3.29 2.17-4.91 3.23-1.78 1.17-3.54 2.32-5.27 3.44-.05.03-.11.07-.17.1-.12.07-.26.15-.41.24s-.32.18-.5.28c-.17.09-.35.19-.54.29-.1.06-.21.11-.31.17-.3.16-.61.33-.94.51-.1.06-.21.12-.33.18-.99.55-2.07 1.17-3.07 1.81-.56.36-1.11.72-1.6 1.09-1.49 1.12-2.52 2.25-2.32 3.19.26 1.21 2.85 1.93 6.05 2.38.32.04.65.08.98.12.36.05.73.08 1.1.11.19.03.39.04.59.06.02.01.04.01.06.01 1.76.17 3.56.28 5.15.35.45.03.88.05 1.28.07.17 0 .34.01.51.02.11 0 .21.01.31.02.26.01.5.02.73.04h.1c.12 0 .24.01.35.02.12.01.23.01.34.02.16 0 .31.01.44.03.11 0 .22.01.33.02.21.01.38.03.52.04l21.92 2.56c3.7.43 7.4.87 11.09 1.3 17.34 2.03 34.68 4.07 52.01 6.11l.31.04h.06l1.57.19z" fill="#1687cb"/><path d="m147.38 358.49-.79 2.72c-1.55 5.34-3.08 10.63-4.58 15.88l-.65 2.27-.23.83h-.01v-.01l-1.82-1.66-.56-.5c-.16-.15-.32-.3-.49-.44-.16-.15-.33-.29-.5-.42-.33-.27-.66-.53-1-.79-.23-.18-.47-.35-.71-.52-.03-.02-.06-.05-.1-.07-.29-.2-.59-.4-.89-.59-.38-.25-.77-.49-1.16-.7-.39-.24-.79-.46-1.2-.66-.44-.23-.89-.44-1.35-.65-2.05-.94-4.2-1.63-6.4-2.04-1.22-.24-2.45-.4-3.68-.48-.28-.03-.56-.04-.84-.04-.27-.02-.53-.02-.8-.02-.31 0-.62.01-.93.02-.01 0-.01 0-.02 0h-.06c-.29.01-.57.03-.85.05-.46.03-.91.06-1.36.12-.26.02-.52.05-.78.09-.38.04-.76.1-1.14.16-.55.09-1.11.19-1.66.3-.28.05-.56.11-.83.17-.55.12-1.1.24-1.65.37-.55.14-1.09.27-1.63.41-1.07.28-2.15.57-3.24.87-1.16.32-2.32.64-3.5.94-.43.11-.86.22-1.29.32-3.03.74-6.01 1.27-9.06 1.27-.49 0-.97-.02-1.45-.05-.27-.01-.54-.03-.81-.06-.24-.02-.48-.05-.72-.08-.35-.04-.7-.09-1.05-.15-.76-.13-1.51-.29-2.25-.49-.06-.02-.11-.03-.17-.05-.56-.16-1.12-.33-1.66-.51-.41-.14-.81-.29-1.22-.44-.4-.16-.8-.32-1.2-.49-.4-.16-.79-.33-1.19-.52-.4-.18-.79-.37-1.18-.56-.64-.31-1.28-.64-1.91-.97-.32-.16-.63-.33-.95-.51-.73-.39-1.45-.79-2.17-1.19-.23-.13-.47-.27-.71-.4l-.42-.23c-.16-.09-.32-.17-.47-.26-.59-.33-1.17-.65-1.74-.95-.86-.48-1.72-.93-2.56-1.35-.54-.27-1.08-.53-1.62-.78-.69-.32-1.39-.63-2.1-.92 0 0 0 0-.01-.01-.71-.28-1.43-.56-2.16-.82-.5-.18-1-.35-1.51-.51-.49-.16-.98-.31-1.48-.45-.5-.15-1-.28-1.5-.41-1.58-.42-3.19-.77-4.85-1.05-.51-.09-1.03-.18-1.55-.25-.39-.06-.77-.12-1.17-.16-.23-.04-.46-.06-.69-.09-1.65-.2-3.34-.33-5.06-.41-.52-.02-1.04-.04-1.56-.05-.58-.01-1.16-.02-1.75-.02h-.03c-1.55 0-3.14.05-4.75.14-1.62.1-3.26.24-4.91.42-1.59.18-3.17.4-4.74.64-.64.1-1.27.21-1.91.32-.73.13-1.46.27-2.2.41-.73.14-1.45.29-2.18.44s-1.46.31-2.18.48c-.02 0-.03.01-.05.01-1.43.32-2.86.67-4.28 1.03-.03 0-.06.01-.09.02-1.18.3-2.35.61-3.52.93-.53.14-1.07.29-1.6.44-.72.19-1.43.39-2.14.6l-2.61.75c-.89.26-1.78.53-2.66.79-.31.09-.62.19-.93.28v-17.2c.4.13.8.26 1.21.38s.81.23 1.23.34c.02 0 .04.01.06.02.67.17 1.36.33 2.05.48.31.06.61.13.92.18.34.07.67.13 1.01.19.41.08.83.14 1.26.2.5.08 1.01.14 1.52.2.47.06.94.11 1.42.15.48.05.96.09 1.45.12.73.05 1.48.09 2.23.11.76.03 1.52.04 2.3.04.55 0 1.1-.01 1.65-.02.45-.01.9-.02 1.35-.05.46-.01.91-.03 1.36-.06.43-.02.85-.05 1.27-.08.17-.01.34-.03.5-.04.43-.03.84-.07 1.26-.11 2.56-.23 5.02-.56 7.29-.93.45-.07.88-.14 1.31-.21 2.13-.36 4.07-.75 5.75-1.1 1.22-.25 2.46-.52 3.68-.78.57-.13 1.13-.25 1.68-.38 1.06-.23 2.08-.46 3.03-.68l.14-.03c1.21-.27 2.42-.54 3.64-.82.02 0 .04 0 .07-.01 1.84-.4 3.69-.8 5.55-1.18 3.15-.64 6.32-1.21 9.5-1.64.64-.09 1.27-.17 1.91-.24.45-.06.9-.11 1.35-.15.34-.04.68-.07 1.03-.1.99-.1 1.98-.17 2.97-.23.31-.02.62-.03.93-.04.45-.03.9-.04 1.34-.05.64-.02 1.27-.03 1.91-.03 1.83 0 3.62.07 5.34.22 1.23.1 2.45.25 3.67.43.55.08 1.09.16 1.64.26.58.1 1.17.2 1.76.32.58.11 1.15.23 1.73.36.02 0 .04 0 .05.01.57.12 1.13.25 1.69.38 1.83.43 3.64.92 5.45 1.45.75.22 1.5.44 2.24.66 1.55.47 3.1.97 4.63 1.48 1.05.34 2.1.69 3.14 1.04.59.2 1.17.39 1.75.59 1.65.56 3.3 1.12 4.96 1.66.46.16.92.31 1.38.46 1.13.36 2.27.72 3.4 1.07.08.02.15.04.22.07 1.25.38 2.5.74 3.74 1.07.98.26 1.98.52 2.97.76.34.08.67.16 1 .24 2.63.6 5.27 1.08 7.93 1.39.08 0 .16.01.24.02.62.08 1.24.14 1.86.18.71.05 1.42.09 2.14.12.25.01.5.02.75.02.4.02.8.02 1.2.02.43 0 .88-.01 1.34-.02.39-.02.79-.04 1.21-.06l.72-.04z" fill="#54c1f2"/><path d="m141.46 378.92-.34 1.26v.01l-.24.85c-1.32 4.6-2.62 9.18-3.9 13.72-.22.76-.43 1.52-.64 2.27-.22.75-.43 1.51-.64 2.26l-.49 1.77-.14.48-1.53-.7-.59-.27c-1.65-.75-3.34-1.44-5.09-2.05-.15-.06-.3-.11-.46-.16-.51-.18-1.03-.35-1.55-.51-.61-.2-1.23-.38-1.86-.56s-1.26-.35-1.9-.51c-.55-.13-1.1-.26-1.66-.38-.22-.06-.44-.11-.66-.15-.53-.12-1.06-.23-1.6-.33-.67-.13-1.34-.25-2.02-.36-.56-.09-1.13-.18-1.7-.26-.04-.01-.08-.01-.12-.02-.35-.05-.71-.1-1.07-.14-.43-.06-.85-.11-1.28-.16-.58-.07-1.16-.13-1.75-.18-.08-.01-.15-.01-.23-.02-.33-.03-.67-.06-1-.08-.45-.04-.91-.08-1.37-.1-.71-.05-1.43-.09-2.15-.12-1.54-.07-3.1-.1-4.7-.1-4.37 0-9.1.25-14.07.74-1.01.1-2.03.21-3.04.32-1.08.12-2.16.25-3.24.39-1.04.13-2.09.26-3.13.4s-2.08.29-3.12.43c-1.42.2-2.82.41-4.22.61-.22.04-.44.07-.66.1-.68.11-1.36.21-2.04.31-1 .15-2.01.3-3.02.44-2.85.43-5.74.84-8.64 1.22-.63.08-1.26.16-1.89.24-1.51.19-3.03.36-4.55.52-.57.06-1.14.12-1.71.17-.61.06-1.22.12-1.83.17-.49.04-.99.08-1.48.12-.31.02-.62.05-.93.07-.54.04-1.09.08-1.63.11-1.09.06-2.19.12-3.28.16-1.64.06-3.3.09-4.94.09-.69 0-1.39-.01-2.08-.02-.32-.01-.64-.01-.96-.02-2.34-.05-4.67-.16-6.99-.34-.55-.04-1.09-.09-1.64-.14-.34-.03-.69-.06-1.03-.1-.9-.08-1.81-.18-2.71-.28-1.08-.13-2.15-.27-3.22-.42-.43-.06-.86-.12-1.28-.19-1.14-.17-2.27-.36-3.39-.56-.49-.08-.98-.17-1.47-.27-.68-.13-1.36-.27-2.04-.41-2.2-.45-4.38-.96-6.55-1.52v-28.52c.31-.09.62-.19.93-.28.88-.26 1.77-.53 2.66-.79l2.61-.75c.71-.21 1.42-.41 2.14-.6.53-.15 1.07-.3 1.6-.44 1.17-.32 2.34-.63 3.52-.93.03-.01.06-.02.09-.02 1.42-.36 2.85-.71 4.28-1.03.02 0 .03-.01.05-.01.72-.17 1.45-.33 2.18-.48s1.45-.3 2.18-.44c.74-.14 1.47-.28 2.2-.41.64-.11 1.27-.22 1.91-.32 1.58-.25 3.16-.47 4.75-.65 1.65-.19 3.28-.32 4.9-.41 1.61-.1 3.2-.14 4.75-.14h.03c.59 0 1.17.01 1.75.02.52.01 1.04.03 1.56.05 1.72.08 3.41.21 5.06.41.23.02.46.05.69.09.4.04.78.1 1.17.16.52.07 1.04.16 1.55.25 1.66.28 3.27.63 4.85 1.05.5.13 1 .26 1.5.41.5.14.99.29 1.48.45.51.16 1.01.33 1.51.51.73.26 1.45.54 2.16.82.01.01.01.01.01.01.71.29 1.41.59 2.1.91.54.25 1.08.51 1.62.79.84.42 1.7.87 2.56 1.35.57.3 1.15.62 1.74.95.15.09.31.17.47.26.14.08.28.16.42.24.24.13.47.26.71.39.72.4 1.44.8 2.17 1.19.32.18.63.35.95.51.63.33 1.27.66 1.91.97.39.19.78.38 1.18.56.4.19.79.36 1.19.52.4.17.8.33 1.2.49.41.15.81.3 1.22.44.54.18 1.1.35 1.66.51.06.02.11.03.17.05.74.2 1.49.36 2.25.49.35.06.7.12 1.05.16.24.03.48.05.72.07.27.03.54.05.81.06.47.03.94.04 1.41.04 3.05 0 6.1-.54 9.1-1.26.43-.1.86-.21 1.29-.32 1.18-.3 2.34-.62 3.5-.94 1.09-.3 2.17-.59 3.24-.87.54-.14 1.08-.27 1.63-.41.55-.13 1.1-.25 1.65-.37.27-.06.55-.12.83-.17.55-.11 1.11-.21 1.66-.3.38-.06.76-.12 1.14-.16.26-.04.52-.07.78-.09.45-.06.9-.09 1.36-.12.28-.02.56-.04.85-.05h.06.02c.3-.01.6-.01.89-.01.28 0 .56 0 .84.01s.56.03.84.04c1.23.08 2.46.24 3.68.48 2.2.44 4.36 1.13 6.4 2.04.46.21.91.42 1.35.65.4.21.8.43 1.2.66.39.22.78.46 1.16.7.3.19.6.39.89.59.04.02.07.05.1.07.24.17.48.34.71.52.34.26.67.52 1 .79.17.13.34.27.5.42.36.29.71.61 1.05.94z" fill="#e6faff"/><g fill="#ed6d66"><path d="m90.778 483.007c-3.049 0-5.905-1.301-7.642-3.481l-1.059-1.33 1.142-1.26c.136-.15.337-.344.65-.617 1.907-1.603 3.525-3.145 4.971-4.735 1.436-1.59 2.639-3.152 3.676-4.772.26-.403.499-.918.731-1.415.597-1.299.963-1.903 1.393-2.303l.589-.547.804.013c1.475.024 3.316 1.379 4.244 2.675 1.169 1.593 1.747 3.822 1.611 6.255-.237 4.573-3.009 8.843-6.896 10.618-1.296.589-2.751.899-4.214.899z"/><path d="m86.817 470.695c-.55-.534-1.18-.99-1.873-1.357l-2.31-1.223 1.784-1.91c1.423-1.523 2.6-3.126 3.497-4.766l.648-1.183 1.34.158c1.174.138 2.317.598 3.306 1.329l1.392 1.03-.82 1.525c-.159.295-.299.597-.432.881l-.111.237c-.239.523-.466 1.008-.717 1.398-.848 1.31-1.786 2.569-2.79 3.746l-1.385 1.621z"/><path d="m89.78 452.67c-.14-1.04-.41-2.08-.82-3.12-.04-.1-.08-.2-.13-.31-.1-.24-.21-.49-.33-.73-.13-.27-.27-.54-.42-.81-.52-.92-1.14-1.85-1.88-2.76-.06-.08-.13-.16-.2-.23-.33-.42-.7-.84-1.11-1.26-.12-.14-.26-.29-.41-.43-.05-.06-.12-.13-.18-.19-.07-.07-.13-.13-.2-.19-.56-.55-1.14-1.07-1.74-1.56l-.48-.36-.2-.16c-.09-.07-.19-.13-.29-.2-.53-.39-1.07-.78-1.63-1.13-.02-.01-.03-.02-.04-.03-4.67-2.95-10.29-4.5-16.57-4.5-8.79 0-17.99 3.04-25.25 8.34-.25.19-.5.37-.75.57-.25.18-.49.37-.74.57-.47.38-.93.78-1.37 1.17-.01 0-.02.01-.02.02-.45.4-.88.8-1.27 1.21-1 .99-1.87 2.01-2.63 3.05-.23.32-.45.64-.66.96-.2.3-.39.61-.57.92-.24.42-.47.85-.67 1.28-.02.02-.03.05-.04.07-.05.11-.1.21-.14.32-.44.97-.78 1.96-1.02 2.95l-.04.19c-.02.09-.04.2-.06.3-.08.38-.15.77-.2 1.15-.01.06-.02.12-.03.17l-.07.62c-.09.92-.09 1.84 0 2.74.13 1.38.47 2.71 1.01 3.93.06.15.13.29.2.44.36.72.79 1.42 1.29 2.09.02.02.03.03.04.05 1.23 1.62 2.93 3.1 5.1 4.46.59.37 1.21.73 1.87 1.08l.94.47c.72.37 1.45.71 2.2 1.01.37.16.74.31 1.11.45.78.32 1.58.6 2.38.85h.01c.88.27 1.77.52 2.67.73 1.96.46 3.96.78 5.99.94 1.12.1 2.26.15 3.4.15.99 0 1.98-.03 2.97-.11.01.01.01.01.02 0 1.64-.11 3.27-.33 4.88-.64h.02c.4-.08.8-.16 1.2-.25.8-.18 1.58-.38 2.36-.6.39-.11.78-.23 1.16-.35.93-.29 1.84-.62 2.74-.98h.01c.8-.32 1.58-.66 2.36-1.03.77-.37 1.53-.76 2.28-1.18.49-.28.99-.57 1.47-.87.49-.3.96-.61 1.44-.93.35-.24.7-.49 1.04-.74.19-.13.38-.27.57-.42.26-.2.53-.41.78-.62.27-.2.53-.42.79-.64l.01-.01c.14-.12.28-.24.44-.37.45-.41.97-.9 1.53-1.46.17-.18.35-.36.52-.55.16-.17.31-.33.46-.5.35-.39.7-.81 1.05-1.26.15-.19.29-.38.43-.58.3-.4.59-.82.86-1.25.12-.18.24-.37.35-.56.16-.28.32-.56.48-.85.4-.76.75-1.55 1.04-2.38.49-1.41.8-2.92.8-4.5v-.14c-.01-.5-.05-1-.11-1.51zm-22.05 1.81h.01c.07.43.13.86.19 1.28-.06-.43-.13-.86-.2-1.28z"/><path d="m44.805 498.724c-1.986 0-3.833-.641-5.033-1.179-6.101-2.764-10.112-9.372-9.543-15.714l.199-2.215 2.182.432c1.083.214 2.103.736 3.09 1.24l.249.125c2.885 1.466 5.928 2.706 9.053 3.69.64.202 1.358.374 2.052.541l.175.042c1.749.418 3.517.839 4.895 1.763 1.204.81 1.73 1.956 1.565 3.408-.404 3.269-3.929 6.61-6.084 7.394-.865.314-1.808.473-2.8.473z"/><path d="m39.136 482.896c-1.243-.538-2.255-1.01-3.185-1.484l-.403-.207c-.297-.149-.603-.303-.92-.443l-1.29-.565.098-1.405c.129-1.849 1.068-3.626 2.513-4.757l.996-.779 1.131.566c1.448.724 2.938 1.353 4.429 1.869l2.77.958-1.902 2.229c-.695.815-1.224 1.772-1.529 2.769l-.656 2.137z"/></g><path d="m498.71 165.83c-4.65 5.34-7.44 11.97-9.7 18.28-1.56-1.81-3.67-3.23-6.21-4.12-5.17-1.82-11.38-1.15-15.81 1.73-6.54 4.25-10.86 12.28-12.48 23.22-.46 3.11-.73 6.28-.98 9.35-.36 4.36-.71 8.52-1.57 12.57-6.31-4.78-14.6-7.13-23.25-6.5-8.1.58-15.52 3.71-21 8.73-1.58-10.59-9.08-20.27-19.14-24.07-8.77-3.3-19.02-1.97-26.92 2.99 5.08-13.42 7.44-27.85 6.84-42.21-.23-5.52-.98-11.83-4.76-16.78-6.68-8.72-19.61-8.84-28.38-4.52-7.02 3.45-12.4 9.16-17.07 14.94.55-4.78 1.6-9.54 2.71-14.49.93-4.22 1.9-8.57 2.52-12.94 1.2-8.53 1.65-24.27-8.93-33.86-11.98-10.86-31.52-6.55-41.57 4.11-8.15 8.66-12.49 21.54-12.43 36.66-5.46-5.36-11.64-10.68-19.31-13.31-12.21-4.2-23.04 1.02-27.03 8.05-2.47 4.36-2.8 9.42-2.81 13.33-.03 10.46 2.23 20.84 6.58 30.33-8.58-3.68-17.47-6.24-26.05-3.55-6.27 1.96-11.4 8.17-12.49 15.1-.22 1.43-.25 2.81-.1 4.12-7.79-3.96-17.2-4.68-25.46-1.58-9.52 3.56-16.86 11.95-19.42 21.71-5.32-6.34-13.91-10.44-23.53-10.99-8.81-.51-17.38 1.81-24.58 4.47l15.49-28.42c8.43-15.47 15.97-33.28 7.94-48.1-8.5-15.67-29.51-18.48-46.35-15.88-23.56 3.64-46.08 14.82-63.46 31.21v5.59c17.13-17.31 40.04-29.13 64.07-32.84 15.49-2.4 34.72-.02 42.22 13.83 4 7.37 6.18 18.4-7.93 44.27l-18.14 33.27c-.4.75-.3 1.67.27 2.3s1.47.83 2.26.5c7.66-3.19 17.77-6.79 27.99-6.2 10.24.58 19.09 5.62 23.11 13.13.41.78 1.3 1.19 2.16 1.01.87-.17 1.52-.9 1.59-1.78.88-10.17 8.16-19.76 17.71-23.34 8.87-3.32 19.67-1.44 27.04 4.51.56.61 1.18 1.16 1.88 1.65.86.6 2.03.44 2.7-.36.66-.81.6-1.99-.16-2.71-.53-.52-1.09-1.02-1.66-1.5-2.04-2.39-1.97-5.46-1.69-7.25.85-5.4 4.94-10.41 9.73-11.91 8.97-2.8 18.53 1.1 28.36 5.7.78.37 1.72.19 2.31-.45.59-.63.7-1.58.28-2.33-5.7-10.22-8.7-21.8-8.67-33.5.01-3.42.28-7.81 2.29-11.36 4.13-7.28 14.55-8.89 22.25-6.25 8.52 2.92 15.34 9.85 21.37 15.95.59.6 1.48.77 2.24.42.77-.34 1.23-1.12 1.18-1.96-.64-9.39-.03-26.91 11.16-38.8 8.77-9.31 25.71-13.19 35.98-3.88 9.21 8.34 8.74 22.59 7.65 30.33-.6 4.21-1.55 8.49-2.47 12.63-1.56 7.01-3.17 14.26-3.19 21.66 0 .85.55 1.62 1.36 1.89.81.28 1.71.01 2.23-.67 5.33-6.94 11.38-14.82 19.63-18.88 7.45-3.66 18.25-3.4 23.44 3.37 3.11 4.07 3.74 9.62 3.94 14.52.69 16.61-2.72 33.32-9.87 48.32-.43.91-.12 2 .72 2.55.85.54 1.97.37 2.62-.4 6.88-8.23 19.16-11.46 29.19-7.68 10.04 3.79 17.13 14.32 16.86 25.04-.02.87.51 1.64 1.32 1.94.23.08.46.11.68.11.6 0 1.19-.27 1.57-.76 4.88-6.2 12.68-10.11 21.42-10.74s17.03 2.13 22.74 7.56c.5.48 1.22.67 1.9.48.67-.18 1.2-.7 1.4-1.37 1.56-5.39 2.02-10.99 2.47-16.4.25-3 .51-6.11.96-9.1 1.01-6.81 3.69-15.89 10.7-20.45 3.43-2.22 8.25-2.74 12.3-1.31 3.06 1.08 5.22 3.13 6.09 5.77.26.81 1.02 1.37 1.88 1.37h.02c.85 0 1.61-.54 1.89-1.35 2.44-7.1 5.21-15.16 10.37-21.09 2.58-2.97 6.25-5.62 10.28-6.93v-4.14c-5.26 1.39-10.03 4.69-13.29 8.44z"/><path d="m255.3 292.51c-23.03-25.27-45.42-51.16-66.98-77.44-1.04-1.27-2.77-3.38-5.38-3.71-2.07-.26-3.89.72-5.1 1.37-3.09 1.65-6.25 3.39-9.38 5.17-24.97 14.09-48.54 31.13-71.33 47.61-11.56 8.36-23.51 17-35.47 25.13-.87.59-1.75 1.18-2.62 1.77-19.6-.29-39.42-.13-59.04.45v4c17.66-.53 35.48-.69 53.17-.5-5.47 3.65-10.98 7.28-16.47 10.84-.35.22-1.05.6-1.86 1.04-5.63 3.06-9.88 5.66-9.2 8.91.71 3.35 6.24 4.19 17.59 4.71 1.32.06 2.46.12 2.98.18l21.92 2.56c28.08 3.28 56.14 6.59 84.21 9.89-2.2 7.46-4.37 14.81-6.48 22.07-11.83 1.02-23.09-2.78-35-6.8-9.1-3.07-18.51-6.25-28.22-7.08-12.3-1.06-24.5 1.69-36.29 4.34-2.74.62-5.57 1.26-8.35 1.83-11.29 2.35-25.46 4.31-38 .04v4.21c13.09 4.03 27.38 2.05 38.81-.33 2.81-.58 5.66-1.22 8.42-1.85 11.5-2.58 23.38-5.26 35.07-4.26 9.22.79 18.4 3.89 27.28 6.89 10.47 3.54 21.26 7.18 32.43 7.18.88 0 1.77-.03 2.66-.08-1.55 5.35-3.08 10.64-4.58 15.89-5.82-5.3-13.62-8.19-21.48-7.92-4.7.16-9.26 1.4-13.66 2.61-5.54 1.52-10.77 2.95-16.06 2.29-5.25-.64-9.96-3.27-14.94-6.05-2.24-1.24-4.56-2.54-6.94-3.64-10.19-4.71-22.35-6.31-36.14-4.76-10.57 1.19-20.87 4.05-30.87 7.05v4.18c10.19-3.07 20.69-6.06 31.32-7.26 13.05-1.46 24.5.02 34.01 4.42 2.24 1.04 4.49 2.29 6.67 3.51 5.1 2.84 10.37 5.78 16.4 6.52 6.08.75 11.94-.85 17.6-2.4 4.38-1.2 8.51-2.33 12.74-2.47 6.96-.24 14.14 2.51 19.17 7.34.3.29.67.46 1.05.53-1.76 6.14-3.48 12.23-5.18 18.26-12.57-5.76-27.65-7.55-47.27-5.62-6.55.64-13.15 1.62-19.54 2.57-9.41 1.4-19.14 2.84-28.74 3.2-12.93.48-25.77-.95-38.23-4.26v4.14c12.53 3.22 25.41 4.6 38.38 4.12 9.82-.37 19.66-1.83 29.18-3.25 6.34-.94 12.89-1.91 19.34-2.54 19.19-1.89 33.77-.12 45.79 5.54-4.68 16.72-9.15 33.05-13.44 49.16-.14.54-.06 1.12.24 1.59s.79.8 1.34.9l12.21 2.21c.12.02.24.03.36.03.86 0 1.65-.56 1.91-1.42 4.84-16.1 9.26-31.48 13.3-46.32 12.12 4.78 25.25 2.36 37.96 0 9.85-1.83 20.03-3.73 29.6-2.23 9.45 1.48 18.21 6.25 26.7 10.87 3.11 1.7 6.34 3.45 9.57 5.04 16.88 8.26 35.72 12.53 54.55 12.36 8.93-.08 18.04-1.15 26.85-2.18 18.23-2.14 35.45-4.16 51.86 1.59 6.09 2.14 11.95 5.37 17.61 8.51 7.16 3.96 14.56 8.06 22.72 10.12 10.89 2.76 22.24 1.71 33.22.69 11.88-1.1 23.11-2.13 33.86 1.2 2.42.75 4.9 1.76 7.3 2.73 3.77 1.52 7.62 3.06 11.59 3.83v-4.07c-3.32-.74-6.65-2.08-10.09-3.47-2.48-1-5.03-2.04-7.61-2.84-11.52-3.57-23.67-2.45-35.42-1.36-10.64.99-21.65 2.01-31.86-.58-7.66-1.94-14.52-5.74-21.78-9.75-5.8-3.22-11.8-6.54-18.22-8.78-17.28-6.06-35.77-3.89-53.65-1.8-8.7 1.02-17.7 2.08-26.42 2.16-18.18.18-36.42-3.96-52.75-11.95-3.16-1.55-6.34-3.28-9.42-4.96-8.78-4.78-17.86-9.73-27.99-11.31-10.25-1.61-20.77.35-30.95 2.24-12.86 2.4-25.03 4.64-36.17.05 1.38-5.1 2.71-10.14 4-15.12 14.73 5.51 30.49 1.74 45.74-1.91 13.14-3.14 26.73-6.39 39.47-3.64 7.61 1.64 14.46 5.27 21.7 9.1 3.14 1.66 6.38 3.38 9.66 4.9 15.96 7.39 33.66 10.54 51.18 9.09 5.39-.44 10.86-1.32 16.15-2.17 13.1-2.1 25.47-4.08 37.33-.29 4.07 1.3 7.85 3.23 11.85 5.27.03.01.05.03.08.04 3.52 1.79 7.16 3.64 10.99 5 10.26 3.65 21.45 3.72 32.27 3.78 13.69.08 26.63.15 37.44 6.98 2.18 1.38 4.19 2.99 6.31 4.69 2.46 1.97 5 4.01 7.84 5.65 6.98 4.04 14.84 5.27 22.89 5.27 2.46 0 4.95-.12 7.43-.3v-4.02c-10.04.77-20.03.38-28.32-4.41-2.58-1.49-4.89-3.35-7.34-5.31-2.11-1.7-4.3-3.45-6.68-4.95-11.78-7.44-25.89-7.52-39.55-7.6-10.49-.06-21.33-.12-30.95-3.54-3.62-1.29-7.17-3.1-10.6-4.85-3.96-2.02-8.06-4.11-12.44-5.51-12.78-4.08-26.2-1.93-39.18.15-5.22.84-10.61 1.7-15.85 2.13-16.83 1.39-33.84-1.63-49.16-8.73-3.19-1.48-6.39-3.17-9.48-4.81-7.16-3.79-14.57-7.71-22.73-9.47-13.63-2.94-27.66.41-41.24 3.66-15.48 3.7-30.13 7.18-43.8 1.88 2.01-7.83 3.91-15.52 5.72-23.1.01-.01.02-.01.03-.01 13.33-4.97 28.13-.75 42.45 3.33l2.99.85c21.64 6.1 39.75 8.89 56.93 8.82 14.69-.06 29.41-2.35 43.63-4.56 12.19-1.89 24.8-3.85 37.26-4.38 8.23-.34 17.72-.12 25.65 4.2 4.25 2.31 7.78 5.63 11.51 9.14 2.59 2.43 5.26 4.94 8.21 7.1 10.84 7.96 24.26 10.53 37.07 12.49 27.94 4.27 56.38 6.42 84.67 6.42.4 0 .8 0 1.2-.01v-4c-28.49.06-57.14-2.07-85.27-6.37-12.32-1.88-25.19-4.33-35.31-11.75-2.75-2.02-5.33-4.45-7.83-6.79-3.75-3.54-7.63-7.19-12.33-9.74-8.8-4.79-18.96-5.06-27.74-4.68-12.68.54-25.4 2.51-37.7 4.42-14.08 2.19-28.64 4.45-43.04 4.51-16.83.09-34.55-2.68-55.83-8.67l-2.97-.85c-14.11-4.02-28.67-8.16-42.5-4.04.07-.3.14-.61.21-.91l.25-1.05c1.55-6.68 3.17-13.56 5.72-19.95 14.99 1.76 29.99 3.52 44.98 5.28l94.9 11.18c.07.01.15.01.23.01.76 0 1.46-.43 1.8-1.12.37-.76.22-1.68-.38-2.28-17.08-17.32-33.92-35.04-50.44-53.08l253.25-.33v-4l-255.79.33c-.33 0-.64.09-.91.23zm-186.7 28.12-21.93-2.57c-.66-.07-1.75-.12-3.25-.19-7.41-.35-11.97-.89-13.57-1.64 1.22-1.38 5.41-3.67 6.9-4.47.92-.5 1.64-.9 2.12-1.21 7.389-4.781 14.714-9.696 22.083-14.482.492-.32.905-.658 1.347-1.022.203-.167 1.61-.886 1.61-1.096 12.01-8.16 23.99-16.82 35.57-25.19 22.7-16.42 46.17-33.39 70.96-47.38 1.39-.79 2.78-1.57 4.17-2.34-34.33 31.31-69.15 63.95-96.13 102.75-3.29-.39-6.59-.78-9.88-1.16zm14.42 1.69c27.06-38.39 61.94-70.86 96.2-102.07-18.06 34.76-33.92 71-47.16 107.83-16.35-1.92-32.7-3.84-49.04-5.76zm75.02 33.01-.25 1.05c-6.95 29.79-15.4 61.17-25.8 95.88l-8.32-1.51c9.82-36.77 20.53-74.69 32.71-115.79 2.39.29 4.78.57 7.17.85-2.44 6.36-4 13.04-5.51 19.52zm-21.9-26.77c12.98-35.99 28.46-71.41 46.08-105.41.5 37.03 2.05 74.45 4.63 111.37-16.91-1.99-33.81-3.97-50.71-5.96zm76.97 9.04c-7.41-.87-14.82-1.74-22.22-2.61-2.54-36.16-4.09-72.8-4.63-109.1 2.31 4.66 4.97 9.13 7.58 13.51.71 1.18 1.42 2.37 2.11 3.55 9.12 15.47 17.2 31.89 25.01 47.77l24.96 50.74zm89.24 10.51-52.14-6.14c.07-.4.02-.82-.17-1.21l-25.49-51.81c-7.84-15.94-15.95-32.43-25.15-48.03-.7-1.19-1.41-2.38-2.12-3.57-2.98-4.99-6.01-10.1-8.48-15.42 35.89 43.51 74.05 85.92 113.55 126.18z"/><path d="m393.41 107.02c3.82 2.66 8.42 4.69 14.48 6.4 3.09.87 7.04 1.82 11.21 1.82.65 0 1.32-.03 1.98-.08 4.12-.31 8.47-1.71 12.92-4.13 6.05-3.3 10.89-7.74 14-12.83 2.82-4.61 4.59-10.3 5.43-17.39.86-7.22.48-13.37-1.15-18.81-3-10.02-11.01-18.85-21.41-23.59-7.83-3.58-16.5-3.67-25.05-.28-7.61 3.02-14.56 8.61-19.56 15.73-5.82 8.29-8.54 18.52-7.46 28.06 1.14 10.14 6.6 19.52 14.61 25.1zm-3.88-50.86c8.51-12.13 24.88-20.87 39.68-14.11 9.37 4.27 16.56 12.16 19.24 21.1 1.47 4.9 1.8 10.52 1.01 17.19-.77 6.51-2.36 11.67-4.87 15.78-2.75 4.49-7.07 8.43-12.51 11.4-3.95 2.15-7.75 3.38-11.31 3.65-4.25.33-8.54-.68-11.8-1.6-5.62-1.58-9.83-3.44-13.27-5.83-7.08-4.94-11.91-13.26-12.93-22.26-.97-8.59 1.49-17.82 6.76-25.32z"/><path d="m86.34 82.72c6.14 1.16 12.65 1.45 18.94 1.72 2.59.12 5.28.23 7.85.41 9.38.65 18.9 1.2 28.3 1.63 15.74.72 32.14 1.33 48.73 1.33 11.41 0 22.91-.29 34.33-1.02.65-.04 1.29-.09 1.94-.23.69-.16 1.28-.39 1.81-.71 4.21-2.59 1.59-9.29.22-11.66-1.89-3.27-5.05-6.09-8.89-7.91-6.79-3.23-14.77-3.67-21.9-1.41.97-3.21 1.09-7.01.31-11.17-2-10.68-8.68-20.52-17.86-26.33s-20.94-7.63-31.45-4.87c-10.76 2.84-19.55 10.41-22.93 19.76-2.73 7.56-1.96 15.91-.89 23.13-13.91-4.8-30.3-2.14-41.83 7.05-.81.65-2.97 2.36-2.91 4.92.07 2.68 2.34 4.63 6.23 5.36zm-.83-7.15c7.04-5.61 16.07-8.54 25.07-8.54 5.48 0 10.96 1.09 15.97 3.33.67.3 1.45.21 2.03-.24.59-.45.88-1.18.76-1.9-1.25-7.86-2.67-16.77.16-24.6 2.94-8.14 10.68-14.74 20.19-17.25 9.45-2.49 20.03-.85 28.29 4.38 8.26 5.22 14.27 14.08 16.07 23.69.61 3.25 1.11 9.3-2.34 13.2-.65.73-.67 1.82-.06 2.58.62.76 1.69.97 2.54.49 7.17-4.03 16.23-4.35 23.66-.82 3.12 1.48 5.66 3.72 7.15 6.3 1.35 2.35 1.98 5.74 1.15 6.25-.15.09-.34.16-.58.21-.38.08-.83.12-1.33.15-27.86 1.78-56.17.9-82.63-.32-9.36-.42-18.86-.97-28.21-1.62-2.62-.18-5.33-.3-7.95-.41-6.15-.27-12.51-.55-18.37-1.66-1.91-.36-2.96-1.05-2.97-1.52 0-.22.17-.72 1.4-1.7z"/><path d="m105.85 445.75c-2.77-.95-6.01-.9-9.37.14-2.08.63-3.99 1.57-5.82 2.55-.25-.57-.52-1.15-.84-1.72 3.15-3 7.43-4.79 11.79-4.9 1.1-.03 1.98-.95 1.95-2.05-.03-1.11-.94-1.97-2.05-1.95-5.14.13-10.17 2.17-13.99 5.59-.51-.6-1.04-1.21-1.63-1.8.27-.33.64-.65 1-.97 1.28-1.11 2.6-2.27 4.01-3.08.99-.58 2.49-1.24 4.07-1.16 1.1.06 2.05-.78 2.11-1.89.06-1.1-.79-2.04-1.89-2.1-2.02-.11-4.2.47-6.3 1.69-1.74 1-3.21 2.29-4.63 3.53-.43.37-.92.81-1.37 1.34-13.17-10.04-33.23-6.99-46.17 2.46-2.19 1.6-4.07 3.29-5.63 5.06-1.57 1.76-2.81 3.61-3.71 5.51-.01.02-.01.03-.02.04-5.24-2.94-12.08-2.87-17.19.35-.94.58-1.22 1.82-.64 2.75.59.94 1.83 1.22 2.76.63 4.11-2.58 9.67-2.5 13.73.13-.13.61-.25 1.21-.32 1.81-.52-.11-1.08-.17-1.67-.17-2.03 0-4.2.57-6.37 1.73-1.83.97-3.45 2.23-4.97 3.44-.86.69-1 1.95-.31 2.81.39.49.97.75 1.56.75.44 0 .88-.14 1.25-.44 1.42-1.13 2.83-2.22 4.35-3.03 1.57-.84 3.07-1.26 4.45-1.26h.02c.81 0 1.49.21 1.71.53.16 1.16.44 2.29.85 3.37-.87.16-1.74.46-2.59.91-1.59.84-2.89 2.05-4.06 3.24-1.33 1.36-3.02 3.2-4.26 5.37-.54.96-.21 2.19.75 2.73.32.18.65.26.99.26.7 0 1.37-.36 1.74-1.01 1-1.76 2.4-3.29 3.63-4.54 1.09-1.11 2.03-1.96 3.08-2.52 1.03-.55 2.11-.72 2.95-.47.03.01.07.01.11.02 1.21 1.48 2.76 2.85 4.67 4.12-1.08 1.24-1.81 2.79-2.06 4.41-1.17.06-1.89.54-2.31.98-.73.78-.86 1.75-.91 2.17-.93 7.37 3.54 15.05 10.65 18.25 1.98.9 3.98 1.36 5.85 1.36 1.23 0 2.41-.2 3.49-.59 3.11-1.13 6.92-5.23 7.38-9.01.27-2.21-.6-4.1-2.44-5.33-1.69-1.14-3.74-1.62-5.55-2.05-.75-.18-1.45-.35-2.08-.55-.65-.2-1.29-.42-1.92-.64.3-1.33 1.11-2.55 2.24-3.31.16-.1.29-.23.41-.37 3.11.7 6.29 1.07 9.48 1.07 9.69 0 19.38-3.23 26.93-9.44.14.09.28.17.44.23.85.31 1.63.82 2.29 1.45-.89.86-1.84 1.73-2.86 2.59-.64.53-2.57 2.16-1.93 4.42.16.57.45 1 .71 1.34 2.16 2.89 5.73 4.48 9.38 4.48 1.71 0 3.44-.35 5.05-1.08 4.54-2.07 7.78-7.03 8.07-12.34.15-2.89-.56-5.57-2.01-7.55-.99-1.36-3.62-3.83-6.5-3.44-.11.01-.2.05-.31.08-1.09-.99-2.42-1.69-3.84-2.05.61-2.09.81-4.19.54-6.23 1.91-1.06 3.87-2.07 5.89-2.69 1.78-.55 4.42-1.03 6.89-.18 1.04.36 2.18-.2 2.54-1.24.36-1.05-.2-2.19-1.24-2.54zm-61.45 41.26c.76.24 1.57.43 2.36.62 1.55.37 3.16.75 4.25 1.48.58.39.77.82.69 1.52-.28 2.27-3.13 5.14-4.78 5.74-2.36.86-4.97-.04-6.33-.65-5.32-2.41-8.86-8.24-8.37-13.71.81.16 1.67.6 2.57 1.06l.26.13c2.99 1.52 6.14 2.8 9.35 3.81zm-8.97-8.08c.09-1.29.74-2.53 1.75-3.32 1.52.76 3.08 1.42 4.67 1.97-.87 1.02-1.53 2.21-1.92 3.48-1.04-.45-2.07-.92-3.07-1.43l-.25-.13c-.38-.19-.77-.39-1.18-.57zm45.2-11.86c-11.62 9.87-29.13 11.72-42.56 4.52-3.75-2.01-6.18-4.23-7.44-6.8-1.56-3.17-1.43-7.31.36-11.07 1.53-3.21 4.25-6.26 8.09-9.06 12.54-9.16 32.36-11.82 43.81-.41 2.87 2.87 4.53 5.79 4.91 8.68.87 6.53-4.72 12.06-7.17 14.14zm14.43-.83c.23-.5.66-1.42.94-1.68.61.01 1.92.82 2.65 1.84.91 1.24 1.35 3.01 1.24 4.98-.2 3.86-2.51 7.44-5.73 8.91-3.26 1.48-7.38.6-9.46-2.01.1-.11.25-.25.48-.45 1.94-1.63 3.64-3.25 5.14-4.9 1.49-1.65 2.78-3.32 3.88-5.04.33-.51.6-1.09.86-1.65zm-3.04-2.89c-.22.41-.41.83-.59 1.21-.21.46-.41.89-.59 1.17-.77 1.19-1.64 2.37-2.63 3.53-.69-.67-1.48-1.24-2.33-1.69 1.55-1.66 2.82-3.4 3.79-5.17.85.1 1.66.44 2.35.95z"/><path d="m67.42 452.5c-1.09.18-1.83 1.2-1.66 2.29.28 1.68.44 3.4.5 5.09.04 1.08.93 1.93 2 1.93h.07c1.11-.04 1.97-.96 1.93-2.07-.06-1.86-.25-3.74-.55-5.59-.17-1.09-1.2-1.82-2.29-1.65z"/><path d="m55.15 457.71c.11-1.1-.69-2.08-1.79-2.19-1.09-.11-2.08.69-2.19 1.79-.21 2.09 0 4.26.62 6.27.27.86 1.06 1.41 1.91 1.41.2 0 .4-.03.59-.09 1.06-.33 1.65-1.44 1.33-2.5-.47-1.5-.63-3.13-.47-4.69z"/></svg>