<svg id="Capa_1" enable-background="new 0 0 512 512" height="512" viewBox="0 0 512 512" width="512" xmlns="http://www.w3.org/2000/svg"><path d="m512 178.96v144.37h-74.05l-.76.24-.11.04s0-.01-.01 0h-.01l-.77-.49c-4.27-2.68-8.59-5.2-12.94-7.52-.73-.38-1.45-.76-2.18-1.14-.73-.37-1.46-.74-2.19-1.11-1.46-.74-2.92-1.45-4.39-2.13-.4-.19-.79-.37-1.19-.55-2.8-1.29-5.61-2.5-8.44-3.63-.47-.19-.94-.38-1.42-.56-.74-.29-1.48-.57-2.22-.85-1.02-.38-2.05-.76-3.08-1.12-1.02-.36-2.04-.71-3.06-1.04-.43-.15-.86-.29-1.29-.42-.03-.02-.05-.03-.08-.03-.58-.19-1.16-.38-1.74-.55-.1-.04-.2-.07-.3-.09-.47-.15-.93-.29-1.4-.43-1.62-.49-3.25-.95-4.87-1.37-1.3-.35-2.59-.68-3.89-.98-.01-.01-.02-.02-.03-.01-.09-.03-.19-.05-.28-.07-.04-.01-.07-.02-.11-.02-.89-.22-1.8-.42-2.69-.61-.96-.21-1.92-.41-2.88-.6-1.42-.286-2.842-.534-4.264-.779-.892-.152-1.784-.296-2.677-.432-.465-.071-.931-.136-1.396-.203-2.058-.295-4.119-.553-6.183-.765-.238-.024-.476-.055-.714-.078-.012-.001-.024-.003-.036-.004-1.299-.125-2.604-.227-3.904-.32-.819-.059-1.638-.135-2.456-.18-.03 0-.07-.01-.1-.01l-.46-.03.03-2.04c.02-1.62.02-3.25-.02-4.88 0-.51-.02-1.02-.04-1.54 0-.54-.02-1.08-.05-1.62-.01-.47-.03-.94-.06-1.4-.01-.42-.04-.84-.07-1.25-.02-.59-.06-1.18-.1-1.77-.05-.89-.12-1.78-.2-2.67-.03-.42-.07-.84-.11-1.26-.02-.31-.05-.61-.08-.91-.04-.45-.09-.9-.14-1.35-.12-1.23-.26-2.45-.43-3.67-.17-1.31-.35-2.62-.55-3.93-.02-.09-.03-.18-.05-.27v-.01c-.03-.22-.07-.44-.1-.67l-.1-.61c-.15-.92-.3-1.83-.47-2.74-.04-.21-.08-.43-.12-.64-.12-.64-.24-1.27-.36-1.9-.38-1.93-.8-3.86-1.27-5.78-.15-.64-.3-1.27-.46-1.91-.34-1.38-.7-2.75-1.08-4.11-.14-.53-.3-1.04-.45-1.57-.32-1.15-.67-2.3-1.04-3.44-.21-.7-.43-1.39-.66-2.08-.39-1.2-.8-2.4-1.22-3.59l-.08-.21c-.27-.75-.54-1.51-.82-2.26-.02-.06-.05-.13-.07-.19-.61-1.62-1.25-3.24-1.91-4.84l-.54-1.32.02-.02.87-.76.18-.16c.22-.43.46-.88.72-1.34l.03-.04.04-.07.02-.04.04-.07.02-.04.23-.39c.43-.73.93-1.51 1.5-2.32.19-.26.38-.53.59-.8.15-.2.3-.41.47-.61.15-.19.31-.39.47-.58.15-.18.3-.36.46-.55.16-.18.32-.36.48-.54s.33-.36.5-.54c.17-.17.35-.35.53-.53.15-.15.3-.3.45-.44.02-.02.04-.04.06-.06.15-.15.31-.3.47-.44.21-.19.43-.38.66-.57.24-.21.5-.41.75-.61.02-.01.03-.03.05-.04.03-.03.06-.05.1-.07.23-.18.45-.35.69-.52.13-.09.26-.19.41-.28.19-.14.39-.27.6-.4.65-.42 1.33-.81 2.05-1.17.05-.03.11-.05.16-.08.29-.15.59-.28.89-.41.01 0 .01-.01.02-.01.34-.14.67-.28 1.02-.41.04-.01.08-.03.12-.04.34-.12.68-.24 1.03-.34.37-.11.74-.21 1.12-.31.01-.01.02-.01.03-.01 1.49-.35 3.02-.53 4.54-.53 1.2 0 2.36.11 3.49.33 1.49.3 2.9.78 4.19 1.44.32.17.64.35.95.54 0 0 .01 0 .01.01.38.23.74.48 1.09.74.14.1.28.21.42.32.2.16.39.32.58.49.17.15.34.3.5.47.15.14.29.28.42.43.3.31.59.63.85.96 2.24 2.76 3.59 6.24 4.22 9.83.01.01.01.02.01.03.08.51.15 1.01.21 1.52.04.43.08.86.11 1.3.02.14.02.27.02.4.02.3.03.6.04.9.01.22.02.43.01.64 0 .44-.01.88-.04 1.31.01.07 0 .13-.01.2-.02.46-.05.92-.1 1.36-.03.32-.07.63-.11.94-.07.48-.14.96-.23 1.43 0 .02-.01.04-.01.06-.01.04-.01.08-.02.12-.01.05-.02.1-.03.15-.04.21-.08.43-.12.64-.07.3-.13.6-.2.9-.15.69-.32 1.38-.51 2.07-.11.39-.22.78-.34 1.17-.11.36-.21.72-.33 1.07-.17.57-.36 1.14-.57 1.71-.16.49-.33.97-.51 1.45-.08.23-.17.46-.25.68-.15.41-.31.82-.47 1.23-.27.7-.54 1.4-.82 2.09-.29.73-.58 1.46-.88 2.18l-.07.17c-.68 1.69-1.38 3.44-2.03 5.19l-.02.05c-.08.21-.16.42-.23.63h-.01c-.04.13-.09.26-.14.39 1.19-.66 2.43-1.27 3.69-1.8l.16-.06.56-.23c.24-.1.49-.19.74-.29.25-.09.5-.18.75-.27.27-.1.54-.19.81-.28.23-.07.47-.15.7-.22 1.01-.31 2.03-.58 3.06-.8.22-.05.44-.1.66-.14.18-.04.37-.08.56-.11.03-.01.07-.01.1-.02h.01l.15-.03c.05-.01.09-.01.14-.02.11-.02.21-.04.32-.06.26-.04.52-.08.78-.12.13-.02.26-.03.39-.05.52-.07 1.05-.13 1.57-.18.26-.02.53-.04.79-.06.26-.03.53-.04.79-.06.3-.02.6-.02.89-.03.3-.01.59-.01.88-.01h.01.02.11c.39 0 .76.01 1.14.03.21 0 .42.01.63.03.32.02.63.04.93.07.16.01.32.03.48.05.23.02.46.05.69.08.51.07 1.02.15 1.52.25.26.05.52.1.77.16.31.07.62.15.92.23.24.06.48.13.72.2.17.06.34.11.5.17.29.09.57.2.85.3.25.09.5.19.74.3.05.02.1.04.15.06.25.11.49.23.73.34.27.13.52.26.78.4.32.18.64.36.95.56.22.14.43.28.65.43.43.3.85.62 1.25.96 2.78 2.36 4.69 5.5 5.2 8.74h.01c-.27-2.24.1-4.43.82-6.59l.02-.06c.01-.02.01-.03.02-.05.08-.26.17-.52.27-.77.09-.24.18-.48.28-.72.17-.43.35-.86.55-1.28.1-.24.21-.48.33-.72.23-.48.46-.96.71-1.44.24-.49.5-.98.75-1.45.65-1.23 1.31-2.44 2.03-3.58.16-.26.33-.52.51-.78.15-.24.31-.47.49-.7.01-.02.02-.04.03-.05.24-.33.48-.65.74-.95.27-.33.55-.64.84-.93.14-.15.29-.3.44-.44.3-.28.61-.55.94-.81.16-.12.32-.25.49-.36.19-.13.38-.26.57-.37.14-.1.28-.18.42-.26.04-.03.09-.06.13-.07.17-.1.34-.19.52-.27.16-.09.32-.17.49-.24.76-.34 1.57-.63 2.42-.86.21-.06.42-.11.64-.16s.44-.1.66-.13c.17-.04.35-.07.54-.09.03 0 .06-.01.09-.01.22-.04.44-.07.66-.09.25-.03.5-.05.76-.07.44-.04.88-.05 1.33-.05.99 0 2.02.07 3.06.21.27.04.55.08.82.13.27.04.54.09.82.15.26.05.53.11.81.18.17.03.34.08.52.12.02.01.05.01.07.02.11.02.23.06.35.09.11.03.22.06.34.09.37.1.75.21 1.13.33.04.01.08.02.12.04.42.13.85.27 1.3.43.29.1.59.21.9.32.5.18 1 .37 1.49.57l.2.08.17.06c1.2.48 2.39.98 3.56 1.48l.13.06c-.78-1.25-1.43-2.58-1.97-3.95l-.21-.56c-.26-.73-.49-1.46-.69-2.21-.08-.32-.16-.63-.23-.96-.02-.07-.03-.14-.05-.22-.07-.33-.14-.67-.19-1.01-.07-.38-.13-.76-.17-1.13-.07-.57-.13-1.14-.17-1.71-.11-1.86-.04-3.73.23-5.57.06-.43.14-.87.22-1.3.08-.39.17-.78.27-1.17.08-.34.17-.67.27-1 .01-.05.03-.1.05-.16.05-.18.11-.37.17-.55.05-.17.11-.33.17-.5.01-.03.02-.05.03-.08.01-.04.03-.08.04-.12.11-.31.23-.61.35-.91.01-.03.02-.05.03-.08.15-.36.31-.72.47-1.07 0 0 0 0 0-.01.11-.22.22-.44.33-.66.12-.24.25-.48.38-.72.25-.48.53-.94.83-1.4s.61-.9.93-1.34c.16-.22.32-.43.49-.64.34-.43.69-.84 1.05-1.25.18-.2.37-.4.55-.59.38-.39.76-.77 1.15-1.14.21-.19.41-.37.62-.54.61-.54 1.25-1.04 1.91-1.52 1.77-1.26 3.7-2.31 5.72-3.1.5-.21 1.01-.39 1.52-.55h.01c.26-.08.52-.16.78-.23.26-.08.52-.15.78-.21.26-.07.53-.13.79-.19.27-.05.53-.11.8-.16.31-.06.62-.11.93-.15.23-.03.45-.06.68-.08.27-.03.54-.06.81-.08.68-.06 1.38-.08 2.08-.08.66 0 1.32.02 1.98.07.33.02.67.05 1.01.09 1.02.11 2.05.27 3.09.48.35.07.71.15 1.06.23s.71.17 1.07.27c.72.19 1.44.41 2.18.65.37.12.74.25 1.11.38.24.08.48.17.73.27.28.09.56.2.84.32.32.12.63.25.95.38l.91.38c.78.34 1.56.7 2.36 1.09-.22-1.06-.39-2.14-.49-3.23l-.02-.26c-.02-.28-.04-.57-.05-.85-.41-8.19 2.65-16.67 8.35-22.52.34-.35.69-.69 1.05-1.03.37-.33.74-.66 1.12-.97.38-.32.76-.62 1.16-.92.4-.29.8-.58 1.22-.86 4.33-2.899 9.52-4.709 14.81-5.099z" fill="#fff"/><path d="m316.5 298.37v.01l-.33.08c-.5.1-.98.22-1.47.33-1.98.46-3.94.97-5.88 1.52-.67.19-1.34.38-2 .58-.59.18-1.17.36-1.76.56-.48.15-.95.3-1.43.46-.7.23-1.4.48-2.1.72-.51.18-1.02.36-1.53.55-.45.16-.9.34-1.36.51-.21.07-.43.16-.64.24-.7.27-1.4.55-2.1.83-.92.37-1.83.75-2.74 1.14-.46.2-.92.4-1.38.6-.45.2-.91.4-1.37.61-.91.41-1.83.83-2.74 1.28-1.03.49-2.06 1-3.09 1.52-.52.26-1.03.53-1.54.79-1.04.54-2.06 1.09-3.1 1.65-1.54.85-3.08 1.73-4.63 2.64-.51.29-1.02.6-1.54.92-1.03.62-2.06 1.26-3.09 1.91-2.57 1.63-5.14 3.34-7.71 5.15l-.27.18c-.09.05-.17.11-.25.18h-262.45v-168.71c1.11-.08 2.22-.13 3.32-.16.4-.01.8-.02 1.2-.03.28-.01.56-.01.84-.01.38-.02.75-.02 1.13-.02 15.93 0 30.15 3.92 41.12 11.32.43.29.85.58 1.26.89 0 .01.01.01.02.01.82.59 1.62 1.2 2.39 1.83.28.23.54.45.81.68s.53.45.79.68l.01.01c.05.05.09.09.14.12.05.05.11.1.16.15.21.19.41.38.62.57.25.24.51.48.76.72.35.34.7.69 1.04 1.04s.68.7 1.01 1.06.66.73.98 1.09c.6.69 1.18 1.39 1.74 2.1.56.72 1.1 1.45 1.62 2.19.23.32.45.65.67.98s.43.66.65.99c.21.33.41.67.62 1 .62 1.01 1.19 2.04 1.71 3.08.18.35.35.7.52 1.05s.33.7.49 1.05c.18.4.36.81.53 1.22.7 1.63 1.29 3.28 1.77 4.95.13.45.25.9.37 1.34.28 1.01.5 2.02.69 3.04.09.46.17.92.24 1.39.03.17.06.35.08.53.06.38.11.77.15 1.16.01.05.01.09.02.14.03.24.05.49.08.73.03.38.06.76.09 1.14.09 1.35.11 2.7.07 4.04-.01.23-.02.46-.03.69-.01.28-.03.55-.05.82-.05.79-.13 1.58-.24 2.37l-.07.53c-.29 1.89-.72 3.75-1.3 5.57 1.3-1.34 2.63-2.6 3.99-3.76.32-.27.65-.53.97-.79.59-.48 1.18-.96 1.79-1.41.04-.04.09-.07.13-.1.63-.47 1.27-.93 1.91-1.36.32-.22.64-.43.96-.64.41-.25.81-.51 1.21-.75.41-.24.82-.48 1.22-.71 2.01-1.14 4.04-2.08 6.08-2.82.29-.1.58-.21.87-.31.26-.09.52-.18.78-.26.08-.02.16-.05.24-.07.25-.08.49-.15.73-.22.58-.16 1.16-.31 1.74-.45.27-.06.53-.12.8-.17.29-.06.57-.12.86-.17.41-.07.81-.14 1.22-.19.14-.03.27-.04.41-.06.34-.05.69-.08 1.03-.12.6-.05 1.19-.08 1.78-.11h.07c.16-.01.31-.02.46-.01h.46c1 0 2 .05 2.98.15 6.2.65 12.07 3.53 16.61 7.81.25.24.5.48.74.73.13.12.24.24.35.36.25.26.5.52.73.79 2.65 2.96 4.69 6.44 5.87 10.23.31.99.55 1.99.75 3.01.15.83.26 1.67.34 2.51.03.34.05.67.07 1 0 .08.01.17.01.25.14 2.59-.09 5.2-.67 7.74-.08.34-.16.69-.24 1.03-.01.03-.02.07-.03.1-.08.33-.17.65-.27.98-.12.4-.25.8-.38 1.19-.04.12-.08.25-.13.37-.02.07-.05.13-.07.2-.09.26-.19.52-.29.77-.15.39-.31.78-.48 1.16-.17.39-.35.77-.54 1.15-.15.3-.3.6-.46.9-.37.68-.77 1.35-1.19 2-.29.44-.58.87-.89 1.29-.1.15-.21.3-.33.44-.07.11-.16.22-.25.33-1.08 1.38-2.29 2.65-3.62 3.8.99-.18 2.01-.26 3.03-.26 1.08 0 2.16.09 3.23.26.7.11 1.41.26 2.11.46.35.1.7.2 1.05.31 1.03.34 2.05.76 3.04 1.24.33.17.65.34.97.51.33.18.64.37.96.56.31.19.61.38.91.58.32.21.63.43.93.66.6.45 1.17.92 1.73 1.42.28.24.55.5.82.76.25.25.5.5.75.77.18.19.35.38.53.58.13.15.26.3.38.46.18.2.34.4.5.61.14.18.28.36.41.54.12.16.24.32.35.48.12.16.23.33.34.49s.21.32.32.49c.47.75.91 1.53 1.31 2.34.2.42.4.85.58 1.28v.01c.18.42.34.85.5 1.29.26.75.5 1.52.69 2.3.15.56.28 1.14.39 1.72.47 2.39.63 4.87.49 7.38-.02.29-.04.57-.06.86-.05.57-.11 1.15-.18 1.73-.03.24-.07.47-.1.71-.02.09-.03.17-.04.26-.04.25-.09.5-.13.74-.11.58-.22 1.15-.36 1.73-.05.22-.11.45-.16.67-.17.64-.35 1.28-.55 1.91-.08.26-.16.52-.25.78-.07.21-.14.42-.22.63-.24.67-.5 1.34-.78 2l-.05.11c-.65 1.51-1.4 3-2.26 4.46 1.26-.51 2.54-1.03 3.82-1.53l1.04-.39c.3-.12.61-.23.93-.35.62-.23 1.26-.46 1.91-.69.33-.11.66-.22.99-.33s.66-.22 1-.32c1.03-.33 2.07-.63 3.11-.89.31-.08.63-.16.95-.23l.27-.06c.31-.07.62-.14.93-.2.36-.07.72-.14 1.09-.21.68-.13 1.37-.23 2.07-.3.1-.02.21-.03.32-.04.22-.03.44-.05.67-.06.37-.04.74-.07 1.11-.09.47-.03.94-.04 1.41-.05h.28c.36 0 .71.01 1.06.03.28.01.56.02.83.05.39.03.78.07 1.18.12 1.99.25 4.09.74 6.11 1.53.4.16.8.33 1.2.51.4.19.78.38 1.17.59.21.11.42.22.62.35.2.11.41.24.6.37.16.1.32.2.47.31.28.19.55.38.81.59.31.23.61.48.9.73.22.19.43.38.63.58.31.29.61.6.88.93.14.16.28.33.42.49.13.17.26.33.39.5l.24.32c.42.59.79 1.21 1.13 1.87.3-.4.61-.8.93-1.18l.22-.24c.19-.23.4-.44.6-.67.3-.32.61-.63.92-.94s.63-.61.96-.91c.33-.32.68-.6 1.03-.87.34-.28.69-.55 1.05-.81.03-.02.06-.04.09-.06.34-.25.69-.49 1.04-.72l.09-.06c.35-.23.7-.45 1.06-.66.91-.54 1.85-1.02 2.83-1.45.4-.19.8-.36 1.22-.52.48-.2.98-.39 1.48-.55.5-.18 1.01-.34 1.52-.47.51-.15 1.03-.28 1.55-.4.52-.13 1.06-.24 1.6-.33.53-.11 1.07-.19 1.62-.25.54-.07 1.09-.13 1.65-.17.89-.07 1.79-.11 2.67-.11.45 0 .89.01 1.33.03.24.01.48.02.72.04.17 0 .34.01.51.03.29.02.57.05.86.08.12.01.25.02.38.05.29.02.59.06.88.11.54.07 1.08.16 1.62.28.58.11 1.15.24 1.71.39.09.02.17.04.26.06.3.09.61.17.91.27.07.02.14.04.2.06.31.09.61.19.92.3.06.02.13.05.2.07.31.11.63.23.94.36.71.28 1.4.59 2.07.92.3.15.6.3.9.47.04.02.09.04.13.07.29.16.58.32.86.49.26.16.52.32.77.48.35.22.69.45 1.03.7 1.1.79 2.14 1.66 3.11 2.61-.53-8.69 6.04-16.1 13.32-19.6.25-.12.5-.24.76-.35.76-.34 1.52-.63 2.27-.87 3.46-1.12 7.18-1.66 11.37-1.66.61 0 1.22.01 1.84.03.33.02.67.03 1.01.06 1.7.09 3.48.27 5.38.54 1.1.16 2.25.35 3.44.57.73.13 1.48.28 2.25.44l1.06.22c.62.14 1.22.27 1.79.4v-.03c-.11-.9-.26-1.79-.43-2.67l-.05-.27c-.5-2.55-1.18-4.99-2.01-7.95 0-.02-.01-.03-.02-.05-.16-.59-.33-1.18-.5-1.77-.14-.54-.29-1.08-.43-1.62-.27-1-.52-2-.75-3.01-.16-.73-.31-1.45-.44-2.18-.46-2.54-.84-6.29-.21-10.09.09-.57.2-1.14.35-1.7 0-.01 0-.01 0-.01.15-.57.31-1.13.51-1.69.17-.49.37-.98.59-1.45.08-.18.17-.36.26-.54.09-.17.18-.35.28-.52.1-.18.2-.35.3-.52.21-.34.43-.68.67-1.01 0 0 0 0 0-.01.09-.12.18-.24.27-.36.01-.01.02-.03.03-.04.15-.19.31-.38.47-.57.06-.08.14-.16.21-.24.06-.08.13-.15.2-.23.15-.16.3-.31.46-.47 4.79-4.66 11.99-5.27 17.79-5.27.32 0 .66 0 1 .01.35 0 .71.01 1.08.02.37 0 .77.01 1.18.03s.83.03 1.27.05c1.51.06 3.08.16 4.66.32.51.05 1.01.1 1.52.17.03 0 .06.01.09.01.46.06.92.13 1.38.21.02 0 .05 0 .07.01.47.07.95.16 1.41.26.38.08.75.16 1.12.25.05.01.11.02.16.04.13.03.27.06.4.1.35.09.69.19 1.02.3.71.21 1.39.45 2.05.74.21.08.42.17.62.27.41.19.81.4 1.2.62 1.94 1.1 3.58 2.56 4.79 4.52l.75.4.24.8c.1.36.2.72.3 1.08l.4 1.56c.42 1.63.82 3.29 1.18 4.99.23 1.07.44 2.14.65 3.21.02.11.05.22.06.34.2 1.02.38 2.04.55 3.06 0 .04.01.08.02.12.12.75.24 1.5.35 2.25.01.02.01.04.01.06.07.48.14.95.21 1.43.35 2.51.65 5.09.91 7.77l.1 1.05c.05.44.09.89.12 1.34l.17 2.21c.15 2.06.28 4.13.38 6.2.05 1.03.1 2.07.14 3.09.05 1.03.08 2.05.12 3.06.04 1.52.09 3.02.12 4.49.01.27.02.54.02.81.01.44.02.89.03 1.33 0 .16 0 .32.01.48.01.57.02 1.14.03 1.7.01.94.03 1.86.04 2.76z" fill="#fff"/><path d="m512 323.33v188.67h-512v-188.67h262.29l-3.11 2.35c-1.17.86-2.34 1.75-3.5 2.65-.58.44-1.17.9-1.75 1.36-1.17.92-2.34 1.85-3.5 2.81-5.68 4.66-11.22 9.64-16.45 14.81-.79.78-1.57 1.56-2.35 2.35-.18.19-.36.37-.54.55-.79.81-1.58 1.63-2.36 2.45-.79.83-1.58 1.67-2.36 2.52-1.48 1.6-2.95 3.23-4.39 4.87-.82.94-1.64 1.89-2.44 2.84-.81.95-1.62 1.91-2.41 2.88-2.44 2.97-4.81 6-7.1 9.07-.27.35-.53.71-.79 1.07-.43.58-.86 1.17-1.28 1.75-.23.33-.48.66-.75 1.02l-.08.1c-.11.14-.21.27-.32.41-.12.15-.24.31-.35.46-.24.32-.49.64-.73.97-1.13 1.56-2.01 2.96-2.56 4.22-.08.18-.15.36-.21.54-.79 2.13-.58 3.89.99 5.49.14.15.29.3.46.44.18.16.37.3.56.44l.21.15c.13.09.26.17.39.24.1.07.2.13.31.18.12.08.24.14.36.19.1.05.2.1.3.15.75.36 1.57.65 2.43.88.3.08.6.16.91.22.3.07.6.12.9.18.61.11 1.23.19 1.86.26.67.08 1.35.13 2.02.17.28.01.56.03.84.04.95.04 1.88.05 2.77.05.32 0 .63 0 .94-.01.36 0 .72-.01 1.07-.01.33 0 .66 0 .97-.01.73-.02 1.44-.03 2.08-.03 74.39-.35 149.83-2.32 224.22-5.85 1.04-.05 2.1-.1 3.17-.15s2.16-.11 3.25-.17 2.21-.12 3.33-.2c.04 0 .08-.01.13-.01.76-.05 1.52-.1 2.29-.16 1.46-.1 2.92-.22 4.38-.36.57-.05 1.15-.11 1.72-.17 1.17-.12 2.33-.25 3.5-.4 1.72-.21 3.43-.46 5.13-.74.59-.1 1.2-.21 1.82-.34.31-.06.61-.13.92-.2s.63-.14.94-.23c.28-.07.56-.14.83-.22.58-.17 1.16-.36 1.73-.57.23-.09.45-.18.67-.27.21-.08.41-.17.62-.27.49-.22.96-.46 1.42-.73.12-.07.25-.15.37-.23.24-.14.47-.29.69-.47.2-.13.41-.29.6-.45.25-.2.49-.41.71-.63.23-.21.44-.44.65-.69.41-.48.78-1.01 1.1-1.58.1-.18.2-.37.29-.55.01-.01.01-.02.01-.03.09-.2.18-.4.26-.59.14-.36.26-.73.36-1.1 1.19-4.52-1.1-9.35-4.26-13.51-.56-.74-1.16-1.48-1.82-2.23-.59-.69-1.23-1.38-1.92-2.08-.77-.78-1.53-1.56-2.31-2.33-5.88-5.88-11.87-11.35-17.97-16.4-.49-.41-.99-.82-1.49-1.23-.96-.78-1.92-1.55-2.88-2.31-.09-.08-.17-.15-.26-.21-.97-.76-1.93-1.51-2.9-2.25-1.01-.77-2.03-1.53-3.04-2.28-.01-.02-.02-.03-.03-.03-1.21-.88-2.42-1.76-3.63-2.62-1.25-.89-2.5-1.76-3.76-2.61l-4.98-3.38-.35-.24z" fill="#1687cb"/><path d="m0 0v154.63c.04-.01.09-.01.13-.01 1.07-.07 2.13-.12 3.19-.16.4-.01.8-.02 1.2-.03.28-.01.56-.01.84-.01.38-.01.76-.01 1.13-.01 15.94 0 30.16 3.92 41.11 11.32.43.29.85.58 1.27.88 0 .01.01.01.02.01.82.59 1.62 1.2 2.39 1.83.28.23.54.45.81.68s.53.45.79.68l.01.01c.05.05.09.09.14.12.05.05.11.1.16.15.21.19.41.38.62.57.25.24.51.48.76.72.35.34.7.69 1.04 1.04s.68.7 1.01 1.06.66.73.98 1.09c.6.69 1.18 1.39 1.74 2.1.56.72 1.1 1.45 1.62 2.19.23.32.45.65.67.98s.43.66.65.99c.21.33.41.67.62 1 .61 1.01 1.18 2.04 1.71 3.08.18.35.35.7.52 1.05s.33.7.49 1.05c.18.4.36.81.53 1.22.68 1.63 1.27 3.28 1.77 4.95.13.45.25.9.37 1.34.27 1.01.5 2.02.69 3.04.09.46.17.92.24 1.39.03.17.06.35.08.53.06.38.11.77.15 1.16.01.05.01.09.02.14.03.24.05.49.08.73l.09 1.14c.09 1.35.11 2.7.07 4.04-.01.23-.02.46-.03.69-.01.28-.03.55-.05.82-.05.79-.13 1.58-.24 2.37l-.07.53-.62 4.56 3.31-2.75c.32-.27.65-.53.97-.79.59-.48 1.18-.96 1.79-1.41.04-.04.09-.07.13-.1.63-.47 1.27-.93 1.91-1.36.32-.22.64-.43.96-.64.41-.25.81-.51 1.21-.75.41-.24.82-.48 1.22-.71 2.01-1.12 4.04-2.07 6.08-2.82.29-.1.58-.21.87-.31.26-.09.52-.18.78-.26.08-.02.16-.05.24-.07.25-.08.49-.15.73-.22.58-.16 1.16-.31 1.74-.45.27-.06.53-.12.8-.17.29-.06.57-.12.86-.17.41-.07.81-.14 1.22-.19.14-.03.27-.04.41-.06.34-.05.69-.08 1.03-.12.6-.05 1.19-.09 1.78-.11h.07c.16-.01.31-.02.46-.01.16-.01.31-.01.47-.01.99 0 1.99.06 2.97.16 6.2.65 12.07 3.53 16.61 7.81.25.24.5.48.74.73.13.12.24.24.35.36.25.26.5.52.73.79 2.65 2.96 4.69 6.44 5.87 10.23.31.99.55 1.99.75 3.01.15.83.26 1.67.34 2.51.03.34.05.67.07 1 0 .08.01.17.01.25.11 2.58-.12 5.19-.67 7.74-.08.34-.16.69-.24 1.03-.01.03-.02.07-.03.1-.08.33-.17.65-.27.98-.12.4-.25.8-.38 1.19-.04.12-.08.25-.13.37-.02.07-.05.13-.07.2-.09.26-.19.52-.29.77-.15.39-.31.78-.48 1.16-.17.39-.35.77-.54 1.15-.15.3-.3.6-.46.9-.37.68-.77 1.35-1.19 2-.28.44-.57.87-.89 1.29-.1.15-.21.3-.33.44-.07.11-.16.22-.25.33-.09.12-.18.24-.27.35l-2.38 2.94 3.76.31c.51.04 1.02.11 1.53.2.7.11 1.41.26 2.11.46.35.09.7.19 1.05.31 1.04.33 2.06.74 3.04 1.24.33.15.65.32.97.51.33.17.65.35.96.56.31.18.62.37.91.58.32.21.63.43.93.66.6.44 1.17.91 1.73 1.42.28.24.55.5.82.76.25.25.5.5.75.77.18.19.35.38.53.58.13.15.26.3.38.46.18.2.34.4.5.61.14.18.28.36.41.54.12.16.24.32.35.48.12.16.23.33.34.49s.21.32.32.49c.47.75.91 1.53 1.31 2.34.2.42.4.85.58 1.28v.01c.18.42.34.85.5 1.29.26.75.5 1.52.69 2.3.15.56.28 1.14.39 1.72.46 2.38.62 4.86.49 7.38-.02.29-.04.57-.06.86-.05.57-.11 1.15-.18 1.73-.03.24-.07.47-.1.71-.02.09-.03.17-.04.26-.04.25-.09.5-.13.74-.11.58-.22 1.15-.36 1.73-.05.22-.11.45-.16.67-.17.64-.35 1.28-.55 1.91-.08.26-.16.52-.25.78-.07.21-.14.42-.22.63-.24.67-.5 1.34-.78 2l-.05.11-1.78 4.19 3.34-1.26 1.04-.39c.3-.12.61-.23.93-.35.62-.23 1.26-.46 1.91-.69.33-.11.66-.22.99-.33s.66-.22 1-.32c1.01-.32 2.05-.62 3.11-.89.31-.08.63-.16.95-.23l.27-.06c.31-.07.62-.14.93-.2.36-.07.72-.14 1.09-.21.68-.13 1.37-.23 2.07-.3.1-.02.21-.03.32-.04.22-.03.44-.05.67-.06.37-.04.74-.07 1.11-.09.47-.03.94-.05 1.41-.05h.28c.36 0 .71.01 1.06.03.28.01.56.02.83.05.4.03.79.06 1.18.12 2.16.24 4.22.76 6.11 1.53.41.15.81.32 1.2.51.4.18.79.38 1.17.59.21.11.42.22.62.35.2.11.41.24.6.37.16.1.32.2.47.31.28.19.55.38.81.59.31.23.61.48.9.73.22.19.43.38.63.58.31.29.61.6.88.93.14.16.28.33.42.49.13.17.26.33.39.5l.24.32 1.21 1.61.85-.92.22-.24c.19-.23.4-.44.6-.67.3-.32.61-.63.92-.94s.63-.61.96-.91c.34-.3.68-.59 1.03-.87.34-.28.69-.55 1.05-.81.03-.02.06-.04.09-.06.34-.25.69-.49 1.04-.72l.09-.06c.35-.23.7-.45 1.06-.66.91-.54 1.85-1.02 2.83-1.45.4-.19.8-.36 1.22-.52.48-.2.98-.39 1.48-.55.5-.18 1.01-.34 1.52-.47.51-.16 1.02-.29 1.55-.4.52-.13 1.06-.24 1.6-.33.53-.11 1.07-.19 1.62-.25.55-.08 1.1-.14 1.66-.18.88-.07 1.78-.1 2.66-.1.45 0 .89.01 1.33.03.24.01.48.02.72.04.17 0 .34.01.51.03.29.02.57.05.86.08.12.01.25.02.38.05.29.02.59.06.88.11.54.07 1.08.16 1.62.28.58.11 1.15.24 1.71.39.09.02.17.04.26.06.3.09.61.17.91.27.07.02.14.04.2.06.31.09.61.19.92.3.06.02.13.05.2.07.31.11.63.23.94.36.71.28 1.4.59 2.07.92.3.15.6.3.9.47.04.02.09.04.13.07.29.16.58.32.86.49.26.16.52.32.77.48.35.22.69.45 1.03.7.05.03.11.07.16.11l2.61 1.89.53-3.18c1.25-7.39 7.09-12.96 13.13-15.81.25-.13.51-.25.76-.35.76-.34 1.52-.63 2.27-.87 3.46-1.12 7.18-1.66 11.37-1.66.61 0 1.22.01 1.84.03.33.02.67.03 1.01.06 1.7.09 3.48.27 5.38.54 1.1.16 2.25.35 3.44.57.73.13 1.48.28 2.25.44l1.06.22 1.79.37.11.02-.54-2.69-.05-.27c-.5-2.55-1.18-4.99-2.01-7.95 0-.02-.01-.03-.02-.05-.16-.59-.33-1.18-.5-1.77-.14-.54-.29-1.08-.43-1.62-.27-1-.52-2-.75-3.01-.16-.73-.31-1.45-.44-2.18-.46-2.54-.84-6.29-.21-10.09.09-.57.21-1.14.35-1.7 0-.01 0-.01 0-.01.14-.57.31-1.14.51-1.69.17-.49.37-.98.59-1.45.08-.18.17-.36.26-.54.09-.17.18-.35.28-.52.1-.18.2-.35.3-.52.21-.34.43-.68.67-1.01 0 0 0 0 0-.01.09-.12.18-.24.27-.36.01-.01.02-.03.03-.04.15-.19.31-.38.47-.57.06-.08.14-.16.21-.24s.14-.16.21-.23c.15-.16.3-.31.45-.47 4.79-4.66 11.99-5.27 17.79-5.27.32 0 .66 0 1 .01.35 0 .71.01 1.08.02.37 0 .77.01 1.18.03.4.01.82.03 1.27.05 1.51.06 3.08.16 4.66.32.51.05 1.01.1 1.52.17.03 0 .06.01.09.01.46.06.92.13 1.38.21.02 0 .05 0 .07.01.47.07.95.16 1.41.26.38.08.75.16 1.12.25.05.01.11.02.16.04.13.03.27.06.4.1.34.09.69.19 1.02.3.71.21 1.39.45 2.05.74.21.08.42.17.62.27.41.18.81.39 1.2.62.1.04.2.1.3.16l4.64 2.76h.01l.18.11-1.3-3.54c-.2-.58-.41-1.16-.63-1.74-.3-.82-.61-1.63-.92-2.44 0 0-.01-.01-.01-.02-.29-.75-.59-1.49-.9-2.23-.08-.21-.17-.42-.26-.63-.21-.49-.42-.98-.63-1.48l-.21-.48c-.57-1.29-1.15-2.57-1.75-3.83-.09-.21-.19-.42-.29-.63l-.01-.02c-2.22-4.67-4.85-9.58-8.04-15.02l-.26-.43c-.67-1.14-1.35-2.27-2.02-3.37h-.01l-.46-.76c-.71-1.17-1.43-2.32-2.13-3.44l-.14-.22c-.25-.4-.5-.8-.75-1.19s-.49-.77-.73-1.15-.47-.75-.71-1.11c-.23-.36-.46-.72-.69-1.07-.22-.35-.45-.7-.68-1.04-.22-.34-.44-.68-.66-1.01-.43-.67-.86-1.32-1.3-1.96-.97-1.43-1.96-2.87-2.97-4.29l-.5-.7c-.84-1.16-1.69-2.31-2.56-3.45-.05-.07-.11-.15-.17-.23-.61-.79-1.21-1.55-1.81-2.31-.45-.57-.9-1.12-1.37-1.67-.45-.55-.91-1.1-1.37-1.64l-.23-.26c-.78-.91-1.58-1.81-2.4-2.69l-.76-.81c-.45-.48-.9-.95-1.36-1.42-.21-.22-.43-.44-.65-.65-.78-.8-1.59-1.57-2.4-2.33-.39-.37-.79-.72-1.18-1.08-.12-.12-.23-.22-.35-.32-.06-.05-.11-.11-.17-.16l-.5-.44-1.24-1.1v.01c-.04.07-.09.13-.13.19l-1.14 1.75c-1.93 2.98-4.05 5.84-6.25 8.6-.3.39-.62.78-.94 1.17-.51.62-1.02 1.23-1.53 1.84-.52.61-1.03 1.21-1.55 1.81-.51.6-1.03 1.19-1.55 1.77-.41.46-.83.92-1.24 1.38-2.02 2.24-4.07 4.41-6.09 6.54-.84.88-1.68 1.76-2.53 2.63-.7.74-1.41 1.47-2.12 2.21-1.29 1.34-2.58 2.67-3.88 3.99-1.63 1.66-3.33 3.37-5.11 5.14-.91.92-1.82 1.82-2.73 2.71l-1.26 1.25c-.4.4-.81.81-1.22 1.2l-.39.39c-2 1.95-4 3.89-6 5.81-.25.24-.49.47-.73.69-.16.15-.32.3-.49.45-.39.35-.76.68-1.14.98-.16.15-.34.28-.51.4-.2.16-.39.3-.59.44-.15.1-.29.2-.44.3-.3.19-.6.37-.91.53-.46.24-.94.45-1.45.62-.31.11-.63.19-.96.26-.1.02-.2.04-.31.04-.16.03-.33.06-.5.07-.25.03-.5.04-.75.04h-.04c-1.59 0-3.3-.45-5.09-1.35-.54-.27-1.09-.58-1.64-.93-.28-.18-.56-.36-.84-.56-.14-.1-.28-.2-.42-.3s-.28-.21-.42-.32c-.19-.14-.38-.28-.57-.43s-.38-.29-.56-.45c-.28-.21-.55-.44-.82-.66-.11-.09-.22-.18-.33-.27-.18-.14-.35-.29-.53-.43-.05-.03-.1-.08-.15-.12h-.01l-3.1 2.32c.16.37.31.75.46 1.12.09.21.17.42.26.63.63 1.56 1.22 3.13 1.78 4.71.32.86.61 1.73.9 2.6s.57 1.74.83 2.62c.28.88.54 1.76.79 2.65.02.08.04.16.07.24.04.18.09.38.14.57.04.18.08.35.11.53.01.01.01.03.01.04.09.54.11 1.11-.01 1.67v.01c-.01.04-.02.08-.03.12-.03.11-.06.22-.1.33-.12.33-.28.64-.47.93-.07.1-.14.2-.21.3-.37.5-.79.94-1.15 1.31l-7.08 7.4h-.01l-5.3 5.54-4.65 4.87-.22.25-.14.36c-.03.02-.07.04-.1.05l-.33.16-7.3 7.63c-.19.2-.38.39-.56.54-.38.31-.82.55-1.32.59h-.12c-.53 0-.99-.26-1.39-.66-.01-.01-.02-.03-.04-.04-.15-.16-.3-.33-.43-.52-.02-.02-.03-.04-.03-.05-.16-.24-.3-.49-.43-.74-.1-.19-.2-.4-.29-.62-.84-2-1.67-4.03-2.46-6.07-.46-1.19-.92-2.39-1.36-3.59-.44-1.21-.86-2.42-1.26-3.64.01-.01 0-.01 0-.02-.26-.78-.5-1.57-.74-2.36-.36-1.19-.69-2.38-.99-3.58-.21-.8-.39-1.6-.57-2.4-.08-.41-.17-.81-.25-1.21-.21-1.08-.4-2.16-.56-3.24-.51-3.57-.71-7.18-.46-10.82.43-6.39 2.29-13.22 5.67-20.87.21-.47.42-.94.64-1.4.21-.47.43-.94.66-1.41.51-1.07 1.04-2.14 1.6-3.22.3-.58.61-1.16.93-1.74.4-.76.82-1.51 1.26-2.27.37-.65.75-1.31 1.14-1.96.01-.03.03-.06.06-.09.38-.65.78-1.31 1.19-1.96 1.46-2.35 3.02-4.69 4.69-7.01.33-.46.66-.93 1-1.39l.88-1.21.27-.36c.34-.45.68-.9 1.04-1.35.22-.29.45-.59.69-.89l.01-.02c1.63-2.08 3.37-4.18 5.17-6.27l.98-1.13-1.76-1.08-3.93-2.41-5.89-3.62c-.27-.16-.55-.33-.85-.53-.69-.45-1.28-.91-1.74-1.44-.08-.09-.16-.18-.22-.28-.16-.19-.29-.4-.4-.62-.13-.25-.23-.51-.31-.78-.06-.2-.1-.4-.14-.6-.04-.23-.07-.46-.09-.69v-.04c-.05-.74 0-1.48.04-2.14l1.11-18.25.15-2.41.02-.35-3.7 3.55c-.02.03-.05.05-.07.07-.4.39-.79.78-1.18 1.18-.06.06-.12.12-.18.19-.31.32-.62.65-.92.98-.4.43-.78.86-1.16 1.31-.23.28-.47.56-.7.85-.07.07-.13.15-.19.23-.41.5-.8 1.01-1.18 1.52-.99 1.33-1.91 2.7-2.76 4.12-.28.46-.55.93-.81 1.4-.23.41-.41.71-.58.93-.36.48-.79.86-1.37.94-.07.01-.14.01-.21.01-.3 0-.61-.09-.9-.21l-.01-.01c-.09-.04-.19-.08-.28-.13-.05-.02-.1-.04-.14-.07l-.04-.02c-.06-.03-.11-.06-.17-.09l-5.12-2.78-4.9-2.66-23.2-12.6c.19-.24.38-.48.57-.72.54-.67 1.09-1.35 1.69-2.04.25-.29.5-.59.76-.89s.53-.6.8-.91c.8-.91 1.66-1.83 2.55-2.76.3-.31.6-.63.91-.94 1.55-1.55 3.21-3.12 5-4.66.71-.62 1.45-1.23 2.2-1.82.38-.3.76-.6 1.15-.9.38-.31.77-.6 1.17-.88.4-.29.8-.58 1.2-.87s.81-.58 1.23-.85l1.26-.84c.42-.27.85-.54 1.29-.81s.9-.54 1.35-.81c.87-.52 1.77-1.01 2.68-1.48.46-.25.93-.49 1.4-.71.47-.24.95-.47 1.43-.68.48-.23.96-.44 1.45-.65s.99-.42 1.49-.61c.5-.2 1-.4 1.51-.58.51-.2 1.02-.38 1.54-.54.78-.26 1.56-.51 2.36-.74.8-.24 1.61-.45 2.43-.65.32-.08.64-.15.96-.22.33-.07.67-.14 1-.21.01 0 .02 0 .03-.01.65-.13 1.32-.25 2-.37.01 0 .03 0 .04-.01.67-.11 1.36-.22 2.06-.31.02 0 .03 0 .04-.01.43-.06.87-.11 1.31-.16.89-.1 1.79-.19 2.71-.26.46-.04.93-.07 1.4-.1 1.99-.13 4.07-.19 6.26-.19 1.16 0 2.35.02 3.57.05 1.47.04 2.94.1 4.41.19.5.03 1 .06 1.5.1.58.03 1.15.08 1.73.12.58.05 1.15.1 1.73.16 1.03.09 2.06.2 3.08.32.42.04.85.09 1.27.15.46.05.92.11 1.37.18.62.08 1.23.16 1.84.26 1.89.28 3.77.59 5.63.95 1.98.38 3.94.79 5.87 1.25.74.18 1.49.36 2.23.55.75.2 1.51.4 2.26.6 1.88.51 3.73 1.06 5.57 1.66.92.29 1.83.6 2.74.91 1.02.35 2.02.72 3.03 1.1h.01c1 .38 2 .77 2.99 1.17.66.27 1.32.54 1.97.82 1.74.74 3.45 1.52 5.14 2.34.68.33 1.35.66 2.02 1 .66.34 1.32.68 1.98 1.03s1.31.71 1.96 1.07 1.29.73 1.93 1.1c.01 0 .02 0 .02.01.63.37 1.26.74 1.88 1.12.7.42 1.4.86 2.09 1.32.54.34 1.08.7 1.61 1.05.61.41 1.21.82 1.81 1.24.2.13.4.27.59.41l2.83 1.98-.27-4.16c-.1-1.45-.11-2.89-.06-4.31.05-1.58.18-3.13.35-4.6.11-.92.23-1.82.37-2.71.14-.93.29-1.84.45-2.72.14-.79.29-1.58.45-2.36.28-1.44.59-2.86.92-4.28.03-.11.06-.22.08-.33.18-.78.36-1.55.57-2.31.2-.77.4-1.53.61-2.29.16-.57.32-1.14.48-1.71.17-.56.34-1.13.51-1.69.16-.57.34-1.13.53-1.69.17-.56.35-1.12.55-1.67.14-.46.3-.92.46-1.37h.01c.31-.9.63-1.78.96-2.66.44-1.16.89-2.3 1.36-3.43.32-.78.65-1.56.99-2.33.42-.94.85-1.88 1.29-2.81.16-.35.33-.71.51-1.06.44-.91.89-1.81 1.35-2.7.35-.67.7-1.33 1.07-1.98.08-.16.17-.32.26-.48.42-.76.85-1.51 1.29-2.25.15-.27.3-.54.47-.8.42-.7.85-1.4 1.28-2.08.02-.04.04-.08.07-.11.55-.85 1.1-1.69 1.66-2.52.58-.85 1.16-1.68 1.76-2.5.66-.91 1.33-1.8 2.02-2.68 1.03-1.31 2.1-2.6 3.19-3.85.36-.42.73-.83 1.1-1.24s.75-.82 1.13-1.22c.96-1.02 1.93-2 2.92-2.96 1.13-1.11 2.29-2.18 3.48-3.2 1.42-1.25 2.88-2.45 4.37-3.58.9-.69 1.8-1.36 2.72-2.01l.02-.01 1.15-.78c.37-.25.74-.5 1.11-.74.37-.25.74-.49 1.11-.72 1.48-.96 2.99-1.85 4.52-2.68.38-.21.76-.41 1.14-.61.38-.21.76-.41 1.14-.59.01-.01.02-.02.03-.02.38-.2.75-.38 1.13-.56 1.28-.63 2.56-1.21 3.85-1.75.48-.2.96-.4 1.44-.59.47-.18.94-.36 1.4-.54.5-.19 1-.37 1.5-.54 7.62-2.65 15.52-3.99 23.49-3.99 1.78 0 3.55.07 5.3.21.59.05 1.17.1 1.75.16.44.05.87.09 1.31.15 2.18.26 4.33.64 6.44 1.12.85.19 1.69.4 2.52.62.56.15 1.11.31 1.66.47.69.2 1.38.42 2.05.65.8.26 1.58.54 2.36.85 1.2.45 2.38.94 3.54 1.47.33.15.65.3.96.45.62.3 1.21.61 1.79.91.36.19.72.39 1.07.6.2.11.39.22.58.34.53.31 1.03.63 1.51.96.49.33.95.66 1.39 1 0 0 .01 0 .02.01.21.17.42.34.63.51.53.43 1.03.88 1.49 1.33.11.11.22.22.33.33l.48.5c.35.38.68.76.99 1.16l-1.65 1.31c-3.54 2.81-7.06 5.75-10.53 8.8-1.73 1.52-3.46 3.07-5.17 4.65-.85.79-1.7 1.58-2.55 2.38-1.5 1.39-2.98 2.82-4.44 4.26l-.13.13c-.97.96-1.94 1.92-2.89 2.9-.64.65-1.28 1.29-1.91 1.95-.63.65-1.26 1.31-1.89 1.97s-1.25 1.32-1.87 1.98c-1.11 1.18-2.2 2.36-3.28 3.55-.27.31-.57.64-.91.97-.11.11-.22.21-.34.32-.11.1-.23.2-.36.3-.12.1-.25.2-.38.27-.14.1-.27.18-.41.24-.14.07-.28.14-.43.19-.47.18-1 .27-1.56.27-.27 0-.54-.02-.82-.06-.14-.01-.28-.04-.42-.06-.56-.11-1.13-.26-1.66-.41-.14-.04-.27-.08-.41-.12l-.66-.2c-.26-.07-.52-.14-.78-.2-1.82-.44-3.71-.67-5.62-.67-.64 0-1.28.03-1.92.09-.3.02-.61.05-.91.09-.31.04-.61.08-.91.13l-.76.12c-.01 0-.03.01-.04.01l-2.05.33 1.1 1.91c.04.07.08.14.12.22l6.39 11.14s0 .01.01.01c.26.45.61 1.05.8 1.7.04.1.07.21.08.32.03.1.05.2.06.3.02.11.03.23.03.35 0 .1 0 .21-.02.31-.01.07-.02.13-.03.2-.17.76-.62 1.36-1.27 2.09-.2.22-.4.44-.6.66-.34.38-.69.75-1.03 1.11-.36.38-.71.75-1.06 1.1-.18.18-.35.36-.52.53-.34.34-.67.68-.99.99l-.13.13c-.62.61-1.26 1.22-1.9 1.8-.01.02-.03.04-.04.04-.11.11-.22.22-.34.32l-.73.67c-.51.45-1 .88-1.5 1.31-.05.04-.1.09-.15.13l-.76.66c-.26.22-.52.44-.78.66-.02.01-.03.02-.04.03l-3.38 2.89-.15.13.09-.01 6.58-.86c.43-.06.86-.11 1.29-.15.59-.07 1.17-.13 1.75-.18.56-.07 1.12-.12 1.68-.15l1.18-.1.17-.01c.07 0 .15-.01.22-.01.01 0 .03-.01.04-.01.42-.02.84-.05 1.26-.07l1.34-.05c1.06-.04 2.12-.06 3.18-.06h.08c.6 0 1.2.01 1.8.02.72.01 1.44.04 2.15.07.51.02 1.01.05 1.51.08.33.02.66.04.99.07.66.04 1.33.1 1.99.16.67.07 1.34.14 2.01.22 1.52.18 3.03.41 4.52.67.61.1 1.22.21 1.82.34.6.12 1.2.24 1.8.38.9.2 1.78.41 2.67.64.89.22 1.77.46 2.64.73.43.13.87.26 1.3.4.44.14.87.28 1.3.42 1.17.38 2.33.8 3.47 1.25.84.33 1.67.67 2.49 1.02 2.26.98 4.44 2.06 6.55 3.27.52.29 1.04.59 1.54.89.67.39 1.33.8 1.98 1.22.37.23.73.47 1.09.71 1.28.86 2.55 1.77 3.82 2.75.84.65 1.69 1.33 2.53 2.04.42.35.84.71 1.26 1.08.84.74 1.69 1.51 2.53 2.29.42.4.84.8 1.26 1.22.42.41.84.82 1.26 1.25.85.86 1.69 1.74 2.54 2.65.84.91 1.69 1.86 2.54 2.83.85.98 1.7 1.98 2.56 3.02 3.75 4.55 6.67 8.87 8.76 12.99.45.88.86 1.76 1.23 2.63.87 2.03 1.54 4.01 2 5.94.2.83.36 1.65.48 2.46.26 1.72.36 3.41.29 5.07-.02.32-.04.63-.06.94l-.02.24c-.05.55-.11 1.1-.2 1.64l-18.56-.42c-1.39-.03-2.79-.06-4.19-.1-2.24-.05-4.49-.11-6.75-.17-1.23-.04-2.45-.07-3.68-.11l-1.89-.06c-.16 0-.33-.01-.49-.02h-.01l-1.67-.06c-1.15-.04-2.25-.08-3.31-.12-.69-.03-1.37-.06-2.06-.09-.68-.03-1.33-.06-1.98-.09-.63-.03-1.24-.06-1.85-.09-.57-.03-1.13-.06-1.7-.09-1.45-.08-2.89-.17-4.34-.26-.99-.06-1.99-.13-2.98-.2-1.02-.08-2.07-.16-3.16-.25-.32-.03-.63-.05-.95-.08l-2.38-.2h-.03l-1.65-.15c-.05 0-.09-.01-.14-.01-.91-.09-1.83-.18-2.74-.27-1.66-.16-3.32-.34-4.98-.53-.45-.05-.89-.1-1.34-.15-.77-.08-1.55-.18-2.32-.28-2.88-.34-5.76-.72-8.64-1.14-.96-.14-1.92-.28-2.88-.42-1.92-.29-3.83-.59-5.75-.91-1.91-.31-3.82-.64-5.73-.99-1.66-.3-3.32-.6-4.98-.92-.63-.12-1.25-.24-1.88-.37-1.25-.24-2.5-.5-3.74-.76-.27-.05-.53-.1-.8-.16l-1.94-.41c-.23-.05-.46-.1-.68-.15-.28-.05-.55-.11-.83-.18-.75-.16-1.51-.32-2.26-.49-.37-.08-.74-.16-1.11-.25-1.07-.25-2.13-.49-3.2-.74-.08-.01-.16-.03-.24-.06l-1.65 3.55c.88.66 1.76 1.33 2.63 2l.1.09c.14.1.28.21.42.32h.01l1.24 1c1 .79 1.98 1.6 2.96 2.43.49.41.98.83 1.46 1.25.97.82 1.94 1.66 2.89 2.54.95.84 1.9 1.71 2.83 2.61.47.43.93.87 1.39 1.33l1.35 1.31c.01 0 .01 0 .02.01.09.09.18.17.27.26l1.25 1.27c.47.46.92.92 1.35 1.39.46.46.91.93 1.34 1.4.44.48.88.95 1.32 1.43.45.48.89.96 1.31 1.44 1.76 1.94 3.45 3.92 5.08 5.94l.94 1.15c.02.02.04.04.05.06l.17.21c1.09 1.39 2.17 2.78 3.2 4.19.58.77 1.15 1.54 1.7 2.32.57.78 1.12 1.56 1.66 2.35.54.78 1.08 1.58 1.61 2.38.54.79 1.06 1.59 1.57 2.4.53.8 1.04 1.61 1.53 2.43 1 1.63 1.97 3.27 2.91 4.92.27.44.51.87.76 1.32v.01c.25.46.51.92.75 1.38l.58 1.08c.38.7.74 1.41 1.1 2.12 1.45 2.83 2.82 5.71 4.1 8.62l.77 1.72.18.4.69-1.16.9-1.5.03-.04.04-.07.02-.04.04-.07.02-.04.23-.39c.43-.73.93-1.51 1.5-2.32.19-.26.38-.53.59-.8.15-.2.3-.41.47-.61.15-.19.31-.39.47-.58.15-.18.3-.36.46-.55.16-.18.32-.36.48-.54s.33-.36.5-.54c.17-.17.35-.35.53-.53.15-.15.3-.3.45-.44.02-.02.04-.04.06-.06.15-.15.31-.3.47-.44.21-.19.43-.38.66-.57.24-.21.5-.41.75-.61.02-.01.03-.03.05-.04.03-.03.06-.05.1-.07.23-.18.45-.35.69-.52.13-.09.26-.19.41-.28.19-.14.39-.27.6-.4.65-.42 1.33-.81 2.05-1.17.05-.03.11-.05.16-.08.29-.15.59-.28.89-.41.01 0 .01-.01.02-.01.34-.14.67-.28 1.02-.41.04-.01.08-.03.12-.04.34-.12.68-.24 1.03-.34.37-.12.74-.22 1.12-.31.01-.01.02-.01.03-.01 1.5-.37 3.04-.55 4.55-.55 1.19 0 2.36.11 3.48.35 1.49.28 2.89.77 4.19 1.44.32.17.64.35.95.54 0 0 .01 0 .01.01.38.22.74.47 1.09.74.14.1.28.21.42.32.2.16.39.32.58.49.17.15.34.3.5.47.15.14.29.28.42.43.3.31.59.63.85.96 2.34 2.8 3.65 6.3 4.22 9.83.01.01.01.02.01.03.09.51.15 1.01.21 1.52.05.44.09.87.11 1.3.02.14.02.27.02.4.02.3.03.6.04.9.01.22.02.43.01.64 0 .44-.01.88-.04 1.31.01.07 0 .13-.01.2-.02.46-.05.92-.1 1.36-.03.32-.07.63-.11.94-.07.48-.14.96-.23 1.43 0 .02-.01.04-.01.06-.01.04-.01.08-.02.12-.01.05-.02.1-.03.15-.04.21-.08.43-.12.64-.07.3-.13.6-.2.9-.15.69-.32 1.38-.51 2.07-.11.39-.22.78-.34 1.17-.11.36-.21.72-.33 1.07-.17.57-.36 1.14-.57 1.71-.16.49-.33.97-.51 1.45-.08.23-.17.46-.25.68-.15.41-.31.82-.47 1.23-.27.7-.54 1.4-.82 2.09-.29.73-.58 1.46-.88 2.18l-.07.17-.62 1.58-1.41 3.61-.02.05-.24.63h.01l3.54-1.41.16-.06.56-.23c.24-.1.49-.19.74-.29.25-.09.5-.18.75-.27.27-.1.54-.19.81-.28.23-.07.47-.15.7-.22 1.01-.31 2.03-.58 3.06-.8.22-.05.44-.1.66-.14.18-.04.37-.08.56-.11.03-.01.07-.01.1-.02h.01l.15-.03c.05-.01.09-.01.14-.02.11-.02.21-.04.32-.06l.78-.12c.13-.02.26-.03.39-.05.52-.07 1.05-.13 1.57-.18.26-.02.53-.04.79-.06s.53-.04.79-.05c.3-.01.6-.03.89-.04.3-.01.59-.01.88-.01h.01.02.11c.39 0 .76.01 1.14.03.21 0 .42.01.63.03.32.02.63.04.93.07.16.01.32.03.48.05.23.02.46.05.69.08.51.07 1.02.15 1.52.25.26.05.52.1.77.16.31.07.62.15.92.23.24.06.48.13.72.2.17.06.34.11.5.17.29.09.57.2.85.3.25.09.5.19.74.3l.15.06c.25.11.49.23.73.34.27.13.52.26.78.4.32.18.64.36.95.56.22.14.43.28.65.43.43.3.85.61 1.25.96.97.79 1.83 1.69 2.55 2.66l2.29 3.06 1.19-3.57.02-.06c.01-.02.01-.03.02-.05.08-.26.17-.52.27-.77.09-.24.18-.48.28-.72.17-.43.35-.86.55-1.28.1-.24.21-.48.33-.72.22-.49.46-.97.71-1.44.24-.49.5-.98.75-1.45.65-1.23 1.31-2.44 2.03-3.58.16-.26.33-.52.51-.78.15-.24.31-.47.49-.7.01-.02.02-.04.03-.05.24-.33.48-.65.74-.95.27-.33.55-.64.84-.93.14-.15.29-.3.44-.44.3-.28.61-.55.94-.81.16-.12.32-.25.49-.36.19-.13.38-.26.57-.37.14-.1.28-.18.42-.26.04-.03.09-.06.13-.07.17-.1.34-.19.52-.27.16-.09.32-.17.49-.24.76-.37 1.56-.65 2.42-.86.21-.06.42-.11.64-.16s.44-.1.66-.13c.17-.04.35-.07.54-.09.03 0 .06-.01.09-.01.22-.04.44-.07.66-.09.25-.03.5-.05.76-.07.44-.04.88-.05 1.33-.05.99 0 2.02.07 3.06.21.27.04.55.08.82.13.27.04.54.09.82.15.26.05.53.11.81.18.17.03.34.08.52.12.02.01.05.01.07.02.11.02.23.06.35.09.11.03.22.06.34.09.37.1.75.21 1.13.33.04.01.08.02.12.04.42.13.85.27 1.3.43.29.1.59.21.9.32.5.18 1 .37 1.49.57l.2.08.17.06 3.01 1.15-1.29-3.56-.21-.56c-.26-.73-.49-1.46-.69-2.21-.08-.32-.16-.63-.23-.96-.02-.07-.03-.14-.05-.22-.07-.33-.14-.67-.19-1.01-.07-.38-.13-.76-.17-1.13-.07-.57-.13-1.14-.17-1.71-.11-1.86-.04-3.73.23-5.57.06-.43.14-.87.22-1.3.08-.39.17-.78.27-1.17.08-.34.17-.67.27-1 .01-.05.03-.1.05-.16.05-.18.11-.37.17-.55.05-.17.11-.33.17-.5.01-.03.02-.05.03-.08.01-.04.03-.08.04-.12.11-.31.23-.61.35-.91.01-.03.02-.05.03-.08.14-.36.3-.72.47-1.07 0 0 0 0 0-.01.1-.22.21-.44.32-.66.12-.24.25-.48.39-.72.25-.48.53-.94.83-1.4.29-.46.59-.9.93-1.34.15-.22.31-.43.49-.64.33-.43.68-.85 1.05-1.25.17-.2.35-.4.55-.59.36-.39.75-.77 1.15-1.14.21-.19.41-.37.62-.54.61-.54 1.25-1.04 1.91-1.52 1.77-1.26 3.7-2.31 5.72-3.1.5-.21 1.01-.39 1.52-.55h.01c.26-.08.52-.16.78-.23.26-.08.52-.15.78-.21.26-.07.53-.13.79-.19s.53-.12.8-.16c.31-.06.62-.11.93-.15.22-.04.45-.07.68-.08.27-.04.54-.07.81-.09.68-.05 1.37-.08 2.06-.08.66 0 1.33.02 2 .08.33.02.67.05 1.01.09 1.01.1 2.04.26 3.09.48.35.06.7.14 1.06.23.35.08.71.17 1.07.27.72.19 1.44.4 2.18.65.36.11.74.24 1.11.38.24.08.48.17.73.27.28.09.56.2.84.32.32.12.63.25.95.38l.91.38 2.13.88-.26-3.02-.02-.26c-.02-.28-.04-.57-.05-.85-.46-8.27 2.62-16.64 8.34-22.53.34-.35.7-.7 1.06-1.02.36-.34.74-.67 1.12-.97.38-.33.76-.63 1.16-.92.4-.3.8-.59 1.22-.86 4.35-2.96 9.51-4.77 14.81-5.14v-178.92zm78.01 35.23c20.43 0 37.05 16.62 37.05 37.04 0 20.43-16.62 37.05-37.05 37.05-20.42 0-37.04-16.62-37.04-37.05 0-20.42 16.62-37.04 37.04-37.04z" fill="#83e1f0"/><path d="m218.269 394.465c-4.763 0-10.642-.358-13.86-3.155-4.166-3.611-.365-8.53 2.409-12.122l.388-.51c.271-.354.529-.69.756-1.014 7.796-10.794 16.545-20.999 26.023-30.357 5.227-5.165 10.761-10.146 16.448-14.804 18.622-15.275 37.594-25.909 56.388-31.606 12.259-3.713 25.347-5.596 38.899-5.596 18.59 0 37.297 3.475 55.602 10.327 27.969 10.478 54.588 28.51 79.118 53.595 7.515 7.685 10.031 14.821 7.087 20.093-2.575 4.599-8.343 6.086-13.08 6.868-9.152 1.531-18.577 1.974-26.893 2.365-74.392 3.533-149.832 5.502-224.224 5.852-.644 0-1.346.01-2.076.03-.934.016-1.938.034-2.985.034z" fill="#f7b36f"/><path d="m409.66 162.67c-.12-.81-.28-1.63-.48-2.46-.46-1.93-1.13-3.91-2-5.94-.37-.87-.78-1.75-1.23-2.63-2.09-4.12-5.01-8.44-8.76-12.99-.86-1.04-1.71-2.04-2.56-3.02-.85-.97-1.7-1.92-2.54-2.83-.85-.91-1.69-1.79-2.54-2.65-.42-.43-.84-.84-1.26-1.25s-.84-.81-1.26-1.22c-.84-.78-1.69-1.55-2.53-2.29-.42-.37-.84-.73-1.26-1.08-.84-.71-1.69-1.39-2.53-2.04-1.27-.98-2.54-1.89-3.82-2.75-.36-.24-.72-.48-1.09-.71-.64-.41-1.3-.82-1.98-1.22-.5-.3-1.02-.6-1.54-.89-1.56-.87-3.2-1.7-4.89-2.49l-1.66-.78-2.55-1.19.06.17v.01l-.91-.34c-.85-.32-1.7-.62-2.56-.92-.43-.14-.86-.28-1.3-.42-.43-.14-.87-.27-1.3-.4-.88-.25-1.76-.5-2.64-.73-.89-.23-1.77-.44-2.67-.64-.6-.14-1.2-.26-1.8-.38-.61-.12-1.21-.23-1.82-.34-1.49-.26-3-.49-4.52-.67-.67-.08-1.34-.15-2.01-.22-.66-.06-1.33-.12-1.99-.16-.33-.03-.66-.05-.99-.07-.5-.03-1-.06-1.51-.08-.71-.03-1.43-.06-2.15-.07-.6-.01-1.2-.02-1.8-.02h-.08c-1.06 0-2.12.02-3.18.06l-1.34.05-1.27.04.01.03.74 2.42c-.09-.31-.19-.62-.29-.92l-.49-1.49v-.01l-.22.02-.17.01-1.18.1c-.56.04-1.12.09-1.68.15-.58.05-1.16.11-1.75.18-2.67.31-5.36.74-8.02 1.28-.51.1-1.01.21-1.52.33-.1.01-.2.03-.3.06-.1.02-.2.04-.3.06-.03.01-.06.01-.09.02-3.07.7-6.04 1.53-8.92 2.49-3.33 1.11-6.52 2.39-9.56 3.84-1.52.72-3 1.48-4.44 2.29-1.44.8-2.84 1.64-4.2 2.52-.42.28-.83.55-1.24.82-.81.55-1.62 1.13-2.4 1.71-1.7 1.24-3.31 2.56-4.84 3.96-.75.68-1.48 1.37-2.19 2.08-.71.7-1.4 1.42-2.07 2.16-.02.03-.04.06-.07.08-.68.75-1.33 1.51-1.96 2.29-.62.78-1.23 1.57-1.82 2.38l-.21.29c-.25.35-.5.7-.74 1.06l-.65.95.38.78.12.25c.11.23.21.47.3.72.08.2.14.39.2.6.05.15.09.3.13.45.1.39.18.79.25 1.19.06.33.1.66.14.99.27 2.22.19 4.64-.05 6.61-.02.18-.05.36-.08.55-.01.04-.01.08-.02.11-.08.5-.17 1-.28 1.51l-.17.93.03.01 1.71.49.15.04c2.89.84 5.93 1.68 9.05 2.51l.28-.02.15.13.14.04.02.01.32.08c3.39.9 6.82 1.75 10.26 2.56.08.03.16.05.24.06 1.07.25 2.13.49 3.2.74.37.09.74.17 1.11.25.46.11.92.21 1.38.31l.87.19.01-.01.71-.5c.51-.37.91-.84 1.23-1.38l-1.11 2.06v.01l.68.14 1.94.41c.27.06.53.11.8.16 1.24.26 2.49.52 3.74.76.63.13 1.25.25 1.88.37 1.66.32 3.32.62 4.98.92 1.91.34 3.82.67 5.73.99 1.92.32 3.83.62 5.75.91.96.14 1.92.28 2.88.42 2.88.41 5.76.79 8.64 1.14.77.1 1.54.19 2.32.28.45.05.89.1 1.34.15 1.66.19 3.32.37 4.98.53.91.09 1.83.18 2.74.27.05 0 .09.01.14.01l1.65.15s.09-.31.2-.66l-.17.66 2.38.2c.32.03.63.05.95.08 1.09.09 2.14.17 3.16.25s2.01.14 2.98.21c1.4.09 2.83.17 4.34.25.57.03 1.13.06 1.7.09.61.03 1.22.06 1.85.09.65.03 1.3.06 1.98.09.69.03 1.37.06 2.06.09 1.06.04 2.16.08 3.31.12l1.67.06.25-1.15-.24 1.15v.01l.49.01 1.89.06c1.23.04 2.45.07 3.68.11 2.26.06 4.51.12 6.75.17 1.4.04 2.8.07 4.19.1l18.56.42h.07l.13-1.64.02-.24c.02-.31.04-.62.06-.94.07-1.66-.03-3.35-.29-5.07zm-46.03-48.59.02-.42.94 2.82c-.28-.82-.6-1.62-.96-2.4zm2.44 10.81c.03.89.04 1.79 0 2.73.03-.94.03-1.85 0-2.73zm-.2 5.68c.1-1 .16-1.97.2-2.92-.03.95-.1 1.92-.2 2.92zm.11-7.22c-.09-1.09-.23-2.16-.42-3.18.2 1.02.34 2.09.42 3.18zm-66.66 33.57c.15-.43.28-.85.4-1.27-.1.37-.23.81-.4 1.27z" fill="#57aa6b"/><path d="m377.91 40.26-.48-.5c-.11-.11-.22-.22-.33-.33-.46-.45-.96-.9-1.49-1.33-.21-.17-.42-.34-.63-.51-.01-.01-.02-.01-.02-.01-.44-.34-.9-.67-1.39-1-.48-.33-.98-.65-1.51-.96-.19-.12-.38-.23-.58-.34-.35-.21-.71-.41-1.07-.6-.58-.3-1.17-.61-1.79-.91-.31-.15-.63-.3-.96-.45-1.16-.53-2.34-1.02-3.54-1.47-.78-.31-1.56-.59-2.36-.85-.67-.23-1.36-.45-2.05-.65-.55-.16-1.1-.32-1.66-.47-.83-.22-1.67-.43-2.52-.62-2.11-.48-4.26-.86-6.44-1.12-.44-.06-.87-.1-1.31-.15-.58-.06-1.16-.11-1.75-.16-1.75-.14-3.52-.21-5.3-.21-7.97 0-15.87 1.34-23.49 3.99-.5.17-1 .35-1.5.54-.46.18-.93.36-1.4.54-.48.19-.96.39-1.44.59-1.29.54-2.57 1.12-3.85 1.75-.38.18-.75.37-1.13.56-.01 0-.02.01-.03.02-.38.19-.76.39-1.14.59s-.76.4-1.14.61c-1.52.84-3.03 1.73-4.52 2.68-.37.23-.74.47-1.11.72-.37.24-.74.49-1.11.74l-1.15.78-.02.01-2.91 1.98.19.03-.73.58c-1.24.97-2.45 1.97-3.64 3-1.18 1.04-2.34 2.1-3.48 3.2-.99.96-1.96 1.94-2.92 2.96-.38.4-.76.81-1.13 1.22s-.74.82-1.1 1.24c-1.11 1.25-2.17 2.54-3.19 3.85-.7.88-1.37 1.77-2.03 2.67-.6.82-1.19 1.66-1.75 2.51-.56.83-1.11 1.67-1.66 2.52-.03.03-.05.07-.07.11-.43.68-.86 1.38-1.28 2.08-.17.26-.32.53-.47.8-.44.74-.87 1.49-1.29 2.25-.09.16-.18.32-.26.48-.37.65-.72 1.31-1.07 1.98-.46.89-.91 1.79-1.35 2.7-.18.35-.35.71-.51 1.06-.44.93-.87 1.87-1.29 2.81-.34.77-.67 1.55-.99 2.33-.47 1.13-.92 2.27-1.36 3.43l-1.01 2.66h.05l-.47 1.37c-.19.56-.37 1.11-.55 1.67s-.36 1.12-.53 1.69c-.17.56-.34 1.13-.51 1.69-.16.57-.32 1.14-.48 1.71-.21.76-.41 1.52-.61 2.29s-.39 1.54-.57 2.31c-.02.11-.05.22-.08.33-.33 1.42-.64 2.84-.92 4.28-.16.78-.31 1.57-.45 2.36-.16.88-.31 1.79-.45 2.72-.13.87-.26 1.77-.37 2.71-.17 1.47-.3 3.02-.35 4.6-.05 1.42-.04 2.86.06 4.31.09 1.26.24 2.51.47 3.77l.14.75.6.47c.83.64 1.64 1.3 2.44 1.97.46.39.92.78 1.38 1.17 1.36 1.18 2.68 2.39 3.95 3.63.09.07.17.16.26.24l1.66 1.62 1.15-1.59.21-.29c.59-.81 1.2-1.6 1.82-2.38.63-.78 1.28-1.54 1.96-2.29.03-.02.05-.05.07-.08.67-.74 1.36-1.46 2.07-2.16.71-.71 1.44-1.4 2.19-2.08 1.53-1.38 3.15-2.7 4.84-3.96.78-.58 1.59-1.16 2.4-1.71.41-.27.82-.54 1.24-.82 1.36-.88 2.76-1.72 4.2-2.52s2.92-1.56 4.44-2.29c3.04-1.44 6.24-2.72 9.56-3.84 2.88-.96 5.85-1.79 8.92-2.49.03-.01.06-.01.09-.02.1-.02.2-.04.3-.06.1-.03.2-.05.3-.06.21-.04.42-.08.63-.13l.88-.18.01-.02.15-.27.06-.12.22-.4c1.05-.79 2.1-1.61 3.16-2.49.01-.01.02-.02.04-.03.26-.22.52-.44.78-.66l.76-.66c.05-.04.1-.09.15-.13.5-.43.99-.86 1.5-1.31l.73-.67.35-.31-.01-.01-.59-1.32c-.13-.3-.27-.6-.41-.9s-.28-.59-.43-.88c.11.19.2.38.29.57l.14.31 1.04 2.18.03.06 1.87-1.86.13-.13c.32-.31.65-.65.99-.99.17-.17.34-.35.52-.53.35-.35.7-.72 1.06-1.1.34-.36.69-.73 1.03-1.11.2-.22.4-.44.6-.66.65-.73 1.1-1.33 1.27-2.09.01-.01.01-.01.01-.02.01-.06.02-.12.02-.18.02-.1.02-.21.02-.31 0-.12-.01-.24-.03-.35-.01-.1-.03-.2-.06-.3-.02-.11-.05-.21-.08-.32-.18-.56-.48-1.12-.8-1.7-.01 0-.01-.01-.01-.01l-6.39-11.14c-.04-.08-.08-.15-.12-.22-.57-1.1-.27-1.52-.16-1.69.24-.34.67-.46 1.11-.55.01 0 .03-.01.04-.01.55-.1 1.11-.19 1.67-.25.3-.04.61-.07.91-.09.64-.06 1.28-.09 1.92-.09 1.91 0 3.8.23 5.62.67.25.07.5.13.75.2l.69.2c.14.04.27.08.41.12.55.16 1.11.31 1.66.41.14.02.28.05.42.06.28.04.55.06.82.06.56 0 1.09-.09 1.56-.27.15-.05.29-.12.43-.19s.28-.15.41-.24c.13-.08.26-.18.38-.27.13-.1.25-.2.36-.3.12-.11.23-.21.34-.32.34-.33.64-.66.91-.97 1.08-1.19 2.17-2.37 3.28-3.55.62-.66 1.24-1.32 1.87-1.98s1.26-1.32 1.89-1.97c.63-.66 1.27-1.3 1.91-1.95s1.28-1.29 1.93-1.93l.97-.96-.01-.01-.54-1.25c-.12-.29-.26-.57-.39-.86l1.02 2.02.04-.04 1.91-1.84c.84-.81 1.68-1.62 2.53-2.42s1.7-1.59 2.55-2.38c1.71-1.58 3.44-3.13 5.17-4.65 3.47-3.05 6.99-5.99 10.53-8.8l1.65-1.31.08-.07zm-32.65 10.91c-.7-.49-1.42-.95-2.17-1.38.75.42 1.47.88 2.17 1.38zm-46.82-6.81c-.69-.1-1.37-.18-2.06-.25l-.36-.18z" fill="#9bc96a"/><g fill="#af7979"><path d="m316.47 295.967c-.097-7.201-.279-15.673-.893-23.918l-.247-3.312 3.043 1.331c3.705 1.621 7.826 2.442 12.248 2.442h.07c.2 0 .401 0 .602-.008 4.92-.097 10.03-1.144 15.662-3.2.66-.243 1.435-.536 2.2-.909l2.486-1.212.371 2.742c1.061 7.829 1.548 15.744 1.448 23.524l-.026 2.053-2.052-.08c-1.898-.074-3.818-.112-5.707-.112-9.143 0-18.165.873-26.814 2.595l-2.358.469z"/><path d="m330.704 272.515c-5.35 0-10.362-1.212-14.495-3.506l-.919-.51-.102-1.046c-.826-8.575-2.113-16.174-3.935-23.232l-.764-2.96 3.019.486c2.366.381 4.722.574 7.001.574 5.608 0 11.266-1.087 16.361-3.145 1.23-.498 2.836-1.207 4.324-2.259l2.156-1.524.883 2.489c3.197 9.015 5.596 18.354 7.129 27.757l.209 1.282-1.085.712c-1.104.724-2.352 1.228-3.535 1.664-5.645 2.058-10.751 3.108-15.619 3.213-.215.003-.422.005-.628.005z"/><path d="m320.513 242.32c-2.983 0-5.951-.303-8.82-.902-.118-.02-.232-.049-.334-.083l-.969-.328-.301-.978c-.114-.37-.593-1.978-.593-1.978-1.139-3.571-2.529-7.257-4.243-11.24l-1.473-3.422 3.666.663c1.166.211 2.386.318 3.624.318 2.523 0 5.258-.409 8.129-1.215 5.329-1.496 9.509-3.849 12.424-6.994l1.912-2.063 1.32 2.484c2.985 5.615 5.647 11.443 7.911 17.32l.506 1.314-1.065.919c-1.736 1.499-3.88 2.453-5.341 3.041-5.094 2.056-10.75 3.144-16.353 3.144z"/><path d="m311.072 224.372c-1.521 0-2.983-.15-4.347-.447-.988-.225-1.999-.517-2.833-1.158l-.668-.301-.23-.615c-2.225-4.668-4.857-9.581-8.049-15.019l-1.978-3.369 3.889.365c.649.061 1.193.102 1.733.102 2.934 0 5.938-.693 8.688-2.005 3.611-1.723 6.923-4.553 9.576-8.185l1.569-2.147 1.628 2.103c4.687 6.058 8.966 12.482 12.718 19.097l.662 1.166-.828 1.055c-2.889 3.684-7.521 6.499-13.394 8.142-2.886.806-5.623 1.216-8.136 1.216z"/><path d="m298.609 203.929c-1.732 0-3.408-.239-4.988-.709-.031-.005-.966-.188-.966-.188l-.458-.759c-.709-1.176-1.427-2.325-2.129-3.448l-.135-.215c-2.262-3.605-4.203-6.592-6.107-9.396l-2.105-3.1 3.747-.023c1.451-.009 2.992-.145 4.711-.415 4.216-.686 10.061-2.426 13.919-6.814l1.419-1.615 1.509 1.533c3.611 3.671 7.111 7.576 10.403 11.607l.938 1.149-.827 1.231c-2.761 4.11-6.309 7.277-10.26 9.161-2.735 1.307-5.734 2.001-8.671 2.001z"/><path d="m285.272 186.095c-1.025 0-2.027-.065-2.979-.192l-.853-.115-.504-.699c-2.439-3.385-4.818-6.426-7.276-9.298l-2.469-2.885 3.775-.404c5.374-.575 10.906-2.962 14.801-6.384l1.182-1.682 1.662 1.334c3.971 3.185 7.85 6.604 11.529 10.163l1.349 1.305-1.216 1.429c-3.85 4.523-9.794 6.307-14.103 7.008-1.769.283-3.369.42-4.898.42z"/><path d="m270.272 172.029c-2.096-2.232-4.319-4.384-6.611-6.396l-1.243-1.091.839-1.426c1.808-3.071 3.091-5.793 3.924-8.322l.604-1.831 1.852.536c2.973.86 6.107 1.728 9.317 2.578l.306.081.266.171c3.242 2.09 6.559 4.421 9.856 6.929l1.986 1.511-1.907 1.609c-4.512 3.808-11.17 6.268-16.961 6.268-.158 0-.315-.001-.473-.005l-.992.2z"/></g><path d="m268.35 143.25c-.04-.33-.08-.66-.14-.99-.07-.4-.15-.8-.25-1.19-.04-.15-.08-.3-.13-.45-.06-.21-.12-.4-.2-.6-.09-.25-.19-.49-.3-.72l-.12-.25c-.22-.42-.47-.8-.77-1.13-1.76-1.95-5.5-2.49-9.36-2.79-.06-.01-.12-.01-.18-.01-.17-.02-.34-.03-.49-.04-.11-.01-.21-.01-.31-.02l-.11-.01-.64-.05c-.24-.02-.48-.04-.72-.05-.48-.04-.97-.06-1.46-.07-.67-.03-1.33-.04-2-.04h-.03c-11.07 0-22.7 3.17-33.65 9.15-.53.29-1.06.59-1.59.89-.25.15-.51.29-.77.45-.49.29-.99.58-1.48.88l-1.88 1.11.07.03c-.2.13-.41.27-.62.41-1.21.79-2.41 1.62-3.62 2.49-.51.37-1.02.74-1.53 1.13-.68.51-1.36 1.04-2.05 1.57-.52.41-1.05.84-1.57 1.27-3.03 2.49-6.05 5.22-9.07 8.23-.28.27-.55.54-.82.82-.13.12-.25.25-.37.37l-1.13 1.15.01.01 11.56 17.55c.03.04.06.09.08.13.73 1.11 1.47 2.23 2.22 3.34.12.19.25.38.38.57.44.66.89 1.31 1.34 1.96.44.65.9 1.3 1.36 1.95 1.02 1.45 2.08 2.88 3.18 4.28.36.46.73.92 1.11 1.38l.03.03c.25.31.5.61.76.91s.52.6.78.9c.32.37.65.73.98 1.1.79.86 1.62 1.71 2.47 2.53.57.57 1.16 1.13 1.76 1.67.78.71 1.58 1.42 2.41 2.1.37.31.74.62 1.12.92l1.76 1.4 1.26-1.25c.93-.92 1.85-1.83 2.73-2.71 1.78-1.77 3.48-3.48 5.11-5.14.82-.83 1.62-1.65 2.41-2.46l1.48-1.52-.01-.01h-.01l2.13-2.21c.85-.87 1.69-1.75 2.53-2.63 2.02-2.13 4.07-4.3 6.09-6.54.41-.46.83-.92 1.24-1.38.52-.58 1.04-1.17 1.55-1.77.52-.6 1.03-1.2 1.55-1.81.51-.61 1.02-1.22 1.53-1.84.32-.39.64-.78.94-1.17 2.65-3.29 5.15-6.72 7.39-10.35.04-.06.09-.12.13-.19v-.01c.08-.13.17-.27.25-.41l.59-1c.02-.03.03-.06.05-.09.21-.35.41-.7.6-1.05.16-.29.32-.57.47-.86.25-.45.48-.89.69-1.32.18-.36.35-.71.51-1.05.17-.35.32-.69.47-1.02.15-.34.29-.67.42-1 .26-.66.5-1.3.71-1.94.31-.94.55-1.86.74-2.76l.16-.86c.04-.22.08-.44.12-.65.01-.03.01-.07.02-.11.02-.18.05-.36.07-.54.06-.53.41-3.58.06-6.62zm-53 5.63c.07.03.14.06.21.1-.52-.23-1.05-.46-1.58-.67l-.03-.04z" fill="#57aa6b"/><path d="m261.2 132.36-.66-.57c-.24-.2-.48-.4-.72-.6-.8-.67-1.61-1.33-2.44-1.97-1.23-.96-2.48-1.9-3.77-2.81-.19-.14-.39-.28-.59-.41-.6-.42-1.2-.83-1.81-1.24-.53-.35-1.07-.71-1.61-1.05-.69-.46-1.39-.9-2.09-1.32-.62-.38-1.25-.75-1.88-1.12 0-.01-.01-.01-.02-.01-.64-.37-1.28-.74-1.93-1.1s-1.3-.72-1.96-1.07-1.32-.69-1.98-1.03c-.67-.34-1.34-.67-2.02-1-1.69-.82-3.4-1.6-5.14-2.34-.65-.28-1.31-.55-1.97-.82-.99-.4-1.99-.79-2.99-1.17-.01 0-.01 0-.01 0-1.01-.38-2.01-.75-3.03-1.1-.91-.31-1.82-.62-2.74-.91-1.84-.6-3.69-1.15-5.57-1.66-.75-.2-1.51-.4-2.26-.6-.74-.19-1.49-.37-2.23-.55-1.93-.46-3.89-.87-5.87-1.25l-.46-.1.07-.06-4.66-.71c-.19-.03-.39-.06-.58-.08-.61-.1-1.22-.18-1.84-.26-.45-.07-.91-.13-1.37-.18-.42-.06-.85-.11-1.27-.15-1.02-.12-2.05-.23-3.08-.32-.58-.06-1.15-.11-1.73-.16-.58-.04-1.15-.09-1.73-.12-.5-.04-1-.07-1.5-.1-1.47-.09-2.94-.15-4.41-.19-1.22-.03-2.41-.05-3.57-.05-2.19 0-4.27.06-6.26.19-.47.03-.94.06-1.4.1-.92.07-1.82.16-2.71.26-.44.05-.88.1-1.31.16-.01.01-.02.01-.04.01-.69.1-1.38.2-2.06.31-.01.01-.03.01-.04.01-.68.12-1.35.24-2 .37-.01.01-.02.01-.03.01-.33.07-.67.14-1 .21s-.65.15-.97.23c-.82.2-1.63.41-2.42.64-.8.23-1.58.48-2.36.74-.52.17-1.03.35-1.54.54-.51.18-1.01.38-1.51.58-.5.19-1 .4-1.49.61s-.97.43-1.45.65-.96.45-1.43.68-.94.47-1.4.71c-.91.47-1.8.97-2.68 1.48-.45.27-.91.54-1.35.81s-.87.54-1.29.81c-.42.28-.84.56-1.26.84-.41.28-.82.56-1.23.85-.4.29-.8.58-1.2.87s-.79.59-1.17.88c-.39.3-.77.6-1.15.9-.75.6-1.48 1.21-2.2 1.82-1.79 1.54-3.45 3.11-5 4.66-.31.31-.61.63-.91.94-.89.93-1.75 1.85-2.55 2.76-.27.31-.54.61-.8.91s-.51.6-.76.89c-.25.3-.49.59-.73.88l-.96 1.16-.59.71.02.01 23.2 12.6.78-1.64-.76 1.64 4.88 2.66 5.12 2.79.17.08.04.02c.04.03.09.05.14.07.09.05.19.09.28.13l.01.01 1.4.61.96-1.19c.04-.05.08-.1.12-.16.17-.22.35-.52.58-.93.26-.47.53-.94.81-1.4.85-1.42 1.77-2.79 2.76-4.12.38-.51.77-1.02 1.18-1.52.06-.08.12-.16.19-.23.23-.29.47-.57.7-.85.38-.45.76-.88 1.16-1.31.3-.33.61-.66.92-.98.06-.07.12-.13.18-.19.39-.4.78-.79 1.18-1.18.02-.02.05-.04.07-.07 1.18-1.12 2.4-2.19 3.68-3.2l-.15 2.41-1.12 18.25c-.04.65-.09 1.39-.03 2.14v.04c.02.23.05.46.09.69.04.2.08.4.14.6.08.27.18.53.31.78.11.22.24.43.4.62.06.1.14.19.22.28.46.53 1.05.99 1.74 1.44.27.18.55.36.85.55l5.89 3.6v.01l3.93 2.4 1.76 1.08h.01c.13-.14.26-.28.38-.42l.74-.81c.6-.67 1.2-1.32 1.8-1.97.6-.64 1.2-1.28 1.81-1.9.37-.39.75-.78 1.12-1.16.12-.12.24-.25.37-.37.27-.28.55-.56.82-.82 3.02-3.01 6.04-5.74 9.07-8.23.52-.43 1.05-.86 1.57-1.27.69-.53 1.37-1.06 2.05-1.57.51-.39 1.02-.76 1.53-1.13 1.21-.87 2.41-1.7 3.62-2.49.21-.14.42-.28.62-.41.6-.39 1.21-.77 1.81-1.14.49-.3.99-.59 1.48-.88.26-.16.52-.3.77-.45.53-.3 1.06-.6 1.59-.89 10.95-5.98 22.58-9.15 33.65-9.15h.03c.67 0 1.33.01 2 .04.49.01.98.03 1.46.07.24.01.48.02.71.04l.65.06.11.01c.1.01.2.01.31.02.15.01.32.02.49.04.06 0 .12 0 .18.01.6.04 1.27.09 1.94.17l6.13.69.38.04zm-58.2-23.93.67-.51-.02.04c-.22.15-.43.31-.65.47z" fill="#9bc96a"/><path d="m224.37 207.52-1.76-1.4c-.38-.3-.75-.61-1.12-.92-.83-.68-1.63-1.39-2.41-2.1-.6-.54-1.19-1.1-1.76-1.67-.85-.82-1.68-1.67-2.47-2.53-.33-.36-.67-.73-.99-1.1-.26-.3-.52-.6-.77-.9-.26-.3-.51-.6-.76-.91l-.03-.03c-.38-.46-.75-.92-1.11-1.38-1.1-1.4-2.16-2.83-3.18-4.28-.46-.65-.92-1.3-1.36-1.95-.46-.65-.9-1.31-1.34-1.96-.13-.19-.26-.38-.38-.57-.75-1.11-1.49-2.23-2.22-3.34-.02-.04-.05-.09-.08-.13l-11.56-17.55-.01-.01-.02-.03-1.78 1.94-.48.51c-.53.58-1.07 1.16-1.6 1.75-.15.17-.31.35-.46.52-.12.14-.25.28-.38.42-.32.37-.65.75-.99 1.13-1.8 2.09-3.54 4.19-5.17 6.27l-.01.02-.67.95-.02-.06-.02-.05-1.02 1.4-.27.36-.88 1.21c-.34.46-.67.93-1 1.39-1.67 2.32-3.23 4.66-4.69 7.01-.41.65-.81 1.31-1.19 1.96-.03.03-.05.06-.06.09-.39.65-.77 1.31-1.14 1.96-.44.76-.86 1.51-1.26 2.27-.32.58-.63 1.16-.93 1.74-.56 1.08-1.09 2.15-1.6 3.22-.23.47-.45.94-.66 1.41-.22.46-.43.93-.64 1.4-3.38 7.65-5.24 14.48-5.67 20.87-.25 3.64-.05 7.25.46 10.82.16 1.08.35 2.16.56 3.24.08.4.17.8.25 1.21.18.8.37 1.6.57 2.4.31 1.2.64 2.39.99 3.58.24.79.48 1.58.74 2.36 0 .01.01.01 0 .02.4 1.22.82 2.43 1.26 3.64.44 1.2.9 2.4 1.36 3.59.79 2.04 1.62 4.07 2.46 6.07.09.22.19.43.29.62.13.28.27.52.43.74 0 .01.01.03.03.05.13.19.28.36.43.52.02.01.03.03.04.04s.02.03.03.04l1.23 1.24 1.39-1.06c.06-.05.12-.09.18-.15.18-.15.37-.34.56-.54l7.3-7.63.24-.25h-.01l5.21-5.44 5.31-5.53v-.01h-.01l-1.15-1.37c-.1-.12-.19-.23-.28-.35-1.37-1.62-2.66-3.31-3.88-5.04-.82-1.14-1.59-2.29-2.34-3.47.76 1.17 1.54 2.33 2.34 3.47 1.23 1.73 2.53 3.41 3.88 5.04l1.44 1.72 7.08-7.4c.36-.37.78-.81 1.15-1.31.07-.1.14-.2.21-.3.19-.29.35-.6.47-.93.04-.11.07-.22.1-.33.01-.04.02-.08.03-.12v-.01c.13-.56.1-1.12.01-1.67 0-.01 0-.03-.01-.04-.03-.18-.07-.35-.11-.53-.05-.19-.1-.39-.14-.57-.03-.08-.06-.17-.08-.25-.25-.88-.51-1.76-.78-2.64-.26-.88-.54-1.75-.83-2.62s-.59-1.73-.9-2.6c-.56-1.58-1.16-3.15-1.78-4.71-.09-.21-.17-.42-.26-.63-1.01-2.46-2.1-4.89-3.27-7.27 2.19.89 4.09 2.35 5.91 3.83h.01c.05.04.1.09.15.12.19.17.37.31.56.47l.3.23c.27.22.54.45.82.66.18.16.37.3.56.45s.38.29.57.44c.14.11.28.21.42.31l.42.3c.28.2.56.38.84.56.55.35 1.1.66 1.64.93 1.79.9 3.5 1.35 5.09 1.35h.04c.25 0 .5-.01.75-.04.17-.01.34-.04.5-.07.1-.01.2-.03.3-.05.33-.07.66-.15.97-.25.51-.17.99-.38 1.45-.62.31-.16.61-.34.91-.53.15-.1.29-.2.44-.3.2-.14.39-.28.59-.44.17-.12.35-.25.51-.4.38-.3.75-.63 1.14-.98.17-.15.33-.3.49-.45.24-.22.48-.45.73-.69 2-1.92 4-3.86 6-5.81l.39-.39 1.23-1.19zm-44.38-28.06c.1.31.21.62.32.92l-.45-1.18z" fill="#57aa6b"/><path d="m78.01 109.32c-20.424 0-37.04-16.621-37.04-37.05 0-20.424 16.616-37.04 37.04-37.04 20.43 0 37.05 16.616 37.05 37.04 0 20.429-16.621 37.05-37.05 37.05z" fill="#ffd671"/><path d="m512 180.96v-4.05c-7.78.52-15.32 3.89-20.8 9.53-6.39 6.57-9.62 15.86-8.85 24.94-6.19-2.57-11.79-3.62-17.03-3.21-9.34.74-18.12 6.62-22.36 14.99-3.42 6.74-3.79 14.91-1.22 22-2.68-1.03-5.46-1.9-8.4-2.3-5.56-.77-10.62.37-14.28 3.22-2.93 2.29-4.78 5.52-6.56 8.89-1.15 2.17-2.27 4.41-3.04 6.73-1.55-2.07-3.62-3.85-6.05-5.17-4.02-2.18-8.91-3.14-14.51-2.86-4.43.22-8.84 1.19-12.96 2.84.23-.59.46-1.16.69-1.74 2.25-5.55 4.56-11.29 5.41-17.42 1.07-7.73-.68-18.61-9.16-23.82-5.55-3.42-13.03-3.51-19.51-.26-5.76 2.89-9.65 7.7-12.11 11.84-1.56-3.47-3.24-6.9-5.05-10.26-11.26-20.94-27.66-39.81-46.81-54.09 22.22 5.24 44.9 8.64 67.66 10.12 11.57.75 23.34 1.02 34.75 1.28l17.81.4h.05c.98 0 1.82-.71 1.98-1.69 1.59-10.07-2.63-21.03-12.92-33.5-6.97-8.45-13.75-14.83-20.73-19.52-15.76-10.58-36.2-14.82-57.18-12.08 3.26-2.79 6.34-5.79 9.19-8.99.74-.83 1.48-1.75 1.73-3.03.37-1.9-.58-3.57-1.15-4.56l-6.18-10.77c3.08-.5 6.27-.32 9.28.52l.64.19c1.76.51 3.95 1.15 6.12.34 1.63-.6 2.74-1.84 3.63-2.83 11-12.19 23.13-23.51 36.05-33.65.42-.33.69-.81.75-1.34.07-.53-.09-1.06-.42-1.48-2.7-3.41-6.5-6.16-11.96-8.66-15.66-7.17-34.58-7.82-51.91-1.79-15.95 5.54-30.67 16.76-41.44 31.58-9.72 13.36-16.58 30.04-19.84 48.24-.8 4.48-1.49 9.59-1.14 14.82-19.31-13.51-44.25-21.42-70.76-22.13-8.73-.23-15.69.36-21.91 1.86-18.88 4.54-32.45 17.76-40.52 28.05-.36.46-.5 1.06-.38 1.64.12.57.49 1.07 1 1.35l33.22 18.04c.63.34 1.69.92 2.98.74 1.97-.27 2.95-2.03 3.42-2.88 2.32-4.18 5.32-8.05 8.79-11.38l-.97 15.9c-.09 1.47-.21 3.47.72 5.28.94 1.83 2.68 2.9 3.95 3.67l9.57 5.88c-9.1 10.58-16.16 21.46-20.99 32.39-3.48 7.88-5.39 14.92-5.84 21.54-.91 13.32 3.85 26 8.81 37.84 1.31 3.14 3.09 3.86 4.45 3.86.11 0 .21 0 .31-.01 1.6-.12 2.68-1.25 3.25-1.86 4.493-4.694 8.985-9.381 13.476-14.077 3.65-3.818 7.301-7.635 10.952-11.453.197-.207.394-.414.593-.62.89-.92 2.1-2.18 2.47-3.96.34-1.54-.08-3.03-.36-4.01-1.39-4.94-3.1-9.82-5.1-14.56.23.19.47.39.71.58.77.63 1.53 1.25 2.31 1.84 4.15 3.14 8.06 4.37 11.61 3.67 3.54-.71 6.24-3.3 8.21-5.19 8.6-8.23 17.11-16.77 25.31-25.39 6.73-7.08 13.71-14.7 19.38-23.4 10.41 9.23 18.36 20.85 25.41 32.1 6.26 9.99 13.14 21.77 17.85 34.63-4.65-2.76-10.78-3.48-16.94-3.74-8.58-.36-18.24-.21-24.31 6.26-5.97 6.35-5.35 15.69-4.45 20.7.54 3.02 1.38 5.99 2.19 8.86.75 2.65 1.46 5.19 1.97 7.76-8.28-1.72-17.57-2.75-26.32.08-8.08 2.61-15.99 9.6-17.51 18.6-5.85-4.23-13.42-6.27-21.35-5.64-8.4.67-15.93 4.22-21.08 9.87-4-5.32-11.22-8.54-19.17-8.48-6.1.07-12 1.89-17.45 3.95 3.74-8.81 4.07-18.32.77-26.26-3.75-9.01-12.31-15.22-21.2-15.97 6.35-7.85 8.69-18.96 5.68-28.62-3.53-11.31-14.22-20.08-26-21.32-9.74-1.03-20.25 2.75-29.55 10.49 2.31-17.06-6.53-35.88-22.65-46.77-12.86-8.69-29.9-12.64-48.72-11.45v4.01c18.03-1.2 34.31 2.52 46.49 10.75 16.73 11.31 24.99 31.78 19.62 48.68-.28.88.09 1.84.88 2.32.8.48 1.82.34 2.47-.32 9.51-9.81 20.82-14.81 31.04-13.73 10.24 1.08 19.54 8.7 22.6 18.53 3.07 9.83-.25 21.38-8.06 28.1-.68.58-.88 1.55-.5 2.36.38.82 1.26 1.27 2.14 1.12 8.65-1.46 18.34 4.41 22.06 13.35 3.44 8.26 2.34 18.54-2.94 27.5-.44.74-.35 1.67.21 2.32s1.47.87 2.26.55c6.72-2.71 13.67-5.51 20.9-5.59h.25c5.78 0 13.57 2.29 16.87 8.79.31.62.92 1.04 1.62 1.09.05.01.1.01.16.01.63 0 1.23-.3 1.61-.82 4.41-6 11.7-9.81 20-10.47s16.11 1.96 21.41 7.19c.59.58 1.48.74 2.23.4.75-.35 1.22-1.12 1.17-1.94-.53-8.89 7.32-16.32 14.98-18.8 8.85-2.86 18.65-1.28 27.07.65.64.14 1.3-.03 1.79-.47.48-.43.72-1.08.64-1.73-.47-3.85-1.52-7.57-2.54-11.17-.78-2.78-1.59-5.66-2.1-8.49-.77-4.27-1.34-12.18 3.42-17.25 4.92-5.24 13.54-5.33 21.23-5 7.8.33 15.49 1.39 18.88 6.87.2.31.47.54.77.7 4.93 17.41 5.61 35.8 5.85 54.66-2.78.64-5.53 1.37-8.24 2.19-14.8 4.49-29.68 12-44.42 22.35h-261.821v4h256.31c-2.39 1.8-4.77 3.67-7.15 5.62-5.72 4.69-11.3 9.71-16.58 14.93-9.55 9.43-18.37 19.72-26.22 30.59-.33.46-.72.97-1.13 1.5-2.89 3.74-7.72 9.99-2.14 14.84 3.68 3.2 9.75 3.65 15.02 3.65 1.1 0 2.16-.02 3.16-.03.74-.02 1.43-.03 2.07-.03 74.46-.35 149.93-2.32 224.31-5.85 8.4-.4 17.93-.85 27.13-2.39 5.18-.87 11.51-2.54 14.49-7.87 3.46-6.21.9-13.97-7.4-22.47-12.35-12.62-25.22-23.47-38.52-32.49h68.65v-4h-74.05c-.21 0-.4.04-.59.1-11.49-7.25-23.29-13.16-35.34-17.67-15.32-5.75-31.07-9.13-46.56-10.14.31-21.94-3.9-43.78-12.26-64 .17-.15.31-.33.42-.54 2.05-3.96 5.72-9.31 11.54-12.23 5.18-2.6 11.31-2.57 15.63.09 6.39 3.93 8.26 12.81 7.29 19.86-.78 5.64-2.91 10.9-5.16 16.47-.85 2.12-1.73 4.31-2.53 6.5-.28.79-.05 1.67.59 2.21.63.54 1.54.63 2.27.22 4.84-2.69 10.32-4.26 15.85-4.54 4.87-.24 9.04.56 12.4 2.38 3.76 2.05 6.46 5.59 7.03 9.25.15.99 1 1.69 1.97 1.69.09 0 .19 0 .28-.02 1.08-.14 1.84-1.13 1.71-2.21-.46-3.94 1.42-7.88 3.54-11.91 1.64-3.09 3.18-5.8 5.5-7.6 2.75-2.15 6.85-3.03 11.26-2.42 4.2.58 8.28 2.33 12.23 4.01.8.35 1.73.13 2.3-.53s.64-1.61.18-2.36c-4.21-6.81-4.59-15.83-.97-22.98 3.62-7.14 11.12-12.17 19.11-12.8 5.44-.43 11.44.99 18.34 4.34.69.34 1.51.25 2.11-.22s.88-1.24.72-1.99c-1.85-8.78 1-18.62 7.26-25.06 4.65-4.78 11.23-7.73 17.93-8.27zm-186.04-71.7c4.52 13.82 3.45 29.15-2.99 42.2-.49.99-.08 2.19.91 2.68.29.14.59.2.88.2.74 0 1.45-.41 1.8-1.11 6.74-13.66 7.98-29.67 3.52-44.21 11.11-.39 21.85 1.29 31.55 4.93-.02.31.03.64.17.94 2.82 6.05 3.03 13.6.65 23.74-.25 1.07.42 2.15 1.49 2.4.15.04.31.05.46.05.91 0 1.73-.62 1.95-1.54 2.25-9.6 2.32-17.17.2-23.52 3.22 1.5 6.31 3.2 9.23 5.16 6.64 4.46 13.14 10.59 19.87 18.74 8.9 10.79 12.92 20.16 12.25 28.6l-16.04-.36c-5.04-.12-10.16-.24-15.31-.4 1.27-6.16 1.48-12.45.61-18.71-.15-1.09-1.17-1.86-2.25-1.71-1.1.16-1.86 1.17-1.71 2.26.84 6.03.59 12.09-.7 18.02-5.07-.18-10.15-.4-15.18-.73-2.35-.15-4.7-.33-7.05-.53 2.5-9.27 3.29-19.15 2.24-28.69-.12-1.1-1.12-1.89-2.21-1.77-1.1.12-1.89 1.11-1.77 2.21 1.02 9.28.22 18.91-2.31 27.9-15.34-1.42-30.6-3.72-45.69-6.88.58-1.08.9-2.19 1.12-2.95 1.8-6.42 3.02-13.04 3.63-19.69.1-1.1-.71-2.07-1.81-2.17s-2.07.71-2.17 1.81c-.59 6.4-1.77 12.78-3.51 18.97-.34 1.22-.77 2.55-1.57 3.12-5.4-1.19-10.77-2.49-16.11-3.9-.01-.01-.02-.01-.03-.02-.36-.23-.78-.33-1.18-.3-2.96-.79-5.91-1.61-8.85-2.46.09-.48.17-.95.23-1.42.24-1.92.74-7.74-1.15-11.68 8.94-13.17 24.33-22.8 43.41-27.13 4.49-1.02 8.98-1.7 13.42-2.05zm-66.71.98c1.12-6.23 2.68-12.26 4.63-18.04.06.01.11.02.18.02h.02c6.58-.07 13.28 1.33 19.31 4.03 4.49 2 7.59 4.35 9.48 7.18.39.57 1.02.88 1.67.88.38 0 .77-.11 1.11-.34.92-.61 1.16-1.85.55-2.77-2.33-3.47-5.98-6.28-11.18-8.61-6.17-2.76-12.97-4.24-19.74-4.35 3.41-9.01 7.82-17.32 13.1-24.59 4.94-6.79 10.74-12.77 17.1-17.75.22.11.47.19.73.22 9.94.92 19.46 5.71 26.12 13.14.4.44.94.66 1.49.66.48 0 .95-.17 1.34-.51.82-.74.89-2 .15-2.82-6.56-7.32-15.64-12.29-25.32-13.99 5.66-3.85 11.69-6.94 17.91-9.1 16.37-5.69 34.2-5.1 48.93 1.64 4 1.83 6.97 3.77 9.17 6.02-7.25 5.77-14.23 11.92-20.92 18.38-3.29-6.49-9.19-11.54-16.15-13.72-1.05-.33-2.18.26-2.51 1.31-.33 1.06.26 2.18 1.31 2.51 6.36 1.98 11.67 6.77 14.33 12.86-3.76 3.73-7.41 7.55-10.95 11.46-.66.74-1.35 1.5-2.05 1.76-.94.35-2.24-.03-3.61-.43l-.69-.2c-3.82-1.07-7.91-1.24-11.81-.48-.49.1-1.66.32-2.4 1.37-.79 1.11-.73 2.47.17 4.05l6.4 11.15c.27.48.78 1.37.7 1.8-.07.32-.53.84-.8 1.14-1.32 1.49-2.71 2.91-4.12 4.31-4.83-10.1-12.16-17.95-22.36-23.94-.95-.55-2.18-.24-2.74.72-.56.95-.24 2.18.71 2.73 9.88 5.8 16.86 13.45 21.32 23.38-2.01 1.81-4.09 3.55-6.25 5.17-.24.18-.42.4-.55.64-.46.1-.92.17-1.37.28-19.4 4.41-35.22 14.1-44.85 27.39-2.58-2.52-5.32-4.91-8.2-7.16-1.09-5.98-.3-12.13.64-17.4zm-76.13 55.35c4.25-10.74 10.19-20.64 17.72-29.41.72-.84.63-2.1-.21-2.82s-2.1-.62-2.82.22c-7.67 8.93-13.75 18.98-18.14 29.89l-3.87-2.37c-1.16-.72-2.09-1.33-2.49-2.1-.42-.83-.35-2.09-.28-3.2l1.27-20.67c.05-.78-.37-1.52-1.07-1.89-.69-.37-1.54-.29-2.16.2-5.4 4.24-10.02 9.65-13.35 15.65-.22.39-.39.66-.51.81-.16-.07-.37-.19-.48-.24l-8.36-4.55c2.68-5.79 7.19-10.63 11.58-15.31.75-.81.71-2.07-.09-2.83-.81-.75-2.07-.71-2.83.09-4.34 4.63-9.2 9.86-12.18 16.14l-19.23-10.44c7.8-9.47 20.15-20.77 36.81-24.78 5.87-1.42 12.51-1.98 20.87-1.75 5.85.16 11.62.68 17.26 1.54-6.59 5.02-12.2 11.41-16.27 18.62-.54.96-.21 2.18.76 2.73.31.17.65.26.98.26.7 0 1.37-.37 1.74-1.02 4.18-7.4 10.07-13.89 17.03-18.76.36-.25.61-.6.74-.98 20.62 3.92 39.3 12.46 53.7 24.69-1.07-.12-2.1-.19-3.01-.25l-.73-.06c-12.74-.93-26.21 2.26-38.97 9.24-10.52 5.74-20.52 13.96-30.56 25.09zm32.26 47.88c-2.1 2.01-4.02 3.71-6.24 4.15-2.38.48-5.2-.51-8.41-2.93-.74-.56-1.46-1.15-2.19-1.74-2.16-1.77-4.39-3.59-7.13-4.71-.77-.31-1.65-.12-2.22.49-.57.6-.7 1.5-.33 2.24 3.16 6.45 5.74 13.22 7.69 20.13.23.83.42 1.56.3 2.1-.14.66-.83 1.39-1.45 2.03l-5.54 5.79c-7.04-8.45-12.41-18.43-15.54-28.97-.31-1.06-1.43-1.67-2.48-1.35-1.06.31-1.67 1.42-1.35 2.48 3.32 11.21 9.05 21.82 16.58 30.76l-7.75 8.09c-2.05-2.4-3.74-5.07-5.02-7.98-.44-1.01-1.62-1.47-2.63-1.03-1.01.45-1.47 1.63-1.03 2.64 1.49 3.39 3.48 6.5 5.9 9.28l-6.16 6.44c-.12.12-.45.47-.62.6-.13-.13-.44-.48-.81-1.37-4.77-11.41-9.36-23.58-8.51-36.02.42-6.15 2.22-12.76 5.51-20.2 3.27-7.4 7.61-14.79 12.95-22.08 2.63 6.91 6.63 13.35 11.69 18.73.4.42.93.63 1.46.63.49 0 .99-.18 1.37-.55.81-.75.84-2.02.09-2.82-5.21-5.53-9.23-12.26-11.62-19.47-.03-.11-.08-.21-.13-.3 2.16-2.76 4.47-5.51 6.91-8.23.7-.78 1.41-1.54 2.11-2.3l10.18 15.45c3.49 5.3 7.1 10.77 11.4 15.67 2.74 3.11 5.77 5.97 9 8.56-1.99 1.94-3.98 3.88-5.98 5.79zm45.58-50.39c-5.71 9.38-13.21 17.56-20.41 25.13-1.1 1.16-2.22 2.31-3.33 3.46-8.44-7.39-16.73-15.14-24.64-23.08-.78-.78-2.04-.79-2.82-.01-.79.78-.79 2.05-.01 2.83 7.93 7.96 16.23 15.74 24.7 23.15-3.37 3.46-6.79 6.89-10.23 10.29-3.19-2.52-6.17-5.32-8.85-8.37-4.12-4.69-7.65-10.05-11.07-15.23l-10.68-16.21c6.18-6.29 12.37-11.46 18.7-15.61.21.31.51.56.89.71 10.08 4.09 18.98 11.31 25.05 20.33.39.57 1.02.88 1.66.88.39 0 .78-.11 1.12-.34.92-.62 1.16-1.86.54-2.77-6.23-9.25-15.22-16.72-25.43-21.19.76-.45 1.53-.89 2.29-1.3 10.72-5.86 21.92-8.91 32.67-8.91 1.37 0 2.73.05 4.09.15l.76.06c2.6.18 7.46.51 8.99 2.21 1.59 1.77 1.82 6.62 1.36 10.37-.5 4.05-2.15 8.2-5.35 13.45zm10.77 7.58c-2.13-2.27-4.38-4.45-6.75-6.53 1.86-3.16 3.21-6.01 4.1-8.71 3.11.9 6.23 1.76 9.36 2.59 3.32 2.14 6.56 4.43 9.73 6.84-4.29 3.62-10.72 5.93-16.14 5.79-.1-.01-.2 0-.3.02zm3.45 3.83c5.7-.61 11.68-3.15 15.92-6.88.1-.08.19-.18.26-.28 3.94 3.16 7.74 6.51 11.39 10.04-3.43 4.03-8.84 5.67-12.9 6.33-2.75.44-5.13.51-7.29.22-2.32-3.22-4.77-6.38-7.38-9.43zm18.73 26.75c-.76-1.26-1.53-2.49-2.28-3.69-1.97-3.14-4.01-6.31-6.15-9.46 1.57-.01 3.23-.16 5.01-.44 4.67-.76 10.9-2.68 15.11-7.47 3.6 3.66 7.03 7.49 10.28 11.47-2.56 3.81-5.83 6.74-9.46 8.47-4.01 1.92-8.52 2.33-12.37 1.14-.05-.01-.09-.01-.14-.02zm11.2 19.94c-.1-.07-.2-.14-.31-.19-2.54-5.33-5.33-10.4-8.13-15.17.64.06 1.27.11 1.92.11 3.21 0 6.51-.75 9.55-2.2 3.94-1.88 7.48-4.91 10.33-8.81 4.65 6.01 8.85 12.32 12.56 18.86-2.62 3.34-6.89 5.92-12.36 7.45-4.33 1.21-8.21 1.46-11.52.74-.66-.15-1.48-.36-2.04-.79zm6.89 18.26c-.2-.65-.39-1.31-.59-1.97-1.25-3.92-2.72-7.73-4.32-11.45 1.27.23 2.6.35 3.98.35 2.71 0 5.61-.43 8.67-1.29 5.7-1.6 10.18-4.14 13.35-7.56 2.95 5.55 5.56 11.26 7.81 17.1-1.46 1.26-3.29 2.1-4.78 2.7-7.53 3.04-16.06 3.8-24.02 2.14-.03-.01-.07-.01-.1-.02zm88.62 68.06c27.68 10.37 54.06 28.24 78.39 53.12 3.96 4.05 10.11 11.74 6.77 17.72-2.15 3.84-7.36 5.16-11.66 5.87-8.97 1.5-18.37 1.95-26.66 2.34-74.33 3.53-149.74 5.5-224.14 5.85-.65 0-1.37.01-2.12.03-4.86.09-12.2.22-15.48-2.63-2.33-2.02-.99-4.64 2.68-9.39.43-.57.85-1.1 1.2-1.6 7.72-10.69 16.4-20.81 25.79-30.08 5.19-5.13 10.68-10.07 16.31-14.68 18.42-15.11 37.16-25.62 55.7-31.24 12.15-3.68 25.07-5.51 38.32-5.51 18.1 0 36.79 3.42 54.9 10.2zm-49.16-14.08c-11.25-.44-22.34.4-32.99 2.52-.11-8.11-.31-16.13-.9-24.04 3.91 1.71 8.35 2.61 13.05 2.61.25 0 .5 0 .75-.01 5.09-.1 10.41-1.18 16.27-3.32.76-.28 1.57-.59 2.39-.99 1.04 7.68 1.53 15.45 1.43 23.23zm-2.07-27.46c-.96.63-2.1 1.08-3.13 1.46-5.43 1.98-10.33 2.99-14.97 3.09-5.24.09-10.11-1.03-14.11-3.25-.77-7.98-2-15.83-3.99-23.54 2.42.39 4.87.6 7.32.6 5.85 0 11.71-1.11 17.11-3.29 1.43-.58 3.13-1.35 4.73-2.48 3.16 8.91 5.52 18.09 7.04 27.41z"/><path d="m78.01 111.32c21.53 0 39.05-17.52 39.05-39.05 0-21.52-17.52-39.04-39.05-39.04-21.52 0-39.04 17.52-39.04 39.04 0 21.53 17.52 39.05 39.04 39.05zm0-74.09c19.33 0 35.05 15.72 35.05 35.04 0 19.33-15.72 35.05-35.05 35.05-19.32 0-35.04-15.72-35.04-35.05 0-19.32 15.72-35.04 35.04-35.04z"/></svg>