<svg id="Capa_1" enable-background="new 0 0 512 512" height="512" viewBox="0 0 512 512" width="512" xmlns="http://www.w3.org/2000/svg"><path d="m512 408.52v103.48h-297.76c.41-.57.84-1.14 1.26-1.71.56-.75 1.12-1.49 1.68-2.24 1.67-2.2 3.36-4.37 5.07-6.52.11-.15.23-.3.37-.45 1.06-1.34 2.14-2.67 3.25-3.99.59-.71 1.19-1.43 1.78-2.14 1.2-1.42 2.41-2.82 3.62-4.22 1.22-1.4 2.44-2.78 3.68-4.15.93-1.03 1.87-2.05 2.81-3.07.94-1.01 1.88-2.02 2.83-3.02.63-.67 1.27-1.33 1.91-2 1.29-1.32 2.57-2.63 3.86-3.92 1.3-1.29 2.6-2.57 3.91-3.85.01-.01.01 0 .01 0 7.24-6.97 14.75-13.56 22.49-19.71.53-.43 1.06-.84 1.59-1.25.53-.42 1.06-.83 1.6-1.24 1.06-.83 2.12-1.64 3.2-2.44.71-.54 1.43-1.08 2.15-1.6 2.48-1.84 4.99-3.62 7.52-5.36.76-.53 1.53-1.05 2.29-1.56.55-.38 1.1-.74 1.66-1.11 1.29-.86 2.58-1.71 3.88-2.54.78-.51 1.57-1.01 2.36-1.5 1.37-.87 2.75-1.72 4.14-2.55.12-.08.25-.16.38-.23.7-.42 1.39-.84 2.1-1.25.75-.45 1.5-.89 2.26-1.33.76-.43 1.52-.87 2.28-1.3s1.52-.86 2.28-1.27c.76-.42 1.52-.84 2.29-1.25 1.52-.83 3.04-1.63 4.57-2.42.01-.01.02-.01.04-.02.67-.34 1.34-.69 2.02-1.02.87-.44 1.74-.87 2.61-1.3 1.85-.91 3.71-1.79 5.57-2.65.77-.36 1.54-.71 2.31-1.05.8-.36 1.6-.72 2.4-1.06.6-.27 1.19-.53 1.79-.78.6-.26 1.2-.51 1.8-.76 1.54-.65 3.08-1.27 4.63-1.88.89-.35 1.78-.7 2.67-1.04 2.65-1.01 5.31-1.97 7.98-2.89.62-.21 1.24-.42 1.86-.63.66-.22 1.32-.44 1.98-.65.69-.23 1.38-.45 2.07-.66.63-.2 1.27-.4 1.9-.59 1.65-.51 3.31-1 4.97-1.47.99-.28 1.99-.56 2.99-.83 1.78-.48 3.55-.94 5.33-1.38 1.18-.29 2.35-.56 3.53-.83.29-.07.59-.14.89-.21 1.2-.27 2.41-.53 3.62-.79 1.12-.24 2.24-.46 3.36-.68s2.24-.43 3.36-.63c1.05-.19 2.11-.38 3.17-.56 1.19-.19 2.38-.38 3.57-.56.9-.13 1.8-.26 2.71-.39 1.35-.19 2.7-.37 4.06-.53 1.35-.17 2.71-.32 4.07-.46.9-.09 1.81-.18 2.71-.27.91-.08 1.81-.16 2.72-.23 1.81-.15 3.63-.27 5.44-.38 2.72-.15 5.45-.26 8.18-.33 1.82-.05 3.64-.07 5.47-.07 1.3 0 2.61.01 3.9.04 3.66.05 7.3.2 10.91.43 15.16.97 29.9 3.43 44.1 7.37l.06.02c.31.08.62.17.92.25 7.15 2.02 14.16 4.41 21.01 7.18z" fill="#57aa6b"/><g fill="#ffd671"><path d="m512 347.64v60.89c-6.43-2.58-13.07-4.86-19.78-6.8l-1.22-.35-.01-.04v-.02l-.19-1.18c-.53-.71-1.07-1.41-1.62-2.11l-.89-1.12c-.44-.55-.88-1.1-1.34-1.64-.37-.45-.74-.89-1.12-1.33 0-.01-.01-.03-.03-.04-.42-.51-.86-1.02-1.32-1.53-.58-.67-1.18-1.34-1.8-2.01-.3-.32-.6-.65-.9-.97-.36-.4-.74-.8-1.13-1.19-.15-.15-.29-.3-.44-.45-.62-.65-1.26-1.3-1.91-1.93-.71-.72-1.44-1.42-2.18-2.12-.74-.71-1.49-1.4-2.25-2.09-.71-.64-1.42-1.28-2.15-1.91-.87-.76-1.76-1.51-2.66-2.26-.76-.64-1.54-1.27-2.33-1.9-.09-.07-.17-.14-.26-.21-.5-.4-1.02-.8-1.53-1.19-.18-.15-.37-.29-.55-.42-.48-.37-.96-.73-1.44-1.09-.58-.44-1.16-.87-1.75-1.3-.89-.65-1.79-1.29-2.7-1.93-1.06-.75-2.15-1.48-3.24-2.2-.85-.56-1.72-1.13-2.59-1.69-1.6-1.03-3.23-2.04-4.89-3.03-.77-.47-1.55-.93-2.33-1.37-.17-.1-.33-.2-.5-.29-.49-.28-.97-.56-1.46-.83-.52-.31-1.05-.6-1.57-.88-.43-.24-.86-.47-1.29-.7-.03-.03-.05-.04-.07-.05-.09-.05-.17-.1-.26-.13-.12-.08-.24-.15-.36-.2-.37-.21-.74-.41-1.12-.6-.96-.52-1.93-1.02-2.9-1.52-.63-.32-1.25-.64-1.88-.95-1.26-.64-2.53-1.26-3.82-1.87-.46-.23-.93-.45-1.4-.67-1.86-.88-3.75-1.74-5.68-2.59-1.21-.53-2.43-1.06-3.66-1.58-.92-.39-1.85-.78-2.79-1.17-.93-.38-1.87-.76-2.81-1.14-.49-.2-.99-.4-1.49-.59-.47-.18-.93-.37-1.41-.55-2.6-1.01-5.24-1.99-7.94-2.95-1-.36-2.02-.72-3.05-1.08-.2-.06-.39-.13-.59-.2-1.14-.39-2.3-.78-3.46-1.17-1.49-.5-2.98-.98-4.48-1.46-.55-.18-1.11-.36-1.67-.53-1.14-.37-2.3-.73-3.45-1.07-.32-.1-.64-.2-.97-.3-1.34-.41-2.68-.8-4.02-1.19-.14-.05-.28-.09-.42-.12-.35-.11-.71-.21-1.07-.31-.13-.05-.26-.08-.4-.12-1.07-.31-2.14-.62-3.23-.91-.57-.17-1.14-.32-1.72-.47-1.51-.42-3.05-.84-4.58-1.23-1.46-.39-2.92-.76-4.38-1.12-2.28-.57-4.57-1.12-6.87-1.65-1.03-.24-2.05-.47-3.08-.7-.52-.12-1.04-.24-1.56-.35-1.2-.27-2.4-.53-3.6-.77-.15-.04-.28-.07-.43-.09-.59-.13-1.18-.25-1.77-.37-1.59-.33-3.19-.65-4.79-.95-1.35-.26-2.7-.52-4.05-.76-.15-.03-.29-.06-.44-.08-.81-.15-1.63-.3-2.45-.43-.07-.02-.13-.03-.2-.04-.36-.07-.72-.13-1.08-.18-.06-.02-.11-.03-.17-.03-.98-.17-1.97-.34-2.97-.5-1.75-.3-3.5-.57-5.25-.83-1.23-.19-2.49-.38-3.73-.54-.06-.02-.12-.03-.18-.03-.29-.05-.57-.09-.87-.12-.02-.01-.04-.02-.06-.01-3.58-.5-7.17-.95-10.76-1.35-1.4-.15-2.79-.3-4.18-.43l-2.07-.18c-.08-.01-.16-.02-.24-.02-.45-.04-.9-.08-1.34-.11-.16-.01-.31-.03-.47-.03-.44-.03-.87-.06-1.3-.09-.7-.05-1.4-.1-2.09-.13-.9-.04-1.79-.09-2.68-.13-1.34-.06-2.66-.1-3.97-.12-1.1-.02-2.18-.03-3.25-.03-2.02 0-4 .04-5.93.11-.65.02-1.29.05-1.92.09-1.51.08-3 .18-4.44.31l-1.19-3.71v-.01c.27-.15.53-.31.8-.46.28-.16.56-.32.84-.48 1.29-.74 2.58-1.46 3.88-2.18 1.25-.69 2.5-1.37 3.76-2.04.56-.3 1.12-.6 1.68-.89.92-.49 1.84-.96 2.76-1.43.34-.18.68-.36 1.03-.53 1.03-.53 2.07-1.04 3.11-1.55.35-.18.7-.35 1.05-.52.68-.34 1.37-.67 2.05-.98.53-.27 1.07-.52 1.6-.77.73-.36 1.47-.7 2.21-1.03.64-.3 1.28-.6 1.93-.88.03-.02.05-.03.08-.04s.06-.03.09-.03c.01-.01.01-.01.02-.01.72-.33 1.43-.65 2.15-.96.03-.01.05-.02.08-.04.14-.06.28-.13.42-.19.55-.25 1.09-.49 1.65-.72.15-.07.31-.14.46-.2 1.52-.65 3.04-1.29 4.56-1.92.21-.09.43-.18.64-.26l.66.18c4.78-1.23 9.95-1.95 15.69-2.19 1.36-.05 2.75-.08 4.18-.08 1.24 0 2.53.02 3.85.06.52.02 1.05.04 1.58.06.76.03 1.52.06 2.29.1 1.54.07 3.11.14 4.7.22.8.04 1.61.08 2.43.12 1.62.09 3.26.18 4.93.28.84.05 1.69.1 2.54.15 3.38.22 6.86.46 10.4.74.9.07 1.79.14 2.69.22 2.68.23 5.4.48 8.15.75 1.88.19 3.77.39 5.67.6 1.83.21 3.67.42 5.52.66.65.08 1.3.16 1.96.25 1.23.16 2.47.32 3.72.5.71.1 1.42.2 2.14.3 4.12.59 8.26 1.26 12.42 2.01.89.15 1.79.32 2.69.49 1.31.24 2.62.5 3.94.76 1.75.35 3.5.72 5.25 1.1.88.19 1.75.38 2.62.58.88.2 1.75.4 2.62.61.97.23 1.94.47 2.9.71 1.03.26 2.06.52 3.07.79.86.22 1.71.45 2.55.68.99.26 1.97.53 2.94.81 1.66.48 3.3.96 4.93 1.46.42.12.85.26 1.27.39.71.22 1.42.44 2.12.67.91.29 1.82.59 2.72.89 1.81.6 3.59 1.22 5.36 1.85 1.2.44 2.4.88 3.59 1.33.2.08.4.15.6.23 1.22.47 2.43.94 3.63 1.42.9.36 1.79.72 2.67 1.09 1.66.69 3.3 1.4 4.92 2.12 4.97 2.21 9.77 4.58 14.39 7.1.77.42 1.54.84 2.29 1.26 2.3 1.29 4.56 2.62 6.76 3.99.59.36 1.18.73 1.76 1.11.62.38 1.25.78 1.86 1.19.73.47 1.46.95 2.18 1.44.78.52 1.55 1.04 2.31 1.58.48.33.96.67 1.44 1.01 1.03.74 2.05 1.48 3.06 2.23 2.61 1.95 4.93 3.81 7.02 5.62z"/><path d="m512 347.64c-2.09-1.81-4.41-3.67-7.02-5.62-1.01-.75-2.03-1.49-3.06-2.23-.48-.34-.96-.68-1.44-1.01-.76-.54-1.53-1.06-2.31-1.58-.72-.49-1.45-.97-2.18-1.44-.61-.41-1.24-.81-1.86-1.19-.58-.38-1.17-.75-1.76-1.11-2.2-1.37-4.46-2.7-6.76-3.99-.75-.42-1.52-.84-2.29-1.26-4.62-2.52-9.42-4.89-14.39-7.1-1.62-.72-3.26-1.43-4.92-2.12-.88-.37-1.77-.73-2.67-1.09-1.2-.49-2.41-.96-3.63-1.42-.2-.08-.4-.15-.6-.23-1.19-.45-2.39-.89-3.59-1.33-1.77-.63-3.55-1.25-5.36-1.85-.9-.3-1.81-.6-2.72-.89-.7-.23-1.41-.45-2.12-.67-.42-.13-.85-.27-1.27-.39-1.63-.5-3.27-.98-4.93-1.46-.97-.28-1.95-.55-2.94-.81-.84-.23-1.69-.46-2.55-.68-1.01-.27-2.04-.53-3.07-.79-.96-.24-1.93-.47-2.9-.7-1.74-.42-3.49-.82-5.24-1.2s-3.5-.75-5.25-1.1c-1.32-.26-2.63-.52-3.94-.76-.9-.17-1.8-.34-2.69-.49-4.16-.75-8.3-1.42-12.42-2.01-.72-.1-1.43-.2-2.14-.3-1.25-.18-2.49-.34-3.72-.5-.66-.09-1.31-.17-1.96-.25-1.85-.24-3.69-.45-5.52-.66-1.9-.21-3.79-.41-5.67-.6-2.75-.28-5.47-.53-8.15-.75-.9-.08-1.79-.15-2.69-.22-3.54-.29-7.01-.53-10.4-.74-.85-.05-1.7-.1-2.54-.15-1.67-.1-3.31-.19-4.93-.28-.82-.04-1.63-.08-2.43-.12-1.59-.08-3.16-.15-4.7-.22-.77-.04-1.53-.07-2.29-.1-.53-.02-1.06-.04-1.58-.06-1.25-.03-2.47-.05-3.64-.05-1.5 0-2.98.03-4.39.09v-.02l-.73-3.87c4.96-1.72 9.96-3.3 14.99-4.76 7.05-2.03 14.15-3.81 21.32-5.34 1.02-.21 2.05-.42 3.07-.63.29-.07.59-.13.88-.18.57-.12 1.13-.23 1.7-.33.17-.04.34-.07.5-.1 2.06-.39 4.12-.76 6.18-1.11 1.03-.18 2.06-.35 3.1-.51.98-.16 1.96-.31 2.94-.45.49-.08.98-.15 1.47-.22.84-.13 1.68-.24 2.52-.35.8-.11 1.6-.22 2.4-.32 2.25-.29 4.51-.55 6.77-.79 1-.11 2.01-.21 3.02-.3 1-.1 2-.19 3.01-.27 1.37-.13 2.74-.23 4.11-.33.82-.06 1.63-.11 2.44-.16 1.21-.09 2.43-.16 3.65-.22.7-.04 1.39-.07 2.09-.1 1.05-.05 2.11-.09 3.16-.13 1.49-.05 2.98-.1 4.47-.13 1.54-.03 3.08-.05 4.63-.06h.55l.15.02c6.94 1.06 13.94 2.65 20.92 4.57.67.19 1.35.38 2.02.57.64.19 1.27.37 1.91.56.64.18 1.28.37 1.91.57 1.07.32 2.13.65 3.2.99 2.77.87 5.52 1.78 8.23 2.72.79.28 1.6.55 2.4.84.72.24 1.42.49 2.12.75 1.13.4 2.27.82 3.39 1.23.97.35 1.94.71 2.91 1.07.8.31 1.6.61 2.39.91s1.58.6 2.35.9c2.34.9 4.61 1.78 6.8 2.65 1.69.67 3.44 1.37 5.21 2.1.8.34 1.6.68 2.41 1.03 4.17 1.81 8.45 3.86 12.57 6.31.48.28.95.57 1.42.85.7.44 1.39.88 2.08 1.35z"/><path d="m512 288.36v17.16c-.69-.47-1.38-.91-2.08-1.35-.47-.28-.94-.57-1.42-.85-4.12-2.45-8.4-4.5-12.57-6.31-.81-.35-1.61-.69-2.41-1.03-1.77-.73-3.52-1.43-5.21-2.1-2.19-.87-4.46-1.75-6.8-2.65-.77-.3-1.56-.6-2.35-.9s-1.59-.6-2.39-.91c-.96-.35-1.93-.71-2.91-1.07-1.12-.41-2.25-.82-3.39-1.23-.7-.26-1.4-.51-2.12-.75-.79-.29-1.59-.56-2.4-.84-2.71-.94-5.46-1.85-8.23-2.72-1.06-.34-2.13-.67-3.2-.99-.64-.19-1.27-.38-1.91-.57s-1.27-.37-1.91-.56c-.67-.19-1.35-.37-2.02-.56v-.01l.66-3.91v-.01c.22.01.45.03.67.05 4.55.31 9.09.73 13.61 1.25.34.03.68.07 1.03.12 1.37.15 2.74.32 4.11.51.91.11 1.82.23 2.73.36 1.23.17 2.47.36 3.7.54 2.01.31 4.02.64 6.02.99 1.15.19 2.29.4 3.43.61.94.17 1.89.36 2.86.55.64.12 1.28.25 1.94.39.82.16 1.65.34 2.5.53.83.19 1.67.38 2.51.58 1.35.32 2.71.66 4.08 1.03.69.19 1.37.38 2.06.58.68.19 1.37.4 2.06.62 1.38.42 2.78.89 4.17 1.4.38.12.75.26 1.13.41.21.08.42.16.64.24.48.18.95.37 1.43.57.04.01.09.03.13.05.38.15.76.31 1.13.47.24.1.48.2.72.31z"/></g><path d="m512 288.36c-.24-.11-.48-.21-.72-.31-.37-.16-.75-.32-1.13-.47-.04-.02-.09-.04-.13-.05-.48-.2-.95-.39-1.43-.57-.22-.08-.43-.16-.64-.24-.38-.15-.75-.29-1.13-.41-1.39-.51-2.79-.98-4.17-1.4-.69-.22-1.38-.43-2.06-.62-.7-.21-1.38-.4-2.06-.58-1.37-.37-2.73-.72-4.08-1.03-.84-.21-1.68-.4-2.51-.58-.85-.19-1.68-.37-2.5-.53-.66-.14-1.3-.27-1.94-.39-.97-.19-1.92-.38-2.86-.55-1.14-.21-2.28-.42-3.43-.61-2-.35-4.01-.68-6.02-.99-1.23-.18-2.47-.37-3.7-.54-.91-.13-1.82-.25-2.73-.36-1.37-.19-2.74-.36-4.11-.51-.35-.05-.69-.09-1.03-.12-4.52-.52-9.06-.94-13.61-1.25-.22-.01-.44-.03-.67-.04-6.75-.45-13.52-.68-20.28-.68h-1.6l-.08-.03-.11.03h-.21c-2.29.01-4.58.05-6.86.12-.75.02-1.5.04-2.24.07-1.05.04-2.11.08-3.16.13-.7.03-1.4.06-2.09.1-3.41.18-6.81.41-10.2.71-1 .08-2.01.17-3.01.27-1.01.09-2.02.19-3.02.3-1.13.12-2.26.24-3.39.38-1.13.13-2.25.26-3.38.41-.8.1-1.6.21-2.4.32-.84.11-1.68.22-2.52.35-.49.07-.98.14-1.47.22-.98.14-1.96.29-2.94.45-1.04.16-2.07.33-3.1.51-2.07.35-4.12.72-6.18 1.11-1.03.19-2.05.39-3.08.61-1.03.2-2.05.41-3.07.63-7.18 1.51-14.29 3.29-21.32 5.34-10.62 3.05-21.06 6.69-31.25 10.9-1.53.62-3.05 1.26-4.56 1.92-.88.37-1.75.75-2.61 1.15-.72.3-1.44.62-2.15.96-.07.01-.13.04-.19.08-.65.28-1.29.58-1.93.88-.74.33-1.48.67-2.21 1.03-.53.25-1.07.5-1.6.77-.68.31-1.37.64-2.05.98-.35.17-.7.34-1.05.52-1.04.51-2.08 1.02-3.11 1.55-.35.17-.69.35-1.03.53-.92.47-1.84.94-2.76 1.43-.56.29-1.12.59-1.68.89-1.26.67-2.51 1.35-3.76 2.04-1.3.72-2.59 1.44-3.88 2.18-.28.16-.56.32-.84.48-.27.16-.53.31-.8.47-1.07.62-2.14 1.25-3.21 1.89l-3.45 2.06.38-3.55c.03-.21.05-.4.06-.6.02-.17.04-.34.05-.52.01-.1.02-.21.02-.31.02-.19.03-.38.04-.58.12-3.09-.31-6.22-.74-9.27-.05-.32-.09-.65-.14-.98-.06-.44-.12-.88-.18-1.33-.04-.33-.09-.66-.12-1-.04-.33-.08-.67-.11-1-.03-.27-.06-.53-.08-.8-.03-.35-.06-.7-.08-1.06-.05-.74-.07-1.48-.07-2.21 0-.3 0-.61.01-.91.02-.59.06-1.17.11-1.74 0-.06.01-.12.01-.17.03-.31.06-.62.1-.93.53-4.37 1.92-8.51 3.76-12.59.13-.29.26-.58.39-.87.03-.06.06-.12.09-.19.26-.55.52-1.1.79-1.66.36-.73.73-1.47 1.11-2.2.47-.91.95-1.81 1.43-2.71.58-1.07 1.17-2.14 1.75-3.2.01-.01.01-.03.02-.04.48-.88.97-1.77 1.45-2.66.25-.45.49-.91.73-1.36 1.94-3.63 3.77-7.33 5.14-11.16.35-.95.66-1.92.94-2.89.11-.36.21-.73.3-1.1.1-.37.19-.73.27-1.1.08-.32.15-.64.21-.96.01-.04.02-.09.03-.13.08-.38.15-.76.21-1.14s.12-.77.17-1.15c.01-.07.01-.14.02-.21.01-.04.02-.08.02-.12.02-.11.04-.22.04-.33 0-.02.01-.05.01-.07.06-.44.1-.88.13-1.31.05-.54.08-1.07.1-1.6.21-5.6-.74-11.18-2.16-16.68-.26-1.05-.55-2.1-.86-3.16-.65-2.23-1.35-4.47-2.07-6.73-.17-.54-.35-1.09-.52-1.63-.11-.35-.22-.7-.34-1.05-.11-.35-.23-.7-.33-1.05-.21-.65-.42-1.31-.62-1.97-.28-.86-.54-1.73-.8-2.6-.16-.5-.31-1.01-.45-1.52-.04-.11-.07-.22-.1-.33s-.06-.21-.09-.32c-.01-.05-.03-.1-.04-.15-.01-.03-.02-.05-.02-.08-.2-.71-.4-1.41-.58-2.12-.22-.84-.43-1.67-.63-2.51-.16-.69-.32-1.38-.46-2.07-.07-.36-.15-.72-.22-1.08s-.14-.72-.2-1.08c-.01-.05-.02-.09-.03-.14-.15-.83-.28-1.67-.39-2.5l-.18-1.35-.04-.27 1.46-.51c.03-.02.05-.03.08-.03.08-.03.16-.06.25-.08.05-.02.09-.03.14-.04.08-.02.16-.04.24-.05.1-.02.2-.03.3-.04s.19-.02.29-.02c.18 0 .35.01.52.04.54.09 1 .31 1.41.62.14.1.27.22.39.35.18.19.36.4.52.63.1.15.2.31.3.48.81 1.43 1.25 3.38 1.56 5.19 1.65 9.57 8.57 17.39 16.83 19.03.21.04.41.08.6.1.37.06.81.1 1.26.1.19 0 .37-.01.54-.02.56-.05 1.05-.18 1.51-.4.86-.41 1.51-1.12 1.99-1.9.32-.5.58-1.03.78-1.52.08-.19.15-.36.21-.53.12-.33.24-.65.35-.98.12-.33.22-.65.32-.98.31-.99.58-1.99.82-3 .09-.34.17-.68.24-1.02.09-.4.18-.79.28-1.19.08-.34.15-.68.23-1.02.15-.69.3-1.4.47-2.12.07-.37.16-.73.25-1.09.09-.37.18-.74.28-1.11.2-.76.41-1.52.65-2.27.23-.72.48-1.44.76-2.14.26-.63.55-1.27.88-1.89.33-.63.7-1.24 1.1-1.84.2-.3.41-.59.63-.88.43-.57.9-1.12 1.4-1.64s1.02-1 1.58-1.43c1.1-.87 2.32-1.56 3.62-1.99.49-.17.99-.29 1.5-.38.49-.09 1-.13 1.52-.13h.05c.21 0 .42.01.62.02.48.03.96.11 1.42.21s.92.23 1.36.39c.22.08.44.17.66.26s.43.19.65.29c.4.2.8.41 1.19.64.83.49 1.64 1.06 2.44 1.68.78.59 1.54 1.22 2.29 1.83l.11.09c1.59 1.3 2.94 2.38 4.44 3.31 2.23 1.37 4.77 2.3 7.48 2.75h.01c1.24.2 2.52.3 3.82.3 1.53 0 3.06-.14 4.56-.43.14-.02.27-.04.4-.07.56-.12 1.12-.25 1.67-.41.31-.08.62-.17.93-.27 1.04-.34 2.07-.74 3.08-1.21 4.6-2.11 8.86-5.55 12.44-10.08l.03-.05.83-1.43.27.09 1.43.47c2.57 1.08 5.14 2.14 7.73 3.17 3.55 1.43 7.13 2.82 10.72 4.16 2.5.93 5 1.83 7.5 2.71.59.22 1.19.42 1.78.63 1.55.54 3.09 1.07 4.64 1.59 1.54.52 3.08 1.03 4.62 1.53.85.27 1.69.55 2.55.82.85.27 1.7.54 2.55.8 2.7.86 5.42 1.69 8.13 2.51 2.41.73 4.81 1.46 7.19 2.17 1.638.493 3.286.998 4.929 1.495 1.661.501 3.351 1.013 5.061 1.535.58.18 1.15.36 1.74.53.69.22 1.38.43 2.07.65.4.12.8.25 1.21.38.65.2 1.31.41 1.97.62 1.12.35 2.23.71 3.35 1.07 2.43.79 4.86 1.6 7.28 2.43l1.65.57c.35.12.69.24 1.03.36l1.1.39c1.3.46 2.59.93 3.87 1.41 1.9.71 3.76 1.42 5.57 2.15.54.21 1.08.43 1.6.64.66.27 1.32.54 1.97.81 1.16.48 2.31.97 3.45 1.48.64.28 1.28.56 1.91.84.96.43 1.91.86 2.85 1.31.18.09.36.17.53.26.43.2.86.4 1.28.61 1.73.83 3.41 1.68 5.04 2.53.78.41 1.54.82 2.31 1.24.09.05.19.1.28.15 1.44.8 2.87 1.61 4.28 2.45.15.09.31.18.46.28.77.45 1.52.92 2.28 1.39.03.02.06.03.09.06.79.5 1.58 1.01 2.37 1.52 1.57 1.04 3.12 2.1 4.64 3.21.01 0 .02.01.03.02.47.34.94.69 1.4 1.05z" fill="#939baa"/><path d="m511.92 142.97c.02.01.05 0 .08-.01v95.4c-.46-.35-.93-.69-1.4-1.03-.01-.01-.02-.02-.03-.02-.75-.55-1.51-1.09-2.28-1.62-.01-.01-.02-.01-.02-.01-.77-.54-1.55-1.06-2.34-1.58-.78-.52-1.57-1.02-2.37-1.52-.03-.03-.06-.04-.09-.06-.75-.47-1.51-.94-2.28-1.39-.15-.1-.31-.19-.46-.28-1.39-.83-2.82-1.64-4.28-2.45-.09-.05-.19-.1-.28-.15-.76-.41-1.53-.83-2.31-1.24-1.63-.85-3.31-1.7-5.04-2.53-.42-.21-.85-.41-1.28-.61-.17-.09-.35-.17-.53-.26-.94-.45-1.89-.88-2.85-1.31-.63-.28-1.27-.56-1.91-.84-1.14-.51-2.29-1-3.45-1.48-.65-.27-1.31-.54-1.97-.81-.52-.21-1.06-.43-1.6-.64-1.81-.73-3.67-1.44-5.57-2.15-1.27-.47-2.56-.94-3.87-1.41l-1.1-.39-1.03-.37.78-1.55c.44-.88.88-1.75 1.3-2.64.33-.68.65-1.36.97-2.05.33-.71.65-1.42.97-2.14.21-.46.41-.92.61-1.39.31-.69.61-1.39.89-2.09.3-.7.58-1.4.86-2.1.56-1.41 1.1-2.83 1.62-4.25.34-.92.67-1.84.98-2.76.32-.92.63-1.86.93-2.79.61-1.86 1.18-3.73 1.71-5.62.17-.6.34-1.2.5-1.8.17-.64.33-1.27.5-1.91.22-.85.43-1.7.63-2.56l.37-1.6.17-.75.07-.33.47-.17c.57-.17 1.12-.38 1.63-.62.17-.07.34-.15.5-.23 1.03-.51 1.91-1.09 2.56-1.57.42-.31.84-.63 1.24-.97.29-.24.58-.49.85-.73l.03-.03c.31-.28.6-.56.89-.85.07-.06.13-.13.2-.2.23-.23.45-.47.67-.71.12-.13.23-.26.35-.39.49-.56.96-1.15 1.41-1.76.17-.23.34-.47.5-.71.16-.22.31-.45.46-.69.22-.33.43-.67.63-1.02.49-.85.94-1.74 1.33-2.64.14-.3.26-.61.38-.91.12-.31.23-.62.34-.93.24-.69.45-1.38.64-2.09.04-.13.07-.27.11-.4.13-.48.25-.96.35-1.43.02-.06.04-.13.05-.19.09-.37.17-.75.25-1.13.1-.45.2-.91.3-1.37.24-1.13.48-2.27.77-3.39.07-.27.14-.55.21-.82s.15-.54.23-.81c.22-.81.48-1.59.79-2.35.1-.26.2-.51.31-.76.1-.22.2-.44.31-.66.01-.04.03-.08.05-.12.11-.23.23-.46.36-.68.13-.24.26-.47.41-.7.13-.21.27-.42.41-.63.32-.47.68-.92 1.07-1.36.13-.15.27-.28.4-.42.53-.53 1.06-.93 1.6-1.19.29-.14.57-.25.85-.32.12-.03.24-.05.36-.07.19-.03.37-.04.55-.04.17 0 .34.01.51.04.17.02.34.05.51.1.66.17 1.31.49 1.95.85.31.17.62.36.94.55.21.13.42.25.62.38.12.07.24.14.36.2.11.06.21.12.32.18.41.22.83.42 1.26.57.68.23 1.41.35 2.15.35.15 0 .31 0 .46-.02.16-.01.33-.02.5-.05z" fill="#939baa"/><path d="m502.35 115.27c3.13 2.14 6.35 4.16 9.65 6.06v21.63c-.03.01-.06.02-.08.01-.17.03-.34.04-.5.05-.15.02-.31.02-.46.02-.74 0-1.47-.12-2.15-.35-.43-.15-.85-.35-1.26-.57-.11-.06-.21-.12-.32-.18-.12-.06-.24-.13-.36-.2-.21-.12-.41-.25-.62-.37-.31-.19-.63-.38-.94-.56-.64-.36-1.29-.68-1.95-.85-.17-.05-.34-.08-.51-.1-.17-.03-.34-.04-.51-.04-.18 0-.36.01-.55.04-.12.02-.24.04-.36.07-.28.07-.56.18-.85.32-.4.2-.8.48-1.2.82-.13.12-.27.24-.4.37-.13.14-.27.27-.4.42-.39.44-.75.89-1.07 1.36-.14.21-.28.42-.41.63-.15.23-.28.46-.41.7-.13.22-.25.45-.36.68-.02.04-.04.08-.05.12-.11.22-.21.44-.31.66-.11.25-.21.5-.31.76-.31.76-.57 1.54-.79 2.35-.08.27-.16.54-.23.81s-.14.55-.21.82c-.27 1.11-.52 2.24-.77 3.39-.1.46-.2.92-.3 1.37-.08.38-.16.76-.25 1.13-.01.06-.03.13-.05.19-.1.47-.22.95-.35 1.43-.04.13-.07.27-.11.4-.19.71-.4 1.4-.64 2.09-.11.31-.22.62-.34.93-.12.3-.25.61-.38.91-.39.9-.84 1.79-1.33 2.64-.2.35-.41.69-.63 1.02-.15.24-.3.47-.46.69-.16.24-.33.48-.5.71-.45.61-.92 1.2-1.41 1.76-.12.13-.23.26-.35.39-.22.24-.44.48-.67.71-.07.07-.13.14-.2.2-.29.29-.58.57-.89.85l-.03.03c-.27.24-.56.49-.85.73-.4.34-.82.66-1.24.97-.65.48-1.53 1.06-2.56 1.57-.16.08-.33.16-.5.23-.51.24-1.06.45-1.63.62l-.24.07-.25.01-.22.1-.14.03c-.62.13-1.23.19-1.83.19l-.26-.01c-.64-.03-1.13-.09-1.6-.22-.5-.13-.97-.31-1.41-.52-.21-.11-.41-.22-.6-.34-.18-.1-.35-.22-.52-.35-.17-.12-.33-.25-.49-.39-.14-.12-.27-.24-.4-.37-.03-.02-.06-.05-.09-.09-.14-.14-.27-.28-.39-.42-.1-.11-.2-.22-.28-.33-.1-.12-.2-.25-.29-.39-.09-.12-.17-.24-.25-.36-.09-.15-.18-.29-.27-.44-.11-.18-.21-.36-.3-.55-.14-.27-.26-.54-.37-.81-.23-.55-.42-1.11-.56-1.67-.07-.28-.14-.56-.19-.84-.04-.23-.07-.45-.1-.67-.07-.62-.11-1.25-.11-1.87 0-.25.01-.49.02-.74.01-.19.02-.37.03-.56.01-.15.02-.29.04-.44.08-.86.21-1.71.37-2.55.1-.51.22-1.02.34-1.53.2-.83.42-1.65.65-2.44.11-.37.22-.74.32-1.1l2.92-10.2c.12-.43.23-.86.32-1.3.16-.84.21-1.68-.03-2.41-.12-.36-.3-.68-.57-.96 0-.01 0-.01-.01-.02-.13-.14-.28-.26-.44-.36-.1-.06-.2-.12-.31-.17-.06-.04-.13-.07-.2-.09-.1-.04-.22-.08-.33-.11-.15-.04-.31-.07-.47-.09h-.04c-.17-.02-.35-.03-.53-.03-.33 0-.67.03-1.04.09-.17.03-.35.07-.54.11-.19.05-.39.1-.59.16-.32.1-.64.2-.96.3-.56.2-1.12.41-1.67.64-1.62.66-3.2 1.46-4.87 2.3-1.36.68-2.74 1.38-4.15 1.99-.89.4-1.8.75-2.73 1.05-.34.12-.68.22-1.03.32-.23.07-.47.12-.71.17-.21.04-.42.08-.63.11-.1.02-.2.03-.3.04-.18.02-.36.04-.53.05-.24.02-.48.03-.71.03-.36 0-.79-.02-1.26-.09-.2-.03-.39-.07-.58-.12-.02 0-.04 0-.05-.01-1.11-.28-1.99-.81-2.57-1.56-.1-.13-.19-.26-.27-.4-.05-.09-.1-.18-.15-.28-.06-.13-.11-.26-.16-.4-.09-.27-.15-.54-.19-.82-.02-.13-.04-.27-.05-.41-.04-.51-.02-1.03.02-1.51.01-.19.03-.39.05-.6.04-.37.08-.73.12-1.08.08-.65.18-1.27.29-1.88l.07-.36c.47-2.33 1.28-4.81 2.67-6.85l.1-.62.42-.48s.02-.01.02-.02c1.77-1.8 3.54-3.63 5.28-5.46.71-.74 1.42-1.49 2.12-2.24 1.08-1.15 2.15-2.29 3.21-3.44 1.06-1.14 2.1-2.27 3.13-3.38.54-.59 1.08-1.17 1.62-1.74.55-.59 1.1-1.18 1.66-1.79 3.01-3.23 6.21-6.63 9.4-9.92.59-.6 1.18-1.2 1.77-1.8h.01l.2-.2c.09-.09.19-.19.3-.29.01-.02.03-.04.05-.05.29-.28.63-.59 1.02-.89h.01c.27-.21.55-.41.86-.58.1-.06.2-.12.3-.17s.2-.1.3-.14c.23-.1.46-.19.69-.24.08-.03.16-.05.25-.06.11-.03.21-.04.32-.05.11 0 .22-.01.33-.01.24 0 .48.03.71.08.14.03.28.07.41.12s.26.1.39.17c.13.06.25.13.37.2.62.38 1.16.9 1.7 1.42.7.68 1.4 1.34 2.12 2 1.1 1.02 2.2 2.02 3.33 3 .15.13.3.26.45.39.59.51 1.19 1.02 1.79 1.52.02.02.05.04.07.06.64.54 1.29 1.07 1.94 1.6.68.54 1.36 1.08 2.04 1.61s1.37 1.06 2.07 1.58c.69.52 1.39 1.03 2.09 1.54 1.02.74 2.06 1.47 3.1 2.19.01.01.01 0 .01 0z" fill="#fff"/><path d="m512 37.68v83.67c-2.48-1.43-4.9-2.92-7.28-4.49-.8-.52-1.58-1.05-2.37-1.59h-.01c-1.04-.72-2.08-1.45-3.1-2.19-.7-.51-1.4-1.02-2.09-1.54-.7-.52-1.39-1.05-2.07-1.58s-1.36-1.07-2.04-1.61c-.65-.53-1.3-1.06-1.94-1.6-.02-.02-.05-.04-.07-.06-.6-.5-1.2-1.01-1.79-1.52-.15-.13-.3-.26-.45-.39-1.13-.98-2.23-1.98-3.33-3-.72-.66-1.42-1.32-2.12-2-.54-.52-1.08-1.04-1.7-1.42-.12-.08-.24-.15-.37-.2-.13-.07-.26-.13-.39-.17-.14-.06-.28-.1-.42-.13-.23-.05-.46-.08-.7-.08-.06 0-.11 0-.16.01-.06-.01-.12 0-.17.01-.11.01-.21.02-.32.05-.09.01-.17.03-.25.06-.23.05-.46.14-.69.24-.1.04-.2.09-.3.14s-.2.11-.3.17c-.31.17-.59.37-.86.58h-.01c-.39.3-.73.61-1.02.89-.02.01-.04.03-.05.05-.11.1-.21.2-.3.29l-.2.2c-.59.6-1.18 1.2-1.78 1.8-3.19 3.29-6.39 6.69-9.4 9.92-.56.61-1.11 1.2-1.66 1.79-.54.59-1.08 1.17-1.61 1.74l-.09.1c-.49.53-.97 1.05-1.47 1.58-.52.56-1.05 1.13-1.58 1.7-1.06 1.15-2.13 2.29-3.21 3.44-.7.75-1.41 1.5-2.12 2.24-1.74 1.83-3.51 3.66-5.28 5.46 0 .01-.02.02-.02.02-1.53 1.56-3.07 3.1-4.64 4.63l-1.97 1.87c-1.23 1.17-2.44 2.29-3.63 3.37-.19.17-.38.35-.57.52-.88.79-1.76 1.56-2.62 2.31-.44.38-.87.75-1.3 1.11-2.16 1.83-4.27 3.53-6.38 5.12-.96.73-1.94 1.45-2.93 2.16-1.97 1.42-3.98 2.79-6.01 4.13-.89.59-1.78 1.17-2.67 1.74-4.23 2.71-8.51 5.29-12.73 7.83-.04.02-.07.04-.11.06-2.04 1.23-4.14 2.5-6.28 3.81-.09.05-.18.11-.27.16-.96.58-1.92 1.18-2.88 1.78-2.63 1.64-5.25 3.32-7.84 5.07l-1.92 1.32c-.64.45-1.28.89-1.92 1.35-.61.44-1.23.88-1.83 1.32-.65.49-1.3.97-1.94 1.46l-1.12.86c-.21.16-.43.33-.64.5l-.93.73-.01.01-.03-.01h-.01l-1.06-.47c-.84-.36-1.68-.73-2.52-1.11-1.02-.45-2.03-.9-3.04-1.36-2.03-.91-4.05-1.83-6.06-2.77-5.02-2.35-10.01-4.8-14.95-7.33-1.32-.67-2.63-1.35-3.94-2.04-3.6-1.89-7.18-3.83-10.73-5.81-1.94-1.08-3.87-2.18-5.79-3.29-5.77-3.33-11.46-6.79-17.07-10.37-1.83-1.16-3.64-2.33-5.44-3.51-1.98-1.31-3.95-2.63-5.91-3.96-1.41-.96-2.82-1.93-4.22-2.91-.72-.5-1.44-1-2.16-1.51-3.25-2.28-6.47-4.62-9.66-6.99-.99-.73-1.97-1.44-2.97-2.02-.24-.15-.49-.28-.75-.41-.16-.08-.31-.16-.47-.23-.26-.12-.53-.24-.81-.33-.15-.05-.3-.11-.45-.15-.13-.04-.26-.08-.39-.11-.11-.03-.22-.06-.34-.08-.19-.04-.37-.07-.56-.09-.14-.02-.28-.04-.43-.04-.14-.02-.29-.02-.43-.02-.34 0-.69.03-1.03.09-.21.04-.41.08-.61.14-.2.05-.4.12-.6.2-.2.07-.39.15-.58.24-.12.06-.25.12-.37.18-.11.06-.22.11-.32.17-.68.37-1.31.78-1.87 1.16-9.5 6.32-19.2 12.76-29.02 19.09-1.47.95-2.94 1.9-4.42 2.84-1.31.85-2.63 1.69-3.95 2.52-3.77 2.39-7.55 4.76-11.34 7.08-4.49 2.75-9 5.45-13.54 8.1-1.65.95-3.28 1.9-4.93 2.84-.08.04-.15.08-.22.12-.75.43-1.49.85-2.23 1.26-.05.03-.1.06-.15.08-.76.43-1.52.86-2.28 1.27-.98.54-1.95 1.08-2.92 1.61-.97.54-1.93 1.06-2.89 1.57-.64.35-1.28.69-1.91 1.02-.05.03-.1.05-.15.08-.11.06-.23.12-.34.18-.29.16-.59.32-.89.47-.82.44-1.64.87-2.45 1.29-.31.16-.62.32-.92.48l-.87-.45-.02-.01-.17-.09-.1-.07c-.64-.4-1.28-.8-1.93-1.2-11.9-7.38-26.71-16.55-40.83-25.68l-.93-.6-.28-.18-2.47-1.61c-7.72-5.03-14.87-9.8-21.58-14.42-.99-.68-1.97-1.36-2.94-2.04-1.22-.84-2.43-1.69-3.63-2.53-2.02-1.43-4.03-2.86-6.04-4.3-4.03-2.9-8.02-5.83-11.98-8.81-1.97-1.49-3.94-3-5.89-4.51-.04-.03-.08-.06-.12-.09-.02-.01-.04-.03-.06-.04-.13-.1-.26-.2-.39-.3s-.28-.2-.43-.3c-.23-.16-.48-.31-.74-.44s-.53-.24-.81-.31c-.14-.04-.28-.06-.42-.08-.01-.01-.02-.01-.03-.01-.07-.01-.14-.01-.21-.01-.06-.01-.13-.01-.2-.01-.16 0-.33.01-.49.04-.08.01-.16.02-.24.04-.06.01-.11.02-.17.04s-.12.03-.18.05c-.11.04-.23.08-.34.13-.11.04-.22.09-.33.15-.25.11-.5.26-.74.43-.18.12-.36.26-.54.4-.17.13-.34.27-.49.41-.19.17-.38.35-.57.54-.09.09-.19.18-.28.28-.09.09-.19.19-.28.29-4.18 4.37-8.43 8.71-12.75 12.98-1.39 1.38-2.78 2.75-4.18 4.11-.27.29-.55.55-.82.8-1.28 1.26-2.57 2.5-3.87 3.74-.15.15-.3.3-.46.44-1.4 1.34-2.8 2.67-4.21 3.99-1.52 1.44-3.06 2.86-4.59 4.27-1.19 1.1-2.38 2.19-3.58 3.27-.81.75-1.62 1.48-2.43 2.21-1.13 1.01-2.25 2.02-3.39 3.02-.43.4-.87.78-1.31 1.16l-.49.12-.17.48-.42.35c-2.95 2.59-5.92 5.16-8.9 7.7-1.49 1.26-2.99 2.53-4.49 3.78s-3 2.5-4.51 3.73c-1.35 1.12-2.71 2.22-4.08 3.32-1.34 1.09-2.69 2.17-4.04 3.24-1.21.97-2.43 1.92-3.65 2.88-1.19.93-2.39 1.87-3.59 2.79v-155.23c2-.92 4.15-1.82 6.41-2.63.79-.3 1.57-.57 2.34-.82.9-.29 1.82-.57 2.76-.83.46-.12.91-.24 1.36-.36.87-.22 1.76-.42 2.66-.59.37-.08.74-.14 1.1-.21.15-.02.29-.05.43-.07.37-.06.73-.12 1.1-.17.43-.07.86-.13 1.3-.18 1.65-.19 3.32-.29 4.95-.29.26 0 .52 0 .78.02.13 0 .26 0 .38.01.28 0 .56.01.83.03.33.01.66.03.99.06.3.02.6.05.9.07l.3.03c.55.05 1.1.12 1.64.21.66.1 1.31.21 1.95.34.09.03.19.05.29.06.67.14 1.34.31 1.99.49.33.09.66.18.98.28.32.09.64.19.96.3 4.75 1.6 8.9 4.17 12.03 7.54 7.01 7.54 9.5 19.41 6.66 31.75-.1.44-.21.88-.33 1.32-.05.25-.12.5-.19.74-.01.05-.02.1-.04.15-.1.4-.22.79-.34 1.19-.17.57-.35 1.14-.53 1.71-.18.55-.37 1.09-.57 1.63-.04.12-.09.24-.13.36-.16.43-.32.85-.49 1.28-.22.56-.44 1.12-.67 1.67-.22.52-.45 1.04-.68 1.56-.36.79-.72 1.59-1.1 2.37-.38.79-.77 1.57-1.17 2.34-.53 1.03-1.07 2.05-1.63 3.06-.28.5-.56 1-.84 1.5-.85 1.49-1.71 2.96-2.58 4.41l-.92 1.54c-.73 1.19-1.45 2.37-2.18 3.55 1.59-.64 3.19-1.29 4.8-1.91l.73-.28c1.66-.64 3.41-1.28 5.23-1.88.28-.09.56-.18.85-.27.86-.28 1.72-.54 2.58-.77.14-.04.29-.08.43-.12.66-.18 1.34-.35 2.02-.51.08-.02.15-.04.23-.06.74-.17 1.48-.33 2.23-.46 1.53-.28 3.08-.5 4.64-.62.47-.04.94-.07 1.41-.09.46-.02.94-.04 1.41-.04h.27c.27 0 .54 0 .81.01.36.01.72.02 1.07.05 5.42.38 11.34 2.27 15.79 5.94.1.08.2.16.3.25.23.19.46.4.68.61.19.17.37.35.56.54.03.02.05.04.06.06.25.25.49.51.72.78.28.31.54.64.8.97.02.03.05.06.07.09l.09.12c.69.92 1.3 1.92 1.82 2.99.26-.88.59-1.72.97-2.53 1.5-3.15 3.89-5.73 6.75-7.7.01-.01.03-.03.05-.03 4.6-3.18 10.41-4.8 15.71-4.8.37 0 .75.01 1.12.02.04 0 .08 0 .12.01.17 0 .34.01.51.03.17.01.34.02.51.04.32.03.63.06.95.09.36.04.71.08 1.06.14.33.05.66.1.99.16.55.09 1.1.2 1.64.32.28.06.56.12.83.19 1.23.3 2.43.66 3.61 1.06.29.1.57.2.86.3.86.31 1.7.65 2.53 1 .28.12.55.24.82.36.68.3 1.34.62 2 .94.61.3 1.2.6 1.79.93.06.02.12.06.18.09.54.29 1.08.58 1.6.89.6.33 1.18.68 1.75 1.03s1.15.71 1.72 1.07 1.14.73 1.71 1.11c.55.36 1.07.72 1.59 1.07l.19.13c1.08.74 2.15 1.5 3.2 2.26-.76-4.36.26-9.45 2.99-14.01.04-.08.08-.15.13-.21 2.75-4.52 7.19-8.5 13.21-10.7 1.78-.65 3.64-1.14 5.57-1.46.97-.16 1.95-.29 2.95-.37s2.01-.12 3.04-.12c.39 0 .78.01 1.18.02.37.01.75.03 1.13.05h.1c.28.02.55.04.83.07.76.05 1.53.13 2.31.24 1.56.19 3.14.48 4.74.86.3.07.61.15.92.22 1.03.26 2.07.56 3.13.88.28.09.57.19.86.28l.85.28c1.29.44 2.59.94 3.9 1.48-.86-1.24-1.56-2.57-2.11-3.97-.09-.24-.17-.47-.25-.71-.09-.23-.16-.47-.23-.71-.17-.55-.31-1.11-.42-1.67-.05-.24-.1-.48-.14-.73-.05-.29-.09-.59-.13-.89s-.07-.6-.1-.9c-.14-1.6-.1-3.24.13-4.9.05-.35.1-.69.16-1.04.27-1.59.7-3.19 1.3-4.78.19-.49.38-.97.59-1.44 0 0 0 0 0-.01.22-.47.44-.93.67-1.39v-.01c.72-1.38 1.53-2.68 2.43-3.89.6-.81 1.25-1.58 1.93-2.3.34-.36.69-.71 1.05-1.05.54-.51 1.1-.99 1.67-1.44.57-.46 1.16-.88 1.77-1.27.4-.27.81-.51 1.23-.75 1.67-.94 3.43-1.66 5.25-2.11 1.87-.47 3.82-.71 5.79-.71 3.38 0 6.82.7 10.13 2.06.6.25 1.2.51 1.79.8.4.2.8.4 1.2.62.48.26.95.53 1.42.82 0 0 .01 0 .01.01.44.27.87.55 1.29.84s.84.59 1.25.9c.41.29.81.61 1.2.95.01-.01.02 0 .02.01.44.37.88.75 1.3 1.14 1.1 1.03 2.12 2.13 3.06 3.28 1.56 1.93 2.88 4.02 3.92 6.21.84 1.79 1.49 3.64 1.92 5.52.54-1.92 1.13-3.76 1.79-5.52l.02-.07c.37-.98.75-1.93 1.16-2.86.14-.33.28-.66.43-.99.07-.16.14-.31.22-.47.16-.34.32-.67.47-1 .04-.07.08-.14.11-.21.19-.37.37-.73.56-1.09.22-.41.44-.81.67-1.21.19-.34.38-.67.58-1 .05-.08.09-.16.14-.24.21-.34.42-.68.64-1.01.02-.04.04-.07.06-.09.19-.3.39-.6.6-.9.1-.15.2-.3.3-.44.18-.26.37-.52.56-.77.25-.35.51-.69.78-1.02.18-.23.37-.47.56-.69.23-.28.47-.56.72-.83.21-.25.44-.5.67-.74.06-.07.12-.13.19-.2.27-.29.55-.57.83-.84.12-.13.24-.25.37-.36.22-.22.46-.43.69-.64.07-.05.14-.11.2-.17.32-.28.64-.55.96-.81 0 0 0-.01.01-.01 1.31-1.05 2.69-1.98 4.13-2.77.01-.01.01-.01.01-.01.25-.14.5-.27.75-.4 3.79-1.93 7.93-2.98 11.97-2.98 1.29 0 2.55.11 3.78.32.01-.01.01-.01.02 0 .4.07.8.16 1.2.25.01 0 .02 0 .03.01.53.13 1.06.28 1.57.45.3.1.6.21.89.32.4.16.8.33 1.18.51.39.17.76.36 1.13.56.31.16.62.34.91.52.34.2.67.41.99.63.2.13.4.27.59.42.19.13.37.27.55.41.05.03.1.07.14.12.24.18.48.37.72.58.1.08.19.16.28.25.25.21.49.44.73.68.29.27.58.56.85.86.01.01.02.02.03.03.24.26.48.53.71.8.06.05.1.11.14.16.24.29.48.58.71.89.23.29.45.59.67.9.27.37.53.75.77 1.13.22.35.44.71.66 1.07.19.32.38.65.56.98.36.64.7 1.31 1.02 1.99.34.69.65 1.38.93 2.09.15.36.3.72.44 1.08.29.73.55 1.46.8 2.2.29.85.56 1.72.82 2.59.13.44.26.88.37 1.32.13.45.25.9.37 1.36.22.88.43 1.78.63 2.67.24 1.04.45 2.07.65 3.09.16.79.3 1.58.45 2.37l.05.29c.14.82.28 1.63.41 2.44.59-.67 1.2-1.34 1.81-2.01l.19-.21c.54-.57 1.07-1.13 1.63-1.69.64-.65 1.31-1.32 2.03-2 .33-.31.68-.63 1.04-.94.32-.3.66-.59 1-.87.05-.04.1-.08.15-.13.76-.64 1.56-1.26 2.39-1.86.63-.44 1.27-.88 1.94-1.29.21-.13.44-.26.66-.4.63-.37 1.28-.72 1.94-1.03.28-.12.56-.25.84-.38.48-.2.96-.39 1.45-.57.24-.08.49-.17.74-.24.22-.07.44-.14.67-.2.19-.05.37-.1.56-.14.27-.07.54-.13.82-.18.28-.06.56-.11.84-.14.83-.13 1.69-.19 2.55-.19.51 0 1.04.02 1.55.07.29.03.59.06.88.1.28.05.57.1.85.15 8.51 1.73 14.49 10.31 16.1 18.78.06.3.11.59.15.89.03.12.04.25.06.38.09.64.15 1.28.19 1.91.04.64.05 1.28.05 1.92v.11c0 .38-.01.77-.02 1.15-.01.2-.02.41-.03.61-.02.32-.04.63-.06.94-.01.24-.03.48-.06.73-.02.16-.03.31-.05.47-.02.21-.04.42-.07.64-.04.31-.08.61-.13.92-.04.31-.09.62-.14.92-.05.31-.1.61-.16.92-.12.61-.25 1.21-.38 1.82-.07.3-.14.6-.22.9-.07.3-.15.6-.23.9-.15.6-.32 1.2-.5 1.79-.08.3-.17.6-.27.89-.09.3-.18.59-.28.88-.09.3-.19.59-.3.88-.91 2.68-1.97 5.3-3.06 7.85l-.31.72c-.59 1.36-1.19 2.7-1.77 4.02 1.43-.83 2.96-1.51 4.56-2.06.14-.05.27-.09.41-.13.49-.16.99-.31 1.5-.43.52-.14 1.05-.26 1.58-.37.32-.06.64-.12.97-.17.07-.01.15-.02.23-.04.34-.05.69-.1 1.05-.14.39-.05.79-.09 1.19-.12.79-.07 1.6-.1 2.41-.1.95 0 1.9.04 2.85.14.75.06 1.5.15 2.24.28.34.04.67.1 1.01.17 1.5.28 3 .68 4.47 1.18.49.17.98.35 1.47.54.24.09.47.19.7.28.06.02.13.04.19.08.25.1.5.21.75.33.27.11.54.24.8.37.27.12.53.25.78.39.27.13.52.26.78.41.25.14.5.28.75.43.25.14.51.29.75.45.18.1.35.21.52.33.11.06.23.14.35.23.19.12.38.25.57.38.24.16.47.32.7.5.46.34.91.69 1.35 1.05.19.16.38.32.57.47.05.04.1.09.16.14.33.28.64.57.95.86.16.15.32.31.48.47.04.03.07.06.09.09.29.28.56.56.82.84.19.2.37.41.56.62.21.23.41.46.6.69.14.16.27.33.38.49.24.28.46.56.66.85.29.39.57.79.83 1.19.48.72.91 1.45 1.31 2.21.11.19.2.38.3.57.16.33.32.66.47.99.41.91.76 1.84 1.06 2.79h.02c.04-.04.08-.07.12-.11.53-.47 1.03-.97 1.51-1.49l.61-.68c.22-.23.42-.47.61-.71.21-.24.41-.48.59-.73l.57-.75c.2-.25.38-.51.56-.77.47-.67.93-1.35 1.36-2.05.3-.47.59-.94.87-1.41.25-.41.49-.83.72-1.26.07-.11.13-.21.18-.32.27-.45.52-.9.76-1.36.63-1.17 1.24-2.34 1.85-3.51.03-.04.05-.09.07-.13.34-.65.67-1.3 1.01-1.94.37-.7.74-1.4 1.12-2.1.49-.89.99-1.77 1.5-2.63.54-.9 1.1-1.78 1.68-2.63 2.51-3.68 5.5-6.75 9.64-8.61.31-.14.62-.26.93-.38.41-.15.82-.3 1.24-.42.54-.17 1.1-.31 1.66-.43 1.33-.27 2.7-.41 4.11-.41 1.65 0 3.31.19 4.98.52.55.11 1.1.24 1.66.39h.01c.25.07.51.14.77.22.38.1.76.21 1.14.35.4.12.8.26 1.2.41 1.33.48 2.7 1.06 4.12 1.73.47.22.95.46 1.44.7.48.25.97.5 1.47.77.25.14.5.27.75.41.51.27 1.02.57 1.53.87.26.15.52.3.78.46.52.31 1.05.63 1.59.96l.19.12c1.35.84 2.68 1.71 3.96 2.58-.52-1.67-.91-3.36-1.18-5.06-.05-.31-.1-.62-.13-.94-.05-.26-.08-.53-.1-.8-.01-.03-.02-.06-.01-.1-.06-.44-.1-.88-.13-1.32-.03-.46-.06-.91-.08-1.37-.01-.22-.01-.44-.01-.66-.02-.69-.01-1.38.01-2.06 0-.06 0-.12.01-.18.01-.41.04-.81.07-1.22.02-.31.05-.63.08-.94.06-.61.14-1.21.23-1.8.17-1.11.4-2.2.67-3.28.09-.36.19-.71.29-1.07.08-.28.17-.56.26-.84s.18-.56.28-.84c.09-.28.19-.55.3-.82.11-.29.22-.58.34-.87.22-.52.45-1.03.69-1.54.25-.52.51-1.03.79-1.53.14-.25.28-.5.42-.75.44-.74.9-1.45 1.4-2.14.16-.23.33-.46.5-.69.86-1.13 1.8-2.18 2.82-3.14.4-.38.82-.75 1.24-1.1l.01-.01c.22-.17.43-.34.65-.51.24-.18.48-.36.73-.55.75-.52 1.55-1 2.39-1.44 3.32-1.73 7.19-2.66 11.21-2.66 1.98 0 3.94.23 5.83.68.23.06.46.11.69.19.42.11.84.23 1.26.37.17.05.34.11.5.17.28.1.56.2.83.31.26.11.52.21.78.33.25.11.5.23.75.35.24.12.49.25.73.38s.48.26.71.4.46.28.69.43.45.3.67.45c.99.68 1.88 1.45 2.68 2.31.28.28.54.57.79.87.12.14.24.28.35.42.79 1 1.47 2.08 2.02 3.24.29-1.53.69-3.04 1.18-4.52 4.37-13.08 16.22-23.73 29.8-26.67z" fill="#fff"/><path d="m0 0h512v37.65c-13.55 2.91-25.44 13.39-29.8 26.7-.03.08-.06.15-.08.23l-1.1 3.45-2.02-2.4c-.112-.143-.235-.277-.351-.416-1.011-1.201-2.176-2.266-3.469-3.184-.22-.15-.44-.3-.67-.45s-.46-.29-.69-.43-.47-.27-.71-.4-.49-.26-.73-.38c-.25-.12-.5-.24-.75-.35-.26-.12-.52-.22-.78-.33-.27-.11-.55-.21-.83-.31-.16-.06-.33-.12-.5-.17-.42-.14-.84-.26-1.26-.37-.23-.07-.45-.13-.68-.18-1.88-.45-3.83-.68-5.8-.68-3.99 0-7.92.95-11.25 2.65-.84.44-1.64.92-2.39 1.44-.25.18-.49.36-.73.54-.22.17-.44.34-.65.52l-.01.01c-.42.35-.84.72-1.24 1.1-1.02.96-1.96 2.01-2.82 3.14-.17.23-.34.46-.5.69-.5.69-.96 1.4-1.4 2.14-.15.24-.29.5-.42.75-.28.5-.54 1.01-.79 1.53-.25.51-.47 1.02-.69 1.54-.12.29-.23.58-.34.87-.11.27-.21.54-.3.82-.1.28-.19.56-.28.84-.72 2.23-1.21 4.57-1.45 6.99-.03.31-.06.63-.08.94-.11 1.36-.13 2.74-.08 4.12.01.46.04.91.08 1.37.03.44.07.88.13 1.32-.01.04 0 .07.01.1.02.27.05.54.1.8.03.32.08.63.13.94.01.11.03.21.05.32l.75 4.38-3.58-2.22-.19-.12c-.54-.33-1.07-.65-1.59-.96-1.05-.63-2.07-1.2-3.06-1.74-.5-.27-.99-.52-1.47-.77-.49-.24-.97-.48-1.44-.7-1.42-.67-2.79-1.25-4.12-1.73-.4-.15-.8-.29-1.2-.41-.38-.14-.76-.25-1.14-.35-.26-.09-.52-.16-.77-.22-.01-.01-.01 0-.01 0-2.34-.63-4.54-.93-6.64-.93-1.41 0-2.78.14-4.11.43-.56.11-1.11.25-1.66.43-.42.12-.83.27-1.24.42-.31.12-.62.25-.92.39-5.07 2.26-8.47 6.48-11.33 11.23-.51.86-1.01 1.74-1.5 2.63-.73 1.34-1.44 2.69-2.14 4.04l-.06.13c-.61 1.17-1.22 2.34-1.85 3.51-.25.46-.5.91-.76 1.36-.05.11-.11.21-.18.32-.23.43-.47.85-.72 1.26-.28.47-.57.94-.87 1.41-.43.7-.89 1.38-1.36 2.05-.18.26-.37.52-.56.77l-.57.75c-.19.24-.39.49-.59.73s-.4.48-.61.71l-.61.68-1.45 1.63-.06-.14-1.2-2.68c-.15-.33-.31-.66-.47-.99-.1-.19-.19-.38-.3-.57-.4-.76-.83-1.49-1.31-2.21-.26-.4-.54-.8-.83-1.19-.2-.29-.42-.57-.66-.85-.11-.16-.24-.33-.38-.49-.19-.23-.39-.46-.6-.69-.17-.21-.36-.42-.56-.62-.73-.79-1.51-1.55-2.34-2.26-.06-.05-.11-.1-.16-.14-.19-.17-.38-.33-.57-.47-.44-.37-.89-.72-1.35-1.05-.23-.18-.46-.34-.7-.5-.19-.14-.38-.27-.57-.38-.12-.09-.24-.17-.35-.23-.17-.12-.34-.23-.52-.33-.24-.16-.5-.31-.75-.45-.25-.15-.5-.3-.75-.43-.26-.15-.51-.28-.78-.41-.25-.14-.51-.27-.78-.39-.26-.13-.53-.26-.8-.37-.25-.12-.5-.23-.75-.33-.06-.04-.13-.06-.19-.08-.23-.1-.47-.2-.7-.29-.49-.19-.98-.37-1.47-.53-1.47-.5-2.97-.9-4.47-1.18-.34-.07-.67-.13-1.01-.17-.74-.13-1.49-.22-2.24-.28-.94-.09-1.88-.13-2.83-.13-.82 0-1.63.03-2.43.09-.4.03-.8.07-1.19.12-.36.04-.71.09-1.05.14-.08.02-.16.03-.23.04-.33.05-.65.11-.97.17-.53.11-1.06.23-1.58.37-.51.12-1.01.27-1.5.43-.14.04-.27.08-.41.13l-4.24 1.44 1.45-3.4.31-.72c1.09-2.55 2.15-5.17 3.06-7.85.11-.29.21-.58.3-.88.1-.29.19-.58.28-.88.1-.29.19-.59.27-.89.18-.59.35-1.19.5-1.79.09-.3.17-.6.23-.9.08-.3.15-.6.22-.9.14-.6.27-1.21.38-1.82.06-.31.11-.61.16-.92.06-.31.1-.61.14-.92.05-.31.09-.61.13-.92.03-.22.05-.43.07-.64.02-.16.03-.31.05-.47.03-.25.05-.49.06-.73.02-.31.04-.62.06-.94.01-.2.02-.41.03-.61.01-.38.02-.77.02-1.15v-.11c0-.63-.02-1.28-.06-1.92-.04-.63-.1-1.27-.18-1.91-.02-.13-.03-.26-.06-.38-1.39-9.47-8.1-19.03-17.98-19.93-.51-.04-1.04-.07-1.56-.07-.86 0-1.71.07-2.54.2-.28.03-.56.08-.84.14-.28.05-.55.11-.82.18-.19.04-.37.09-.56.14-.23.06-.45.13-.67.2-.25.07-.5.16-.74.24-.49.18-.97.37-1.45.57-.28.13-.56.26-.84.38-.66.32-1.31.67-1.94 1.03-.22.14-.45.27-.66.4-.67.41-1.31.85-1.94 1.29-.83.6-1.63 1.22-2.39 1.86-.05.05-.1.09-.15.13-.34.28-.68.57-1 .87-.36.31-.71.63-1.04.94-.72.68-1.39 1.35-2.03 2-.56.56-1.09 1.12-1.63 1.69l-.19.21-1.79 1.87-.43-2.3-.05-.29-.24-1.25c-.07-.37-.14-.75-.21-1.12-.2-1.02-.41-2.05-.65-3.09-.19-.88-.4-1.78-.63-2.67-.12-.46-.24-.91-.37-1.36-.11-.44-.24-.88-.37-1.32-.25-.87-.52-1.74-.82-2.59-.99-2.93-2.21-5.76-3.75-8.34-.2-.36-.42-.72-.66-1.07-.24-.38-.5-.76-.77-1.13-.2-.3-.43-.6-.67-.9-.22-.3-.46-.6-.71-.89-.04-.05-.08-.11-.14-.16-.22-.27-.46-.54-.71-.8-.01-.01-.02-.02-.03-.03-.27-.3-.56-.59-.85-.86-.24-.24-.48-.47-.73-.68-.09-.09-.18-.17-.28-.25-.24-.21-.48-.4-.72-.58-.04-.05-.09-.09-.14-.12-.18-.15-.36-.28-.55-.41-.19-.15-.39-.29-.59-.42-.32-.22-.65-.43-.99-.63-.29-.18-.6-.36-.91-.52-.37-.2-.74-.39-1.13-.56-.38-.18-.78-.35-1.18-.51-.29-.11-.59-.22-.89-.32-2.1-.7-4.35-1.06-6.7-1.06-4.26 0-8.65 1.21-12.62 3.41 0 0 0 0-.01.01-1.44.79-2.82 1.72-4.13 2.77-.01 0-.01.01-.01.01-.33.26-.65.52-.96.8-.3.27-.6.54-.89.82-.13.11-.25.23-.37.36-.28.27-.56.55-.83.84-.07.07-.13.13-.19.2-.23.24-.46.49-.67.74-.25.27-.49.55-.72.83-.19.22-.38.46-.56.69-.27.33-.53.67-.78 1.02-.19.25-.38.51-.56.77-.1.14-.2.29-.3.44-.21.3-.41.6-.6.9-.02.02-.04.05-.06.09-.22.33-.43.67-.64 1.01-.05.08-.09.16-.14.24-.2.33-.39.66-.58 1-.23.4-.45.8-.67 1.21-.19.36-.37.72-.56 1.09-.03.07-.07.14-.11.21-.15.33-.31.66-.47 1-.08.16-.15.31-.22.47-.15.33-.29.66-.43.99-.41.93-.79 1.88-1.16 2.86l-.02.07-1.65 4.42-2.02-4.35c-.01-.02-.02-.05-.04-.07-1.86-4.02-4.73-7.69-8.28-10.63 0-.01-.01-.02-.02-.01-.39-.34-.79-.66-1.2-.95-.41-.32-.82-.62-1.25-.9-.42-.3-.85-.58-1.29-.84 0-.01-.01-.01-.01-.01-.47-.29-.94-.56-1.42-.82-.4-.22-.8-.42-1.2-.62-.59-.29-1.19-.55-1.79-.8-3.31-1.36-6.75-2.06-10.13-2.06-1.97 0-3.92.24-5.79.71-1.82.45-3.58 1.17-5.25 2.11-.42.24-.83.48-1.23.75-.61.4-1.2.82-1.77 1.27s-1.13.93-1.67 1.44c-.36.34-.71.69-1.05 1.05-.68.72-1.33 1.49-1.93 2.3-.91 1.21-1.73 2.51-2.43 3.89v.01c-.24.46-.46.92-.67 1.39v.01c-.21.47-.41.95-.59 1.44-.6 1.59-1.03 3.19-1.3 4.78-.35 2.01-.45 4-.29 5.94.03.3.06.6.1.9s.08.6.13.89c.04.25.09.49.14.73.11.56.25 1.12.42 1.67.07.24.14.48.23.71.03.11.07.23.11.34l.14.37 1.26 3.49-3.05-1-.85-.28c-.29-.09-.58-.19-.86-.28-1.06-.32-2.1-.62-3.13-.88-.31-.07-.62-.15-.92-.22-1.61-.37-3.19-.66-4.74-.86-.78-.11-1.55-.19-2.31-.24-.28-.03-.55-.05-.83-.07h-.1c-.38-.02-.76-.04-1.13-.05-.4-.01-.79-.02-1.18-.02-1.03 0-2.04.04-3.04.12-1 .09-1.98.21-2.95.37-1.92.33-3.78.82-5.56 1.47-4.94 1.8-10 5.64-13.22 10.69-.05.06-.09.13-.13.21-1.87 2.99-3.09 6.41-3.25 10.06l-.16 3.59-2.78-1.9-.19-.13c-.52-.35-1.04-.71-1.59-1.07-.55-.37-1.13-.74-1.71-1.11-.56-.36-1.13-.72-1.72-1.07-.57-.35-1.15-.7-1.75-1.03-.52-.31-1.06-.6-1.6-.89-.06-.03-.12-.07-.18-.09-.59-.33-1.18-.63-1.79-.93-.66-.32-1.32-.64-2-.94-.27-.12-.54-.24-.82-.36-.83-.35-1.67-.69-2.53-1-.29-.1-.57-.2-.86-.3-1.18-.4-2.38-.76-3.61-1.06-.27-.07-.55-.13-.83-.19-.54-.12-1.09-.23-1.64-.32-.33-.06-.66-.12-.99-.16-.35-.06-.7-.1-1.06-.14-.31-.04-.63-.07-.94-.1-.34-.03-.69-.05-1.03-.06-.04-.01-.08-.01-.12-.01-.49-.03-.98-.04-1.46-.04-6.37 0-11.54 2.05-15.37 4.82-.02 0-.04.02-.05.03-2.88 2.08-5 4.57-6.29 6.89l-.46.81-1.04 1.86-1.75-2.32-.09-.12c-.02-.03-.05-.06-.07-.09-.26-.33-.52-.66-.8-.97-.23-.27-.47-.53-.72-.78-.01-.02-.03-.04-.06-.06-.18-.19-.37-.38-.56-.54-4.39-4.19-10.81-6.67-17.84-6.85-.27-.01-.54-.01-.81-.01h-.27c-.47 0-.95.02-1.41.04-.47.02-.94.05-1.41.09-3.13.25-6.19.86-9.12 1.65-.14.04-.29.08-.43.12-.86.23-1.72.49-2.58.77-.29.09-.57.18-.85.27-1.82.6-3.57 1.24-5.23 1.88l-.73.28-4.67 1.78 2.05-3.42.92-1.54c.87-1.45 1.73-2.92 2.58-4.41l.84-1.5c.56-1.01 1.1-2.03 1.63-3.06.8-1.54 1.56-3.12 2.27-4.71.23-.52.46-1.04.68-1.56.23-.55.45-1.11.67-1.67.17-.43.33-.85.49-1.28.04-.12.09-.24.13-.36.2-.54.39-1.08.57-1.63.18-.57.36-1.14.53-1.71.12-.4.24-.79.34-1.19.02-.05.03-.1.04-.15.07-.24.14-.49.19-.74.12-.44.23-.88.33-1.32 2.84-12.34.35-24.21-6.66-31.75-3.13-3.37-7.28-5.94-12.03-7.54-1.27-.42-2.58-.78-3.93-1.07-.1-.01-.2-.03-.29-.06-2.49-.5-5.09-.76-7.77-.76-1.64 0-3.3.09-4.95.29-.43.05-.87.11-1.3.17-.37.05-.73.11-1.1.17-.14.02-.28.05-.43.07-.36.07-.73.13-1.1.21-.9.17-1.79.37-2.66.59-.45.12-.9.24-1.36.36-.938.256-1.855.538-2.761.832-2.787.908-5.684 2.057-8.749 3.458z" fill="#83e1f0"/><path d="m462.01 213.651c-9.42-3.239-19.086-6.144-27.615-8.706l-1.151-.348c-6.353-1.919-12.922-3.902-19.26-5.955-12.439-4.041-24.914-8.694-37.082-13.83l-3.176-1.341 2.741-2.091c7.957-6.073 16.561-11.253 24.881-16.264l.107-.065c8.174-4.924 16.626-10.016 24.348-15.857 4.683-3.544 9.425-7.611 14.499-12.434l4.466-4.245-1.121 6.059c-.205 1.105-.357 2.271-.464 3.563-.07.917-.09 2.116.388 3.136 1.001 2.137 3.487 2.456 4.88 2.456.934 0 1.931-.14 2.883-.405 2.763-.759 5.376-2.08 7.904-3.358 2.56-1.286 4.913-2.467 7.499-3.241.798-.236 1.526-.355 2.17-.355 1.011 0 1.795.293 2.331.872 1.091 1.139.758 2.999.287 4.664l-2.932 10.207c-1.001 3.502-2.116 7.404-1.656 11.229.427 3.531 2.609 7.542 6.519 8.54.47.124.957.191 1.597.22l2.412.111-.558 2.35c-2.812 11.833-7.004 23.306-12.461 34.1l-.787 1.556z" fill="#5b5d6d"/><path d="m486.232 400.097c-12.823-3.292-26.125-5.422-39.538-6.332l-.779-.053-.537-.566c-30.97-12.422-64.229-22.371-98.825-29.548l-.173-.036-.164-.065.001-.007-.113-.01h-.119l-.2-.042c-35.046-7.232-72.323-11.791-110.797-13.55l-5.046-.231 3.836-3.286c10.729-9.19 22.286-17.671 34.352-25.207l.778-.486.876.272c5.899-.954 12.56-1.44 19.792-1.44 6.848 0 14.138.428 21.666 1.272 28.77 3.228 57.267 9.492 84.699 18.619 42.5 14.14 72.708 32.951 92.351 57.509l3.739 4.675z" fill="#ffd671"/><path d="m435.74 389.4-.74 3.87c-1.3-.02-2.61-.03-3.91-.03-7.29 0-14.55.34-21.8 1-.9.09-1.81.18-2.71.27-1.36.14-2.72.29-4.07.46-1.36.16-2.71.34-4.06.53-.91.13-1.81.26-2.71.39-1.19.18-2.38.37-3.57.56-1.06.18-2.12.37-3.17.56-1.12.2-2.24.41-3.36.63s-2.24.44-3.36.68c-1.21.26-2.42.52-3.62.79-.3.07-.6.14-.89.21-1.18.27-2.35.54-3.53.83-1.78.44-3.55.9-5.33 1.38-1 .27-2 .55-2.99.83-1.66.47-3.32.96-4.97 1.47-.63.19-1.27.39-1.9.59-.69.21-1.38.43-2.07.66-.66.21-1.32.43-1.98.65-.62.21-1.24.42-1.86.63-2.67.92-5.33 1.88-7.98 2.89-.89.34-1.78.69-2.67 1.04-1.55.61-3.09 1.23-4.63 1.88-.6.25-1.2.5-1.8.76-.6.25-1.19.51-1.79.78-.8.34-1.6.7-2.4 1.06-.77.34-1.54.69-2.31 1.05-1.86.86-3.72 1.74-5.57 2.65-.87.43-1.74.86-2.61 1.3-.68.33-1.35.68-2.02 1.02-.02.01-.03.01-.04.02-1.53.79-3.05 1.59-4.57 2.42-.77.4-1.53.82-2.29 1.25-.76.41-1.52.84-2.28 1.27-.77.42-1.53.85-2.28 1.3-.76.44-1.51.88-2.26 1.33-.7.4-1.4.82-2.1 1.25-.13.07-.26.15-.38.23-1.39.83-2.77 1.68-4.14 2.55-.79.49-1.58.99-2.36 1.5-23.77 15.24-45.92 34.47-65.39 56.82-1.23 1.39-2.43 2.8-3.62 4.22-.61.71-1.2 1.42-1.78 2.14-1.11 1.32-2.19 2.65-3.25 3.99-.14.15-.26.3-.37.45-1.72 2.15-3.41 4.32-5.07 6.52-.58.74-1.14 1.49-1.68 2.24-.44.57-.86 1.14-1.28 1.71h-173.59c.87-1.23 1.75-2.46 2.63-3.67.17-.23.33-.46.5-.68 1.03-1.41 2.07-2.81 3.12-4.2 1.12-1.49 2.26-2.97 3.41-4.44 1.11-1.43 2.23-2.85 3.37-4.25.07-.09.13-.18.21-.26.94-1.18 1.9-2.35 2.87-3.51.34-.43.7-.85 1.06-1.28.74-.89 1.49-1.77 2.24-2.65.47-.56.95-1.11 1.42-1.66 1.05-1.21 2.1-2.41 3.16-3.6.94-1.07 1.89-2.13 2.86-3.18.54-.61 1.1-1.22 1.66-1.82.57-.62 1.14-1.24 1.73-1.86.61-.66 1.23-1.32 1.87-1.98.66-.71 1.34-1.42 2.03-2.12.7-.74 1.42-1.48 2.15-2.21.36-.37.72-.74 1.1-1.1.9-.93 1.83-1.86 2.76-2.77.81-.8 1.61-1.59 2.43-2.37.32-.32.64-.63.96-.93.87-.84 1.73-1.66 2.61-2.48.72-.68 1.44-1.36 2.17-2.03.31-.28.61-.56.92-.84.95-.88 1.9-1.75 2.86-2.6.84-.77 1.69-1.52 2.54-2.26.46-.41.93-.82 1.39-1.23 1-.87 2-1.74 3.01-2.58.39-.35.78-.68 1.17-1.01 1.33-1.13 2.68-2.25 4.03-3.35 1.19-.98 2.38-1.94 3.58-2.9.35-.28.7-.56 1.05-.84 1.03-.81 2.06-1.62 3.1-2.42.42-.33.83-.65 1.25-.97 1.4-1.08 2.81-2.14 4.23-3.2 1.5-1.11 3-2.21 4.51-3.3 1.52-1.09 3.04-2.17 4.57-3.23 1.53-1.07 3.07-2.12 4.62-3.16 1.35-.92 2.72-1.82 4.09-2.71.23-.16.46-.31.69-.46 1.53-.99 3.06-1.97 4.6-2.93 1.27-.8 2.54-1.59 3.82-2.36 1.91-1.17 3.83-2.32 5.76-3.45 3.22-1.89 6.48-3.72 9.76-5.49 1.33-.72 2.66-1.43 4-2.13 1.97-1.04 3.96-2.06 5.95-3.06 1.47-.73 2.94-1.46 4.41-2.17 1.48-.72 2.96-1.42 4.45-2.11 1.48-.7 2.97-1.38 4.47-2.05 2.91-1.31 5.83-2.57 8.78-3.8.14-.06.27-.11.41-.17l3.15-1.29c.53-.22 1.06-.43 1.59-.64 1.42-.56 2.84-1.12 4.26-1.66 1.54-.59 3.07-1.17 4.62-1.73 1.47-.54 2.95-1.07 4.43-1.59.11-.05.22-.09.33-.12 1.51-.53 3.02-1.05 4.54-1.56 1.56-.53 3.12-1.04 4.69-1.54s3.14-1 4.71-1.48 3.15-.95 4.73-1.41c1.58-.45 3.17-.9 4.75-1.34 1.42-.39 2.83-.77 4.25-1.14.39-.1.78-.2 1.17-.31 1.38-.35 2.76-.7 4.14-1.04 1.2-.3 2.4-.58 3.6-.87 7.21-1.7 14.48-3.17 21.78-4.4 1.21-.2 2.43-.41 3.65-.6 1.63-.26 3.25-.5 4.88-.74 4.8-.7 9.62-1.3 14.44-1.8 0 0 .01.01.02 0 3.21-.33 6.43-.62 9.65-.86 4.84-.36 9.69-.63 14.54-.79.28-.02.56-.02.84-.03 1.24-.04 2.49-.07 3.73-.1.34-.01.68-.01 1.02-.02 2.07-.04 4.13-.06 6.2-.06 5.69 0 11.45.15 17.13.42l.15.01.15.03c.09.02.18.04.27.05.06.02.11.03.17.04.41.09.81.17 1.22.26 1.47.3 2.93.61 4.39.94l.84.18c.52.11 1.04.23 1.56.35 1.15.24 2.29.5 3.43.76.85.19 1.69.38 2.53.58 1.66.38 3.32.77 4.97 1.17.22.05.43.1.65.16 1.21.29 2.42.58 3.63.89.21.05.42.11.63.16 1.1.26 2.19.54 3.28.82 1.06.27 2.12.54 3.18.82.85.21 1.69.44 2.54.66.02.01.04.01.06.02 1.37.36 2.73.73 4.09 1.11.53.14 1.07.29 1.6.43 1.07.29 2.14.59 3.2.9.12.03.24.07.36.1 1.09.31 2.18.61 3.26.93 3.74 1.08 7.46 2.19 11.16 3.34 1.6.5 3.2 1 4.79 1.51s3.18 1.03 4.76 1.55c.78.25 1.56.51 2.34.77 1.65.55 3.29 1.11 4.92 1.68.71.24 1.42.48 2.12.73.71.24 1.42.5 2.12.75.45.15.89.31 1.33.46.14.05.29.1.43.15 1.5.54 2.98 1.08 4.46 1.63 1.74.64 3.48 1.28 5.2 1.94.05.01.09.03.14.05z" fill="#c29970"/><path d="m248.774 233.166c-1.762 0-3.397-.449-4.73-1.3-5.581-3.57-4.369-12.039-3.865-14.55.92-4.561 2.587-8.996 4.199-13.285 1.596-4.245 3.236-8.609 4.172-13.154.518-2.498.208-4.239-.921-5.18-.554-.459-1.221-.685-2.035-.685-1.471 0-2.952.711-3.664 1.053-5.534 2.687-10.981 5.936-15.787 8.802-8.031 4.784-16.333 9.73-25.321 12.729-2.48.831-5.774 1.787-9.235 1.787-1.115.001-2.197-.102-3.215-.302-2.113-.429-3.557-1.33-4.187-2.609-.52-1.078-.516-2.4.005-4.177 1.355-4.547 4.282-8.272 7.418-12.003 7.909-9.419 16.648-19.404 26.948-28.614l.144-.91.773-.494c16.56-10.152 32.914-21.02 48.729-31.53 1.192-.802 2.687-1.807 4.345-2.095.345-.058.688-.086 1.032-.086 2.693 0 5.132 1.647 7.602 3.481 28.454 21.187 59.414 39.079 92.022 53.18l2.436 1.054-1.685 2.051c-4.292 5.227-9.493 8.936-15.042 10.724-2.473.794-5.023 1.196-7.583 1.196-4.15 0-8.055-1.058-11.292-3.058-1.534-.949-2.91-2.057-4.55-3.407-3.146-2.577-6.12-5.014-10.01-5.29-.225-.016-.448-.024-.67-.024-5.631 0-10.196 5.114-12.222 10.181-1.131 2.819-1.783 5.796-2.413 8.675l-.041.185c-.624 2.807-1.212 5.457-2.204 8.06-.496 1.318-1.347 3.171-2.975 3.952-.602.286-1.273.423-2.061.423-.548 0-1.153-.067-1.851-.204-8.265-1.638-15.187-9.464-16.834-19.033-.582-3.404-1.641-7.31-4.699-7.31-.778.013-1.557.282-2.414.822-4.505 2.812-5.962 8.533-7.248 13.581-.214.828-.427 1.648-.65 2.457-1.6 5.837-4.165 11.323-7.626 16.301-1.56 2.253-4.034 5.461-7.476 7.261-1.681.881-3.522 1.345-5.319 1.345z" fill="#fff"/><path d="m287.88 242.56c-.02.53-.05 1.06-.1 1.6-.03.43-.07.87-.13 1.31 0 .02-.01.05-.01.07 0 .11-.02.22-.04.33 0 .04-.01.08-.02.12-.04.45-.12.91-.19 1.36-.06.38-.13.76-.21 1.14-.01.04-.02.09-.03.13-.06.32-.13.64-.21.96-.08.37-.17.74-.27 1.1-.09.37-.19.74-.3 1.1-.28.97-.59 1.94-.94 2.89-1.37 3.83-3.2 7.53-5.14 11.16-.24.45-.48.91-.73 1.36-.48.89-.97 1.78-1.45 2.66-.01.01-.01.03-.02.04-.58 1.06-1.17 2.13-1.75 3.2-.48.9-.96 1.8-1.43 2.71-.38.73-.75 1.47-1.11 2.2-.27.56-.53 1.11-.79 1.66-.03.07-.06.13-.09.19-.13.29-.26.58-.39.87-1.81 4.07-3.21 8.24-3.76 12.59-.04.31-.07.62-.1.93 0 .05-.01.11-.01.17-.05.57-.09 1.15-.11 1.74-.01.3-.01.61-.01.91 0 .73.02 1.47.07 2.21.02.36.05.71.08 1.06.02.27.05.53.08.8.03.33.07.67.11 1 .03.34.08.67.12 1 .06.45.12.89.18 1.33.05.33.09.66.14.98.43 3.05.86 6.18.74 9.27-.01.2-.02.39-.04.58 0 .1-.01.21-.02.31-.01.18-.03.35-.05.52-.01.2-.03.39-.06.6-.04.34-.09.68-.15 1.02l-3.89.22c-.16-.54-.33-1.09-.51-1.63-.15-.48-.31-.97-.47-1.45-.38-1.14-.78-2.27-1.2-3.4-.15-.41-.31-.83-.47-1.24s-.32-.83-.49-1.24c-.52-1.33-1.08-2.65-1.67-3.96-.21-.46-.42-.93-.64-1.39-.28-.61-.57-1.22-.87-1.83-.71-1.47-1.46-2.92-2.25-4.36-.37-.68-.74-1.35-1.13-2.02l-.75-1.31-.03-.06.7-.66c.01 0 .02-.02.02-.02l.43-.4c.34-.32.66-.67.94-1.05.11-.15.21-.31.31-.47s.2-.32.28-.48c.09-.17.17-.33.25-.5s.15-.34.22-.51c.06-.16.12-.32.16-.48.12-.34.21-.69.27-1.05.04-.18.07-.35.09-.53.03-.22.05-.45.06-.68.03-.56.02-1.12-.02-1.68-.04-.5-.09-1-.16-1.5-.08-.49-.16-.98-.25-1.45s-.18-.94-.28-1.41-.2-.94-.32-1.41c-.22-.93-.47-1.86-.74-2.78-.33-1.15-.71-2.29-1.11-3.42-.4-1.12-.84-2.23-1.3-3.33v-.01c-.22-.51-.44-1.01-.67-1.51-.22-.48-.44-.96-.68-1.43-.49-1.01-1.02-2-1.57-2.97-.13-.22-.26-.45-.39-.68-.43-.73-.87-1.45-1.33-2.16-1.71-2.64-3.93-4.1-6.24-4.1-.15 0-.29.01-.44.02-.09.01-.19.02-.28.03-.04 0-.08.01-.12.02-.17.02-.35.05-.52.09-.29.07-.57.17-.83.3-.13.06-.26.13-.38.2-.12.06-.24.14-.36.23-.12.08-.24.16-.35.26-.47.37-.89.82-1.28 1.31-.08.08-.15.18-.22.27-.55.74-1.04 1.54-1.5 2.31l-.44.73c-.36.59-.7 1.16-1.04 1.73l-1.59 2.62-.26-.78-1.12-3.27c-.54-1.59-1.06-3.07-1.56-4.51-.37-1.04-.73-2.09-1.11-3.11-.35-.94-.68-1.84-1.01-2.73-.16-.44-.33-.87-.49-1.3-1.11-2.93-2.24-5.78-3.76-8.44-.21-.37-.43-.74-.66-1.11-.17-.27-.35-.53-.53-.77-.18-.25-.36-.48-.55-.69-.09-.11-.18-.21-.28-.3-.09-.1-.18-.19-.28-.28-.12-.12-.25-.23-.38-.33-.25-.21-.52-.38-.78-.52-.13-.07-.26-.13-.39-.18-.07-.03-.14-.06-.21-.08-.06-.02-.13-.05-.2-.06-.2-.06-.4-.1-.6-.12-.1-.01-.21-.02-.31-.02-.13 0-.25.01-.38.03-.02 0-.05 0-.07.01-.02 0-.05 0-.07.01-.29.05-.58.14-.86.25-.11.05-.21.1-.32.16-.07.04-.15.08-.22.12-.59.32-1.14.76-1.66 1.22-.64.56-1.25 1.14-1.83 1.73-.6.61-1.17 1.23-1.72 1.87-.28.32-.55.65-.82.98-.8.98-1.55 1.99-2.28 3.03-.46.65-.9 1.31-1.34 1.98-1.38 2.12-2.68 4.33-4.02 6.59-.6 1.01-1.19 2.02-1.81 3.03-.21.36-.43.72-.66 1.08-.56.92-1.14 1.84-1.74 2.74-.28.42-.56.85-.85 1.26-.62.9-1.26 1.79-1.93 2.66-.41.53-.83 1.05-1.26 1.56l-2.47 2.96-.15-.61-.39-1.64c-.31-1.37-.64-2.74-1-4.1-.14-.58-.29-1.16-.46-1.74-.48-1.8-1.02-3.6-1.59-5.38l-.44-1.37c-.4-1.25-.81-2.53-1.26-3.83-.1-.32-.22-.64-.34-.96-.47-1.3-.98-2.59-1.55-3.83-.26-.6-.55-1.18-.85-1.75-.18-.33-.36-.65-.55-.97-.1-.18-.2-.36-.32-.53-.59-.97-1.24-1.88-1.97-2.72-.45-.52-1.25-1.34-2.34-2.1-.16-.13-.32-.23-.48-.32-.35-.22-.72-.43-1.12-.62-.12-.06-.24-.11-.37-.16-.12-.06-.24-.1-.36-.15-.17-.07-.34-.12-.51-.18-.86-.26-1.74-.4-2.62-.4-.55 0-1.1.05-1.64.16-.3.05-.6.13-.9.24-.12.03-.23.07-.35.12-.62.23-1.21.53-1.78.88-.19.12-.38.24-.56.37-.49.35-.97.74-1.42 1.15-.69.63-1.34 1.33-1.95 2.06-.03.02-.05.05-.06.08-.35.41-.68.84-1 1.27-.01.01-.02.03-.03.05-.34.44-.66.89-.97 1.35-.18.25-.35.5-.51.75-.31.45-.6.9-.89 1.34l-.38.55c-.36.54-.71 1.06-1.05 1.55-.51.73-1.02 1.46-1.5 2.18-.03.04-.06.08-.09.13-.46.68-.91 1.35-1.34 2.02-.05.09-.11.17-.17.26-.33.51-.66 1.03-.98 1.54l-.2.33-2.11 3.36-.02.03-.94-3.11c-.17-.55-.34-1.11-.51-1.68-.26-.86-.52-1.74-.79-2.63-.31-1.04-.63-2.11-.93-3.18-.12-.41-.24-.83-.36-1.26-.26-.94-.52-1.89-.77-2.82l-.42-1.62c-.37-1.42-.75-2.86-1.17-4.29-.09-.31-.18-.62-.28-.92-.08-.26-.16-.51-.25-.76-.14-.46-.29-.9-.45-1.34-.21-.6-.43-1.19-.68-1.77-.24-.59-.5-1.16-.78-1.73-.55-1.13-1.18-2.23-1.91-3.26-.62-.87-1.58-2.08-2.91-2.54-.43-.15-.88-.23-1.36-.23-.06 0-.11 0-.17.01s-.12.01-.18.01c-.1 0-.22.01-.34.04-.13.01-.26.04-.4.06-.26.05-.52.12-.79.21s-.55.19-.84.31c-.14.06-.28.12-.43.19-.31.14-.62.3-.91.47-.3.15-.59.32-.87.51-1.14.7-2.19 1.52-3.16 2.41-.24.23-.48.46-.71.69-.46.45-.89.92-1.31 1.39 0 0-.01 0-.01.01-.42.47-.81.95-1.18 1.42-.93 1.18-1.74 2.35-2.41 3.38-.36.55-.72 1.11-1.06 1.67-.59.95-1.16 1.92-1.7 2.89-.22.38-.43.76-.64 1.15-.03.04-.05.08-.06.12-.24.45-.48.88-.71 1.33-.89 1.7-1.73 3.42-2.52 5.15-.26.54-.5 1.08-.73 1.62-.03.07-.06.14-.09.21-.5 1.13-.98 2.27-1.45 3.41-.8 1.94-1.57 3.89-2.32 5.84-.16.39-.3.78-.45 1.16l-.26.7-1.45 3.8c-.01.02-.02.04-.03.06l-.27.7-.03-.1v-.01l-1.33-4.01c-.1-.34-.21-.69-.33-1.02-.02-.06-.04-.13-.07-.2-.2-.6-.4-1.2-.61-1.8-.33-.97-.67-1.95-1.02-2.91-.04-.11-.08-.22-.12-.33-.28-.75-.56-1.49-.84-2.23-2.57-6.74-5.55-13.4-8.63-20.11v-.01c-.11-.25-.23-.51-.37-.77-.11-.24-.23-.49-.37-.74-.1-.21-.22-.43-.34-.64-.13-.23-.26-.45-.39-.67s-.26-.43-.39-.63c-.22-.34-.44-.65-.67-.95-.09-.13-.19-.25-.29-.37-.44-.55-.91-1.03-1.38-1.42-.16-.13-.32-.25-.48-.36-.01-.01-.03-.02-.04-.03-.1-.08-.2-.15-.31-.2-.16-.1-.32-.19-.48-.27-.12-.07-.24-.13-.37-.17-.14-.06-.28-.11-.42-.16-.01 0-.01 0-.02 0-.5-.16-1.03-.24-1.57-.24-.49 0-.98.06-1.49.2-.18.04-.35.1-.53.16-.52.17-1.05.42-1.61.74-.2.12-.41.25-.61.39-.05.03-.1.06-.14.1-.19.13-.38.28-.56.44-.17.14-.34.29-.52.45-.34.33-.68.69-1 1.07-.12.12-.22.25-.32.38-.22.27-.42.54-.63.82-.17.25-.35.5-.52.76-.13.19-.25.38-.37.57-.09.15-.19.3-.28.46-.11.15-.2.31-.28.47-.38.63-.73 1.29-1.06 1.96-.17.33-.34.67-.5 1.01-.2.42-.4.85-.59 1.27s-.39.85-.57 1.27c-.19.43-.37.85-.55 1.26-.18.42-.36.83-.53 1.23-.69 1.63-1.41 3.31-2.11 4.67-.25.49-.5.98-.74 1.47-.25.48-.49.96-.73 1.44-.11.2-.21.39-.3.59-.38.76-.76 1.51-1.13 2.25-2.41 4.83-4.56 9.26-6.54 13.48-.38.79-.74 1.57-1.1 2.34l-1.71 3.72v.01l-.04.07-1.59-3.22c-.15-.29-.3-.58-.43-.88-.29-.58-.57-1.17-.85-1.76-1.76-3.73-3.35-7.58-4.97-11.68-.24-.61-.49-1.23-.73-1.86-.25-.62-.49-1.25-.74-1.89-.27-.7-.54-1.4-.82-2.1-.55-1.39-1.12-2.79-1.72-4.16-.1-.26-.22-.53-.35-.79-.13-.29-.26-.59-.41-.88-.02-.07-.06-.15-.1-.22-.23-.51-.48-1.01-.74-1.51-.02-.05-.04-.09-.07-.14-.25-.49-.51-.97-.78-1.45-.01-.01-.01-.02-.02-.03-.18-.32-.37-.64-.56-.96-.1-.17-.2-.34-.31-.51s-.21-.34-.32-.5c-.22-.34-.44-.67-.67-1-.18-.25-.36-.51-.55-.75-.21-.3-.44-.6-.68-.89-.09-.11-.18-.22-.27-.33-.07-.1-.16-.2-.27-.31-.14-.18-.33-.36-.53-.55-.36-.33-.7-.61-1.05-.83l-.41-.23c-.07-.04-.14-.07-.22-.11-.94-.22-1.23-.28-1.35-.3-.03 0-.05-.01-.08-.01-.12 0-.24.01-.35.02-.59.06-1.19.28-1.8.68-.1.06-.2.13-.31.21-.21.14-.42.31-.63.5-.76.66-1.41 1.42-1.98 2.21-.11.15-.22.31-.33.46-.45.64-.84 1.29-1.21 1.9-3.42 5.76-6 12.02-8.49 18.06-.29.7-.58 1.41-.87 2.13-.53 1.29-1.06 2.59-1.57 3.9-1.04 2.66-2.04 5.41-2.87 8.2-.19.6-.36 1.21-.52 1.82-.08.28-.15.57-.22.86-.07.28-.14.57-.2.86-.06.28-.12.58-.16.86-.15.89-.22 1.79-.16 2.67.01.2.03.41.06.61.02.1.03.2.05.3.03.21.07.42.13.62.04.21.11.41.18.61l.11.36-.27.66c-.02.05-.04.11-.07.16l-.79 1.9c-1.06 2.57-2.14 5.13-3.22 7.7s-2.18 5.13-3.28 7.69c-2.05 4.78-4.15 9.55-6.29 14.31l-.93 2.07c-.99 2.2-1.99 4.39-2.99 6.58-1.26 2.76-2.54 5.52-3.82 8.27-.21.45-.42.9-.64 1.35-.13.3-.27.59-.41.88v-87.51c.52-.41 1.05-.83 1.57-1.24.73-.58 1.47-1.16 2.22-1.74.86-.68 1.73-1.35 2.62-2.02.1-.08.2-.15.31-.23.55-.42 1.1-.84 1.67-1.25.65-.48 1.3-.96 1.96-1.44.05-.04.11-.08.16-.12.27-.19.53-.38.81-.57.6-.43 1.21-.86 1.83-1.3.03-.01.06-.03.1-.06.51-.35 1.02-.7 1.53-1.05 1.54-1.04 3.11-2.06 4.71-3.06 1.07-.66 2.15-1.31 3.24-1.95.55-.31 1.1-.63 1.65-.94.47-.26.94-.53 1.42-.79.08-.04.17-.08.25-.13 1.35-.73 2.72-1.43 4.11-2.09 1.16-.55 2.32-1.09 3.51-1.6.59-.26 1.19-.51 1.78-.75.6-.25 1.21-.49 1.81-.72.66-.25 1.33-.5 2.01-.74.09-.04.19-.07.29-.1.18-.07.37-.13.56-.19.59-.21 1.19-.41 1.8-.61.11-.03.21-.07.32-.1.7-.22 1.41-.44 2.13-.65.25-.08.5-.15.76-.22.58-.17 1.17-.33 1.77-.49.14-.04.29-.08.44-.12.65-.17 1.32-.34 1.99-.5.07-.02.14-.03.2-.05.45-.11.9-.22 1.36-.32.88-.21 1.77-.41 2.66-.59.11-.02.21-.04.32-.06.9-.19 1.82-.37 2.76-.55.58-.12 1.15-.21 1.73-.32.37-.06.75-.14 1.12-.2.76-.13 1.52-.26 2.28-.38l1.31-.2c3.31-.51 6.68-.95 9.92-1.36 1.86-.24 3.71-.46 5.56-.68.06-.01.13-.02.19-.02.66-.08 1.33-.16 2-.24 1.4-.17 2.8-.34 4.22-.52.5-.06 1.01-.12 1.51-.19.4-.05.82-.1 1.22-.16 1.77-.22 3.55-.47 5.31-.74.65-.1 1.31-.2 1.96-.3 1.08-.17 2.16-.35 3.24-.53 1.07-.19 2.15-.38 3.24-.58 1.08-.2 2.16-.41 3.24-.63 1.03-.21 2.06-.42 3.09-.64.57-.13 1.14-.25 1.71-.38.56-.12 1.13-.26 1.7-.39 1.14-.26 2.29-.53 3.43-.82.94-.23 1.88-.47 2.82-.71 1.1-.28 2.2-.58 3.31-.88.87-.23 1.74-.47 2.61-.73.77-.21 1.55-.43 2.32-.67.1-.04.21-.07.32-.09.87-.26 1.74-.52 2.61-.8 1.75-.53 3.51-1.09 5.28-1.69.88-.28 1.76-.58 2.65-.89 3.54-1.21 7.11-2.5 10.7-3.89.9-.34 1.8-.69 2.7-1.06.72-.27 1.45-.57 2.18-.86.36-.15.71-.29 1.07-.44.73-.3 1.46-.6 2.19-.91 4.45-1.85 8.95-3.84 13.5-5.97 2.38-1.11 4.77-2.26 7.18-3.45 1.21-.58 2.42-1.19 3.63-1.81 1.29-.65 2.59-1.31 3.89-1.98.02-.01.05-.03.08-.04.3-.16.61-.32.92-.48.81-.42 1.63-.85 2.45-1.29.3-.15.6-.31.89-.47.11-.06.23-.12.34-.18.69-.36 1.37-.72 2.06-1.1.96-.51 1.92-1.03 2.89-1.57.97-.52 1.94-1.06 2.92-1.61.76-.41 1.52-.84 2.28-1.27.05-.02.1-.05.15-.08.74-.41 1.48-.83 2.23-1.26.07-.04.14-.08.22-.12 1.63-.93 3.28-1.87 4.93-2.84l2.45 3.12c-.8.82-1.59 1.65-2.36 2.47-.78.82-1.54 1.64-2.29 2.46-.76.82-1.5 1.63-2.22 2.44-.73.81-1.45 1.61-2.15 2.41-.02.02-.04.04-.07.07-.67.77-1.34 1.53-1.99 2.28-.68.78-1.34 1.55-1.98 2.3-.65.75-1.28 1.49-1.9 2.23-.62.73-1.22 1.45-1.81 2.15-3.02 3.59-6.07 7.47-7.41 12-.13.44-.23.86-.3 1.25-.06.39-.1.76-.1 1.1 0 .69.13 1.3.39 1.82.06.12.13.24.2.35.02.02.03.03.04.05.02.04.04.07.06.1.08.11.17.22.26.32.04.04.08.08.11.12.12.12.24.23.37.33.15.13.32.25.49.35.01.01.02.02.03.02.18.11.36.21.54.29.2.11.42.2.63.27.15.06.32.12.47.16.02 0 .03.01.05.01.09.03.17.06.26.08.02.01.04.01.06.02.21.05.42.1.62.14 1.02.2 2.11.3 3.23.3 3.44 0 6.73-.95 9.21-1.78.67-.22 1.34-.46 2-.7.14-.05.28-.11.43-.17.48-.17.97-.36 1.45-.56.21-.08.42-.16.63-.25.53-.22 1.05-.44 1.58-.67.07-.03.14-.06.21-.09.65-.28 1.3-.58 1.94-.88.54-.25 1.08-.5 1.61-.77.26-.13.53-.26.79-.39.07-.03.13-.07.2-.1.45-.23.91-.45 1.35-.69.39-.2.79-.4 1.18-.62.41-.21.82-.43 1.22-.65.55-.3 1.1-.6 1.64-.9s1.08-.6 1.61-.91c.98-.55 1.96-1.11 2.93-1.69.47-.27.94-.54 1.41-.82 1.01-.6 2.01-1.2 3.01-1.79l.14-.08c4.8-2.87 10.26-6.12 15.78-8.8.18-.09.36-.17.54-.25.65-.28 1.24-.49 1.78-.63.15-.03.29-.07.43-.09.04-.01.07-.01.1-.02.01.01.02 0 .03 0 .27-.04.53-.06.77-.06.3 0 .59.03.86.09h.01c.17.05.34.1.5.17.24.1.47.24.67.41l.01.01c.1.08.19.17.27.26.17.19.32.39.44.62s.22.48.29.75c.01.01 0 .02 0 .02.04.14.07.28.09.43.07.35.09.74.07 1.16 0 .09 0 .17-.01.26 0 .04 0 .08-.01.12-.02.29-.05.59-.1.9-.03.21-.07.43-.12.66-.1.47-.2.94-.31 1.4-.04.15-.07.29-.11.44-.12.5-.26 1-.39 1.5-.01.03-.02.07-.03.1-.15.51-.29 1.02-.45 1.52-.19.62-.39 1.25-.59 1.86-.17.5-.34 1-.52 1.5-.39 1.12-.79 2.21-1.19 3.28-.1.26-.2.51-.29.77-.1.25-.19.51-.29.76l-.05.12c-.39 1.04-.78 2.09-1.16 3.15-.01.03-.02.05-.03.07-.38 1.05-.75 2.1-1.1 3.16-.01.04-.03.08-.04.12-.36 1.09-.7 2.18-1 3.29-.01.01-.01.02-.01.03-.31 1.11-.58 2.23-.81 3.36-.06.29-.11.57-.15.85-.03.17-.06.35-.08.52-.04.2-.06.39-.08.58-.32 2.47-.22 4.72.25 6.66.07.28.15.54.22.8.04.14.09.28.14.42s.1.27.15.4c.74 1.86 1.89 3.34 3.42 4.32.17.11.34.21.51.31.18.09.36.18.54.26.73.33 1.54.56 2.38.66.42.06.85.09 1.29.09.89 0 1.79-.12 2.69-.35.01 0 .01 0 .02-.01.21-.05.42-.11.64-.18.07-.02.14-.05.21-.07.38-.12.75-.27 1.12-.44.21-.1.43-.2.64-.31.17-.09.35-.19.51-.28.17-.1.34-.2.5-.31.17-.1.33-.21.49-.32.24-.17.47-.34.7-.51.23-.18.45-.36.67-.55.3-.25.58-.5.85-.76 1.09-1.04 2.01-2.15 2.79-3.18.36-.47.69-.93.98-1.35.2-.29.4-.58.59-.88.28-.42.56-.84.82-1.27.15-.23.29-.46.43-.7.25-.4.49-.81.72-1.22.33-.57.64-1.14.94-1.73.18-.33.35-.67.51-1.01.17-.33.34-.67.49-1.02.17-.34.32-.68.47-1.03.16-.34.31-.68.45-1.03.23-.55.45-1.11.66-1.67.18-.49.36-.99.54-1.49v-.01c.18-.54.36-1.07.52-1.61.17-.54.33-1.09.48-1.63v-.01c.11-.39.22-.8.32-1.21.06-.2.11-.4.16-.61.06-.21.11-.41.16-.62.08-.32.16-.64.25-.96.03-.12.06-.25.1-.37.09-.37.19-.75.3-1.12.23-.87.49-1.75.78-2.62.08-.24.16-.48.25-.71.1-.29.22-.59.33-.87.09-.22.18-.44.27-.65s.19-.42.28-.63v-.01c.2-.42.41-.82.63-1.21.08-.14.16-.28.24-.42.08-.12.15-.25.23-.37.01-.02.02-.03.03-.05s.03-.04.04-.06c.06-.08.11-.17.17-.25l.06-.09 2.71-3.95.18 1.03.67 3.79c.01.05.02.09.03.14.06.36.13.72.2 1.08s.15.72.22 1.08c.14.69.3 1.38.46 2.07.2.84.41 1.67.63 2.51.18.71.38 1.41.58 2.12 0 .03.01.05.02.08.01.05.03.1.04.15.03.11.06.21.09.32s.06.22.1.33c.14.51.29 1.02.45 1.52.26.87.52 1.74.8 2.6.2.66.41 1.32.62 1.97.1.35.22.7.33 1.05s.22.69.33 1.04c.18.55.35 1.09.53 1.64.72 2.26 1.42 4.5 2.07 6.73.31 1.06.6 2.11.86 3.16 1.46 5.56 2.4 11.07 2.16 16.68z" fill="#5b5d6d"/><path d="m229.819 349.668c-3.232-.131-6.624-.242-10.371-.339l-1.34-.035-.477-1.252c-2.499-6.557-5.027-13.133-7.576-19.71l-.321-.829.46-.914.05-.076c5.089-11.375 10.63-22.769 16.505-33.954l.827-1.575 1.661.639c.439.169.934.254 1.469.254.676 0 1.416-.135 2.199-.401 2.684-.904 5.146-2.768 7.754-5.865l2.588-3.075.892 3.919c.38 1.67.925 3.058 1.666 4.244 1.517 2.438 4.116 4.01 6.625 4.01.38 0 .76-.037 1.127-.111.065-.013.11-.027.155-.04l.223-.06 1.467-.367.753 1.311c4.524 7.884 8.028 16.305 10.415 25.028l.388 1.42-1.24.793c-11.957 7.645-23.347 16.167-33.853 25.332l-.317 1.702z" fill="#cbe580"/><path d="m252.381 294.716c-3.005 0-5.417-2.16-6.569-4.009-1.677-2.679-2.083-5.975-2.258-8.845-3.208 4.383-6.23 8.13-10.646 9.614-.786.267-1.532.403-2.212.403-.787 0-1.472-.182-2.037-.54-2.054-1.26-1.881-4.347-1.71-5.615.501-3.744 2.006-7.171 3.558-10.318 1.794-3.638 3.958-7.525 6.813-12.232l.437-.734c1.219-2.016 2.6-4.3 4.927-4.871.449-.109.903-.165 1.353-.165 2.313 0 4.529 1.456 6.242 4.1 4.063 6.256 6.967 13.555 8.396 21.105.32 1.7.585 3.52.359 5.321-.335 2.731-2.195 5.987-5.488 6.67-.382.077-.773.116-1.165.116z" fill="#fff"/><path d="m322.77 359.14-.29 3.97c-.34.01-.68.01-1.02.02-1.24.03-2.49.06-3.73.1-.28.01-.56.01-.84.03-12.92.43-25.83 1.59-38.65 3.45-1.63.24-3.25.48-4.88.74-9.75 1.56-19.44 3.51-29.03 5.87-1.38.34-2.76.69-4.14 1.04-.39.11-.78.21-1.17.31-1.42.37-2.83.75-4.25 1.14-1.58.44-3.17.89-4.75 1.34-1.58.46-3.16.93-4.73 1.41s-3.14.98-4.71 1.48-3.13 1.01-4.69 1.54c-1.52.51-3.03 1.03-4.54 1.56-.11.03-.22.07-.33.12-1.48.52-2.96 1.05-4.43 1.59-1.55.56-3.08 1.14-4.62 1.73-1.42.54-2.84 1.1-4.26 1.66-.53.21-1.06.42-1.59.64-1.05.43-2.1.86-3.15 1.29-.14.06-.27.11-.41.17-2.95 1.23-5.87 2.49-8.78 3.8-1.5.67-2.99 1.35-4.47 2.05-1.49.69-2.97 1.39-4.45 2.11-1.47.71-2.94 1.44-4.41 2.17-1.99 1-3.98 2.02-5.95 3.06-1.34.7-2.67 1.41-4 2.13-3.28 1.78-6.54 3.61-9.76 5.49-1.93 1.13-3.85 2.28-5.76 3.45-1.28.77-2.55 1.56-3.82 2.36-1.54.96-3.07 1.94-4.6 2.93-.23.15-.46.3-.69.46-1.37.89-2.74 1.79-4.09 2.71-1.55 1.04-3.09 2.09-4.62 3.16-1.53 1.06-3.05 2.14-4.57 3.23-1.51 1.09-3.01 2.19-4.51 3.3-1.42 1.06-2.83 2.12-4.23 3.2-.42.32-.83.64-1.25.97-1.04.8-2.07 1.61-3.1 2.42-.35.28-.7.56-1.05.84-1.2.96-2.39 1.92-3.58 2.9-1.35 1.1-2.7 2.22-4.03 3.35-.39.33-.78.66-1.17 1.01-1.01.84-2.01 1.71-3.01 2.58-.46.41-.93.82-1.39 1.23-.85.74-1.7 1.49-2.54 2.26-.96.85-1.91 1.72-2.86 2.6-.31.28-.61.56-.92.84-.73.67-1.45 1.35-2.17 2.03-.88.82-1.74 1.64-2.61 2.48-.32.3-.64.61-.96.93-.82.78-1.62 1.57-2.43 2.37-.93.91-1.86 1.84-2.76 2.77-.38.36-.74.73-1.1 1.1-.73.73-1.45 1.47-2.15 2.21-.69.7-1.37 1.41-2.03 2.12-.64.66-1.26 1.32-1.87 1.98-.59.62-1.16 1.24-1.73 1.86-.56.6-1.12 1.21-1.66 1.82-.97 1.05-1.92 2.11-2.86 3.18-1.06 1.19-2.11 2.39-3.16 3.6-.47.55-.95 1.1-1.42 1.66-.75.88-1.5 1.76-2.24 2.65-.36.43-.72.85-1.06 1.28-.97 1.16-1.93 2.33-2.87 3.51-.08.08-.14.17-.21.26-1.14 1.4-2.26 2.82-3.37 4.25-1.15 1.47-2.29 2.95-3.41 4.44-1.05 1.39-2.09 2.79-3.12 4.2-.17.22-.33.45-.5.68-.88 1.21-1.76 2.44-2.63 3.67h-40.63v-133.53c.51-.21 1.01-.42 1.52-.64 3.18-1.31 6.43-2.58 9.74-3.79.58-.22 1.16-.43 1.74-.64.11-.04.22-.08.33-.12 1.81-.65 3.63-1.28 5.48-1.9.72-.24 1.45-.48 2.18-.73.98-.32 1.96-.63 2.96-.95.77-.24 1.55-.49 2.33-.73.96-.29 1.92-.58 2.89-.87.87-.26 1.75-.52 2.64-.77.74-.22 1.49-.43 2.24-.64.73-.2 1.45-.4 2.18-.6.3-.09.61-.17.91-.25l1.04-.28c.53-.14 1.07-.28 1.61-.42l1.9-.48c3.03-.78 6.06-1.5 9.09-2.18.97-.22 1.94-.43 2.91-.65.04 0 .08-.01.11-.02 15.86-3.45 31.62-5.8 46.85-7.51.92-.1 1.84-.2 2.76-.3 2.74-.3 5.43-.57 8.07-.83l3.9-.36c.44-.04.88-.08 1.32-.12.92-.08 1.83-.16 2.74-.24 4.04-.34 8.04-.65 11.97-.94 1.14-.08 2.29-.17 3.43-.24l2.81-.19 1.41-.09c.26-.017.519-.031.779-.048 4.637-.301 9.267-.576 13.881-.792.09 0 .18-.01.27-.01 2.43-.12 4.86-.23 7.29-.33 4.78-.21 9.55-.37 14.29-.48.48-.01.96-.02 1.43-.03 2.04-.05 4.06-.09 6.08-.13h.54c4.66-.09 9.29-.13 13.88-.13 1.22 0 2.45 0 3.67.02h1.4c2.12.02 4.25.04 6.37.07 1.19.01 2.39.02 3.58.05.88.02 1.75.03 2.62.05 2.23.05 4.46.1 6.69.17.12 0 .24.01.36.01 5.06.15 10.1.35 15.11.6.41.02.82.04 1.22.06 2.44.12 4.87.25 7.3.4 7.91.47 15.74 1.06 23.51 1.77.05 0 .1.01.16.02 7.75.7 15.44 1.52 23.05 2.46.12.02.24.04.37.05 2.45.3 4.89.62 7.33.95 2.29.31 4.58.63 6.85.96.69.1 1.37.2 2.06.3 1.81.27 3.62.54 5.42.83.48.07.97.15 1.45.22 2.26.36 4.51.73 6.75 1.11z" fill="#57aa6b"/><path d="m202.569 287.782c-2.829 0-5.554-1.008-7.478-2.765l-.951-.869.397-1.225c.511-1.575.561-3.654.148-6.181-.214-1.254-.45-2.514-.706-3.773l-.277-1.362s1.242-.771 1.271-.794c3.837-4.089 6.789-9.081 9.644-13.908 3.56-6.026 6.922-11.716 12.013-16.187 1.064-.925 2.228-1.778 3.582-1.797 1.643.04 3.131 1.165 4.501 3.346 1.868 2.975 3.16 6.217 4.426 9.554 1.808 4.734 3.588 9.757 5.29 14.925l.278.844-.44.772c-1.44 2.525-2.671 4.829-3.764 7.044-1.4 2.849-2.91 6.252-3.478 9.875l-.237 1.513-1.645.177c-.575.12-1.165.181-1.76.181-3.9 0-7.665-2.577-8.953-6.128-2.355 3.316-5.704 5.671-9.178 6.458-.876.198-1.779.3-2.683.3z" fill="#fff"/><path d="m208.045 323.154c-4.613-11.888-9.109-23.336-13.364-34.024l-1.915-4.812 4.652 2.276c1.587.776 3.375 1.186 5.171 1.186.915 0 1.809-.1 2.657-.297 2.722-.624 5.287-2.124 7.423-4.34l1.612-1.673 1.415 1.843c1.816 2.366 4.764 3.836 7.693 3.836.447 0 .894-.035 1.328-.104l1.903-.302.373 1.89c.069.351.183.698.37 1.125l.386.884-.45.852c-5.342 10.111-10.579 20.798-15.568 31.764l-1.966 4.324z" fill="#57aa6b"/><path d="m137.094 349.782c-2.087-4.839-3.938-9.288-5.661-13.6l-.303-.759.314-.754c2.529-6.058 4.91-12.249 7.537-19.133 3.378-8.801 6.841-17.827 10.673-26.384l.487-1.087 1.188-.09c.702-.053 1.387-.314 1.905-.536 3.209-1.369 6.131-3.535 8.452-6.265l2.423-2.852 1.024 3.599c.291 1.024.73 1.968 1.305 2.805 1.519 2.223 4.032 3.602 6.561 3.602.448 0 .9-.047 1.344-.139 2.311-.472 4.442-2.212 5.854-4.776.172-.319.344-.662.506-1.014l1.703-3.684 1.884 3.595c.29.555.603 1.036.955 1.472 1.221 1.513 3.161 2.49 4.944 2.49.456 0 .897-.064 1.312-.189l1.757-.529.679 1.704c7.682 19.285 15.457 39.221 23.11 59.256l1.061 2.776-2.971-.063c-5.77-.121-11.659-.183-17.503-.183-19.057 0-38.765.653-58.576 1.939l-1.408.092z" fill="#9bc96a"/><path d="m173.048 288.329c-2.511 0-5.104-1.411-6.606-3.596-1.624-2.368-2.143-5.567-1.423-8.78-2.335 5.107-6.627 9.292-11.785 11.487-.807.362-1.509.545-2.112.545-.2 0-.395-.02-.58-.06-1.916-.371-2.714-2.721-2.81-4.794-.271-5.705 1.991-11.26 3.992-15.462 2.632-5.54 5.91-11.075 10.02-16.92.451-.652.92-1.355 1.408-2.087 2.452-3.694 5.218-7.861 9.188-9.319.951-.351 1.933-.529 2.915-.529 3.895 0 6.737 2.76 7.778 3.947 3.434 3.953 5.24 9.605 6.833 14.592l.445 1.367c1.899 5.902 3.369 11.967 4.372 18.034.75 4.527.079 7.411-2.053 8.816-.704.458-1.538.696-2.42.696-1.791 0-3.735-.973-4.954-2.478-1.769-2.198-2.314-5.161-2.686-7.766l-.018.105c-.545 2.47-1.107 5.025-2.362 7.292-1.396 2.554-3.528 4.3-5.844 4.779-.423.087-.858.131-1.298.131z" fill="#fff"/><path d="m123.099 293.919c-3.659 0-7-2.549-7.605-5.804l-.236-.701.268-.684c.204-.505.336-.919.418-1.303.475-2.174.134-4.488-.222-6.487-.563-3.149-1.298-6.351-2.249-9.787l-.205-.74.343-.688c.036-.071.075-.14.117-.208 3.687-9.836 7.509-19.997 13.38-28.945 2.164-3.303 5.614-7.964 10.567-10.275 1.185-.556 2.216-.827 3.148-.827.484 0 .942.075 1.362.223 1.323.458 2.29 1.666 2.902 2.535 2.923 4.145 4.243 9.191 5.52 14.071l.42 1.618c1.284 4.837 2.848 9.89 4.105 13.951l.254.823-.423.75c-1.171 2.079-2.264 4.175-3.248 6.231-1.995 4.209-4.254 9.776-3.987 15.453.047 1.029.247 1.95.594 2.74l.599 1.365-1.138.964c-2.339 1.982-5.1 4.097-8.267 4.097l-.232-.004c-1.434-.053-2.926-.553-4.442-1.485-1.531-.945-2.98-2.563-2.469-4.275-1.336 3.851-4.615 6.782-8.17 7.31-.36.055-.732.082-1.104.082z" fill="#fff"/><path d="m61.029 212.725c8.543-15.095 13.774-32.216 15.126-49.511l.481-6.153 3.219 5.266c.51.835.938 1.76 1.324 2.636l.226.489c2.175 4.747 5.318 8.418 9.092 10.62 2.501 1.45 5.305 2.218 8.102 2.218 1.957 0 3.862-.397 5.509-1.149 4.318-1.962 7.112-6.094 9.814-10.091 2.855-4.222 5.807-8.587 10.539-10.292 1.676-.616 3.528-.857 5.318-1.091 2.705-.361 5.508-.734 7.613-2.412l1.124-.896 1.208.78c14.122 9.125 28.936 18.304 40.838 25.68l3.025 1.875-3.174 1.609c-30.296 15.362-58.248 24.907-85.454 29.182-5.377.85-10.889 1.509-16.219 2.147l-.113.014c-4.81.577-10.261 1.23-15.555 2.041l-4.072.624z" fill="#939baa"/><path d="m129.306 330.795c-4.432-11.39-8.448-22.893-12.275-35.17l-1.316-4.222 4.039 1.799c1.053.469 2.2.717 3.316.717.4 0 .778-.026 1.124-.078 2.379-.354 4.684-1.771 6.326-3.888l1.391-1.792 1.604 1.604c.373.373.818.719 1.324 1.03 1.526.945 3.019 1.447 4.439 1.495.101.004.192.006.284.006 1.771 0 3.548-.651 5.589-2.048l5.694-3.896-2.728 6.337c-3.29 7.644-6.313 15.476-9.128 22.843-1.925 5.016-3.914 10.2-5.963 15.284l-1.888 4.682z" fill="#57aa6b"/><path d="m39.297 362.104c7.578-23.396 15.533-46.977 23.646-70.086l.583-1.662 1.722.369c.373.08.667.115.952.115 1.395 0 3-.655 4.771-1.946 2.987-2.174 5.591-4.8 7.741-7.807l2.645-3.699.939 4.449c.185.877.41 1.688.667 2.412.867 2.482 2.805 4.974 5.189 4.974.133 0 .269-.007.408-.022 1.725-.186 3.013-1.554 3.942-2.724 1.163-1.477 2.155-3.085 2.944-4.773l1.774-3.796 1.836 3.767c1.586 3.255 4.128 5.954 7.157 7.599 1.502.816 2.918 1.23 4.206 1.23.572 0 1.117-.085 1.622-.251.219-.073.464-.181.742-.329l2.143-1.134.706 2.319c6.277 20.6 12.725 38.298 20.905 57.385l1.109 2.588-2.809.195-1.373.09c-.679.043-1.356.086-2.04.139-24.811 1.816-57.421 4.952-89.733 13.155l-3.511.892z" fill="#cbe580"/><path d="m98.589 178.293c-2.784 0-5.582-.769-8.091-2.223-4.771-2.778-7.575-7.302-9.086-10.609l-.234-.519c-.921-2.049-1.964-4.369-4.091-5.143-.485-.175-.997-.261-1.556-.261-1.304 0-2.674.493-3.721.922-4.111 1.674-8.072 3.996-11.567 6.045l-.087.051c-5.303 3.094-10.312 6.017-16.066 7.528-1.026.27-2.588.593-4.196.593-2.363.001-4.216-.674-5.507-2.005-1.504-1.531-2.175-3.871-2.104-7.354.063-2.945.489-5.914 1.268-8.826l.156-.583.453-.399c14.449-12.751 28.504-26.263 41.777-40.162 1.376-1.452 2.896-2.8 4.645-2.8.15 0 .298.01.444.03 1.141.13 2.157.928 2.973 1.568 14.934 11.569 31.478 23.204 52.057 36.607l2.997 1.952-3.231 1.531c-1.854.879-3.98 1.157-6.037 1.426l-.091.013c-1.763.241-3.586.49-5.237 1.078-4.73 1.709-7.675 6.074-10.524 10.295-2.851 4.207-5.519 8.146-9.823 10.093-1.68.764-3.538 1.152-5.521 1.152z" fill="#fff"/><path d="m66.206 290.838c-.656 0-1.262-.145-1.801-.43-2.309-1.231-2.436-4.422-2.383-5.738.175-4.069 1.746-7.844 3.626-12.004 3.398-7.511 7.236-15.44 12.08-24.954.699-1.368 1.419-3.047 2.114-4.67 2.199-5.15 4.933-11.553 9.029-13.915 1.289-.738 2.474-1.095 3.627-1.095.538 0 1.068.08 1.576.238 2.354.762 4.354 3.107 6.313 7.387 6.553 14.276 12.658 28.331 15.331 43.291.375 2.088.703 4.309.236 6.465-.518 2.374-2.02 4.227-3.921 4.84-.497.165-1.047.25-1.623.25-1.284 0-2.697-.417-4.2-1.239-4.955-2.681-8.426-8.06-8.834-13.7-.691 3.976-2.376 7.752-4.876 10.916-.866 1.083-2.209 2.535-3.95 2.718-.124.013-.248.02-.372.02-2.577.001-4.416-2.674-5.208-4.965-.996-2.832-1.323-5.922-.944-8.924-2.436 5.391-6.259 10.085-11.049 13.568-1.209.884-3.022 1.941-4.771 1.941z" fill="#fff"/><path d="m76.45 159.08-.03.54-.12 1.83-.01.11-.02.29-.11 1.36v.05c-.13 1.6-.29 3.21-.48 4.81-.25 2.16-.57 4.31-.96 6.45-.09.53-.19 1.07-.3 1.6-.08.44-.17.88-.25 1.31-.13.63-.26 1.26-.4 1.89-.57 2.66-1.24 5.3-2.01 7.91-1.21 4.18-2.65 8.3-4.32 12.32-.61 1.51-1.26 3-1.96 4.48-.44.99-.92 1.97-1.4 2.95-.49.97-.98 1.94-1.49 2.9-.51.95-1.03 1.91-1.56 2.85-.13.24-.27.48-.41.72-.29.51-.58 1.01-.88 1.51l-.01.06v.01l-.25 1.21v.03l-.01.03-1.109.174c-.577.103-1.154.201-1.731.316-.94.18-1.86.36-2.76.55-.11.02-.21.04-.32.06-.89.18-1.78.38-2.66.59-.46.1-.91.21-1.36.32-.06.02-.13.03-.2.05-.67.16-1.34.33-1.99.5-.15.04-.3.08-.44.12-.6.16-1.19.32-1.77.49-.26.07-.51.14-.76.22-.72.21-1.43.43-2.13.65-.11.03-.21.07-.32.1-.61.2-1.21.4-1.8.61-.19.06-.38.12-.56.19-.1.03-.2.06-.29.1-.68.24-1.35.49-2.01.74-.6.23-1.21.47-1.81.72-.59.24-1.19.49-1.78.75-1.19.51-2.35 1.05-3.51 1.6-1.39.67-2.76 1.37-4.11 2.09-.08.05-.17.09-.25.13-.48.26-.95.53-1.42.79-.55.31-1.1.63-1.65.94-1.09.64-2.17 1.29-3.24 1.95-1.6 1-3.17 2.02-4.71 3.06-.51.35-1.02.7-1.53 1.05-.04.03-.07.05-.1.06-.62.44-1.23.87-1.83 1.3-.28.19-.54.38-.81.57-.05.04-.11.08-.16.12-.66.48-1.31.96-1.96 1.44-.57.41-1.12.83-1.67 1.25-.11.08-.21.15-.31.23-.89.67-1.76 1.34-2.62 2.02-.75.58-1.49 1.16-2.22 1.74-.53.42-1.05.84-1.57 1.25v-61.41c1.2-.92 2.4-1.86 3.59-2.79 1.22-.96 2.44-1.91 3.65-2.88 1.35-1.07 2.7-2.15 4.04-3.24 1.37-1.1 2.73-2.2 4.08-3.32 1.51-1.23 3.01-2.47 4.51-3.73 1.5-1.24 3-2.5 4.49-3.78 1.65-1.39 3.29-2.8 4.92-4.21l3.96-3.43-.52 4.06-.01.06-.14 1.07c-.09.67-.15 1.32-.2 1.94-.05.63-.07 1.24-.09 1.85 0 .36 0 .74.01 1.15 0 .16.01.32.02.48.01.18.02.36.04.54s.04.35.06.53c.02.17.04.33.07.5.02.15.05.31.09.47.02.12.05.23.08.35.11.45.25.9.44 1.34.18.43.4.85.68 1.24.09.13.18.25.29.38.1.12.21.24.32.36.16.17.33.32.51.47.36.29.75.53 1.18.75.43.2.9.37 1.4.5.19.05.38.09.58.12.19.04.4.07.6.09.42.05.85.07 1.3.07.32 0 .64-.01.98-.04.32-.02.64-.06.97-.11l1.78-.34c.13-.02.27-.05.41-.09.36-.1.72-.2 1.07-.31.41-.12.81-.25 1.21-.38.24-.08.48-.16.72-.25.4-.14.79-.29 1.19-.45.2-.08.39-.16.59-.24.45-.18.89-.37 1.34-.57.11-.05.22-.1.33-.15.79-.35 1.57-.73 2.34-1.13.6-.3 1.2-.61 1.79-.93 1.04-.57 2.07-1.15 3.08-1.73.8-.46 1.6-.93 2.4-1.39.01-.02.03-.02.05-.03.01-.01.02-.02.04-.03l.16-.09c.49-.28.98-.57 1.48-.86.59-.34 1.19-.68 1.79-1.02.76-.43 1.53-.86 2.3-1.28.41-.22.83-.44 1.25-.65.27-.15.55-.29.82-.42.32-.16.64-.32.96-.47.43-.2.85-.4 1.28-.59.5-.23 1.02-.45 1.53-.66.66-.28 1.33-.51 1.95-.67z" fill="#5b5d6d"/><path d="m42.945 284.571c-.439 0-.869-.066-1.275-.196-1.361-.432-2.333-1.516-2.907-2.35-1.92-2.801-2.214-6.276-2.382-10.2-1.597 3.657-4.063 6.922-7.131 9.448-.657.554-1.564 1.247-2.602 1.561-.378.111-.751.166-1.122.166-.697 0-1.32-.196-1.801-.568-.485-.378-.863-.955-1.127-1.719-.843-2.348-.345-4.944.32-7.397 1.501-5.582 3.802-11.139 5.832-16.042 2.49-6.049 5.066-12.308 8.488-18.067.91-1.521 2.004-3.248 3.515-4.565 1.074-.948 2.089-1.413 3.095-1.413h.001c1.396 0 2.713.847 4.177 2.665 3.747 4.669 5.963 10.374 8.106 15.89 2.889 7.429 5.521 14.02 8.892 20.366l.454.854-.388.886c-.698 1.596-1.579 3.699-2.191 5.807l-.3 1.032-1.117.349c-.786.43-1.584.626-2.445.626-1.755 0-3.637-.852-4.913-2.223-1.575-1.686-2.538-4.125-2.941-7.452l-1.065 3.943c-.541 2.029-1.157 4.339-2.565 6.138-.941 1.195-2.643 2.461-4.608 2.461z" fill="#fff"/><path d="m63.64 290.01-.33.96c-.23.64-.45 1.28-.67 1.92-1.94 5.49-3.85 11.01-5.75 16.54-.78 2.27-1.57 4.55-2.34 6.83-.64 1.87-1.28 3.74-1.91 5.61-.58 1.69-1.15 3.39-1.72 5.09-4.2 12.42-8.32 24.87-12.32 37.27-.01.03-.01.06-.02.09 0 .02-.01.03-.01.04-.02.06-.03.12-.05.18l-.34 1.01v.01l-1.04.28c-.3.08-.61.16-.91.25-.73.2-1.45.4-2.18.6-.75.21-1.5.42-2.24.64-.89.25-1.77.51-2.64.77-.97.29-1.93.58-2.89.87-.78.24-1.56.49-2.33.73-1 .32-1.98.63-2.96.95-.73.25-1.46.49-2.18.73-1.85.62-3.67 1.25-5.48 1.9-.11.04-.22.08-.33.12-.58.21-1.16.42-1.74.64-3.31 1.21-6.56 2.48-9.74 3.79-.51.21-1.02.42-1.52.63v-45.84c.14-.29.28-.58.41-.86.22-.45.43-.9.64-1.35 1.28-2.75 2.56-5.51 3.82-8.27 1-2.19 2-4.38 2.99-6.58l.93-2.07c2.13-4.76 4.22-9.53 6.29-14.31 1.1-2.56 2.2-5.12 3.28-7.69s2.16-5.13 3.22-7.7l.79-1.9 1.75.79.13.06c.1.04.2.08.3.11.12.04.25.07.38.09.06.02.12.03.19.03.12.02.25.03.38.03h.04c.1 0 .2 0 .3-.01.08-.01.17-.02.25-.03.12-.02.23-.04.35-.07.07-.01.13-.03.2-.05l.01-.01c.15-.04.3-.09.44-.16l.06-.03c.19-.07.37-.16.55-.26.28-.16.55-.33.8-.52.13-.1.26-.19.38-.29.13-.1.25-.2.37-.3.38-.31.75-.64 1.12-.98.36-.33.71-.69 1.06-1.05.25-.24.48-.5.71-.77.01-.02.03-.03.05-.05.14-.16.29-.33.43-.5.26-.31.51-.63.75-.95.02-.02.04-.05.06-.07l2.63-3.49.85 3.94.07.33c.01.03.02.07.03.1.06.28.13.55.2.82.01.02.01.04.02.06.09.31.19.62.29.91.06.16.12.32.19.48.07.18.15.36.23.53.08.18.17.35.26.52.09.16.18.33.28.49.02.03.04.07.07.1.07.12.14.23.22.34s.15.22.23.32c.03.04.06.07.09.11.1.14.22.27.33.39s.23.24.35.35c.11.12.23.22.36.32.1.08.2.16.3.22.4.29.81.5 1.24.64.41.12.84.19 1.28.19.25 0 .49-.02.72-.06.17-.03.35-.06.52-.11.17-.04.34-.1.5-.16.12-.05.25-.1.36-.15.84-.38 1.56-.94 2.11-1.53.14-.15.27-.3.39-.45.07-.09.14-.18.21-.28.01-.02.03-.04.04-.06.02-.02.03-.04.04-.06.09-.11.17-.23.24-.36.03-.04.06-.09.08-.13.11-.17.21-.35.31-.54.13-.24.25-.5.37-.77.11-.25.22-.51.32-.78.09-.22.17-.46.25-.7l.03-.1 1.33-3.97 2.24 3.65c.01.02.03.05.05.07.32.52.67.99 1.07 1.4v.01c.16.17.33.33.5.48.18.15.35.29.54.42.05.04.11.08.17.12.28.19.57.35.87.5.15.08.3.15.45.2.77.31 1.59.47 2.4.47.26 0 .52-.02.77-.05l.35-.05.11-.02 2.05-.28-.15 1.59v.03l-.11 1.15c-.02.2-.04.39-.05.59-.01.4-.01.79.01 1.15v.04c.02.19.03.37.05.54v.01c.03.17.05.34.08.5.03.18.07.35.12.52.04.17.09.34.14.49.08.24.18.47.29.69.09.18.19.34.29.5.09.13.16.27.26.39 0 .01.01.02.02.03z" fill="#9bc96a"/><path d="m480.9 95.91c-3.34-.74-6.05 1.99-7.2 3.16-4.94 4.99-9.8 10.23-14.49 15.29-10.76 11.6-21.88 23.6-34.61 33.24-7.68 5.81-16.12 10.89-24.28 15.8-9.05 5.44-18.39 11.08-26.85 17.77-32.24-13.99-62.75-31.63-91.09-52.72-2.4-1.79-6.02-4.48-10.17-3.77-2.04.35-3.75 1.48-5.12 2.39-27.08 18.01-54.62 36.32-83.44 51.32-.02-.01-.04-.03-.06-.04-33.02-20.46-67.17-41.62-98.38-65.79-.95-.74-2.26-1.75-3.96-1.97-3.16-.41-5.59 2.15-6.76 3.37-4.602 4.823-9.276 9.576-14.019 14.259-5.221 5.153-10.526 10.221-15.912 15.201-2.695 2.492-5.41 4.961-8.144 7.409-1.101.986-1.94 1.971-2.878 3.069-.971 1.137-2.52 1.707-3.645 2.689-1.398 1.222-2.802 2.437-4.21 3.646-2.816 2.419-5.652 4.814-8.508 7.186-2.854 2.37-5.728 4.717-8.621 7.039-1.446 1.161-2.896 2.315-4.351 3.463-.568.449-4.202 2.689-4.202 3.289v5.05c10.42-8.01 20.63-16.34 30.59-24.97-.17 1.33-.28 2.66-.31 3.99-.05 2.55.17 6.23 2.67 8.79 2.51 2.57 6.65 3.26 11.65 1.95 6.05-1.59 11.44-4.74 16.65-7.79 3.65-2.13 7.42-4.34 11.31-5.92.55-.23 1.14-.44 1.71-.59-1.23 18.37-6.83 36.41-16.25 52.22-.11.19-.18.4-.22.6-7.22 1.3-14.38 3.03-21.26 5.67-13.57 5.2-25.37 13.51-36.54 22.38v5.11c11.67-9.4 23.92-18.38 37.97-23.75 12.96-4.97 27.16-6.67 40.89-8.32 5.39-.64 10.96-1.31 16.41-2.17 39.99-6.28 76.68-22.99 111.67-43.36-6.11 6.3-11.67 12.73-16.86 18.91-3.15 3.75-6.35 7.82-7.8 12.72-.67 2.26-.63 4.1.11 5.62.92 1.87 2.85 3.15 5.6 3.69 4.93.97 9.78-.31 13.46-1.54 9.2-3.07 17.6-8.08 25.72-12.91 5.06-3.02 10.29-6.13 15.63-8.72 1.76-.85 3.02-1.07 3.56-.63.49.41.57 1.59.23 3.24-.89 4.35-2.51 8.66-4.08 12.82-1.64 4.38-3.34 8.9-4.29 13.62-1.52 7.54.26 13.76 4.75 16.63 1.69 1.09 3.7 1.63 5.8 1.63 2.07 0 4.23-.53 6.25-1.59 3.82-2 6.51-5.46 8.2-7.89 3.59-5.16 6.25-10.85 7.91-16.92.22-.81.44-1.64.65-2.48.89-3.48 1.81-7.03 3.61-9.66 1.1 6.24 3.06 12.37 4.97 18.32 3.52 10.99 6.84 21.37 5.06 32.06-1.28 7.66-5.25 14.9-9.08 21.89-4.81 8.78-9.79 17.86-9.8 28.15-.01 2.93.4 5.85.8 8.66.57 4.08 1.1 7.95.43 11.66-2.4-7.99-5.72-15.68-9.88-22.93 1.66-1.55 2.82-3.78 3.13-6.28.26-2.07-.03-4.07-.38-5.93-1.48-7.8-4.48-15.34-8.68-21.82-2.56-3.94-6.11-5.68-9.75-4.8-3.17.78-4.94 3.74-6.23 5.91l-.36.6c-.15.24-.28.46-.42.69-1.34-3.93-2.73-7.86-4.19-11.71-1.31-3.43-2.64-6.77-4.6-9.9-1.8-2.87-3.9-4.28-6.22-4.29-2.04.03-3.67 1.24-4.87 2.29-5.33 4.67-8.94 10.77-12.42 16.67-2.43 4.11-4.94 8.33-7.98 11.97-.78-3.28-1.68-6.54-2.71-9.73l-.42-1.31c-1.65-5.2-3.53-11.08-7.24-15.35-3.55-4.09-8.49-5.62-12.9-3.99-4.58 1.68-7.67 6.33-10.15 10.07-.48.71-.94 1.41-1.4 2.06-1.48 2.11-2.85 4.18-4.13 6.22-1.05-3.45-2.09-6.95-3.01-10.43l-.4-1.52c-1.33-5.08-2.7-10.34-5.84-14.8-.84-1.18-2.04-2.63-3.88-3.27-1.76-.61-3.73-.39-6.02.68-5.4 2.52-9.08 7.48-11.39 11-5.11 7.78-8.67 16.4-11.92 24.93-3.07-9.31-7.09-18.41-11.3-27.59-1.4-3.04-3.7-7.23-7.51-8.45-2.16-.68-4.46-.34-6.83 1.03-4.68 2.7-7.44 9.16-9.87 14.86-.72 1.68-1.4 3.28-2.05 4.55-4.11 8.05-7.51 15.02-10.57 21.63-2.66-5.39-4.93-11.07-7.35-17.29l-.03-.09c-2.21-5.67-4.48-11.52-8.41-16.42-.68-.84-2.74-3.41-5.73-3.41h-.05c-1.48.01-2.96.66-4.38 1.91-1.67 1.46-2.86 3.29-3.91 5.05-3.48 5.86-6.09 12.2-8.62 18.32-2.16 5.24-4.4 10.65-5.91 16.29-.71 2.63-1.23 5.43-.4 8.17-6.47 15.73-13.36 31.45-20.59 46.94v9.41c8.25-17.36 16.1-35.04 23.43-52.76 1.13.51 2.47.59 3.79.19 1.35-.4 2.43-1.21 3.31-1.94 1.68-1.38 3.19-2.97 4.5-4.71.38 1.75 1.01 3.49 2.09 5.06 1.08 1.56 2.44 2.64 3.94 3.12.64.2 1.27.29 1.89.29 2.5 0 4.79-1.47 6.17-3.22 1.05-1.33 1.7-2.82 2.19-4.29.4.65.85 1.25 1.35 1.79 1.98 2.12 4.87 3.12 7.45 2.76-.03.32-.07.64-.08.97-.1 2.32.39 4.28 1.39 5.73-8.53 24.26-16.86 48.96-24.76 73.41-.02.06-.02.13-.04.19-12.31 3.31-24.58 7.37-36.62 12.39v4.34c43.79-18.56 90.9-24.17 131.56-27.14 67.92-4.97 131.73-2.4 190.88 7.61-52.99.94-105.4 13.76-152.89 37.57-52.42 26.28-97.7 65.38-131.36 113.32h4.88c33.12-46.36 77.28-84.18 128.27-109.74 53.88-27.02 114.17-39.73 174.37-36.79 31.17 6.44 60.97 15.05 89.32 25.8-30.16-.51-61.04 4.85-90.58 16.11-50.78 19.36-97.55 56.31-132.7 104.62h4.97c34.51-46.53 79.93-82.11 129.15-100.88 55.29-21.08 115.28-21.14 166.13-.43v-4.31c-6.28-2.5-12.7-4.69-19.23-6.57-.05-.3-.16-.59-.36-.85-19.77-26.48-51.12-46.58-95.84-61.46-27.58-9.17-56.22-15.47-85.11-18.7-9.13-1.03-21.83-1.86-34.28-.76 11.56-6.72 23.58-12.63 35.96-17.73.32.09.66.1 1.01.01 7.16-1.84 15.02-2.5 24.74-2.09 24.14 1.02 55.75 3.12 86.31 10.39 30.85 7.34 57.29 19.12 78.59 35 3.15 2.35 5.85 4.55 8.21 6.7v-5.31c-1.76-1.48-3.69-3-5.82-4.59-21.74-16.22-48.67-28.22-80.06-35.69-30.88-7.35-62.75-9.47-87.06-10.5-3.47-.14-6.7-.15-9.77-.02 31.33-10.83 64.57-16.52 98.17-16.68 20.05 3.07 40.74 10.56 60.13 18.21 7.98 3.15 16.77 6.87 24.41 12.2v-4.8c-7.39-4.76-15.51-8.18-22.95-11.12-12.87-5.08-26.33-10.09-39.84-13.82 11.71.78 23.42 2.24 35.07 4.4 8.7 1.61 18.53 3.81 27.72 7.94v-4.36c-9.07-3.84-18.55-5.95-26.99-7.52-19-3.52-38.17-5.21-57.23-5.13-.03-.01-.06-.01-.08-.02-.23-.03-.44-.02-.65.02-54.87.33-108.79 15.24-155.12 42.96.41-3.82-.11-7.62-.63-11.32-.39-2.81-.77-5.45-.76-8.1.01-9.27 4.53-17.51 9.31-26.23 3.99-7.29 8.12-14.83 9.51-23.16 1.95-11.65-1.68-22.98-5.19-33.94-2.12-6.61-4.31-13.44-5.22-20.22.2-.07.38-.12.55-.12 1.17 0 2.1 1.9 2.74 5.65 1.79 10.36 9.36 18.86 18.41 20.65 1.33.26 3.31.51 5.15-.36 2.27-1.08 3.37-3.4 4-5.05 1.07-2.81 1.71-5.72 2.33-8.53.64-2.95 1.26-5.73 2.31-8.37 1.81-4.52 5.99-9.23 10.91-8.9 3.23.23 5.97 2.47 8.87 4.85 1.51 1.23 3.07 2.51 4.77 3.55 5.78 3.57 13.45 4.34 20.53 2.07 6.19-1.99 11.91-6.15 16.54-12.02.06-.08.1-.16.15-.25 12.16 5.13 24.54 9.76 37.16 13.85 6.74 2.19 13.71 4.29 20.45 6.32 27.51 8.29 55.85 16.82 78.18 34.02v-5c-13.7-10.02-29.33-17.01-45.54-22.79 5.68-11.33 9.97-23.32 12.77-35.69 1.77-.62 3.36-1.57 4.63-2.5 4.58-3.34 8.13-8.14 9.99-13.5.78-2.23 1.28-4.56 1.76-6.82.93-4.33 1.81-8.42 4.46-11.38.73-.82 1.4-1.28 2-1.36.9-.13 1.94.5 3.14 1.23.91.56 1.86 1.13 2.95 1.51 1.3.45 2.59.54 3.84.39v-4.03c-.88.16-1.73.14-2.54-.14-.68-.24-1.41-.68-2.17-1.14-1.62-.99-3.46-2.11-5.78-1.78-1.56.22-3.04 1.11-4.42 2.65-3.36 3.75-4.39 8.56-5.39 13.21-.48 2.24-.93 4.35-1.63 6.35-1.59 4.6-4.64 8.71-8.57 11.58-.95.7-2.43 1.63-4.08 2.12-.25.01-.48.07-.69.17-.91.19-1.85.22-2.77-.01-2.98-.77-4.7-4.09-5.04-6.85-.41-3.44.61-7 1.6-10.44l2.92-10.2c.39-1.33 1.28-4.45-.75-6.61-1.01-1.06-2.95-2.1-6.52-1.04-2.78.83-5.35 2.12-7.83 3.37-2.55 1.29-4.96 2.51-7.54 3.22-2.13.59-4.75.44-5.42-.98-.28-.58-.25-1.45-.2-2.14.22-2.88.9-6.91 2.86-9.79.17-.26.27-.55.32-.85 4.72-4.8 9.29-9.71 13.78-14.56 4.67-5.04 9.51-10.25 14.4-15.2.99-1 2.43-2.3 3.49-2.06.6.13 1.27.78 1.92 1.4 9.05 8.73 19.13 16.24 30.05 22.41v-4.6c-9.88-5.78-19.02-12.71-27.27-20.69-.95-.91-2.13-2.05-3.83-2.43zm-409.85 62.7c-4.15 1.69-8.05 3.96-11.82 6.17-5.21 3.04-10.13 5.92-15.65 7.37-2.05.54-5.8 1.15-7.76-.87-1.11-1.13-1.6-3.01-1.54-5.92.06-2.82.47-5.62 1.2-8.35 14.55-12.84 28.55-26.3 41.9-40.28 1.09-1.15 2.35-2.31 3.37-2.17.61.07 1.36.65 2.01 1.16 16.78 13 34.39 25.11 52.2 36.71-1.54.73-3.45.99-5.44 1.25-1.9.26-3.86.52-5.74 1.19-5.34 1.93-8.48 6.57-11.51 11.06-2.67 3.94-5.19 7.67-8.99 9.39-3.49 1.59-8 1.21-11.78-.98-4.31-2.51-6.88-6.67-8.27-9.71l-.23-.51c-1.03-2.29-2.32-5.14-5.23-6.2-.24-.09-.49-.16-.73-.21-.15-.04-.3-.07-.44-.09-1.96-.31-3.88.31-5.55.99zm23.6 50.9c-5.38.85-10.91 1.51-16.26 2.15-5.17.62-10.4 1.25-15.62 2.05 8.71-15.39 14-32.7 15.38-50.34.44.72.83 1.56 1.2 2.4l.24.52c2.35 5.13 5.77 9.1 9.9 11.51 2.83 1.64 6.02 2.49 9.11 2.49 2.22 0 4.39-.44 6.34-1.33 4.82-2.19 7.78-6.56 10.64-10.79 2.8-4.14 5.45-8.05 9.56-9.53 1.47-.54 3.14-.76 4.9-.99 3-.4 6.09-.83 8.6-2.83 13.62 8.8 27.33 17.31 40.87 25.7-26.94 13.66-55.01 24.3-84.86 28.99zm144.38 54.7.38-.64c1.04-1.72 2.2-3.68 3.75-4.06 2.58-.63 4.52 1.66 5.44 3.08 3.93 6.05 6.73 13.1 8.11 20.39.29 1.54.53 3.18.34 4.7-.26 2.12-1.69 4.5-3.91 4.96-2.19.45-4.49-1.16-5.63-2.99-1.44-2.3-1.8-5.29-1.96-7.91-.05-.84-.62-1.56-1.43-1.8-.18-.05-.37-.08-.56-.08-.63 0-1.23.3-1.61.82-3.01 4.1-5.81 7.6-9.68 8.9-1.09.37-2.02.4-2.54.07-.88-.54-.99-2.25-.8-3.66.46-3.44 1.89-6.7 3.37-9.7 1.77-3.59 3.91-7.43 6.73-12.08zm-42.64 8.01c4.03-4.29 7.04-9.38 9.95-14.3 3.48-5.89 6.77-11.45 11.61-15.7.69-.6 1.56-1.29 2.29-1.3.81.02 1.8.85 2.78 2.41 1.77 2.82 3.02 5.96 4.25 9.2 1.86 4.87 3.62 9.86 5.26 14.84-1.46 2.56-2.71 4.9-3.82 7.15-1.49 3.03-3.06 6.62-3.66 10.45-.09.01-.17.01-.26.03-3.41.75-7.29-1.38-8.48-4.66-.25-.7-.87-1.2-1.6-1.3-.74-.1-1.47.22-1.9.82-2.08 2.92-5 4.99-8 5.67-3.07.7-6.29-.09-8.37-1.99.61-1.88.69-4.24.22-7.12-.22-1.29-.46-2.57-.72-3.85.16-.1.32-.21.45-.35zm29.14 18.34c-5.5 10.41-10.73 21.12-15.62 31.87-4.42-11.39-8.88-22.76-13.37-34.04 1.84.9 3.92 1.39 6.05 1.39 1.04 0 2.08-.11 3.11-.35 3.1-.71 6.01-2.41 8.41-4.9 2.51 3.27 6.82 5.14 10.92 4.49.11.56.29 1.06.5 1.54zm-62.15-38.66c.47-.68.95-1.4 1.45-2.15 2.27-3.42 4.85-7.3 8.2-8.53 4.23-1.56 7.57 1.8 8.5 2.86 3.17 3.65 4.91 9.12 6.45 13.94l.43 1.32c1.86 5.78 3.31 11.75 4.3 17.74.6 3.62.2 5.91-1.18 6.82-1.4.91-3.61 0-4.72-1.37-1.44-1.79-1.91-4.34-2.26-6.79-.14-.96-.94-1.68-1.91-1.72-.96-.04-1.82.63-2.02 1.58-.52 2.36-1.05 4.81-2.18 6.85-1.12 2.05-2.76 3.43-4.5 3.79-2.05.42-4.51-.69-5.85-2.64-1.31-1.91-1.72-4.53-1.12-7.21.22-1-.35-2-1.32-2.33-.21-.07-.42-.1-.64-.1-.76 0-1.48.44-1.82 1.17-2.12 4.65-6.04 8.47-10.74 10.47-.29.13-1.07.46-1.49.37-.62-.12-1.16-1.41-1.23-2.93-.25-5.27 1.9-10.52 3.8-14.51 2.58-5.43 5.8-10.87 9.85-16.63zm-47.84 16.48c3.67-9.79 7.46-19.9 13.24-28.71 2.03-3.1 5.26-7.47 9.74-9.56 1.28-.6 2.29-.78 3-.53.78.27 1.48 1.16 1.93 1.8 2.73 3.87 4 8.76 5.24 13.5l.4 1.54c1.25 4.71 2.7 9.42 4.13 14.04-1.2 2.13-2.3 4.24-3.31 6.35-2.09 4.41-4.47 10.26-4.18 16.41.06 1.31.33 2.47.76 3.45-2.36 2-4.69 3.7-7.14 3.62-1.08-.04-2.24-.44-3.46-1.19-1.02-.63-1.74-1.53-1.6-2 .29-1.05-.3-2.13-1.33-2.46-1.03-.32-2.13.23-2.49 1.25-1.09 3.16-3.73 5.55-6.56 5.97-2.89.43-5.97-1.53-6.45-4.11-.02-.09-.05-.18-.08-.27.21-.52.4-1.07.52-1.64.55-2.52.18-5.06-.21-7.25-.6-3.36-1.38-6.68-2.29-9.97.04-.08.1-.15.14-.24zm30.74 23.52c-3.25 7.55-6.26 15.33-9.16 22.92-1.93 5.03-3.91 10.19-5.95 15.25-4.44-11.41-8.41-22.79-12.23-35.04 1.28.57 2.69.89 4.13.89.47 0 .95-.03 1.42-.1 2.95-.44 5.67-2.14 7.61-4.64.48.48 1.04.92 1.69 1.32 1.81 1.12 3.64 1.73 5.42 1.79 2.64.1 4.95-.94 7.07-2.39zm-82.26-7.15c.16-3.73 1.66-7.3 3.45-11.26 3.43-7.58 7.26-15.48 12.04-24.87.71-1.39 1.42-3.04 2.17-4.79 2.08-4.87 4.67-10.94 8.19-12.97 1.38-.79 2.55-1.01 3.61-.68 1.73.56 3.4 2.62 5.09 6.31 6.5 14.16 12.55 28.09 15.18 42.81.34 1.89.64 3.89.25 5.69-.36 1.65-1.37 2.97-2.58 3.36-1.39.46-3.08-.2-4.25-.84-4.38-2.37-7.44-7.12-7.8-12.09-.07-1.01-.89-1.81-1.9-1.86-1.04-.05-1.9.66-2.07 1.66-.63 3.65-2.17 7.11-4.47 10.02-.99 1.24-1.83 1.89-2.59 1.97-1.42.15-2.82-1.7-3.48-3.61-.9-2.56-1.19-5.33-.85-8.02.13-.99-.48-1.91-1.44-2.18-.94-.27-1.95.19-2.36 1.1-2.3 5.08-5.9 9.5-10.41 12.78-.89.65-3.1 2.08-4.46 1.36-1.07-.57-1.38-2.38-1.32-3.89zm-3.04-5.61c-.16.05-.32.1-.46.19-1.55.89-3.73.08-4.93-1.21-1.28-1.37-2.07-3.44-2.42-6.33-.11-.95-.88-1.69-1.84-1.76-.95-.08-1.83.55-2.07 1.48l-1.07 3.94c-.52 1.95-1.06 3.96-2.21 5.43-.87 1.1-2.42 2-3.7 1.59-.82-.26-1.47-1-1.87-1.58-1.61-2.35-1.87-5.4-2.03-9.15-.04-.93-.71-1.7-1.63-1.87-.91-.17-1.82.31-2.2 1.16-1.47 3.36-3.74 6.37-6.57 8.7-.57.48-1.25.99-1.91 1.19-.44.13-.9.1-1.12-.07-.09-.07-.28-.27-.46-.79-.66-1.84-.22-4.08.36-6.22 1.45-5.39 3.63-10.68 5.75-15.8 2.47-6 5.02-12.19 8.36-17.81.88-1.47 1.86-2.99 3.11-4.08.68-.6 1.29-.92 1.78-.92.7-.02 1.59.64 2.62 1.92 3.54 4.41 5.71 9.98 7.8 15.36l.04.09c2.88 7.42 5.55 14.09 8.95 20.49-.88 2.01-1.69 4.02-2.28 6.05zm70.29 70.37c-28.01 2.05-59.07 5.34-90.07 13.21 7.56-23.34 15.5-46.88 23.63-70.04.42.09.87.16 1.37.16 1.57 0 3.55-.58 5.95-2.33 3.16-2.3 5.93-5.1 8.19-8.26.19.9.43 1.8.74 2.67 1.1 3.15 3.79 6.68 7.69 6.27 2.5-.27 4.22-2.11 5.3-3.47 1.26-1.6 2.33-3.33 3.19-5.17 1.73 3.55 4.54 6.6 8 8.48 2.67 1.45 5.23 1.84 7.41 1.12.36-.12.71-.28 1.05-.46 6.25 20.51 12.76 38.41 20.98 57.59-1.15.08-2.28.14-3.43.23zm7.66-.52c-1.97-4.57-3.85-9.07-5.64-13.55 2.63-6.3 5.14-12.85 7.56-19.19 3.35-8.73 6.81-17.75 10.63-26.28.93-.07 1.79-.37 2.54-.69 3.54-1.51 6.7-3.88 9.19-6.81.35 1.23.88 2.37 1.58 3.39 1.92 2.81 5.07 4.47 8.21 4.47.58 0 1.17-.06 1.75-.18 2.89-.59 5.51-2.7 7.2-5.77.2-.37.39-.75.57-1.14.33.63.71 1.23 1.17 1.8 1.92 2.38 5.34 3.88 8.39 2.96 7.8 19.58 15.56 39.49 23.1 59.23-24.79-.52-50.22.07-76.25 1.76zm90.97-1.32c-3.45-.14-6.92-.25-10.4-.34-2.5-6.56-5.03-13.14-7.58-19.72.03-.06.07-.1.09-.15 5.12-11.45 10.68-22.87 16.51-33.97 1.43.55 3.15.52 5.03-.12 3.59-1.21 6.4-3.81 8.64-6.47.38 1.67.97 3.34 1.92 4.86 1.91 3.07 5.17 4.95 8.32 4.95.51 0 1.02-.05 1.52-.15.16-.03.31-.08.47-.12 4.43 7.72 7.87 15.97 10.22 24.56-11.95 7.64-23.36 16.15-34.09 25.51-.36.31-.57.73-.65 1.16zm81.12-24.9c28.61 3.21 56.97 9.44 84.29 18.53 42.08 14 72.04 32.63 91.42 56.86-12.97-3.33-26.33-5.47-39.9-6.39-.19-.2-.41-.36-.68-.46-31.29-12.56-64.39-22.45-99.19-29.67-.2-.08-.41-.14-.64-.15-.04 0-.09-.01-.13-.01-35.33-7.29-72.42-11.82-111.11-13.59 10.74-9.2 22.15-17.56 34.11-25.03.29.09.6.12.91.07 14.28-2.32 30.13-1.37 40.92-.16zm47.28-127.62c-5.98 1.92-12.42 1.3-17.21-1.66-1.47-.91-2.86-2.04-4.33-3.25-3.26-2.67-6.63-5.42-11.14-5.74-6.94-.49-12.48 5.38-14.89 11.41-1.18 2.94-1.86 6.02-2.51 8.99-.62 2.79-1.2 5.44-2.16 7.96-.38 1.01-1.01 2.4-1.97 2.86-.59.28-1.44.3-2.66.06-7.47-1.48-13.74-8.64-15.25-17.41-.42-2.46-1.54-8.97-6.67-8.97h-.07c-1.1.02-2.22.38-3.41 1.13-5.16 3.22-6.74 9.36-8.12 14.78-.21.81-.42 1.62-.64 2.42-1.54 5.62-4.01 10.9-7.34 15.69-1.44 2.08-3.72 5.04-6.76 6.63-2.76 1.44-5.92 1.49-8.05.13-3.58-2.29-3.89-7.94-2.98-12.47.89-4.41 2.53-8.77 4.12-13 1.62-4.31 3.29-8.77 4.25-13.43.68-3.28.14-5.67-1.6-7.12-2.81-2.33-6.61-.49-7.86.11-5.48 2.66-10.8 5.82-15.93 8.88-7.94 4.73-16.15 9.62-24.93 12.55-3.22 1.08-7.42 2.21-11.43 1.42-1.43-.29-2.44-.84-2.78-1.53-.28-.58-.24-1.47.13-2.73 1.24-4.16 4.03-7.71 7.03-11.28 7.86-9.36 16.54-19.28 26.75-28.41.36-.32.56-.75.63-1.19 16.54-10.14 32.75-20.91 48.79-31.57 1.16-.78 2.37-1.58 3.58-1.79 2.27-.38 4.65 1.21 7.1 3.03 28.74 21.4 59.7 39.26 92.42 53.41-4.04 4.92-8.9 8.41-14.11 10.09zm93.57-45.9c2.95-.81 5.66-2.18 8.27-3.5 2.43-1.22 4.73-2.38 7.17-3.11 1.35-.4 2.21-.31 2.46-.04.22.23.36.89-.17 2.76l-2.93 10.2c-1.04 3.64-2.23 7.77-1.72 12.02.51 4.21 3.19 9.01 8.01 10.24.68.18 1.34.25 2 .28-2.77 11.66-6.89 22.96-12.3 33.66-9.16-3.15-18.47-5.96-27.69-8.73-6.72-2.03-13.67-4.12-20.37-6.29-12.53-4.07-24.84-8.67-36.92-13.77 7.81-5.96 16.38-11.13 24.7-16.14 8.25-4.97 16.79-10.11 24.63-16.04 5.14-3.89 10-8.14 14.67-12.58-.22 1.19-.38 2.44-.49 3.76-.09 1.18-.1 2.72.57 4.15 1.7 3.63 6.3 4.19 10.11 3.13z"/><path d="m480.22 63.97c-2.95-3.51-7.2-6.07-12.18-7.26-7.65-1.82-16.03-.17-21.85 4.32-9.15 7.06-13.47 20.02-11.3 32.77-9.96-6.18-21.02-10.84-31.24-6.27-7.98 3.57-12.02 11.31-15.92 18.81-2.31 4.43-4.68 9-7.86 12.59-3.31-7.37-9.94-13.51-18.26-16.76-7.57-2.96-15.74-3.2-22.75-.83 3.44-8.04 6.59-16.87 6.06-26.14-.62-11.02-8.29-23.04-20.04-24.1-9.38-.83-17.18 5.18-23.71 12.05-2.58-13.81-7.29-27.61-19.8-32.5-8.65-3.37-19.39-1.03-27.37 5.98-5.08 4.47-9.12 10.7-12.06 18.58-2.66-5.75-7.15-10.77-12.86-14.27-6.95-4.26-14.72-5.62-21.87-3.83-7.91 1.98-14.79 8.45-17.97 16.9-2.25 5.99-2.38 12.07-.47 17.34-8.03-2.63-18.27-4.21-28.06-.64-9.08 3.31-17.45 12.34-17.91 22.75-8-5.48-16.74-10.24-26.58-11.1-12.47-1.08-22.09 5.21-26.24 12.64-4.76-6.29-13.22-10.17-22.74-10.09-7.59.06-14.94 2.36-21.72 4.95 4.83-8.06 9.37-16.47 11.52-25.87 2.99-13 .31-25.54-7.14-33.56-7.02-7.55-18.49-11.2-30.67-9.77-6.79.79-13.19 2.94-19.23 5.66v4.4c6.22-2.93 12.78-5.28 19.69-6.09 10.92-1.28 21.12 1.9 27.28 8.52 6.55 7.05 8.86 18.24 6.17 29.94-2.47 10.77-8.4 20.43-14.14 29.78-.45.74-.38 1.68.18 2.34s1.48.89 2.28.56c8.28-3.34 16.85-6.8 25.81-6.86 7.81-.07 17.45 3.42 21.23 11.28.36.75 1.14 1.19 1.96 1.13.83-.07 1.53-.63 1.76-1.43 2.82-9.52 14.24-14.36 23.65-13.54 10.3.89 19.55 6.66 28.02 12.77.66.48 1.54.5 2.23.07s1.05-1.23.91-2.03c-1.39-7.96 3.87-18.62 15.05-22.7 10.7-3.9 22.25-.85 30.05 2.4.82.35 1.77.1 2.32-.59.56-.69.6-1.66.09-2.39-3.5-5.06-4.07-11.78-1.56-18.46 2.73-7.24 8.55-12.77 15.2-14.43 6.1-1.53 12.78-.34 18.81 3.36 6.57 4.02 11.45 10.61 13.06 17.6.2.89.99 1.53 1.9 1.55.9.03 1.73-.57 1.97-1.45 2.77-9.89 7.05-17.43 12.72-22.41 6.76-5.94 16.11-8.06 23.28-5.26 11.85 4.63 15.75 19.5 18.01 33.44.12.77.67 1.39 1.41 1.61.75.21 1.55-.02 2.06-.6 6.4-7.25 14.14-14.55 23.12-13.74 9.47.85 15.89 11.21 16.41 20.33.57 10.18-3.88 20.21-7.82 29.06-.35.79-.15 1.72.49 2.3s1.59.68 2.34.24c6.85-3.95 15.91-4.37 24.21-1.12 8.31 3.24 14.68 9.68 17.05 17.24.2.64.72 1.14 1.37 1.33.18.04.36.07.54.07.48 0 .95-.18 1.32-.51 4.83-4.29 7.89-10.16 10.85-15.85 3.75-7.2 7.29-14 14-17 9.91-4.43 21.53 1.9 31.59 8.68.7.47 1.62.45 2.3-.05.69-.51.97-1.39.72-2.2-3.91-12.69-.32-26.43 8.74-33.41 4.89-3.77 11.97-5.15 18.48-3.6 5.64 1.35 9.94 4.59 12.11 9.13.38.78 1.21 1.23 2.06 1.12.86-.11 1.55-.76 1.71-1.61 2.73-14.23 14.92-26.27 29.01-29.5v-4.12c-14.62 2.93-27.22 14.13-31.78 28.35z"/></svg>