<svg id="Capa_1" enable-background="new 0 0 512.29 512.29" height="512" viewBox="0 0 512.29 512.29" width="512" xmlns="http://www.w3.org/2000/svg"><path d="m510.34 470.565c-.73-.21-1.47-.41-2.22-.6-.03-.01-.07-.02-.1-.02-.58-.16-1.16-.3-1.75-.44-.58-.14-1.17-.28-1.76-.4-.66-.16-1.32-.3-1.99-.43-.76-.16-1.54-.31-2.32-.45s-1.56-.28-2.35-.41c-3.84-.63-7.82-1.11-11.97-1.43-.2-.01-.4-.03-.6-.04-1.58-.13-3.19-.22-4.82-.29-.11 0-.22-.01-.32-.01-2.65-.12-5.37-.18-8.16-.18-.51 0-1.04.01-1.56.02-1.14.01-2.29.02-3.46.04-1.76.04-3.56.1-5.41.18-.61.03-1.24.06-1.87.09-1.25.06-2.53.14-3.85.22-1.32.09-2.67.18-4.05.28-.5.04-1.01.08-1.52.12-.74.06-1.49.12-2.26.19-1.98.17-4.05.35-6.2.56-.07.01-.13.01-.2.02-4.2.41-8.41.85-12.64 1.3-.04 0-.08.01-.12.01-1.91.2-3.83.41-5.75.61-3.86.4-7.74.78-11.63 1.13-1.95.17-3.9.33-5.86.48-1.23.09-2.47.18-3.7.26-1.33.09-2.66.17-3.99.23-.07 0-.14.01-.21.01-4.09.22-8.18.34-12.25.34-8.07 0-15.37-.47-22.31-1.44-.49-.07-1-.14-1.52-.23-.99-.16-1.95-.34-2.87-.53-.46-.1-.91-.2-1.35-.3-.57-.13-1.14-.28-1.72-.44-.32-.09-.63-.18-.94-.27-.79-.23-1.58-.5-2.36-.8-.5-.19-.98-.39-1.45-.59-.55-.24-1.07-.49-1.57-.75-.23-.11-.45-.23-.67-.35-.24-.14-.48-.28-.71-.42s-.45-.28-.67-.43c-.22-.14-.44-.29-.65-.44-1.35-.95-2.51-2.03-3.48-3.23-.38-.47-.73-.96-1.06-1.47-.12-.17-.23-.35-.34-.53-.27-.46-.52-.94-.74-1.43-.23-.49-.45-.98-.63-1.48-.1-.25-.2-.5-.29-.76-.28-.76-.53-1.52-.78-2.28l-.06-.17c-.01-.03-.02-.07-.03-.1-.27-.83-.55-1.68-.86-2.52-.08-.21-.16-.43-.25-.65-.1-.27-.21-.54-.33-.81-.17-.38-.34-.75-.53-1.12-.46-.92-1-1.79-1.61-2.63v-.01c-.47-.62-.97-1.23-1.5-1.81-.36-.39-.75-.77-1.15-1.13-.23-.22-.47-.43-.72-.64-.23-.2-.46-.39-.7-.56-.16-.14-.33-.27-.5-.39-.23-.17-.46-.34-.7-.5-.56-.39-1.16-.77-1.78-1.13-.61-.36-1.26-.71-1.93-1.05-.51-.25-1.03-.5-1.57-.73-.53-.24-1.08-.47-1.65-.69-1.91-.74-4.01-1.4-6.28-1.98-.75-.2-1.53-.38-2.33-.55-1.06-.23-2.16-.44-3.3-.64-1.1-.19-2.19-.37-3.29-.55-.01 0-.02 0-.02 0-1.11-.17-2.22-.33-3.33-.48-7.72-1.05-15.53-1.63-23.32-1.97-4.18-.19-8.36-.31-12.52-.39-.52-.01-1.05-.02-1.57-.03-2.9-.05-5.8-.09-8.68-.13-.17-.01-.35-.01-.52-.01h-.27c-10.96-.15-22.13-.31-33.25-1.15-.62-.05-1.24-.1-1.86-.15s-1.24-.1-1.86-.16-1.24-.11-1.86-.18c-6.81-.66-13.59-1.63-20.26-3.06-.79-.17-1.58-.36-2.35-.6-.17-.05-.34-.1-.5-.15-.21-.07-.42-.14-.62-.22-.18-.07-.36-.14-.54-.21-.17-.07-.35-.15-.52-.23-.22-.1-.43-.21-.64-.32-.42-.23-.8-.48-1.14-.77-.18-.14-.35-.29-.51-.44-.13-.13-.25-.26-.37-.39-.24-.27-.46-.56-.65-.88-2.22-3.68.09-7.99 3.43-11.3.2-.2.4-.39.61-.59.63-.58 1.28-1.12 1.94-1.62 7.29-5.51 15.16-9.95 23.4-13.66.63-.29 1.26-.57 1.9-.84.61-.27 1.21-.53 1.82-.78 1.83-.76 3.67-1.5 5.52-2.21.02-.01.04-.01.06-.02 1.64-.62 3.29-1.22 4.95-1.8 13.43-4.68 27.46-8.04 41.25-11.34.03 0 .07-.01.1-.02l.15-.04c2.39-.57 4.78-1.14 7.19-1.73.04-.01.09-.02.13-.03 2.16-.52 4.33-1.05 6.5-1.6 2.74-.68 5.48-1.39 8.21-2.12 2.45-.66 4.89-1.34 7.32-2.05 2.42-.7 4.82-1.44 7.21-2.2 1.82-.59 3.64-1.19 5.45-1.83 2.37-.83 4.73-1.7 7.07-2.62 2.93-1.16 5.83-2.39 8.68-3.71.81-.37 1.64-.77 2.48-1.19s1.69-.87 2.52-1.37c1.66-.99 3.27-2.14 4.67-3.53.2-.2.4-.4.59-.61s.38-.42.56-.64c2.58-3.11 4.26-8.11 2.19-12.28-.58-1.16-1.4-2.15-2.34-3.01-.31-.28-.63-.55-.96-.8 0 0-.01 0-.01-.01-.5-.38-1.02-.73-1.54-1.05-.01 0-.01-.01-.01-.01-.35-.21-.7-.41-1.05-.6-.01 0-.01-.01-.01-.01-.52-.29-1.04-.56-1.54-.8-5.16-2.52-10.6-4.23-16.02-5.57-3.24-.8-6.43-1.47-9.44-2.07-1.31-.26-2.63-.52-3.96-.77-.12-.02-.24-.04-.37-.07-1.1-.21-2.2-.41-3.31-.61-2.83-.51-5.7-1-8.6-1.46-2.46-.4-4.94-.77-7.43-1.13l-.22-.03c-4.41-.63-8.85-1.19-13.34-1.69-2.38-.27-4.77-.52-7.17-.74-1.58-.16-3.17-.31-4.76-.45-.74-.07-1.48-.13-2.23-.19-1.35-.11-2.7-.22-4.05-.32-1.34-.1-2.68-.2-4.03-.29-1.01-.07-2.02-.14-3.03-.19-.85-.06-1.7-.11-2.55-.15-2.19-.13-4.4-.24-6.61-.33-1.47-.06-2.94-.12-4.41-.17-1.71-.06-3.42-.11-5.14-.16-.36-.01-.73-.02-1.09-.02-4.06-.09-8.15-.14-12.25-.14-2.45 0-4.9.02-7.36.05l-.35 3.96c.21.04.41.08.62.12 1.27.25 2.54.51 3.81.77.96.2 1.92.4 2.89.61.51.1 1.02.22 1.54.33 1.2.26 2.39.53 3.6.8.03.01.06.01.09.02.81.19 1.63.37 2.44.57 2.6.61 5.21 1.24 7.84 1.91 1.14.29 2.29.59 3.44.89 3.22.85 6.48 1.74 9.77 2.68 1.59.45 3.2.92 4.82 1.42.83.25 1.65.51 2.48.79 2.04.66 4.08 1.39 6.09 2.21.88.35 1.75.73 2.62 1.12 2.38 1.08 4.71 2.31 6.95 3.73.64.41 1.24.82 1.8 1.24s1.09.85 1.57 1.28c.25.22.48.44.71.66.45.44.86.89 1.23 1.34s.71.91 1 1.37c.3.46.55.93.77 1.4.54 1.17.83 2.37.87 3.58.01.28 0 .56-.02.83-.01.17-.03.34-.05.52-.03.27-.07.53-.13.79s-.12.52-.21.77c-.05.15-.09.29-.15.44-.1.28-.23.56-.37.83-.07.14-.14.27-.22.41-.39.7-.87 1.36-1.43 1.97-.18.21-.38.42-.59.62-.12.13-.25.24-.38.37-.42.38-.86.73-1.32 1.07-.2.15-.4.29-.61.43-.3.2-.6.4-.92.59-1.4.86-3.01 1.63-4.83 2.3-.64.24-1.25.45-1.84.64-1.02.32-1.94.58-2.71.77-1.67.42-3.34.82-5.02 1.21-3.01.71-6.03 1.37-9.07 1.99-.34.08-.68.15-1.03.22-2.68.55-5.37 1.07-8.07 1.56-17.7 3.26-35.66 5.49-53.29 7.57l-5.07.6c-3.15.38-6.31.75-9.48 1.13s-6.33.77-9.51 1.16c-.86.11-1.72.22-2.58.33-2.95.37-5.9.75-8.85 1.16-.01 0-.03.01-.04.01-2.25.3-4.5.61-6.75.94-11.7 1.7-23.39 3.69-34.93 6.25-1.52.34-3.04.68-4.56 1.04-6.24 1.47-12.44 3.11-18.57 4.98-1.5.45-3 .92-4.49 1.41-2.52.81-5.03 1.66-7.53 2.56-1.02.37-2.07.75-3.15 1.16-5.6 2.11-11.99 4.83-18.1 8.49-.96.56-1.9 1.16-2.84 1.77 0 .01-.01.01-.01.01-1.15.76-2.29 1.56-3.4 2.39-1.5 1.12-3.05 2.43-4.18 4.01-.13.18-.25.37-.37.56-.07.11-.14.23-.2.36-.13.21-.24.43-.34.65s-.19.45-.27.68c-.06.18-.11.36-.16.54-.13.51-.21 1.01-.25 1.49-.03.34-.03.68 0 1.01.01.17.03.35.05.52.04.35.11.69.22 1.02.05.17.11.34.16.51.14.42.32.82.54 1.21.01 0 .01 0 0 .01.21.39.46.77.73 1.14.22.3.46.6.71.89.29.32.59.63.91.93.28.27.58.53.89.78 1.62 1.31 3.53 2.4 5.4 3.25.63.28 1.25.53 1.85.76.26.1.53.2.8.29.22.08.44.15.66.22s.44.13.66.2c.66.19 1.32.38 1.99.57 1.33.37 2.66.71 4 1.04 4.68 1.15 9.41 2.06 14.18 2.79 1.36.21 2.73.4 4.09.59 13.68 1.8 27.57 2.27 41.18 2.73 4.4.15 8.83.3 13.27.5 2.01.09 4.02.19 6.02.3 5.61.31 11.22.72 16.81 1.33.43.04.85.09 1.28.14.87.1 1.74.2 2.61.31 1.66.21 3.31.43 4.95.69.89.13 1.77.27 2.65.42 3.4.55 6.78 1.21 10.13 1.99 1.26.29 2.51.6 3.75.92 1.65.43 3.34.91 5.02 1.48 5.05 1.71 9.99 4.22 13.29 8.55.93 1.22 1.7 2.55 2.4 3.92.42.81.82 1.63 1.21 2.45.16.32.32.66.48 1 .18.38.37.75.56 1.13.17.34.34.68.52 1.01.09.17.18.34.28.5.08.17.18.34.27.5.42.72.87 1.43 1.37 2.11.17.24.34.47.5.7.35.45.7.89 1.07 1.33v.01c.38.43.76.86 1.15 1.28.2.22.4.43.61.63.41.42.84.82 1.27 1.23h.01c.44.4.89.79 1.36 1.18 4.42 3.64 10.03 6.53 16.49 8.42 1 .29 2.02.56 3.04.81.22.06.45.11.68.16.61.15 1.22.28 1.84.4 3.28.68 6.6 1.16 9.93 1.54.69.08 1.38.15 2.07.22 2.46.26 4.91.46 7.34.67.06.01.13.01.19.02 1.4.11 2.8.23 4.21.37.09 0 .18.01.27.02 21.66 1.99 43.18 6.12 63.97 12.25.59.18 1.18.35 1.75.54.55.16 1.11.34 1.68.54.38.13.75.25 1.11.38.36.12.72.24 1.09.39.45.16.89.33 1.33.5.25.1.51.2.76.3.67.26 1.32.54 1.96.82 1.77.76 3.53 1.64 5.22 2.66.26.14.51.3.77.47.76.48 1.48.96 2.16 1.46.57.42 1.1.84 1.61 1.28.22.18.44.37.65.57.18.15.35.31.52.47.49.47.95.96 1.38 1.45h167.23v-41.1c-.55-.17-1.1-.33-1.66-.48zm-266.04-1.83c-.15-.03-.29-.05-.43-.08-1.82-.41-2.98-1.11-3.46-2.09-.04-.07-.08-.15-.1-.23-.03-.08-.06-.16-.08-.24-.03-.11-.05-.21-.06-.32-.06-.49-.01-1.11.27-1.87.06-.15.12-.3.19-.46l.18-.39c.11-.2.22-.4.35-.61.06-.1.12-.21.19-.31.06-.1.13-.21.2-.31.06-.1.14-.21.22-.31.06-.1.14-.21.23-.31.16-.2.32-.41.48-.61s.34-.41.51-.61c.15-.18.32-.37.5-.56.14-.15.28-.29.42-.44s.28-.29.42-.43.28-.28.42-.42.29-.28.43-.42c.14-.13.27-.25.4-.37.18-.16.35-.32.51-.46.14-.13.28-.25.41-.37.08-.07.16-.14.24-.21.33-.29.66-.57 1-.84 1.46-1.18 2.99-2.24 4.59-3.16l.48-.27c.65-.37 1.32-.72 2-1.04.19-.1.39-.19.59-.27.33-.16.66-.3.99-.44.5-.21.98-.39 1.45-.55.15-.06.29-.11.44-.15.6-.2 1.18-.36 1.73-.47.17-.04.33-.07.5-.1.34-.06.67-.11.99-.13.14-.02.27-.03.4-.03.19-.01.37-.02.55-.02.41 0 .82.03 1.21.08.16.02.32.05.47.08.11.02.21.04.32.07.15.03.3.07.45.11.23.07.46.15.68.24.26.1.52.21.77.34.2.1.39.2.59.31.26.15.51.31.76.48.29.2.58.41.86.63.28.21.56.43.82.66.17.14.34.28.5.43.07.05.13.1.19.16.21.18.41.35.6.53.37.33.75.67 1.12 1.01.37.33.75.68 1.13 1.05.34.32.68.65 1.02 1 .34.34.67.69.99 1.04.11.12.22.24.32.36.11.12.22.24.31.36.34.4.67.82.99 1.25.2.27.38.54.56.82.17.26.33.52.48.79.12.2.23.4.33.61.1.2.2.41.3.62s.19.42.27.63c.42 1.08.75 2.59-.07 3.63-.18.24-.42.44-.71.61-.1.06-.21.12-.32.17-.08.04-.16.08-.25.11-.11.06-.22.1-.34.14-.05.02-.1.04-.15.06-.34.12-.67.24-1.01.35h-.01c-.69.21-1.38.39-2.07.55-.41.09-.82.17-1.23.24-1.33.25-2.66.42-3.94.56-3.1.33-7.78.77-12.74.77-.61 0-1.21-.01-1.81-.02-.9-.02-1.77-.06-2.63-.11-.24-.01-.47-.03-.71-.05-.72-.04-1.42-.1-2.11-.18-.39-.04-.78-.08-1.16-.13-.34-.04-.67-.09-1-.14-.16-.02-.33-.04-.49-.07-.17-.03-.33-.06-.49-.08-.32-.05-.64-.11-.95-.17zm-124.7-55.86c-.08-.48-.04-1 .08-1.55.01-.03.02-.07.03-.12.03-.13.08-.28.13-.42.11-.36.26-.73.45-1.1l.01-.01c.71-1.44 1.87-2.99 3.26-4.48.48-.53.97-1.04 1.45-1.52.43-.43.86-.84 1.29-1.24.39-.37.79-.73 1.19-1.07.93-.8 1.84-1.54 2.67-2.17.19-.15.38-.29.56-.42.37-.28.72-.53 1.05-.75.32-.22.63-.42.9-.59.38-.24.7-.43.96-.56 1.33-.68 3.04-1.43 5-2 .21-.06.42-.12.64-.17.42-.11.85-.21 1.29-.3.21-.04.43-.08.65-.12.26-.05.52-.09.79-.12.12-.02.25-.04.37-.05.76-.09 1.54-.14 2.34-.14.29 0 .59.01.88.02.11 0 .21.01.31.02.33.02.66.05.99.09.47.06.95.13 1.42.22.72.13 1.41.31 2.09.54.29.09.58.19.87.3.21.08.43.16.64.25.64.27 1.28.57 1.9.9.89.47 1.76 1.01 2.61 1.62.22.15.43.3.63.47.21.16.42.32.63.49.3.24.58.48.86.73.22.19.44.38.65.59.21.2.42.4.62.6.21.19.41.4.6.61s.38.41.57.62c.2.2.38.41.55.62.35.42.69.83 1.01 1.24.17.19.32.39.46.59.28.38.55.76.81 1.13.05.08.11.16.17.24.28.41.54.8.78 1.18.25.4.48.78.7 1.15.12.19.23.39.34.59.22.38.41.73.58 1.05.2.39.39.79.54 1.18.05.11.09.22.12.34.04.12.07.24.1.36.02.12.04.24.06.37.03.23.03.47 0 .71-.14 1.27-1.09 2.11-2.18 2.65-.14.07-.28.13-.42.19-.02.02-.03.03-.06.03-.13.07-.27.12-.42.16-.01.01-.02.01-.04.01-.11.04-.21.07-.32.1-.64.21-1.29.33-1.82.41-.48.07-.97.14-1.46.2s-.99.12-1.5.18c-.45.05-.91.11-1.37.15-.57.06-1.14.12-1.72.16-1.38.12-2.79.22-4.23.29-2.16.11-4.37.16-6.63.16-.74 0-1.47-.01-2.21-.02-.62-.01-1.24-.03-1.86-.05-.59-.01-1.18-.03-1.76-.06-.01.01-.03.01-.04 0-.7-.02-1.4-.06-2.09-.1-.09 0-.17-.01-.26-.01-.57-.04-1.13-.07-1.69-.12-.06 0-.11 0-.16-.01-.36-.02-.72-.05-1.08-.08-1.26-.1-2.51-.21-3.74-.36-.65-.07-1.29-.14-1.93-.22-.64-.07-1.27-.16-1.9-.25-.85-.11-1.7-.24-2.53-.37-.32-.05-.62-.12-.9-.19s-.54-.15-.79-.24c-.09-.03-.18-.07-.27-.11-.09-.03-.18-.07-.26-.11s-.16-.08-.24-.12c-.18-.09-.34-.19-.49-.3-.09-.05-.17-.11-.25-.19-.16-.13-.29-.27-.42-.42-.12-.15-.22-.31-.31-.47-.04-.08-.08-.17-.11-.26-.06-.17-.11-.36-.14-.55z" fill="#54c1f2"/><path d="m511.89 294.455c-.55-.08-1.09-.16-1.64-.22-1.26-.16-2.52-.28-3.78-.37-.26-.02-.51-.04-.76-.05-1.01-.07-2.01-.12-3.02-.14-.18-.01-.37-.01-.55-.01-.51-.02-1.02-.02-1.53-.02-.68 0-1.37.01-2.05.03-.69.01-1.38.04-2.06.08-.57.03-1.14.06-1.71.11-.26.01-.52.03-.77.06-.09 0-.17.01-.25.02-.09.01-.18.02-.27.02l-2.63.24h-.02l2.47 6.33c.59 1.54 1.21 3.12 1.77 4.76 1.59 4.61 2.85 9.73 2.08 14.73-.07.46-.17.91-.29 1.37-.06.26-.13.51-.23.76-.08.24-.16.47-.25.7-.88 2.23-2.37 4.25-4.3 5.3-.14.07-.28.14-.42.21-.15.06-.29.12-.44.18-.18.06-.36.12-.55.17s-.39.09-.58.12c-.25.05-.51.07-.78.08h-.19c-.19 0-.37-.01-.55-.03-.22-.01-.42-.04-.63-.08-.16-.03-.31-.07-.47-.11-.21-.06-.43-.13-.63-.21-.13-.05-.26-.1-.39-.16-.22-.1-.43-.21-.64-.33-.22-.13-.43-.27-.64-.42 0 0 0 0-.01 0-.21-.16-.41-.31-.6-.48-.21-.18-.4-.36-.59-.55-.12-.12-.23-.24-.34-.36s-.21-.24-.31-.36c-.15-.18-.29-.37-.43-.55-.08-.1-.16-.21-.23-.31-.19-.27-.37-.55-.54-.84-.01 0-.01 0-.01-.01l-1.52-2.26-1.54 3.09c-.22.44-.44.85-.68 1.23-.13.22-.27.43-.42.64-.03.06-.07.12-.12.18-.12.17-.24.34-.37.5-.03.04-.06.08-.09.11-1.03 1.25-2.18 2.08-3.44 2.48-.29.09-.58.16-.88.2-.27.04-.55.06-.84.06-.94 0-1.89-.22-2.81-.63-1.18-.53-2.3-1.38-3.22-2.48-.22-.25-.42-.52-.6-.79-.01-.01-.03-.03-.04-.05-.17-.24-.34-.5-.5-.77-.17-.27-.33-.55-.49-.85-.02-.03-.04-.07-.06-.1l-2.09-3.92-.09-.17-1.48 4.39c-.1.3-.2.6-.31.91-.11.3-.23.61-.35.92-.1.26-.21.51-.32.76-.03.06-.06.12-.09.18-.14.3-.29.6-.45.9-.11.2-.23.4-.36.6s-.27.39-.41.58c0 .01 0 .01-.01.02-.3.37-.61.73-.95 1.05l-.34.33c-.02.03-.05.05-.08.07l-.19.19v.85l.01.02c-.09.61-.14 1.21-.17 1.82l-.02.64c-.02.56-.01 1.11.01 1.67 0 .1 0 .2.01.29 0 .09 0 .18.01.27.01.24.02.49.04.73.01.19.03.39.05.58.01.22.03.45.06.67.02.32.06.63.1.95.09.73.18 1.46.29 2.19.1.72.22 1.44.33 2.16.19 1.23.39 2.48.55 3.74.03.22.06.45.08.67.28 2.33.41 4.69.15 7.04-.01.01-.01.03-.01.04-.03.31-.09.82-.39 1.18-.21.25-.52.4-.79.5l-.2.07c-.05.02-.11.04-.17.05-.59.2-1.18.39-1.78.56-.18.05-.37.1-.55.15-.47.14-.92.26-1.39.37-.01 0-.02.01-.03.01-.61.16-1.23.3-1.85.42-.55.12-1.1.22-1.66.32-.12.02-.24.04-.35.06-.32.05-.64.1-.96.14-.05.01-.11.02-.16.02-.39.06-.79.11-1.19.15-.54.07-1.08.13-1.63.17-.56.05-1.12.09-1.68.11-.42.02-.84.04-1.26.04-.14.01-.28.01-.42.01-.26.01-.53.01-.79.01h-.31c-.21 0-.46 0-.66-.11-.14-.08-.52-.28-.52-1.33l.01-.61c.05-1.97.09-3.97.13-5.98s.07-4.04.09-6.09c.01-.54.01-1.09.02-1.64.03-1.81.04-3.63.05-5.47 0-.72 0-1.44.01-2.16.01-1.46.01-2.93.01-4.43v-3.22l-2.38 1.18c-.01 0-.02.01-.03.01-.21.12-.42.21-.64.31-1.22.56-2.48.89-3.69.89-.12 0-.25 0-.37-.01-.17 0-.35-.02-.52-.05-.15-.02-.31-.04-.46-.08-.22-.04-.44-.1-.65-.18-.16-.05-.31-.11-.46-.17s-.29-.13-.43-.21c-.18-.09-.35-.19-.51-.3-.2-.13-.39-.28-.57-.42-.15-.13-.3-.27-.43-.41-.3-.3-.56-.64-.79-1.01-.12-.17-.22-.36-.32-.55s-.2-.38-.28-.59c-.09-.18-.16-.38-.23-.58-.07-.21-.14-.41-.2-.62-.03-.12-.07-.24-.1-.37-.04-.16-.08-.32-.11-.48-.08-.37-.15-.76-.2-1.15-.03-.16-.05-.32-.06-.48-.02-.16-.04-.32-.05-.48-.01-.09-.02-.18-.03-.28l-.33-3.01-.03-.29-2.33 2.12c-.01.01-.02.02-.03.03-.52.46-1.03.93-1.53 1.41-.28.27-.55.54-.83.82l-.44.42-.09.09c-.76.75-1.58 1.56-2.45 2.35-.29.26-.59.52-.89.78-.4.34-.82.67-1.24.98-.09.07-.18.14-.28.2-.01.02-.01.02-.02.01-.04.04-.07.07-.11.08-.16.13-.33.24-.5.34 0 0-.01 0-.01.01-.31.19-.62.38-.94.54-.03.02-.07.04-.1.05-.29.16-.58.3-.88.43-.33.16-.67.29-1 .41s-.68.23-1.02.32c-.33.09-.65.17-.97.23-.02 0-.03 0-.05.01-.15.03-.3.06-.45.07-.16.02-.32.04-.48.06l-.39.03c-.07.01-.15.01-.22.01-.06.01-.12.01-.18.01-.06.01-.12.01-.18.01-1.36 0-2.58-.29-3.65-.87-.36-.2-.71-.43-1.03-.68-3.7-2.94-3.36-8.59-2.79-12.59.2-1.4.42-2.81.67-4.24.12-.76.26-1.52.41-2.29.14-.77.29-1.54.45-2.31.09-.46.19-.92.29-1.38.08-.4.16-.81.26-1.22.14-.63.28-1.27.43-1.91.17-.75.35-1.5.54-2.26.36-1.48.74-2.97 1.15-4.47.01-.04.03-.09.04-.14l.01-.04-2.46-.12c-.38-.02-.77-.04-1.16-.04-.3-.01-.6-.01-.9-.01-1.97 0-3.95.13-5.92.34-.35.03-.69.07-1.04.12-.99.13-1.97.26-2.94.41-1.34.2-2.67.43-3.99.66-.55.1-1.09.19-1.63.29-1.1.2-2.21.4-3.32.6-1.1.2-2.21.4-3.31.6l-.96.17c-1.11.19-2.23.39-3.34.6l-.84.15c-2.4.44-4.83.88-7.29 1.34-1.24.23-2.48.46-3.72.7-3.74.7-7.54 1.44-11.38 2.22-1.71.35-3.42.7-5.15 1.06-1.03.22-2.05.43-3.09.66-1.46.31-2.92.63-4.38.95-.92.2-1.84.41-2.76.62-.9.21-1.82.42-2.73.63-7.75 1.81-15.58 3.82-23.33 6.09-.45.13-.9.26-1.34.4-1.34.39-2.67.8-3.99 1.21-.99.31-1.99.62-2.98.94-1.08.35-2.16.7-3.24 1.06-.21.07-.43.14-.64.21v.01l.32 3.86c2.9.46 5.77.95 8.6 1.46 1.11.2 2.21.4 3.31.61.13.03.25.05.37.07 1.33.25 2.65.51 3.96.77 3.01.6 6.2 1.27 9.44 2.07 5.39 1.35 10.92 3.09 16.02 5.58.5.24 1.01.51 1.54.79 0 0 0 .01.01.01.35.19.7.39 1.05.6 0 0 0 .01.01.01.52.32 1.04.67 1.54 1.05 0 .01.01.01.01.01.33.25.65.52.96.8.94.86 1.76 1.85 2.34 3.01 2.07 4.17.39 9.17-2.19 12.28-.18.22-.37.43-.56.64s-.39.41-.59.61c-1.4 1.39-3.01 2.54-4.67 3.53-.83.5-1.68.95-2.52 1.37-.84.43-1.67.82-2.48 1.19-2.85 1.32-5.75 2.55-8.68 3.71-2.34.92-4.7 1.8-7.07 2.62-1.81.64-3.63 1.24-5.45 1.83-2.39.77-4.8 1.5-7.21 2.2-2.43.71-4.87 1.39-7.32 2.05-2.73.73-5.47 1.44-8.21 2.12-2.17.55-4.34 1.08-6.5 1.6-.04.01-.09.02-.13.03-2.41.59-4.8 1.16-7.19 1.73-.05.01-.1.02-.15.03l-.1.03c-13.79 3.3-27.82 6.66-41.25 11.34-1.66.58-3.31 1.18-4.95 1.8-.02.01-.04.01-.06.02-1.85.7-3.69 1.44-5.52 2.21-.61.25-1.21.51-1.82.78-.64.27-1.27.55-1.9.84-8.24 3.71-16.11 8.15-23.4 13.66-.66.5-1.31 1.04-1.94 1.62-.21.2-.41.39-.61.59-3.34 3.31-5.65 7.62-3.43 11.3.19.32.41.61.65.88.12.13.24.26.37.39.16.15.33.3.51.44.35.28.74.53 1.14.77.21.11.42.22.64.32.17.08.35.16.52.23.18.07.36.14.54.21.2.08.41.15.62.22.16.05.33.1.5.15.77.24 1.56.43 2.35.6 6.67 1.43 13.45 2.4 20.26 3.06.62.07 1.24.12 1.86.18s1.24.11 1.86.16 1.24.1 1.86.15c11.12.84 22.29 1 33.25 1.15h.27c.17 0 .35 0 .52.01 2.88.04 5.78.08 8.68.13.52.01 1.05.02 1.57.03 4.16.08 8.34.2 12.52.39 7.79.34 15.6.92 23.32 1.97 1.11.14 2.22.3 3.33.48h.02c1.1.17 2.19.35 3.29.54 1.14.2 2.24.41 3.3.65.8.17 1.58.35 2.33.55 2.27.57 4.37 1.23 6.28 1.98.57.22 1.12.45 1.65.69.54.23 1.06.48 1.57.73.67.34 1.32.69 1.93 1.05.62.36 1.22.74 1.78 1.13.24.16.47.33.7.5.17.12.34.25.5.39.24.17.47.36.7.56.25.21.49.42.72.64.4.36.79.74 1.15 1.13.54.58 1.05 1.19 1.5 1.81v.01c.62.84 1.16 1.71 1.62 2.62.19.37.36.74.52 1.13.12.27.23.54.33.81.09.22.17.44.25.65.31.84.59 1.69.86 2.52l.04.1c.02.06.04.11.05.17.25.76.5 1.52.78 2.28.09.26.19.51.29.76.18.5.4.99.63 1.48.22.48.47.95.75 1.42.11.18.22.36.33.54.33.51.68 1 1.06 1.47.97 1.2 2.13 2.28 3.48 3.23.21.15.43.3.65.44.22.15.44.29.67.43s.47.28.71.42c.22.12.44.24.67.35.5.26 1.02.51 1.57.75.47.2.95.4 1.45.59.75.28 1.54.55 2.36.8.31.09.62.18.94.27.56.15 1.13.3 1.72.44.44.1.89.2 1.35.3.92.19 1.88.37 2.87.53.5.08 1 .15 1.52.22 6.95.97 14.26 1.44 22.35 1.44 4.07 0 8.14-.12 12.21-.33.07 0 .14-.01.21-.01 1.33-.07 2.66-.14 3.99-.23 1.23-.08 2.47-.17 3.7-.26 1.96-.15 3.91-.31 5.86-.48 3.89-.34 7.77-.73 11.63-1.13 1.92-.2 3.84-.41 5.75-.61.04 0 .08-.01.12-.01 4.23-.45 8.44-.89 12.64-1.3.07-.01.13-.01.2-.02 2.15-.21 4.22-.39 6.2-.56.77-.07 1.52-.13 2.26-.19.51-.04 1.02-.08 1.52-.12 1.38-.1 2.73-.19 4.05-.28 1.31-.08 2.6-.15 3.85-.22.63-.03 1.26-.06 1.87-.09 1.85-.08 3.65-.14 5.41-.18 1.17-.03 2.31-.03 3.46-.04.52-.01 1.05-.01 1.57-.01 2.79 0 5.5.06 8.15.17.1 0 .21.01.32.01 1.63.08 3.24.17 4.82.29.2.01.4.03.6.04 4.15.32 8.13.8 11.97 1.43.79.13 1.57.27 2.35.41s1.56.29 2.32.45c.67.13 1.33.27 1.99.43.59.12 1.18.26 1.76.4.59.14 1.17.28 1.75.44.03 0 .07.01.1.02.75.19 1.49.39 2.22.6.37.1.74.2 1.11.31.18.05.36.1.55.16v-176.57c-.04-.01-.07-.01-.11-.01zm-208.39 115.17c-.17-.03-.34-.07-.51-.1-.16-.04-.32-.07-.48-.11s-.31-.08-.47-.12c-.69-.19-1.32-.41-1.87-.67-.11-.05-.21-.1-.31-.15-.29-.14-.56-.3-.81-.47-.11-.07-.22-.15-.32-.23-.31-.23-.57-.49-.8-.76-.07-.09-.14-.17-.2-.26-.07-.09-.13-.19-.19-.29s-.11-.2-.16-.3c-.1-.2-.18-.42-.24-.64-.11-.42-.16-.88-.13-1.37 0-.09.01-.17.02-.26.01-.13.03-.26.05-.39s.05-.26.08-.4c.07-.31.16-.64.29-.98.04-.12.09-.25.14-.37.06-.17.14-.33.22-.51.03-.08.07-.16.12-.25.1-.21.21-.42.33-.64.19-.35.4-.7.63-1.06s.48-.73.75-1.11c.21-.3.44-.6.69-.91.25-.32.51-.63.77-.95.13-.16.26-.32.42-.48.29-.33.58-.66.88-.99.31-.33.63-.67.97-1 .16-.17.33-.34.51-.51.34-.36.7-.7 1.07-1.05.19-.17.38-.35.57-.53.38-.36.77-.72 1.18-1.07.21-.18.42-.36.63-.55.45-.41.92-.8 1.39-1.17.22-.18.43-.35.65-.52.48-.39.98-.77 1.47-1.13.01 0 .01 0 .01-.01.6-.45 1.21-.88 1.82-1.29.5-.34 1-.67 1.51-.99.28-.18.57-.36.86-.53.4-.25.8-.49 1.21-.72s.82-.46 1.22-.69c.64-.35 1.28-.68 1.93-.99.67-.33 1.34-.64 2.02-.95.33-.15.67-.29 1.01-.44.46-.19.9-.37 1.34-.53h.01c.44-.17.87-.32 1.29-.46.39-.13.78-.25 1.15-.36.81-.24 1.58-.43 2.33-.57.17-.03.33-.06.49-.08.26-.05.52-.09.77-.12.3-.04.59-.07.88-.09.18-.02.36-.03.53-.03.24-.01.48-.02.71-.02 1.36 0 2.61.17 3.84.53.2.06.39.12.58.19.19.06.38.13.57.21.18.07.36.14.54.23.21.09.42.19.63.3.15.07.31.15.46.24.24.13.48.27.71.41.22.13.43.26.64.4.47.3.93.63 1.38.99.22.17.44.33.66.5.21.17.43.35.64.53.21.17.42.35.63.53.21.17.41.35.61.53.33.29.65.58.97.86.57.51 1.16 1.03 1.75 1.57.29.27.58.54.88.81.3.26.59.53.88.82.59.55 1.17 1.12 1.74 1.7.23.22.45.46.67.69.06.06.12.12.18.19.28.29.56.59.83.9.5.55.98 1.12 1.43 1.7.14.17.27.35.41.53.32.41.62.82.89 1.24.13.18.25.36.37.54.14.21.28.42.4.64.09.14.17.27.25.41.19.31.36.62.53.94.13.24.25.47.36.72.25.5.47 1.02.68 1.54.37.94.69 2.08.69 3.18 0 .15-.01.3-.02.44-.01.11-.02.22-.04.32-.02.19-.06.38-.12.56-.03.1-.06.21-.1.3-.04.1-.08.19-.13.28-.03.07-.07.14-.11.21-.08.13-.17.27-.27.4-.18.22-.37.41-.58.58-.18.15-.38.29-.6.41-.11.07-.24.13-.36.19s-.25.12-.39.18c-.28.13-.57.25-.86.35-.66.24-1.33.46-2.01.66-.34.1-.67.2-1.01.29s-.68.18-1.02.26c-.54.13-1.08.26-1.63.37-.39.08-.78.15-1.18.22-.48.09-.96.17-1.44.25-.37.06-.74.11-1.11.16-.4.06-.8.11-1.2.16-.38.05-.75.1-1.13.14-.4.05-.81.1-1.21.14-4.83.52-12.15 1.21-19.94 1.21-.69 0-1.37-.01-2.04-.02-.33 0-.67-.01-1-.02-.45-.01-.9-.02-1.34-.04s-.87-.04-1.31-.06c-.06.01-.11 0-.17 0-.17-.01-.33-.02-.5-.03-.04 0-.09 0-.13-.01-.34-.01-.69-.03-1.03-.06-.05 0-.11 0-.16-.01-.41-.02-.83-.05-1.24-.09-.01.01-.03 0-.04 0-.42-.03-.84-.07-1.26-.11-.3-.02-.6-.05-.9-.09-.2-.01-.4-.04-.6-.06-.49-.05-.99-.1-1.47-.17-.53-.07-1.05-.14-1.56-.21-.52-.08-1.03-.15-1.53-.24-.5-.08-1-.17-1.49-.26zm109.35 28.44c-.24-.04-.48-.09-.71-.14-.46-.11-.9-.22-1.31-.34-.21-.07-.41-.13-.6-.2-.38-.14-.74-.29-1.07-.45 0 0 0 .01-.01 0-.4-.2-.77-.41-1.11-.65-.34-.23-.63-.48-.89-.76-.15-.16-.29-.33-.42-.5-.06-.09-.12-.17-.17-.26-.21-.34-.36-.69-.46-1.07-.03-.1-.05-.2-.07-.3-.02-.08-.03-.17-.04-.26-.02-.1-.03-.2-.03-.31-.01-.15 0-.3 0-.46.08-3.04 2.8-7.25 7.85-12.15l.18-.18c.32-.3.65-.61.97-.91.65-.61 1.31-1.19 1.95-1.75 4.85-4.21 10.25-7.58 16.05-10.01.48-.2.96-.39 1.43-.57.46-.18.92-.34 1.37-.49.9-.31 1.77-.56 2.61-.75.42-.11.83-.2 1.23-.26 1.22-.24 2.37-.35 3.47-.35 1.43 0 2.75.19 4.06.57 3.76 1.1 6.85 3.85 9.57 6.28 4.91 4.38 10.45 9.32 13.03 15.88.43 1.09.8 2.44.72 3.72-.02.36-.07.71-.18 1.06-.1.34-.24.66-.44.97 0 0-.01 0-.01.01-.06.1-.13.2-.2.29-.08.11-.17.21-.27.3-.12.11-.23.22-.35.31-.11.1-.23.18-.35.26-.15.1-.31.19-.47.28-.18.1-.38.2-.57.28-.14.07-.29.13-.43.18-.17.07-.35.14-.52.2-.36.13-.72.26-1.09.38-.36.12-.72.23-1.09.34s-.73.21-1.1.31c-.31.08-.62.16-.93.24-.44.11-.88.21-1.31.3-.35.08-.7.15-1.06.22-.35.07-.7.13-1.05.19-.15.03-.31.06-.46.08-.25.04-.5.08-.75.12-.5.08-1 .16-1.5.22-.57.09-1.14.16-1.71.22-.57.07-1.13.14-1.69.2-5.11.55-12.86 1.28-21.16 1.28-.67 0-1.33 0-1.99-.02-.29 0-.57-.01-.86-.01-.48-.01-.96-.02-1.43-.04-.41-.01-.82-.03-1.23-.05-1.38-.05-2.73-.14-4.05-.24-.39-.03-.77-.06-1.15-.1-.46-.04-.92-.08-1.37-.13-.44-.05-.88-.1-1.31-.15-.66-.07-1.3-.16-1.94-.25-.28-.03-.55-.07-.82-.12-.63-.09-1.25-.19-1.86-.3-.3-.05-.6-.1-.9-.16z" fill="#cbe580"/><path d="m512 244.305v50.17c-.04-.01-.07-.02-.11-.02-.55-.08-1.09-.16-1.64-.22-1.26-.16-2.52-.28-3.78-.37-.26-.02-.51-.04-.76-.05-1.01-.07-2.01-.12-3.02-.14-.18-.01-.37-.01-.55-.01-.51-.02-1.02-.02-1.53-.02-.68 0-1.37.01-2.05.03-.69.01-1.38.04-2.06.08-.57.03-1.14.06-1.71.11-.26.01-.52.03-.77.06-.09 0-.17.01-.25.02-.09.01-.18.02-.27.02-.37.04-.74.07-1.11.11l-1.51.16h-.01s0-.01-.01-.03v-.01l-2.13-5.5c-.26-.67-.53-1.38-.82-2.13l-2.19-5.65c-.71-1.82-1.46-3.76-2.23-5.76l-.88-2.27-1.8-4.65-9.16-23.68c-.31-.79-.62-1.6-.93-2.41-.19-.48-.35-.87-.46-1.18-.07-.19-.14-.38-.22-.57-.04-.09-.06-.15-.08-.19l-.24-.64c-.22-.56-.44-1.13-.66-1.7l-.24-.63.14.01 3.03.25c4.98.4 9.94.97 14.88 1.69.71.1 1.41.21 2.12.32.9.14 1.79.29 2.69.44.94.16 1.87.32 2.8.49s1.86.34 2.79.52c.93.17 1.86.36 2.78.55s1.85.39 2.77.59 1.84.41 2.76.62c2.15.5 4.29 1.03 6.42 1.59z" fill="#317b36"/><path d="m0 .145v271.77c.48-.21.95-.4 1.4-.58 1.31-.53 2.62-1.05 3.95-1.58 1.72-.67 3.46-1.34 5.21-2s3.51-1.32 5.28-1.96c.9-.33 1.78-.65 2.65-.94 1.18-.4 2.29-.74 3.38-1.02.26-.08.52-.14.78-.19.31-.07.61-.14.91-.2l.26-.05c.79-.16 1.59-.27 2.4-.34h1.29c.02-.03.04-.07.06-.1 3.03-5.43 5.9-10.35 8.79-15.04l.05-.08.01-.03c.07-.11.13-.22.2-.32.13-.21.26-.41.4-.61.13-.19.26-.38.39-.55.07-.09.14-.18.21-.26.04-.06.09-.12.15-.17 0-.02.01-.03.04-.05-.01-.01.02-.01.02-.01.35-.37.73-.67 1.17-.86.17-.08.35-.14.54-.17.2-.04.4-.06.61-.06.2 0 .4.01.62.05.71.11 1.33.37 1.87.73.1.06.2.13.3.21.08.06.16.12.23.19.2.16.38.34.56.54.11.12.21.24.32.36.15.19.29.38.42.57s.25.39.37.58c.08.13.16.26.22.38.28.51.51.99.7 1.38.26.55.52 1.1.77 1.66.22.47.43.93.63 1.4.34.75.67 1.5.98 2.26.09.22.18.43.27.64l.77 1.82 1.84-.76c1.18-.49 2.37-.95 3.56-1.39 1.2-.44 2.4-.86 3.6-1.26s2.41-.78 3.62-1.14c4.19-1.24 8.43-2.26 12.7-3.12 1.15-.22 2.3-.44 3.47-.65.14-.02.27-.05.4-.07.93-.17 1.86-.33 2.79-.47.19-.03.39-.06.58-.09 5.96-.96 11.94-1.65 17.89-2.23 2.49-.24 5.01-.48 7.56-.71l3.83-.35h.02c.63-1.09 1.27-2.17 1.91-3.24 1.4-2.36 2.83-4.73 4.26-7.08 0-.01.01-.01.01-.02l.12-.18c.29-.47.57-.93.87-1.37.1-.15.2-.29.29-.42.1-.13.2-.26.29-.39.1-.13.2-.25.29-.36.16-.19.32-.37.5-.54.16-.14.32-.28.49-.41.15-.12.31-.23.47-.33.25-.15.51-.27.79-.35.28-.1.58-.16.89-.19.16-.01.32-.02.49-.02.28 0 .56.03.87.07.23.03.45.08.66.14.19.04.36.1.54.17.04.01.07.02.11.04.15.05.3.12.45.19.01 0 .02.01.03.02.05.02.11.05.16.08.28.13.55.3.8.48.09.06.18.12.27.19.02.01.04.03.06.04.13.09.26.19.37.3.16.13.32.27.47.44.16.17.33.34.49.52 1.11 1.25 1.89 2.73 2.46 3.9.1.2.19.4.29.6.38.8.75 1.6 1.11 2.4.33.75.67 1.49 1 2.24l.59 1.33h.01l1.44-.15c.21-.02.42-.04.63-.06l.63-.06c3.16-.33 6.34-.62 9.53-.85 3.19-.25 6.39-.45 9.6-.61 3.06-.16 6.13-.28 9.19-.36.15 0 .3 0 .45-.01 3.22-.07 6.44-.12 9.65-.12 1.45 0 2.91.01 4.36.03 3.02.03 6.05.11 9.09.21.95.03 1.9.07 2.84.11.95.04 1.9.09 2.85.13 5.7.29 11.4.7 17.07 1.23l.71.07.03-.02.02-.01.53-.36c.93-.62 1.87-1.22 2.82-1.79l.15-.09c2.02-1.24 4.08-2.39 6.16-3.46.53-.29 1.06-.56 1.6-.82.53-.27 1.07-.53 1.6-.79.54-.26 1.08-.52 1.61-.76 1.08-.5 2.15-.98 3.23-1.44.54-.24 1.08-.46 1.62-.68 2.17-.89 4.33-1.72 6.49-2.49.54-.2 1.08-.38 1.62-.56.32-.12.65-.23.97-.33.32-.11.64-.22.96-.32.43-.14.86-.28 1.29-.42 1.07-.35 2.14-.67 3.2-.99 1.06-.33 2.11-.63 3.16-.91.52-.15 1.04-.29 1.56-.43s1.04-.28 1.55-.41c.26-.07.51-.14.77-.2.64-.17 1.28-.33 1.91-.48.32-.08.64-.16.95-.23.81-.2 1.61-.39 2.4-.57.79-.19 1.57-.37 2.35-.54.54-.12 1.07-.24 1.59-.35 1.58-.34 3.12-.66 4.61-.96 2.11-.43 4.2-.83 6.26-1.2.69-.13 1.38-.25 2.06-.37 1.36-.24 2.71-.47 4.05-.68 1.13-.18 2.26-.35 3.37-.52 1.12-.16 2.22-.32 3.33-.48 2.72-.37 5.41-.7 8.05-.98 3.97-.42 7.86-.73 11.67-.94 2.55-.14 5.06-.23 7.54-.28 1.25-.02 2.48-.03 3.71-.03 1.97 0 3.93.03 5.87.09.88.02 1.75.06 2.61.1 1.1.05 2.2.11 3.29.18.64.04 1.28.09 1.92.13.63.05 1.27.1 1.9.15 1.36.12 2.71.25 4.05.41 1.34.14 2.68.31 4.01.5 1.14.16 2.27.33 3.39.51.86.14 1.71.28 2.56.43 1.31.24 2.61.49 3.9.75 1.3.26 2.58.54 3.86.84 1.83.44 3.65.9 5.44 1.39.24.07.48.13.71.2 1.22.34 2.43.7 3.64 1.07.36.1.72.22 1.08.34.73.24 1.46.48 2.19.72.6.2 1.2.4 1.8.62.6.21 1.2.42 1.79.65.6.21 1.19.44 1.77.67 1.17.46 2.33.93 3.49 1.41.57.23 1.14.48 1.71.74.57.24 1.14.49 1.7.76 2.29 1.04 4.53 2.15 6.71 3.32.58.31 1.15.62 1.72.94 2.28 1.27 4.5 2.61 6.65 4.02l.64.7.05.05 1.01-.11c.32-.04.63-.07.95-.1 1.42-.15 2.85-.3 4.27-.43 2.57-.24 5.14-.45 7.72-.64 1.32-.1 2.64-.19 3.96-.27 1.3-.08 2.6-.16 3.9-.21 1.3-.08 2.61-.14 3.91-.18 1.31-.05 2.61-.09 3.92-.13 1.31-.05 2.62-.08 3.92-.09.77-.03 1.53-.04 2.3-.05h1.17c.32-.59.65-1.17.98-1.75.94-1.68 1.89-3.34 2.83-4.97 1.99-3.49 3.98-6.88 5.97-10.2.58-.98 1.16-1.95 1.76-2.91.58-.97 1.16-1.93 1.75-2.89l.12-.18c.19-.32.38-.63.58-.92.13-.2.26-.4.39-.6.11-.16.21-.31.32-.46.32-.45.64-.85.98-1.21.11-.12.22-.23.34-.34s.23-.21.35-.31c0 0 0-.01.01 0 .12-.1.24-.19.36-.27.11-.08.23-.15.35-.21.23-.13.46-.24.71-.32l.09-.03c.17-.06.34-.11.52-.14.1-.03.2-.05.31-.05.01-.01.02-.01.03 0 .07-.01.13-.02.2-.02.14-.02.29-.03.45-.03.32 0 .64.03.99.08.19.03.37.06.55.11.23.05.45.11.66.19 1.04.35 1.94.92 2.72 1.6.1.07.19.16.29.26.09.09.18.18.27.27.16.16.32.34.47.52.02.01.03.03.05.05.11.11.2.23.29.35.15.19.3.39.44.59.47.63.86 1.29 1.2 1.92.14.26.28.52.42.78.13.26.27.53.39.8.09.18.16.34.24.5.24.51.48 1.01.71 1.52.37.78.73 1.56 1.08 2.35.38.83.75 1.65 1.1 2.48.37.84.73 1.68 1.09 2.52.35.81.69 1.62 1.03 2.43.48 1.15.95 2.3 1.42 3.44.46 1.15.92 2.29 1.37 3.42.13.35.27.69.4 1.02l.46 1.17h.02l.14.01 1.09.08c5.62.41 11.23 1.02 16.82 1.86.71.1 1.41.21 2.12.32.9.14 1.79.29 2.69.44.94.15 1.87.31 2.8.49.93.16 1.86.34 2.79.52.93.17 1.86.36 2.78.55.92.18 1.85.38 2.77.59.92.19 1.84.4 2.76.62 1.98.45 3.96.93 5.93 1.44.16.04.33.08.49.13v-244.14zm308.4 181.49c.04-.05.08-.09.12-.12.15-.15.3-.29.47-.42.06-.06.13-.12.19-.16.12-.1.23-.2.37-.29.05-.05.1-.09.16-.12.01-.02.02-.02.03-.02.1-.08.2-.15.31-.22.1-.08.21-.15.31-.21.13-.09.26-.17.39-.25.46-.28.95-.54 1.46-.78.14-.07.29-.14.44-.2.24-.11.49-.22.75-.32.68-.26 1.4-.5 2.16-.71.68-.19 1.38-.36 2.09-.51.27-.06.54-.11.81-.15.27-.05.55-.09.83-.13.23-.04.45-.06.68-.09s.46-.06.69-.07c.28-.03.57-.06.86-.08.36-.03.73-.06 1.11-.07.25-.02.5-.02.76-.03.41-.01.83-.02 1.25-.02.52 0 1.03.01 1.54.03.45.01.89.03 1.34.06.56.03 1.11.07 1.66.12.55.04 1.11.1 1.66.16.47.05.94.11 1.4.17.63.07 1.24.15 1.85.25.61.09 1.22.18 1.82.27.23.04.46.07.69.11l2.78.46-.49-2.78c-.05-.27-.1-.54-.14-.82-.05-.3-.1-.59-.15-.88-.49-2.87-.88-5.86-.93-8.87-.02-.74-.02-1.49.01-2.24.02-.62.06-1.24.12-1.86s.13-1.24.22-1.85c.03-.23.06-.46.11-.69.03-.23.07-.46.12-.69.17-.92.37-1.83.61-2.73.12-.46.25-.9.39-1.35.19-.6.39-1.19.6-1.77.22-.58.45-1.16.69-1.73s.5-1.13.78-1.69c.14-.29.29-.57.45-.85.1-.23.23-.44.36-.66.19-.33.37-.65.56-.96.33-.52.66-1.03 1-1.51.85-1.19 1.76-2.26 2.73-3.2.05-.05.1-.11.16-.16.36-.34.72-.66 1.09-.97.26-.21.52-.41.78-.6.21-.15.42-.3.63-.44.16-.11.31-.21.47-.3.23-.15.46-.28.69-.41 2.98-1.65 6.64-2.49 10.88-2.49h.39c.49 0 .97.02 1.44.04.94.06 1.86.15 2.76.27.34.04.67.1 1 .17.33.06.65.12.97.19s.64.15.95.23c.03 0 .06.01.09.02.29.08.56.15.84.24.35.11.69.22 1.02.34.12.04.25.09.36.13.33.12.64.25.96.39.3.13.6.26.89.41.21.1.41.2.61.32.17.09.34.18.51.28.49.27.97.56 1.43.88.08.05.16.1.23.16.25.16.49.34.72.52.27.2.54.41.8.64.22.18.43.36.64.56.17.15.34.31.5.47.09.08.18.17.27.27.09.09.18.18.27.27.37.37.72.76 1.04 1.16.13.15.25.3.36.45.15.17.28.34.41.52.25.34.49.69.73 1.05.23.36.45.72.66 1.09.41.74.79 1.5 1.12 2.29.13.32.26.65.38.97.24.66.44 1.33.61 2.01.06.23.12.47.16.71.05.19.09.38.12.58.05.21.08.42.11.64.03.14.05.28.06.42.05.36.09.71.12 1.07.03.25.04.5.05.75.02.35.03.7.03 1.05 0 .68-.04 1.35-.1 2.03 0 .04-.01.09-.01.14l-.35 3.64 3.11-1.72.01-.01c.2-.11.4-.22.61-.32.22-.12.45-.23.69-.33.13-.07.27-.13.41-.19.23-.1.48-.19.72-.27.26-.1.53-.19.8-.26.24-.08.49-.14.74-.2.39-.09.78-.17 1.18-.23.19-.04.37-.06.56-.08h.02c.56-.07 1.15-.1 1.72-.1h.18c.24 0 .47.01.71.03.1 0 .2.01.3.02.28.02.55.05.83.09.1.01.2.02.3.04.15.02.3.04.45.07.48.08.97.19 1.46.32.35.1.7.2 1.04.32.35.11.69.24 1.03.38.15.06.3.12.45.18.99.42 1.97.94 2.9 1.55.48.31.96.65 1.42 1.01.47.36.91.74 1.35 1.15.11.1.21.2.32.3.45.44.92.94 1.39 1.5.23.26.44.54.63.81.48.64.88 1.29 1.22 1.95.09.18.18.36.26.54.05.1.1.2.14.31.08.18.15.35.23.54.01.05.03.09.05.14.07.19.13.38.19.57.08.25.15.5.21.76.25 1.06.32 2.12.24 3.16 0 .06-.01.11-.02.17 0 .03 0 .07-.01.1-.01.21-.05.41-.08.61-.04.22-.08.45-.14.67-.01.07-.03.14-.05.2-.04.17-.09.33-.14.48 0 .02-.01.03-.02.04-.03.11-.07.22-.11.32-.08.22-.17.44-.26.65l-.8 1.88 1.97.45c.07.01.14.03.21.05.19.04.38.08.56.13.36.09.72.18 1.07.29.01 0 .03 0 .04.02.36.1.71.21 1.06.34.16.05.32.11.47.17.5.18.99.39 1.47.6.34.15.68.31 1.01.47.02.01.05.02.07.04.71.36 1.4.76 2.07 1.18.33.21.66.43.98.66.22.15.43.31.64.47.2.15.4.31.6.47.42.33.83.69 1.23 1.06.05.04.1.09.14.14.05.04.1.09.15.15.05.04.1.09.15.16.06.05.11.11.16.17.11.12.21.24.31.37.15.19.3.4.42.62.06.1.11.19.16.29s.1.2.13.3c.03.07.06.14.08.22.03.07.05.15.06.22.03.1.05.2.06.3s.02.2.02.3c0 .28-.04.55-.15.82-.03.06-.05.12-.08.18-.07.13-.15.26-.24.37-.05.07-.11.13-.17.19-.13.14-.28.27-.45.37-.08.06-.16.11-.25.16-.13.08-.27.15-.42.21-.13.06-.26.11-.39.15s-.26.08-.39.12-.27.07-.4.1c-.26.07-.52.11-.76.15-.49.07-.97.15-1.46.21-.04.01-.07.01-.1.01-.53.07-1.06.13-1.59.18-.52.05-1.05.09-1.58.13-.79.06-1.58.1-2.38.13s-1.59.06-2.38.08c-.98.02-1.97.04-2.98.05h-.14c-.86.01-1.79.02-2.76.04-.44.01-.87.02-1.3.03-.02.01-.03.01-.05 0 0 0-.01.01-.02 0-.46.01-.92.03-1.37.05-1.07.04-2.12.08-3.15.12-1.04.04-2.06.08-3.06.11s-1.99.07-2.96.09c-1.22.04-2.41.07-3.59.1-1.18.04-2.33.06-3.47.08-.57.01-1.13.02-1.69.03-1.68.03-3.31.06-4.91.07-2.22.02-4.46.03-6.74.03-11.34 0-23.89-.25-39.49-.79-.58-.02-1.17-.04-1.75-.06-1.13-.04-2.26-.08-3.39-.12-1.22-.05-2.44-.09-3.64-.14-1.16-.04-2.32-.08-3.46-.13-.57-.02-1.14-.04-1.71-.07-.43-.02-.86-.03-1.28-.05-.57-.02-1.12-.04-1.68-.07-2.95-.12-5.81-.24-8.55-.35-.16-.01-.34-.01-.51-.02-.11-.01-.21-.02-.32-.03-.18-.02-.36-.05-.54-.08-.17-.04-.34-.08-.51-.15-.08-.03-.16-.06-.24-.1-.13-.07-.25-.14-.37-.23-.12-.08-.24-.17-.33-.28-.11-.1-.21-.21-.29-.33-.1-.12-.19-.25-.26-.39-.17-.27-.3-.57-.39-.9-.06-.15-.1-.31-.13-.48-.03-.18-.06-.37-.08-.56-.08-.74-.05-1.52.11-2.3.04-.21.09-.43.15-.65.01-.06.03-.11.05-.16.07-.23.15-.47.24-.7.04-.14.1-.29.18-.43.11-.28.25-.56.42-.83.11-.2.23-.39.35-.58.31-.47.66-.93 1.05-1.35.11-.12.23-.24.35-.35zm10.48-87.81c.11-.13.23-.25.34-.36.14-.15.28-.28.41-.4.34-.32.68-.63 1.03-.92.6-.51 1.21-1 1.85-1.47.21-.16.43-.32.65-.47.29-.21.58-.4.87-.6 1.11-.74 2.27-1.41 3.47-2.01.41-.21.82-.41 1.24-.59.42-.19.84-.37 1.26-.54.42-.18.85-.34 1.28-.49.43-.17.86-.31 1.3-.44.43-.15.88-.27 1.32-.39.44-.13.88-.24 1.33-.34.34-.08.68-.15 1.02-.22l.32-.06 2.26-.45-1.19-2.35c-.06-.12-.12-.25-.17-.38-.09-.17-.17-.34-.23-.52-.08-.17-.14-.35-.2-.53-.07-.18-.13-.36-.18-.54-.01-.03-.02-.05-.02-.08-.06-.2-.12-.41-.17-.62-.01-.01-.01-.02-.01-.03-.04-.13-.07-.27-.09-.4-.09-.4-.16-.82-.21-1.24-.02-.12-.03-.24-.04-.37-.02-.2-.04-.4-.04-.61-.01-.24-.02-.48-.02-.72 0-1.1.12-2.22.38-3.33.08-.35.18-.69.28-1.03.01-.02.01-.04.02-.06.1-.33.22-.65.34-.97.08-.23.17-.45.27-.67-.01-.01 0-.01.01-.02.09-.23.19-.45.3-.67.08-.17.16-.35.25-.52.03-.07.07-.13.1-.19.11-.22.23-.43.36-.64.17-.3.35-.6.54-.89.18-.29.37-.57.57-.84.17-.25.35-.49.53-.72.26-.35.53-.68.8-.99.16-.18.32-.36.48-.54.15-.18.31-.34.47-.51.19-.21.39-.41.6-.61.21-.21.42-.41.62-.6.21-.2.42-.39.64-.57.16-.15.33-.29.5-.43.3-.25.61-.49.92-.73.78-.61 1.59-1.16 2.41-1.66.17-.11.33-.21.5-.3.17-.11.33-.2.5-.29.24-.14.49-.27.74-.4s.49-.26.74-.37c.14-.07.29-.14.43-.2.2-.1.4-.19.6-.27.2-.09.4-.17.61-.25.2-.09.4-.17.61-.24.2-.08.4-.15.61-.22.11-.05.23-.09.35-.12.12-.04.24-.08.36-.12.34-.11.68-.21 1.02-.3.75-.21 1.51-.37 2.27-.5.38-.06.76-.11 1.14-.16.76-.09 1.51-.14 2.27-.15h.3c.28 0 .55.01.83.03.2 0 .39.01.58.03.01-.01.01-.01.02 0 0 0 .01-.01.02 0 .02-.01.03-.01.06 0 .03 0 .07 0 .1.01.2 0 .4.02.59.05.02 0 .05 0 .08.01.24.03.48.06.71.09.26.04.51.08.77.12.26.05.52.1.78.16.2.04.39.09.58.14.63.15 1.25.34 1.86.55.07.02.13.04.19.07.34.12.68.25 1.02.39.35.15.69.3 1.03.47.04.02.08.04.11.05.69.34 1.35.71 1.97 1.12.03.02.07.04.1.06s.06.04.1.06l3.72 2.45-.64-4.41c-.01-.08-.02-.16-.03-.24-.12-.85-.2-1.71-.24-2.57-.01-.13-.02-.27-.02-.39-.01-.17-.02-.34-.01-.52-.02-.46-.01-.91 0-1.37 0-.33.01-.67.03-1 .01-.33.03-.67.07-1 0-.04.01-.08.01-.12.02-.19.03-.38.06-.57.03-.34.08-.69.13-1.03.02-.1.04-.2.05-.3 0-.03 0-.06.01-.1.06-.37.12-.73.2-1.1.06-.34.14-.67.22-1.01 0-.03.01-.07.03-.1.04-.2.09-.41.15-.61.07-.3.15-.6.24-.89.02-.09.05-.18.08-.27.03-.12.07-.24.11-.35.11-.35.22-.71.35-1.05.1-.29.21-.58.33-.87.02-.06.04-.11.07-.16.04-.12.09-.24.14-.35.06-.15.12-.29.19-.44.33-.79.71-1.56 1.12-2.31.2-.37.42-.74.64-1.1.24-.41.5-.81.77-1.21.26-.4.54-.8.83-1.18.28-.38.58-.77.88-1.14.05-.05.09-.1.13-.16.27-.32.53-.63.81-.93.27-.31.56-.61.85-.91l.39-.39c.26-.26.52-.51.79-.76.35-.32.7-.64 1.07-.93.36-.32.74-.62 1.12-.9.38-.3.77-.58 1.17-.85.39-.27.79-.54 1.2-.78.01-.01.01-.01.01-.01.81-.51 1.65-.97 2.51-1.39.43-.22.87-.42 1.31-.61.46-.2.92-.39 1.4-.56.07-.03.15-.06.23-.09.28-.1.56-.2.84-.29.41-.14.83-.27 1.25-.39.43-.13.88-.25 1.33-.36h.02c.59-.15 1.2-.28 1.81-.4 2.44-.47 5.04-.73 7.78-.75h.41c6.06 0 11.27 1.18 15.48 3.51.31.18.63.36.93.55.31.19.61.38.91.59.46.31.9.64 1.34.99.24.19.49.39.73.59.25.2.49.41.72.63.26.23.51.47.76.72.26.24.51.5.76.76.55.57 1.07 1.16 1.58 1.78.17.2.33.4.48.6.16.2.31.4.47.61.32.42.62.84.92 1.28.19.26.37.53.54.81.17.26.34.52.5.79.23.37.46.74.67 1.12 0 .01 0 .01.01.01.44.76.86 1.55 1.26 2.36.19.39.38.78.56 1.18.59 1.28 1.12 2.58 1.6 3.91.12.32.23.64.34.96.15.42.28.84.41 1.26.16.51.31 1.02.45 1.53.08.27.15.55.22.83s.14.56.21.84c.09.38.18.77.26 1.16.11.5.21 1.01.3 1.52.06.3.11.6.16.9.02.13.04.26.06.39.05.28.09.56.13.84.1.71.18 1.42.25 2.14.03.28.05.56.07.84.05.65.08 1.3.11 1.96.06 1.4.05 2.8 0 4.2-.01.39-.03.77-.06 1.15-.02.36-.04.73-.07 1.09-.03.45-.07.91-.11 1.36-.02.28-.05.55-.08.82-.16 1.58-.36 3.14-.6 4.71-.07.45-.14.89-.21 1.34-.07.47-.15.95-.24 1.42-.18 1.04-.36 2.08-.55 3.1-.16.94-.34 1.87-.51 2.8l2.81-.47c5.39-.89 11.68-1.85 18-1.85.6 0 1.19.01 1.77.03s1.15.04 1.71.08c.5.03 1 .07 1.49.11l.6.06c.24.02.48.05.71.08.24.02.48.05.71.09.06 0 .12.01.18.02.39.05.77.1 1.15.17.43.06.85.14 1.26.22.01 0 .02 0 .03.01.19.03.39.07.57.11.4.08.79.17 1.18.26.49.12.98.25 1.47.39 4.26 1.19 7.65 3.01 10.08 5.39.28.26.53.53.77.81.12.13.23.26.34.4.15.18.29.36.42.54.14.19.28.38.4.57.13.19.25.39.37.58.17.28.33.56.48.85.38.74.69 1.51.91 2.28.05.15.09.3.12.45.05.17.09.35.12.52.06.28.11.56.14.83.02.16.04.31.05.46.02.15.03.3.03.45.02.38.02.76-.01 1.13-.01.18-.02.35-.04.52-.05.43-.17 1.13-.45 1.88-.03.11-.07.22-.13.32-.03.06-.06.13-.09.19s-.07.13-.1.19c-.12.23-.26.47-.44.69-.07.1-.15.19-.24.29-.05.06-.1.11-.15.16-.07.07-.14.14-.22.2-.08.07-.15.13-.23.18-.16.12-.32.23-.5.32-.92.46-1.94.53-3.08.57l-1.41.06c-4.22.17-8.5.35-12.81.52-2.36.09-4.74.18-7.12.27-.51.03-1.01.05-1.52.06-4.33.17-8.68.33-13.01.48-21.74.76-39.46 1.11-55.77 1.11-3.19 0-6.32-.01-9.43-.04-.62-.01-1.25-.01-1.87-.02-1.05-.01-2.1-.03-3.16-.04-.84-.01-1.69-.03-2.55-.05-1.76-.03-3.54-.07-5.35-.11-.9-.02-1.81-.04-2.73-.07-.91-.02-1.83-.04-2.76-.07-1.04-.03-2.08-.06-3.13-.1-.69-.02-1.38-.04-2.08-.07-.7-.02-1.4-.04-2.11-.07-1.41-.04-2.84-.1-4.29-.16-.41-.01-.82-.03-1.23-.05-.31-.01-.63-.03-.95-.04s-.64-.02-.97-.03c-2.34-.08-4.69-.11-6.76-.14h-.24c-1.06-.01-2.13-.03-3.2-.05s-2.15-.05-3.23-.09c-.74-.02-1.49-.05-2.23-.09-.23-.01-.45-.02-.68-.04-1.28-.07-2.56-.16-3.84-.29-1.47-.13-2.94-.31-4.4-.55-1.94-.31-4.25-.91-5-2.81-.08-.2-.13-.4-.16-.6-.08-.41-.06-.83.02-1.23.09-.45.26-.9.47-1.32 0-.01 0-.01.01-.02.1-.18.2-.36.31-.53.22-.35.47-.68.73-.98.08-.1.17-.19.26-.29zm-293.59 64.48c.07-.08.13-.16.19-.23.06-.08.12-.15.19-.22.21-.24.41-.45.61-.66.19-.2.39-.39.57-.56.36-.33.72-.66 1.09-.97.06-.07.12-.12.19-.17.87-.74 1.76-1.46 2.68-2.14.39-.29.78-.57 1.18-.85 2.09-1.45 4.29-2.74 6.58-3.85.76-.37 1.54-.72 2.32-1.05.29-.12.59-.25.9-.37.3-.13.6-.24.9-.35.31-.11.61-.22.91-.33.04-.02.07-.03.11-.04.21-.08.42-.15.63-.22.06-.02.12-.04.18-.05.34-.12.7-.23 1.04-.33.34-.11.68-.21 1.02-.3.18-.06.37-.11.56-.15.12-.04.24-.08.37-.1.38-.11.77-.2 1.16-.29.07-.02.15-.04.23-.05.46-.11.94-.21 1.4-.3.04-.01.08-.02.12-.02.16-.04.32-.07.49-.09.04-.01.09-.02.14-.03s.09-.02.14-.03l2.82-.5-1.32-2.27c-.14-.23-.27-.46-.39-.7-.08-.15-.16-.3-.24-.46-.24-.46-.45-.94-.63-1.43-.09-.21-.17-.43-.24-.65-.04-.09-.07-.18-.09-.27-.06-.18-.12-.37-.17-.56-.01-.02-.02-.03-.02-.05-.04-.11-.07-.22-.09-.34-.02-.02-.02-.05-.02-.08-.04-.16-.08-.32-.12-.48-.04-.14-.07-.28-.1-.42-.05-.22-.09-.43-.12-.65-.02-.04-.02-.07-.02-.1-.06-.37-.11-.73-.15-1.1s-.07-.74-.09-1.11c-.01-.15-.02-.29-.02-.44-.03-.61-.02-1.21.01-1.82.04-.78.13-1.56.27-2.34.07-.39.15-.78.24-1.17.06-.26.13-.51.2-.77.03-.13.07-.26.11-.38.05-.19.11-.38.18-.58.02-.09.05-.18.09-.28.06-.2.14-.41.22-.63.1-.26.2-.52.3-.78.07-.18.14-.36.22-.53.07-.18.15-.36.24-.54.16-.35.33-.71.51-1.06.14-.26.28-.52.42-.78.1-.19.21-.39.33-.58.17-.29.35-.58.53-.87.55-.87 1.15-1.73 1.81-2.58.95-1.19 1.99-2.35 3.13-3.48.07-.08.14-.15.21-.21.22-.22.43-.43.66-.63.43-.4.87-.79 1.31-1.16.32-.27.64-.53.96-.78.2-.17.41-.33.62-.49.02-.02.03-.03.05-.04.27-.21.53-.41.81-.6.02-.02.04-.03.06-.04.16-.12.32-.23.48-.34.74-.53 1.5-1.02 2.28-1.48.19-.11.38-.23.57-.34.21-.13.42-.25.64-.36.38-.21.76-.41 1.15-.61.02-.02.04-.03.06-.03.31-.17.63-.33.95-.47.51-.25 1.02-.48 1.53-.69.96-.41 1.94-.78 2.92-1.09.33-.11.66-.21.99-.31.26-.08.53-.15.79-.22.2-.06.39-.11.58-.15.17-.05.33-.09.5-.12.17-.04.34-.08.51-.12.47-.11.95-.2 1.42-.28.1-.02.2-.04.3-.05.46-.08.91-.14 1.37-.2.04 0 .07 0 .1-.01.4-.05.78-.08 1.18-.11.36-.03.73-.06 1.09-.07.31-.02.62-.03.92-.03h.4c.33 0 .65.01.98.02.21 0 .42.01.64.03.3.01.6.03.89.06.3.02.6.05.89.09.28.02.56.06.84.11.31.04.61.09.92.15.3.05.6.11.91.18.49.09.99.21 1.47.34.27.06.54.14.81.22s.53.16.8.25c.27.07.53.16.79.27.26.09.52.19.78.29.16.06.33.13.49.2.35.14.69.29 1.03.44.26.1.51.22.75.35.25.11.49.23.73.37.31.16.61.32.9.49.3.17.59.35.88.53s.58.36.86.55.56.38.83.58c.13.09.26.18.39.28l4.13 3.12-.82-4.33c-.08-.38-.15-.75-.22-1.13-.11-.59-.2-1.17-.28-1.76-.07-.48-.12-.97-.17-1.46-.05-.48-.1-.97-.13-1.46-.03-.48-.05-.95-.07-1.42-.14-4.15.33-8.31 1.36-12.29.13-.5.27-1 .42-1.5.15-.52.32-1.04.51-1.56.16-.47.33-.93.5-1.39 0-.01 0-.01.01-.01.13-.32.26-.64.39-.96.19-.47.4-.93.61-1.39.15-.34.31-.68.48-1.01.2-.4.4-.8.61-1.19.25-.47.51-.94.79-1.4.18-.31.37-.62.56-.92.16-.26.32-.52.49-.77.16-.25.33-.5.5-.75.17-.26.34-.51.52-.75.17-.25.35-.49.54-.73.15-.22.32-.43.49-.64.26-.34.52-.67.79-.99.37-.45.75-.89 1.15-1.33.22-.25.44-.5.68-.74.69-.73 1.4-1.44 2.15-2.13.49-.46 1-.9 1.51-1.33.34-.28.68-.56 1.03-.83.29-.23.59-.46.88-.68.23-.17.47-.34.7-.51.99-.71 2.01-1.37 3.06-1.98.45-.27.91-.53 1.38-.78.16-.09.32-.18.48-.26.45-.23.9-.46 1.36-.68.45-.22.91-.43 1.38-.63.7-.3 1.41-.59 2.13-.85.34-.12.67-.24 1.01-.36.35-.12.69-.23 1.04-.34s.7-.22 1.05-.32c.53-.15 1.06-.3 1.6-.43.5-.13 1-.25 1.51-.36.11-.03.21-.05.31-.06.5-.11 1-.21 1.5-.3.56-.11 1.13-.2 1.71-.29.39-.06.77-.11 1.16-.16.42-.06.85-.11 1.28-.15l.93-.09c.51-.05 1.03-.09 1.55-.12.34-.02.68-.04 1.02-.06.9-.05 1.8-.07 2.72-.08h.7c.45 0 .89 0 1.33.02.4.01.79.02 1.18.04 5.46.23 10.37 1.18 14.68 2.83.61.22 1.21.47 1.8.74.3.13.59.27.88.41.2.09.39.18.57.28.38.18.75.38 1.12.59.44.24.87.5 1.31.77.38.23.76.48 1.13.73.08.05.15.1.23.15.27.2.55.39.82.59.07.05.13.1.2.15.17.12.34.25.5.38.35.27.71.55 1.05.83.35.29.7.6 1.05.91.4.35.79.72 1.18 1.1.39.37.78.76 1.16 1.16.31.32.62.66.91.99.11.11.21.22.31.34.28.31.55.64.82.96.02.02.03.04.05.06.83 1 1.63 2.05 2.4 3.15.02.01.03.02.03.04.18.25.36.49.51.74.19.27.37.54.54.82.25.37.49.74.72 1.13.29.46.57.93.84 1.41.17.28.33.56.48.85.16.28.32.57.47.86.12.21.23.42.33.63.2.37.39.75.58 1.13.27.55.54 1.1.79 1.66.19.4.37.79.54 1.2.24.53.47 1.07.68 1.61.14.32.27.64.39.97.35.87.67 1.74.97 2.62.15.44.3.88.44 1.31.14.44.28.88.41 1.32.2.63.38 1.26.55 1.9.2.7.38 1.41.54 2.12.11.44.21.89.31 1.34.11.45.2.91.29 1.36.13.61.24 1.21.34 1.81.09.51.17 1.01.24 1.52.06.4.12.81.17 1.22.13.91.23 1.83.31 2.74.11 1.22.19 2.45.24 3.67.05 1.43.06 2.86.03 4.29-.01.27-.01.54-.02.81 0 .26-.01.53-.03.8-.02.53-.04 1.06-.07 1.59 0 .05 0 .1-.01.15-.03.52-.06 1.03-.1 1.54s-.08 1.02-.13 1.54c-.06.67-.13 1.34-.2 2-.07.67-.15 1.34-.23 2-.16 1.33-.34 2.66-.54 3.98-.02.13-.04.26-.06.39-.14.92-.29 1.84-.44 2.75-.12.7-.24 1.4-.36 2.1-.24 1.38-.49 2.74-.74 4.09-.11.63-.23 1.26-.34 1.88l-.17.92 2.81-.47c1.05-.18 2.11-.35 3.18-.52 2.67-.42 5.42-.84 8.22-1.19.61-.09 1.23-.16 1.85-.23 1.24-.15 2.48-.28 3.73-.38.47-.04.94-.08 1.41-.12s.93-.07 1.4-.1c2.19-.15 4.38-.23 6.57-.23.73 0 1.44.01 2.15.03.17 0 .32.01.48.01 1.41.04 2.79.12 4.13.24.25.02.49.04.74.07.61.05 1.2.12 1.79.2.16.02.31.04.46.06.06 0 .11.01.17.02.39.05.79.1 1.17.17.04 0 .08 0 .12.02.25.03.5.07.74.12h.01c.01-.01.02-.01.03 0 .08.01.15.02.22.04.35.06.71.12 1.05.19.07.01.13.02.19.04.01-.01.02-.01.03 0 .01 0 .01.01.01.01.2.03.4.07.6.12.01-.01.01 0 .01 0 .02-.01.02-.01.03 0 .05.01.1.02.15.04.02-.01.03-.01.04.01.01-.01.01 0 .01 0 .01-.01.01-.01.02 0 .06 0 .12.02.18.04.01-.01.01-.01.02.01.02-.01.04-.01.06.01.01-.01.01-.01.02 0 .42.08.85.17 1.26.28.69.17 1.38.35 2.06.54.37.1.74.21 1.11.32.73.22 1.44.46 2.13.71.44.16.88.33 1.31.51.52.2 1.02.42 1.52.65.18.08.36.16.54.25.03.01.06.02.08.04.32.15.64.3.95.47.06.03.13.06.19.1.14.07.29.15.43.23.15.07.29.15.43.24.26.14.51.29.76.44.28.17.55.34.81.51.1.06.2.13.31.2.27.19.54.37.8.56.31.23.61.45.9.68s.57.46.84.71c.35.3.69.61 1.02.93.39.38.77.78 1.12 1.19.15.18.31.36.45.54.16.2.32.4.47.6.03.03.05.05.07.08.11.13.21.28.31.42.38.54.74 1.1 1.06 1.67.16.26.3.53.44.81.28.54.52 1.09.74 1.65.11.28.22.56.31.85.08.24.16.47.22.71.04.12.07.23.09.35.09.34.17.68.24 1.02.08.33.13.68.17 1.02.04.3.07.59.1.89.02.3.03.59.04.89.01.16.01.32 0 .49 0 .33-.03.66-.06.99 0 .05 0 .09-.01.14-.01.08-.01.17-.02.25-.06.55-.16 1.08-.28 1.58-.28 1.11-.73 2.08-1.31 2.87-.08.12-.17.24-.27.35-.21.26-.45.49-.69.7-.14.12-.29.23-.44.33-.19.14-.39.26-.59.36-.13.07-.26.13-.4.18-.08.04-.16.07-.24.09-.23.09-.47.16-.71.21-.1.03-.19.05-.29.07-.34.07-.69.12-1.03.15-.26.02-.53.04-.79.06-.28.02-.55.03-.82.04l-3.17.13c-3.87.15-7.76.31-11.67.47-3.92.16-7.86.32-11.8.48-3.94.15-7.9.3-11.84.45-3.94.14-7.88.29-11.81.42-1.92.07-3.82.13-5.69.2-1.88.06-3.73.12-5.56.18-1.31.04-2.61.08-3.9.12-.51.02-1.03.03-1.54.05-1.54.04-3.05.08-4.56.13-3.01.08-5.96.16-8.85.23-1.09.03-2.17.06-3.24.08-3.21.08-6.36.15-9.44.2-1.36.03-2.71.06-4.05.08-5.49.1-10.8.17-15.96.22-1.09.01-2.17.02-3.24.02-.88.01-1.76.02-2.63.02-.54.01-1.07.01-1.61.01-.85.01-1.7.01-2.54.01-1.69.01-3.37.01-5.03.01-4.57 0-9.05-.02-13.5-.06-2.61-.02-5.25-.05-7.93-.1-2.67-.04-5.38-.09-8.14-.15-1.89-.04-3.8-.09-5.73-.14-.97-.02-1.94-.05-2.91-.08-1.95-.06-3.93-.12-5.93-.18-1-.03-2-.06-3.01-.1-1.78-.06-3.57-.13-5.39-.19-2.01-.08-4.03-.16-6.09-.24-3.57-.15-7.19-.2-10.7-.25h-.14c-2.04-.02-4.1-.05-6.17-.1-1.09-.02-2.18-.05-3.28-.09-.88-.03-1.75-.06-2.63-.11-.88-.04-1.76-.09-2.64-.15-.91-.05-1.82-.12-2.72-.2-.83-.07-1.67-.15-2.51-.24-.39-.05-.78-.09-1.17-.14-.76-.08-1.52-.18-2.27-.29-.52-.07-1.04-.14-1.56-.23-.18-.03-.36-.06-.53-.1-.18-.02-.35-.06-.52-.1-.32-.07-.64-.14-.96-.22-.17-.04-.35-.09-.52-.14-.15-.05-.3-.09-.44-.14-.13-.04-.27-.09-.4-.14-.21-.07-.42-.15-.62-.25-.17-.07-.33-.15-.48-.24-.08-.04-.15-.08-.22-.12-.12-.06-.24-.13-.36-.21-.1-.06-.2-.13-.29-.21-.06-.03-.12-.08-.18-.13-.09-.06-.17-.14-.25-.21-.15-.13-.3-.28-.43-.43-.12-.13-.22-.26-.31-.4-.11-.14-.2-.29-.27-.44-.09-.16-.17-.32-.23-.48-.27-.69-.34-1.4-.27-2.08.02-.16.04-.32.08-.48.14-.74.45-1.47.83-2.15.13-.22.26-.43.4-.64.11-.17.23-.34.36-.5.12-.17.24-.33.37-.48z" fill="#83e1f0"/><path d="m453.168 332.962c-.379 0-.754-.046-1.115-.137-2.96-.727-4.331-4.036-4.884-5.943-.192-.697-.358-1.379-.524-2.072-.482-2.027-.931-3.91-2.053-5.542-1.02 3.064-2.294 6.876-4.895 9.488-1.704 1.704-4.128 2.76-6.329 2.76-1.273 0-2.467-.349-3.452-1.011-3.139-2.106-3.504-6.54-3.446-10.599-2.016 1.312-3.759 3.026-5.444 4.683l-.083.082c-1.349 1.339-2.886 2.865-4.582 4.121-2.368 1.755-5.269 2.803-7.758 2.803-1.799 0-3.425-.533-4.702-1.54-3.696-2.938-3.362-8.594-2.79-12.593 1.354-9.508 3.721-19.405 7.031-29.415 5.002-15.129 12.251-30.997 22.811-49.936 4.785-8.593 9.398-16.491 14.103-24.143l.109-.177c1.551-2.532 3.016-4.923 5.992-4.923.318 0 .644.027.993.082 3.999.608 6.207 4.174 7.996 7.937 4.355 9.173 8.15 18.999 11.499 27.668l21.67 55.979c2.299 5.94 4.904 12.673 3.861 19.485-.669 4.32-3.578 8.761-7.844 8.896l-.193.001c-4.319 0-7.268-4.336-8.481-8.049-1.314 4.054-3.369 8.792-7.591 9.426-.274.042-.557.063-.843.063-2.13 0-4.382-1.168-6.025-3.124-1.701-2.034-2.642-4.543-3.551-6.97-.634 1.275-1.085 2.628-1.521 3.936-.506 1.497-1.025 3.036-1.791 4.443-1.19 2.156-3.556 4.32-6.168 4.321z" fill="#57aa6b"/><path d="m389.43 103.774c-3.188 0-6.323-.013-9.427-.04-9.955-.091-20.491-.367-32.214-.841-2.652-.112-5.382-.151-7.732-.179l-.239-.003c-5.768-.08-11.732-.162-17.579-1.112-1.779-.283-4.241-.885-4.992-2.82-.886-2.237 1.116-4.541 2.389-5.714 5.368-4.998 12.352-8.175 19.657-8.939-2.651-2.933-3.664-7.441-2.649-11.768 1.093-4.649 4.157-8.264 6.535-10.477 4.894-4.538 11.174-7.189 17.234-7.276h.288c6.515 0 12.762 3.05 16.302 7.96-2.805-7.18-2.711-15.376.252-22.48 2.964-7.104 8.724-12.938 15.801-16.005 4.228-1.829 9.158-2.782 14.656-2.835l.404-.001c6.066 0 11.276 1.181 15.483 3.512 5.004 2.776 9.351 7.683 12.573 14.192 3.095 6.24 4.875 13.243 5.146 20.25.279 7.452-1.104 14.851-2.442 22.005 6.456-1.09 13.712-2.316 20.834-2.316 4.744 0 8.935.527 12.81 1.612 4.262 1.193 7.654 3.006 10.082 5.389 2.973 2.914 4.504 6.8 4.096 10.393-.109.986-.579 3.403-2.549 4.42-.919.46-1.936.531-3.076.572l-1.409.058c-11.265.461-22.913.938-34.465 1.333-21.736.757-39.458 1.11-55.769 1.11z" fill="#fff"/><path d="m431.761 439.636c-6.99 0-13.352-.526-18.908-1.565-3.897-.739-6.168-2.21-6.753-4.374-1.261-4.625 5.181-11.429 10.808-16.321 4.857-4.215 10.257-7.585 16.05-10.015 3.88-1.619 7.184-2.406 10.103-2.406 1.423 0 2.791.188 4.068.559 3.767 1.105 6.849 3.852 9.568 6.276 4.913 4.382 10.45 9.32 13.035 15.881.711 1.8 1.267 4.314-.129 6.061-.71.905-1.834 1.402-2.942 1.803-4.494 1.654-9.263 2.332-13.744 2.818-5.11.551-12.859 1.283-21.156 1.283z" fill="#d8deec"/><path d="m439.751 358.105c.231-9.319.34-19.082.319-29.016l-.001-.718.455-.555c.849-1.033 1.59-2.256 2.266-3.74l2.395-5.255 1.455 5.955c.17.728.329 1.42.528 2.092.95 3.31 2.685 5.423 4.89 5.965.361.087.738.132 1.112.132.388 0 .778-.048 1.163-.142l2.546-.625-.07 2.621c-.085 3.178.415 6.397.898 9.51.59 3.739 1.201 7.61.783 11.446l-.002 1.341-1.384.453c-.059.019-.117.035-.176.048-4.92 1.636-10.012 2.487-15.159 2.538l-2.07.021z" fill="#c29970"/><path d="m374.424 194.315c-11.345 0-23.895-.251-39.493-.791-8.87-.301-18.059-.678-25.442-.98-.768-.031-1.51-.083-2.139-.388-1.02-.525-1.693-1.702-1.849-3.171-.286-2.48.821-5.305 2.893-7.352 1.718-1.683 4.126-2.967 7.163-3.823 2.727-.77 5.697-1.145 9.082-1.145 5.11 0 10.241.876 14.768 1.649l-.029-.144c-.931-5.037-1.892-10.246-1.697-15.46.181-4.952 1.441-9.92 3.648-14.364 2.276-4.609 5.358-8.089 8.91-10.06 2.983-1.654 6.644-2.494 10.881-2.494l.395.002c3.886.033 7.382.711 10.383 2.016 5.015 2.16 9.1 6.296 11.199 11.346 2.103 5.034 2.173 10.847.186 15.944 2.505-3.485 6.935-5.646 11.557-5.646h.18c4.314.056 8.766 1.935 12.24 5.153 1.692 1.579 3.865 4.144 4.638 7.43.718 3.077-.001 6.271-1.875 8.34 5.161.541 10.114 2.79 13.938 6.341.897.832 2.312 2.467 1.692 4.054l-.037.093-.045.089c-.631 1.235-2.282 1.627-3.469 1.815-4.15.675-8.191.732-12.47.792l-.145.002c-1.637.018-3.565.046-5.503.119-8.548.346-16.017.543-22.828.602-2.215.021-4.455.031-6.732.031z" fill="#fff"/><path d="m377.006 299.583c-5.976-5.28-12.957-9.204-19.032-12.467-16.383-8.786-33.732-16.48-51.568-22.869l-5.067-1.815 5.023-1.934c39.06-15.041 80.084-23.04 121.934-23.773l3.46-.061-1.675 3.028c-10.101 18.271-17.072 33.634-21.941 48.35-.823 2.498-1.612 5.069-2.345 7.641l-.445 1.563-1.621-.116c-.939-.067-1.92-.102-2.912-.102-5.28 0-10.477.933-15.502 1.835-2.202.39-4.42.789-6.627 1.189l-.954.172z" fill="#317b36"/><path d="m300.726 262.268c-26.956-9.184-55.037-15.437-83.465-18.585l-5.979-.662 5.185-3.049c16.65-9.796 35.349-14.389 49.777-17.296 18.32-3.691 34.68-5.485 50.014-5.485 5.308 0 10.561.223 15.616.663 21.711 1.878 41.916 8.079 58.432 17.935l4.979 2.972-5.753.729c-29.684 3.763-58.935 11.321-86.943 22.465l-.853.671z" fill="#cbe580"/><path d="m289.609 321.706c-22.448-3.173-46.09-4.781-70.267-4.781-8.783 0-17.779.213-26.739.634l-.425.085-.339-.048c-9.261-1.311-18.602-2.311-28.559-3.056l-1.809.603-.677-1.774c-.119-.308-.235-.608-.352-.899l-19.398-50.142c-2.354-6.082-4.366-11.182-6.537-16.301l-1.058-2.495 2.696-.275c12.649-1.292 25.577-1.947 38.426-1.947 64.122 0 127.542 15.839 183.403 45.804 5.491 2.952 11.283 6.245 16.453 10.322l3.481 2.745-4.361.793c-25.583 4.653-55.163 10.447-82.478 20.353l-.655.479z" fill="#57aa6b"/><path d="m321.269 411.103c-6.569 0-12.547-.495-17.767-1.472-3.667-.692-5.807-2.075-6.361-4.109-.918-3.411 2.7-8.869 10.188-15.376 4.564-3.962 9.643-7.133 15.098-9.424 3.667-1.526 6.773-2.266 9.504-2.266 1.359 0 2.615.173 3.839.529 3.565 1.04 6.467 3.638 9.025 5.931 4.593 4.085 9.803 8.721 12.247 14.928.667 1.698 1.19 4.063-.104 5.695-.694.864-1.748 1.33-2.783 1.707-4.25 1.56-8.73 2.195-12.938 2.648-4.832.519-12.154 1.209-19.948 1.209z" fill="#d8deec"/><path d="m343.39 510.695c-.17-.16-.34-.32-.52-.47-.21-.2-.43-.39-.65-.57-.51-.44-1.04-.86-1.61-1.28-.68-.5-1.4-.98-2.16-1.46-.25-.16-.51-.31-.77-.47-1.57-.93-3.31-1.81-5.22-2.66-.64-.28-1.29-.56-1.96-.82-.25-.1-.51-.2-.76-.3-.44-.17-.88-.34-1.33-.5-.36-.13-.72-.26-1.09-.39-.36-.13-.73-.25-1.11-.38-.55-.18-1.11-.36-1.68-.54-.57-.19-1.16-.36-1.75-.54-20.79-6.13-42.31-10.26-63.97-12.25-.09-.01-.18-.02-.27-.02-1.41-.14-2.81-.26-4.21-.37-.06-.01-.13-.01-.19-.02-2.43-.21-4.88-.41-7.34-.67-.69-.07-1.38-.14-2.07-.22-3.33-.38-6.65-.86-9.93-1.54-.62-.12-1.23-.25-1.84-.4-.23-.05-.46-.1-.68-.16-1.02-.24-2.03-.51-3.04-.81-6.46-1.89-12.07-4.78-16.49-8.42-.47-.39-.92-.78-1.36-1.18h-.01c-.43-.41-.86-.81-1.27-1.23-.21-.2-.41-.41-.61-.63-.39-.42-.77-.85-1.15-1.28v-.01c-.37-.44-.72-.88-1.07-1.33-.16-.23-.33-.46-.5-.7-.48-.69-.94-1.4-1.36-2.12-.1-.17-.19-.33-.28-.49-.1-.16-.19-.33-.28-.5-.18-.33-.35-.67-.52-1.01-.19-.38-.38-.75-.56-1.13-.15-.3-.3-.6-.44-.9l-.05-.09c-.39-.82-.78-1.64-1.2-2.46-.7-1.37-1.47-2.7-2.4-3.92-3.3-4.33-8.24-6.84-13.29-8.55-1.69-.58-3.38-1.06-5.03-1.49-1.24-.32-2.49-.63-3.74-.91-3.35-.78-6.73-1.44-10.13-1.99-.88-.15-1.76-.29-2.65-.42-1.64-.26-3.29-.48-4.95-.69-.87-.11-1.74-.21-2.61-.31-.43-.05-.85-.1-1.28-.14-5.59-.61-11.2-1.02-16.81-1.33-2-.11-4.01-.21-6.02-.3-4.44-.2-8.87-.35-13.27-.5-13.61-.46-27.5-.93-41.18-2.73-1.36-.19-2.73-.38-4.09-.59-4.77-.73-9.5-1.64-14.18-2.79-1.34-.33-2.67-.67-4-1.04-.67-.19-1.33-.38-1.99-.57-.22-.07-.44-.13-.66-.2s-.44-.14-.66-.22c-.27-.09-.54-.19-.8-.29-.63-.23-1.25-.48-1.85-.76-2.01-.88-3.86-1.98-5.4-3.25-.31-.25-.61-.51-.89-.78-.32-.3-.62-.61-.91-.93-.25-.29-.49-.59-.71-.89-.27-.37-.51-.75-.73-1.14.01-.01.01-.01 0-.01-.21-.4-.39-.8-.54-1.21-.05-.17-.11-.34-.16-.51-.09-.33-.17-.67-.22-1.02-.02-.17-.04-.35-.05-.52-.03-.33-.03-.67 0-1.01.03-.49.11-.99.24-1.49.05-.18.1-.36.17-.54.08-.23.17-.46.27-.68s.21-.44.34-.65c.06-.13.13-.25.2-.36.12-.19.24-.38.37-.56 1.13-1.58 2.68-2.89 4.18-4.01 1.11-.84 2.25-1.63 3.4-2.39 0 0 .01 0 .01-.01.94-.61 1.88-1.21 2.84-1.77 6.11-3.66 12.5-6.38 18.1-8.49 1.08-.41 2.13-.79 3.15-1.16 2.5-.9 5.01-1.75 7.53-2.56 1.49-.49 2.99-.96 4.49-1.41 6.13-1.87 12.33-3.51 18.57-4.98 1.52-.36 3.04-.7 4.56-1.04 11.54-2.56 23.23-4.55 34.93-6.25 2.25-.33 4.5-.64 6.75-.94.01 0 .03-.01.04-.01 2.95-.41 5.9-.79 8.85-1.16l2.58-.33c3.18-.39 6.34-.78 9.51-1.16 3.16-.38 6.32-.75 9.47-1.12l.24-.03c1.61-.19 3.23-.38 4.84-.58 17.63-2.08 35.59-4.31 53.29-7.57 2.7-.49 5.39-1.01 8.07-1.56.35-.07.69-.14 1.03-.22 3.04-.62 6.06-1.28 9.07-1.99 1.68-.39 3.35-.79 5.02-1.21.77-.19 1.69-.45 2.71-.77.59-.19 1.2-.4 1.84-.64 1.58-.6 3.26-1.36 4.83-2.3.31-.19.62-.39.92-.59.21-.14.41-.28.61-.43.46-.34.9-.69 1.32-1.07.13-.13.26-.24.38-.37.21-.2.41-.41.59-.62.56-.61 1.04-1.27 1.43-1.97.08-.14.15-.27.22-.41.14-.27.27-.55.37-.83.06-.15.1-.29.15-.44.09-.25.15-.51.21-.77s.1-.52.13-.79c.02-.18.04-.35.05-.52.02-.27.03-.55.02-.83-.04-1.21-.33-2.41-.87-3.58-.22-.47-.48-.94-.77-1.4s-.63-.92-1-1.37-.79-.9-1.23-1.34c-.23-.22-.46-.44-.71-.66-.48-.43-1.01-.86-1.57-1.28s-1.16-.83-1.8-1.24c-2.24-1.42-4.57-2.65-6.95-3.73-.87-.39-1.74-.77-2.62-1.12-2.01-.82-4.05-1.55-6.09-2.21-.83-.27-1.66-.54-2.48-.79-1.62-.5-3.23-.97-4.82-1.42-3.29-.94-6.55-1.83-9.77-2.68-1.15-.3-2.3-.6-3.44-.89-2.63-.67-5.24-1.3-7.84-1.91-.81-.2-1.63-.38-2.44-.57-.03-.01-.06-.01-.09-.02-1.21-.27-2.4-.54-3.6-.8-.52-.11-1.03-.23-1.54-.33-.97-.21-1.93-.41-2.89-.61-1.27-.26-2.54-.52-3.81-.77-.21-.04-.41-.08-.62-.12-6.52-1.27-13.04-2.36-19.64-3.3-.12-.02-.23-.03-.35-.05-1.4-.2-2.81-.39-4.22-.57-1.53-.2-3.06-.4-4.6-.58-.66-.08-1.32-.16-1.98-.23s-1.32-.15-1.98-.22c-1.32-.15-2.66-.29-3.99-.42-.89-.09-1.78-.17-2.68-.26-2.68-.25-5.4-.48-8.14-.69l-1-.08h-.01l-2-.15.25.74.2.59c.01.06.03.11.06.17l.45 1.36c1.07 3.17 2.41 7.93 1.69 12.63v.01c-.04.25-.09.49-.14.74-.04.2-.09.39-.15.58-.01.06-.03.13-.06.2-.04.17-.09.33-.15.49-.06.19-.12.38-.2.56-.03.09-.07.18-.11.27-.1.25-.22.5-.34.74-.1.21-.21.41-.33.6-.16.27-.33.54-.52.79-.13.19-.27.37-.42.54-.03.04-.06.08-.09.11-.14.16-.28.32-.43.47-.19.19-.39.36-.6.53-.09.08-.18.15-.28.21-.14.1-.28.2-.43.28-.07.04-.14.09-.22.13-.08.05-.15.08-.22.12-.19.09-.38.17-.57.25-.02.01-.04.02-.06.02-.19.07-.39.13-.59.18-.08.02-.16.03-.25.05-.09.01-.17.03-.26.04-.17.03-.34.04-.52.05h-.23c-.7 0-1.34-.12-1.94-.33-.19-.07-.38-.15-.57-.24-.27-.13-.52-.28-.77-.44-.09-.06-.17-.12-.25-.18-.22-.15-.44-.32-.64-.5-.22-.19-.43-.39-.62-.59-.36-.37-.68-.77-.98-1.2 0 0-.01 0-.01-.01l-1.89-2.68-1.51 2.9c-.13.24-.26.48-.4.7-.12.22-.25.42-.39.62-.24.36-.5.7-.77 1.01-.19.22-.39.43-.6.63-.33.3-.67.57-1.03.79-.12.08-.24.15-.37.21-.1.06-.21.11-.31.15-.21.1-.43.18-.65.24-.12.04-.23.07-.35.09s-.23.04-.35.06c-.07.01-.15.02-.22.03-.18.02-.36.03-.54.03-.14 0-.29-.01-.43-.02-.43-.03-.86-.12-1.29-.25-.14-.04-.29-.09-.43-.15-.14-.05-.28-.11-.42-.18-.14-.06-.28-.13-.41-.21-.14-.07-.27-.15-.41-.24-.16-.1-.33-.21-.49-.33-.08-.05-.16-.11-.24-.18s-.16-.13-.24-.2c-.16-.13-.31-.27-.46-.42-.04-.03-.07-.06-.1-.09-.17-.17-.33-.34-.48-.52-.19-.23-.37-.46-.54-.71-.14-.2-.28-.4-.4-.6-.19-.3-.36-.61-.53-.92l-1.95-3.48-.04-.08-.39 1.12c-.03.06-.05.12-.07.18l-.62 1.78c-.06.17-.11.33-.17.5l-.22.62c-.03.1-.07.21-.11.31-.26.73-.55 1.46-.91 2.17-.07.12-.13.25-.2.37-.19.34-.41.69-.67 1.02-.13.16-.26.33-.4.49-.14.15-.29.31-.44.46l-.38.37-.21.21v.9c-.08.63-.13 1.26-.15 1.9l-.01.42v.49c0 .31.01.63.02.95.01.42.04.85.07 1.28.02.24.04.49.07.73.02.23.04.45.07.68.05.44.1.87.16 1.3.03.26.07.52.11.78.03.26.07.51.11.76.07.44.13.88.2 1.3.2 1.24.39 2.46.53 3.67.04.27.07.53.09.8.19 1.7.27 3.37.14 5.07 0 .07-.01.14-.02.22-.01.15-.02.3-.04.45l-.04.33c-.04.27-.12.58-.32.81-.18.22-.46.35-.71.44l-.29.1c-.48.16-.96.31-1.44.45-.18.05-.35.1-.53.15-.31.09-.61.18-.92.25-.33.09-.65.17-.98.24-.28.07-.55.13-.83.19-.55.12-1.11.23-1.68.33-.16.03-.32.06-.48.08-.51.09-1.04.16-1.56.23-.32.05-.65.08-.97.11-.63.07-1.26.12-1.89.16-.22.02-.45.03-.67.04-.28.02-.57.03-.86.03-.45.02-.9.03-1.35.03l-.11-.01h-.1c-.17 0-.41 0-.61-.11-.31-.16-.46-.59-.44-1.28.01-.22.01-.44.01-.66.06-2.55.12-5.12.15-7.71.07-4.77.11-9.72.11-14.8v-3.11l-2.83 1.29c-.29.14-.59.25-.9.35-.23.08-.47.15-.7.2-.02 0-.04 0-.06.01-.25.06-.5.1-.74.13-.01 0-.02 0-.02 0-.26.03-.52.05-.77.05-.14 0-.28 0-.41-.02-.57-.03-1.1-.15-1.59-.34-.25-.09-.48-.2-.71-.33-.11-.07-.23-.14-.34-.21s-.22-.15-.32-.24c-.09-.07-.19-.15-.28-.24-.11-.09-.22-.19-.32-.3-.08-.08-.15-.16-.22-.25-.3-.34-.54-.72-.75-1.11-.52-.96-.86-2.15-1.05-3.57l-.45-3.57-.04-.28-2.85 2.64c-.6.56-1.18 1.13-1.75 1.7l-.1.09c-.33.33-.66.65-.98.96-.16.16-.32.32-.49.47-.29.28-.59.55-.9.82-.39.36-.79.69-1.2 1-.14.12-.29.23-.44.34-.04.03-.07.05-.1.07-.51.38-1.04.71-1.59 1-.28.15-.56.29-.85.41-1.48.68-3 1.04-4.42 1.04-1.22 0-2.33-.27-3.29-.8-.32-.17-.62-.37-.9-.59-3.31-2.61-3.01-7.68-2.5-11.26 1.22-8.52 3.33-17.38 6.29-26.34.15-.45.3-.9.46-1.36.17-.5.34-1.01.52-1.52.18-.5.36-1.01.55-1.52l-.02-.01-1.85-.64c-.46-.16-.92-.31-1.38-.46-.6-.2-1.21-.38-1.82-.56-.18-.06-.35-.11-.53-.15-.6-.18-1.21-.34-1.81-.49-.27-.07-.54-.13-.82-.2-.09-.02-.18-.05-.27-.06-.73-.17-1.47-.33-2.21-.48-.37-.07-.75-.14-1.12-.21-.38-.07-.75-.13-1.13-.19s-.76-.12-1.13-.17c-.38-.06-.76-.11-1.14-.15-1.52-.19-3.04-.32-4.58-.4-.19-.02-.38-.02-.57-.03l-2.51-.13.09.23 3.51 9.08c.36.93.75 1.92 1.1 2.96.15.41.29.83.41 1.26.07.18.12.37.17.56.07.24.14.48.2.73.1.38.19.76.27 1.15s.15.78.21 1.17c.04.2.07.4.08.59.02.2.04.4.06.6s.03.4.03.59c.04.84 0 1.69-.13 2.53-.01.08-.02.16-.04.24-.04.21-.08.42-.14.62-.05.21-.12.42-.19.62-.05.13-.1.26-.15.39s-.11.26-.17.38c-.06.13-.12.25-.19.38-.27.49-.58.94-.94 1.35-.09.1-.18.2-.28.29s-.2.18-.3.27c-.3.25-.63.46-.97.63-.35.16-.72.27-1.11.33-.07.02-.13.02-.2.02-.06.01-.13.01-.19.01h-.13c-.33 0-.65-.04-.97-.11-.16-.04-.31-.09-.46-.15-.14-.05-.29-.11-.43-.19-.28-.14-.55-.32-.8-.52-.13-.1-.25-.21-.37-.32-.24-.22-.46-.46-.66-.72l-1.62-1.89-1.37 2.19c-.14.23-.29.45-.45.66-.06.09-.13.18-.2.26-.1.13-.21.25-.32.37-.05.05-.09.1-.14.14-.11.11-.22.21-.34.3-.17.14-.35.26-.53.37-.28.16-.57.28-.88.37-.13.04-.26.07-.39.09-.02 0-.05 0-.08.01-.18.03-.35.04-.52.04-.25 0-.49-.03-.75-.07-.12-.03-.24-.06-.36-.09-.02 0-.05-.01-.07-.02-.11-.03-.21-.07-.32-.11-.3-.11-.61-.27-.9-.46-.06-.04-.11-.08-.17-.12-.12-.07-.24-.16-.36-.26-.14-.12-.29-.25-.43-.39-.14-.13-.27-.27-.4-.42-.06-.07-.12-.15-.18-.23-.07-.08-.13-.16-.19-.24l-2.09-2.85-1.36 3.26c-.04.09-.08.18-.13.27-.07.15-.14.3-.22.45-.03.07-.07.14-.11.21-.06.1-.12.21-.19.32-.2.31-.46.63-.74.93l-.3.33c-.03.01-.04.03-.06.05l-.07.08-.09.64c-.08.55-.13 1.11-.13 1.66l.01.64c.03 1.67.29 3.38.54 5.03.04.26.08.51.12.77.14.91.27 1.83.36 2.75.03.29.05.57.06.85.02.23.03.46.03.68.01.06.01.11.01.15.02.52.01 1.02-.04 1.54l-.04.5c-.02.21-.06.54-.23.74-.18.21-.46.3-.68.37l-.43.14c-.07.02-.15.05-.22.07-.25.08-.52.16-.78.23-.29.09-.59.17-.89.24-.21.06-.42.11-.63.15-.21.05-.42.1-.63.14-.21.05-.42.09-.63.12-.18.03-.36.07-.54.1-.52.09-1.05.16-1.58.22-.24.02-.48.05-.72.07-.25.03-.5.05-.76.06-.25.02-.51.04-.76.04-.42.02-.84.03-1.26.03h-.2c-.09 0-.28 0-.41-.07-.1-.06-.34-.18-.32-.9.01-.36.02-.73.02-1.1.08-3.39.13-6.81.15-10.25.01-1.29.02-2.58.02-3.89l.01-1.66v-1.09l-2.49.81c-.01 0-.02.01-.02.01-.17.05-.34.1-.51.14-.14.03-.27.06-.41.08-.26.05-.51.07-.76.07-.37 0-.72-.05-1.06-.14-.03 0-.06-.01-.08-.02-.03-.01-.05-.01-.08-.02-.14-.05-.29-.1-.43-.17-.17-.08-.33-.17-.48-.27-.11-.08-.22-.16-.33-.24-.11-.09-.22-.19-.31-.3-.1-.1-.19-.21-.28-.32s-.17-.23-.24-.35c-.09-.13-.17-.27-.23-.41-.07-.14-.13-.28-.19-.43s-.11-.3-.16-.45c-.05-.16-.09-.32-.13-.49 0-.01-.01-.02-.01-.04l-.76-3.25-.06-.25-2.41 2.42c-.14.13-.27.27-.41.4l-.17.17c-.46.45-.9.88-1.35 1.3-.45.4-.92.8-1.41 1.17l-.01.01c-.18.13-.37.26-.56.38-.39.24-.79.46-1.2.64-.82.37-1.67.6-2.47.68-.21.03-.41.04-.61.04-.56 0-1.08-.08-1.56-.25-.49-.16-.95-.4-1.34-.71s-.7-.66-.96-1.05c-.25-.36-.45-.75-.59-1.2-.04-.13-.08-.26-.12-.4-.02-.04-.04-.09-.04-.14-.01-.03-.01-.07-.02-.1-.06-.3-.12-.61-.16-.93-.02-.13-.03-.27-.04-.41-.04-.47-.04-.97-.02-1.5.01-.47.05-.94.11-1.38.02-.25.06-.49.09-.73.15-1.04.32-2.09.51-3.14.09-.55.19-1.1.3-1.65.25-1.32.54-2.64.86-3.97.07-.31.15-.63.23-.95.27-1.11.56-2.23.88-3.34.09-.34.19-.67.28-1.01.41-1.42.85-2.85 1.32-4.27.42-1.27.86-2.54 1.33-3.83l.18-.5-1.62-.28c-.24-.04-.47-.08-.71-.12-1.38-.24-2.74-.46-4.08-.66-2.15-.33-4.25-.6-6.27-.83-.39-.04-.78-.09-1.18-.13-.27-.03-.55-.06-.83-.08-.06-.01-.12-.01-.18-.01v224.52h344.77c-.43-.49-.89-.98-1.38-1.45zm-165.41-21.59c-.01.14-.03.27-.06.4-.02.13-.05.26-.08.39-.03.14-.06.28-.11.41-.05.18-.11.35-.18.52-.05.13-.1.25-.16.37-.06.13-.12.26-.19.39-.11.23-.24.45-.38.67-.04.06-.08.12-.12.18-.16.24-.33.48-.53.71-.1.13-.21.26-.33.38-.19.21-.39.41-.6.61-.29.27-.6.53-.94.77-.33.24-.68.47-1.05.68-.49.28-1.01.53-1.53.75-.26.11-.53.21-.8.3-.27.1-.54.19-.81.27-.18.06-.36.12-.55.16-.19.05-.37.1-.56.14-1.06.27-2.15.47-3.3.64-.02 0-.05 0-.08.01-.37.06-.74.12-1.12.17-3.35.47-6.65.85-9.88 1.14h-.03c-2.15.2-4.27.36-6.35.47h-.03c-.75.05-1.48.08-2.21.11-.12.01-.23.01-.35.01-.65.03-1.3.05-1.94.07-.65.02-1.29.04-1.92.05-.94.02-1.86.03-2.78.03-.96 0-1.91-.01-2.85-.03-.6-.01-1.2-.02-1.79-.04-.34-.01-.68-.02-1.02-.04-.84-.03-1.67-.07-2.49-.12-1.19-.06-2.36-.14-3.52-.24-.42-.03-.85-.07-1.27-.11-1-.09-2-.2-2.98-.32-.49-.06-.98-.12-1.47-.18-.09-.01-.18-.02-.27-.03-.33-.04-.66-.09-.98-.14-.07 0-.14-.01-.21-.03-.42-.05-.83-.11-1.23-.18-.54-.08-1.07-.16-1.6-.25-3.03-.51-5.99-1.13-8.89-1.88-.5-.12-.98-.25-1.47-.39-.17-.04-.34-.09-.5-.14-.46-.12-.91-.25-1.37-.39-.52-.15-1.03-.3-1.54-.46-.52-.16-1.04-.32-1.56-.49-.21-.07-.42-.14-.63-.22-.17-.05-.36-.13-.55-.21-.2-.08-.4-.17-.58-.27-.08-.04-.16-.08-.24-.12-.09-.04-.18-.09-.26-.15-.11-.06-.21-.12-.31-.19-.11-.08-.22-.16-.33-.24l-.42-.29-.58.13-.28.06-.05.01-.05.01-.04.01c-2.56.31-5.17.46-7.74.46-1.52 0-3.03-.05-4.53-.17-.98-.05-1.95-.15-2.92-.26-.33-.04-.67-.08-1-.12s-.66-.08-.99-.13-.66-.1-.99-.15c-.25-.03-.5-.07-.74-.12-.25-.04-.5-.08-.74-.13-.5-.08-.99-.18-1.48-.28-.64-.13-1.27-.27-1.9-.42-.67-.15-1.34-.32-2-.5-.52-.14-1.05-.29-1.57-.44-.51-.15-1.01-.31-1.51-.47-.36-.11-.72-.23-1.08-.36-.52-.17-1.04-.36-1.56-.55-.48-.18-.83-.34-1.1-.48-.69-.38-1.26-.89-1.41-1.64-.03-.12-.04-.24-.04-.36 0-.16.02-.31.05-.46.01-.07.03-.15.06-.22.02-.08.05-.16.09-.24.04-.1.08-.21.14-.31.05-.1.11-.21.18-.32.06-.11.14-.23.22-.34.08-.12.17-.24.26-.37.01-.02.02-.03.03-.05.77-1.07 1.58-2.18 2.42-3.28.35-.46.7-.91 1.05-1.35.18-.23.37-.46.55-.68.02-.03.04-.05.06-.07.34-.42.69-.84 1.05-1.24.23-.26.46-.52.7-.78.14-.17.29-.32.45-.48.32-.34.65-.67.98-.99.25-.24.51-.49.77-.73.27-.25.54-.48.81-.71.53-.45 1.08-.88 1.66-1.29.28-.21.57-.41.87-.6.34-.22.68-.43 1.03-.62.25-.15.5-.28.75-.41.34-.18.68-.35 1.03-.51.31-.14.63-.28.94-.41.32-.13.64-.25.96-.36 1-.35 2.02-.64 3.07-.86.44-.09.88-.17 1.32-.24 1.34-.2 2.72-.3 4.11-.3 3.48 0 6.95.64 10.25 1.85.02.01.03.01.05.02.63.23 1.25.48 1.86.76.06.02.11.05.17.08.59.26 1.17.55 1.74.85.07.04.14.08.21.12.05.02.09.05.13.07.52.28 1.03.58 1.53.89.01 0 .01.01.02.01.02.01.04.03.06.04l.01.01c.68.42 1.34.87 1.98 1.35l1.31.98.01.01 1.22-1.11c.04-.04.08-.07.12-.1.5-.45 1-.9 1.51-1.34s1.02-.88 1.55-1.3c.4-.34.81-.67 1.22-.98.18-.15.36-.29.54-.43.18-.15.37-.3.56-.44.28-.23.57-.44.86-.65.38-.29.77-.58 1.17-.86.52-.38 1.04-.75 1.57-1.11.27-.19.55-.38.83-.57 1.03-.7 2.08-1.37 3.14-2.02.23-.14.47-.28.71-.43.48-.29 1-.6 1.54-.9.27-.15.55-.31.83-.46.57-.31 1.16-.62 1.77-.92.31-.15.62-.31.94-.45.28-.13.56-.26.84-.38.2-.09.41-.18.62-.27.5-.21 1.01-.41 1.52-.61.49-.18.99-.35 1.5-.51.51-.17 1.04-.32 1.57-.46.2-.06.41-.11.61-.15.95-.24 1.91-.42 2.89-.54.24-.03.48-.05.72-.07.498-.047 1.001-.06 1.502-.07h.038c.09 0 .19-.01.29-.01 1.46 0 3.08.14 4.83.5.19.03.38.07.57.12.35.08.7.16 1.04.26 6.85 1.83 15.54 6.96 25.04 19.25.87 1.11 1.62 2.12 2.24 2.99 0 0 0 .01.01.01.73 1 1.42 2.05 1.93 3.16.06.14.13.28.19.42.12.28.23.56.31.84.06.18.11.36.15.54.05.18.09.36.11.55.02.12.04.23.05.35.02.11.03.22.04.33.01.15.02.3.02.46 0 .27-.01.53-.05.79z" fill="#cbe580"/><path d="m255.653 469.68c-4.197 0-8.017-.316-11.351-.94-2.364-.444-3.732-1.335-4.07-2.648-.778-2.918 3.741-7.386 6.506-9.788 2.924-2.543 6.172-4.567 9.653-6.016 2.325-.978 4.31-1.454 6.059-1.454.857 0 1.683.115 2.453.341 2.288.671 4.218 2.393 5.768 3.776 2.961 2.65 6.272 5.614 7.819 9.54.423 1.085.752 2.588-.069 3.631-.367.49-.945.786-1.749 1.092-2.729.996-5.592 1.404-8.285 1.699-3.097.33-7.78.767-12.734.767z" fill="#f0f2fa"/><path d="m124.949 171.636c-4.567 0-9.053-.02-13.498-.061-13.928-.122-28.691-.509-45.133-1.182-3.566-.147-7.19-.198-10.696-.246l-.141-.002c-8.165-.101-16.611-.205-24.961-1.556-2.708-.44-5.949-1.287-6.993-3.955-1.218-3.106 1.561-6.344 3.325-7.998 7.539-7.006 17.324-11.454 27.559-12.53-3.714-4.106-5.133-10.424-3.708-16.488 1.212-5.174 4.378-10.251 9.157-14.68 6.868-6.361 15.668-10.076 24.142-10.193h.398c9.142 0 17.895 4.277 22.844 11.163-3.926-10.069-3.796-21.553.36-31.513s12.227-18.13 22.143-22.416c5.952-2.575 12.858-3.912 20.526-3.974l.696-.004c8.432 0 15.686 1.653 21.561 4.915 7.023 3.902 13.117 10.777 17.623 19.881 4.343 8.78 6.835 18.59 7.206 28.372.39 10.467-1.549 20.826-3.424 30.844 8.999-1.533 19.191-3.257 29.183-3.257 6.649 0 12.522.74 17.952 2.263 5.996 1.688 10.751 4.232 14.133 7.561 4.154 4.065 6.304 9.504 5.745 14.546-.331 2.952-1.641 5.211-3.593 6.203-1.325.676-2.893.739-4.275.795l-3.169.13c-15.45.631-31.427 1.285-47.122 1.831-30.746 1.058-55.48 1.551-77.84 1.551z" fill="#fff"/><path d="m139.015 499.906c-13.628 0-25.735-1.786-37.014-5.459-1.704-.557-3.358-1.281-3.946-2.801-.702-1.81.503-3.751 1.632-5.239 6.614-8.676 14.664-15.958 23.927-21.646 3.661-2.245 9.233-5.315 15.341-6.071.873-.107 1.763-.161 2.647-.161 15.371 0 28.634 16.176 33.623 23.131 1.448 2.009 2.792 4.209 2.806 6.654.014 2.791-1.816 5.578-4.775 7.276-2.647 1.496-5.775 2.019-8.753 2.427-8.967 1.253-17.544 1.889-25.488 1.889z" fill="#f0f2fa"/><path d="m145.027 417.488c-7.242 0-14.591-.574-21.249-1.659-2.534-.423-3.939-1.419-4.184-2.961-.437-2.697 2.703-6.486 5.413-9.189 3.429-3.408 7.105-6.03 8.622-6.805 2.573-1.322 6.587-2.901 11.077-2.901.732 0 1.464.042 2.176.125 10.757 1.257 17.218 11.42 19.496 15.732.503.983.948 1.96.826 2.965-.271 2.451-3.414 3.276-5.264 3.548-5.194.76-10.883 1.145-16.913 1.145z" fill="#f0f2fa"/><path d="m124.482 341.474c-.33 0-.657-.039-.973-.115-2.665-.655-3.889-3.621-4.382-5.33-.178-.607-.326-1.232-.476-1.867-.431-1.813-.83-3.492-1.829-4.941-.997 2.945-2.098 6.186-4.386 8.486-1.519 1.52-3.7 2.462-5.694 2.462-1.136 0-2.196-.308-3.066-.891-2.804-1.884-3.134-5.853-3.087-9.488-1.828 1.191-3.411 2.755-4.942 4.268l-.093.091c-1.318 1.299-2.565 2.525-4.019 3.598-2.11 1.555-4.709 2.484-6.95 2.484-1.619 0-3.071-.473-4.198-1.367-3.304-2.609-3.008-7.675-2.498-11.259 1.216-8.518 3.332-17.378 6.291-26.336 4.484-13.545 10.974-27.751 20.422-44.706 4.277-7.678 8.406-14.751 12.622-21.623l.113-.18c1.375-2.243 2.686-4.381 5.367-4.381.281 0 .566.023.873.071 3.603.553 5.641 3.905 7.159 7.11 3.868 8.141 7.137 16.592 10.298 24.764l19.4 50.12c2.06 5.321 4.394 11.353 3.451 17.448-.595 3.84-3.166 7.786-6.939 7.951-.081.009-.164.014-.247.014-3.872 0-6.51-3.885-7.592-7.211-1.077 3.338-2.958 7.849-6.785 8.438-.255.038-.506.057-.76.057-1.909 0-3.929-1.045-5.403-2.795-1.523-1.816-2.4-4.164-3.173-6.236-.565 1.125-.976 2.345-1.372 3.525-.444 1.326-.904 2.697-1.6 3.972-1.064 1.927-3.185 3.867-5.532 3.867z" fill="#317b36"/><path d="m112.491 363.766c.205-8.358.299-16.997.278-25.676l-.002-.705.44-.55c.642-.801 1.221-1.729 1.77-2.837l2.487-5.021 1.254 5.461c.123.536.254 1.071.404 1.598.845 2.946 2.397 4.835 4.371 5.317.324.084.653.123 1.006.123.265 0 .541-.03.869-.093l2.423-.47-.042 2.468c-.048 2.816.405 5.711.806 8.266.551 3.501 1.072 6.81.702 10.206l-.139 1.275-1.217.406c-4.293 1.431-8.793 2.199-13.376 2.282l-2.087.038z" fill="#c29970"/><path d="m83.841 296.213c-6.254-2.182-12.749-3.386-19.306-3.579l-1.631.136-9.989-25.813c-.969-2.514-1.965-5.055-2.99-7.605l-.74-1.84 1.835-.755c17.414-7.167 35.741-9.282 56.17-11.132l3.834-.347-1.92 3.336c-1.662 2.89-3.133 5.487-4.494 7.942-8.078 14.485-13.872 26.706-18.234 38.466l-.682 1.839z" fill="#57aa6b"/><path d="m89.834 493.409c-7.895 0-15.602-1.372-22.908-4.079-.474-.172-.826-.334-1.094-.475h-1.452v-2c0-.742.352-1.368 1.001-2.264 3.292-4.532 6.656-9.163 11.4-12.244 3.766-2.447 8.346-3.74 13.244-3.74 6.089 0 12.265 2.001 17.391 5.635l1.94 1.375-1.688 1.675c-2.828 2.809-5.513 5.875-7.979 9.113-.562.729-2.036 2.644-1.823 4.49l.232 2.027-2.031.192c-2.059.196-4.157.295-6.233.295z" fill="#d8deec"/><path d="m41.408 322.039c-.236 0-.47-.028-.693-.084-1.351-.327-2.464-1.678-3.039-3.704-.094-.312-.177-.65-.259-.987l-.067-.276c-.29-1.227-.582-2.461-1.276-3.468-.676 1.997-1.435 4.274-3.06 5.899-1.044 1.055-2.562 1.716-3.951 1.716-.787 0-1.522-.212-2.128-.614-1.963-1.319-2.194-3.959-2.154-6.617-1.248.815-2.279 1.828-3.371 2.901l-.167.165c-.908.898-1.766 1.747-2.774 2.481-1.457 1.082-3.265 1.734-4.821 1.734-1.12 0-2.13-.327-2.92-.947-2.312-1.837-2.104-5.358-1.746-7.848.851-5.97 2.325-12.137 4.381-18.327 3.102-9.393 7.618-19.281 14.212-31.113 3.025-5.425 5.898-10.342 8.782-15.034l.05-.086c.985-1.606 1.897-3.092 3.776-3.092.188 0 .388.016.602.05 2.824.428 4.223 3.367 4.973 4.946 2.702 5.681 5.075 11.82 7.169 17.237l13.49 34.87c1.365 3.508 3.065 7.878 2.411 12.135-.422 2.692-2.232 5.457-4.88 5.545l-.136.002c-2.691 0-4.522-2.707-5.273-5.025-.811 2.515-2.076 5.462-4.715 5.879-.193.028-.362.04-.534.04-1.322 0-2.727-.727-3.756-1.944-1.056-1.257-1.663-2.877-2.198-4.306-.382.686-.637 1.435-.905 2.227l-.065.193c-.321.953-.64 1.898-1.104 2.757-.917 1.647-2.424 2.695-3.854 2.695z" fill="#317b36"/><path d="m33.071 336.919c.128-5.617.188-11.343.179-17.021l-.001-.688.422-.543c.173-.222.329-.443.477-.673l2.313-3.601 1.278 4.084c.349 1.113 1.2 3.047 2.98 3.485.204.051.41.078.632.082.119-.012.225-.02.329-.02h1.968l.032 1.967c.027 1.672.289 3.382.543 5.036.355 2.264.71 4.517.541 6.738l-.102 1.341-1.281.412c-2.651.852-5.422 1.338-8.235 1.444l-2.123.08z" fill="#c29970"/><path d="m27.73 262.605-.24.45-1.06 1.96-.72 1.34c-.94 1.75-1.84 3.45-2.7 5.13-.41.82-.82 1.63-1.22 2.44s-.8 1.62-1.18 2.42c-.22.46-.44.92-.65 1.37s-.42.91-.63 1.35c-1.44 3.15-2.71 6.18-3.86 9.14l-.34.85-.06.16-.2.52-1.62-.28c-.24-.04-.47-.08-.71-.12-1.38-.24-2.74-.46-4.08-.66-2.15-.33-4.25-.6-6.27-.83-.39-.04-.78-.09-1.18-.13-.27-.03-.55-.06-.83-.08-.06-.01-.12-.01-.18-.01v-15.71c.48-.21.95-.4 1.4-.58 1.31-.53 2.62-1.05 3.95-1.58 1.72-.67 3.46-1.34 5.21-2s3.51-1.32 5.28-1.96c.93-.34 1.81-.66 2.65-.94 1.18-.4 2.29-.74 3.38-1.02.26-.07.52-.13.78-.19.31-.07.61-.14.91-.2l.26-.05z" fill="#57aa6b"/><path d="m512 471.035v-2.08c-22.83-6.66-47.31-5.62-70.59-3.36-4.21.41-8.43.85-12.66 1.3-21.51 2.28-43.77 4.64-65.33 1.63-10.5-1.46-16.83-4.58-19.91-9.81-1.01-1.72-1.65-3.66-2.32-5.72-.6-1.82-1.21-3.69-2.12-5.49-4.02-7.94-12.9-13.01-27.16-15.51-17.74-3.1-36.02-3.34-53.71-3.58-19.48-.27-39.61-.54-58.83-4.66-2.72-.59-5.4-1.39-6.55-3.29-2.21-3.65 2.39-8.55 5.47-10.87 22.49-17 50.85-23.77 78.27-30.33 19.6-4.68 39.86-9.52 58.28-18.05 3.91-1.81 8.35-4.07 11.52-7.88 3-3.61 4.91-9.48 2.44-14.45-1.81-3.64-5.43-5.75-8.37-7.19-8.41-4.11-17.8-6.18-25.95-7.81-5.37-1.07-10.81-2.04-16.31-2.92 28.45-9.56 58.43-14.94 87.5-20.14 5.62-1 11.42-2.02 17.13-1.74-1.6 6.13-2.83 12.19-3.67 18.1-.64 4.49-.97 10.88 3.53 14.44 4.42 3.49 10.66 1.9 14.89-1.23 1.77-1.3 3.31-2.82 4.8-4.3.77-.75 1.51-1.49 2.27-2.18.35 3.28 1.39 6.38 4.18 8.25 2.87 1.92 6.39 1.59 9.26.17-.01 8.73-.1 17.52-.32 26.21-.04 1.58.49 2.68 1.57 3.26.65.35 1.28.35 1.61.35h.31c5.6 0 11.13-.9 16.44-2.67.45-.15 1.31-.44 1.95-1.2.69-.82.8-1.79.85-2.26.46-4.09-.18-8.12-.79-12.01-.62-3.96-1.2-7.7-.7-11.39.01-.09.01-.19.01-.29.85-.82 1.56-1.76 2.09-2.73.72-1.3 1.22-2.65 1.67-3.99.54 1.01 1.16 2 1.92 2.9 2.33 2.77 5.65 4.21 8.7 3.75 3.76-.57 6.07-3.59 7.49-6.43 1.92 2.89 4.8 5.18 8.54 5.08 5.35-.17 8.96-5.46 9.75-10.59 1.13-7.33-1.7-14.64-3.97-20.51l-1.5-3.86c6.12-.55 12.26-.37 18.32.53v-4.03c-6.56-.93-13.2-1.06-19.82-.37l-18.67-48.26c-.56-1.44-1.12-2.89-1.68-4.34 13.55 1.11 27.02 3.41 40.17 6.88v-4.15c-13.68-3.54-27.7-5.85-41.8-6.88-2.56-6.48-5.25-12.99-8.25-19.31-1.26-2.66-3.89-8.19-9.51-9.06-4.98-.76-7.2 2.86-8.98 5.77l-.11.18c-4.24 6.9-8.43 14.05-12.76 21.76-.01 0-.01 0-.01 0-.01 0-.02 0-.02 0-11.76.13-23.44.85-35.04 2.11-.12-.13-.25-.26-.41-.36-17.46-11.4-39.27-18.51-63.07-20.57-19.8-1.71-41.45-.13-66.19 4.86-16.2 3.26-37.06 8.52-54.88 20.31-25.4-2.38-51.01-2.31-76.29.36-.7-1.57-1.4-3.14-2.13-4.69-1.15-2.41-3.53-7.44-8.67-8.23-4.6-.7-6.63 2.61-8.26 5.27l-.1.16c-1.89 3.09-3.78 6.24-5.68 9.48-19.96 1.79-40.56 3.7-59.59 11.54-.86-2.03-1.74-4.05-2.69-6.04-.84-1.77-2.59-5.47-6.49-6.06-3.59-.55-5.25 2.15-6.35 3.94l-.07.11c-2.75 4.48-5.47 9.14-8.3 14.19-.03 0-.05-.01-.08-.01-3.8.29-7.29 1.47-11.12 2.87-4.85 1.76-9.73 3.64-14.5 5.56-.22.09-.43.18-.65.27v4.34c.69-.31 1.41-.6 2.15-.9 4.73-1.91 9.56-3.76 14.37-5.51 2.61-.96 5.03-1.79 7.43-2.27-4.35 8.06-7.72 15.26-10.35 22.08-3.7-.65-7.46-1.21-11.19-1.63-.79-.09-1.6-.18-2.41-.24v4.01c.64.06 1.3.12 1.95.2 3.42.39 6.85.9 10.25 1.48-.25.71-.51 1.43-.74 2.13-2.1 6.34-3.6 12.63-4.46 18.67-.42 2.99-.63 7.23 2.48 9.69 3.06 2.43 7.33 1.37 10.19-.74 1.14-.85 2.12-1.81 3.07-2.75l.36-.36c.37 1.58 1.14 3.17 2.71 4.23 1.68 1.12 3.66 1.17 5.43.6-.01 5.06-.07 10.15-.19 15.19-.04 1.61.72 2.36 1.37 2.71.57.3 1.12.31 1.36.31h.2c3.56 0 7.09-.57 10.47-1.71.33-.11 1.02-.34 1.56-.97.57-.69.66-1.48.7-1.81.29-2.65-.11-5.21-.5-7.69-.37-2.4-.73-4.66-.43-6.84.48-.51.9-1.07 1.22-1.65.21-.37.39-.75.55-1.13.14.19.29.38.45.57 1.62 1.93 3.96 2.93 6.11 2.6 2.19-.33 3.66-1.79 4.65-3.37 1.29 1.51 3.02 2.59 5.24 2.53 3.75-.12 6.26-3.72 6.8-7.23.73-4.76-1.07-9.42-2.52-13.16l-2.48-6.43c5.92.31 11.74 1.44 17.35 3.4-.3.85-.59 1.69-.87 2.54-3 9.07-5.14 18.04-6.37 26.68-.58 4.08-.87 9.87 3.24 13.12 4.04 3.2 9.73 1.76 13.58-1.09 1.59-1.17 2.98-2.54 4.32-3.87.58-.57 1.14-1.12 1.71-1.65.33 2.56 1.27 5.41 3.81 7.11 2.53 1.7 5.62 1.49 8.18.32 0 7.7-.08 15.46-.27 23.12-.05 1.87.79 2.72 1.51 3.1.63.34 1.25.34 1.54.34.1.01.19.01.28.01 5.03 0 10-.81 14.78-2.41.43-.14 1.24-.41 1.85-1.14.65-.78.75-1.7.8-2.13.41-3.69-.16-7.31-.7-10.81-.56-3.53-1.08-6.86-.63-10.13.01-.07 0-.14 0-.21.75-.74 1.38-1.57 1.85-2.42.57-1.03.99-2.1 1.36-3.16.43.77.93 1.52 1.51 2.21 2.13 2.54 5.19 3.85 7.99 3.43 3.31-.5 5.39-3.06 6.69-5.55 1.76 2.49 4.33 4.43 7.63 4.34 4.91-.15 8.2-4.97 8.93-9.65.72-4.7-.35-9.37-1.77-13.58 29.05 2.22 54.77 6.83 83.22 14.95 7.57 2.16 15.53 4.64 22.44 9.04 3.14 2 6.9 5.23 7.02 9.24.21 6.97-9.91 10.26-14.27 11.35-26.55 6.65-54.39 9.93-81.3 13.11-35.93 4.24-73.09 8.62-107.73 21.07-8.23 2.96-18.86 7.23-28.02 14.1-2.57 1.93-5.33 4.38-6.26 7.89-2.08 7.91 5.88 14.06 14.7 16.66 21.39 6.29 44.04 7.06 65.94 7.8 20.29.69 41.27 1.4 61.03 6.53 6.25 1.63 13.19 4 17.23 9.31 1.36 1.78 2.35 3.85 3.39 6.03.68 1.41 1.38 2.87 2.2 4.27 4.74 8.16 13.62 14.48 24.99 17.81 8.26 2.42 16.92 3.16 25.29 3.87 1.55.13 3.11.27 4.66.41 21.49 1.98 42.88 6.07 63.58 12.18 9.14 2.7 15.65 5.94 19.8 9.91h5.35c-5.71-7.52-15.99-11.38-24.02-13.75-20.95-6.18-42.59-10.32-64.34-12.32-1.56-.15-3.13-.28-4.69-.41-8.18-.7-16.63-1.42-24.51-3.73-10.38-3.04-18.43-8.72-22.66-15.98-.73-1.26-1.37-2.59-2.04-3.99-1.09-2.27-2.21-4.61-3.82-6.73-4.77-6.27-12.49-8.95-19.4-10.75-20.19-5.25-41.39-5.96-61.9-6.66-21.66-.73-44.05-1.49-64.95-7.64-4.84-1.42-13.56-5.72-11.96-11.8.62-2.32 2.77-4.19 4.79-5.71 8.73-6.55 19.01-10.67 26.98-13.54 34.2-12.29 71.13-16.65 106.84-20.86 27.04-3.19 55-6.49 81.8-13.2 11.21-2.81 17.51-8.4 17.3-15.35-.13-4.56-3.2-8.88-8.87-12.5-7.37-4.69-15.64-7.27-23.49-9.5-12.42-3.55-24.33-6.43-36.21-8.74 35.65-.47 69.71 2.48 101.49 8.82 8.26 1.65 17 3.59 24.97 7.48 2.38 1.16 5.27 2.82 6.55 5.38 1.67 3.36.23 7.5-1.94 10.11-2.64 3.18-6.61 5.18-10.12 6.81-18.06 8.36-38.13 13.15-57.53 17.79-27.82 6.65-56.59 13.53-79.76 31.03-5.14 3.89-9.92 10.45-6.47 16.14 1.93 3.19 5.53 4.34 9.13 5.12 19.61 4.2 39.95 4.48 59.62 4.75 17.52.23 35.65.48 53.07 3.53 12.93 2.26 20.87 6.63 24.28 13.37.77 1.52 1.31 3.17 1.88 4.92.72 2.17 1.45 4.42 2.68 6.51 4.93 8.37 15.38 10.71 22.8 11.75 22.05 3.07 44.56.68 66.32-1.62 4.21-.45 8.42-.89 12.62-1.3 23.25-2.26 47.69-3.29 70.2 3.55v-2.08c.1.02.2.05.29.08-.1-.03-.19-.06-.29-.09zm-55.5-115.46c-.01.03-.01.06-.01.09-.03.01-.06.01-.09.02-4.74 1.59-9.66 2.42-14.65 2.47.24-9.64.34-19.42.32-29.07 1.06-1.29 1.87-2.71 2.54-4.18.03.12.06.24.09.36.17.73.34 1.46.55 2.17 1.15 4.01 3.4 6.62 6.33 7.34.54.13 1.07.19 1.59.19.56 0 1.11-.07 1.64-.2-.09 3.35.42 6.65.92 9.87.6 3.8 1.16 7.39.77 10.94zm-23.8-116.49c4.8-8.62 9.4-16.49 14.06-24.07l.11-.18c1.9-3.1 2.81-4.25 4.97-3.91 3.09.47 4.95 3.56 6.5 6.82 4.25 8.95 7.91 18.39 11.44 27.53l21.67 55.98c2.21 5.71 4.71 12.19 3.75 18.46-.53 3.42-2.79 7.1-5.93 7.2h-.13c-3.05 0-5.49-3.33-6.58-6.67-.26-.83-1.03-1.39-1.9-1.39s-1.64.56-1.9 1.39c-1.05 3.23-2.8 7.59-5.99 8.07-1.65.25-3.62-.68-5.04-2.37-1.48-1.77-2.36-4.12-3.21-6.39-.28-.74-.97-1.25-1.77-1.29-.79-.05-1.54.39-1.89 1.1-.69 1.39-1.17 2.82-1.63 4.2-.5 1.48-.97 2.87-1.65 4.12-1.05 1.9-3.17 3.67-5.04 3.2-2.08-.51-3.1-3.35-3.45-4.56-.18-.65-.34-1.31-.5-1.98-.5-2.1-1.01-4.26-2.35-6.21-.37-.54-.99-.86-1.64-.86-.1 0-.19.01-.28.02-.75.1-1.38.62-1.62 1.34-1.01 3.02-2.16 6.44-4.42 8.71-1.87 1.87-5.09 2.95-7.25 1.5-2.34-1.57-2.61-5.39-2.56-8.91.01-.74-.39-1.42-1.04-1.78-.65-.35-1.44-.32-2.06.08-2.21 1.44-4.05 3.26-5.83 5.01-1.45 1.44-2.83 2.8-4.37 3.94-2.9 2.15-7.28 3.47-10.03 1.3-2.19-1.74-2.85-5.15-2.05-10.74 1.34-9.4 3.68-19.18 6.95-29.07 4.96-15 12.16-30.76 22.66-49.59zm-4.37-.36c-10.15 18.36-17.19 33.88-22.09 48.69-.85 2.58-1.64 5.16-2.37 7.72-6.45-.46-12.78.66-18.91 1.76-2.2.39-4.42.79-6.63 1.19-6.11-5.4-13.21-9.4-19.41-12.73-16.65-8.93-34-16.6-51.84-22.99 38.85-14.96 79.61-22.91 121.25-23.64zm-161.69-14.09c24.37-4.91 45.65-6.48 65.06-4.79 21.51 1.86 41.31 7.95 57.58 17.66-29.9 3.79-59.18 11.35-87.43 22.59-.18.07-.34.17-.48.28-27.15-9.25-55.36-15.52-83.89-18.68 16.25-9.56 34.62-14.13 49.16-17.06zm-223.87 110.98c-2.49.8-5.06 1.25-7.7 1.35.13-5.67.19-11.4.18-17.07.21-.27.4-.54.58-.82.82 2.62 2.38 4.33 4.41 4.83.4.1.79.14 1.17.14.09 0 .18-.02.27-.02.03 1.84.31 3.64.58 5.4.34 2.16.66 4.21.51 6.19zm24.08-21.94c-.29 1.85-1.48 3.8-2.97 3.85-1.51.06-2.86-1.85-3.44-3.64-.27-.82-1.04-1.38-1.9-1.38-.87 0-1.64.56-1.91 1.38-.93 2.9-1.92 4.33-3.12 4.52-.77.11-1.74-.38-2.45-1.22-.84-1-1.36-2.4-1.87-3.76-.28-.74-.97-1.25-1.77-1.29-.78-.04-1.54.39-1.89 1.1-.46.91-.76 1.83-1.06 2.71-.3.89-.58 1.73-.97 2.45-.59 1.06-1.62 1.79-2.3 1.62-.62-.15-1.24-1.04-1.6-2.31-.12-.4-.21-.8-.31-1.2-.31-1.31-.66-2.8-1.57-4.12-.38-.55-1-.87-1.65-.87-.09 0-.18.01-.28.02-.75.11-1.37.63-1.62 1.34-.63 1.89-1.29 3.85-2.57 5.13-.93.94-2.58 1.5-3.56.85-1.16-.78-1.29-2.92-1.26-4.92.01-.73-.39-1.42-1.04-1.77-.65-.36-1.44-.33-2.06.07-1.44.94-2.61 2.1-3.75 3.22-.89.88-1.72 1.71-2.64 2.38-1.63 1.21-3.99 1.88-5.33.83-1.12-.89-1.45-2.85-1-5.99.83-5.82 2.27-11.87 4.3-17.98 3.07-9.3 7.54-19.07 14.06-30.77 2.99-5.36 5.85-10.26 8.74-14.96l.07-.12c1.16-1.89 1.52-2.21 2.34-2.08 1.58.24 2.6 1.98 3.48 3.83 2.64 5.55 4.91 11.41 7.11 17.1l13.49 34.87c1.35 3.47 2.87 7.4 2.3 11.11zm-2.26-23.04c-.12-.01-.24.01-.36.02l-9.45-24.42c-.97-2.52-1.97-5.07-3-7.63 17.59-7.24 36.82-9.29 55.59-10.99-1.49 2.59-2.99 5.23-4.51 7.97-8.07 14.47-13.99 26.96-18.36 38.74-6.42-2.24-13.1-3.49-19.91-3.69zm62.68 71c-4.11 1.37-8.38 2.1-12.78 2.18.21-8.53.3-17.18.28-25.73.8-1 1.45-2.09 2-3.2.13.57.27 1.14.43 1.7 1.05 3.66 3.12 6.05 5.82 6.71.5.13 1 .18 1.48.18.43 0 .84-.05 1.25-.13-.05 2.93.39 5.8.83 8.61.53 3.37 1.03 6.55.69 9.68zm34.64-32.05c-.46 2.97-2.4 6.18-5.1 6.26-.03 0-.07.01-.11.01-2.62 0-4.74-2.91-5.69-5.83-.27-.83-1.04-1.39-1.9-1.39-.87 0-1.64.56-1.9 1.39-1.46 4.51-3.11 6.76-5.19 7.08-1.41.21-3.1-.59-4.33-2.05-1.3-1.55-2.08-3.64-2.83-5.65-.28-.75-.98-1.26-1.77-1.3-.81-.04-1.54.39-1.9 1.1-.62 1.26-1.05 2.54-1.47 3.79-.44 1.31-.86 2.55-1.46 3.65-.9 1.63-2.71 3.15-4.28 2.77-1.75-.43-2.63-2.9-2.93-3.94-.17-.58-.31-1.17-.45-1.77-.45-1.89-.91-3.85-2.13-5.62-.38-.55-1-.86-1.65-.86-.09 0-.18 0-.28.01-.75.11-1.37.63-1.61 1.35-.91 2.68-1.93 5.72-3.91 7.71-1.58 1.58-4.41 2.54-6.23 1.32-2.01-1.35-2.24-4.7-2.2-7.8.01-.74-.39-1.42-1.04-1.78-.64-.35-1.43-.32-2.05.08-2 1.3-3.66 2.94-5.26 4.52-1.3 1.28-2.52 2.49-3.89 3.5-2.62 1.93-6.45 2.96-8.72 1.16-1.9-1.5-2.46-4.49-1.76-9.41 1.2-8.41 3.29-17.15 6.21-25.99 4.44-13.41 10.88-27.51 20.27-44.36 4.3-7.72 8.42-14.77 12.58-21.55l.1-.16c1.68-2.74 2.45-3.68 4.24-3.4 2.67.41 4.3 3.12 5.66 5.99 3.81 8.02 7.08 16.46 10.24 24.63l19.4 50.12c1.97 5.09 4.2 10.86 3.34 16.42zm127.98-9.86c-30.85-4.36-63.52-5.76-97.47-4.16-.1.01-.2.03-.3.05-9.33-1.32-18.81-2.33-28.69-3.07-.27-.01-.53.02-.77.1-.12-.31-.24-.62-.36-.92l-19.39-50.12c-2.09-5.4-4.25-10.91-6.56-16.36 75.5-7.71 153.81 7.76 220.68 43.63 5.17 2.78 10.96 6.03 16.16 10.13-27.71 5.04-55.97 10.71-82.8 20.44-.19.07-.35.17-.5.28z"/><path d="m321.92 103.575c6.08.98 12.19 1.06 18.11 1.14 2.52.03 5.12.07 7.68.17 11.89.49 22.45.76 32.27.85 3.14.03 6.31.04 9.54.04 16.27 0 33.91-.35 55.75-1.11 12.04-.42 24.17-.91 35.89-1.39 1.14-.05 2.55-.11 3.89-.79 2-1.02 3.33-3.2 3.64-5.98.47-4.2-1.28-8.7-4.69-12.04-2.67-2.62-6.35-4.6-10.94-5.89-10.54-2.96-21.64-1.49-31.7.18 1.17-6.4 2.21-12.97 1.95-19.63-.27-7.27-2.12-14.55-5.34-21.07-3.4-6.87-8.04-12.07-13.4-15.05-4.6-2.55-10.27-3.81-16.88-3.76-5.74.05-10.93 1.06-15.42 3-7.55 3.26-13.69 9.48-16.86 17.07-2.24 5.36-2.94 11.31-2.11 17.03-3.71-2.44-8.23-3.78-12.92-3.74-6.53.09-13.3 2.94-18.56 7.81-3.7 3.43-6.17 7.41-7.13 11.49-.87 3.73-.41 7.59 1.17 10.72-6.54 1.3-12.7 4.42-17.6 8.98-2.82 2.63-3.84 5.44-2.88 7.91 1.26 3.21 5.1 3.83 6.54 4.06zm-.93-9.04c5.06-4.71 11.63-7.7 18.51-8.42.75-.08 1.39-.57 1.66-1.28.27-.7.12-1.49-.39-2.05-2.21-2.45-3.05-6.26-2.18-9.97.98-4.17 3.78-7.45 5.95-9.47 4.54-4.21 10.34-6.66 15.9-6.74h.26c5.89 0 11.5 2.72 14.68 7.13.59.82 1.69 1.07 2.58.59.88-.48 1.27-1.54.9-2.48-2.61-6.7-2.53-14.35.24-20.99s8.15-12.08 14.75-14.94c4-1.73 8.67-2.62 13.88-2.67 5.88-.05 10.91 1.05 14.9 3.26 4.65 2.58 8.71 7.19 11.75 13.33 2.98 6.01 4.68 12.73 4.94 19.44.27 7.2-1.09 14.5-2.41 21.56-.12.64.08 1.3.54 1.77s1.12.68 1.76.57c10.36-1.75 22.09-3.74 32.77-.75 3.93 1.1 7.04 2.75 9.22 4.89 2.54 2.49 3.85 5.75 3.51 8.74-.12 1.08-.57 2.4-1.48 2.87-.56.28-1.41.32-2.23.35-11.72.48-23.84.98-35.87 1.39-26.11.91-46.19 1.23-65.11 1.07-9.79-.09-20.3-.36-32.15-.84-2.61-.11-5.24-.15-7.79-.18-5.77-.08-11.74-.15-17.52-1.09-2.01-.32-3.17-.85-3.45-1.57-.38-.96.72-2.45 1.88-3.52z"/><path d="m458.05 410.315c-2.88-2.57-6.15-5.49-10.35-6.72-4.39-1.28-9.32-.67-15.51 1.92-6 2.52-11.58 6-16.59 10.35-8.81 7.66-12.66 13.84-11.43 18.36.8 2.97 3.6 4.93 8.31 5.81 6.31 1.18 12.93 1.6 19.27 1.6 7.95 0 15.46-.66 21.38-1.29 4.59-.5 9.5-1.2 14.23-2.93 1.38-.51 2.8-1.16 3.82-2.44 1.56-1.97 1.7-4.75.41-8.04-2.76-7-8.49-12.11-13.54-16.62zm9.99 22.17c-.4.51-1.23.87-2.06 1.17-4.32 1.59-8.94 2.24-13.28 2.71-10.39 1.12-25.78 2.3-39.48-.26-2.11-.4-4.73-1.23-5.19-2.93-.75-2.75 3.06-8.09 10.19-14.29 4.69-4.07 9.91-7.33 15.51-9.68 3.62-1.51 6.66-2.25 9.33-2.25 1.24 0 2.41.16 3.51.48 3.34.98 6.25 3.58 8.82 5.87 4.72 4.21 10.07 8.98 12.48 15.1.34.86 1.04 2.99.17 4.08z"/><path d="m306.4 193.915c1.07.54 2.19.59 3 .62 8.31.34 16.9.69 25.46.99 15.48.54 27.99.79 39.54.79 2.29 0 4.54-.01 6.77-.03 6.96-.06 14.45-.26 22.9-.6 1.81-.08 3.65-.1 5.44-.12 4.21-.06 8.57-.12 12.92-.82 1-.16 4.07-.66 5.08-3.24.78-1.99 0-4.21-2.19-6.25-3.37-3.13-7.56-5.33-12.04-6.36.93-2.2 1.15-4.8.57-7.31-.71-3.01-2.52-5.93-5.23-8.44-3.83-3.56-8.77-5.63-13.55-5.69-2.98-.05-5.93.72-8.45 2.12.36-3.79-.2-7.66-1.68-11.19-2.3-5.52-6.76-10.04-12.25-12.41-3.26-1.41-7.02-2.14-11.17-2.18-4.81-.05-8.9.88-12.25 2.74-3.91 2.17-7.27 5.94-9.74 10.92-2.32 4.7-3.65 9.94-3.85 15.17-.17 4.51.47 8.93 1.24 13.24-6.97-1.13-14.6-2.03-21.9.02-3.36.94-6.05 2.39-8.02 4.32-2.54 2.49-3.84 5.86-3.49 9.02.24 2.17 1.3 3.88 2.89 4.69zm3.4-10.86c1.48-1.45 3.6-2.56 6.3-3.32 2.76-.78 5.64-1.07 8.54-1.07 4.9 0 9.86.84 14.43 1.62.65.1 1.31-.11 1.76-.57.46-.47.66-1.13.54-1.77-.92-4.98-1.88-10.12-1.69-15.16.17-4.68 1.36-9.36 3.44-13.55 2.1-4.25 4.9-7.43 8.09-9.2 2.74-1.52 6.2-2.29 10.28-2.24 3.61.03 6.85.65 9.61 1.85 4.55 1.96 8.25 5.71 10.15 10.28 1.91 4.57 1.97 9.83.17 14.45-.37.93.02 2 .91 2.48.88.48 1.99.23 2.57-.59 2.15-2.98 5.95-4.81 9.94-4.81h.18c3.8.05 7.76 1.73 10.88 4.62 1.48 1.38 3.39 3.61 4.05 6.42.57 2.44.03 4.95-1.41 6.54-.51.56-.66 1.36-.39 2.06s.91 1.2 1.66 1.28c4.75.49 9.29 2.56 12.79 5.81.97.9 1.28 1.63 1.19 1.86-.02.04-.23.47-2 .75-4.06.66-8.08.71-12.33.77-1.82.02-3.69.05-5.55.12-8.41.34-15.86.54-22.77.6-13.41.12-27.64-.12-46.14-.76-8.55-.29-17.13-.64-25.43-.98-.5-.02-1.06-.05-1.35-.19-.35-.18-.65-.82-.73-1.58-.22-1.91.67-4.1 2.31-5.72z"/><path d="m346.12 383.415c-2.72-2.43-5.8-5.18-9.79-6.35-4.15-1.21-8.82-.64-14.67 1.81-5.66 2.37-10.92 5.66-15.65 9.76-8.33 7.24-11.97 13.1-10.8 17.41.78 2.84 3.44 4.71 7.92 5.55 5.95 1.11 12.19 1.51 18.16 1.51 7.49 0 14.56-.62 20.14-1.22 4.33-.47 8.95-1.13 13.42-2.77 1.32-.48 2.67-1.09 3.65-2.33 1.5-1.89 1.63-4.54.4-7.68-2.61-6.62-8.01-11.44-12.78-15.69zm9.25 20.88c-.37.46-1.13.79-1.9 1.07-4.06 1.49-8.39 2.1-12.47 2.54-9.77 1.05-24.25 2.17-37.13-.24-1.96-.37-4.38-1.13-4.8-2.67-.53-1.97 1.7-6.5 9.57-13.34 4.4-3.82 9.3-6.88 14.56-9.09 3.39-1.41 6.24-2.11 8.73-2.11 1.17 0 2.25.15 3.28.45 3.12.91 5.85 3.35 8.25 5.5 4.44 3.95 9.46 8.43 11.72 14.17.31.79.96 2.75.19 3.72z"/><path d="m272 451.465c-1.71-1.52-3.83-3.42-6.53-4.21-3.71-1.08-7.4.16-9.85 1.19-3.69 1.54-7.12 3.68-10.19 6.35-5.63 4.89-7.96 8.76-7.12 11.85.57 2.1 2.46 3.47 5.62 4.06 3.85.72 7.87.98 11.73.98 4.81 0 9.36-.4 12.93-.78 2.82-.31 5.83-.74 8.75-1.81.89-.33 1.91-.79 2.64-1.72 1.11-1.4 1.24-3.39.37-5.62-1.73-4.38-5.4-7.66-8.35-10.29zm4.85 13.42c-.09.12-.39.27-.89.46-2.52.92-5.23 1.3-7.79 1.58-6.2.66-15.37 1.37-23.5-.15-1.7-.32-2.41-.83-2.5-1.18-.2-.75.77-3.34 5.88-7.78 2.76-2.4 5.82-4.31 9.11-5.68 2.07-.87 3.8-1.3 5.29-1.3.68 0 1.31.09 1.89.26 1.84.54 3.52 2.03 5 3.35 2.77 2.48 5.91 5.28 7.29 8.78.37.95.33 1.52.22 1.66z"/><path d="m30.21 170.565c8.45 1.36 16.99 1.48 25.24 1.58 3.54.05 7.2.1 10.79.25 16.65.67 31.43 1.06 45.19 1.18 4.4.04 8.83.06 13.35.06 22.78 0 47.49-.5 78.08-1.56 16.69-.57 33.66-1.27 50.06-1.94l.23-.01c1.51-.06 3.4-.14 5.12-1.02 2.56-1.3 4.26-4.13 4.66-7.75.64-5.64-1.73-11.7-6.33-16.21-3.64-3.57-8.68-6.28-14.99-8.05-14.99-4.2-30.88-1.93-45.18.46 1.71-9.27 3.29-18.81 2.93-28.46-.39-10.06-2.95-20.15-7.41-29.18-4.7-9.48-11.07-16.66-18.45-20.75-6.32-3.5-14.16-5.22-23.25-5.16-7.93.07-15.1 1.46-21.3 4.14-10.38 4.48-18.83 13.04-23.19 23.48-3.33 7.97-4.19 16.87-2.58 25.32-5.32-4.01-12.16-6.31-19.2-6.2-8.97.12-18.25 4.03-25.47 10.72-5.08 4.71-8.46 10.14-9.76 15.7-1.27 5.43-.46 11.05 2.09 15.42-9.43 1.66-18.32 6.06-25.34 12.59-3.7 3.44-5.06 7.06-3.84 10.19 1.43 3.65 5.56 4.72 8.55 5.2zm-1.99-12.47c7.22-6.71 16.6-10.97 26.4-12 .75-.08 1.39-.57 1.66-1.28.27-.7.12-1.5-.39-2.05-3.27-3.62-4.52-9.24-3.24-14.69 1.12-4.78 4.08-9.51 8.57-13.67 6.51-6.03 14.82-9.55 22.81-9.66h.37c8.52 0 16.62 3.93 21.22 10.33.59.81 1.7 1.07 2.58.58.89-.48 1.28-1.54.91-2.48-3.74-9.58-3.62-20.52.34-30.01s11.65-17.27 21.09-21.35c5.71-2.47 12.35-3.75 19.75-3.81 8.45-.09 15.56 1.49 21.27 4.66 6.66 3.7 12.47 10.27 16.8 19.02 4.22 8.53 6.64 18.06 7 27.56.38 10.19-1.53 20.46-3.39 30.4-.12.64.09 1.3.54 1.77.46.46 1.12.67 1.76.56 14.6-2.47 31.14-5.27 46.26-1.03 5.65 1.59 10.12 3.96 13.27 7.06 3.73 3.65 5.65 8.48 5.16 12.9-.25 2.23-1.19 3.97-2.51 4.64-.94.48-2.22.53-3.46.58l-.23.01c-16.4.67-33.36 1.37-50.04 1.95-36.6 1.26-64.74 1.73-91.25 1.49-13.72-.12-28.46-.5-45.07-1.18-3.64-.15-7.33-.2-10.89-.25-8.12-.1-16.51-.21-24.67-1.53-3.2-.52-4.93-1.38-5.45-2.71-.82-2.09 1.71-4.76 2.83-5.81z"/><path d="m138.71 456.705c-6.51.81-12.33 4.01-16.15 6.35-4.78 2.94-9.24 6.3-13.36 10.03-10.13-7.55-23.95-8.63-33.51-2.42-5.07 3.3-8.71 8.32-11.93 12.75-.59.82-1.7 2.34-1.3 4.22.49 2.36 2.88 3.24 3.78 3.58 7.56 2.79 15.63 4.22 23.7 4.22 2.69 0 5.38-.16 8.06-.48.09-.01.17-.04.26-.06 1.12.78 2.35 1.2 3.13 1.46 11.39 3.71 23.84 5.55 37.64 5.55 8.09 0 16.66-.63 25.75-1.9 3.32-.47 6.54-1.02 9.45-2.68 3.6-2.04 5.82-5.5 5.8-9.02-.01-3-1.53-5.53-3.18-7.81-16.37-22.77-30.92-24.68-38.14-23.79zm-40.61 28.49c-.74.96-2.52 3.32-2.22 5.93-9.53.9-19.27-.34-28.26-3.67-.96-.35-1.21-.6-1.24-.6 0-.12.12-.4.62-1.09 3.16-4.35 6.42-8.85 10.87-11.74 8.02-5.21 19.63-4.36 28.39 1.85-2.92 2.9-5.64 6.01-8.16 9.32zm74.16 8.66c-2.3 1.3-5.11 1.78-8.03 2.18-23.96 3.35-44.11 2.21-61.61-3.49-1.1-.36-2.41-.87-2.7-1.62-.26-.67.2-1.78 1.36-3.31 6.45-8.46 14.31-15.58 23.38-21.15 3.49-2.14 8.8-5.08 14.54-5.79 15.31-1.88 29.17 14.86 34.4 22.15 1.26 1.75 2.42 3.62 2.43 5.5.01 2.04-1.47 4.21-3.77 5.53z"/><path d="m147.12 392.115c-4.59-.54-9.57.5-14.41 2.98-2.46 1.27-16.18 11.16-15.09 18.09.27 1.71 1.5 3.91 5.84 4.62 6.86 1.11 14.31 1.68 21.58 1.68 6 0 11.88-.39 17.19-1.16 4.1-.6 6.64-2.53 6.96-5.3.21-1.74-.61-3.29-1.04-4.12-5.11-9.7-12.78-15.82-21.03-16.79zm18.1 20.44c-.1.9-1.87 1.56-3.57 1.81-11.36 1.66-25.4 1.47-37.55-.51-.72-.12-2.4-.48-2.53-1.3-.17-1.05 1.01-3.63 4.85-7.46 3.23-3.21 6.75-5.74 8.12-6.44 2.88-1.48 7.32-3.13 12.11-2.57 9.84 1.15 15.83 10.65 17.96 14.68.23.45.67 1.29.61 1.79z"/></svg>