<svg id="Capa_1" enable-background="new 0 0 512 512" height="512" viewBox="0 0 512 512" width="512" xmlns="http://www.w3.org/2000/svg"><path d="m511.87 453.09c.04-.01.09-.02.13-.04v58.95h-512v-59.52c.54.09 1.08.17 1.62.24.07.02.14.03.22.03.55.07 1.09.13 1.64.19.59.06 1.19.12 1.79.17 1.16.09 2.33.15 3.5.19.04 0 .08.01.11 0 .6.01 1.2.02 1.81.02.49 0 .97 0 1.46-.01s.97-.02 1.45-.05c.49-.02.97-.04 1.46-.07.48-.03.96-.07 1.44-.11.31-.02.61-.05.91-.08s.59-.06.89-.09c.51-.05 1.01-.12 1.51-.18 10.6-1.36 20.72-5.09 29.44-10.89.47-.31.94-.63 1.4-.95.02-.01.04-.03.06-.04.33-.23.65-.46.97-.7.27-.2.55-.4.81-.59.07-.05.13-.1.2-.15.45-.35.9-.7 1.34-1.05l1.08-.83 1.14 2.02c.42.74.87 1.47 1.36 2.17.3.46.62.9.96 1.34.33.44.67.86 1.03 1.28.34.42.7.84 1.09 1.24.49.54 1.02 1.07 1.56 1.56.27.26.53.51.81.74.27.25.55.48.84.71.37.32.76.62 1.15.91.49.36.99.72 1.5 1.06.15.1.31.2.46.3s.31.2.47.3c.62.39 1.26.76 1.91 1.11.54.29 1.09.57 1.65.82.06.03.12.06.18.09.311.14.62.28.93.41.22.1.44.19.66.27.25.1.5.2.76.29.16.07.33.13.49.18.39.14.78.27 1.17.39.26.08.52.16.78.23.33.09.66.18.99.26.31.08.61.15.92.21.42.1.84.18 1.27.25.03.01.07.01.1.02.24.04.47.08.71.11.34.05.68.1 1.02.13.67.08 1.35.13 2.03.16.21.01.41.01.62.01.11 0 .21.01.31.01.11.01.22.01.32.01.71 0 1.42-.02 2.13-.08.71-.04 1.42-.12 2.13-.22.63-.08 1.26-.19 1.89-.32.04 0 .08-.01.12-.02.17-.03.34-.07.51-.11l.78-.18c.69-.17 1.37-.36 2.04-.58.62-.19 1.23-.41 1.84-.64.35-.13.7-.27 1.04-.42.189-.08.39-.17.58-.25.36-.16.71-.33 1.06-.5.29-.14.58-.29.87-.44s.58-.3.86-.46c.85-.48 1.68-1 2.49-1.55.27-.19.53-.37.8-.56.26-.19.53-.39.79-.59.51-.39 1.01-.8 1.5-1.24.25-.2.5-.42.74-.65.48-.44.94-.9 1.39-1.37 0-.01 0-.01 0-.01.46-.47.89-.95 1.31-1.45.21-.25.42-.51.62-.76.21-.26.41-.52.6-.78.19-.25.38-.51.56-.77.12-.17.24-.34.35-.51l1.15-1.63 1.49 1.73c.1.12.21.25.32.37.27.32.55.64.84.95.42.46.85.91 1.3 1.36.28.28.57.56.86.85h.01c.38.37.77.73 1.17 1.07 6 5.31 13.35 8.88 21.19 10.31.38.07.77.13 1.15.19.37.06.74.11 1.11.16.2.02.4.05.61.07.3.04.6.07.9.1.37.04.75.07 1.13.09.37.02.75.04 1.13.06.19.01.39.02.58.02.38.02.76.02 1.14.02h.01c.32 0 .64 0 .97-.01.32-.01.64-.03.96-.04.1 0 .2 0 .29-.01.35-.02.7-.04 1.05-.07l.42-.03c.06-.01.13-.01.19-.02.39-.03.78-.07 1.16-.12.17-.02.34-.04.5-.06.539-.07 1.07-.15 1.6-.24 7.96-1.32 15.47-4.82 21.58-10.11.29-.25.58-.51.87-.77.28-.26.57-.52.84-.79.56-.53 1.1-1.08 1.63-1.64l.79-.82.84.62c.28.21.56.43.85.64.77.57 1.539 1.12 2.31 1.65.1.07.2.14.3.2.29.2.58.4.87.59.27.18.54.35.8.52.33.21.65.42.98.62.22.13.43.26.65.38.441.28.88.53 1.32.78.1.07.2.12.309.18.41.24.83.46 1.25.68.23.13.45.25.68.36.5.26.99.51 1.48.74.58.29 1.16.56 1.74.8.05.03.1.05.15.07.03.01.07.03.1.04.24.11.47.2.71.3.08.03.15.07.23.1.29.12.57.24.85.34.03.01.05.02.08.03.21.08.43.16.64.24.32.13.64.24.96.35.28.1.55.2.83.28.59.2 1.19.38 1.78.55.37.11.75.21 1.12.31.67.17 1.34.32 2.01.46.44.1.88.18 1.32.25.12.02.23.04.35.06.48.08.95.15 1.43.21.05.01.09.01.14.02.5.06 1.01.11 1.51.15.03.01.06.01.09.01.94.08 1.9.12 2.85.12 1.18 0 2.35-.06 3.5-.18.2-.02.39-.04.58-.06h.03c.22-.03.45-.06.67-.09.59-.08 1.17-.18 1.75-.29.57-.12 1.14-.24 1.71-.38.38-.1.75-.2 1.12-.3.3-.08.6-.17.89-.27.88-.27 1.74-.58 2.58-.93.28-.12.56-.24.83-.36.28-.12.55-.25.82-.38.27-.12.54-.26.8-.4.27-.14.53-.28.79-.42.26-.15.52-.3.77-.45.25-.14.51-.3.75-.46.23-.15.46-.29.68-.45.13-.08.25-.17.37-.26.15-.1.29-.2.43-.31.23-.15.45-.32.67-.5.26-.2.51-.4.75-.61.521-.43 1.021-.88 1.49-1.35.17-.17.35-.35.52-.53.18-.19.36-.38.53-.57.17-.2.34-.39.51-.59l.47-.55c.01-.02.03-.04.05-.06s.03-.04.05-.06l.9-1.07 1.539 1.68c.08.09.17.18.26.27.13.15.27.29.42.44.19.21.39.4.59.58l.04.04c.17.17.34.33.51.48.16.16.33.31.5.44.02.02.04.04.06.05.16.16.32.29.48.42.01.01.02.02.03.02.34.29.69.56 1.04.82.21.17.42.32.63.46.21.16.42.3.64.45.98.67 2 1.27 3.06 1.8 1.77.92 3.64 1.67 5.61 2.23.26.09.52.17.79.23.26.07.53.14.8.2.24.06.479.12.72.17.83.19 1.68.34 2.54.46.24.04.48.08.73.1.03 0 .07.01.1.01h.02c.27.04.55.07.83.1 1.1.1 2.211.16 3.311.16 3.93 0 7.7-.66 11.16-1.93 3.46-1.26 6.61-3.12 9.27-5.52l.21-.19c.2-.18.42-.37.64-.56.12-.11.25-.21.37-.32.89-.75 1.86-1.43 2.95-1.63.22-.04.44-.06.66-.06.12 0 .24.01.36.02h.02c.16.02.31.05.46.09.02 0 .04.01.06.01.12.04.23.08.35.12.02.01.04.01.06.02.27.11.53.25.79.42.07.04.15.09.23.15.15.1.29.21.43.32s.28.23.42.35c.24.2.47.41.69.62l.07.07.09.08c6.78 6.27 16.78 10.16 26.1 10.16 3.48 0 7.92-.54 12.25-2.54.3-.15.59-.29.87-.44.26-.13.51-.27.76-.41.21-.12.42-.24.63-.36s.42-.25.62-.39c.16-.11.33-.22.49-.33.18-.12.36-.24.54-.37.28-.2.55-.41.82-.62.2-.16.39-.32.59-.49.19-.16.39-.33.58-.5.01-.01.01-.01.02-.02.17-.16.35-.32.52-.49.22-.19.42-.4.63-.62l.17-.18.07-.07.21-.22c.18-.19.36-.38.56-.57l.6-.6c.21-.2.41-.39.62-.57.211-.18.43-.36.65-.52.22-.17.45-.33.68-.45.12-.07.23-.13.35-.19.23-.11.47-.21.71-.28.13-.04.25-.07.38-.1.24-.05.49-.08.75-.08h.04c.15 0 .3.01.439.02.311.04.6.11.88.22.1.03.19.07.29.12.18.08.37.18.55.29.17.1.34.22.51.35.32.24.64.51.94.8.16.15.31.3.47.46.15.15.29.3.43.45l.16.16c.12.13.25.25.38.38.13.12.25.24.37.37.01 0 .02.01.03.02.5.5 1.01.97 1.54 1.43.01 0 .02.01.02.01.53.47 1.07.91 1.63 1.35.46.35.92.7 1.4 1.04.4.28.8.56 1.211.83.01 0 .01.01.02.01.75.5 1.52.97 2.3 1.41.39.22.79.44 1.19.65s.8.42 1.21.62c.33.16.66.32.99.46.24.11.479.22.72.32.45.21.9.39 1.35.57.28.11.57.22.86.33.73.28 1.47.54 2.22.77 1.04.33 2.1.63 3.17.88.44.11.88.21 1.32.3.32.07.63.13.95.19.37.08.74.14 1.12.2.75.13 1.5.23 2.26.32.38.05.76.09 1.14.12.27.03.54.05.81.07.35.03.71.05 1.06.07.461.03.92.05 1.38.06.45.01.91.02 1.37.02h.01c.49 0 .98-.01 1.47-.02h.08c.74-.03 1.47-.06 2.2-.12.1 0 .21-.01.31-.02.09-.01.19-.02.28-.03.26-.02.51-.04.76-.07.31-.03.61-.06.91-.1.229-.02.45-.05.68-.09.27-.03.53-.07.8-.11.25-.03.5-.07.75-.12.37-.06.73-.13 1.1-.2.36-.07.73-.14 1.09-.22s.73-.16 1.09-.25c.59-.14 1.17-.29 1.75-.45 3.46-.97 6.75-2.31 9.8-3.99.51-.27 1.01-.57 1.51-.87.59-.36 1.17-.73 1.74-1.11.31-.21.61-.42.92-.64.29-.21.58-.42.86-.63.53-.4 1.06-.82 1.57-1.24.03-.02.05-.04.08-.07.52-.44 1.03-.89 1.53-1.35.53-.49 1.03-.99 1.53-1.51l1.35-1.4.99.9.45.41c.2.18.41.34.61.52.33.28.66.57.99.84.16.13.32.26.48.39.07.06.15.11.22.16 0 .01.01.01.01.01.08.05.16.11.23.17.32.26.65.49.98.72.3.23.61.44.92.64.38.25.76.49 1.15.74.5.3 1 .59 1.51.87.25.14.51.28.77.42.52.27 1.04.52 1.57.77.27.13.53.24.8.36.81.36 1.62.68 2.45.98 1.65.59 3.34 1.07 5.07 1.44.28.06.57.12.86.17s.57.11.86.15c.27.05.54.09.81.13.05.01.1.02.15.02.26.04.52.07.79.1.29.03.58.07.87.09.23.03.45.05.68.06.3.03.61.05.92.06.63.03 1.26.05 1.9.05.98 0 1.97-.04 2.94-.12.97-.07 1.93-.19 2.88-.34 1.11-.18 2.21-.41 3.3-.7.36-.1.72-.2 1.08-.3.36-.11.72-.22 1.08-.33.69-.22 1.38-.47 2.05-.74.36-.14.73-.29 1.09-.44.35-.15.69-.3 1.03-.46.71-.33 1.42-.69 2.11-1.06.03-.01.06-.03.08-.04.27-.15.54-.3.79-.45.54-.31 1.07-.63 1.59-.97.52-.33 1.03-.68 1.54-1.04.28-.19.55-.39.82-.6.39-.29.76-.58 1.14-.89.54-.43 1.06-.88 1.57-1.34.34-.3.66-.6.98-.92.39-.37.77-.76 1.14-1.15.21-.21.41-.43.61-.65.03-.03.07-.07.1-.11.53-.59 1.04-1.2 1.54-1.83.22-.27.43-.55.64-.84.25-.33.49-.66.72-1 .04-.06.09-.12.13-.19.11-.15.21-.31.31-.47.26-.38.51-.77.75-1.17l1.57-2.55 1.48 2.23.25.39c.1.15.2.3.3.44.22.33.46.65.7.97.02.03.05.07.07.1s.04.06.07.09c.2.26.4.52.61.77s.42.5.64.75c6.06 6.92 15.52 11.23 25.11 11.23 2.19 0 4.31-.22 6.36-.66.3-.06.6-.13.89-.21.461-.12.921-.24 1.381-.38z" fill="#1687cb"/><path d="m512 388.03v65.02c-.04.02-.09.03-.13.04-.46.14-.92.26-1.38.38-.29.08-.59.15-.89.21-2.09.47-4.25.7-6.47.7-9.69 0-19-4.33-25-11.27-.22-.25-.43-.5-.64-.75s-.41-.51-.61-.77c-.03-.03-.05-.06-.07-.09s-.05-.07-.07-.1c-.24-.32-.48-.64-.7-.97-.19-.27-.37-.55-.55-.83-.53-.83-1.01-1.7-1.45-2.59-.49 1-1.02 1.97-1.6 2.91-.24.4-.49.79-.75 1.17-.1.16-.2.32-.31.47-.04.07-.09.13-.13.19-.23.34-.47.67-.72 1-.211.29-.42.57-.64.84-.5.63-1.01 1.24-1.54 1.83-.03.04-.07.08-.1.11-.2.22-.4.44-.61.65-.37.39-.75.78-1.14 1.15-.32.32-.64.62-.98.92-.51.46-1.03.91-1.57 1.34-.38.31-.75.6-1.14.89-.27.21-.54.41-.82.6-.51.36-1.021.71-1.54 1.04-.52.34-1.05.66-1.59.97-.25.15-.52.3-.79.45-.02.01-.05.03-.08.04-.69.37-1.4.73-2.11 1.06-.34.16-.68.31-1.03.46-.36.15-.73.3-1.09.44-.68.27-1.36.51-2.05.74-.36.11-.72.22-1.08.33-.36.1-.72.2-1.08.3-1.09.28-2.19.51-3.3.69-.95.15-1.91.27-2.88.35s-1.96.12-2.94.12c-.64 0-1.27-.02-1.9-.05-.311-.01-.62-.03-.92-.06-.23-.01-.45-.03-.68-.06-.29-.02-.58-.06-.87-.09-.27-.03-.53-.06-.79-.1-.05 0-.1-.01-.15-.02-.27-.04-.54-.08-.81-.13-.29-.04-.57-.1-.86-.15s-.58-.11-.86-.17c-1.73-.36-3.42-.84-5.07-1.44-.83-.29-1.65-.62-2.45-.98-.27-.12-.53-.23-.8-.36-.53-.25-1.05-.5-1.57-.77-.26-.14-.52-.28-.77-.42-.51-.28-1.01-.57-1.51-.87-.39-.25-.77-.49-1.15-.74-.31-.21-.62-.42-.92-.64-.33-.24-.66-.48-.98-.72-.07-.06-.15-.12-.23-.17 0 0-.01 0-.01-.01-.07-.05-.15-.1-.22-.16-.16-.13-.32-.26-.48-.39-.33-.27-.66-.56-.99-.84-.2-.18-.41-.34-.61-.52l-.45-.41c-.34-.31-.67-.64-1-.97-.43.5-.88.99-1.34 1.47-.5.52-1 1.02-1.53 1.51-.5.46-1.01.91-1.53 1.35-.03.03-.05.05-.08.07-.51.42-1.04.84-1.57 1.24-.28.21-.57.42-.86.63-.31.22-.61.43-.92.64-.57.38-1.15.75-1.74 1.11-.5.3-1 .6-1.51.87-3.05 1.7-6.34 3.04-9.8 3.99-.58.16-1.16.31-1.75.45-.36.09-.73.17-1.09.25s-.73.15-1.09.22c-.37.07-.73.14-1.1.2-.25.05-.5.09-.75.12-.27.04-.53.08-.8.11-.23.04-.45.07-.68.09-.3.04-.6.07-.91.1-.25.03-.5.05-.76.07-.09.01-.19.02-.28.03-.1.01-.21.02-.31.02-.73.06-1.46.09-2.2.12h-.08c-.49.01-.98.02-1.47.02h-.01c-.46 0-.92-.01-1.37-.02-.46-.01-.92-.03-1.38-.06-.35-.02-.71-.04-1.06-.07-.27-.02-.54-.04-.81-.07-.38-.03-.76-.07-1.14-.12-.76-.09-1.51-.19-2.26-.32-.38-.06-.75-.12-1.12-.2-.32-.06-.63-.12-.95-.19-.44-.09-.88-.19-1.32-.3-1.07-.25-2.13-.55-3.17-.88-.75-.23-1.49-.49-2.22-.77-.29-.11-.58-.22-.86-.33-.45-.18-.9-.36-1.35-.57-.24-.1-.48-.21-.72-.32-.33-.14-.66-.3-.99-.46-.41-.2-.81-.41-1.21-.62s-.8-.43-1.19-.65c-.78-.45-1.55-.92-2.3-1.41-.01 0-.01-.01-.02-.01-.41-.27-.811-.55-1.211-.83-.48-.34-.94-.69-1.4-1.04-.55-.44-1.1-.89-1.63-1.35 0 0-.01-.01-.02-.01-.52-.47-1.04-.94-1.54-1.43-.01-.01-.02-.02-.03-.02-.12-.13-.24-.25-.37-.37-.11-.12-.23-.24-.35-.36l-.03-.02-.14-.15c-.15-.16-.3-.31-.45-.46-.16-.16-.31-.31-.47-.46-.3-.29-.62-.56-.94-.8-.17-.13-.34-.25-.51-.35-.18-.11-.37-.21-.55-.29-.1-.05-.19-.09-.29-.12-.29-.1-.58-.18-.89-.21-.15-.02-.29-.03-.43-.03h-.04c-.26 0-.51.03-.75.08-.13.03-.26.06-.38.1-.24.07-.48.17-.71.28-.12.06-.23.12-.35.19-.23.12-.46.28-.68.45-.22.15-.44.33-.65.52-.21.18-.41.37-.62.57-.21.19-.41.4-.6.6-.2.19-.38.38-.56.57l-.21.22-.07.07-.15.17c-.01.01-.01.01-.02.01-.21.22-.41.43-.63.62-.17.17-.35.33-.52.49-.01.01-.01.01-.02.02-.19.17-.39.34-.58.5-.2.17-.39.33-.59.49-.27.21-.54.42-.82.62-.18.13-.36.25-.54.37-.16.11-.33.22-.49.33-.2.14-.41.27-.62.39-.211.12-.42.24-.63.36-.25.14-.5.28-.76.41-.28.15-.57.29-.87.44-.28.13-.56.26-.85.37-3.41 1.48-7.27 2.23-11.44 2.23-9.25 0-19.24-3.91-26.06-10.21l-.09-.09-.07-.07c-.22-.21-.45-.42-.69-.62-.14-.12-.28-.24-.42-.35-.14-.12-.29-.23-.43-.32-.08-.06-.16-.11-.23-.15-.26-.17-.52-.31-.79-.42-.02-.01-.04-.01-.06-.02-.12-.04-.23-.08-.35-.12-.02 0-.04-.01-.06-.01-.15-.04-.3-.07-.46-.09-.01 0-.01 0-.02 0-.12-.01-.24-.02-.36-.02-.22 0-.44.02-.66.06-.13.03-.27.06-.4.1-.26.08-.52.19-.77.31h-.01c-.25.12-.49.27-.73.43-.12.08-.24.17-.36.25-.23.17-.46.35-.68.54-.12.11-.25.21-.37.32-.22.19-.44.38-.64.56l-.21.19c-2.66 2.4-5.81 4.26-9.27 5.52-3.45 1.26-7.23 1.92-11.14 1.92-1.1 0-2.22-.05-3.33-.16-.28-.03-.55-.06-.83-.09-.01 0-.01 0-.02 0-.03 0-.07-.01-.1-.01-.25-.03-.48-.06-.73-.1-.85-.12-1.7-.28-2.54-.46-.24-.05-.48-.11-.72-.17-.271-.06-.54-.13-.8-.2-.27-.07-.53-.15-.79-.23-1.96-.58-3.84-1.33-5.61-2.23-1.06-.55-2.08-1.15-3.06-1.8-.22-.15-.43-.29-.64-.45-.21-.15-.42-.3-.63-.46-.35-.26-.7-.53-1.04-.82-.01 0-.02-.01-.03-.02-.16-.13-.32-.26-.48-.42-.02-.01-.04-.03-.06-.05-.17-.13-.34-.28-.5-.44-.17-.15-.34-.31-.51-.48l-.04-.04c-.2-.18-.4-.37-.59-.58-.15-.15-.29-.29-.42-.44-.64-.67-1.24-1.38-1.8-2.12-.29.42-.59.84-.9 1.24-.02.02-.03.04-.05.06s-.04.04-.05.06l-.47.55c-.17.2-.34.39-.51.59-.17.19-.35.38-.53.57-.17.18-.35.36-.52.53-.47.47-.97.92-1.49 1.35-.24.21-.49.41-.75.61-.22.17-.44.34-.67.5-.14.11-.28.21-.43.31-.12.09-.24.18-.37.26-.22.16-.45.3-.68.45-.24.16-.49.31-.75.46-.25.15-.51.3-.77.45-.26.14-.52.28-.79.42-.26.14-.53.27-.8.4s-.54.26-.82.38c-.27.12-.55.24-.83.36-.84.34-1.7.66-2.58.93-.29.1-.59.19-.89.27-.37.1-.74.2-1.12.3-.57.14-1.14.26-1.71.38-.58.11-1.16.2-1.75.29-.22.03-.45.06-.67.09h-.03c-.19.02-.38.04-.58.06-1.15.12-2.32.18-3.5.18-.95 0-1.91-.04-2.85-.12-.03 0-.06 0-.09-.01-.5-.04-1.01-.09-1.51-.15-.05-.01-.09-.01-.14-.02-.48-.06-.95-.13-1.43-.21-.12-.02-.23-.04-.35-.06-.44-.07-.88-.15-1.32-.25-.67-.14-1.34-.29-2.01-.46-.37-.1-.75-.2-1.12-.31-.59-.17-1.19-.35-1.78-.55-.28-.09-.55-.18-.83-.28-.32-.11-.64-.22-.96-.35-.21-.08-.43-.16-.64-.24-.03-.01-.05-.02-.08-.03-.28-.1-.56-.22-.85-.34-.08-.03-.15-.07-.23-.1-.24-.1-.47-.19-.71-.3-.03-.01-.07-.03-.1-.04-.05-.02-.1-.04-.15-.07-.58-.25-1.16-.52-1.74-.8-.49-.23-.98-.48-1.48-.74-.23-.11-.45-.23-.68-.36-.42-.22-.84-.44-1.25-.68-.11-.06-.21-.11-.309-.18-.441-.25-.88-.5-1.32-.78-.22-.12-.43-.25-.65-.38-.33-.2-.65-.41-.98-.62-.26-.17-.53-.34-.8-.52-.29-.19-.58-.39-.87-.59-.1-.06-.2-.13-.3-.2-.771-.53-1.54-1.08-2.31-1.65-.29-.21-.57-.43-.85-.64-.28-.22-.56-.44-.85-.66-.26.29-.52.58-.78.86-.53.56-1.07 1.11-1.63 1.64-.27.27-.56.53-.84.79-.29.26-.58.52-.87.77-6.09 5.23-13.65 8.75-21.58 10.11-.53.09-1.061.17-1.6.24-.16.02-.33.04-.5.06-.38.05-.77.09-1.16.12-.06.01-.13.01-.19.02l-.42.03c-.35.03-.7.05-1.05.07-.09.01-.19.01-.29.01-.32.01-.64.03-.96.04-.33.01-.65.01-.97.01h-.01c-.38 0-.76 0-1.14-.02-.19 0-.38 0-.57-.01-.38-.02-.76-.04-1.14-.07-.38-.02-.76-.05-1.13-.09-.3-.03-.6-.06-.9-.1-.21-.02-.41-.05-.61-.07-.37-.05-.74-.1-1.11-.16-.38-.06-.771-.12-1.15-.19-7.84-1.46-15.22-5.06-21.19-10.31-.39-.35-.78-.71-1.17-1.07-.01 0-.01 0-.01 0-.29-.29-.58-.57-.86-.85-.45-.45-.88-.9-1.3-1.36-.29-.31-.57-.63-.84-.95-.11-.12-.22-.25-.32-.37-.53-.62-1.03-1.26-1.52-1.91-.35.62-.73 1.22-1.12 1.81-.11.17-.23.34-.35.51-.18.26-.37.52-.56.77-.19.26-.39.52-.6.78-.2.25-.41.51-.62.76-.42.5-.85.98-1.31 1.45v.01c-.45.47-.91.93-1.39 1.37-.24.23-.49.45-.74.65-.49.44-.99.85-1.5 1.24-.26.2-.53.4-.79.59-.27.19-.53.37-.8.56-.8.56-1.63 1.08-2.49 1.55-.28.16-.57.31-.86.46s-.58.3-.87.44c-.35.17-.7.34-1.06.5-.19.08-.39.17-.58.25-.34.15-.69.29-1.04.42-.61.23-1.22.45-1.84.64-.67.22-1.35.41-2.04.58-.26.06-.52.12-.78.18-.17.04-.34.08-.51.11-.04.01-.08.02-.12.02-.63.12-1.26.23-1.89.32-.71.09-1.42.17-2.13.22s-1.42.07-2.14.07h-.31c-.1 0-.2-.01-.31-.01-.21 0-.41 0-.62-.01-.68-.03-1.36-.08-2.03-.16-.34-.03-.68-.08-1.02-.13-.24-.03-.47-.07-.71-.11-.03-.01-.07-.01-.1-.02-.43-.07-.85-.16-1.27-.25-.31-.06-.61-.13-.92-.21-.33-.08-.66-.17-.99-.26-.26-.07-.52-.15-.78-.23-.39-.12-.78-.25-1.17-.39-.16-.05-.33-.11-.49-.18-.26-.09-.51-.19-.76-.29-.22-.08-.44-.17-.66-.27-.31-.13-.62-.27-.93-.41-.06-.03-.12-.06-.18-.09-.56-.25-1.11-.53-1.65-.82-.65-.35-1.29-.72-1.91-1.11-.16-.1-.32-.2-.47-.3s-.31-.2-.46-.3c-.51-.34-1.01-.7-1.5-1.06-.39-.3-.77-.6-1.15-.91-.28-.23-.56-.47-.84-.71-.28-.25-.55-.49-.81-.74-.54-.51-1.06-1.02-1.56-1.56-.37-.4-.74-.82-1.09-1.24-.36-.42-.7-.84-1.03-1.28s-.65-.88-.96-1.34c-.24-.35-.47-.71-.71-1.07-.63-1.04-1.21-2.12-1.73-3.23-.38.32-.76.63-1.14.94-.44.35-.89.7-1.34 1.05-.07.05-.13.1-.2.15-.26.19-.54.39-.81.59-.32.24-.64.47-.97.7-.02.01-.04.03-.06.04-.46.32-.93.64-1.4.95-8.68 5.72-18.88 9.5-29.44 10.89-.5.06-1 .13-1.51.18-.3.03-.59.06-.89.09s-.6.06-.91.08c-.48.04-.96.08-1.44.11-.49.03-.97.05-1.46.07-.48.03-.96.04-1.45.05-.48.01-.97.02-1.45.02-.61 0-1.21-.01-1.82-.03-.03.01-.07 0-.11 0-1.17-.03-2.33-.09-3.5-.19-.6-.05-1.2-.11-1.79-.17-.55-.06-1.09-.12-1.64-.19-.08 0-.15-.01-.22-.03-.54-.07-1.08-.15-1.62-.24v-47.4c2.44.23 4.85.34 7.2.34 7.64 0 15.25-1.12 22.54-3.3.479-.13.97-.28 1.45-.44.77-.25 1.53-.5 2.3-.77.47-.17.95-.34 1.42-.52.47-.17.94-.35 1.41-.54s.94-.38 1.4-.57c.46-.2.93-.4 1.39-.6 1.38-.6 2.75-1.25 4.09-1.95.45-.22.9-.46 1.35-.7l.27-.15.09-.05c.16-.09.32-.17.49-.26.32-.17.65-.34.99-.5.16-.08.33-.16.5-.23l.51-.21c.17-.06.35-.12.52-.18.18-.05.35-.1.53-.15s.35-.08.53-.11c.17-.03.34-.04.52-.05s.36-.02.54-.02c.53 0 1.06.06 1.59.16.27.05.53.12.8.19.32.08.64.18.95.29.16.06.31.11.47.17.16.05.31.11.47.18 0 0 .01 0 .02.01.31.12.62.25.93.38.31.14.63.27.94.41l.24.11c.5.22 1 .44 1.5.65.02.01.03.01.05.02.39.16.77.32 1.15.47 1.01.41 2.02.8 3.04 1.17 1.28.45 2.55.88 3.82 1.27.44.14.87.27 1.31.39.44.13.88.25 1.31.37 1.07.3 2.14.56 3.21.81.59.13 1.18.26 1.77.38.63.13 1.26.24 1.88.35.55.1 1.09.19 1.63.26.07.01.13.02.2.03.01 0 .03 0 .04.01 1.3.19 2.58.34 3.85.45.47.05.94.08 1.4.11.19.01.37.03.56.03.51.03 1.02.06 1.53.07.6.02 1.19.03 1.78.03h.01c.6 0 1.19-.01 1.77-.03.08 0 .15 0 .23-.01.39-.01.77-.02 1.15-.05.27-.01.53-.03.8-.05.37-.02.73-.05 1.09-.08.22-.02.43-.04.64-.07.28-.02.56-.06.84-.09.36-.04.71-.09 1.06-.14.41-.05.81-.12 1.21-.19.32-.04.63-.1.939-.16.29-.05.57-.11.86-.17.99-.2 1.96-.43 2.91-.69.93-.25 1.84-.54 2.74-.85.45-.16.89-.32 1.34-.49.88-.33 1.75-.7 2.59-1.1.86-.4 1.7-.82 2.53-1.28l1.12-.64c2.1-1.19 4.27-2.42 6.65-2.5h.28c.16 0 .31.01.46.02.16.01.31.02.47.04.15.02.31.04.46.06s.31.05.46.08c.03.01.06.02.1.02.02 0 .04.01.06.02.36.07.71.16 1.05.25.66.19 1.28.4 1.86.59l.29.1c.66.21 1.32.43 1.98.63.67.21 1.34.41 2.01.6.49.14.98.28 1.47.41.04.01.09.02.13.03.28.08.55.15.84.22.2.06.41.11.61.16.34.09.67.18 1.01.25.68.17 1.36.33 2.04.48.48.11.97.21 1.45.31.38.08.77.15 1.16.23.21.05.43.09.65.13.53.1 1.06.2 1.6.28.44.08.87.16 1.31.22.14.02.29.05.43.07.56.09 1.12.17 1.68.25.37.05.74.1 1.1.14.53.08 1.06.14 1.6.2.3.04.6.07.9.09.55.07 1.11.12 1.67.17l.39.03c.35.04.71.06 1.06.09.41.03.83.06 1.24.08.42.03.85.05 1.27.07.4.02.8.04 1.21.06.4.02.8.03 1.21.04.13.01.271.01.41.01.37.01.73.02 1.1.02.53.02 1.07.02 1.6.02h.1c.9 0 1.789-.01 2.69-.04h.16c.72-.02 1.43-.05 2.15-.09.1 0 .2 0 .3-.01.2 0 .41-.02.62-.03.03 0 .07 0 .1-.01.69-.03 1.38-.08 2.06-.13.89-.07 1.771-.15 2.66-.24.45-.04.91-.09 1.36-.15.05-.01.11-.01.16-.02.44-.04.88-.09 1.31-.15.04-.01.07-.01.11-.02.2-.02.4-.04.59-.07.6-.08 1.2-.16 1.79-.27.11-.01.229-.03.34-.05.42-.05.83-.12 1.24-.2l.18-.03c.5-.07 1-.16 1.5-.26.03 0 .05 0 .08-.01l.66-.12c.63-.11 1.25-.24 1.87-.37.38-.08.75-.16 1.13-.24.15-.03.3-.07.45-.1 1.26-.28 2.51-.59 3.74-.91.55-.14 1.11-.29 1.65-.45h.02c.22-.06.44-.12.65-.18.06-.02.12-.04.18-.05.52-.16 1.039-.31 1.56-.47.67-.2 1.34-.41 2.01-.63 1.78-.57 3.54-1.2 5.28-1.88h.01c1.74-.67 3.45-1.39 5.14-2.15l.3-.15.12-.05c.39-.18.79-.35 1.18-.52.189-.08.39-.17.59-.25.19-.09.38-.17.58-.24.01 0 .02-.01.03-.01.27-.1.54-.2.81-.29.2-.07.41-.13.62-.19.2-.06.41-.12.62-.17.35-.08.71-.15 1.07-.19.35-.05.71-.07 1.06-.07.12 0 .24.01.36.01.21.01.42.03.63.06.2.03.4.06.61.1.15.03.31.07.46.11.07.01.13.03.2.05.22.05.43.12.65.18.211.07.42.14.62.21.21.07.41.15.61.23.2.07.4.15.6.23.14.05.28.1.42.16l.17.08.24.09.03.02c.25.1.5.2.76.29.27.11.53.21.8.31.11.05.23.09.34.13.12.05.25.09.37.14 1.52.57 3.059 1.1 4.61 1.59.05.02.1.03.15.05.52.17 1.04.33 1.56.48.08.02.15.05.23.07.18.06.37.11.56.16.14.04.27.08.41.12.59.17 1.17.33 1.76.49.01 0 .03.01.04.01.79.21 1.59.41 2.39.61.69.16 1.39.33 2.09.48.17.04.35.07.52.11.63.14 1.27.27 1.91.39.19.04.38.07.56.11.68.13 1.36.25 2.04.36.33.06.66.11.99.16.33.06.66.1.98.15.44.07.88.13 1.32.19.06.01.13.02.19.03.03 0 .05 0 .07.01 1.02.14 2.03.26 3.05.36l1.53.15c.51.04 1.02.08 1.53.12.37.04.73.06 1.09.08.33.02.66.04.99.06s.67.03 1.01.05c1.03.05 2.06.08 3.09.09.25.01.51.01.77.01.26.01.521.01.78.01 2.83 0 5.66-.11 8.47-.35 3.75-.3 7.48-.81 11.15-1.53.77-.15 1.54-.31 2.31-.48l.15-.03c.09-.02.19-.04.28-.06.46-.1.93-.21 1.39-.32l1.38-.32c.01.01.01.02.01.02.6.95 1.2 1.89 1.81 2.81.25.38.5.76.76 1.14.11.18.23.36.36.54 0 .02.01.03.03.05h.01c.25.37.51.75.78 1.12.25.37.52.74.8 1.1.16.22.33.44.5.66.19.25.39.5.59.75.09.12.189.24.28.35.22.26.43.51.65.76 1.15 1.32 2.39 2.56 3.77 3.68.31.26.62.5.95.73l.01.01.54.39c.21.15.42.3.63.43.45.32.92.6 1.38.88.24.14.49.28.729.41.1.06.19.11.28.16.18.1.36.19.55.29.29.15.58.3.87.43.24.12.48.24.73.34.37.17.75.34 1.14.5.67.29 1.35.55 2.04.79.29.11.58.21.87.3.34.12.67.23 1.01.33 1.39.43 2.8.81 4.19 1.14.46.11.93.21 1.39.31.69.15 1.38.29 2.06.42s1.36.25 2.02.37c.81.15 1.63.28 2.44.4.25.05.5.09.74.12.69.11 1.37.22 2.06.31l.21.03c.49.08.97.15 1.461.2.07.02.14.03.21.03.6.08 1.2.16 1.8.23 1.21.16 2.42.3 3.63.42.59.07 1.19.13 1.79.19.69.07 1.38.14 2.07.2.31.03.62.05.93.08.05.01.11.01.16.01 2.2.19 4.4.35 6.58.49.68.04 1.36.08 2.04.12.94.06 1.87.11 2.81.15.56.03 1.13.06 1.69.08 2.42.11 4.82.2 7.2.27 1.75.06 3.49.1 5.22.15 4.21.11 9.18.22 14.17.22 11.02 0 19.94-.54 28.07-1.71.43-.06.86-.12 1.28-.19.43-.06.87-.13 1.31-.21.45-.07.9-.15 1.35-.23s.89-.16 1.32-.25c.56-.11 1.1-.22 1.63-.33.53-.12 1.06-.24 1.57-.36.5-.11 1.01-.24 1.51-.38.99-.26 1.94-.53 2.86-.82.78-.25 1.54-.5 2.27-.78.29-.1.58-.21.87-.33.34-.13.67-.26 1-.4.48-.21.97-.42 1.46-.64.24-.11.48-.22.72-.34s.48-.24.72-.36.48-.24.72-.37c.72-.38 1.43-.79 2.12-1.21.86-.53 1.71-1.1 2.54-1.72.13-.09.25-.19.38-.28.28-.21.57-.43.85-.67.14-.12.29-.23.43-.35.25-.2.51-.42.76-.65.79-.7 1.55-1.43 2.29-2.19.37-.39.73-.78 1.09-1.18s.71-.81 1.05-1.23c1.03-1.26 2-2.59 2.91-3.98.3-.47.6-.94.89-1.42.26-.44.52-.89.77-1.34.37-.64.711-1.3 1.03-1.97.15-.3.3-.61.44-.91.44-.93.85-1.87 1.23-2.84l.19-.43v-.01l1.53.21.69.1c.289.04.59.08.89.12.43.06.85.11 1.27.17.55.08 1.12.15 1.71.23.36.04.72.09 1.07.13.46.06.91.12 1.36.17.21.03.41.06.61.08.67.08 1.36.16 2.06.24.44.05.88.1 1.31.15 1.24.14 2.52.28 3.84.41.54.06 1.08.11 1.63.16.44.04.88.08 1.33.12.06.01.12.01.18.02.92.08 1.84.16 2.78.24 3.45.28 6.75.48 9.95.6.67.04 1.33.06 1.99.07.67.03 1.34.05 2 .05.67.02 1.34.03 2 .03.69.02 1.38.02 2.07.02 1.87 0 3.71-.03 5.52-.09 1.83-.05 3.62-.13 5.39-.25.78-.04 1.55-.09 2.31-.16 3.82-.29 7.51-.72 11.08-1.3.72-.1 1.43-.22 2.13-.36.35-.07.7-.13 1.05-.19.35-.05.7-.12 1.05-.2 3.791-.72 7.451-1.62 10.991-2.69z" fill="#54c1f2"/><path d="m0 0v283.88c.29-.26.59-.51.89-.76.21-.18.43-.35.64-.52.36-.29.729-.57 1.1-.84.23-.18.47-.35.71-.51.37-.28.76-.55 1.15-.8.52-.35 1.05-.69 1.59-1.02.31-.19.63-.38.94-.56.16-.09.31-.17.47-.26.46-.27.92-.52 1.38-.76.24-.13.48-.25.73-.37.04-.03.08-.05.12-.06.36-.17.72-.35 1.09-.52 4.46-2.06 9.24-3.45 14.07-4.06.33-.04.65-.07.97-.11.86-.09 1.73-.15 2.59-.19.65-.03 1.3-.04 1.95-.04 1.49 0 2.96.08 4.42.23.49.05.97.11 1.45.17 1.14.16 2.271.36 3.38.62.77.17 1.53.36 2.28.58 3.74 1.08 6.91 2.57 9.46 4.44.42.31.83.63 1.22.97.39.33.76.68 1.12 1.03h.01c.26.26.5.52.74.79.01.02.03.04.05.06.26.28.51.58.73.88.25.32.49.64.72.97.42.6.8 1.22 1.14 1.87.18.34.35.68.51 1.03.1.2.19.41.28.62.09.22.18.43.27.65.13.33.25.65.36.98s.22.67.32 1c1.6 5.2 1.48 11.27-.44 17.26-.01.04-.02.08-.04.12-.13.43-.28.85-.43 1.27-.17.45-.34.91-.53 1.35-.17.43-.35.85-.54 1.26-.01.02-.02.04-.03.06-.17.39-.35.76-.53 1.14-.09.17-.17.33-.25.49-.15.31-.31.62-.48.93-.16.3-.32.6-.48.89-.12.22-.24.43-.37.65-.97 1.69-2.04 3.32-3.17 4.89-.32.44-.64.88-.96 1.31-.32.42-.64.84-.96 1.26-.75.96-1.51 1.89-2.29 2.81-.24.3-.49.59-.73.87-.22.26-.43.51-.65.76l-2.83 3.32 4.69-.71h.01l.6-.09.24-.03c.36-.05.72-.1 1.08-.12.09-.01.18-.01.271-.02.189-.01.38-.02.57-.03.18-.01.37-.01.56-.01 1.28 0 2.54.14 3.77.4 1.36.29 2.67.74 3.9 1.34.42.21.84.43 1.24.68.23.12.44.26.66.41.07.04.13.08.19.13.28.18.55.38.81.58.02.01.05.03.07.05.25.19.49.39.72.6.37.31.72.64 1.05.98.25.25.49.5.71.76.23.25.45.51.65.78.08.09.15.19.22.29.15.19.29.38.42.58.06.07.11.15.17.24.15.21.28.43.41.65.07.11.14.22.21.34.35.6.66 1.22.94 1.85.06.12.11.24.15.37.11.24.2.48.28.72.03.05.04.09.06.14.12.35.24.7.33 1.05.04.1.06.2.09.3l.77 2.93.06.22 2.38-2.13c.86-.76 1.67-1.56 2.47-2.34l.08-.08c1.35-1.33 2.74-2.69 4.29-3.82.44-.34.9-.65 1.38-.94.3-.17.62-.35.94-.51.61-.31 1.27-.57 1.95-.77 1.12-.33 2.31-.5 3.54-.5 1.11 0 2.22.13 3.31.42.31.07.61.16.91.25.35.11.7.23 1.04.36.25.1.5.21.75.32.08.04.16.07.24.11.22.1.43.21.64.33.21.1.41.22.61.34.19.1.38.21.56.35.35.23.69.47 1.01.73 1.29.97 2.37 2.16 3.19 3.49l1.48 2.41 1.53-1.88.25-.32c.07-.09.15-.18.23-.27.09-.11.19-.22.28-.33l.04-.04c.19-.22.39-.42.6-.62.25-.25.5-.48.76-.7.03-.02.05-.04.08-.06.25-.22.52-.42.79-.62.26-.2.52-.38.79-.55.48-.31.98-.59 1.49-.85.16-.08.32-.16.48-.23.33-.15.65-.29.99-.42.34-.12.68-.24 1.02-.34.14-.05.28-.09.42-.12.73-.2 1.47-.34 2.22-.43.24-.03.49-.05.73-.06.26-.02.52-.03.78-.03h.1c.74 0 1.48.06 2.2.18.17.03.34.06.51.1.12.02.24.05.36.08s.24.06.35.08c.18.05.35.11.52.16s.33.11.49.16c.22.08.43.16.64.25.19.08.37.16.55.24.37.17.72.35 1.07.55.18.09.35.19.52.31.17.11.34.22.51.33.31.21.62.43.91.67.68.52 1.3 1.1 1.88 1.73.18.21.37.43.56.65.35.44.7.9 1.01 1.38.22.31.42.64.59.97.17.29.31.58.45.88.1.22.2.43.29.65.15.37.29.74.41 1.13.06.19.12.38.17.57.01.04.02.07.03.11l.55 2.1 2.06-.72c.05-.02.09-.04.13-.04.27-.1.53-.19.8-.27.07-.04.14-.06.21-.07.309-.1.61-.19.91-.27.62-.17 1.22-.31 1.81-.43.07-.02.13-.04.2-.05.18-.03.36-.06.54-.09.23-.04.45-.07.67-.1.08-.02.17-.03.25-.03.36-.05.71-.08 1.05-.1.38-.03.75-.04 1.11-.04h.02c.36 0 .711.01 1.061.03.21.01.42.03.63.06.21.02.42.05.62.08.16.02.32.05.47.08.3.05.59.11.88.19.13.02.28.06.41.1.09.03.18.05.27.09.57.18 1.13.41 1.68.69.31.16.61.33.91.52.27.17.53.34.78.53.5.38.98.8 1.43 1.25.22.23.44.47.64.71.13.14.24.28.34.43.11.15.21.3.32.45.21.31.4.64.57.98.09.16.17.32.23.48.08.16.14.31.2.47.059.18.13.36.18.54.01.04.03.08.04.13.1.33.16.67.21 1.02.01.08.03.16.04.24l.04.25.21 1.73 1.05-.14c.45-.06.9-.13 1.35-.19.53-.07 1.059-.14 1.6-.19.15-.02.31-.03.46-.05.6-.06 1.2-.11 1.8-.15.72-.05 1.43-.09 2.14-.11.72-.03 1.43-.04 2.14-.04h.03c.71 0 1.41.01 2.11.04.45.01.89.03 1.33.06.11 0 .22.01.33.02.561.03 1.11.07 1.67.12.6.05 1.2.11 1.81.19.52.06 1.05.13 1.58.2.21.02.43.06.64.1.37.05.74.11 1.1.18.13.01.26.03.38.06 1.16.21 2.31.45 3.45.72.59.14 1.18.29 1.76.45.58.15 1.16.32 1.74.49.48.14.95.28 1.43.45.37.12.74.24 1.11.37s.74.26 1.1.39c2.2.81 4.35 1.74 6.43 2.8-2 .47-4 .91-6 1.31-1.26.25-2.53.49-3.8.72-1.91.35-3.81.66-5.71.94-1.11.16-2.23.32-3.35.47s-2.23.29-3.34.42c-.77.09-1.539.18-2.309.26-.71.09-1.42.16-2.11.22-1.47.16-2.94.29-4.39.41s-2.9.22-4.33.32c-.72.06-1.43.11-2.14.14-.71.04-1.42.08-2.12.12-.88.05-1.75.09-2.62.13-2.61.13-5.16.21-7.65.28-.21 0-.42.01-.62.02-.83.02-1.66.03-2.48.05-3.5.06-6.84.08-9.98.08-2.99 0-5.98-.02-8.97-.05-1.84-.02-3.67-.05-5.5-.08-2.87-.04-5.72-.09-8.54-.14l-1.35-.02c-5.95-.11-12.1-.21-18.11-.24-1.24-.01-2.48-.01-3.73-.01h-.373c-3.21 0-6.41.02-9.62.06-.25 0-.49.01-.74.01-1.79.02-3.58.05-5.37.08-2 .04-4.01.08-6.01.13-1.56.04-3.13.08-4.69.12-2.57.08-5.12.16-7.67.24-2.54.09-5.08.18-7.6.29-4.02.15-8 .33-11.95.51-1.6.07-3.2.15-4.79.23-3.24.15-6.45.31-9.63.48-3.34.17-6.64.35-9.88.52-.31.01-.63.03-.95.04v33.55c2.4.23 4.84.33 7.26.33 7.63 0 15.22-1.12 22.48-3.27.49-.14.97-.29 1.45-.44.77-.25 1.53-.5 2.3-.77.47-.17.95-.34 1.42-.52.47-.17.94-.35 1.41-.54s.94-.38 1.4-.57c.46-.2.93-.4 1.39-.6 1.38-.62 2.74-1.26 4.09-1.95.45-.23.9-.47 1.34-.71l.28-.14.09-.05c.16-.09.32-.17.49-.26.32-.17.65-.34.99-.5.16-.08.33-.16.5-.23l.51-.21c.17-.06.35-.12.52-.18.18-.05.35-.1.53-.15.18-.04.36-.07.54-.1.17-.03.34-.05.51-.06.18-.01.36-.02.54-.02.53 0 1.06.06 1.59.16.27.05.53.11.8.19.32.08.64.18.95.29.16.06.31.11.47.17.16.05.31.11.47.18 0 0 .01 0 .02.01.31.12.62.25.93.38.31.14.63.27.94.41l.24.11c.5.22 1 .44 1.5.65.02.01.03.01.05.02.38.15.77.32 1.15.47 1.01.41 2.02.8 3.04 1.17 1.28.45 2.55.88 3.82 1.27.44.14.87.27 1.31.39.44.13.88.25 1.31.37 1.07.3 2.14.56 3.21.81.59.13 1.18.26 1.77.38.63.13 1.26.24 1.88.35.55.1 1.09.19 1.63.26.07.01.13.02.2.03.01 0 .03 0 .04.01 1.3.19 2.58.34 3.85.45.47.05.94.08 1.4.11.19.01.37.03.56.03.51.03 1.02.06 1.53.07.6.02 1.19.03 1.78.03h.01c.6 0 1.19-.01 1.77-.03.08 0 .15 0 .23-.01.39-.01.77-.02 1.15-.05.27-.01.53-.03.8-.05.37-.02.73-.05 1.09-.08.22-.02.43-.04.64-.07.28-.02.56-.06.84-.09.36-.04.71-.09 1.06-.14.41-.05.81-.12 1.21-.19.32-.04.63-.1.939-.16.29-.05.57-.11.86-.17.99-.2 1.96-.43 2.91-.69.93-.26 1.84-.54 2.74-.85.45-.16.89-.32 1.34-.49.88-.34 1.74-.7 2.59-1.1.86-.4 1.7-.82 2.53-1.28l1.12-.64c2.1-1.19 4.27-2.42 6.65-2.5h.28c.16 0 .31.01.46.02.16.01.31.02.47.04.15.02.31.04.46.06s.31.05.46.08c.03.01.06.02.1.02.02 0 .04.01.06.02.36.07.71.16 1.05.25.66.19 1.28.4 1.86.59l.29.1c.66.21 1.32.43 1.98.63.67.21 1.34.41 2.01.6.49.14.98.28 1.47.41.04.01.09.02.13.03.28.08.55.15.84.22.2.06.41.11.61.16.34.09.67.18 1.01.25.68.17 1.36.33 2.04.48.48.11.97.21 1.45.31.38.08.77.15 1.16.23.21.05.43.09.65.13.53.1 1.06.2 1.6.28.44.08.87.16 1.31.22.14.02.29.05.43.07.56.09 1.12.17 1.68.25.37.05.74.1 1.1.14.53.08 1.06.14 1.6.2.3.04.6.07.9.09.55.07 1.11.12 1.67.17l.39.03c.35.04.71.06 1.06.09.41.03.83.06 1.24.08.42.03.85.05 1.27.07.4.02.8.04 1.21.06.4.02.8.03 1.21.04.13.01.271.01.41.01.37.01.73.02 1.1.02.53.02 1.07.02 1.6.02h.1c.9 0 1.789-.01 2.69-.04h.16c.72-.02 1.43-.05 2.15-.09.1 0 .2 0 .3-.01.2 0 .41-.02.62-.03.03 0 .07 0 .1-.01.69-.03 1.38-.08 2.06-.13.89-.07 1.771-.15 2.66-.24.45-.04.91-.09 1.36-.15.05-.01.11-.01.16-.02.44-.04.88-.09 1.31-.15.04-.01.07-.01.11-.02.2-.02.4-.04.59-.07.6-.08 1.2-.16 1.79-.27.11-.01.229-.03.34-.05.42-.05.83-.12 1.24-.2l.18-.03c.5-.07 1-.16 1.5-.26.03 0 .05 0 .08-.01.22-.04.44-.08.66-.12.63-.11 1.25-.24 1.87-.37.38-.08.75-.16 1.13-.24.15-.03.3-.07.45-.1 1.26-.28 2.51-.59 3.74-.91.55-.14 1.11-.29 1.65-.45h.02c.22-.06.44-.12.65-.18.06-.02.12-.04.18-.05.52-.16 1.039-.31 1.56-.47.67-.2 1.34-.41 2.01-.63 1.78-.58 3.54-1.21 5.28-1.88h.01c1.73-.68 3.44-1.39 5.12-2.15l.32-.15.12-.05c.39-.18.79-.35 1.18-.52.189-.08.39-.17.59-.25.19-.09.38-.17.58-.24.01 0 .02-.01.03-.01.27-.1.54-.2.81-.29.2-.07.41-.13.62-.19.2-.06.41-.12.62-.17.35-.08.71-.15 1.07-.19.34-.04.69-.06 1.03-.06.13 0 .26 0 .4.01.2.01.41.03.62.05.2.03.4.06.61.1.15.03.31.07.46.11.07.01.13.03.2.05.22.05.43.12.65.18.211.07.42.14.62.21.21.07.41.15.61.23.2.07.4.15.6.23s.4.16.59.24l.24.09c.26.1.53.21.79.31.27.11.53.21.8.31.11.05.23.09.34.13.12.05.25.09.37.14 1.52.57 3.059 1.1 4.61 1.59.05.02.1.03.15.05.52.17 1.04.33 1.56.48.08.02.15.05.23.07.18.06.37.11.56.16.14.04.27.08.41.12.59.17 1.17.33 1.76.49.01 0 .03.01.04.01.79.21 1.59.41 2.39.61.69.16 1.39.33 2.09.48.17.04.35.07.52.11.63.14 1.27.27 1.91.39.19.04.38.07.56.11.68.13 1.36.25 2.04.36.33.06.66.11.99.16.33.06.66.1.98.15.44.07.88.13 1.32.19.06.01.13.02.19.03.03 0 .05 0 .07.01 1.02.14 2.03.26 3.05.36l1.53.15c.51.04 1.02.08 1.53.12.36.03.72.05 1.09.08.33.02.66.04.99.06s.67.03 1.01.05c1.03.04 2.06.07 3.09.09.25.01.51.01.77.01h.771c2.83 0 5.67-.12 8.479-.34 3.75-.31 7.48-.82 11.15-1.53.77-.15 1.54-.31 2.31-.48l.15-.03c.09-.02.19-.04.28-.06l2.78-.62h.02l-1.02-1.58c-.4-.63-.8-1.26-1.21-1.88-.41-.63-.82-1.25-1.24-1.86-.33-.48-.66-.95-1-1.41-.15-.22-.31-.44-.49-.66-.37-.51-.76-1.02-1.16-1.51-.3-.38-.62-.76-.94-1.13-.34-.39-.67-.76-1.02-1.12l-.24-.25c-.98-1.03-2.03-2.01-3.13-2.91l-.47-.38c-.59-.49-1.2-.95-1.82-1.38-.62-.44-1.26-.86-1.9-1.26s-1.3-.78-1.96-1.14c-.3-.17-.61-.33-.91-.48-.7-.37-1.42-.71-2.14-1.02-.3-.13-.61-.26-.91-.38-.28-.12-.56-.23-.84-.33-.229-.09-.46-.18-.7-.26-.23-.09-.47-.17-.71-.25-.39-.13-.79-.26-1.19-.38s-.8-.23-1.191-.34c-.289-.07-.58-.15-.86-.21-.37-.1-.74-.18-1.11-.26-.26-.06-.53-.11-.8-.17-.26-.07-.52-.13-.79-.2-.16-.04-.3-.08-.441-.12-.14-.04-.28-.08-.41-.12-.19-.06-.39-.12-.58-.19-.19-.06-.37-.13-.56-.21-.18-.07-.36-.15-.53-.23-.01 0-.02-.01-.03-.01-1.53-.72-2.65-1.76-2.77-3.35 1.441-.22 2.88-.4 4.32-.54.48-.06.96-.1 1.44-.14l.75-.06c.75-.06 1.5-.11 2.24-.16.75-.04 1.5-.08 2.25-.12 1.5-.07 2.99-.12 4.49-.15 1.56-.04 3.12-.06 4.66-.07.84-.01 1.68-.01 2.51-.02h.33l78.09-.5v-19.79l-.04-2.05-28.58.75-41.35 1.09c-.56 0-.93-.11-1.2-.34-.4-.36-.43-.96-.38-1.53l.02-.17c.01-.07.02-.14.03-.21.14-.86.29-1.73.45-2.59.21-1.12.43-2.25.66-3.37.11-.54.229-1.08.35-1.62.18-.83.38-1.66.58-2.48.44-1.84.93-3.67 1.45-5.48.15-.51.3-1.02.45-1.53.17-.56.34-1.12.52-1.67.22-.7.44-1.4.68-2.1.03-.1.06-.2.09-.29.19-.55.38-1.09.57-1.64.41-1.2.85-2.4 1.311-3.59.2-.53.41-1.07.62-1.59.33-.84.67-1.67 1.02-2.5.39-.95.8-1.91 1.23-2.85.21-.47.42-.95.64-1.42.21-.47.43-.94.65-1.41.33-.69.66-1.37.99-2.04.31-.63.63-1.26.95-1.89.37-.72.74-1.43 1.12-2.14.36-.67.72-1.33 1.09-1.99.55-.99 1.11-1.98 1.69-2.95.189-.33.38-.65.58-.98.68-1.13 1.37-2.25 2.08-3.35.27-.43.55-.86.83-1.28.69-1.06 1.4-2.11 2.12-3.14.29-.4.57-.81.86-1.21.28-.41.57-.81.87-1.21.99-1.37 2.02-2.71 3.06-4.04.01 0 .01-.01.02-.02 1.05-1.33 2.12-2.63 3.22-3.92.83-.98 1.68-1.94 2.55-2.89.4-.44.8-.88 1.211-1.32.45-.49.91-.98 1.37-1.46.64-.65 1.27-1.3 1.91-1.94.64-.65 1.29-1.29 1.95-1.92s1.32-1.26 1.98-1.88c.67-.62 1.34-1.24 2.02-1.85 2.72-2.45 5.53-4.82 8.43-7.17 1.45-1.17 2.92-2.34 4.42-3.5 2.63-2.06 5.39-4.14 8.271-6.26.36-.27.729-.54 1.1-.81 1.55-1.15 3.12-2.3 4.72-3.46l.82-.6-.01-3.47h.01l.6-.07.45-.33.021-.02c.7-.21 1.42-.36 2.14-.45.29-.05.58-.07.87-.08.29-.03.59-.04.88-.04.32 0 .64.01.96.04l.4.03c.229.02.46.05.69.09l.32.38.45.18v87.43l3.94.51c5.6-21.46 16.67-41.11 31.97-56.81l.29-.3 1.18-.53v-2.79l.59-.01.45-.25h4.15l.97.32.46-.32.38-.26v78.91l.03 1.93 1.93.07c.05-.01.09-.01.13.01.81.01 1.61.05 2.41.09l2.53.12-.48-2.49c0-.03-.01-.07-.02-.11 0-.03-.01-.06-.01-.1-.02-.07-.03-.14-.04-.22-.01-.03-.02-.07-.02-.11-.06-.35-.11-.68-.15-1.03-.05-.38-.09-.75-.11-1.12-.021-.14-.03-.27-.03-.41-.01-.03-.01-.07-.01-.1-.021-.37-.04-.74-.04-1.11-.01-.41 0-.81.02-1.18 0-.17.01-.34.03-.5 0-.02 0-.03.01-.05.01-.15.03-.31.05-.47.02-.23.05-.44.1-.65.04-.22.09-.44.15-.66.06-.25.13-.49.23-.72.03-.08.06-.17.1-.25.13-.33.28-.63.46-.92v-.01c.11-.18.23-.35.37-.52.12-.17.26-.33.41-.48.08-.1.19-.2.3-.3.07-.07.15-.14.23-.2.11-.1.24-.2.37-.29.14-.12.3-.22.46-.32.32-.2.66-.37 1-.52.31-.15.63-.27.97-.37.29-.1.59-.18.91-.24.73-.16 1.33-.21 1.67-.23.21-.01.4-.02.59-.02.32 0 .65.01.97.04.31.02.61.05.91.09.31.03.61.08.91.13.29.05.58.1.87.16s.58.12.86.19c.9.21 1.76.45 2.59.68.35.1.7.2 1.03.31.1.03.21.06.31.1.22.07.43.15.63.23s.4.17.59.27c.1.05.19.11.29.16.25.14.48.29.69.48.15.13.289.26.42.4.08.09.16.18.23.27.07.1.14.19.2.29.06.09.12.19.18.29.05.08.1.18.14.27.05.09.09.19.14.29.09.2.18.42.26.66.04.1.07.19.1.29.06.15.11.3.15.46.05.16.09.32.13.47s.08.31.12.47.08.32.11.48c.05.26.1.53.14.8.05.33.09.67.12 1 .01.16.03.32.04.48.021.32.03.64.03.97 0 .44-.02.88-.06 1.32-.01.17-.03.34-.05.5-.03.29-.07.57-.11.85-.05.28-.1.56-.16.84-.11.55-.25 1.09-.42 1.62l-.57 1.77 1.49.6c.38.14.74.31 1.05.56.1.08.19.16.28.26.08.08.16.17.229.26.13.14.23.3.32.47.04.07.08.14.11.21.07.13.13.26.18.4.23.54.37 1.11.49 1.66v.01c.16.74.3 1.49.42 2.24.12.76.22 1.52.3 2.29.21 1.98.28 4.01.22 6.05v.2l-.02.68-.04 1.23v.01l1.67-.05c.15 0 .3-.01.45-.01.711-.02 1.38-.04 2.01-.07 1.52-.05 2.97-.12 4.39-.21l.7-.04c.36 0 .65.17.89.5.77 1.07.91 4.5-.02 10.2-.02.15-.05.31-.08.48-.11.6-.22 1.22-.35 1.86-.49 2.57-1.18 5.53-2.09 8.85l-.6 2.2h.04v.01l1.53.2.69.1c.289.04.59.08.89.12.43.06.85.11 1.27.17.55.08 1.12.15 1.71.23.36.04.72.09 1.07.13.46.06.91.12 1.36.17.21.03.41.06.61.08.67.08 1.36.16 2.06.24.44.05.88.1 1.31.15 1.24.14 2.52.28 3.84.41.54.06 1.08.11 1.63.16.44.04.88.08 1.33.12.06.01.12.01.18.02.92.08 1.84.16 2.78.24 3.211.25 6.55.46 9.95.6.66.02 1.32.05 1.99.07.66.02 1.33.03 2 .05.66.01 1.33.02 2 .03.35.01.69.01 1.03.01h.99c1.89 0 3.74-.03 5.57-.08 1.83-.06 3.62-.14 5.39-.25.77-.05 1.54-.1 2.31-.16 3.81-.3 7.5-.74 11.08-1.3l2.13-.36c.35-.07.7-.13 1.05-.19s.7-.13 1.05-.2c3.78-.74 7.44-1.64 10.99-2.71v-388.01zm478.55 186.92c.58.34 1.16.7 1.72 1.09.28.19.56.39.83.61.55.41 1.08.86 1.59 1.32.23.21.47.44.72.69.13.12.25.25.38.38.55.57 1.11 1.22 1.65 1.94.13.17.26.35.38.53.13.18.25.36.37.55.13.19.25.38.36.58.21.36.42.74.6 1.13.09.18.17.36.25.55s.16.38.23.56c.22.57.39 1.13.53 1.7.29 1.21.38 2.44.29 3.64-.03.3-.06.59-.11.89-.03.2-.07.39-.11.59-.08.38-.18.76-.31 1.14-.12.39-.27.77-.45 1.13l-1.03 2.24 1.78.38c.23.04.45.08.68.14.25.05.5.11.75.17.07.01.15.02.22.05.3.07.6.15.89.23.01 0 .021 0 .03.01.31.08.61.17.91.27l.09.03c.29.09.57.18.85.29.36.12.72.25 1.08.4.35.14.69.28 1.03.44.03.01.05.02.07.03.33.15.67.3.99.47.68.33 1.35.7 2 1.09.32.19.65.39.97.61.229.15.46.3.68.46.15.1.3.2.44.31.25.18.5.37.74.56.3.22.6.46.89.72.289.23.58.48.86.74v.01c.05.05.11.1.17.16.17.15.36.34.54.54.22.25.44.51.63.8.08.11.16.23.23.34.3.49.52 1.02.58 1.56.01.05.01.1.01.15.02.14.02.28 0 .43-.01.12-.03.24-.06.36s-.07.25-.12.37c-.06.16-.14.31-.23.45-.07.11-.15.21-.24.32-.14.14-.28.27-.44.39-.08.06-.16.12-.25.17-.08.05-.16.1-.24.14-.02.01-.03.02-.05.03-.13.07-.26.13-.4.18 0 0 0 .01-.01.01-.03.01-.05.03-.09.03-.01.02-.03.03-.06.02-.11.06-.21.1-.33.13-.16.05-.3.1-.461.14-.03.01-.05.02-.07.02-.44.11-.88.19-1.3.26-.61.1-1.23.19-1.84.27-.01 0-.01 0-.02 0-.62.07-1.24.14-1.87.2-.93.09-1.86.16-2.789.22-.47.02-.94.05-1.4.07-.47.02-.94.03-1.4.05-.81.03-1.62.05-2.43.07-1 .02-2.01.04-3.03.05h-.12c-1.63.02-3.26.04-4.87.09-.53.01-1.07.03-1.61.05-5.02.2-9.72.36-14.15.48-4.47.12-8.71.2-12.8.23-2.73.02-5.48.04-8.29.04-2.74 0-5.53-.01-8.39-.04-1.43-.01-2.88-.02-4.35-.04-1.01-.01-2.04-.03-3.07-.04-1.34-.02-2.7-.04-4.07-.07-1.38-.03-2.77-.06-4.18-.09-.43-.01-.86-.02-1.3-.03-4.289-.09-8.77-.21-13.479-.35-1.2-.04-2.42-.07-3.66-.12-1.24-.04-2.49-.08-3.76-.12-1.23-.04-2.46-.09-3.7-.13-2.47-.09-4.95-.18-7.44-.27-3.87-.15-7.76-.3-11.68-.45-1.38-.06-2.76-.12-4.14-.17l-3.07-.12c-.09 0-.18-.01-.27-.01-.13 0-.25-.01-.37-.02-.22-.01-.44-.03-.65-.07-.16-.02-.31-.05-.47-.09-.16-.03-.33-.08-.48-.14-.11-.04-.22-.09-.32-.14-.29-.14-.55-.34-.79-.57-.12-.11-.24-.24-.34-.38-.21-.27-.4-.59-.55-.93-.07-.17-.14-.35-.2-.54-.12-.38-.2-.79-.25-1.22-.06-.56-.07-1.12-.02-1.69.01-.21.04-.42.08-.64 0-.04.01-.08.02-.12.02-.15.05-.3.09-.45.03-.15.07-.3.11-.45.08-.3.17-.59.29-.89.05-.14.1-.27.16-.41.07-.17.15-.35.24-.52.25-.52.54-1.02.89-1.51.11-.17.23-.33.35-.49s.25-.32.38-.47c.13-.16.27-.31.41-.46s.28-.3.43-.44c2.03-1.96 4.87-3.45 8.439-4.43.8-.23 1.63-.42 2.47-.58.85-.17 1.72-.31 2.61-.42.88-.11 1.79-.2 2.72-.25.48-.02.97-.05 1.46-.06.48-.02.98-.03 1.48-.03.38 0 .75 0 1.13.02.37.01.75.02 1.12.03.75.03 1.5.07 2.25.13.5.04 1.01.08 1.51.13 1.01.09 2.021.2 3.021.33.71.08 1.41.18 2.1.28.72.1 1.44.21 2.14.32.44.06.88.13 1.32.2l.78.13 2.02.32-.36-1.99c-.38-2.03-.75-4.07-1.04-6.13-.09-.68-.18-1.37-.26-2.06-.05-.4-.09-.79-.13-1.19-.05-.52-.1-1.04-.13-1.57-.02-.27-.04-.54-.05-.81-.03-.4-.04-.79-.05-1.19-.01-.21-.02-.42-.02-.64-.02-.83-.01-1.67.02-2.5.01-.36.03-.72.06-1.08.05-.72.12-1.44.2-2.15.03-.26.06-.53.1-.8.04-.25.08-.49.12-.74.16-1.02.36-2.03.6-3.04.1-.4.2-.8.31-1.2.14-.54.3-1.09.47-1.63.14-.44.29-.89.45-1.33.12-.36.25-.71.39-1.06.08-.21.16-.42.25-.63.14-.35.289-.69.439-1.04.29-.66.59-1.32.91-1.96.34-.67.69-1.32 1.06-1.94.15-.25.3-.49.45-.74.15-.24.3-.48.46-.72.15-.24.31-.47.47-.7.27-.39.55-.77.83-1.14.26-.34.52-.67.79-.99.22-.26.43-.51.66-.76.88-.98 1.81-1.86 2.79-2.65.48-.39.98-.75 1.48-1.09.51-.34 1.03-.65 1.55-.94 3.51-1.92 7.85-2.89 12.89-2.89h.4c.34 0 .69.01 1.03.03.07-.01.14 0 .21.01.01-.01.02-.01.03 0h.01c.01-.01.01-.01.02 0 .01-.01.03-.01.04 0 .19 0 .38.01.57.02.31.02.62.04.93.07.1 0 .2.01.3.03.13 0 .25.01.38.03.47.04.94.1 1.4.17.46.06.91.14 1.36.22.479.08.96.18 1.42.29.16.04.32.07.47.11.02 0 .03.01.05.01.43.11.85.22 1.27.35.48.14.95.29 1.41.46s.92.34 1.36.53c.37.16.74.32 1.1.5.22.11.45.22.67.34.21.11.42.22.63.34.33.18.65.37.97.57.54.33 1.06.68 1.57 1.06.2.14.4.29.6.45 1.12.86 2.15 1.82 3.1 2.85.18.19.35.38.51.58.21.23.41.47.6.72.07.07.12.13.16.2.16.2.32.4.47.61.43.57.83 1.16 1.2 1.77.42.68.8 1.37 1.14 2.08.18.35.34.72.5 1.08.16.38.31.75.44 1.14.12.33.23.66.33 1 .06.17.1.33.15.49.05.15.1.31.13.47.07.23.13.46.18.7.09.34.17.69.23 1.03.06.29.12.58.15.86.21 1.28.31 2.58.3 3.88 0 .75-.03 1.49-.11 2.23-.021.22-.04.45-.07.67l-.06.47-.42 3.57 3.13-1.86c.13-.09.28-.18.42-.25.01-.02.03-.03.05-.03.32-.19.64-.36.96-.53.18-.08.35-.17.53-.25.17-.09.35-.17.53-.24.34-.14.68-.27 1.03-.4.32-.11.63-.21.95-.3.32-.1.64-.18.97-.25.21-.05.42-.1.64-.13.17-.04.35-.07.52-.09.06-.02.12-.03.17-.03.22-.04.44-.07.65-.09.28-.04.58-.07.86-.08h.05c.09-.01.18-.01.27-.01.28-.02.57-.03.85-.03h.26c.37.01.729.02 1.1.05.27.02.53.04.8.08.64.07 1.28.17 1.92.31.31.06.62.14.94.23.31.07.63.17.94.27 1.26.39 2.49.9 3.68 1.53.3.15.6.31.89.49zm-232.72-63.87c.02-.21.04-.41.07-.62.05-.41.12-.82.21-1.23.04-.2.09-.41.15-.61.05-.21.11-.41.17-.61.06-.21.12-.41.19-.61.18-.54.39-1.08.64-1.6.24-.52.51-1.04.8-1.55.28-.49.59-.96.92-1.43.16-.23.32-.45.49-.66.17-.23.35-.45.54-.67.16-.2.33-.39.51-.58.29-.33.59-.64.92-.95.1-.1.2-.2.31-.29.14-.13.28-.26.42-.38.15-.14.29-.27.44-.38.13-.11.27-.22.4-.33.51-.42 1.05-.81 1.61-1.18.28-.2.57-.39.87-.57.33-.21.67-.41 1.02-.61.01 0 .021-.01.04-.02.37-.21.74-.41 1.12-.6.38-.2.77-.39 1.17-.57.4-.19.81-.37 1.22-.54.4-.16.8-.32 1.21-.48.21-.08.41-.16.62-.23.11-.03.21-.07.31-.11.11-.04.21-.08.32-.11.42-.15.85-.29 1.29-.42.22-.07.44-.13.67-.2.22-.07.44-.13.67-.19.66-.18 1.33-.35 2-.51.59-.14 1.19-.27 1.79-.39.39-.08.79-.15 1.19-.22.48-.09.97-.17 1.47-.25s1.01-.16 1.52-.21c.27-.04.54-.08.82-.1 1.12-.14 2.27-.25 3.45-.32.28-.02.56-.04.84-.05.52-.03 1.04-.06 1.57-.07.23-.01.47-.02.71-.02.69-.02 1.38-.03 2.09-.03 2.21 0 4.43.09 6.65.24.38.02.76.05 1.14.08.05 0 .1 0 .15.01.36.03.71.06 1.06.09.37.03.74.06 1.11.1.72.07 1.43.14 2.14.22.5.05.99.11 1.48.17.99.12 1.97.25 2.95.38.979.13 1.96.27 2.92.41 1.15.17 2.3.35 3.42.53 1.69.27 3.35.54 4.97.81l.29.05-.02-.14c-.25-1.31-.5-2.63-.74-3.95-.12-.66-.24-1.32-.36-1.98-.12-.67-.24-1.33-.35-2-.11-.64-.22-1.28-.32-1.92-.01-.02-.01-.05-.01-.08-.11-.67-.22-1.34-.32-2.01-.2-1.34-.38-2.68-.54-4.03-.06-.5-.12-1.01-.17-1.51-.06-.5-.11-1.01-.15-1.52-.04-.42-.08-.85-.11-1.28-.08-.97-.14-1.95-.18-2.93-.02-.36-.04-.73-.04-1.09-.01-.03-.01-.04 0-.07v-.01c-.01-.31-.02-.62-.02-.93-.03-1.31-.02-2.63.03-3.95.02-.44.04-.87.07-1.31.02-.44.05-.88.09-1.31.03-.44.07-.88.12-1.31.08-.83.18-1.66.3-2.49.05-.37.1-.74.16-1.11.12-.76.25-1.51.4-2.27.07-.38.15-.76.23-1.14.24-1.13.51-2.25.8-3.37.13-.5.27-1 .41-1.49.07-.25.14-.5.22-.74.08-.25.16-.5.23-.74.36-1.12.74-2.23 1.15-3.33.82-2.2 1.76-4.35 2.82-6.45.27-.54.55-1.08.84-1.6.26-.5.53-.98.81-1.46.32-.54.64-1.07.97-1.6.3-.49.62-.97.94-1.44.3-.46.61-.9.92-1.33.03-.03.05-.07.07-.1.33-.45.65-.88.99-1.31.34-.44.69-.87 1.03-1.29.35-.41.7-.82 1.07-1.21.35-.4.72-.79 1.09-1.17s.75-.76 1.13-1.12c.37-.36.75-.71 1.14-1.04.38-.34.77-.67 1.17-.98.4-.32.8-.63 1.2-.93.37-.28.75-.54 1.13-.8.07-.05.14-.1.22-.14.36-.26.75-.49 1.12-.72.01 0 .02-.01.03-.02.4-.25.81-.48 1.23-.71 5.73-3.12 12.789-4.7 20.98-4.7h.63c7.44.06 14.14 1.34 19.91 3.79 9.62 4.08 17.44 11.87 21.47 21.37.39.91.74 1.84 1.05 2.78 1.61 4.81 2.29 9.98 1.99 15.08-.01.25-.03.5-.05.75-.03.4-.06.79-.11 1.19-.08.72-.18 1.44-.29 2.16-.05.3-.1.61-.16.91l-.95 4.99 4.09-3.01c.04-.03.09-.06.13-.09.05-.03.09-.06.13-.09.43-.31.86-.61 1.31-.88.28-.18.57-.35.86-.52.39-.24.79-.46 1.2-.66.23-.12.47-.24.71-.35.33-.16.67-.31 1.01-.46s.68-.29 1.03-.42c.4-.15.81-.3 1.22-.44s.82-.27 1.24-.39c.31-.09.62-.17.93-.25s.62-.16.94-.22c.31-.07.63-.13.94-.19.32-.06.64-.11.96-.16.15-.03.32-.05.47-.07.05-.01.1-.02.16-.02.39-.05.78-.09 1.17-.13.11-.01.23-.02.34-.02.4-.03.81-.06 1.22-.07.32-.01.65-.02.97-.02h.39c.211 0 .42.01.63.02.22.01.43.01.64.03.22.01.45.02.68.04.12.01.25.02.37.03.41.04.82.08 1.23.14h.02c.49.06.97.14 1.46.23.32.05.63.11.95.18.33.07.66.14.98.22.22.04.439.1.66.16.3.08.59.16.88.24.51.15 1.02.31 1.53.48.5.17 1.01.35 1.51.55.25.1.5.2.75.3 1 .41 1.99.87 2.96 1.38.88.46 1.74.95 2.59 1.49.42.26.83.53 1.24.81.23.15.46.31.69.48.23.16.46.32.69.5.2.14.4.29.59.44.29.23.58.46.87.69.04.03.07.06.1.09.09.07.17.14.25.21.06.05.12.1.18.15.33.28.65.56.97.85.29.26.57.52.84.8.41.4.82.81 1.21 1.22.19.19.37.39.54.59.18.19.35.39.52.59.21.24.41.47.59.71.17.21.34.42.51.64.82 1.06 1.54 2.14 2.16 3.24.15.24.29.48.41.73.16.3.32.6.46.9.29.6.55 1.21.79 1.82.09.23.18.46.25.69.01.03.02.06.03.1.08.21.15.43.21.65.07.2.13.4.18.61.07.24.13.47.19.71.45 1.9.6 3.82.47 5.68-.01.18-.02.36-.04.54-.02.26-.05.52-.09.78-.039.3-.09.6-.15.9.01.01.01.02 0 .02-.07.37-.15.74-.25 1.1-.02.09-.039.18-.07.28-.02.09-.05.18-.08.27-.05.19-.11.37-.17.55-.12.36-.25.71-.39 1.06s-.29.69-.46 1.02c-.11.24-.24.48-.37.72-.14.26-.3.52-.45.77l-1.16 1.99 2.84.49c.2.03.4.07.6.11.33.06.65.13.98.2.1.01.2.03.29.06l.69.15c.48.11.961.23 1.43.36l.75.21c.01-.01.02-.01.02 0 .28.08.56.16.84.25.14.05.28.09.41.13.14.03.28.08.42.14 3.67 1.2 7.2 2.85 10.47 4.89.04.01.08.03.11.07.33.2.66.41.98.63.46.31.92.62 1.37.94s.9.66 1.34 1c.96.74 1.9 1.52 2.79 2.34.09.08.18.17.27.26.12.12.25.24.38.38.14.14.27.28.4.42.23.25.47.52.69.81.13.16.25.32.37.49.08.11.15.22.22.33.16.25.32.5.45.76.07.14.15.28.21.43.11.24.21.48.28.73.04.11.07.21.09.31.02.07.04.14.05.21.01.06.02.11.03.17.02.06.02.11.03.17.01.08.021.17.03.25.06.63-.02 1.28-.27 1.92-.06.16-.14.31-.22.46s-.17.29-.27.43c-.09.13-.19.26-.31.38-.23.25-.48.47-.75.67-.25.21-.54.38-.86.54-.13.07-.26.13-.4.19-.12.06-.24.11-.37.16-.15.07-.31.13-.47.18-.35.13-.73.24-1.13.35-.03.01-.05.02-.07.02-.33.08-.65.15-.96.21-.34.07-.67.13-.98.18-.64.1-1.28.19-1.91.28-.64.09-1.28.17-1.92.24-.62.07-1.24.14-1.87.2-.62.06-1.24.12-1.86.17-.04 0-.08 0-.11.01-.97.08-1.94.15-2.92.2-2.22.13-4.44.22-6.64.27-.52.02-1.04.03-1.56.04-1.79.04-3.58.07-5.35.09-3.46.04-7.07.09-10.6.23-2.03.08-4.03.16-6.01.23-2.61.1-5.17.19-7.68.27-.63.03-1.25.05-1.87.06-1.32.04-2.63.08-3.93.12-2.45.07-4.87.14-7.25.19-.56.01-1.12.03-1.68.04-5.26.12-10.36.2-15.36.24-4.43.04-8.9.06-13.45.06-21.81 0-45.7-.46-75.189-1.46-8.24-.27-16.561-.58-24.84-.9-2.47-.09-4.94-.19-7.4-.29-4.38-.17-8.72-.34-13.03-.51l-.64-.03c-.92-.04-1.83-.07-2.73-.11h-.15c-1.34-.06-2.86-.12-4.14-.76-.15-.08-.29-.16-.43-.25-.06-.03-.12-.07-.18-.12-.06-.04-.12-.09-.18-.13-.15-.11-.29-.23-.43-.36-.13-.12-.25-.24-.36-.37-.08-.08-.16-.17-.22-.26-.06-.07-.12-.15-.17-.23-.06-.08-.12-.16-.17-.24-.07-.1-.13-.2-.19-.3-.18-.32-.35-.65-.5-1.01-.06-.16-.12-.32-.18-.48-.07-.22-.14-.44-.2-.66-.12-.48-.21-.98-.27-1.51-.08-.7-.1-1.42-.08-2.14.009-.2.029-.41.039-.61zm-161.97 57.73c.42-1.56.91-3.11 1.46-4.64.37-1.02.76-2.03 1.19-3.03.63-1.49 1.32-2.97 2.07-4.42.49-.96 1.02-1.92 1.57-2.86.94-1.61 1.94-3.18 3.01-4.7.36-.52.74-1.04 1.11-1.54 1.78-2.37 3.7-4.63 5.78-6.75.38-.39.77-.77 1.16-1.15.39-.39.79-.77 1.2-1.14.8-.74 1.61-1.46 2.45-2.16l.01-.01c.83-.7 1.69-1.37 2.56-2.03.44-.33.88-.65 1.33-.97.56-.4 1.12-.79 1.68-1.16 1.71-1.13 3.46-2.18 5.27-3.14 3.09-1.64 6.32-3.03 9.66-4.16 1.67-.56 3.38-1.05 5.11-1.48s3.48-.79 5.26-1.08c1.18-.19 2.39-.35 3.6-.47 2.04-.2 4.1-.31 6.18-.31 3.11 0 6.23.23 9.31.69.63.09 1.25.19 1.87.29.62.11 1.24.22 1.85.35 1.23.25 2.46.53 3.68.86 1.22.31 2.42.66 3.62 1.05.6.19 1.2.39 1.8.6 3.77 1.32 7.44 2.96 10.93 4.91.7.38 1.39.78 2.07 1.19.41.24.82.49 1.22.75 1.39.86 2.74 1.78 4.06 2.75.75.56 1.5 1.12 2.23 1.71 1.1.87 2.17 1.78 3.2 2.73.35.32.69.64 1.03.95.34.33.67.65 1 .98.33.32.66.65.98.99 1.29 1.33 2.52 2.73 3.68 4.17 1.26 1.56 2.44 3.18 3.54 4.86.66 1.01 1.29 2.03 1.88 3.08.2.34.39.69.59 1.05.39.7.76 1.41 1.11 2.13 1.25 2.51 2.34 5.11 3.24 7.77.23.65.44 1.3.63 1.95.74 2.42 1.33 4.89 1.77 7.38.14.79.26 1.58.37 2.37.05.4.1.8.15 1.2.13 1.2.23 2.4.3 3.6.22 4.04.04 8.17-.52 12.32-.5 3.62-1.29 7.25-2.38 10.85-.18.6-.36 1.2-.56 1.79-.78 2.39-1.69 4.76-2.72 7.1-.25.56-.49 1.11-.75 1.65-.5 1.09-1.03 2.16-1.58 3.2 0 0-.01 0-.01.01-.54 1.04-1.11 2.05-1.7 3.05-1.6 2.71-3.34 5.24-5.22 7.58-.62.77-1.25 1.51-1.88 2.24-.64.73-1.3 1.43-1.97 2.11-.38.38-.76.76-1.15 1.13-.38.38-.77.74-1.16 1.1-4.38 3.98-9.53 7.25-15.11 9.69-7.18 3.14-15.11 4.92-23.14 5.09h-.11c-.39.01-.8.02-1.19.02-2.58 0-5.17-.16-7.77-.48-.84-.11-1.68-.23-2.52-.36-1.24-.2-2.48-.43-3.71-.7-.66-.14-1.33-.3-1.99-.46-.01-.01-.021-.01-.03-.01-.81-.19-1.62-.41-2.42-.64-1.22-.35-2.44-.73-3.64-1.15-.29-.09-.58-.19-.86-.3-.52-.18-1.05-.38-1.56-.57-.79-.31-1.58-.63-2.37-.96-.4-.17-.8-.34-1.19-.51-.78-.35-1.56-.71-2.33-1.09-2.71-1.31-5.36-2.79-7.91-4.44-4.22-2.72-8.11-5.83-11.57-9.23-.38-.37-.75-.75-1.12-1.12-.28-.28-.55-.57-.82-.86-1.61-1.72-3.13-3.5-4.53-5.34-.24-.31-.46-.62-.69-.93-.3-.42-.59-.83-.88-1.25-.33-.48-.66-.97-.97-1.45-9.45-14.57-12.34-33.35-7.74-50.24z" fill="#5b5d6d"/><path d="m443.584 224.406c-13.501 0-28.2-.285-46.262-.897-9.851-.335-19.821-.726-30.021-1.13-.857-.04-1.773-.083-2.547-.46-1.185-.615-1.954-1.933-2.159-3.64-.33-2.969.955-6.162 3.436-8.557 2.031-1.962 4.871-3.453 8.441-4.43 3.219-.895 6.733-1.331 10.738-1.331 6.002 0 12.062 1.008 17.408 1.897-1.121-5.881-2.277-11.958-2.036-18.096.221-5.741 1.712-11.503 4.312-16.662 2.698-5.352 6.34-9.386 10.53-11.666 3.511-1.92 7.848-2.895 12.886-2.895l.401.002c4.581.043 8.706.826 12.259 2.328 5.917 2.513 10.732 7.31 13.212 13.162 2.483 5.837 2.563 12.576.218 18.488 2.952-4.045 8.174-6.559 13.623-6.559l.256.002c5.06.066 10.313 2.247 14.409 5.982 1.986 1.797 4.554 4.756 5.478 8.612.842 3.561-.01 7.267-2.222 9.678 6.111.622 11.952 3.234 16.448 7.354 1.063.963 2.744 2.867 1.974 4.714-.571 1.554-2.652 2.059-4.165 2.296-4.918.786-9.707.852-14.778.922l-.125.002c-2.164.03-4.335.061-6.475.148-9.964.402-18.781.631-26.955.702-2.726.022-5.48.034-8.284.034z" fill="#939baa"/><path d="m377.467 135.78c-21.81 0-45.701-.464-75.185-1.461-15.073-.503-30.427-1.112-45.273-1.7l-3.521-.141c-1.342-.056-2.861-.119-4.142-.759-1.891-.946-3.16-3.1-3.483-5.911-.55-4.798 1.536-9.99 5.58-13.889 3.289-3.17 7.902-5.595 13.714-7.207 5.302-1.456 11.006-2.163 17.443-2.163 9.578 0 19.358 1.614 27.988 3.038l.297.049-.026-.132c-1.801-9.529-3.664-19.383-3.276-29.263.359-9.323 2.781-18.681 7.002-27.062 4.369-8.687 10.281-15.245 17.098-18.965 5.73-3.124 12.789-4.708 20.979-4.708l.629.003c7.441.063 14.143 1.337 19.913 3.789 9.614 4.082 17.441 11.871 21.469 21.37 4.036 9.505 4.159 20.458.338 30.051 4.821-6.572 13.315-10.653 22.175-10.653l.383.002c8.227.106 16.763 3.646 23.42 9.712 4.642 4.224 7.716 9.064 8.889 13.996 1.373 5.792-.008 11.814-3.604 15.718 9.917 1.018 19.412 5.259 26.729 11.949 1.716 1.572 4.414 4.652 3.228 7.627-1.033 2.571-4.37 3.385-6.79 3.774-8.031 1.269-16.217 1.383-24.133 1.494-3.469.041-7.071.09-10.605.23-15.926.653-30.248 1.03-43.781 1.152-4.429.04-8.903.06-13.455.06z" fill="#939baa"/><path d="m263.738 380.45c-4.753-3.814-10.366-6.471-16.232-7.682-1.809-.376-3.126-.777-4.15-1.26l-6.398-3.02 7.032-.776c6.421-.709 12.945-.76 19.255-.81l129.853-.842c.774-.005 1.553-.007 2.332-.007 4.05 0 8.199.063 11.86.117l.234.003c3.739.051 7.606.104 11.441.104 5.732 0 10.422-.119 14.756-.375l1.591-.094.447 1.529c.303 1.035.571 3.188-.578 9.899l-.285 1.662h-1.687c-55.768 0-112.064.595-167.328 1.77l-1.147.576z" fill="#935252"/><path d="m364.579 420.029c-4.989 0-9.963-.111-14.171-.22-13.822-.362-28.53-.93-43.035-3.48-7.114-1.242-15.223-3.192-21.397-8.23-4.41-3.594-7.385-8.297-10.534-13.277-2.123-3.36-4.27-6.757-6.84-9.71-.339-.396-.676-.761-1.022-1.126l-3.113-3.282 4.523-.094c54.473-1.135 109.466-1.711 163.452-1.711h2.465l-.508 2.412c-.843 4.001-1.776 7.564-2.379 9.078-3.519 8.962-9.436 16.327-16.657 20.728-2.943 1.81-6.177 3.26-9.879 4.429-3.683 1.166-7.881 2.073-12.832 2.773-8.133 1.167-17.054 1.71-28.073 1.71z" fill="#af7979"/><path d="m418.989 366.273c-4.001 0-8.089-.055-11.695-.103-3.667-.055-7.82-.117-11.879-.117-.776 0-1.551.003-2.322.007l-17.413.115.275-2.257c.348-2.849.948-5.656 1.786-8.343 1.185-3.833 2.652-6.11 4.757-7.378 2.087-1.253 4.672-1.357 6.931-1.357h.3c10.114.02 20.306.86 30.285 2.497.993.158 1.955.349 2.695.934.986.773 1.35 2.09 1.612 3.263.751 3.479 1.065 7.103.938 10.787l-.066 1.909-1.91.022c-1.431.014-2.864.021-4.294.021z" fill="#935252"/><path d="m418.383 349.086c-5.245-.815-10.615-1.414-15.96-1.781l-1.476-.101-.336-1.44c-.418-1.793-.64-3.604-.661-5.381-.048-2.332.316-4.053 1.147-5.402 1.859-3.006 5.592-3.423 6.691-3.479.215-.011.434-.017.652-.017 2.434 0 4.885.684 7.048 1.288 1.597.437 3.005.888 3.971 1.95.499.548.871 1.248 1.243 2.34 1.154 3.449 1.108 7.251-.128 10.717l-.556 1.559z" fill="#935252"/><path d="m386.83 266.31h7v80.589l-2.724-.042c-.46-.009-.921-.018-1.387-.018-.02 0-.039 0-.06 0-.249 0-.505 0-.762.009l-2.068.071v-80.609z" fill="#935252"/><path d="m349.45 344.454 1.386-.447c6.495-2.095 13.253-3.157 20.086-3.157 4.817 0 9.643.535 14.346 1.589l1.563.351v4.063l-1.599.328c-1.063.218-1.959.552-2.737 1.022-2.696 1.627-3.956 4.793-4.754 7.369-.881 2.844-1.504 5.82-1.853 8.848l-.203 1.76-26.234.164v-21.89z" fill="#5b5d6d"/><path d="m350.569 341.12c3.601-25.479 15.247-49.906 32.796-68.782l3.465-3.727v74.153l-2.412-.508c-4.426-.932-8.965-1.404-13.49-1.404-6.03 0-12.03.832-17.834 2.472l-2.954.835z" fill="#f0f2fa"/><path d="m341.67 239.206 1.482-.398c1.132-.304 2.304-.457 3.482-.457.319 0 .639.011.957.034l1.859.131v127.833l-7.78.042z" fill="#935252"/><path d="m337.79 338.182c-5.766-15.887-8.781-30.127-9.219-43.537-.522-15.802 2.705-30.719 9.334-43.137l3.765.942v85.05z" fill="#5b5d6d"/><path d="m270.185 344.07c4.345-26.787 17.081-52.313 35.862-71.875 8.595-8.948 18.238-16.603 30.073-25.344l2.92 2.609c-7.296 12.627-11.015 28.674-10.472 45.184.472 14.449 3.948 29.923 10.628 47.309l1.015 2.642-70.412 1.858z" fill="#f0f2fa"/><path d="m211.64 193.94c-.07-1.2-.17-2.41-.31-3.6-.05-.4-.1-.8-.15-1.2-.11-.79-.23-1.58-.37-2.37-.44-2.49-1.03-4.96-1.77-7.38-.2-.65-.41-1.3-.63-1.95-.9-2.66-1.99-5.26-3.24-7.77-.36-.72-.73-1.43-1.11-2.13-.2-.36-.39-.71-.59-1.05-.6-1.05-1.229-2.07-1.88-3.08-1.1-1.68-2.28-3.3-3.54-4.86-1.16-1.44-2.39-2.84-3.68-4.17-.32-.34-.65-.67-.98-.99-.33-.33-.66-.65-1-.98-.34-.31-.68-.63-1.03-.95-1.04-.94-2.11-1.85-3.2-2.73-.73-.59-1.48-1.15-2.23-1.71-1.32-.96-2.67-1.88-4.06-2.75-.4-.26-.81-.51-1.22-.75-.68-.41-1.37-.81-2.07-1.19-3.49-1.95-7.16-3.59-10.93-4.91-.6-.21-1.2-.41-1.8-.6-1.2-.39-2.4-.74-3.62-1.05-1.22-.33-2.45-.61-3.68-.86-.61-.13-1.23-.24-1.85-.35-.62-.1-1.24-.2-1.87-.29-3.08-.46-6.2-.69-9.31-.69-2.08 0-4.14.11-6.18.31-1.21.13-2.41.29-3.59.48-1.79.29-3.54.65-5.27 1.07-1.73.43-3.44.92-5.11 1.48-3.35 1.12-6.57 2.51-9.66 4.15-1.81.96-3.56 2.01-5.27 3.15-.56.37-1.12.76-1.68 1.16-.45.32-.89.64-1.33.97-.87.66-1.73 1.33-2.56 2.03l-.01.01c-.84.7-1.65 1.42-2.45 2.16-.41.37-.81.75-1.2 1.14-.39.38-.78.76-1.16 1.15-2.08 2.12-4 4.38-5.78 6.75-.37.5-.75 1.02-1.11 1.54-1.07 1.52-2.07 3.09-3.01 4.7-.55.94-1.07 1.89-1.57 2.86-.75 1.45-1.44 2.93-2.07 4.42-.42 1-.82 2.01-1.19 3.03-.55 1.53-1.04 3.08-1.46 4.64-4.6 16.89-1.71 35.67 7.74 50.24.31.48.64.97.97 1.45.29.42.58.83.88 1.25.23.31.45.62.69.93 1.39 1.84 2.9 3.62 4.53 5.34.27.29.54.58.82.86.37.37.74.75 1.12 1.12 3.46 3.4 7.35 6.51 11.57 9.23 2.55 1.65 5.2 3.13 7.91 4.44.77.38 1.55.74 2.33 1.09.39.17.79.34 1.19.51.79.33 1.58.65 2.37.96.51.19 1.04.39 1.56.57.28.11.57.21.86.3 1.2.42 2.42.8 3.64 1.15.8.22 1.61.44 2.42.64.01 0 .02 0 .03.01.66.16 1.33.32 1.99.46 1.23.27 2.47.5 3.71.7.84.13 1.68.25 2.52.36 2.59.31 5.18.47 7.75.47.41 0 .81 0 1.21-.01h.11c8.03-.17 15.96-1.95 23.14-5.09 5.58-2.45 10.72-5.72 15.1-9.7.4-.36.79-.72 1.17-1.09.39-.37.77-.75 1.15-1.13.67-.68 1.32-1.39 1.97-2.11.63-.73 1.26-1.47 1.88-2.24 1.88-2.34 3.62-4.87 5.22-7.58.58-.99 1.15-2.01 1.7-3.05 0-.01.01-.01.01-.01.54-1.04 1.07-2.11 1.58-3.2.26-.54.5-1.09.75-1.65 1.03-2.34 1.94-4.71 2.72-7.1.2-.59.38-1.19.56-1.79 1.09-3.6 1.88-7.23 2.38-10.85.57-4.15.75-8.28.53-12.32zm-23.36 26.2c-.4.28-.8.54-1.2.8-.2.13-.39.25-.59.36-.4.23-.8.45-1.19.66-.99.52-1.97.93-2.94 1.25-.28.09-.56.17-.84.25-.25.07-.5.13-.75.19-.19.05-.37.08-.57.11-.38.08-.76.13-1.14.17-.16.02-.33.03-.49.04-.32.03-.64.04-.96.04-.14 0-.28-.01-.43-.01-.29-.01-.59-.03-.88-.06-.07 0-.13-.01-.19-.02-.22-.02-.43-.05-.64-.09-.539-.08-1.08-.2-1.62-.36-.19-.05-.37-.11-.56-.17-.25-.08-.51-.17-.76-.27-.29-.11-.58-.23-.86-.36-.29-.13-.57-.27-.86-.42s-.57-.31-.85-.47c-.29-.17-.57-.35-.86-.53-.29-.2-.58-.41-.87-.62-.25-.19-.49-.38-.74-.58-.12-.1-.25-.2-.37-.31-.47-.4-.93-.83-1.38-1.3-.3-.3-.57-.6-.84-.9-.14-.16-.26-.31-.39-.46-.24-.3-.47-.6-.69-.9-.14-.2-.27-.4-.4-.6-.12-.19-.24-.39-.36-.59-.09-.15-.17-.3-.25-.45-.28-.52-.51-1.05-.69-1.58-.11-.31-.2-.62-.28-.93s-.14-.61-.18-.92c-.03-.23-.06-.46-.07-.68-.02-.15-.02-.28-.02-.42-.02-.35-.01-.69.01-1.04 0-.08.01-.16.02-.24.01-.19.03-.39.05-.59.03-.26.07-.51.12-.77.09-.5.2-1 .33-1.49.12-.51.27-1.01.43-1.5.07-.21.13-.41.2-.61 1.41-4.29 3.03-7.53 5.1-10.2.26-.33.52-.65.79-.96.26-.3.53-.59.8-.87.14-.14.28-.28.42-.41.13-.13.27-.26.42-.39.6-.54 1.22-1.03 1.85-1.44.11-.08.22-.15.33-.21.15-.1.3-.19.45-.27.4-.23.81-.43 1.22-.61.21-.09.41-.18.63-.25.16-.07.32-.12.49-.17.1-.04.19-.07.29-.09.16-.05.32-.1.48-.13.42-.1.85-.18 1.28-.23.18-.02.36-.04.55-.05.25-.02.5-.03.74-.03 2.77 0 5.51 1.06 8.14 3.15.27.22.53.43.79.66.18.15.35.31.53.49.21.19.42.39.62.6.13.12.24.24.35.36.11.11.21.22.32.34.47.52.92 1.06 1.34 1.62 1.4 1.82 2.5 3.85 3.27 6 .27.71.49 1.44.68 2.18.19.76.35 1.53.46 2.3.06.35.1.7.13 1.05.07.64.1 1.26.1 1.87 0 .18-.01.37-.01.55 0 .13-.01.27-.02.4-.01.3-.04.6-.08.9-.01.11-.02.21-.04.32-.01.1-.03.21-.05.31-.02.17-.05.34-.09.5-.06.32-.14.64-.22.95-.11.4-.24.79-.39 1.16-.06.16-.13.31-.21.47-.07.16-.15.31-.23.46-.07.16-.15.31-.25.46-.17.31-.36.61-.56.91-.1.15-.21.29-.32.44-.19.26-.4.52-.62.77-.2.23-.41.46-.63.69-.15.16-.31.32-.47.47-.16.16-.32.31-.5.47-.34.31-.7.61-1.09.91-.13.11-.26.21-.4.31-.27.21-.55.41-.84.61zm-43.41 27.2c-.19 0-.37 0-.54-.01-.1-.01-.2-.01-.3-.02-.14-.01-.29-.02-.43-.04-.44-.05-.87-.12-1.28-.22-.27-.07-.539-.14-.8-.24-.26-.08-.52-.18-.78-.3-.23-.1-.47-.21-.69-.33-.08-.04-.16-.08-.23-.13-.17-.09-.33-.18-.49-.29-.49-.3-.95-.64-1.37-1.01-.21-.18-.41-.37-.59-.57-.19-.19-.37-.39-.54-.6-.18-.21-.34-.42-.49-.64-.309-.44-.59-.9-.82-1.38-.22-.45-.4-.91-.54-1.38-.02-.06-.04-.12-.05-.18-.06-.22-.12-.45-.16-.68 0 0 0 0 0-.01-.05-.23-.09-.47-.11-.71-.03-.28-.05-.57-.05-.86 0-.3.02-.59.05-.89 0-.07.01-.13.02-.2.03-.26.07-.51.13-.76.03-.17.07-.34.12-.51.06-.24.13-.48.21-.72.06-.14.11-.29.17-.44.08-.2.16-.4.25-.59s.18-.37.27-.56c.01-.01.01-.02.02-.03.1-.19.21-.38.33-.57.11-.19.23-.38.36-.56.25-.37.53-.73.83-1.08.15-.18.31-.35.47-.52.15-.17.32-.34.49-.5.33-.31.67-.6 1.03-.88.35-.27.71-.53 1.08-.77s.76-.46 1.15-.66c.191-.11.39-.21.59-.29.42-.21.85-.38 1.28-.53.28-.1.55-.19.83-.27s.56-.15.84-.22c.12-.03.24-.05.36-.07.13-.03.25-.05.39-.07.21-.04.41-.06.62-.08.43-.05.85-.08 1.28-.08.17 0 .33 0 .5.02.539.02 1.07.08 1.59.2.17.03.34.07.51.11.68.16 1.33.39 1.94.7.3.15.6.32.9.5.18.12.36.24.53.36.16.12.32.23.47.36.36.29.7.6 1.021.94.38.4.72.84 1.01 1.31s.54.97.74 1.5.35 1.08.45 1.64c.02.1.04.21.05.31.03.17.05.34.07.52.01.05.01.11.02.17 0 .11.01.23.01.35.02.48 0 .96-.05 1.45-.05.46-.13.92-.24 1.38-.12.45-.26.91-.43 1.36-.07.17-.14.33-.21.49-.07.17-.15.33-.23.49-.28.56-.6 1.1-.97 1.63-.17.24-.35.49-.54.72-.03.04-.06.08-.09.12-.21.26-.43.5-.66.74-.51.54-1.06 1.02-1.64 1.45-.18.14-.36.27-.54.39-.3.21-.61.41-.93.58-.24.13-.48.26-.73.38-1.731.82-3.611 1.28-5.461 1.28zm-34.35-74.8c-.33-.12-.65-.26-.95-.42-.14-.06-.27-.14-.39-.22-.13-.07-.26-.15-.38-.24-.53-.35-.99-.77-1.35-1.23-.07-.09-.14-.17-.2-.26-.07-.08-.12-.17-.18-.26-.23-.36-.4-.73-.53-1.11-.07-.2-.13-.4-.18-.6-.04-.21-.08-.42-.11-.64-.06-.5-.07-1.02-.02-1.56.01-.13.02-.26.04-.39s.04-.26.06-.39c.03-.13.05-.27.08-.4.03-.14.07-.27.1-.41.09-.35.2-.7.32-1.04.27-.77.61-1.49.93-2.09.1-.19.21-.38.32-.57.17-.3.35-.59.54-.88.1-.17.22-.34.33-.51.36-.58.76-1.15 1.2-1.7.14-.19.28-.37.43-.55 0-.02.02-.05.05-.07.12-.17.26-.33.4-.5.31-.38.64-.75.97-1.11.29-.32.6-.65.91-.95.3-.31.62-.62.94-.91.31-.3.64-.59.97-.85 1.56-1.35 3.29-2.53 5.16-3.44.28-.13.57-.27.85-.39.15-.07.31-.14.47-.2.2-.09.41-.17.61-.24.09-.03.19-.07.28-.1.12-.05.23-.09.35-.12.21-.08.41-.14.63-.2.03-.01.05-.01.08-.02.24-.07.48-.13.74-.18h.01c.2-.05.41-.09.63-.11.01-.01.01-.01.02 0 .11-.02.22-.04.34-.05.11-.02.23-.03.34-.03.31-.04.63-.06.95-.06.16-.01.33-.01.49-.01.4 0 .81.01 1.21.04.59.04 1.19.12 1.77.22.01.01.02.01.04.01.58.11 1.15.24 1.69.41 1.68.5 3.06 1.24 4.11 2.16.01.01.03.03.05.04.06.05.11.1.17.16.04.03.07.07.11.11.08.08.16.16.23.24.21.23.41.46.58.71.1.13.18.27.26.41.07.13.14.26.2.39.07.13.13.27.18.41.03.07.05.14.08.21.02.07.05.14.07.21v.01c.05.15.09.31.12.47.04.14.06.29.08.43.021.13.04.25.04.37v.01c.021.19.03.38.03.57 0 .16-.01.33-.02.49-.01.19-.03.38-.06.57-.18 1.26-.67 2.59-1.47 3.98-.17.29-.35.59-.55.89s-.41.61-.64.91c-.51.68-1.05 1.33-1.61 1.96-.28.32-.58.63-.88.92-.54.55-1.1 1.07-1.69 1.57-.2.18-.4.35-.61.51-.13.12-.26.22-.4.32-.14.11-.28.22-.41.32-.27.21-.55.41-.84.61-.46.33-.94.65-1.43.94-.3.19-.6.37-.91.54-.21.13-.43.25-.65.36-.22.12-.44.23-.66.34-.68.35-1.36.66-2.06.94-.32.13-.63.26-.96.37-.36.14-.73.26-1.1.37-.13.05-.27.09-.4.13-.2.07-.4.13-.6.17-.04.02-.08.03-.13.03-.12.04-.24.07-.36.1-.02.01-.04.02-.07.02-.33.09-.65.17-.99.24-.36.08-.71.14-1.05.2-.69.11-1.35.19-1.97.23-.32.02-.63.03-.93.03h-.01c-.35 0-.69-.01-1.02-.04-.34-.03-.67-.07-.98-.12-.22-.03-.45-.08-.66-.13-.05-.01-.09-.02-.13-.03-.17-.04-.32-.08-.48-.14-.01.01-.01.01-.02 0-.06-.02-.13-.04-.19-.07-.11-.03-.22-.07-.33-.11zm7.23 20.23c.05-.18.1-.36.16-.53.05-.18.11-.35.17-.52.05-.17.11-.33.18-.5.06-.15.12-.31.18-.46.01-.04.03-.08.05-.12.1-.23.2-.45.31-.68.16-.35.34-.69.53-1.02.16-.28.33-.56.5-.84.12-.2.25-.39.39-.58.11-.16.22-.32.34-.48.07-.11.15-.21.24-.31.08-.12.17-.23.27-.34.3-.39.63-.76.98-1.12.07-.07.14-.14.21-.21.2-.21.4-.4.61-.59s.43-.38.65-.56c.44-.37.89-.71 1.37-1.03.49-.33 1-.63 1.52-.91.21-.11.42-.22.64-.33.33-.16.67-.3 1.01-.44.32-.13.65-.25.98-.36.16-.06.32-.11.48-.15.76-.24 1.54-.42 2.34-.55h.01c.85-.14 1.74-.21 2.63-.21.77 0 1.54.05 2.3.15.03-.01.06 0 .1.01.16.02.31.04.48.07.01 0 .02 0 .04.01.18.03.34.06.52.1.04-.01.07 0 .11.02.12.01.25.04.37.07.03 0 .05.01.08.02.19.04.38.09.56.14.25.07.5.14.74.21.25.07.49.15.73.24.65.23 1.28.49 1.9.78.24.11.47.22.69.35.22.12.45.24.67.37s.44.26.66.4c.44.27.86.56 1.26.87.2.15.4.31.6.47.39.31.77.65 1.13 1.01.24.24.47.48.71.72v.01c.22.25.44.51.65.77.41.51.79 1.04 1.14 1.6.2.32.39.65.57.99.07.12.13.24.19.37.22.43.42.87.6 1.32.06.13.11.26.15.4.05.1.08.2.11.3.04.1.07.2.1.3.07.2.13.4.19.6.08.25.15.51.2.77.07.28.14.56.18.84.01.01.01.02.01.04.06.26.1.52.13.79.06.43.11.86.13 1.3.03.62.03 1.24-.01 1.87-.01.32-.04.65-.08.98-.03.32-.07.65-.13.98v.02c-.1.65-.25 1.3-.43 1.95-.09.33-.19.66-.29.99-.21.65-.46 1.29-.74 1.93-1.06 2.42-2.47 4.44-4.2 6-.42.39-.87.75-1.35 1.08-.14.1-.29.2-.43.29-.11.08-.22.16-.34.22-.06.03-.12.07-.18.11-.01.01-.02.02-.03.03-.04.02-.07.04-.11.06-.01.01-.02.01-.03.01-.24.14-.49.28-.74.41s-.51.25-.76.37c-.26.12-.52.23-.78.33-.25.09-.5.18-.75.26-.04.02-.08.03-.12.04-.16.05-.31.1-.47.14-.061.03-.12.04-.18.05-.41.12-.82.22-1.24.3-.07.02-.13.03-.2.04-.01.01-.02.01-.03 0h-.01c-.31.06-.63.11-.94.15-.35.04-.711.07-1.06.1-.22.02-.43.03-.65.03h-.09c-.06.01-.23.01-.26.01-.11 0-.22 0-.34-.01-.11-.01-.23-.01-.34-.01-.22 0-.44-.02-.67-.04-.22-.01-.44-.03-.67-.07-.67-.07-1.34-.19-2.01-.34-.44-.1-.88-.22-1.309-.35-.53-.16-1.061-.35-1.59-.56-.23-.09-.45-.19-.68-.29-.25-.1-.49-.22-.729-.34-.24-.11-.48-.23-.71-.36-.16-.08-.31-.17-.46-.26-.31-.17-.61-.36-.91-.55-.5-.32-.98-.66-1.45-1.03-.18-.14-.35-.28-.51-.41-.3-.25-.58-.5-.86-.77-.05-.03-.1-.08-.15-.13-.29-.28-.57-.57-.84-.86-.22-.24-.44-.48-.64-.73-.17-.21-.34-.42-.49-.63-.09-.12-.19-.25-.28-.38-.13-.18-.25-.36-.37-.54-2.572-3.96-3.362-9.06-2.112-13.66zm33.19-32.08c.26-.03.54-.05.81-.05.3 0 .6.02.9.06.15.02.3.04.45.07.16.02.31.05.46.09.12.03.25.06.37.1.22.06.43.13.65.21.17.06.34.13.51.2.23.1.46.21.68.33.68.35 1.32.79 1.91 1.3.15.12.289.25.42.38.25.23.47.48.68.73.07.07.14.16.2.24.02.02.04.03.05.05.07.08.14.17.2.25.13.18.26.36.38.55 0 0-.01 0 0 .01.13.18.24.37.33.56.18.32.33.64.45.97.05.12.09.25.13.37.08.23.15.47.19.7.03.11.05.23.07.35.01.04.02.08.02.11.05.3.07.6.07.9 0 .11 0 .22-.01.34 0 .09-.01.19-.02.29 0 .05-.01.1-.01.15-.02.18-.05.35-.09.53-.04.17-.08.34-.13.51-.04.15-.09.31-.15.46-.13.35-.29.68-.48 1.01-.1.18-.22.35-.35.51-.1.13-.21.25-.32.37-.12.12-.24.24-.37.35-.26.22-.55.44-.88.64-.31.19-.64.37-.98.52-.34.16-.69.29-1.05.39-.17.05-.35.1-.54.14-.35.09-.71.14-1.06.17-.19.01-.39.03-.58.03h-.14c-1.57 0-3.23-.42-5.21-1.33-.42-.19-.81-.41-1.17-.67-.07-.05-.15-.1-.22-.16-.24-.18-.47-.37-.68-.58-.24-.22-.461-.47-.64-.72-.2-.25-.38-.52-.52-.8-.09-.14-.16-.28-.21-.42-.15-.29-.26-.59-.34-.9-.09-.31-.16-.63-.2-.95-.03-.16-.05-.32-.05-.49-.01-.16-.02-.33-.02-.5-.01-.23 0-.47.02-.71.11-1.2.5-2.31 1.11-3.27.07-.11.14-.21.22-.32.07-.1.15-.21.23-.31.18-.24.38-.47.61-.69.13-.13.27-.26.42-.38.14-.12.29-.24.45-.35.12-.09.25-.18.39-.26.24-.16.5-.3.78-.42.07-.04.14-.07.21-.09.18-.09.38-.16.58-.23.22-.09.45-.15.68-.21.25-.06.52-.11.79-.13z" fill="#d8deec"/><path d="m177.185 223.999c-3.969-.115-8.037-2.088-11.45-5.556-2.355-2.413-3.724-4.877-4.074-7.33-.368-2.494.292-5.001 1.059-7.337 1.416-4.29 3.039-7.533 5.108-10.209 2.732-3.53 6-5.615 9.452-6.032.436-.05.866-.075 1.29-.075 2.768 0 5.508 1.061 8.144 3.154 4.73 3.745 7.904 9.575 8.486 15.593.262 2.644-.009 4.988-.806 6.962-1.018 2.526-3.018 4.81-6.117 6.979-3.66 2.56-7.247 3.858-10.663 3.858-.143 0-.287-.003-.429-.007z" fill="#bfc7d8"/><path d="m189.18 363.4-6.76 1.36c-1.26.25-2.53.49-3.8.72-1.9.34-3.81.65-5.71.94-1.11.16-2.23.32-3.35.47s-2.23.29-3.34.42c-.77.09-1.539.18-2.309.26-.7.08-1.41.15-2.11.22-1.47.15-2.94.28-4.39.41-1.45.12-2.9.22-4.33.32-.72.05-1.43.1-2.14.14s-1.42.08-2.12.12c-.88.05-1.75.09-2.62.13-2.61.13-5.16.21-7.65.28-.21 0-.42.01-.62.02-.84.01-1.66.03-2.48.05-3.5.06-6.84.08-9.98.08-2.99 0-5.98-.02-8.97-.05-1.84-.02-3.67-.05-5.5-.08-2.87-.04-5.72-.09-8.54-.14l-1.35-.02c-5.95-.11-12.1-.21-18.11-.24-1.24-.01-2.48-.01-3.73-.01h-.371c-3.21 0-6.41.02-9.62.06-.25 0-.49.01-.74.01-1.79.02-3.58.05-5.37.08-2 .04-4.01.08-6.01.13-1.56.04-3.13.08-4.69.12-2.57.08-5.12.16-7.67.24-2.54.09-5.08.18-7.6.29-4.02.15-8 .33-11.95.51-1.6.07-3.2.15-4.79.23-3.24.15-6.45.31-9.63.48-3.34.17-6.64.35-9.88.52-.32.02-.64.03-.95.05v-87.64c.29-.26.59-.51.89-.76.21-.18.43-.35.64-.52.36-.29.729-.57 1.1-.84.23-.18.47-.35.71-.51.37-.28.76-.55 1.15-.8.52-.35 1.05-.69 1.59-1.02.31-.19.63-.38.94-.56.16-.09.31-.17.47-.26.46-.27.92-.52 1.38-.76.24-.13.48-.25.73-.37.04-.03.08-.05.12-.06.36-.17.72-.35 1.09-.52 4.44-2.08 9.21-3.47 14.07-4.06.33-.04.65-.07.97-.11.86-.09 1.73-.15 2.59-.19.63-.04 1.26-.05 1.89-.05 1.51 0 3 .08 4.48.24.49.05.97.11 1.45.17 1.14.16 2.271.36 3.38.62.77.17 1.53.36 2.28.58 3.74 1.08 6.91 2.57 9.46 4.44.42.31.83.64 1.22.97s.76.68 1.12 1.03c.26.26.5.52.75.79.01.02.03.04.05.06.25.28.5.58.73.88.25.32.49.64.72.97.41.6.79 1.23 1.14 1.87.18.34.35.68.51 1.03.1.2.19.41.28.62.09.22.18.43.27.65.13.33.25.65.36.98s.22.67.32 1c1.65 5.67 1.22 11.99-.44 17.26-.01.04-.02.08-.04.12-.13.43-.28.85-.43 1.27-.17.45-.34.91-.53 1.35-.17.43-.35.85-.54 1.26-.01.02-.02.04-.03.06-.17.39-.35.76-.53 1.14-.09.17-.17.33-.25.49-.15.31-.31.62-.48.93-.16.3-.32.6-.48.89-.12.22-.24.43-.37.65-.97 1.69-2.04 3.32-3.17 4.89-.32.44-.64.88-.96 1.31-.32.42-.64.84-.96 1.26-.75.96-1.51 1.89-2.29 2.81-.24.3-.49.59-.73.87-.22.26-.43.51-.65.76-1.58 1.82-3.18 3.58-4.729 5.28 1.95-1.32 4.22-2.23 6.59-2.67h.01l.6-.09.24-.03c.36-.05.72-.09 1.08-.12.09-.01.18-.01.271-.02.189-.01.38-.02.57-.03.18-.01.36-.02.54-.02 1.28 0 2.55.14 3.79.41 1.36.29 2.67.74 3.9 1.34.42.21.84.43 1.24.68.22.13.45.27.66.41.07.04.13.08.19.13.28.18.55.38.81.58.02.01.05.03.07.05.25.19.49.39.72.6.37.31.72.64 1.05.98.25.25.49.5.71.76.23.25.439.51.65.78.08.09.15.19.22.29.15.19.29.38.42.58.06.07.11.15.17.24.14.21.28.43.41.65.07.11.14.22.21.34.35.6.66 1.22.94 1.85.06.12.11.24.15.37.11.24.2.48.28.72.03.05.04.09.06.14.12.35.23.7.33 1.05.32 1.11.52 2.24.61 3.4.08-.05.17-.11.25-.17.86-.57 1.67-1.22 2.44-1.91.86-.76 1.67-1.56 2.47-2.34l.08-.08c1.35-1.33 2.74-2.69 4.29-3.82.44-.34.9-.65 1.38-.94.3-.17.62-.35.94-.51.61-.31 1.27-.57 1.95-.77 1.12-.31 2.31-.48 3.53-.48 1.1 0 2.22.14 3.32.4.31.07.61.16.91.25.35.11.7.23 1.04.36.25.1.5.21.75.32.08.04.16.07.24.11.22.1.43.21.64.33.21.1.41.22.61.34.19.11.38.23.56.35.35.23.69.47 1.01.73 2.27 1.77 3.91 4.14 4.58 6.72.43-.96.97-1.87 1.62-2.7.15-.2.31-.4.48-.59.09-.11.19-.22.28-.33l.04-.04c.19-.22.39-.42.6-.62.25-.24.5-.47.76-.7.03-.02.05-.04.08-.06.25-.22.52-.42.79-.62.25-.19.52-.38.79-.55.48-.31.98-.59 1.49-.85.16-.08.32-.16.48-.23.33-.15.65-.29.99-.42.34-.12.68-.24 1.02-.34.14-.05.28-.09.42-.12.73-.2 1.47-.34 2.22-.43.24-.03.49-.05.73-.06.26-.02.52-.03.78-.03h.1c.74 0 1.48.06 2.2.18.17.03.34.06.51.1.12.02.24.05.36.08s.24.06.35.08c.18.05.35.11.52.16s.33.11.49.16c.22.08.43.16.64.25.19.08.37.16.55.24.37.17.72.35 1.07.55.18.1.35.2.52.31s.34.22.51.33c.31.21.62.44.91.67.89.71 1.71 1.51 2.44 2.38.35.44.7.9 1.01 1.38.21.32.4.64.59.97.16.29.31.58.45.88.1.22.2.43.29.65.15.37.29.74.41 1.13.06.19.12.38.17.57.01.04.02.07.03.11.19.73.33 1.48.39 2.24.76-.32 1.5-.61 2.22-.86.05-.02.09-.04.13-.04.27-.1.53-.19.8-.27.07-.04.14-.06.21-.07.309-.1.61-.19.91-.27.62-.18 1.22-.32 1.81-.43.07-.02.13-.04.2-.05l.54-.09c.23-.04.45-.07.67-.1.08-.02.17-.03.25-.03.36-.05.71-.08 1.05-.1.38-.03.75-.04 1.11-.04h.02c.36 0 .711.01 1.061.03.21.01.42.03.63.06.21.02.42.05.62.08.16.02.32.05.47.08.3.05.59.11.88.19.14.03.28.07.42.11.09.03.18.05.26.08.57.18 1.13.41 1.68.69.31.16.61.33.91.52 1.07.66 2.05 1.51 2.85 2.49.13.14.24.28.34.43.11.15.21.3.32.45.21.31.4.64.57.98.08.16.16.32.23.48s.14.31.2.47c.059.18.13.36.18.54.01.04.03.08.04.13.1.33.16.67.21 1.02.01.07.03.13.04.2v.04l.04.25c.04.59.02 1.2-.08 1.82.45-.08.89-.15 1.34-.23.45-.06.9-.13 1.35-.19.53-.07 1.059-.14 1.6-.19.15-.02.31-.03.46-.05.6-.06 1.2-.11 1.8-.15.72-.05 1.43-.09 2.14-.11.72-.03 1.43-.04 2.14-.04h.03c.71 0 1.41.01 2.11.04.45.01.89.03 1.33.06.11 0 .22.01.33.02.561.03 1.11.07 1.67.12.6.05 1.2.11 1.81.19.52.06 1.05.13 1.58.2.21.02.43.06.64.1.37.05.74.11 1.1.18.13.01.26.03.38.06 1.16.2 2.31.44 3.45.72.59.14 1.18.29 1.76.45.58.15 1.16.32 1.74.49.48.14.95.28 1.43.45.37.12.74.24 1.11.37s.74.26 1.1.39c.25.09.51.18.76.28z" fill="#939baa"/><g fill="#bfc7d8"><path d="m153.708 175.581c-1.569 0-3.225-.423-5.21-1.333-2.771-1.26-4.312-3.906-4.018-6.903.217-2.415 1.836-5.585 5.679-6.519.508-.124 1.044-.187 1.594-.187 2.729 0 5.663 1.572 7.473 4.006 1.894 2.539 2.168 5.387.753 7.812-.399.699-1.047 1.333-1.913 1.871-1.256.78-2.754 1.224-4.219 1.25z"/><path d="m144.899 247.347c-.879 0-1.744-.103-2.572-.304-4.387-1.066-7.704-5.067-7.717-9.308 0-2.793 1.356-5.68 3.723-7.926 2.606-2.451 6.12-3.91 9.407-3.91 2.929 0 5.522 1.101 7.5 3.183 1.737 1.815 2.602 4.524 2.308 7.243-.265 2.462-1.466 4.925-3.38 6.935-2.476 2.597-5.854 4.087-9.269 4.087z"/><path d="m135.861 215.083c-3.55 0-7.246-1.127-10.408-3.175-2.274-1.458-4.213-3.353-5.598-5.476-2.565-3.96-3.352-9.067-2.106-13.665 1.234-4.54 4.472-8.578 8.662-10.804 1.695-.898 3.526-1.513 5.445-1.827.87-.142 1.767-.213 2.666-.213 5.432 0 10.905 2.602 14.284 6.791 2.188 2.721 3.497 6.138 3.691 9.625.157 2.857-.423 5.874-1.676 8.725-1.064 2.416-2.475 4.434-4.197 5.996-2.713 2.473-6.506 3.938-10.403 4.019z"/><path d="m114.342 173.181c-1.397 0-2.684-.214-3.825-.635-1.541-.58-2.729-1.491-3.444-2.637-1.956-3.119-.209-7.104 1.007-9.202 3.513-6.09 9.439-11.083 15.096-12.718 1.062-.311 2.276-.469 3.605-.469 4.475 0 9.532 1.773 10.743 5.735.761 2.507-.094 5.515-2.47 8.7-4.051 5.419-10.16 9.34-16.764 10.76-1.442.313-2.735.466-3.948.466z"/></g><path d="m434.7 388.28c1.62-5.94 4.88-19.45 2.23-23.1-.66-.9-1.64-1.38-2.73-1.31-2.3.15-4.61.24-6.94.31.11-3.71-.2-7.42-.979-11.06-.22-1.01-.68-3.11-2.32-4.41-.42-.34-.87-.58-1.32-.76 1.19-3.71 1.19-7.82-.04-11.5-.3-.91-.76-2.08-1.67-3.08-1.43-1.56-3.44-2.12-4.91-2.53-2.52-.69-5.38-1.48-8.33-1.34-3.59.19-6.69 1.84-8.29 4.42-1.36 2.2-1.48 4.77-1.45 6.51.02 1.55.18 3.1.47 4.63-.86-.04-1.72-.07-2.59-.1v-78.91c0-1.11-.89-2-2-2-.43 0-.82.14-1.15.37-.2-.07-.41-.11-.63-.11h-4.18c-.36 0-.69.1-.98.26-.02 0-.04-.01-.06-.01-1.11 0-2 .9-2 2v1.51c-.2.09-.39.22-.55.38-15.8 16.09-27.15 36.29-32.83 58.04v-87.43c0-.85-.52-1.56-1.25-1.86-.3-.35-.72-.6-1.21-.68-2.271-.36-4.63-.19-6.83.48-.24.07-.44.19-.63.33-1.04.07-1.86.93-1.86 1.98v2.47c-13.15 9.6-24.87 18.42-35.06 29.03-19.09 19.88-32.02 45.82-36.41 73.02-.1.62-.41 2.5.98 3.73.85.75 1.87.84 2.53.84.12 0 .22 0 .31-.01l67.61-1.78h.04v17.8l-76.1.49c-7.64.05-15.53.11-23.28 1.28-1.04.15-1.78 1.09-1.7 2.13.03.37.09.71.18 1.03v.01c1.06 3.86 6.08 4.91 8.33 5.37 7.72 1.6 14.82 5.76 19.99 11.7 1.97 2.26 3.69 4.82 5.34 7.39-19.78 4.39-40.9 2.71-59.7-4.85l-.3-.11c-1.65-.67-3.51-1.42-5.55-1.52-2.94-.15-5.58 1.06-7.92 2.12l-.36.16c-23.51 10.63-51.03 12.08-75.52 3.97l-.31-.1c-1.75-.59-3.74-1.24-5.87-1.18-2.91.1-5.42 1.54-7.64 2.8-.35.2-.71.4-1.06.6-13.43 7.41-32 6.87-50.94-1.51l-.22-.1c-2.48-1.09-5.28-2.34-8.35-1.87-1.83.28-3.41 1.14-4.81 1.89l-.28.15c-13.31 7.18-28.59 10.22-43.6 8.79v4.03c2.4.22 4.8.34 7.2.34 13.29 0 26.52-3.29 38.3-9.63l.29-.16c1.21-.66 2.36-1.28 3.5-1.46 1.91-.29 4.06.66 6.13 1.58l.22.1c20.1 8.88 39.96 9.38 54.49 1.35.37-.2.74-.41 1.11-.62 1.99-1.14 3.87-2.21 5.8-2.28 1.41-.05 2.9.45 4.47.97l.31.1c25.43 8.43 54.02 6.93 78.43-4.11l.36-.17c2.12-.96 4.11-1.86 6.07-1.77 1.37.07 2.77.64 4.25 1.23l.31.13c19.99 8.03 42.5 9.69 63.47 4.71 2.81 4.42 5.81 8.85 10 12.26 6.52 5.32 14.94 7.36 22.32 8.65 14.66 2.58 29.439 3.14 43.33 3.51 4.66.12 9.43.22 14.24.22 9.36 0 18.92-.38 28.34-1.73 6.86-.98 15.73-2.72 23.47-7.48 7.31-4.46 13.33-11.78 17.05-20.68 12.35 1.72 25.58 3.13 39.02 3.13 13.22 0 26.62-1.36 39.52-5.15v-4.19c-25.371 7.75-53.051 5.68-77.301 2.35zm-31.9-52.25c1.07-1.73 3.33-2.44 5.09-2.53 2.31-.12 4.73.55 7.06 1.2 1.35.37 2.43.71 3.03 1.37.31.34.56.85.83 1.64 1.01 3.02.95 6.4-.12 9.4-5.34-.83-10.73-1.43-16.13-1.8-.38-1.63-.59-3.29-.61-4.95-.04-1.96.24-3.34.85-4.33zm-13.97-67.72h3v76.56c-.7-.01-1.4-.03-2.11-.03-.289 0-.59 0-.89.01zm.89 80.53c10.01.02 20.09.85 29.97 2.47.63.1 1.4.23 1.78.53.461.36.711 1.28.9 2.13.73 3.38 1.01 6.83.89 10.28-5.34.06-10.69-.01-15.94-.08-4.67-.07-9.51-.14-14.24-.11l-15.14.1c.33-2.7.9-5.39 1.71-7.99 1.03-3.33 2.22-5.26 3.88-6.26 1.65-.99 3.87-1.08 6.19-1.07zm-4.89-75.14v66.6c-10.69-2.25-21.77-1.87-32.28 1.1 3.56-25.2 14.96-49.07 32.28-67.7zm-33.38 72.21c10.79-3.48 22.32-4 33.38-1.52v.83c-1.17.24-2.31.63-3.37 1.27-3.28 1.98-4.73 5.58-5.63 8.49-.93 3-1.57 6.09-1.93 9.21l-22.45.14zm-7.78-105.17c1.23-.33 2.51-.45 3.78-.36v123.98l-3.78.02zm-71.51 103.65c4.28-26.39 16.82-51.53 35.33-70.81 8.75-9.11 18.729-16.93 29.82-25.12-7.5 12.98-11.3 29.21-10.74 46.25.48 14.67 4.01 30.39 10.76 47.96zm58.41-49.81c-.51-15.44 2.7-30.14 9.1-42.13v85.05c-5.68-15.65-8.67-29.75-9.1-42.92zm99.59 95.07c-3.36 8.56-8.98 15.58-15.84 19.76-2.78 1.71-5.86 3.1-9.44 4.23-3.6 1.14-7.7 2.02-12.51 2.7-13.95 2-28.35 1.82-41.91 1.47-13.73-.36-28.35-.92-42.74-3.45-6.87-1.2-14.67-3.07-20.479-7.81-4.16-3.39-7.05-7.96-10.11-12.8-2.13-3.37-4.33-6.86-7.02-9.95-.35-.41-.71-.8-1.08-1.19 54.229-1.13 109.18-1.71 163.41-1.71-.811 3.85-1.731 7.37-2.281 8.75zm3.05-12.75c-55.54 0-111.85.59-167.37 1.77-.3.01-.59.09-.85.22-4.96-3.98-10.83-6.79-17.08-8.08-1.2-.25-2.62-.6-3.7-1.11 6.43-.71 13-.75 19.38-.8l129.52-.84c4.7-.03 9.5.04 14.15.11 8.74.12 17.76.25 26.58-.27.43 1.47.04 5.09-.63 9z"/><path d="m475.83 436.13c-.33-.68-1.03-1.12-1.79-1.12-.77.01-1.46.44-1.8 1.12-5 10.22-15.08 17.69-26.31 19.5-11.22 1.82-23.15-2.09-31.12-10.2-.39-.4-.9-.62-1.49-.6-.55.02-1.08.27-1.44.69-7.38 8.52-18.76 13.61-31.24 13.97-12.46.36-24.13-4.07-31.98-12.15l-.14-.15c-1.32-1.35-2.95-3.04-5.33-3.31-3.31-.39-5.61 2.03-7.47 3.97l-.41.43c-11.07 11.42-31.35 7.77-42.63-2.65l-.1-.1c-1.18-1.09-2.65-2.45-4.71-2.68-2.8-.3-4.97 1.64-6.54 3.06l-.21.19c-5.68 5.11-13.79 7.58-22.21 6.77-8.44-.8-15.93-4.75-20.54-10.83-.39-.51-.99-.8-1.65-.79-.64.01-1.24.34-1.6.87-5.19 7.6-15.42 11.94-26.04 11.07-8.98-.74-18.27-4.83-27.62-12.15-.83-.65-2.03-.54-2.73.25-8.23 9.31-20.55 14.56-32.98 14.06-12.42-.51-24.28-6.75-31.73-16.7-.41-.54-1.06-.84-1.73-.79-.67.04-1.28.42-1.61 1-5.46 9.58-16.56 15.69-27.55 15.23-11.01-.47-21.52-7.5-26.15-17.51-.27-.56-.78-.97-1.39-1.11-.6-.13-1.24.02-1.72.43-14.67 12.36-34.97 17.66-53.87 14.57v4.03c19.03 2.93 39.31-2.13 54.51-13.97 5.7 10.11 16.83 17.06 28.45 17.56 11.52.49 23.07-5.38 29.65-14.8 8.2 9.59 20.32 15.54 32.97 16.05 13 .53 25.89-4.68 34.88-14.03 9.49 7.11 19 11.1 28.29 11.86 11.06.92 21.78-3.24 28.09-10.72 5.32 5.84 13.08 9.59 21.691 10.41 9.55.91 18.76-1.93 25.26-7.79l.22-.19c1.18-1.07 2.43-2.17 3.42-2.05.75.08 1.61.87 2.43 1.64l.11.1c12.63 11.67 35.54 15.57 48.211 2.49l.43-.44c1.37-1.44 2.81-2.93 4.12-2.77.96.11 1.95 1.14 2.91 2.13l.15.15c8.3 8.55 20.42 13.38 33.45 13.38.5 0 1.01-.01 1.52-.02 12.82-.37 24.62-5.37 32.72-13.8 8.82 8.03 21.3 11.8 33.09 9.89 11.28-1.82 21.53-8.78 27.5-18.49 7.89 11.96 24.16 17.99 37.93 14.04v-4.19c-13.382 4.54-29.902-2.07-36.172-14.81z"/><path d="m102.42 371.07c28.61.51 58.19 1.04 86.46-5.67.82-.2 1.43-.88 1.53-1.71.1-.84-.33-1.64-1.08-2.02-11.58-5.86-24.88-8.05-37.71-6.25-.6-4.88-4.87-8.92-9.28-10.17-3.809-1.08-8.08-.76-12.99.98-1.63-6.24-7.02-11.38-13.43-12.46-5.92-1-12.15 1.57-15.89 6.2-1.6-2.6-4.07-4.74-7.13-6.13-4.44-2.01-9.26-2.02-13.22-.04-2.82 1.41-5 3.56-7.11 5.64-.82.8-1.62 1.59-2.43 2.31-1.45-5.48-5.3-10.29-10.43-12.79-3.58-1.74-7.66-2.3-11.57-1.71 4.64-5.43 9.08-11.48 11.68-18.52 4.08-11.07 2.24-22.69-4.68-29.6-3.09-3.08-7.35-5.42-12.67-6.95-14.49-4.19-30.78-.33-42.47 9.08v5.3c10.77-10.21 27.03-14.68 41.36-10.54 4.67 1.35 8.35 3.35 10.95 5.94 6.62 6.61 6.66 17.51 3.75 25.39-3.34 9.06-10.22 16.62-16.3 23.29-.68.75-.7 1.89-.04 2.65.66.77 1.79.92 2.63.36 4.55-3.07 10.68-3.49 15.61-1.09s8.37 7.48 8.77 12.95c.05.71.47 1.33 1.1 1.65s1.39.27 1.98-.11c2.11-1.36 3.86-3.09 5.56-4.76 1.98-1.95 3.84-3.78 6.1-4.91 2.83-1.42 6.49-1.38 9.78.11s5.74 4.21 6.54 7.27c.22.83.93 1.42 1.78 1.49.84.07 1.64-.4 1.98-1.18 2.25-5.04 8.27-8.27 13.71-7.36 5.44.92 10.08 5.94 10.55 11.44.06.64.42 1.21.96 1.54.55.33 1.23.38 1.82.13 5.03-2.15 9.18-2.71 12.66-1.72 3.56 1.01 6.97 4.61 6.37 8.35-.1.64.12 1.29.58 1.75.46.45 1.11.65 1.75.54 10.74-1.93 21.92-.84 32.08 3.06-26.01 5.22-53.191 4.74-79.53 4.27-6.4-.11-13.01-.23-19.49-.26-27.69-.13-55.73 1.25-83.01 2.71v4c27.28-1.45 55.34-2.86 82.98-2.71 6.47.03 13.06.15 19.44.26z"/><path d="m457.91 184.73c.55-4.55-.08-9.24-1.88-13.49-2.69-6.32-7.89-11.5-14.28-14.21-3.8-1.61-8.18-2.45-13.02-2.49-5.57-.05-10.37 1.01-14.27 3.13-4.55 2.49-8.48 6.82-11.36 12.53-2.72 5.41-4.28 11.45-4.52 17.48-.21 5.35.6 10.62 1.54 15.74-8.32-1.34-17.47-2.46-26.18-.06-3.9 1.08-7.03 2.73-9.3 4.92-2.93 2.83-4.44 6.65-4.03 10.21.27 2.42 1.45 4.31 3.23 5.2 1.18.59 2.45.65 3.38.68 9.84.39 20.01.8 30.03 1.14 18.13.61 32.8.9 46.32.9 2.82 0 5.58-.02 8.32-.04 8.22-.07 17.06-.31 27.01-.71 2.14-.08 4.32-.11 6.43-.14 4.96-.07 10.08-.14 15.18-.95 1.26-.2 4.6-.73 5.73-3.55.87-2.19-.021-4.65-2.5-6.92-4.03-3.68-9.07-6.24-14.43-7.36 1.19-2.58 1.51-5.66.8-8.65-.82-3.42-2.92-6.76-6.07-9.63-4.46-4.06-10.19-6.43-15.74-6.5-3.72-.04-7.35.96-10.39 2.77zm28.31 14.29c.69 2.92.021 5.93-1.75 7.86-.51.55-.67 1.35-.4 2.06s.91 1.2 1.67 1.28c5.68.58 11.12 3.01 15.3 6.84 1.07.97 1.68 1.99 1.48 2.47-.1.27-.59.77-2.63 1.09-4.82.77-9.58.83-14.62.9-2.13.03-4.34.06-6.53.15-9.91.4-18.7.63-26.89.7-15.83.14-32.63-.12-54.46-.86-10.01-.34-20.18-.74-30.01-1.13-.63-.03-1.34-.06-1.75-.26-.52-.27-.93-1.08-1.05-2.08-.26-2.34.8-4.91 2.84-6.88 1.78-1.72 4.33-3.05 7.58-3.94 3.31-.92 6.75-1.26 10.21-1.26 5.8 0 11.67.97 17.08 1.87.64.11 1.3-.11 1.76-.58.45-.46.65-1.12.53-1.77-1.1-5.78-2.23-11.76-2-17.64.21-5.46 1.63-10.94 4.1-15.84 2.51-4.98 5.86-8.72 9.7-10.81 3.29-1.8 7.46-2.7 12.31-2.65 4.32.04 8.19.77 11.5 2.17 5.44 2.31 9.87 6.72 12.15 12.1 2.28 5.36 2.35 11.55.2 16.97-.38.93 0 2 .88 2.49.88.48 1.99.24 2.59-.57 2.63-3.6 7.3-5.81 12.24-5.74 4.58.06 9.35 2.05 13.09 5.46 1.79 1.62 4.08 4.26 4.88 7.6z"/><path d="m248.45 133.5c1.67.84 3.5.92 4.97.98h.22c15.92.64 32.38 1.3 48.58 1.84 29.44.99 53.26 1.46 75.22 1.46 4.57 0 9.05-.02 13.49-.06 13.37-.12 27.71-.5 43.85-1.15 3.49-.14 7.039-.19 10.47-.23 8.01-.11 16.3-.22 24.5-1.52 2.91-.47 6.93-1.49 8.34-5.01 1.21-3.04-.12-6.53-3.74-9.85-6.79-6.2-15.38-10.39-24.5-11.98 2.44-4.18 3.2-9.51 1.97-14.66-1.27-5.33-4.55-10.52-9.49-15.02-7.01-6.39-16.03-10.12-24.74-10.23-6.79-.09-13.38 2.06-18.53 5.84 1.52-8.02.66-16.46-2.55-24.02-4.229-9.97-12.44-18.15-22.53-22.43-6.02-2.56-12.98-3.88-20.68-3.95-8.86-.08-16.43 1.59-22.57 4.94-7.17 3.91-13.37 10.77-17.94 19.83-4.34 8.63-6.83 18.27-7.21 27.88-.35 9.17 1.16 18.24 2.81 27.04-13.85-2.27-29.25-4.42-43.77-.41-6.12 1.69-11.03 4.28-14.57 7.7-4.48 4.32-6.79 10.13-6.17 15.54.39 3.49 2.06 6.22 4.57 7.47zm4.38-20.14c3.05-2.94 7.38-5.2 12.86-6.72 5.5-1.51 11.19-2.09 16.91-2.09 9.52 0 19.11 1.6 27.96 3.06.64.11 1.3-.1 1.76-.57.45-.47.65-1.13.53-1.77-1.79-9.47-3.65-19.25-3.27-28.95.35-9.05 2.7-18.12 6.79-26.24 4.19-8.33 9.82-14.59 16.27-18.11 5.54-3.02 12.44-4.54 20.63-4.46 7.17.06 13.62 1.28 19.15 3.63 9.14 3.88 16.58 11.28 20.41 20.31 3.83 9.02 3.95 19.42.32 28.53-.37.93.01 2 .89 2.49.88.48 1.99.24 2.59-.57 4.52-6.17 12.54-9.94 20.91-9.83 7.74.1 15.8 3.45 22.1 9.19 4.34 3.95 7.21 8.44 8.29 12.98 1.22 5.15.02 10.48-3.13 13.9-.52.56-.67 1.36-.4 2.07.26.71.91 1.2 1.66 1.28 9.51.97 18.59 5.03 25.59 11.43 1.07.98 3.49 3.48 2.72 5.41-.49 1.22-2.2 2.05-5.25 2.54-7.91 1.25-16.05 1.36-23.92 1.47-3.46.04-7.04.09-10.58.23-16.1.66-30.4 1.03-43.72 1.15-25.74.23-53.05-.2-88.55-1.4-16.18-.54-32.64-1.2-48.55-1.83l-.22-.01c-1.2-.05-2.44-.1-3.34-.55-1.26-.63-2.15-2.26-2.39-4.35-.48-4.18 1.38-8.75 4.98-12.22z"/><path d="m111.1 252.88c12.01 7.75 25.94 11.99 39.38 11.99.45 0 .9-.01 1.35-.02 14.76-.31 29.17-5.89 39.54-15.3 6.52-5.93 11.88-13.58 15.91-22.74 4.75-10.78 6.939-22.18 6.35-32.98-.73-13.23-5.71-26.21-14.02-36.54-15.07-18.72-40.87-28.72-64.19-24.9-7.32 1.2-14.27 3.53-20.65 6.92-15.89 8.44-28.17 23.75-32.84 40.95-4.75 17.44-1.76 36.82 7.99 51.85 5.19 7.99 12.52 15.18 21.18 20.77zm-25.31-71.57c4.39-16.15 15.93-30.54 30.86-38.47 5.99-3.19 12.52-5.37 19.42-6.5 21.95-3.6 46.23 5.83 60.42 23.46 7.8 9.68 12.46 21.84 13.15 34.25.56 10.17-1.52 20.94-6.02 31.14-3.81 8.66-8.83 15.85-14.94 21.39-9.67 8.78-23.13 13.98-36.94 14.27-13.04.28-26.72-3.74-38.47-11.33-8.19-5.29-15.11-12.06-19.99-19.59-9.14-14.09-11.95-32.26-7.49-48.62z"/><path d="m159.68 211.4c.42 2.9 1.98 5.74 4.63 8.44 3.76 3.83 8.31 6.02 12.81 6.16.17.01.33.01.49.01 3.83 0 7.81-1.42 11.82-4.23 3.42-2.39 5.65-4.96 6.82-7.86.91-2.27 1.23-4.93.94-7.91-.64-6.64-4.01-12.82-9.24-16.97-3.44-2.73-7.2-3.93-10.91-3.49-3.99.48-7.72 2.83-10.79 6.78-2.2 2.85-3.93 6.28-5.42 10.81-.81 2.44-1.58 5.33-1.15 8.26zm4.94-7c1.35-4.09 2.88-7.14 4.79-9.61 2.4-3.1 5.21-4.92 8.11-5.27.35-.04.7-.06 1.05-.06 2.31 0 4.62.91 6.9 2.72 4.32 3.42 7.211 8.74 7.74 14.22.23 2.33 0 4.36-.67 6.02-.87 2.16-2.64 4.15-5.41 6.09-3.46 2.42-6.81 3.59-9.88 3.49-3.47-.1-7.05-1.87-10.09-4.96-2.04-2.09-3.23-4.18-3.52-6.21-.31-2.1.29-4.33.98-6.43z"/><path d="m147.67 176.07c2.26 1.03 4.18 1.51 6.03 1.51h.18c1.86-.03 3.67-.57 5.25-1.56 1.14-.71 2-1.57 2.58-2.56 1.81-3.1 1.48-6.85-.88-10.01-2.7-3.63-7.28-5.51-11.15-4.57-3.98.97-6.81 4.22-7.2 8.28-.36 3.87 1.62 7.28 5.19 8.91zm-1.2-8.53c.16-1.78 1.36-4.09 4.16-4.77 2.3-.56 5.25.73 6.99 3.07.82 1.1 1.99 3.28.63 5.61-.24.42-.66.82-1.24 1.18-.95.59-2.08.93-3.2.95-1.28.02-2.71-.34-4.48-1.15-2-.91-3.07-2.74-2.86-4.89z"/><path d="m136.97 228.35c-2.78 2.63-4.36 6.04-4.36 9.39.02 5.13 3.99 9.97 9.24 11.25.98.24 2 .35 3.02.35 3.89 0 7.88-1.69 10.75-4.7 2.21-2.32 3.6-5.19 3.91-8.1.36-3.29-.7-6.59-2.84-8.84-5.63-5.93-14.45-4.33-19.72.65zm18.59 7.76c-.22 2.04-1.23 4.08-2.84 5.77-2.65 2.78-6.55 4.04-9.92 3.22-3.46-.84-6.18-4.08-6.19-7.37 0-2.25 1.13-4.6 3.1-6.47 2.18-2.05 5.15-3.36 8.03-3.36 2.2 0 4.35.77 6.05 2.56 1.34 1.4 2 3.52 1.77 5.65z"/><path d="m136.27 217.08c4.36-.09 8.62-1.74 11.7-4.54 1.92-1.74 3.5-3.99 4.68-6.67 1.38-3.14 2.02-6.47 1.85-9.64-.22-3.9-1.68-7.72-4.14-10.77-4.41-5.48-11.98-8.42-18.82-7.29-2.15.35-4.19 1.03-6.07 2.03-4.67 2.48-8.27 6.98-9.65 12.04-1.4 5.14-.52 10.85 2.36 15.27 1.52 2.35 3.66 4.45 6.19 6.09 3.5 2.25 7.57 3.49 11.5 3.49.13 0 .26 0 .4-.01zm-14.74-11.74c-2.26-3.49-2.95-7.99-1.85-12.05 1.09-4.01 3.96-7.59 7.67-9.56 1.49-.79 3.12-1.34 4.83-1.62 5.48-.89 11.52 1.46 15.07 5.86 1.93 2.4 3.08 5.41 3.25 8.48.14 2.54-.38 5.24-1.51 7.81-.95 2.16-2.2 3.95-3.71 5.32-2.37 2.16-5.691 3.43-9.1 3.5-3.27.07-6.69-.94-9.64-2.85-2.06-1.32-3.79-3.02-5.01-4.89z"/><path d="m109.82 174.42c1.37.51 2.87.76 4.53.76 1.34 0 2.79-.17 4.36-.51 7.08-1.52 13.62-5.72 17.95-11.52 2.77-3.71 3.73-7.33 2.77-10.47-.9-2.97-3.52-5.24-7.38-6.39-3.09-.93-6.71-1.01-9.43-.22-7.44 2.15-13.28 8.46-16.27 13.64-2.49 4.3-2.83 8.3-.97 11.27.97 1.53 2.5 2.72 4.44 3.44zm-.01-12.71c3.27-5.67 8.73-10.3 13.92-11.8.89-.26 1.94-.39 3.05-.39 3.68 0 7.95 1.44 8.83 4.32.72 2.37-.78 5.07-2.16 6.92-3.76 5.03-9.44 8.68-15.58 10-2.72.59-4.9.56-6.66-.09-1.09-.41-1.96-1.05-2.44-1.82-1.45-2.31.24-5.76 1.04-7.14z"/></svg>