<svg height="512pt" viewBox="0 -14 512.00016 512" width="512pt" xmlns="http://www.w3.org/2000/svg"><path d="m258.988281 96.675781c-19.085937 0-37.558593-3.648437-54.902343-10.835937-5.785157-2.390625-19.132813-9.140625-18.089844-20.121094.636718-6.898438 6.738281-12.496094 18.136718-16.632812 17.304688-6.292969 36.378907-9.621094 55.152344-9.621094 3.203125 0 6.433594.097656 9.613282.289062 7.847656.476563 34.699218 3.039063 50.796874 15.917969 5.765626 4.609375 9.953126 13.398437 6.363282 20.605469-2.574219 5.164062-8.339844 8.03125-13.640625 10.160156-16.925781 6.792969-34.90625 10.238281-53.429688 10.238281zm0 0" fill="#fff"/><path d="m463.320312 361.300781c10.1875-57.921875-6.472656-115.867187-22.242187-154.277343-32.945313-80.210938-77.726563-116.210938-109.496094-132.289063l-2.265625-1.144531.074219-2.539063c.113281-4.074219-1.335937-8.449219-4.085937-12.320312l-3.101563-4.367188 5.070313-1.734375c13.308593-4.542968 27.308593-6.851562 41.605468-6.851562 14.902344 0 29.398438 2.496094 43.089844 7.421875.132812.027343.242188.058593.355469.085937l.6875.199219.574219.417969c9.589843 7.007812 18.535156 14.746094 26.59375 23.007812 23.277343 23.828125 41.523437 53.589844 52.769531 86.066406 11.246093 32.492188 15.316406 67.167969 11.765625 100.273438-1.578125 14.707031-4.640625 29.5625-9.101563 44.152344-5.828125 19.109375-14.207031 38.152344-24.894531 56.597656zm0 0" fill="#3a6082"/><path d="m327.351562 465.171875c33.171876-49.242187 47.101563-112.886719 39.214844-179.203125-6.816406-57.335938-27.96875-117.097656-66.5625-188.074219l-2.328125-4.28125 4.652344-1.449219c3.730469-1.160156 7.382813-2.453124 10.851563-3.84375 5.054687-2.023437 10.648437-4.75 13.804687-9.589843l1.976563-3.035157 3.214843 1.667969c56.125 29.09375 89.171875 86.988281 107.011719 130.433594 19.085938 46.46875 37.183594 115.554687 15.066406 180.839844l-.21875 1.046875-.503906.691406c-6.992188 9.636719-14.703125 19.078125-22.914062 28.066406-21.871094 23.941406-57.96875 43.203125-99.035157 52.855469l-9.9375 2.335937zm0 0" fill="#f9d889"/><path d="m318.152344 52.039062c-4.929688-3.296874-15.832032-9.304687-33.460938-12.46875l-6.933594-1.242187 4.621094-5.316406c7.660156-8.820313 17.289063-15.859375 27.851563-20.355469.085937-.039062.183593-.105469.277343-.195312l1.5-1.429688 2.027344.398438c3.355469.65625 6.742188 1.382812 10.070313 2.160156 22.445312 5.269531 43.621093 13.214844 62.945312 23.613281l-2.375 7.492187c-5.214843-.628906-10.539062-.945312-15.8125-.945312-16.320312 0-32.148437 2.925781-47.042969 8.695312l-1.9375.75zm0 0" fill="#288fc9"/><path d="m273.820312 477.898438c-21.207031 0-44.355468-2.457032-68.800781-7.300782l-1.546875-.304687-.921875-1.28125c-.066406-.09375-.128906-.1875-.1875-.28125-23.628906-28.988281-33.800781-66.023438-40.628906-98.441407-12.445313-59.109374-13.613281-105.949218-3.667969-147.417968 10.128906-42.246094 33.40625-84.023438 69.195313-124.179688.003906-.003906.054687-.0625.136719-.242187l1.296874-2.855469 3.078126.578125c8.953124 1.679687 18.109374 2.53125 27.214843 2.53125 11.449219 0 22.84375-1.328125 33.875-3.949219l3.960938-.941406.871093 3.976562c.042969.191407.070313.253907.070313.253907 38.746094 71.09375 59.960937 130.878906 66.773437 188.167969 8.34375 70.183593-7.664062 136.421874-45.066406 186.515624l-.9375 1.253907-1.539062.285156c-.734375.136719-1.480469.273437-2.214844.390625-12.992188 2.148438-26.785156 3.242188-40.960938 3.242188zm0 0" fill="#f7b36f"/><path d="m231.710938 37.234375c-2.9375-4.828125-6.578126-10.375-11.316407-14.9375-1.832031-1.777344-4.453125-3.707031-7.402343-5.449219l-9.613282-5.675781 11.035156-1.71875c14.53125-2.265625 29.394532-3.410156 44.175782-3.410156 13.046875 0 26.195312.894531 39.089844 2.65625l11.058593 1.515625-9.5 5.855468c-8.621093 5.308594-16.304687 12.355469-22.222656 20.378907l-1.332031 1.804687-2.234375-.195312c-1.449219-.128906-2.929688-.246094-4.445313-.34375-3.203125-.191406-6.484375-.289063-9.730468-.289063-7.851563 0-15.78125.566407-23.574219 1.6875l-2.613281.375zm0 0" fill="#5bd0fc"/><path d="m83.832031 70.960938c7.65625-6.890626 15.761719-13.339844 24.089844-19.171876 25.316406-17.71875 53.253906-30.390624 83.046875-37.671874 1.542969-.367188 3.011719-.714844 4.484375-1.046876l1.335937-.296874 1.238282.582031c.167968.078125.304687.125.410156.136719 6.039062.65625 15.460938 5.359374 20.539062 10.265624 3.023438 2.917969 5.753907 6.347657 8.847657 11.121094l3.171875 4.894532-5.707032 1.195312c-7.5 1.570312-14.851562 3.660156-21.855468 6.207031-7.148438 2.59375-12.425782 5.875-15.6875 9.753907l-1.378906 1.640624-2.132813-.242187c-4.871094-.550781-9.964844-.828125-15.144531-.828125-26.464844 0-55.152344 7.105469-80.785156 20.007812zm0 0" fill="#b2eaf9"/><path d="m189.953125 467.351562c-5.019531-1.164062-9.953125-2.382812-14.660156-3.617187-41.253907-10.777344-76.75-31.085937-105.5-60.355469l-.710938-.726562-.28125-.972656c-.023437-.085938-.042969-.167969-.0625-.25-.496093-1.34375-.980469-2.640626-1.464843-3.9375l-.792969-2.132813c-6.242188-16.625-12.140625-32.339844-12.890625-49.5-.742188-17.167969.925781-34.5 2.65625-49.191406 4.210937-35.777344 11.886718-81.964844 34.023437-121.890625 19.84375-35.804688 51.855469-67.921875 95.148438-95.457032l2.609375-1.660156 2.261718 2.105469c3.304688 3.074219 7.683594 5.75 13.019532 7.964844 5.703125 2.359375 11.714844 4.394531 17.871094 6.039062l6.207031 1.660157-4.230469 4.835937c-34.550781 39.5-57.113281 80.589844-67.070312 122.128906-10.019532 41.773438-8.855469 88.898438 3.65625 148.304688 6.109374 29.015625 14.976562 62.457031 34.402343 90.476562l5.90625 8.519531zm0 0" fill="#ff8984"/><path d="m51.144531 381.816406c-4.144531-5.453125-8.0625-11.089844-11.648437-16.761718-44.652344-70.636719-44.636719-167.488282.035156-241.007813 4.789062-7.878906 10.265625-15.714844 16.273438-23.289063l.871093-1.097656 1.363281-.3125c.125-.027344.292969-.082031.40625-.175781 29.246094-24.070313 72.824219-39.605469 111.046876-39.605469 3.726562 0 7.414062.148438 10.964843.445313l4.269531.351562-.644531 4.238281c-.050781.328126-.09375.664063-.125.984376-.238281 2.480468.1875 4.980468 1.269531 7.394531l1.410157 3.148437-2.90625 1.859375c-43.277344 27.621094-75.320313 59.851563-95.246094 95.796875-22.324219 40.261719-30.039063 86.6875-34.265625 122.636719-1.738281 14.757813-3.417969 32.175781-2.667969 49.519531.425781 9.566406 2.515625 19.800782 6.578125 32.210938zm0 0" fill="#ed6d66"/><path d="m498.652344 161.003906c-11.535156-33.308594-30.257813-63.847656-54.148438-88.316406-30.699218-31.441406-71.851562-53.910156-119.015625-64.972656-44.605469-10.464844-91.613281-10.28125-135.949219.542968-30.511718 7.445313-59.136718 20.429688-85.074218 38.585938-28.558594 19.988281-52.796875 45.601562-70.09375 74.070312-.003906 0-.003906 0-.003906 0-45.832032 75.433594-45.824219 174.84375.027343 247.367188 32.136719 50.839844 80.332031 85.867188 139.375 101.300781 36.695313 9.589844 69.773438 14.355469 100.046875 14.355469 14.617188 0 28.578125-1.113281 41.976563-3.324219 48.824219-8.066406 93.417969-29.78125 119.289062-58.089843 31.128907-34.066407 54.0625-73.261719 66.3125-113.347657 4.574219-14.972656 7.714844-30.207031 9.328125-45.28125 3.640625-34.003906-.535156-69.585937-12.070312-102.890625zm-113.496094-120.277344c-21.816406-2.628906-44.308594.054688-64.777344 7.988282-5.625-3.765625-16.976562-9.847656-34.976562-13.082032 7.195312-8.289062 16.347656-15.015624 26.390625-19.292968.566406-.242188 1.050781-.585938 1.472656-.988282 3.320313.65625 6.632813 1.359376 9.929687 2.132813 22.226563 5.214844 43.046876 13.058594 61.960938 23.242187zm-179.539062 41.421876c-3.871094-1.601563-16.445313-7.5-15.644532-16.050782.609375-6.507812 8.777344-10.800781 15.523438-13.253906 19.910156-7.238281 41.753906-10.382812 63.15625-9.09375 7.546875.453125 33.34375 2.882812 48.542968 15.046875 4.601563 3.683594 7.835938 10.5625 5.28125 15.699219-1.964843 3.949218-6.941406 6.375-11.550781 8.226562-33.539062 13.464844-71.921875 13.257813-105.308593-.574218zm91.523437-69.480469c-9.042969 5.570312-17.070313 12.910156-23.347656 21.410156-1.480469-.132813-2.984375-.257813-4.535157-.351563-11.367187-.683593-22.847656-.195312-34.132812 1.429688-3.335938-5.488281-7.117188-11.078125-11.953125-15.746094-2.078125-2.003906-4.941406-4.117187-8.144531-6.003906 27.101562-4.222656 54.863281-4.46875 82.113281-.738281zm-186.917969 42.398437c24.910156-17.4375 52.398438-29.90625 81.695313-37.058594 1.464843-.355468 2.9375-.699218 4.414062-1.035156.503907.246094 1.046875.425782 1.632813.492188 5.25.574218 13.769531 4.859375 18.234375 9.167968 3.058593 2.953126 5.65625 6.386719 8.265625 10.417969-7.636719 1.601563-15.140625 3.71875-22.402344 6.359375-8.695312 3.164063-14.089844 7.042969-17.378906 10.945313-31.183594-3.53125-67.273438 4.023437-98.175782 19.578125 7.480469-6.730469 15.402344-13.050782 23.714844-18.867188zm-67.273437 71.058594c4.785156-7.875 10.144531-15.519531 15.988281-22.882812.738281-.164063 1.457031-.488282 2.082031-1.003907 31.742188-26.128906 80.019531-41.492187 119.105469-38.246093-.0625.398437-.113281.789062-.148438 1.167968-.304687 3.269532.253907 6.445313 1.601563 9.453125-43.847656 27.996094-76.34375 60.703125-96.59375 97.230469-22.648437 40.855469-30.460937 87.792969-34.738281 124.117188-1.757813 14.929687-3.453125 32.5625-2.683594 50.15625.5 11.527343 3.253906 22.558593 6.765625 33.273437-4.019531-5.28125-7.84375-10.769531-11.449219-16.472656-43.863281-69.382813-43.832031-164.539063.070313-236.792969zm29.695312 274.449219c-.035156-.136719-.054687-.269531-.105469-.402344-.761718-2.070313-1.539062-4.136719-2.3125-6.203125-6.128906-16.335938-11.917968-31.765625-12.636718-48.289062-.734375-16.882813.914062-34.015626 2.625-48.546876 4.167968-35.410156 11.75-81.101562 33.546875-120.421874 19.523437-35.214844 51.085937-66.847657 93.8125-94.019532 3.582031 3.339844 8.34375 6.308594 14.199219 8.734375 5.992187 2.480469 12.136718 4.542969 18.378906 6.207031-34.980469 39.992188-57.839844 81.636719-67.960938 123.835938-10.15625 42.359375-9 90.042969 3.636719 150.058594 6.289063 29.859375 15.386719 63.59375 35.03125 91.933594-4.785156-1.109376-9.632813-2.308594-14.554687-3.59375-40.5-10.585938-75.664063-30.796876-103.660157-59.292969zm133.148438 66.097656c-.074219-.105469-.128907-.222656-.210938-.324219-23.179687-28.359375-33.195312-64.890625-39.929687-96.886718-12.320313-58.507813-13.496094-104.789063-3.699219-145.648438 9.976563-41.609375 32.957031-82.808594 68.292969-122.453125.34375-.382813.589844-.8125.796875-1.257813 9.210937 1.730469 18.578125 2.605469 27.945312 2.605469 11.699219 0 23.394531-1.355469 34.800781-4.058593.097657.457031.238282.90625.472657 1.335937 38.484375 70.605469 59.550781 129.933594 66.304687 186.703125 8.230469 69.230469-7.503906 134.378906-44.300781 183.65625-.703125.121094-1.402344.25-2.109375.367188-32.15625 5.308593-67.824219 4-108.363281-4.039063zm221.875-50.921875c-21.488281 23.511719-56.960938 42.25-97 51.652344 33.785156-50.140625 47.917969-114.203125 39.867187-181.902344-6.882812-57.859375-28.183594-118.101562-67.019531-189.511719 3.765625-1.167969 7.488281-2.480469 11.152344-3.953125 5.738281-2.300781 11.960937-5.425781 15.671875-11.125 54.917968 28.476563 87.457031 85.324219 105.148437 128.40625 18.839844 45.871094 36.722657 114.007813 14.941407 178.144532-.0625.1875-.089844.375-.128907.566406-6.933593 9.542968-14.488281 18.8125-22.632812 27.722656zm73.070312-152.925781c-1.546875 14.445312-4.554687 29.050781-8.945312 43.414062-5.789063 18.9375-14.066407 37.683594-24.539063 55.753907 10.199219-57.964844-5.757812-115.765626-22.480468-156.488282-33.28125-81.042968-78.625-117.761718-111.378907-134.335937.144531-5.261719-1.808593-10.5-4.820312-14.753907 26.402343-9.023437 55.96875-8.871093 82.210937.609376.148438.054687.300782.074218.449219.113281 9.382813 6.859375 18.109375 14.390625 26.085937 22.5625 22.867188 23.417969 40.792969 52.667969 51.847657 84.585937 11.054687 31.921875 15.054687 65.996094 11.570312 98.539063zm0 0"/></svg>