<svg height="511pt" viewBox="-61 0 511 511.99981" width="511pt" xmlns="http://www.w3.org/2000/svg"><path d="m291.59375 317.210938c-2.285156 0-4.632812-.054688-6.972656-.167969-3.890625-.179688-8.296875-.667969-11.441406-2.902344l-2.804688-1.988281 1.542969-3.070313c3.035156-6.039062 5.589843-12.503906 7.808593-19.761719 9.109376-29.824218 8.109376-59.761718-2.816406-84.304687-7.769531-17.421875-20.347656-31.140625-37.375-40.765625l-3.707031-2.09375 2.320313-3.566406c13.726562-21.109375 36.65625-34.226563 59.84375-34.226563.808593 0 1.613281.015625 2.421874.050781 11.429688.453126 23.710938 4.125 36.503907 10.910157 14.539062 7.710937 25.421875 17.136719 32.351562 28.019531 9.019531 14.167969 11.828125 31.71875 13.382813 47.019531 2.027344 19.828125 2.769531 42.769531-7.109375 62.582031-7.554688 15.171876-21.234375 27.734376-38.519531 35.375-13.371094 5.902344-28.652344 8.890626-45.429688 8.890626zm0 0" fill="#f9d889"/><path d="m328.398438 129.019531c-9.6875-4.058593-19.074219-6.292969-27.902344-6.644531-.785156-.03125-1.570313-.046875-2.351563-.046875-1.96875 0-4.011719.101563-6.078125.292969l-2.828125.269531-1.183593-2.582031c-8.4375-18.414063-21.226563-33.570313-36.976563-43.828125-13.007813-8.464844-28.542969-13.46875-43.738281-14.082031l-5.636719-.230469 2.082031-5.242188c4.554688-11.488281 11.417969-22.3125 19.847656-31.300781 8.921876-9.515625 18.367188-15.589844 28.074219-18.050781 4.128907-1.046875 8.496094-1.535157 13.738281-1.535157 1.875 0 3.835938.0625 6 .1875 15.992188.941407 29.375 4.777344 39.773438 11.398438 8.992188 5.714844 16.886719 14.253906 22.820312 24.699219 14.464844 25.472656 14.207032 59.644531-.644531 85.027343l-1.769531 3.019532zm0 0" fill="#ffb3b3"/><path d="m198.570312 356.773438c-.667968 0-1.34375-.007813-2.027343-.023438-19.070313-.429688-37.734375-6.585938-52.558594-17.339844-9.589844-6.96875-17.730469-15.96875-23.535156-26.03125l-.472657-.816406-.058593-.945312c-.011719-.210938-.078125-.394532-.199219-.539063-.015625-.019531-.058594-.066406-.164062-.144531l-.757813-.566406-.425781-.839844c-2.515625-4.96875-4.492188-10.109375-5.875-15.273438-4.140625-15.410156-3.382813-31.425781-2.097656-45.058594 1.179687-12.429687 3.355468-28.550781 9.785156-43.046874 5.792968-13.070313 15.300781-24.695313 27.496094-33.617188 15.652343-11.441406 34.753906-18.003906 52.40625-18.003906 5.847656 0 11.21875.707031 15.972656 2.101562 27.898437 8.214844 48.296875 25.234375 58.984375 49.222656 10.722656 24.09375 11.691406 53.523438 2.734375 82.875-3.890625 12.71875-8.878906 23.207032-15.261719 32.070313-5.730469 7.945313-13.160156 15.296875-22.089844 21.847656-5.769531 4.238281-11.132812 7.363281-16.402343 9.550781l-1.035157.425782-1.046875-.160156c-.304687.042968-.503906.203124-.605468.304687l-.683594.6875-.925782.292969c-6.265624 2.007812-13.386718 3.027344-21.15625 3.027344zm0 0" fill="#ed6d66"/><path d="m152.601562 161.554688c-4.308593-10.949219-13.535156-20.554688-25.324218-26.34375-1.730469-.851563-3.554688-1.644532-5.421875-2.351563l-4.003907-1.515625 1.785157-3.894531c7.339843-15.988281 16.808593-29.355469 28.144531-39.730469 13.617188-12.488281 30.261719-20.566406 46.859375-22.746094 3.132813-.410156 6.359375-.617187 9.597656-.617187 15.789063 0 32.03125 4.914062 45.738281 13.84375 14.414063 9.386719 26.855469 23.742187 35.027344 40.417969l2.1875 4.460937-4.824218 1.1875c-18.765626 4.605469-35.714844 17.042969-46.503907 34.109375l-1.84375 2.921875-3.160156-1.402344c-4.558594-2.023437-9.34375-3.78125-14.226563-5.21875-5.074218-1.492187-10.609374-2.253906-16.445312-2.253906-13.378906 0-28.292969 3.980469-42 11.203125l-3.953125 2.082031zm0 0" fill="#59bd8b"/><path d="m42.558594 134.992188c-3.476563-20.414063-4.75-50.519532 8.941406-77.996094 12.492188-25.078125 36.570312-42.761719 61.34375-45.058594 1.988281-.1875 4.019531-.277344 6.042969-.277344 13.902343 0 27.753906 4.257813 40.058593 12.3125 12.539063 8.21875 23.066407 20.214844 30.449219 34.6875l2.316407 4.539063-4.960938 1.171875c-14.550781 3.441406-28.503906 10.992187-40.347656 21.835937-11.828125 10.835938-21.644532 24.835938-29.171875 41.609375l-1.347657 3.003906-3.207031-.746093c-6.355469-1.476563-13.269531-2.226563-20.550781-2.226563-1.175781 0-2.359375.019532-3.554688.058594-14.867187.488281-28.769531 3.925781-40.207031 9.953125l-4.878906 2.570313zm0 0" fill="#c67045"/><path d="m97.777344 316.253906c-.808594 0-1.617188-.007812-2.425782-.023437-18.949218-.40625-33.21875-3.425781-44.914062-9.511719-12.300781-6.414062-23.171875-17.332031-30.621094-30.746094-6.679687-12.019531-10.90625-26.167968-12.5625-42.058594-1.945312-18.5625.085938-36.445312 5.867188-51.710937 6.484375-17.136719 17.867187-31.40625 32.058594-40.183594 11.910156-7.363281 26.9375-11.535156 43.453124-12.066406 1.203126-.039063 2.394532-.058594 3.574219-.058594 13.035157 0 24.535157 2.398438 34.167969 7.136719 12.03125 5.925781 21.125 15.753906 24.953125 26.953125l.996094 2.925781-2.574219 1.703125c-1.054688.695313-2.125 1.441407-3.273438 2.28125-12.480468 9.132813-22.222656 21.035157-28.15625 34.417969-6.570312 14.804688-8.765624 31.121094-9.945312 43.679688-1.308594 13.808593-2.074219 30.042968 2.152344 45.789062 1.246094 4.636719 2.929687 9.207031 5 13.585938l1.773437 3.75-3.8125 1.636718c-5.160156 2.21875-11.105469 2.5-15.710937 2.5zm0 0" fill="#5bd0fc"/><path d="m388.660156 209.746094c-1.628906-16.003906-4.605468-34.421875-14.300781-49.648438-7.492187-11.769531-19.136719-21.898437-34.609375-30.109375-.230469-.121093-.460938-.234375-.6875-.355469 15.507812-27.191406 15.695312-63.066406.230469-90.289062-6.417969-11.296875-15.003907-20.570312-24.832031-26.820312-11.292969-7.183594-25.644532-11.328126-42.660157-12.324219-5.429687-.320313-13.582031-.507813-21.570312 1.515625-10.84375 2.75-21.277344 9.402344-31.003907 19.773437-9.484374 10.117188-17.046874 22.335938-21.871093 35.335938-.226563.597656-.3125 1.214843-.304688 1.820312-.324219.027344-.648437.070313-.976562.101563-.082031-.3125-.195313-.628906-.339844-.929688-7.902344-16.265625-19.480469-29.714844-33.480469-38.890625-15.191406-9.957031-32.933594-14.574219-49.964844-13-26.808593 2.476563-52.789062 21.46875-66.195312 48.382813-14.425781 28.964844-13.117188 60.453125-9.480469 81.765625.21875 1.296875.929688 2.382812 1.894531 3.125-13.671874 9.554687-24.613281 23.90625-31.03125 40.859375-6.113281 16.140625-8.269531 34.980468-6.230468 54.484375 1.742187 16.699219 6.214844 31.625 13.289062 44.363281 8.140625 14.652344 19.589844 26.121094 33.113282 33.164062 12.179687 6.34375 26.796874 9.574219 45.851562 10.140626.050781.230468.097656.457031.183594.679687 11.988281 31.710937 24.945312 55.910156 40.777344 76.15625 9.5625 12.230469 20.550781 23.367187 31.175781 34.132813l20.613281 20.886718c-11.113281 9.363282-23.476562 17.042969-36.839844 22.871094-2.539062 1.109375-3.703125 4.066406-2.59375 6.609375.824219 1.886719 2.667969 3.011719 4.605469 3.011719.667969 0 1.351563-.132813 2.003906-.417969 7.171875-3.128906 14.074219-6.757813 20.675781-10.863281-9.6875 9.480468-19.289062 18.464844-28.414062 26.910156-2.035156 1.878906-2.160156 5.054688-.277344 7.089844.988282 1.070312 2.335938 1.613281 3.683594 1.613281 1.222656 0 2.441406-.441406 3.410156-1.335937 11.949219-11.054688 24.710938-23.03125 37.433594-35.859376-1.175781 10.507813-3.125 21.320313-6.316406 31.824219-.808594 2.652344.691406 5.457031 3.34375 6.261719.484375.148438.976562.21875 1.460937.21875 2.152344 0 4.140625-1.394531 4.800781-3.5625 4.039063-13.292969 6.191407-26.941406 7.304688-39.902344l4.53125 4.589844c9.121094 9.246094 20.472656 20.746094 23.425781 34.492188.507813 2.355468 2.589844 3.964843 4.90625 3.964843.347657 0 .703125-.039062 1.058594-.113281 2.710937-.582031 4.433594-3.25 3.851563-5.960938-3.09375-14.394531-12.886719-25.816406-21.980469-35.226562 9.632812 4.007812 20.054687 6.164062 30.4375 6.164062.976562 0 1.953125-.019531 2.925781-.054687 2.769531-.109375 4.929688-2.445313 4.820312-5.214844-.109374-2.769531-2.453124-4.917969-5.210937-4.820312-14.429687.570312-29.125-3.695313-41.117187-11.777344 8.652343-9.457031 17.09375-19.320313 25.035156-29.578125 26.046875-33.632812 43.761718-67.890625 52.734375-101.867188 1.886719.070313 3.765625.117188 5.625.117188 17.652343 0 33.730469-3.15625 47.886719-9.410156 18.566406-8.203125 33.304687-21.773438 41.492187-38.207032 5.574219-11.1875 11.488281-28.789062 7.707031-65.886718zm-162.109375-181.386719c8.394531-8.953125 17.191407-14.640625 26.144531-16.914063 5.121094-1.296874 10.832032-1.675781 18.519532-1.226562 15.289062.898438 28.027344 4.523438 37.859375 10.777344 8.449219 5.371094 15.878906 13.433594 21.488281 23.304687 13.894531 24.453125 13.578125 56.757813-.621094 81.027344-10.121094-4.242187-19.933594-6.582031-29.285156-6.953125-2.992188-.117188-5.988281-.019531-8.96875.261719-8.742188-19.09375-22-34.8125-38.421875-45.503907-13.816406-8.996093-29.933594-14.097656-45.761719-14.730468 4.378906-11.039063 10.933594-21.390625 19.046875-30.042969zm47.398438 259.199219c-3.757813 12.296875-8.558594 22.40625-14.679688 30.898437-5.472656 7.597657-12.609375 14.652344-21.203125 20.964844-5.511718 4.046875-10.632812 7.027344-15.578125 9.074219-.125-.011719-.25-.039063-.378906-.042969-.011719 0-.027344 0-.035156 0-1.394531 0-2.652344.574219-3.5625 1.492187-6.375 2.03125-13.714844 2.980469-21.882813 2.800782-18.269531-.410156-36.128906-6.300782-50.296875-16.578125-9.253906-6.714844-16.886719-15.207031-22.417969-24.785157-.0625-1.003906-.417968-2-1.097656-2.839843-.261718-.320313-.558594-.585938-.875-.824219-2.351562-4.636719-4.238281-9.488281-5.582031-14.496094-3.972656-14.824218-3.230469-30.386718-1.976563-43.65625 1.144532-12.117187 3.257813-27.820312 9.457032-41.800781 5.511718-12.421875 14.574218-23.488281 26.207031-32 23.152344-16.9375 49.269531-19.882813 64.886719-15.289063 26.738281 7.867188 46.261718 24.117188 56.457031 47 10.335937 23.210938 11.246094 51.648438 2.558594 80.082032zm-83.054688 121.117187c.285157 8.527344.582031 17.347657.675781 25.992188.015626 1.804687.027344 3.667969.027344 5.566406-3.546875-5.160156-6.164062-11.242187-8.554687-17.207031-10.011719-24.980469-16.253907-46.339844-19.367188-66.433594 8.53125 3.125 17.570313 5.113281 26.769531 5.863281-.570312 15.46875-.054687 31.097657.449219 46.21875zm10.742188 29.785157c-.007813-1.320313-.015625-2.625-.03125-3.898438-.09375-8.761719-.390625-17.636719-.675781-26.222656-.5-14.964844-1.011719-30.425782-.453126-45.566406 5.878907-.113282 11.402344-.777344 16.503907-1.988282-.210938 16.074219-.882813 30.871094-3.796875 45.421875-2.453125 12.257813-6.328125 23.039063-11.546875 32.253907zm16.128906-287.617188c-20.054687-5.902344-43.367187-.28125-61.441406 9.242188-4.683594-11.898438-14.476563-22.171876-27.285157-28.46875-1.863281-.917969-3.789062-1.746094-5.769531-2.5 7.109375-15.488282 16.25-28.414063 27.210938-38.449219 13.035156-11.941407 28.90625-19.660157 44.683593-21.730469 17.582032-2.308594 36.773438 2.289062 52.625 12.609375 13.914063 9.058594 25.742188 22.753906 33.625 38.832031-19.460937 4.78125-37.441406 17.683594-48.929687 35.863282-4.660156-2.078126-9.566406-3.882813-14.71875-5.398438zm-162.683594-92.058594c11.886719-23.875 34.707031-40.699218 58.132813-42.863281 14.78125-1.367187 30.238281 2.683594 43.535156 11.398437 11.988281 7.859376 22.007812 19.300782 29.082031 33.15625-15.066406 3.558594-29.78125 11.46875-42.136719 22.785157-12.246093 11.222656-22.367187 25.652343-30.113281 42.914062-7.703125-1.789062-16.105469-2.554687-25.140625-2.261719-15.582031.503907-29.964844 4.089844-41.945312 10.410157-3.375-19.839844-4.621094-49.03125 8.585937-75.539063zm-31.769531 215.25c-6.414062-11.550781-10.480469-25.1875-12.082031-40.53125-1.875-17.957031.074219-35.207031 5.632812-49.886718 6.179688-16.324219 16.984375-29.886719 30.421875-38.195313 11.308594-6.992187 25.652344-10.960937 41.480469-11.476563 13.867187-.449218 25.917969 1.796876 35.84375 6.679688 11.125 5.472656 19.4375 14.433594 22.929687 24.65625-1.175781.78125-2.320312 1.574219-3.421874 2.378906-13.046876 9.546875-23.230469 22.007813-29.453126 36.035156-6.792968 15.304688-9.058593 32.046876-10.277343 44.925782-1.335938 14.160156-2.113281 30.835937 2.277343 47.203125 1.3125 4.898437 3.078126 9.667969 5.25 14.253906-4.75 2.039063-10.65625 2.277344-16.480468 2.148437-18.308594-.382812-32.019532-3.265624-43.152344-9.0625-11.601562-6.042968-21.890625-16.386718-28.96875-29.128906zm119.054688 118.828125c-14.738282-18.847656-26.929688-41.425781-38.257813-70.828125 4.332031-.382812 8.667969-1.273437 12.632813-3.125 6.082031 9.761719 14.113281 18.429688 23.695312 25.382813 3.917969 2.84375 8.089844 5.386719 12.453125 7.605469 2.855469 22.710937 9.5 46.585937 20.832031 74.863281.074219.179687.148438.363281.21875.542969l-1.160156-1.175782c-10.425781-10.566406-21.203125-21.488281-30.414062-33.265625zm82.910156 25.992188c-2.675782 3.457031-5.421875 6.863281-8.203125 10.230469 2.46875-6.480469 4.460937-13.449219 5.957031-20.90625 3.285156-16.414063 3.855469-32.789063 4.03125-50.722657 5.460938-2.339843 11.042969-5.605469 16.945312-9.941406 9.445313-6.9375 17.320313-14.738281 23.40625-23.1875 1.085938-1.507813 2.121094-3.074219 3.132813-4.667969 1.664063 1.03125 3.472656 1.75 5.335937 2.253906-8.738281 32.230469-25.734374 64.824219-50.605468 96.941407zm146.691406-147.699219c-7.148438 14.34375-20.136719 26.242188-36.566406 33.5-14.628906 6.464844-31.664063 9.289062-50.59375 8.394531-3.394532-.160156-7.050782-.566406-9.316406-2.167969 3.089843-6.15625 5.769531-12.902343 8.058593-20.390624 9.390625-30.746094 8.328125-61.679688-2.992187-87.101563-8.113282-18.210937-21.417969-32.648437-39.058594-42.617187 13.402344-20.613282 36.230469-33.261719 58.753906-32.363282 10.828125.429688 22.535156 3.945313 34.789063 10.449219 13.921875 7.382813 24.300781 16.34375 30.847656 26.628906 8.570313 13.457031 11.269531 30.441407 12.78125 45.277344 1.964844 19.265625 2.703125 41.503906-6.703125 60.390625zm0 0"/></svg>