<svg height="512pt" viewBox="0 -17 512.00165 512" width="512pt" xmlns="http://www.w3.org/2000/svg"><path d="m345.800781 290.570312c-19.621093 0-39.996093-.921874-59.09375-1.914062-45.179687-2.355469-85.71875-5.335938-124.347656-17.984375-25.90625-8.480469-42.269531-20.214844-50.019531-35.867187-6.0625-12.234376-6.8125-27.738282-2.054688-42.539063 6.796875-21.136719 24.367188-40.023437 48.203125-51.8125 23.097657-11.417969 48.648438-15.292969 70.601563-17.582031 19.480468-2.039063 39.597656-3.074219 59.785156-3.074219l2.273438.003906c36.613281.128907 74.65625 3.613281 113.066406 10.347657 31.328125 5.496093 63.183594 13.871093 83.980468 37.710937 17.351563 19.886719 22.613282 47.527344 13.097657 68.773437-9.195313 20.550782-30.710938 35.328126-63.960938 43.917969-26.421875 6.835938-55.507812 10.019531-91.53125 10.019531zm51.074219-135.792968c-8.710938 0-17.125 1.628906-24.324219 4.71875-10.316406 4.425781-18.957031 11.34375-24.996093 20-8.96875 12.875-12.105469 28.988281-8.390626 43.105468 3.34375 12.726563 12.105469 24.210938 24.671876 32.339844 10.90625 7.058594 23.566406 10.789063 36.617187 10.789063 10.316406 0 20.335937-2.421875 28.976563-7.003907 20.722656-10.992187 33.355468-35.140624 30.039062-57.417968-2.316406-15.59375-12.089844-28.921875-27.523438-37.535156-10.402343-5.800782-22.855468-8.996094-35.070312-8.996094zm-103.777344 14.667968c-5.667968 0-11.457031 1.964844-15.886718 5.390626-4.347657 3.367187-6.675782 8.523437-6.074219 13.449218.480469 3.957032 2.914062 7.871094 6.671875 10.734375 3.6875 2.820313 8.339844 4.371094 13.105468 4.371094 2.988282 0 5.898438-.636719 8.417969-1.839844 7.109375-3.425781 11.394531-11.351562 10.175781-18.847656-.949218-5.835937-4.144531-9.980469-9.242187-11.992187-2.128906-.839844-4.542969-1.265626-7.167969-1.265626zm-57.53125-.625c-5.664062 0-11.445312 1.960938-15.863281 5.382813-4.347656 3.367187-6.679687 8.523437-6.089844 13.460937.480469 3.949219 2.917969 7.863282 6.683594 10.734376 3.699219 2.820312 8.347656 4.371093 13.097656 4.371093 2.980469 0 5.890625-.636719 8.410157-1.847656 7.128906-3.417969 11.414062-11.339844 10.191406-18.839844-.949219-5.84375-4.140625-9.988281-9.234375-11.988281-2.140625-.84375-4.5625-1.273438-7.195313-1.273438zm-57.660156-1.414062c-5.582031 0-11.515625 2.011719-15.875 5.386719-4.355469 3.367187-6.6875 8.523437-6.085938 13.453125.480469 3.953125 2.914063 7.863281 6.683594 10.730468 3.6875 2.824219 8.335938 4.375 13.09375 4.375 3 0 5.90625-.636718 8.402344-1.84375 7.136719-3.421874 11.421875-11.347656 10.199219-18.84375-.945313-5.832031-4.144531-9.980468-9.246094-11.992187-2.132813-.839844-4.542969-1.265625-7.171875-1.265625zm0 0" fill="#ed6d66"/><path d="m417.488281 472.695312c-2.6875 0-5.421875-.105468-8.125-.316406-21.121093-1.644531-40.460937-9.175781-54.457031-21.203125-19.882812-17.089843-31.394531-44.871093-31.582031-76.210937-.167969-29.671875 9.335937-58.230469 17.636719-79.792969l.984374-2.5625h3.957032c31.710937 0 57.585937-2.410156 81.433594-7.589844l3.574218-.773437 1.089844 3.492187c4.410156 14.101563 14.183594 25.855469 22.207031 34.523438 2.488281 2.683593 5.078125 5.363281 7.582031 7.949219l.152344.160156c8.101563 8.378906 15.757813 16.292968 21.832032 25.785156 6.023437 9.410156 10.203124 20.210938 12.09375 31.226562 3.515624 20.46875-1.308594 41.671876-12.90625 56.71875-13.800782 17.902344-38.277344 28.59375-65.472657 28.59375zm-1.4375-115.796874c-18.675781 0-37.382812 11.492187-45.5 27.949218-3.046875 6.199219-4.476562 12.898438-4.125 19.363282.707031 13 8.214844 25.898437 20.085938 34.5 8.183593 5.929687 17.460937 9.328124 26.824219 9.824218.75.042969 1.554687.066406 2.40625.066406 9.183593 0 18.027343-2.898437 24.910156-8.160156 5.300781-4.039062 9.835937-9.8125 13.121094-16.695312 6.613281-13.847656 6.902343-29.707032.777343-42.417969-5.457031-11.335937-15.988281-19.988281-28.171875-23.148437-3.285156-.851563-6.761718-1.28125-10.328125-1.28125zm0 0" fill="#f9d889"/><path d="m400.542969 263.59375c-12.628907 0-25.277344-3.679688-35.601563-10.367188-11.957031-7.734374-20.636718-19.089843-23.804687-31.148437-3.566407-13.550781-.542969-29.03125 8.085937-41.40625 5.832032-8.359375 14.175782-15.03125 24.125-19.296875 7.007813-3.011719 15.160156-4.605469 23.566406-4.605469 11.792969 0 23.878907 3.121094 34.03125 8.789063 14.863282 8.285156 24.277344 21.089844 26.507813 36.050781 3.1875 21.453125-8.996094 44.714844-28.972656 55.3125-8.234375 4.367187-17.894531 6.671875-27.9375 6.671875zm-27.699219-31.828125c-.539062 0-1 .441406-1.023438.980469-.023437.550781.417969 1.03125.980469 1.058594 9.585938.425781 19.277344.644531 28.792969.644531 9.175781 0 18.445312-.199219 27.546875-.597657.5625-.023437 1-.5.976563-1.058593-.023438-.539063-.476563-.976563-1.011719-.976563-9.117188.390625-18.359375.589844-27.527344.589844-9.554687 0-19.207031-.214844-28.695313-.640625zm-9.507812-18.835937c-.351563.007812-.578126.175781-.710938.316406-.128906.140625-.285156.378906-.273438.722656.019532.5625.460938.992188 1.011719.992188l70.488281-2.148438c.351563-.011719.582032-.179688.714844-.320312.132813-.140626.289063-.382813.277344-.734376-.015625-.535156-.484375-.976562-1.039062-.976562zm27.992187-22.121094c12.363281 0 24.882813.117187 37.210937.339844.570313 0 1.023438-.449219 1.035157-1.003907.007812-.351562-.148438-.585937-.277344-.722656-.132813-.140625-.367187-.308594-.714844-.3125-12.339843-.226563-24.878906-.339844-37.265625-.339844-7.925781 0-15.921875.046875-23.753906.140625-.351562.003906-.585938.164063-.71875.300782-.132812.140624-.292969.378906-.289062.734374.007812.546876.464843 1.003907 1.019531 1.003907 7.84375-.089844 15.828125-.140625 23.753906-.140625zm0 0" fill="#59bd8b"/><path d="m415.65625 446.5625c-.734375 0-1.472656-.019531-2.207031-.058594-8.851563-.484375-17.992188-3.835937-25.738281-9.445312-11.375-8.234375-18.566407-20.558594-19.238282-32.960938-.035156-.609375-.046875-1.234375-.046875-1.847656 0-5.542969 1.371094-11.25 3.960938-16.5 7.789062-15.808594 25.636719-26.851562 43.398437-26.851562 3.46875 0 6.859375.421874 10.082032 1.257812 11.605468 3 21.644531 11.246094 26.851562 22.058594 5.851562 12.164062 5.558594 27.363281-.785156 40.65625-3.140625 6.578125-7.464844 12.089844-12.507813 15.945312-6.554687 4.996094-14.992187 7.746094-23.769531 7.746094zm0 0" fill="#59bd8b"/><path d="m347.476562 83.824219c-20.472656 0-41.089843-1.28125-61.269531-3.804688-16.421875-2.050781-35.472656-5.273437-52.273437-13.617187-9.050782-4.511719-13.835938-9.859375-14.222656-15.898438-.382813-5.902344 3.726562-11.105468 7.246093-14.429687 7.757813-7.316407 17.726563-11.691407 26.457031-15.003907 13.386719-5.085937 27.449219-8.949218 41.796876-11.480468 13.40625-2.355469 27.070312-3.550782 40.613281-3.550782 12.378906 0 24.84375 1 37.046875 2.972657 9.726562 1.570312 19.730468 4.042969 28.5625 6.226562l2.882812.707031c11.015625 2.707032 23.660156 6.511719 33.925782 14.214844 5.617187 4.214844 9.042968 8.75 10.1875 13.476563 1.339843 5.5-.335938 11.910156-4.480469 17.148437-3.347657 4.234375-8.117188 7.75-15.007813 11.050782-17.195312 8.214843-36.398437 10.265624-54.589844 11.257812-8.890624.484375-17.933593.730469-26.875.730469zm0 0" fill="#ed6d66"/><path d="m358.960938 121.65625c-16.398438-1.789062-32.9375-2.980469-49.164063-3.539062l-3.980469-.136719.148438-4.972657.796875-28.804687 4.175781.308594c12.171875.894531 24.457031 1.347656 36.515625 1.347656 4.746094 0 9.558594-.070313 14.3125-.207031l4.582031-.132813-2.195312 20.566407c-.40625 3.753906-.824219 7.632812-.757813 11.527343l.078125 4.535157zm0 0" fill="#f9d889"/><g fill="#59bd8b"><path d="m316.125 385.648438c-11.917969 0-22.984375-1.785157-32.890625-5.308594-12.777344-4.539063-23.644531-11.957032-31.433594-21.453125-7.496093-9.132813-12.6875-20.90625-15.003906-34.050781-1.816406-10.328126-1.933594-21.367188-.351563-33.753907l.488282-3.828125 3.847656.351563c8.226562.757812 17.207031 1.429687 27.445312 2.050781l4.183594.253906-.449218 4.167969c-1.519532 14.113281 1.875 27.625 9.5625 38.046875 8.160156 11.074219 21.351562 17.953125 34.421874 17.953125.71875 0 1.511719-.027344 2.433594-.089844l4.859375-.324219-.628906 4.832032c-.917969 7.050781-1.363281 13.945312-1.324219 20.480468.015625 2.144532.085938 4.320313.203125 6.445313l.226563 4.167969-4.175782.050781c-.472656.003906-.941406.007813-1.414062.007813zm0 0"/><path d="m290.914062 201.363281c-4.308593 0-8.523437-1.410156-11.867187-3.964843-3.320313-2.53125-5.46875-5.9375-5.894531-9.347657-.5-4.175781 1.585937-8.722656 5.316406-11.605469 4.011719-3.109374 9.484375-4.964843 14.636719-4.964843 2.359375 0 4.519531.378906 6.417969 1.128906 3.0625 1.210937 6.933593 4 7.96875 10.421875 1.066406 6.507812-2.824219 13.683594-9.050782 16.683594-2.253906 1.078125-4.851562 1.648437-7.527344 1.648437zm0 0"/><path d="m233.398438 200.738281c-4.304688 0-8.519532-1.40625-11.859376-3.957031-3.324218-2.535156-5.472656-5.945312-5.894531-9.363281-.503906-4.167969 1.582031-8.71875 5.3125-11.601563 2.011719-1.550781 4.433594-2.824218 7.003907-3.679687 2.480468-.839844 5.121093-1.285157 7.625-1.285157 2.355468 0 4.515624.382813 6.425781 1.140626 3.058593 1.207031 6.933593 3.996093 7.972656 10.421874 1.066406 6.511719-2.824219 13.683594-9.0625 16.671876-2.238281 1.078124-4.839844 1.652343-7.523437 1.652343zm0 0"/><path d="m175.722656 199.320312c-4.308594 0-8.519531-1.40625-11.859375-3.964843-3.335937-2.539063-5.484375-5.953125-5.890625-9.359375-.5-4.152344 1.582032-8.703125 5.296875-11.585938 4.027344-3.121094 9.5-4.980468 14.644531-4.980468 2.34375 0 4.503907.382812 6.417969 1.140624 3.058594 1.199219 6.925781 3.984376 7.980469 10.414063 1.054688 6.527344-2.84375 13.699219-9.066406 16.691406-2.246094 1.078125-4.847656 1.644531-7.523438 1.644531zm0 0"/></g><path d="m101.367188 223.363281c-11.789063-.789062-25.269532-1.636719-36.078126-1.734375l-4.707031-.042968.800781-4.636719c.578126-3.355469.582032-6.816407.011719-10.28125l-.78125-4.761719 45.027344 1.0625-.308594 4.195312c-.289062 3.945313-.195312 7.890626.273438 11.71875l.585937 4.800782zm0 0" fill="#f9d889"/><path d="m34.5625 236.390625c-3.902344 0-7.886719-.679687-11.515625-1.972656-4.238281-1.507813-10.03125-4.441407-13.59375-9.859375-3.582031-5.429688-4.394531-13.105469-2.105469-20.023438 2.65625-8.078125 8.660156-14.953125 16.050782-18.382812 3.386718-1.578125 6.914062-2.382813 10.484374-2.382813 3.039063 0 6.066407.597657 9.007813 1.777344 6.355469 2.554687 11.6875 8.007813 14.636719 14.960937 4.269531 10.058594 2.453125 21.914063-4.417969 28.832032-4.503906 4.546875-11.09375 7.050781-18.546875 7.050781zm0 0" fill="#59bd8b"/><path d="m506.808594 239.097656c10.453125-23.355468 4.800781-53.578125-14.0625-75.203125-22.03125-25.261719-55.070313-34.003906-87.488282-39.6875-11.980468-2.101562-23.921874-3.886719-35.796874-5.359375-.003907-.058594.011718-.113281.007812-.171875-.183594-3.871093.238281-7.792969.683594-11.949219l1.851562-17.285156c.007813-.066406 0-.125.003906-.191406.886719-.042969 1.78125-.078125 2.671876-.128906 18.8125-1.023438 38.722656-3.167969 56.863281-11.835938 7.734375-3.699218 13.183593-7.75 17.144531-12.753906 5.292969-6.683594 7.390625-15.027344 5.613281-22.324219-1.492187-6.125-5.675781-11.804687-12.429687-16.875-11.136719-8.355469-24.503906-12.398437-36.113282-15.25l-2.878906-.707031c-9.425781-2.324219-19.175781-4.730469-29.042968-6.320312-26.378907-4.261719-53.183594-4.0625-79.664063.59375-14.695313 2.582031-29.128906 6.546874-42.90625 11.78125-9.300781 3.53125-19.953125 8.230468-28.457031 16.257812-6.394532 6.035156-9.550782 12.679688-9.125 19.214844.371094 5.742187 3.722656 14.03125 17.566406 20.910156 17.59375 8.742188 37.277344 12.085938 54.210938 14.203125 5.039062.628906 10.09375 1.183594 15.164062 1.65625l-.695312 25.195313c-.007813.324218-.015626.664062-.03125 1-2.917969-.050782-5.828126-.089844-8.726563-.101563-21.199219-.078125-42.304687.96875-62.714844 3.097656-22.480469 2.34375-48.695312 6.339844-72.648437 18.183594-25.289063 12.5-43.976563 32.683594-51.273438 55.371094-.6875 2.136719-1.261718 4.285156-1.738281 6.441406l-40.769531-.953125c-3.722656-7.351562-9.765625-13.101562-16.882813-15.957031-7.863281-3.160157-16.488281-2.902344-24.292969.722656-8.875 4.128906-16.066406 12.34375-19.246093 21.976563-2.886719 8.761718-1.839844 18.195312 2.800781 25.238281 3.558594 5.394531 9.300781 9.621093 16.609375 12.222656 4.496094 1.597656 9.085937 2.375 13.53125 2.375 8.832031 0 17.085937-3.074219 22.851563-8.886719 1.738281-1.75 3.203124-3.753906 4.417968-5.929687 11.84375-.105469 28.796875 1.027343 41.1875 1.855469l.78125.054687c.84375 2.734375 1.890625 5.378906 3.140625 7.90625 8.507813 17.179687 26.027344 29.910156 53.550781 38.925781 22.578126 7.398438 45.703126 11.539063 69.941407 14.175782-1.617188 12.820312-1.480469 24.414062.433593 35.292968 2.492188 14.164063 8.121094 26.902344 16.28125 36.84375 8.496094 10.347656 20.28125 18.40625 34.078126 23.308594 10.621093 3.769531 22.351562 5.675781 34.941406 5.675781.761718 0 1.527344-.011719 2.296875-.027343 3.523437 26.1875 14.953125 48.980468 32.523437 64.070312 14.96875 12.863281 35.539063 20.902344 57.921875 22.644531 2.871094.226563 5.722657.335938 8.550781.335938 28.882813 0 55.285157-11.46875 70.296876-30.941407 12.605468-16.351562 17.867187-39.316406 14.078124-61.425781-2.023437-11.808593-6.503906-23.378906-12.964843-33.46875-6.390625-9.984375-14.621094-18.496093-22.578125-26.726562-2.53125-2.617188-5.148438-5.324219-7.636719-8.007813-7.609375-8.210937-16.542969-19-20.660156-31.542968.289062-.070313.578125-.136719.867187-.210938 35.113282-9.082031 57.980469-24.996094 67.960938-47.308594zm-271.089844-176.277344c-5.28125-2.625-11.652344-6.933593-12.015625-12.570312-.300781-4.59375 3.628906-9.03125 5.996094-11.265625 7.222656-6.816406 16.757812-10.988281 25.132812-14.171875 13.183594-5.011719 27.003907-8.804688 41.078125-11.277344 13.253906-2.332031 26.589844-3.496094 39.910156-3.496094 12.175782 0 24.34375.976563 36.414063 2.925782 9.460937 1.527344 19.011719 3.878906 28.242187 6.15625l2.882813.710937c10.625 2.609375 22.796875 6.257813 32.484375 13.53125 4.847656 3.636719 7.777344 7.414063 8.703125 11.222657 1.050781 4.308593-.34375 9.4375-3.730469 13.714843-2.976562 3.757813-7.300781 6.914063-13.605468 9.925781-16.558594 7.914063-35.296876 9.902344-53.078126 10.871094-29.160156 1.585938-58.574218.5625-87.425781-3.046875-16.097656-2.011719-34.742187-5.160156-50.988281-13.230469zm74.25 50.320313.675781-24.640625c12.234375.898438 24.519531 1.363281 36.808594 1.363281 4.8125 0 9.625-.074219 14.433594-.214843l-1.71875 16.007812c-.414063 3.890625-.839844 7.902344-.769531 12.027344-16.671876-1.820313-33.1875-3.007813-49.464844-3.558594.015625-.339844.027344-.671875.035156-.984375zm-259.691406 113.382813c-6.757813 6.808593-17.875 6.976562-25.894532 4.125-3.652343-1.300782-8.628906-3.792969-11.589843-8.289063-2.925781-4.4375-3.554688-10.785156-1.648438-16.570313 2.324219-7.046874 7.535157-13.035156 13.941407-16.011718 2.246093-1.042969 5.265624-2.003906 8.792968-2.003906 2.316406 0 4.851563.414062 7.527344 1.488281 5.363281 2.15625 9.898438 6.824219 12.4375 12.808593 3.648438 8.601563 2.183594 18.660157-3.566406 24.453126zm15.042968-8.890626c.652344-3.773437.667969-7.714843.023438-11.609374l35.996094.84375c-.304688 4.234374-.203125 8.425781.296875 12.503906-11.09375-.742188-25.160157-1.644532-36.316407-1.738282zm50.601563 15.394532c-5.605469-11.316406-6.269531-25.726563-1.828125-39.539063 6.46875-20.117187 23.296875-38.140625 46.164062-49.445312 22.53125-11.136719 47.644532-14.945313 69.242188-17.199219 20.054688-2.089844 40.777344-3.121094 61.636719-3.042969 36.371093.128907 74.183593 3.59375 112.386719 10.292969 30.601562 5.367188 61.675781 13.492188 81.65625 36.398438 16.339843 18.730468 21.347656 44.652343 12.464843 64.503906-8.671875 19.382812-29.300781 33.410156-61.3125 41.6875-46.90625 12.128906-95.421875 10.785156-149.417969 7.972656-44.898437-2.339844-85.167968-5.292969-123.3125-17.785156-24.832031-8.132813-40.425781-19.207032-47.679687-33.84375zm204.316406 110.828125c-.324219-.03125-.660156-.03125-.996093.007812-12.125 1.328125-25.023438-4.691406-32.863282-15.320312-6.871094-9.316407-9.851562-21.679688-8.363281-34.308594 2.777344.152344 5.566406.300781 8.375.449219 16.316406.847656 32.136719 1.558594 47.597656 1.816406-5.25 13.980469-10.566406 30.179688-13.75 47.355469zm-35.667969 32.714843c-12.078124-4.289062-22.339843-11.28125-29.679687-20.21875-7.0625-8.609374-11.960937-19.746093-14.152344-32.210937-1.75-9.949219-1.847656-20.640625-.324219-32.554687 9.019532.832031 18.203126 1.488281 27.574219 2.0625-1.617187 14.941406 2.042969 29.636718 10.3125 40.851562 8.996094 12.199219 23.398438 19.578125 37.644531 19.578125.898438 0 1.796876-.039063 2.695313-.101563-.894531 6.921876-1.394531 13.953126-1.351563 21.023438.011719 2.230469.085938 4.441406.207032 6.636719-11.949219.140625-23.019532-1.546875-32.925782-5.066407zm166.707032-51.589843c2.5625 2.765625 5.21875 5.511719 7.78125 8.164062 7.96875 8.238281 15.492187 16.019531 21.34375 25.164063 5.742187 8.96875 9.726562 19.253906 11.523437 29.75 3.324219 19.394531-1.210937 39.433594-12.132812 53.597656-14.4375 18.730469-41.308594 28.976562-70.117188 26.730469-20.273437-1.578125-38.796875-8.769531-52.160156-20.25-19.003906-16.328125-30.007813-43.003907-30.1875-73.195313-.167969-28.210937 8.488281-55.265625 17.363281-78.335937.40625 0 .8125.007812 1.21875.007812 28.34375-.003906 55.515625-1.875 82.273438-7.683593 4.597656 14.722656 14.605468 26.894531 23.09375 36.050781zm0 0"/><path d="m361.660156 258.300781c11.710938 7.582031 25.347656 11.429688 38.796875 11.429688 10.769531 0 21.417969-2.46875 30.851563-7.472657 22.167968-11.753906 35.675781-37.636718 32.117187-61.539062-2.503906-16.847656-12.996093-31.210938-29.535156-40.4375-19.359375-10.804688-44.058594-12.554688-62.917969-4.460938-10.996094 4.714844-20.226562 12.113282-26.699218 21.394532-9.632813 13.816406-12.988282 31.160156-8.980469 46.398437 3.605469 13.695313 12.96875 26.015625 26.367187 34.6875zm-9.152344-75.34375c5.402344-7.742187 13.152344-13.9375 22.421876-17.910156 6.675781-2.867187 14.234374-4.273437 21.984374-4.273437 10.945313 0 22.285157 2.804687 32.085938 8.273437 13.757812 7.675781 22.457031 19.449219 24.496094 33.148437 2.953125 19.835938-8.359375 41.363282-26.890625 51.191407-17.773438 9.421875-41.679688 8.011719-59.492188-3.515625-11.128906-7.203125-19.1875-17.707032-22.109375-28.8125-3.273437-12.425782-.464844-26.671875 7.503906-38.101563zm0 0"/><path d="m367.578125 194.945312h.058594c20.195312-.234374 40.664062-.167968 60.832031.199219h.09375c2.730469 0 4.964844-2.183593 5.015625-4.925781.050781-2.773438-2.152344-5.058594-4.925781-5.109375-20.269532-.375-40.839844-.441406-61.132813-.203125-2.773437.035156-4.996093 2.308594-4.960937 5.082031.03125 2.75 2.273437 4.957031 5.019531 4.957031zm0 0"/><path d="m363.363281 218.964844c.054688 0 .105469 0 .15625-.003906l70.457031-2.148438c2.769532-.085938 4.949219-2.398438 4.863282-5.171875-.082032-2.769531-2.410156-4.933594-5.167969-4.863281l-70.457031 2.152344c-2.769532.082031-4.949219 2.398437-4.863282 5.167968.082032 2.71875 2.3125 4.867188 5.011719 4.867188zm0 0"/><path d="m428.882812 227.824219c-18.519531.796875-37.296874.777343-55.816406-.054688-2.753906-.117187-5.113281 2.019531-5.238281 4.789063-.125 2.769531 2.019531 5.113281 4.789063 5.238281 9.613281.433594 19.292968.652344 28.976562.652344 9.257812 0 18.523438-.199219 27.71875-.597657 2.773438-.117187 4.917969-2.460937 4.800781-5.230468-.121093-2.769532-2.46875-4.925782-5.230469-4.796875zm0 0"/><path d="m186.546875 164.949219c-8.160156-3.214844-19.25-1.292969-26.964844 4.679687-5.457031 4.226563-8.375 10.777344-7.605469 17.097656.609376 5.015626 3.605469 9.914063 8.222657 13.4375 4.476562 3.414063 10.046875 5.1875 15.527343 5.1875 3.523438 0 7.007813-.730468 10.136719-2.238281 8.6875-4.171875 13.90625-13.886719 12.410157-23.09375-1.171876-7.199219-5.335938-12.550781-11.726563-15.070312zm-5.03125 29.117187c-4.609375 2.214844-10.871094 1.441406-15.222656-1.882812-2.480469-1.890625-4.066407-4.320313-4.351563-6.667969-.332031-2.742187 1.1875-5.9375 3.785156-7.945313 3.421876-2.648437 8.046876-4.136718 12.1875-4.136718 1.789063 0 3.484376.277344 4.953126.855468 3.09375 1.222657 4.890624 3.621094 5.496093 7.34375.773438 4.753907-2.234375 10.214844-6.847656 12.433594zm0 0"/><path d="m244.21875 166.367188c-8.160156-3.21875-19.25-1.292969-26.964844 4.675781-5.457031 4.226562-8.375 10.777343-7.605468 17.101562.609374 5.015625 3.609374 9.910157 8.226562 13.433594 4.472656 3.414063 10.042969 5.191406 15.523438 5.191406 3.523437 0 7.007812-.734375 10.140624-2.238281 8.6875-4.175781 13.902344-13.886719 12.40625-23.097656-1.171874-7.195313-5.335937-12.550782-11.726562-15.066406zm-5.03125 29.113281c-4.609375 2.214843-10.871094 1.441406-15.222656-1.882813-2.480469-1.890625-4.066406-4.320312-4.351563-6.664062-.332031-2.746094 1.1875-5.9375 3.785157-7.949219 3.421874-2.648437 8.046874-4.132813 12.1875-4.132813 1.789062 0 3.484374.277344 4.953124.855469 3.09375 1.21875 4.890626 3.621094 5.496094 7.339844.773438 4.757813-2.234375 10.21875-6.847656 12.433594zm0 0"/><path d="m301.050781 205.15625c8.6875-4.175781 13.90625-13.886719 12.40625-23.097656-1.171875-7.199219-5.335937-12.550782-11.726562-15.066406-8.160157-3.21875-19.25-1.292969-26.964844 4.675781-5.457031 4.226562-8.371094 10.777343-7.605469 17.097656.609375 5.015625 3.609375 9.914063 8.226563 13.4375 4.472656 3.414063 10.042969 5.1875 15.523437 5.1875 3.523438.003906 7.007813-.730469 10.140625-2.234375zm-23.921875-17.597656c-.335937-2.746094 1.1875-5.9375 3.785156-7.949219 3.417969-2.648437 8.046876-4.132813 12.1875-4.132813 1.785157 0 3.480469.277344 4.949219.855469 3.09375 1.21875 4.890625 3.621094 5.496094 7.339844.773437 4.757813-2.234375 10.21875-6.84375 12.4375-4.609375 2.214844-10.871094 1.4375-15.226563-1.882813-2.480468-1.894531-4.0625-4.324218-4.347656-6.667968zm0 0"/><path d="m362.433594 404.425781c.773437 14.199219 8.898437 28.226563 21.734375 37.523438 8.804687 6.375 18.816406 10.035156 28.953125 10.582031.878906.050781 1.75.070312 2.621094.070312 10.074218 0 19.699218-3.144531 27.34375-8.984374 5.804687-4.433594 10.75-10.707032 14.296874-18.144532 7.128907-14.933594 7.417969-32.085937.773438-45.882812-5.960938-12.382813-17.464844-21.832032-30.769531-25.28125-22.609375-5.855469-49.714844 7.050781-60.421875 28.769531-3.351563 6.808594-4.917969 14.191406-4.53125 21.347656zm13.539062-16.90625c8.710938-17.679687 30.644532-28.222656 48.894532-23.488281 10.484374 2.714844 19.546874 10.160156 24.246093 19.917969 5.332031 11.078125 5.039063 24.984375-.789062 37.203125-2.867188 6.007812-6.785157 11.019531-11.332031 14.488281-6.316407 4.824219-14.816407 7.328125-23.332032 6.867187-8.085937-.433593-16.46875-3.523437-23.605468-8.6875-10.410157-7.539062-16.988282-18.730468-17.597657-29.9375-.292969-5.441406.921875-11.101562 3.515625-16.363281zm0 0"/></svg>