<svg height="512pt" viewBox="0 -105 512.00363 512" width="512pt" xmlns="http://www.w3.org/2000/svg"><path d="m252.441406 292.613281c1.546875-43.265625 2.503906-87.421875 2.84375-131.246093l.03125-4.015626 4.019532.046876c19.769531.234374 40.445312.679687 63.199218 1.363281 19.851563.601562 40.722656 1.382812 62.035156 2.308593 18.585938.804688 38.09375 1.746094 59.636719 2.875 7.261719.378907 14.511719.757813 21.773438 1.148438l20.714843 1.140625c4.742188.253906 10.039063.820313 12.871094 4.316406 1.769532 2.183594 2.28125 5.105469 2.726563 8.417969 4.628906 34.550781 4.882812 69.597656.753906 104.164062-.371094 3.191407-.859375 6.246094-2.695313 8.402344-2.75 3.222656-7.585937 3.558594-12.308593 3.621094-69.332031.964844-145.089844 1.488281-231.601563 1.601562l-4.148437.003907zm0 0" fill="#ed6d66"/><path d="m475.945312 163.601562c-16.488281-.90625-31.132812-1.683593-44.769531-2.367187l-4.550781-.230469.816406-4.480468c1.199219-6.625 1.769532-13.390626 1.691406-20.109376l-.050781-4.449218 52.398438 4.988281-1.554688 26.867187zm0 0" fill="#ed6d66"/><g fill="#5bd0fc"><path d="m391.835938 159.355469c-54.351563-2.4375-101.703126-3.78125-144.761719-4.117188-7.261719-.054687-14.523438-.085937-21.574219-.085937-34.78125 0-67.144531.664062-98.941406 2.03125l-6.503906.296875-.304688-3.855469c-2.902344-36.566406-3.707031-73.710938-2.390625-110.398438l.132813-3.75 3.75-.105468c52.117187-1.492188 105.117187-2.25 157.53125-2.25 2.972656 0 9.410156.007812 9.410156.007812l.472656.121094c.171875.039062.25.054688.28125.058594.101562-.03125.191406-.054688.28125-.074219l.453125-.105469h.472656c33.273438.070313 67.101563.449219 100.550781 1.132813l3.703126.074219.210937 3.691406c2.164063 37.628906 2.636719 75.800781 1.402344 113.460937l-.132813 4.046875zm0 0"/><path d="m373.867188 35.929688c-17.75-.3125-35.058594-.539063-51.441407-.671876l-4.078125-.03125.765625-27.675781 3.808594-.082031c2.347656-.050781 4.734375-.074219 7.089844-.074219 15.386719 0 30.914062 1.085938 46.152343 3.234375l4.097657.574219-.714844 4.074219c-.9375 5.382812-1.480469 11.015625-1.609375 16.742187l-.089844 3.976563zm0 0"/><path d="m226.710938 6.5 59.964843-.453125-.140625 4.167969c-.234375 6.789062 0 13.679687.691406 20.480468l.445313 4.40625-7.667969-.003906c-15.355468 0-31.3125.066406-47.417968.199219l-3.746094.03125zm0 0"/></g><path d="m214.941406 296.792969c-65.992187 0-132.289062-.199219-196.402344-.390625l-4.175781-.015625c-.539062 0-1.125-.007813-1.65625-.058594l-2.789062-.269531-.695313-2.714844c-.203125-.785156-.3125-1.8125-.34375-3.230469l-2.3125-101.832031c-.023437-1.136719-.113281-2.359375-.210937-3.648438l-.027344-.398437c-.476563-5.953125-1.019531-12.734375 3.6875-15.75 3.917969-2.503906 10.757813-2.800781 19.292969-2.933594 2.585937-.039062 5.214844-.074219 7.285156-.265625 9.914062-.929687 20.007812-1.78125 29.984375-2.523437 19.492187-1.46875 39.703125-2.65625 60.066406-3.539063 31.8125-1.363281 64.140625-2.027344 98.839844-2.027344 7.058594 0 14.316406.027344 21.582031.085938l2.230469.019531 3.980469.050781-.03125 3.980469c-.332032 43.714844-1.292969 87.992188-2.863282 131.59375l-.140624 3.851563-3.851563.003906c-10.488281.007812-20.980469.011719-31.449219.011719zm0 0" fill="#f9d889"/><path d="m133.917969 33.195312c-.5625-7.511718-.941407-15.054687-1.132813-22.425781l-.113281-4.40625 4.402344.316407c9.945312.714843 20.070312 1.074218 30.09375 1.074218h.003906c7.664063 0 15.417969-.210937 23.042969-.628906l4.828125-.265625-.640625 4.789063c-.839844 6.269531-.421875 12.878906 1.210937 19.117187l1.292969 4.933594-5.097656.078125c-16.421875.257812-34.019532.625-53.804688 1.121094l-3.804687.09375zm0 0" fill="#5bd0fc"/><path d="m34.703125 159.820312c-1.472656-7.28125-2.253906-14.726562-2.328125-22.125l-.035156-3.785156 3.777344-.246094c11.039062-.714843 22.285156-1.078124 33.425781-1.078124 6.351562 0 12.769531.121093 19.082031.355468l4.085938.148438-.242188 4.082031c-.34375 5.816406-.234375 11.738281.328125 17.613281l.394531 4.113282-4.125.261718c-7.863281.492188-15.484375 1.019532-22.644531 1.566406-8.539063.636719-17.511719 1.386719-27.433594 2.285157l-3.574219.320312zm0 0" fill="#f9d889"/><path d="m508.28125 178.164062c-.414062-3.078124-1.035156-7.726562-4.019531-11.414062-4.375-5.402344-11.1875-6.214844-17.234375-6.546875-.277344-.015625-.554688-.03125-.835938-.046875l1.144532-19.828125c.0625-1.132813.183593-3.242187-.9375-5.304687-2.105469-3.871094-6.441407-4.285157-8.074219-4.441407l-49.945313-4.75c-1.464844-.140625-2.917968.371094-3.972656 1.394531-1.054688 1.023438-1.609375 2.457032-1.511719 3.925782.550781 8.566406-.011719 17.160156-1.648437 25.582031-6.351563-.3125-12.753906-.621094-19.207032-.921875 1.300782-39.445312.738282-79.398438-1.683593-118.78125-.160157-2.609375-2.289063-4.65625-4.902344-4.710938-3.828125-.082031-7.671875-.136718-11.503906-.207031.152343-6.929687.992187-13.851562 2.507812-20.617187.300781-1.351563.03125-2.769532-.75-3.917969-.777343-1.148437-2-1.921875-3.371093-2.136719-19.992188-3.140625-40.386719-4.480468-60.617188-3.988281-1.191406.027344-3.414062.082031-5.445312 1.582031-3.140626 2.320313-3.246094 6.140625-3.289063 7.582032l-.570313 20.589843c-6.355468-.039062-12.710937-.082031-19.070312-.101562-.933594-8.535157-1.109375-17.171875-.511719-25.734375.101563-1.394532-.386719-2.765625-1.347656-3.785156-.957031-1.019532-2.273437-1.585938-3.695313-1.585938l-62.21875.472656c-1.386718.011719-2.710937.597656-3.652343 1.617188-.941407 1.023437-1.417969 2.390625-1.3125 3.773437l1.890625 25.507813c-6.789063.070312-13.574219.171875-20.355469.265625-2.59375-7.910157-2.839844-16.59375-.675781-24.632813.425781-1.566406.0625-3.242187-.972656-4.496094-1.03125-1.253906-2.597657-1.925781-4.226563-1.816406-21.308594 1.503906-42.910156 1.347656-64.195313-.460937-1.414062-.121094-2.8125.363281-3.847656 1.332031-1.035156.964844-1.617187 2.328125-1.59375 3.746094.136719 9.253906.554688 18.613281 1.226563 27.859375-3.828125.105469-7.664063.191406-11.488281.304687-2.636719.078125-4.761719 2.179688-4.867188 4.8125-1.558594 38.359375-.8125 77.210938 2.199219 115.496094-4.972657.246094-9.925781.511719-14.851563.792969-.605468-6.105469-.699218-12.269531-.265625-18.382813.085938-1.222656.269531-3.769531-1.375-6.03125-2.1875-3.015625-5.757812-3.15625-7.101562-3.210937-19.023438-.75-38.296875-.453125-57.285157.886719-.777343.058593-2.59375.183593-4.210937 1.578124-2.214844 1.898438-2.253906 4.542969-2.265625 5.410157-.121094 8.273437.605469 16.566406 2.148438 24.699219-7.6875.117187-16.234376.355468-21.726563 3.871093-7.753906 4.957031-6.980469 14.8125-6.464844 21.332031.105469 1.34375.203125 2.609376.226563 3.683594l2.3125 101.835938c.054687 2.261718.175781 7.550781 4.449218 10.453125 2.53125 1.714843 5.367188 1.722656 7.058594 1.730469 65.945313.199218 132.84375.402343 200.085938.402343 91.097656 0 182.828125-.375 273.6875-1.632812 4.214844-.054688 12.058594-.164063 16.820312-5.742188 3.167969-3.714843 3.734375-8.46875 4.109375-11.613281 4.179688-35.09375 3.921875-70.648438-.769531-105.679688zm-75.148438-41.796874 44.132813 4.199218-1.097656 19.039063c-14.527344-.792969-29.484375-1.59375-44.792969-2.367188 1.246094-6.890625 1.839844-13.875 1.757812-20.871093zm-110.125-124.902344c17.539063-.371094 35.207032.675781 52.597657 3.121094-1 5.726562-1.542969 11.53125-1.671875 17.34375-17.128906-.300782-34.285156-.53125-51.476563-.667969zm-91.992187-.996094 51.523437-.390625c-.242187 7.007813 0 14.042969.710938 21.019531-16.894531-.011718-33.792969.058594-50.691406.199219zm-94.234375.199219c17.816406 1.277343 35.8125 1.425781 53.652344.449219-.914063 6.882812-.453125 13.945312 1.3125 20.660156-17.980469.285156-35.929688.667968-53.84375 1.125-.542969-7.371094-.921875-14.824219-1.121094-22.234375zm-15.425781 32.703125c55.179687-1.585938 110.804687-2.332032 166.335937-2.242188.398438.101563.808594.175782 1.230469.175782.234375 0 .472656-.015626.710937-.050782.175782-.023437.335938-.082031.503907-.125 33.570312.070313 67.105469.445313 100.476562 1.128906 2.164063 37.53125 2.628907 75.546876 1.398438 113.097657-46.875-2.101563-96.019531-3.742188-144.902344-4.117188-43.058594-.332031-82.550781.308594-120.722656 1.953125-.886719.035156-1.769531.078125-2.652344.117188-2.882813-36.433594-3.6875-73.390625-2.378906-109.9375zm-32.878907 93.566406c-.355468 6.070312-.238281 12.175781.339844 18.234375-7.65625.480469-15.234375 1-22.699218 1.5625-9.21875.695313-18.445313 1.46875-27.488282 2.296875-1.425781-7.027344-2.1875-14.199219-2.253906-21.371094 17.292969-1.121094 34.796875-1.367187 52.101562-.722656zm-74.097656 155.453125c-.292968 0-.875-.003906-1.28125-.042969-.089844-.355468-.191406-1.035156-.21875-2.328125l-2.308594-101.835937c-.03125-1.351563-.140624-2.753906-.257812-4.242188-.464844-5.878906-.621094-10.5 1.863281-12.089844 3.273438-2.09375 11.339844-2.214843 17.230469-2.300781 2.753906-.042969 5.359375-.082031 7.546875-.285156 9.808594-.914063 19.875-1.761719 29.917969-2.519531 19.398437-1.460938 39.570312-2.648438 59.945312-3.523438 38-1.640625 77.324219-2.273437 120.214844-1.945312.738281.007812 1.476562.015625 2.210938.019531-.332032 43.640625-1.292969 87.839844-2.851563 131.480469-77.984375.078125-155.636719-.15625-232.011719-.386719zm484.703125-9.734375c-.308593 2.574219-.675781 4.992188-1.777343 6.285156-1.667969 1.953125-5.6875 2.171875-9.324219 2.222656-76.851563 1.0625-154.339844 1.492188-231.542969 1.601563 1.554688-43.605469 2.511719-87.761719 2.847656-131.363281 21.046875.25 42.09375.722656 63.132813 1.359375 20.664062.625 41.324219 1.40625 61.980469 2.308593 19.871093.863282 39.734374 1.832032 59.597656 2.867188 7.253906.378906 14.511718.765625 21.765625 1.15625 6.902343.375 13.8125.761719 20.714843 1.132812 3.890626.214844 8.191407.628907 9.976563 2.839844 1.125 1.386719 1.511719 3.730469 1.875 6.429688 4.582031 34.195312 4.835937 68.902344.753906 103.160156zm0 0"/></svg>