<svg height="512pt" viewBox="0 -118 512.0008 512" width="512pt" xmlns="http://www.w3.org/2000/svg"><g fill="#fff"><path d="m392.421875 269.125.421875-4.335938c2.238281-23.011718 3.503906-46.488281 3.75-69.777343l.042969-3.921875 3.925781-.035156c5.132812-.042969 9.65625-.167969 13.816406-.382813.515625-.027344.929688-.429687.96875-.9375 2.4375-30.109375 2.710938-60.792969.816406-91.1875l-.285156-4.59375 4.585938.355469c7.664062.597656 15.457031 1.265625 23.171875 1.984375.9375.089843 1.605469.183593 2.117187.296875l2.664063.582031.425781 2.695313c.097656.609374.140625 1.371093.140625 2.46875.023437 54.25-1.207031 109.277343-3.652344 163.558593l-.175781 3.867188zm0 0"/><path d="m327.09375 268.328125.203125-80.285156 22.082031.023437c.5625 0 1.019532-.453125 1.027344-1.015625l.84375-96.5625 4.113281.152344c5.941407.21875 11.945313.472656 17.851563.75l4.234375.199219-.445313 4.21875c-3.3125 31.0625-3.890625 62.554687-1.71875 93.597656.035156.503906.445313.914062.949219.949219 4.519531.308593 9.234375.515625 14.410156.632812l3.953125.085938-.042968 3.953125c-.253907 23.523437-1.539063 47.214844-3.820313 70.417968l-.355469 3.652344zm0 0"/><path d="m247.628906 267.355469 9.054688-178.046875 3.78125-.019532c5.023437-.03125 10.050781-.042968 15.078125-.042968 9.363281 0 18.699219.050781 27.757812.152344l4.019531.046874-1.546874 97.535157c-.003907.273437.101562.539062.300781.738281.183593.191406.445312.296875.710937.296875l18.472656.027344-.203124 80.261719zm0 0"/><path d="m186.996094 266.617188.179687-79.96875 4.117188.128906c5.121093.164062 9.308593.253906 13.167969.289062.546874 0 .992187-.421875 1.019531-.957031 1.703125-30.984375-1.375-61.800781-4.355469-91.605469l-.429688-4.296875 4.320313-.097656c16.238281-.367187 31.082031-.609375 45.375-.742187l4.246094-.039063-9.050781 178.003906zm0 0"/><path d="m122.015625 265.828125-.191406-80.464844 3.828125-.171875c5.78125-.265625 10.933594-.546875 15.746094-.867187.550781-.039063.980468-.523438.945312-1.082031l-5.605469-91.089844 4.105469-.144532c5.691406-.199218 11.382812-.390624 17.085938-.578124l4.316406-.144532-.1875 4.3125c-1.230469 28.40625-1.511719 57.078125-.835938 85.222656.015625.800782.035156 1.871094.667969 2.789063.894531 1.296875 2.429687 1.59375 3.960937 1.71875 4.675782.378906 9.742188.714844 15.484376 1.023437l3.796874.203126-.179687 80.039062zm0 0"/><path d="m62.535156 265.109375v-3.953125c0-.140625.007813-.273438.019532-.40625l-3.085938-151.574219c-.058594-2.683593-.128906-6.027343 1.265625-8.617187 2.683594-4.945313 9.449219-5.863282 15.714844-6.109375l21.011719-.828125-.066407 4.226562c-.429687 27.511719.296875 55.242188 2.160157 82.421875.085937 1.203125.246093 3.425781 1.820312 4.640625 1.042969.804688 2.3125.914063 3.421875.914063.050781 0 .511719-.007813.511719-.007813 3.085937-.046875 6.476562-.125 10.363281-.25l4.113281-.128906.191406 80.367188zm0 0"/></g><path d="m479.691406 270.183594-32.488281-.398438.1875-4.128906c2.421875-54.0625 3.644531-109.015625 3.636719-163.328125 0-1.730469 0-4.347656-1.699219-6.09375-1.554687-1.609375-3.917969-1.824219-5.480469-1.964844-50.597656-4.753906-105.488281-7.066406-167.820312-7.066406-66.996094 0-134.332032 2.644531-199.453125 5.203125l-.210938.007812c-4.496093.175782-13.835937.546876-17.417969 7.175782-1.640624 3.03125-1.574218 6.667968-1.519531 9.59375l3.175781 155.902344-37.175781-.460938c-4.101562-.042969-8.195312-.457031-10.277343-3.152344-1.441407-1.882812-1.648438-4.511718-1.75-7.269531-2.929688-70.589844-4.730469-142.238281-5.351563-212.929687-.078125-8.679688.367187-18.398438 6.699219-23.886719 4.097656-3.574219 9.820312-4.570313 15.8125-5.355469 40.585937-5.269531 81.628906-5.996094 119.941406-5.996094 9.585938 0 19.257812.050782 28.605469.101563l72.902343.371093 57.054688.28125c23.671875.113282 47.34375.226563 71.011719.378907 31.410156.191406 64.90625 2.28125 99.554687 6.214843 8.007813.910157 16.96875 2.398438 21.964844 8.59375 4.023438 4.976563 4.601562 11.636719 4.902344 19.191407 2.707031 69.648437 1.671875 140.195312-3.078125 209.679687-.390625 5.851563-1.042969 11.410156-4.679688 15.046875-3.769531 3.78125-9.714843 4.300781-15.578125 4.300781-.488281 0-.980468-.003906-1.46875-.011718zm-38-239.507813c-4.515625 0-8.9375.984375-12.78125 2.851563-8.132812 3.9375-13.964844 12.0625-14.855468 20.6875-.765626 7.378906 2.28125 14.296875 8.355468 18.984375 1.3125 1.019531 2.808594 1.929687 4.578125 2.789062 1.789063.859375 3.746094 1.601563 5.972657 2.261719 4.09375 1.226562 8.117187 1.847656 11.964843 1.847656 5.050781 0 9.542969-1.0625 13.351563-3.15625 9.351562-5.148437 14.214844-17.171875 11.074218-27.367187-2.242187-7.265625-7.570312-13.042969-15.007812-16.269531-3.957031-1.722657-8.328125-2.628907-12.652344-2.628907zm-377.605468-6.535156c-.570313 0-1.148438.019531-1.730469.050781-11.230469.628906-21.214844 7.132813-26.050781 16.976563-1.796876 3.667969-2.75 7.78125-2.75 11.898437 0 4.996094 1.355468 9.640625 3.914062 13.433594 4.710938 6.972656 13.613281 11.136719 23.816406 11.136719 1.988282 0 3.953125-.164063 5.839844-.492188 5.546875-.964843 10.476562-3.054687 14.25-6.035156 9.9375-7.855469 12.480469-23.667969 5.558594-34.519531-5.128906-8.027344-13.246094-12.449219-22.847656-12.449219zm202.695312 32.023437c-41.222656 0-82.777344.632813-123.503906 1.878907-.558594.019531-1.003906.488281-.984375 1.042969.019531.554687.472656 1 1.011719 1h.101562c40.804688-1.246094 82.371094-1.878907 123.550781-1.878907 28.914063 0 58.097657.3125 86.746094.929688.550781 0 1.03125-.457031 1.046875-1 .011719-.5625-.4375-1.03125-1-1.042969-28.757812-.617188-58.015625-.929688-86.96875-.929688zm97.515625-18.6875c.539063 0 .992187-.441406 1.011719-.980468.011718-.359375-.140625-.597656-.273438-.734375-.128906-.144531-.359375-.3125-.714844-.328125-50.796874-1.730469-102.554687-2.605469-153.835937-2.605469-24.71875 0-49.691406.203125-74.222656.609375-.359375.003906-.589844.167969-.722657.308594-.136718.136718-.292968.371094-.285156.71875.007813.558594.464844 1.003906 1.019532 1.003906 24.460937-.402344 49.339843-.605469 73.957031-.605469 51.355469 0 103.152343.878907 153.960937 2.613281zm0 0" fill="#59bd8b"/><path d="m444.992188 78.070312c-4.570313 0-8.75-.964843-11.453126-1.773437-4.117187-1.21875-7.351562-2.761719-9.882812-4.71875-5.566406-4.296875-8.261719-10.386719-7.582031-17.144531.835937-7.953125 6.226562-15.433594 13.734375-19.078125 3.542968-1.714844 7.652344-2.625 11.894531-2.625 4.074219 0 8.164063.84375 11.828125 2.4375 6.878906 2.988281 11.808594 8.320312 13.867188 15.007812 2.875 9.304688-1.5625 20.277344-10.105469 24.972657-3.519531 1.9375-7.65625 2.921874-12.300781 2.921874zm0 0" fill="#f9d889"/><path d="m398.078125 189.042969c-5.75 0-11.558594-.152344-17.261719-.453125l-3.566406-.1875-.21875-3.5625c-1.824219-29.632813-1.132812-59.703125 2.054688-89.371094l.40625-3.769531 3.785156.203125c9.144531.484375 18.246094 1.046875 27.058594 1.664062l3.484374.242188.226563 3.488281c1.886719 29.21875 1.753906 58.769531-.394531 87.832031l-.261719 3.574219-3.582031.128906c-3.882813.140625-7.828125.210938-11.730469.210938zm0 0" fill="#5b5d6d"/><path d="m307.832031 185.980469 1.519531-96.507813 4 .0625c10.820313.175782 21.574219.429688 31.953126.761719l3.90625.125-.839844 95.609375zm0 0" fill="#5b5d6d"/><path d="m199.605469 184.964844c-10.933594-.191406-21.9375-.730469-32.703125-1.601563l-3.59375-.289062-.082032-3.609375c-.628906-27.917969-.324218-56.359375.902344-84.53125l.164063-3.714844 3.710937-.109375c8-.242187 17.453125-.519531 26.941406-.75l3.710938-.09375.386719 3.863281c2.835937 28.457032 5.769531 57.882813 4.628906 86.996094l-.152344 3.910156zm0 0" fill="#5b5d6d"/><path d="m101.585938 180.050781c-1.867188-27.285156-2.59375-55.113281-2.148438-82.71875l.0625-3.789062 3.949219-.152344c9.109375-.347656 18.226562-.695313 27.363281-1.023437l3.898438-.140626 5.53125 90.144532-4 .238281c-10.183594.601563-20.476563.996094-30.597657 1.167969l-3.800781.0625zm0 0" fill="#5b5d6d"/><path d="m61.117188 75.617188c-9.554688 0-17.558594-3.742188-21.957032-10.261719-4.3125-6.386719-4.726562-15.746094-1.023437-23.289063 2.191406-4.457031 5.644531-8.296875 9.980469-11.113281 4.316406-2.804687 9.28125-4.4375 14.355468-4.71875.53125-.03125 1.058594-.046875 1.582032-.046875 8.777343 0 16.492187 4.195312 21.160156 11.507812 6.390625 10.007813 4.050781 24.582032-5.109375 31.820313-3.515625 2.773437-8.125 4.71875-13.324219 5.621094-1.84375.320312-3.746094.480469-5.664062.480469zm0 0" fill="#f9d889"/><path d="m510.527344 40.941406c-.324219-8.328125-1.042969-16.332031-6.234375-22.765625-6.429688-7.964843-16.785157-9.75-25.984375-10.792969-34.792969-3.953124-68.503906-6.058593-100.199219-6.257812-28.542969-.175781-57.082031-.3125-85.625-.449219-14.269531-.066406-28.542969-.132812-42.8125-.207031l-72.449219-.3710938c-49.046875-.2500002-99.769531-.5078122-149.441406 5.9414058-6.664062.867188-13.625 2.105469-19.007812 6.785157-8.257813 7.179687-8.851563 18.476562-8.7656255 28.5.6249995 70.757812 2.4218755 142.46875 5.3515625 213.148437.117187 2.851563.292969 7.160156 2.996094 10.671875 4.144531 5.390625 11.476562 5.480469 15 5.523438l456.253906 5.554687c.628906.007813 1.308594.015625 2.023437.015625 5.71875 0 13.835938-.527343 19.378907-6.082031 5.09375-5.109375 5.96875-12.132812 6.429687-18.894531 4.761719-69.722657 5.800782-140.488281 3.085938-210.320313zm-447.0625 68.148438c-.046875-2.335938-.101563-4.988282.785156-6.628906 1.730469-3.199219 7.511719-3.828126 12.351562-4.015626 5.589844-.222656 11.1875-.441406 16.789063-.65625-.425781 27.519532.292969 55.332032 2.175781 82.753907.109375 1.558593.359375 5.210937 3.359375 7.53125 2.054688 1.589843 4.363281 1.753906 5.867188 1.753906.207031 0 .394531-.003906.570312-.007813 3.464844-.054687 6.945313-.144531 10.429688-.25l.171875 72.1875-49.433594-.601562c.003906-.097656.027344-.191406.023438-.289062zm377.875 156.625-44.511719-.539063c2.257813-23.21875 3.519531-46.792969 3.765625-70.125 4.671875-.035156 9.34375-.144531 13.988281-.378906 2.515625-.125 4.546875-2.097656 4.75-4.609375 2.460938-30.421875 2.722657-61.28125.820313-91.761719 7.710937.597657 15.417968 1.253907 23.113281 1.976563.3125.027344 1.128906.105468 1.625.222656.0625.371094.09375.988281.09375 1.832031.015625 54.25-1.210937 109.21875-3.644531 163.382813zm-31.285156-168.15625c1.875 28.972656 1.746093 58.304687-.386719 87.277344-9.527344.34375-19.128907.261718-28.644531-.242188-1.8125-29.511719-1.125-59.316406 2.042968-88.699219 9.003906.480469 18.003906 1.03125 26.988282 1.664063zm-38.757813 92.128906c.175781 2.503906 2.171875 4.492188 4.671875 4.660156 4.84375.324219 9.710938.53125 14.585938.640625-.246094 23.3125-1.515626 46.875-3.796876 70.0625l-55.652343-.675781.183593-72.328125 18.089844.023437h.007813c2.753906 0 4.992187-2.222656 5.019531-4.976562l.808594-92.457031c5.9375.222656 11.878906.46875 17.8125.75-3.335938 31.246093-3.921875 62.957031-1.730469 94.300781zm-26.886719-7.664062-32.515625-.039063 1.394531-88.445313c10.632813.167969 21.261719.417969 31.886719.753907zm-41.195312 8.496093c.941406.957031 2.230468 1.496094 3.574218 1.5l14.460938.015625-.183594 72.21875-69.230468-.84375 8.644531-170.121094c14.25-.082031 28.511719-.050781 42.769531.109376l-1.472656 93.523437c-.023438 1.34375.496094 2.636719 1.4375 3.597656zm-61.425782 72.769531-50.78125-.621093.160157-71.894531c4.429687.144531 8.855469.257812 13.261719.292968h.039062c2.660156 0 4.863281-2.082031 5.011719-4.746094 1.699219-30.957031-1.367188-62.085937-4.371094-92.207031 15.082031-.347656 30.191406-.601562 45.316406-.746093zm-46.746093-168.9375c2.835937 28.40625 5.761719 57.722657 4.636719 86.613282-10.8125-.183594-21.699219-.71875-32.449219-1.585938-.636719-27.96875-.328125-56.292968.894531-84.269531 8.960938-.277344 17.933594-.527344 26.917969-.757813zm-37.820313 86.570313c.027344 1.074219.074219 3.078125 1.378906 4.96875 2.078126 3.023437 5.59375 3.3125 6.917969 3.421875 5.175781.429688 10.386719.757812 15.609375 1.03125l-.160156 72.203125-54.964844-.667969-.171875-72.691406c5.289063-.234375 10.578125-.519531 15.828125-.871094 2.753906-.1875 4.84375-2.5625 4.675782-5.316406l-5.347657-86.992188c5.683594-.199218 11.378907-.390624 17.074219-.578124-1.222656 28.390624-1.515625 57.125-.839844 85.492187zm-26.269531-84.554687 5.054687 82.246093c-10.121093.605469-20.332031.996094-30.429687 1.164063-1.871094-27.296875-2.582031-54.984375-2.140625-82.378906 9.152344-.351563 18.324219-.699219 27.515625-1.03125zm366.472656 154.214843c-.34375 5.0625-.875 9.832031-3.523437 12.484375-2.992188 3-8.636719 3.183594-14.171875 3.117188l-28.347657-.34375c2.429688-54.210938 3.65625-109.21875 3.640626-163.511719 0-2.085937-.003907-5.96875-2.828126-8.882813-2.570312-2.652343-6.097656-2.984374-7.992187-3.164062-122.546875-11.511719-247.324219-6.609375-367.992187-1.867188-4.824219.1875-16.117188.632813-20.789063 9.265626-2.152344 3.976562-2.0625 8.394531-1.996094 11.617187l3.089844 151.734375-33.039063-.402344c-1.789062-.019531-5.984374-.074218-7.160156-1.601562-.761718-.992188-.859375-3.289063-.925781-4.972656-2.921875-70.566407-4.722656-142.171876-5.34375-212.816407-.070313-7.785156.28125-16.460937 5.3125-20.835937 3.277344-2.847656 8.359375-3.707032 13.71875-4.40625 39.445313-5.125 79.773437-5.957032 119.417969-5.957032 9.605468 0 19.175781.050782 28.675781.097657l72.449219.371093c14.273437.074219 28.542968.140626 42.8125.210938 28.539062.132812 57.078125.269531 85.613281.449219 31.339844.195312 64.6875 2.277343 99.128906 6.191406 7.21875.820313 15.257813 2.113281 19.304688 7.125 3.265625 4.046875 3.75 10.023437 4.015625 16.847656 2.699218 69.476563 1.667968 139.878907-3.070313 209.25zm0 0"/><path d="m455.9375 29.632812c-9.296875-4.042968-20.050781-3.933593-28.765625.289063-9.359375 4.539063-16.070313 13.914063-17.097656 23.882813-.90625 8.785156 2.699219 17.007812 9.894531 22.558593 3.121094 2.410157 7 4.28125 11.851562 5.726563 4.515626 1.34375 8.929688 2.011718 13.101563 2.011718 5.652344 0 10.867187-1.226562 15.285156-3.65625 10.953125-6.027343 16.648438-20.105468 12.96875-32.050781-2.585937-8.390625-8.710937-15.054687-17.238281-18.761719zm-.570312 42.015626c-7.160157 3.941406-16.03125 2.203124-20.679688.820312-3.652344-1.085938-6.457031-2.414062-8.585938-4.050781-5.695312-4.398438-6.429687-9.8125-6.039062-13.582031.679688-6.589844 5.1875-12.824219 11.488281-15.878907 6.023438-2.921875 13.835938-2.964843 20.382813-.117187 5.800781 2.519531 9.9375 6.964844 11.644531 12.511718 2.292969 7.441407-1.390625 16.542969-8.210937 20.296876zm0 0"/><path d="m62.132812 20.203125c-12.679687.707031-23.949218 8.066406-29.414062 19.203125-4.695312 9.566406-4.132812 21.082031 1.433594 29.332031 6.195312 9.171875 17.171875 12.898438 27.128906 12.898438 2.25 0 4.445312-.191407 6.523438-.550781 6.203124-1.074219 11.753906-3.4375 16.050781-6.835938 11.472656-9.078125 14.425781-27.304688 6.449219-39.808594-6.195313-9.703125-16.46875-14.890625-28.171876-14.238281zm15.492188 46.171875c-2.984375 2.363281-6.976562 4.027344-11.535156 4.820312-8.09375 1.402344-18.535156-.550781-23.613282-8.074218-3.539062-5.242188-3.839843-12.992188-.75-19.292969v.003906c3.816407-7.765625 12.042969-13.109375 20.964844-13.605469 7.988282-.449218 14.964844 3.058594 19.148438 9.617188 5.242187 8.210938 3.269531 20.609375-4.214844 26.53125zm0 0"/><path d="m364.464844 31.441406c-75.714844-2.582031-152.519532-3.257812-228.273438-2.007812-2.773437.042968-4.980468 2.328125-4.9375 5.101562.046875 2.742188 2.285156 4.9375 5.019532 4.9375.027343 0 .054687 0 .082031-.003906 75.589843-1.242188 152.21875-.570312 227.769531 2.007812h.171875c2.691406 0 4.921875-2.132812 5.015625-4.847656.089844-2.769531-2.078125-5.09375-4.847656-5.1875zm0 0"/><path d="m353.835938 53.097656c-69.898438-1.503906-140.78125-1.1875-210.675782.949219-2.773437.085937-4.949218 2.402344-4.867187 5.171875.085937 2.71875 2.316406 4.867188 5.015625 4.867188.050781 0 .105468-.003907.15625-.003907 69.726562-2.128906 140.429687-2.449219 210.152344-.945312 2.726562.035156 5.066406-2.140625 5.128906-4.910157.058594-2.769531-2.140625-5.066406-4.910156-5.128906zm0 0"/></svg>