<svg height="512pt" viewBox="-21 0 512 512.00091" width="512pt" xmlns="http://www.w3.org/2000/svg"><path d="m245.707031 83.613281c-11.179687 0-23.5-1.074219-36.617187-3.199219-13.320313-2.152343-27.0625-5.324218-37.316406-13.886718l-3-2.503906 2.4375-3.058594c3.863281-4.851563 7.847656-9.539063 11.835937-13.9375 10.546875-11.625 21.988281-22.238282 34-31.550782 7.503906-5.816406 13.480469-9.417968 20.082031-9.417968 5.214844 0 10.355469 2.335937 16.179688 7.347656 17.503906 15.078125 33.410156 33.078125 47.277344 53.503906l2.601562 3.828125-4.167969 2.019531c-15.089843 7.304688-32.53125 10.855469-53.3125 10.855469zm0 0" fill="#fff"/><path d="m236.410156 260.238281c-10.398437 0-21.644531-1.90625-33.417968-5.660156-17.664063-5.636719-30.035157-13.550781-37.816407-24.191406-5.757812-7.894531-9.382812-18.132813-10.480469-29.609375-2.199218-22.816406 6.007813-46.277344 21.957032-62.753906 7.578125-7.839844 17.117187-14.199219 27.578125-18.378907 9.78125-3.914062 19.59375-5.902343 29.160156-5.902343 8.394531 0 16.511719 1.535156 24.128906 4.558593 18.933594 7.503907 33.503907 20.199219 41.027344 35.742188 7.710937 15.964843 7.386719 32.828125 5.757813 44.164062-3.113282 21.765625-13.585938 40.246094-28.726563 50.703125-9.777344 6.742188-22.011719 10.628906-35.378906 11.242188-1.242188.058594-2.519531.085937-3.789063.085937zm-4.535156-117.1875c-5.71875 0-11.589844 1.1875-17.453125 3.53125-6.257813 2.507813-11.960937 6.308594-16.488281 10.996094-9.542969 9.855469-14.453125 23.886719-13.136719 37.535156.664063 6.914063 2.863281 13.105469 6.363281 17.90625 4.699219 6.429688 12.109375 11.195313 22.652344 14.554688 6.972656 2.226562 13.632812 3.351562 19.792969 3.351562.765625 0 1.519531-.019531 2.265625-.054687 8.039062-.363282 15.394531-2.710938 21.292968-6.777344 9.113282-6.292969 15.410157-17.375 17.285157-30.394531 1.386719-9.730469.183593-18.871094-3.480469-26.4375-4.515625-9.347657-13.234375-16.964844-24.558594-21.457031-4.609375-1.828126-9.5-2.753907-14.535156-2.753907zm0 0" fill="#fff"/><path d="m426.328125 493.664062c3.339844-15.527343 3.570313-32.863281.664063-50.132812-3.117188-18.449219-9.644532-37.535156-19.960938-58.335938-6.003906-12.125-11.65625-21.445312-17.785156-29.335937-7.085938-9.121094-15.503906-17.171875-25.023438-23.917969l-1.871094-1.328125.199219-2.285156c1.90625-21.703125 2.042969-44.265625.414063-68.988281-.914063-13.988282-2.410156-27.988282-4.445313-41.609375l-1.347656-9.035157 7.554687 5.136719c34.535157 23.484375 62.804688 57.332031 79.601563 95.308594 18.609375 42.085937 23.882813 90.117187 14.851563 135.242187-4.429688 22.109376-11.414063 37.71875-21.976563 49.125-1.398437 1.5-2.902344 2.886719-4.484375 4.136719l-8.734375 6.917969zm0 0" fill="#f9d889"/><path d="m417.128906 503.941406c-2.433594 0-4.707031-.53125-6.75-1.570312-7.039062-3.601563-9.835937-12.097656-11.8125-20.742188-.558594-2.445312-1.101562-4.902344-1.644531-7.363281l-.378906-1.726563c-3.015625-13.738281-6.113281-27.855468-11.746094-40.90625-7.308594-16.886718-18.53125-29.859374-31.605469-36.523437l-2.980468-1.519531.96875-3.203125c.429687-1.417969.839843-2.816407 1.222656-4.203125 4.007812-14.691406 7.019531-30.296875 8.945312-46.375l.847656-7.082032 5.601563 4.417969c7.421875 5.851563 14.101563 12.570313 19.839844 19.964844 6.054687 7.796875 11.636719 17.003906 17.566406 28.980469 10.234375 20.648437 16.707031 39.550781 19.78125 57.777344 3.378906 20.085937 2.476563 39.835937-2.609375 57.125l-.757812 2.574218-2.667969.277344c-.613281.066406-1.226563.097656-1.820313.097656zm0 0" fill="#f7b36f"/><path d="m256.75 417.992188c-33.503906 0-77.472656-1.527344-120.441406-13.453126-6.652344-1.84375-14.125-4.285156-18.589844-9.890624-3.25-4.085938-4.535156-9.261719-5.773438-15.113282-15.546874-73.886718-14.75-142.921875 2.363282-205.199218 4.664062-16.972657 10.699218-33.621094 17.941406-49.480469 9.125-20.003907 20.148438-38.789063 32.761719-55.828125l2.507812-3.382813 3.25 2.675781c10.5625 8.691407 24.5 11.917969 37.988281 14.109376 13.214844 2.140624 25.671876 3.226562 37.019532 3.226562 21.582031 0 39.652344-3.792969 55.25-11.59375l3.242187-1.625 1.933594 3.070312c9.789063 15.539063 18.367187 32.265626 25.5 49.71875 9.789063 23.929688 17.335937 50.304688 22.429687 78.386719l.214844 1.175781-.464844 1.097657c-.148437.351562-.078124.765625.1875 1.050781l.804688.871094.199219 1.171875c2.753906 16.269531 4.726562 33.257812 5.867187 50.496093 3.128906 47.5625-.3125 88.835938-10.515625 126.175782-2.796875 10.238281-6.542969 20.480468-14.941406 26.023437-6.734375 4.457031-14.84375 5.023438-24.742187 5.300781-17.671876.5-35.90625 1.015626-53.992188 1.015626zm38.113281-102.628907c-2.605469 0-5.238281.289063-7.824219.851563-12.429687 2.710937-22.105468 11.558594-25.253906 23.09375-3.160156 11.617187 1.03125 24.839844 10.199219 32.164062 5.621094 4.492188 13.066406 6.964844 20.960937 6.964844.820313 0 1.652344-.027344 2.46875-.082031 12.640626-.855469 24.070313-8.234375 29.101563-18.800781 5.015625-10.53125 3.363281-23.617188-4.109375-32.566407-6.171875-7.386719-15.480469-11.625-25.542969-11.625zm-111.761719 52.773438c.515626-.035157.929688-.449219.949219-.972657.015625-.363281-.132812-.601562-.261719-.738281-.128906-.144531-.359374-.316406-.707031-.332031l-50.464843-2.191406c-.535157 0-.972657.429687-.996094.980468-.011719.34375.136718.585938.269531.726563.128906.144531.359375.316406.707031.332031l50.34375 2.1875c.054688 0 .109375.003906.160156.007813zm-56.984374-26.726563c-.546876 0-.996094.421875-1.027344.964844-.015625.34375.132812.585938.257812.726562.132813.144532.359375.320313.714844.339844 14.214844.757813 28.78125 1.144532 43.285156 1.144532 6.101563 0 12.265625-.070313 18.316406-.210938.351563-.003906.585938-.171875.714844-.3125.132813-.136719.289063-.375.277344-.714844-.011719-.566406-.453125-1-1.011719-1h-.117187c-5.921875.132813-12.046875.203125-18.117188.203125-14.363281 0-28.910156-.382812-43.242187-1.140625zm-1.148438-22.851562c-.5625 0-1.019531.453125-1.023438 1.015625 0 .5625.453126 1.019531 1.015626 1.023437 18.195312.070313 36.679687.601563 54.941406 1.578125l.0625.003907c.554687-.023438.980468-.445313 1.007812-.976563.03125-.550781-.402344-1.03125-.964844-1.058594-18.34375-.984375-36.859374-1.515625-55.039062-1.585937l-.003906-4v4zm108.421875-206.863282c-9.8125 0-19.878906 2.039063-29.917969 6.054688-10.726562 4.289062-20.511718 10.808594-28.289062 18.855469-16.355469 16.90625-24.773438 40.96875-22.523438 64.367187 1.140625 11.839844 4.902344 22.425782 10.878906 30.617188 8.03125 11 20.734376 19.152344 38.832032 24.925781 11.980468 3.824219 23.429687 5.761719 34.023437 5.761719 1.304688 0 2.617188-.03125 3.902344-.085938 13.746094-.636718 26.351563-4.648437 36.4375-11.609375 15.605469-10.773437 26.390625-29.757812 29.59375-52.082031 2.386719-16.683594.328125-32.363281-5.953125-45.339844-7.734375-16.003906-22.6875-29.054687-42.101562-36.753906-7.882813-3.125-16.253907-4.710938-24.882813-4.710938zm0 0" fill="#ed6d66"/><g fill="#f9d889"><path d="m301.214844 492.597656c-3.582032-22.816406-5.832032-46.0625-6.675782-69.09375l-.148437-4.039062 16.660156-.453125c2.214844-.066407 4.503907-.136719 6.851563-.304688l4.769531-.339843-.507813 4.753906c-.011718.117187-.007812.21875.019532.320312l12.597656 49.082032c.910156 3.519531 1.609375 6.917968.140625 9.660156-1.21875 2.3125-3.816406 3.6875-6.375 4.898437-6.976563 3.304688-14.433594 6.230469-22.160156 8.703125l-4.445313 1.425782zm0 0"/><path d="m292.925781 376.394531c-7.425781 0-14.410156-2.3125-19.664062-6.511719-8.558594-6.835937-12.472657-19.183593-9.515625-30.027343 2.988281-10.960938 11.855468-19.050781 23.726562-21.648438 2.417969-.53125 4.898438-.800781 7.375-.800781 9.46875 0 18.214844 3.972656 23.992188 10.898438 6.863281 8.214843 8.441406 20.707031 3.828125 30.375-4.652344 9.765624-15.664063 16.855468-27.394531 17.636718-.777344.054688-1.566407.078125-2.347657.078125zm0 0"/><path d="m258.527344 500.667969c-.191406-25.46875.300781-51.328125 1.453125-76.859375l.171875-3.792969 3.796875-.027344c7.910156-.058593 16.140625-.1875 24.464843-.378906l3.949219-.09375.140625 3.945313c.851563 23.519531 3.171875 47.308593 6.894532 70.707031l.570312 3.582031-3.511719.917969c-10.597656 2.761719-21.875 4.765625-33.527343 5.949219l-4.371094.441406zm0 0"/></g><path d="m233.65625 228.890625c-5.992188 0-12.457031-1.09375-19.214844-3.253906-9.984375-3.183594-17.265625-7.832031-21.636718-13.820313-3.285157-4.503906-5.351563-10.347656-5.980469-16.898437-1.261719-13.054688 3.4375-26.484375 12.566406-35.921875 2.191406-2.257813 4.648437-4.292969 7.300781-6.058594 2.675782-1.78125 5.535156-3.285156 8.492188-4.464844 5.585937-2.238281 11.203125-3.375 16.691406-3.375 4.777344 0 9.410156.875 13.78125 2.597656 10.84375 4.304688 19.183594 11.566407 23.480469 20.449219 4.398437 9.109375 4.214843 18.769531 3.289062 25.269531-1.789062 12.460938-7.769531 23.03125-16.417969 29.003907-5.582031 3.851562-12.574218 6.070312-20.21875 6.425781-.707031.03125-1.417968.046875-2.132812.046875zm0 0" fill="#288fc9"/><path d="m235.703125 505.960938c-5.234375 0-10.628906-.140626-16.042969-.421876l-3.738281-.191406-.054687-3.742187c-.382813-26.375 1.632812-52.890625 5.996093-78.824219l.585938-3.476562 3.523437.144531c8.542969.355469 17.6875.542969 27.96875.578125l4.167969.011718-.1875 4.167969c-1.152344 25.605469-1.632813 51.398438-1.425781 76.660157.011718.105468.023437.207031.03125.3125l.277344 4.023437-4.023438.246094c-5.554688.339843-11.296875.511719-17.078125.511719zm0 0" fill="#f9d889"/><path d="m209.488281 504.863281c-8.605469-.707031-17.515625-1.761719-26.476562-3.132812-5.25-.800781-9.894531-1.648438-14.207031-2.585938l-3.695313-.800781.597656-3.738281c3.972657-24.84375 9.214844-49.757813 15.582031-74.050781.003907-.019532.019532-.097657.019532-.328126v-4.519531l4.484375.550781c9.617187 1.179688 19.761719 2.082032 30.15625 2.683594l4.4375.257813-.722657 4.390625c-4.207031 25.4375-6.175781 51.425781-5.847656 77.234375l.054688 4.398437zm0 0" fill="#f9d889"/><path d="m158.765625 496.617188c-14.417969-4.203126-25.351563-10.1875-33.433594-18.296876l-1.53125-1.539062.453125-2.121094c4.554688-21.324218 10.898438-42.414062 18.847656-62.683594l1.265626-3.230468 3.375.796875c9.050781 2.132812 18.585937 3.945312 28.339843 5.386719l4.226563.625-.898438 4.175781c-.042968.199219-.097656.375-.148437.519531-6.257813 23.890625-11.445313 48.507812-15.425781 73.164062l-.71875 4.472657zm0 0" fill="#f9d889"/><path d="m43.210938 502.855469c-3.386719 0-6.976563-.960938-10.378907-2.78125l-1.652343-.882813-.378907-1.828125c-5.796875-27.824219-1.023437-59.429687 14.183594-93.9375 13.269531-30.109375 30.449219-53.769531 51.066406-70.316406l5.585938-4.484375.886719 7.105469c1.828124 14.632812 4.328124 29.507812 7.425781 44.222656.257812 1.210937.597656 2.800781.984375 4.335937l.804687 3.191407-2.976562 1.40625c-11.035157 5.199219-20.871094 14.421875-27.703125 25.96875-6.664063 11.261719-10.8125 24.867187-12.332032 40.429687-.230468 2.394532-.40625 4.8125-.582031 7.28125-.527343 7.515625-1.023437 14.597656-3.304687 21.445313-2.570313 7.730469-9.117188 17.261719-19.117188 18.667969-.8125.113281-1.660156.175781-2.511718.175781zm0 0" fill="#f7b36f"/><path d="m19.429688 486.71875c-6.0625-9.945312-8.503907-21.9375-10.085938-32.359375-6.941406-45.789063-2.882812-90.621094 11.746094-129.65625 14.871094-39.695313 41.113281-73.660156 73.898437-95.636719l7.128907-4.78125-.921876 8.53125c-3.164062 29.234375-3.15625 59.976563.019532 91.378906l.238281 2.363282-2.15625 1.476562c-22.914063 16.863282-41.8125 41.949219-56.179687 74.5625-12.957032 29.410156-18.4375 56.894532-16.285157 81.691406zm0 0" fill="#f9d889"/><path d="m449.84375 306.699219c-18.644531-42.175781-50.371094-78.609375-89.542969-102.945313-5.171875-28.941406-12.859375-55.984375-23.011719-80.816406-18.648437-45.621094-46.328124-85.078125-80.042968-114.109375-18.136719-15.613281-31.632813-7.636719-43.898438 1.871094-12.296875 9.53125-24 20.386719-34.777344 32.269531-20.839843 22.972656-38.273437 49.679688-51.820312 79.378906-7.378906 16.167969-13.523438 33.121094-18.269531 50.390625-4.175781 15.191407-7.382813 30.777344-9.644531 46.722657-37.300782 22.496093-66.914063 59.101562-83.40625 103.121093-14.988282 40-19.160157 85.882813-12.0625 132.683594 2.15625 14.195313 5.796874 30.296875 16.480468 42.105469 6.667969 7.367187 15.214844 11.519531 23.421875 11.519531 1.105469 0 2.207031-.078125 3.296875-.230469 8.34375-1.175781 19.03125-7.765625 24.003906-22.746094 2.515626-7.566406 3.066407-15.367187 3.597657-22.914062.167969-2.351562.339843-4.78125.570312-7.125 1.433594-14.683594 5.308594-27.449219 11.515625-37.941406 6.136719-10.367188 14.652344-18.46875 24.300782-23.21875.699218 1.28125 1.5 2.515625 2.4375 3.695312 5.585937 7.023438 14.128906 9.851563 21.691406 11.949219.777344.214844 1.558594.40625 2.339844.617187-8.183594 21.054688-14.65625 42.925782-19.222657 65.046876-.324219 1.566406.117188 3.191406 1.1875 4.378906 16.273438 18.035156 41.03125 23.917968 63.105469 27.296875 18.753906 2.871093 36.625 4.300781 53.589844 4.300781 36.125 0 68.09375-6.5 95.449218-19.457031 3.316407-1.570313 7.03125-3.578125 9.132813-7.539063 2.664063-5.023437 1.222656-10.632812.363281-13.984375l-12.605468-49.089843c-.054688-.21875-.144532-.414063-.226563-.617188 3.808594-.902344 7.5625-2.316406 11.007813-4.597656 5.855468-3.867188 9.78125-9.519532 12.632812-15.691406 11.421875 6.175781 21.203125 17.730468 27.808594 33.003906 5.421875 12.542968 8.460937 26.402344 11.394531 39.804687.671875 3.050781 1.339844 6.105469 2.035156 9.144531 2.195313 9.585938 5.6875 20.023438 14.941407 24.761719 3.125 1.601563 6.339843 2.292969 9.527343 2.292969 1.542969 0 3.078125-.175781 4.597657-.476562.195312.023437.390624.046874.585937.046874 1.09375 0 2.144531-.367187 3.003906-1.007812 6.324219-2.15625 12.101563-6.453125 16.296875-10.984375 11.355469-12.25 18.8125-28.785156 23.464844-52.039063 9.277344-46.335937 3.859375-95.65625-15.25-138.871093zm-263.835938-256.984375c10.386719-11.453125 21.65625-21.910156 33.488282-31.082032 12.53125-9.707031 19.632812-12.15625 31.199218-2.199218 17.3125 14.910156 32.984376 32.691406 46.582032 52.722656-22.355469 10.820312-51.023438 13.222656-87.554688 7.308594-12.851562-2.082032-25.949218-5.128906-35.382812-13.011719 3.757812-4.71875 7.644531-9.304687 11.667968-13.738281zm-172.710937 404.046875c-6.84375-45.113281-2.851563-89.257813 11.535156-127.660157 14.683594-39.183593 40.21875-72.15625 72.386719-93.714843-3.207031 29.59375-3.203125 60.382812.019531 92.210937-.03125.019532-.066406.035156-.097656.054688-23.574219 17.28125-42.980469 42.960937-57.683594 76.332031-13.261719 30.101563-18.820312 58.164063-16.613281 83.652344-5.597656-9.179688-7.980469-20.558594-9.546875-30.875zm64.324219-40.945313c-6.964844 11.765625-11.292969 25.921875-12.875 42.082032-.242188 2.476562-.417969 4.976562-.585938 7.394531-.515625 7.246093-.996094 14.089843-3.113281 20.457031-2.207031 6.648438-7.6875 14.816406-15.875 15.96875-3.355469.476562-6.976563-.316406-10.457031-2.175781-5.621094-26.980469-.941406-57.761719 13.925781-91.507813 13.023437-29.550781 29.800781-52.664062 49.917969-68.804687 1.824218 14.644531 4.3125 29.496093 7.480468 44.550781.320313 1.511719.648438 3.011719 1.019532 4.492188-11.777344 5.542968-22.117188 15.175781-29.4375 27.542968zm69.207031.625c9.503906 2.230469 19.066406 4.023438 28.671875 5.449219-.011719.046875-.035156.085937-.046875.132813-6.355469 24.214843-11.578125 49.011718-15.566406 73.753906-11.875-3.457032-23.148438-8.679688-31.714844-17.28125 4.503906-21.113282 10.777344-41.972656 18.65625-62.054688zm22.828125 81.800782c3.953125-24.714844 9.160156-49.484376 15.503906-73.671876.121094-.453124.148438-.902343.144532-1.347656 10.109374 1.25 20.257812 2.125 30.417968 2.71875-4.253906 25.695313-6.238281 51.882813-5.910156 77.929688-8.519531-.695313-17.25-1.726563-26.195312-3.097656-4.578126-.699219-9.269532-1.515626-13.960938-2.53125zm50.207031 6.304687c-.378906-26.105469 1.617188-52.359375 5.945313-78.09375 9.375.382813 18.75.546875 28.117187.574219-1.152343 25.5625-1.636719 51.457031-1.433593 77.03125.003906.132812.03125.261718.042968.394531-10.480468.644531-21.375.675781-32.671875.09375zm68.640625-77.945313c.867188 23.769532 3.203125 47.699219 6.941406 71.191407-10.429687 2.726562-21.402343 4.675781-32.914062 5.847656-.199219-25.449219.292969-51.21875 1.445312-76.652344 8.195313-.058593 16.371094-.195312 24.527344-.386719zm29.800782.824219 12.601562 49.089844c.675781 2.628906 1.269531 5.316406.492188 6.78125-.660157 1.246094-2.703126 2.292969-4.5625 3.171875-6.90625 3.269531-14.132813 6.101562-21.671876 8.507812-3.554687-22.65625-5.785156-45.710937-6.625-68.621093 4.132813-.109375 8.261719-.226563 12.375-.34375 2.300782-.066407 4.75-.140625 7.273438-.316407-.054688.566407-.035156 1.148438.117188 1.730469zm14.96875-16.085937c-5.851563 3.867187-13.390626 4.375-22.640626 4.636718-57.519531 1.636719-116.992187 3.324219-173.261718-12.289062-6.042969-1.679688-12.804688-3.859375-16.519532-8.527344-2.714843-3.410156-3.867187-8.109375-4.988281-13.449218-15.417969-73.242188-14.644531-141.648438 2.300781-203.3125 4.605469-16.757813 10.566407-33.203126 17.71875-48.886719 9.050782-19.832031 19.878907-38.277344 32.339844-55.101563 11.203125 9.21875 25.730469 12.667969 39.894532 14.964844 13.511718 2.1875 26.039062 3.285156 37.664062 3.285156 22.152344 0 41.003906-4 57.035156-12.019531 9.621094 15.265625 18.078125 31.710937 25.183594 49.097656 9.746094 23.832031 17.15625 49.796875 22.199219 77.585938-.773438 1.824219-.386719 3.898437.929687 5.328125 2.722656 16.117187 4.679688 32.820312 5.816406 50.085937 3.101563 47.125-.292968 87.964844-10.375 124.859375-2.59375 9.480469-5.996093 18.917969-13.296874 23.742188zm78.921874 90.464844c-5.570312-2.851563-7.96875-10.371094-9.730468-18.066407-.6875-3.011719-1.351563-6.035156-2.015625-9.058593-3.039063-13.863282-6.183594-28.203126-11.988281-41.632813-7.722657-17.871094-19.523438-31.398437-33.457032-38.5.445313-1.445313.859375-2.882813 1.246094-4.304687 4.097656-14.984376 7.101562-30.59375 9.070312-46.953126 7.136719 5.625 13.5625 12.074219 19.15625 19.277344 5.871094 7.558594 11.316407 16.550782 17.144532 28.304688 10.054687 20.292968 16.40625 38.828125 19.414062 56.667968 3.292969 19.550782 2.421875 38.601563-2.5 55.332032-2.214844.226562-4.375-.058594-6.339844-1.066406zm43.058594-55.203126c-4.277344 21.355469-10.945312 36.347657-20.988281 47.183594-1.226563 1.324219-2.585937 2.578125-4.023437 3.722656 3.453124-16.078124 3.714843-33.691406.691406-51.636718-3.171875-18.824219-9.820313-38.273438-20.316406-59.457032-6.132813-12.371093-11.917969-21.902343-18.210938-30.007812-7.375-9.492188-16.078125-17.789062-25.875-24.726562 1.917969-21.75 2.058594-44.835938.429688-69.601563-.945313-14.359375-2.453126-28.339844-4.480469-41.941406 34.027343 23.140625 61.546875 55.992187 78.183593 93.621093 18.28125 41.339844 23.460938 88.519532 14.589844 132.84375zm0 0"/><path d="m310.285156 199.0625c2.5-17.46875.320313-33.941406-6.304687-47.644531-8.171875-16.902344-23.882813-30.65625-44.230469-38.730469-17.867188-7.085938-37.839844-6.621094-57.761719 1.347656-11.234375 4.492188-21.496093 11.335938-29.675781 19.789063-17.15625 17.730469-25.992188 42.976562-23.632812 67.53125 1.203124 12.550781 5.222656 23.820312 11.625 32.585937 8.554687 11.714844 21.914062 20.34375 40.851562 26.386719 12.382812 3.953125 24.214844 5.945313 35.246094 5.945313 1.367187 0 2.726562-.03125 4.070312-.089844 14.515625-.667969 27.839844-4.921875 38.535156-12.308594 16.523438-11.40625 27.921876-31.386719 31.277344-54.8125zm-70.273437 57.089844c-10.96875.503906-23.019531-1.308594-35.804688-5.386719-16.835937-5.371094-28.542969-12.8125-35.796875-22.742187-5.339844-7.3125-8.707031-16.867188-9.738281-27.628907-2.082031-21.667969 5.714844-43.945312 20.851563-59.589843 7.203124-7.445313 16.261718-13.480469 26.191406-17.449219 17.492187-6.996094 34.898437-7.457031 50.335937-1.335938 18.003907 7.140625 31.816407 19.132813 38.894531 33.765625 7.265626 15.03125 6.949219 31.058594 5.402344 41.851563-2.960937 20.667969-12.816406 38.152343-27.042968 47.976562-9.148438 6.316407-20.660157 9.960938-33.292969 10.539063zm0 0"/><path d="m247.886719 142.085938c-10.839844-4.296876-22.921875-4.027344-34.949219.78125-6.765625 2.703124-12.949219 6.828124-17.882812 11.925781-10.339844 10.6875-15.664063 25.902343-14.242188 40.703125.734375 7.628906 3.195312 14.503906 7.117188 19.875 5.214843 7.148437 13.285156 12.386718 24.671874 16.019531 7.363282 2.347656 14.417969 3.535156 21.011719 3.535156.820313 0 1.640625-.019531 2.449219-.058593 8.78125-.398438 16.867188-2.988282 23.375-7.484376 10.03125-6.925781 16.941406-18.996093 18.964844-33.117187 1.507812-10.507813.179687-20.453125-3.832032-28.753906-4.953124-10.242188-14.433593-18.5625-26.683593-23.425781zm20.578125 50.757812c-1.625 11.359375-6.996094 20.941406-14.730469 26.28125-4.960937 3.425781-11.230469 5.402344-18.132813 5.71875-6.097656.269531-12.804687-.738281-19.949218-3.019531-9.15625-2.917969-15.757813-7.082031-19.617188-12.371094-2.863281-3.917969-4.671875-9.078125-5.230468-14.917969-1.144532-11.914062 3.140624-24.160156 11.460937-32.757812h.003906c3.953125-4.089844 8.933594-7.40625 14.394531-9.589844 5.144532-2.054688 10.265626-3.085938 15.207032-3.085938 4.273437 0 8.414062.769532 12.3125 2.316407 9.910156 3.933593 17.492187 10.488281 21.347656 18.464843 3.96875 8.207032 3.785156 17.015626 2.933594 22.960938zm0 0"/><path d="m124.945312 324.597656c18.179688.070313 36.59375.601563 54.738282 1.570313.09375.007812.183594.007812.273437.007812 2.648438 0 4.867188-2.074219 5.007813-4.75.148437-2.769531-1.972656-5.132812-4.742188-5.28125-18.308594-.980469-36.894531-1.515625-55.238281-1.585937-.007813 0-.011719 0-.019531 0-2.761719 0-5.007813 2.234375-5.019532 5-.011718 2.773437 2.226563 5.027344 5 5.039062zm0 0"/><path d="m187.644531 338.34375c-.035156 0-.074219 0-.113281 0-20.300781.457031-40.875.144531-61.15625-.929688-2.761719-.136718-5.128906 1.976563-5.277344 4.746094-.144531 2.765625 1.980469 5.128906 4.746094 5.277344 14.421875.765625 28.988281 1.148438 43.503906 1.148438 6.148438 0 12.292969-.066407 18.410156-.207032 2.769532-.0625 4.964844-2.359375 4.902344-5.128906-.0625-2.734375-2.296875-4.90625-5.015625-4.90625zm0 0"/><path d="m183.257812 362.097656-50.398437-2.191406c-2.78125-.125-5.113281 2.027344-5.230469 4.796875-.121094 2.769531 2.023438 5.109375 4.792969 5.230469l50.398437 2.195312c.074219.003906.148438.003906.222657.003906 2.671875 0 4.890625-2.105468 5.007812-4.800781.121094-2.769531-2.023437-5.113281-4.792969-5.234375zm0 0"/><path d="m286.183594 312.3125c-13.890625 3.027344-24.71875 12.972656-28.257813 25.949219-3.574219 13.101562 1.183594 28.042969 11.5625 36.335937 6.316407 5.042969 14.738281 7.835938 23.457031 7.835938.90625 0 1.820313-.03125 2.730469-.089844 14.0625-.945312 26.796875-9.210938 32.445313-21.0625 5.679687-11.914062 3.8125-26.722656-4.648438-36.855469-8.820312-10.566406-23.109375-15.210937-37.289062-12.113281zm32.875 44.648438c-4.046875 8.496093-13.714844 14.671874-24.054688 15.363281-7.199218.480469-14.214844-1.546875-19.25-5.570313-7.347656-5.867187-10.695312-16.5-8.144531-25.851562 2.589844-9.496094 10.332031-16.519532 20.714844-18.78125 2.1875-.476563 4.375-.710938 6.527343-.710938 8.183594 0 15.832032 3.367188 20.914063 9.453125 5.902344 7.0625 7.253906 17.792969 3.292969 26.097657zm0 0"/></svg>