<svg height="512pt" viewBox="0 -24 512.0038 512" width="512pt" xmlns="http://www.w3.org/2000/svg"><path d="m15.648438 458.515625c-2.949219 0-7.0625-.335937-8.742188-3.222656-.898438-1.527344-.910156-3.402344-.832031-5.691407.878906-23 2.0625-45.808593 3.519531-67.882812.164062-2.488281.480469-3.929688 1.089844-4.96875l.875-1.496094 1.691406-.382812c.398438-.089844.828125-.132813 1.308594-.132813.765625 0 1.730468.109375 3.039062.351563 2.746094.515625 5.480469 1.046875 8.214844 1.589844 9.890625 1.953124 20.070312 3.964843 30.289062 4.265624.769532.019532 1.5625.035157 2.375.035157 8.691407 0 21.28125-1.449219 31.898438-8.351563l3.152344-2.050781 2.242187 3.023437c7.152344 9.652344 15.238281 19.394532 25.886719 25.269532 9.441406 5.199218 20.445312 7.125 30.90625 8.652344 24.222656 3.523437 49.992188 5.925781 81.09375 7.566406 24.433594 1.296875 49.398438 1.953125 74.207031 1.953125 19.332031 0 38.851563-.402344 58.015625-1.195313 7.023438-.289062 15.761719-.644531 23.496094-3.730468 9.964844-3.972657 17.835938-12.335938 24.433594-19.859376 2.867187-3.285156 5.792968-6.734374 8.941406-10.550781l2.730469-3.304687 3.109375 2.949218c6.414062 6.089844 14.558594 9.046876 24.90625 9.046876 3.707031 0 7.667968-.359376 12.460937-1.132813 12.347657-1.996094 24.199219-7.53125 34.160157-12.683594l5.8125-3.003906.027343 6.542969c.089844 23.835937-.328125 48.082031-1.242187 72.066406l-.152344 3.914062-3.914062-.066406c-61.125-1.03125-142.003907-2.21875-225.554688-2.21875-95.386719 0-179.726562 1.527344-257.835938 4.664063-.578124.023437-1.113281.035156-1.609374.035156zm0 0" fill="#5bd0fc"/><path d="m448.121094 340.132812c-.09375-.023437-.183594-.035156-.265625-.039062-6.492188.164062-13.246094.25-20.070313.25-45.929687 0-92.304687-3.699219-137.15625-7.277344l-.3125-.023437c-25.75-2.0625-52.347656-4.1875-78.535156-5.59375-26.773438-1.441407-54.070312-2.171875-81.140625-2.171875-20.621094 0-41.453125.425781-61.921875 1.261718l-2.335938.097657-1.230468-1.988281c-14.476563-23.371094-27.109375-46.910157-37.550782-69.964844-1.394531-3.078125-2.097656-5.386719-1.320312-7.449219 1.332031-3.542969 6.332031-4.222656 9.980469-4.425781 34.742187-1.953125 69.980469-3.265625 104.742187-3.894532 16.304688-.292968 32.886719-.441406 49.289063-.441406 45.230469 0 90.839843 1.121094 135.570312 3.324219 30.917969 1.515625 62.152344 3.582031 92.832031 6.140625 20.59375 1.710938 37.867188 3.398438 55.242188 6.042969 1.046875.15625 2.386719.273437 3.941406.402343 10.449219.851563 13.515625 2.148438 15.085938 3.96875l.488281.566407.25.703125c.90625 2.542968.941406 6.808594-5.671875 19.144531l-.1875.339844c-11.648438 21.726562-23.269531 41.152343-35.5 59.359375l-1.535156 2.289062zm-40.921875-69.566406c-1.207031 0-2.417969.109375-3.589844.328125-6.441406 1.195313-11.777344 5.589844-14.648437 12.050781-2.28125 5.125-2.496094 11.191407-.597657 16.652344 1.191407 3.429688 3.097657 6.261719 5.511719 8.191406 2.15625 1.726563 4.925781 2.933594 8.707031 3.796876 2.5625.582031 4.957031.878906 7.121094.878906 2.082031 0 3.996094-.261719 5.855469-.792969 6.789062-1.941406 12.117187-7.773437 13.589844-14.859375 1.410156-6.832031-.867188-14.230469-5.949219-19.308594-4.417969-4.410156-10.25-6.9375-16-6.9375zm-72.824219-4.222656c-1.210938 0-2.421875.113281-3.597656.332031-6.441406 1.195313-11.78125 5.585938-14.644532 12.042969-2.28125 5.125-2.5 11.199219-.601562 16.660156 1.195312 3.429688 3.097656 6.257813 5.507812 8.175782 2.175782 1.742187 4.941407 2.949218 8.714844 3.8125 2.53125.574218 4.929688.867187 7.121094.867187 2.105469 0 4.023438-.257813 5.867188-.785156 6.777343-1.945313 12.105468-7.777344 13.578124-14.859375 1.410157-6.832032-.871093-14.230469-5.949218-19.304688-4.414063-4.410156-10.242188-6.941406-15.996094-6.941406zm-72.847656-4.222656c-1.207032 0-2.410156.109375-3.582032.324218-6.4375 1.195313-11.773437 5.589844-14.644531 12.050782-2.28125 5.125-2.5 11.191406-.597656 16.652344 1.1875 3.429687 3.09375 6.257812 5.511719 8.191406 2.167968 1.726562 4.933594 2.933594 8.710937 3.792968 2.558594.585938 4.957031.882813 7.121094.882813 2.070313 0 3.996094-.257813 5.882813-.792969 6.757812-1.9375 12.085937-7.769531 13.558593-14.851562 1.410157-6.839844-.867187-14.242188-5.949219-19.316406-4.414062-4.40625-10.25-6.933594-16.011718-6.933594zm-72.820313-2.113282c-1.207031 0-2.414062.109376-3.589843.328126-6.4375 1.195312-11.777344 5.585937-14.648438 12.050781-2.28125 5.121093-2.496094 11.191406-.597656 16.652343 1.191406 3.429688 3.097656 6.261719 5.511718 8.191407 2.167969 1.726562 4.9375 2.933593 8.710938 3.792969 2.558594.585937 4.957031.878906 7.121094.878906 2.078125 0 4-.257813 5.871094-.792969 6.773437-1.9375 12.101562-7.769531 13.570312-14.859375 1.417969-6.828125-.859375-14.226562-5.949219-19.304688-4.414062-4.410156-10.246093-6.9375-16-6.9375zm-72.828125 0c-1.207031 0-2.417968.109376-3.589844.328126-6.441406 1.199218-11.777343 5.589843-14.648437 12.050781-2.28125 5.121093-2.496094 11.191406-.597656 16.652343 1.191406 3.429688 3.097656 6.261719 5.511719 8.191407 2.164062 1.726562 4.933593 2.933593 8.710937 3.792969 2.558594.585937 4.957031.878906 7.121094.878906 2.078125 0 3.996093-.257813 5.867187-.796875 6.777344-1.933594 12.101563-7.765625 13.574219-14.855469 1.410156-6.835938-.867187-14.234375-5.949219-19.308594-4.414062-4.40625-10.246094-6.933594-16-6.933594zm0 0" fill="#d8deec"/><path d="m307.800781 415.007812c-24.683593 0-49.59375-.65625-74.035156-1.949218-31.085937-1.644532-56.796875-4.046875-80.90625-7.558594-10.691406-1.554688-21.050781-3.367188-30.214844-8.414062-11.277343-6.226563-19.335937-16.554688-27.277343-27.484376-8.378907-11.542968-16.449219-23.34375-23.984376-35.066406l-3.792968-5.898437 7.007812-.261719c18.644532-.695312 37.601563-1.046875 56.335938-1.046875 26.957031 0 54.121094.726563 80.738281 2.160156 26.167969 1.402344 52.761719 3.523438 78.476563 5.574219l.15625.015625c44.953124 3.589844 91.433593 7.304687 137.492187 7.304687 4.113281 0 8.519531-.042968 14.28125-.140624l7.863281-.132813-4.523437 6.433594c-10.664063 15.167969-21.816407 29.425781-33.152344 42.375-6.71875 7.675781-14.078125 15.488281-23.648437 19.300781-6.839844 2.726562-14.070313 3.222656-22.8125 3.589844-19.164063.792968-38.679688 1.199218-58.003907 1.199218zm0 0" fill="#5b5d6d"/><path d="m409.675781 310.414062c-2.046875 0-4.28125-.273437-6.640625-.8125-3.488281-.804687-5.996094-1.890624-7.898437-3.421874-2.660157-2.121094-4.109375-5.117188-4.851563-7.253907-1.726562-4.980469-1.535156-10.5.535156-15.148437 2.625-5.921875 7.296876-9.789063 13.152344-10.875 1.097656-.199219 2.179688-.296875 3.230469-.296875 5.214844 0 10.523437 2.3125 14.558594 6.351562 4.527343 4.527344 6.644531 11.378907 5.390625 17.445313-1.308594 6.261718-6.191406 11.605468-12.148438 13.308594-1.625.464843-3.417968.703124-5.328125.703124zm0 0" fill="#5bd0fc"/><path d="m411.785156 245.351562c-29.0625-2.34375-57.9375-4.226562-85.824218-5.59375-44.871094-2.207031-90.46875-3.324218-135.53125-3.324218-16.480469 0-33.121094.152344-49.460938.449218-5.582031.101563-11.183594.21875-16.785156.359376l-4.164063.105468.066407-4.167968c.3125-19.394532 1.742187-38.890626 4.253906-57.949219.75-5.695313 1.589844-10.761719 4.230468-15.085938 5.105469-8.382812 15.949219-11.652343 23.65625-13.382812 18.75-4.222657 37.699219-4.953125 57.078126-5.375 11.5625-.257813 22.851562-.390625 33.554687-.390625 45.039063 0 84.5625 2.316406 120.824219 7.082031 11.679687 1.535156 24.796875 3.929687 32.652344 12.914063 4.988281 5.71875 7.144531 13.144531 9.085937 20.890624 4.835937 19.28125 8.421875 39.140626 10.65625 59.035157l.539063 4.824219zm-50.207031-68.804687c-1.058594 0-2.113281.097656-3.136719.289063-5.636718 1.046874-10.3125 4.886718-12.832031 10.546874-1.988281 4.472657-2.175781 9.785157-.515625 14.570313 1.042969 2.992187 2.710938 5.472656 4.832031 7.167969 1.90625 1.515625 4.332031 2.574218 7.617188 3.324218 2.226562.503907 4.320312.757813 6.210937.757813 1.839844 0 3.515625-.222656 5.132813-.683594 5.933593-1.707031 10.601562-6.808593 11.882812-13.003906 1.246094-5.988281-.746093-12.460937-5.199219-16.898437-3.863281-3.859376-8.964843-6.070313-13.992187-6.070313zm-63.269531-3.664063c-1.054688 0-2.109375.09375-3.132813.285157-5.632812 1.042969-10.308593 4.886719-12.828125 10.542969-1.988281 4.476562-2.175781 9.789062-.511718 14.570312 1.039062 2.996094 2.710937 5.476562 4.828124 7.171875 1.90625 1.515625 4.332032 2.574219 7.621094 3.320313 2.191406.503906 4.28125.761718 6.210938.761718 1.835937 0 3.515625-.226562 5.132812-.6875 5.933594-1.703125 10.597656-6.808594 11.878906-13.003906 1.246094-5.980469-.746093-12.453125-5.199218-16.898438-3.859375-3.855468-8.964844-6.0625-14-6.0625zm-63.25-1.835937c-1.058594 0-2.121094.097656-3.148438.289063-5.628906 1.042968-10.300781 4.886718-12.820312 10.546874-1.988282 4.472657-2.179688 9.78125-.515625 14.554688 1.035156 2.996094 2.707031 5.476562 4.828125 7.171875 1.886718 1.515625 4.308594 2.570313 7.621094 3.324219 2.222656.511718 4.3125.769531 6.210937.769531 1.84375 0 3.515625-.226563 5.113281-.691406 5.953125-1.703125 10.617188-6.804688 11.898438-13.007813 1.25-5.976562-.742188-12.445312-5.195313-16.890625-3.859375-3.855469-8.957031-6.066406-13.992187-6.066406zm-63.257813 0c-1.0625 0-2.121093.097656-3.152343.289063-5.628907 1.042968-10.296876 4.886718-12.820313 10.546874-1.066406 2.402344-1.632813 5.132813-1.632813 7.890626 0 2.296874.375 4.539062 1.117188 6.664062 1.039062 2.996094 2.710938 5.476562 4.832031 7.171875 1.886719 1.515625 4.308594 2.570313 7.621094 3.324219 2.222656.511718 4.308594.769531 6.210937.769531 1.84375 0 3.515626-.226563 5.113282-.691406 5.953125-1.699219 10.617187-6.804688 11.898437-13.007813 1.242188-5.980468-.75-12.449218-5.199219-16.886718-3.855468-3.859376-8.953124-6.070313-13.988281-6.070313zm0 0" fill="#f0f2fa"/><path d="m363.753906 211.160156c-1.777344 0-3.714844-.238281-5.761718-.707031-2.980469-.675781-5.144532-1.609375-6.800782-2.9375-2.273437-1.808594-3.527344-4.386719-4.171875-6.226563-1.496093-4.3125-1.328125-9.078124.460938-13.085937 2.222656-5.019531 6.351562-8.433594 11.320312-9.363281.910157-.167969 1.84375-.253906 2.777344-.253906 4.5 0 9.074219 2 12.554687 5.480468 3.902344 3.890625 5.726563 9.789063 4.636719 15.03125-1.113281 5.375-5.308593 9.980469-10.4375 11.460938-1.40625.398437-2.941406.601562-4.578125.601562zm0 0" fill="#5bd0fc"/><path d="m336.871094 306.1875c-2.046875 0-4.292969-.273438-6.664063-.8125-3.457031-.789062-5.964843-1.871094-7.886719-3.402344-2.675781-2.132812-4.121093-5.128906-4.863281-7.265625-1.730469-4.976562-1.535156-10.5.53125-15.15625 2.632813-5.917969 7.300781-9.78125 13.152344-10.871093 1.03125-.195313 2.097656-.296876 3.234375-.296876 5.210938 0 10.511719 2.3125 14.554688 6.339844 4.53125 4.53125 6.644531 11.378906 5.390624 17.453125-1.304687 6.261719-6.1875 11.609375-12.144531 13.316407-1.617187.460937-3.402343.695312-5.304687.695312zm0 0" fill="#5bd0fc"/><path d="m347.265625 144.058594c-19.929687-2.160156-40.382813-3.589844-62.53125-4.378906l-3.933594-.136719.074219-3.9375c.238281-12.253907-.085938-24.828125-.980469-38.449219l-.285156-4.335938 4.339844.074219c21.304687.351563 42.890625 1.453125 64.167969 3.28125l3.652343.316407.003907 3.664062c.019531 12.769531-.007813 26.210938-.078126 39.949219l-.023437 4.433593zm0 0" fill="#f0f2fa"/><path d="m347.414062 94.078125c-21.242187-1.8125-42.894531-2.90625-64.351562-3.246094l-3.621094-.058593-.300781-3.605469c-2.125-25.421875-5.820313-50.667969-9.738281-76.453125l-.707032-4.652344 82.203126.882812.066406 3.890626c.433594 25.914062.699218 52.574218.789062 79.242187l.015625 4.371094zm0 0" fill="#5b5d6d"/><g fill="#5bd0fc"><path d="m300.496094 207.488281c-1.777344 0-3.71875-.238281-5.761719-.703125-2.980469-.679687-5.144531-1.613281-6.800781-2.941406-2.273438-1.804688-3.527344-4.382812-4.171875-6.226562-1.496094-4.304688-1.328125-9.066407.460937-13.078126 2.222656-5.023437 6.351563-8.441406 11.320313-9.367187.996093-.175781 1.894531-.257813 2.78125-.257813 4.492187 0 9.066406 1.996094 12.546875 5.480469 3.90625 3.890625 5.726562 9.792969 4.640625 15.03125-1.113281 5.378907-5.3125 9.984375-10.441407 11.460938-1.402343.402343-2.9375.601562-4.574218.601562zm0 0"/><path d="m264.015625 301.960938c-2.046875 0-4.28125-.269532-6.636719-.808594-3.484375-.804688-5.984375-1.886719-7.886718-3.402344-2.679688-2.148438-4.121094-5.140625-4.863282-7.273438-1.734375-4.972656-1.539062-10.496093.53125-15.148437 2.625-5.921875 7.300782-9.785156 13.152344-10.875 1.054688-.199219 2.136719-.296875 3.222656-.296875 5.214844 0 10.523438 2.3125 14.566406 6.347656 4.53125 4.53125 6.644532 11.378906 5.390626 17.449219-1.308594 6.257813-6.1875 11.601563-12.148438 13.308594-1.625.464843-3.417969.699219-5.328125.699219zm0 0"/><path d="m237.21875 205.65625c-1.773438 0-3.703125-.234375-5.746094-.703125-3.007812-.695313-5.164062-1.628906-6.800781-2.9375-2.28125-1.8125-3.53125-4.398437-4.175781-6.246094-1.488282-4.292969-1.324219-9.050781.453125-13.058593 2.269531-5.101563 6.292969-8.429688 11.332031-9.371094.886719-.167969 1.832031-.257813 2.785156-.257813 4.484375 0 9.054688 1.996094 12.542969 5.46875 3.910156 3.910157 5.730469 9.8125 4.644531 15.046875-1.121094 5.386719-5.320312 9.988282-10.449218 11.453125-1.390626.402344-2.9375.605469-4.585938.605469zm0 0"/></g><path d="m150.691406 139.714844c.984375-11.300782 1.484375-23.359375 1.484375-35.832032v-3.6875l3.675781-.296874c20.945313-1.691407 42.195313-2.601563 63.164063-2.714844l3.832031-.019532 2.011719 41.917969-4.140625.054688c-3.769531.046875-7.585938.117187-11.449219.207031-17.449219.386719-35.96875 1.058594-53.804687 4.644531l-5.238282 1.050781zm0 0" fill="#f0f2fa"/><path d="m152.085938 93.890625c-.503907-26.675781-2.863282-52.304687-5.152344-77.085937l-1.539063-4.703126 65.855469-1.417968c.183594-.003906.542969-.015625.953125-.015625 1.824219 0 3.183594.152343 4.3125.910156l.136719.09375c1.589844 1.160156 2.253906 3.117187 2.449218 7.230469l3.648438 76.214844-4.167969.027343c-20.632812.128907-41.554687 1.023438-62.179687 2.65625l-4.234375.335938zm0 0" fill="#5b5d6d"/><path d="m191.214844 299.847656c-2.054688 0-4.292969-.273437-6.667969-.8125-3.480469-.792968-5.988281-1.878906-7.898437-3.414062-2.660157-2.121094-4.109376-5.117188-4.851563-7.253906-1.730469-4.976563-1.535156-10.5.53125-15.15625 2.632813-5.917969 7.304687-9.78125 13.15625-10.871094 1.097656-.199219 2.175781-.296875 3.230469-.296875 5.214844 0 10.523437 2.316406 14.558594 6.351562 4.53125 4.53125 6.644531 11.375 5.390624 17.441407-1.308593 6.261718-6.1875 11.609374-12.148437 13.3125-1.617187.464843-3.402344.699218-5.300781.699218zm0 0" fill="#5bd0fc"/><path d="m173.953125 205.65625c-1.769531 0-3.699219-.234375-5.738281-.703125-3.007813-.695313-5.167969-1.628906-6.800782-2.9375-2.28125-1.8125-3.53125-4.398437-4.175781-6.246094-1.492187-4.292969-1.328125-9.050781.449219-13.054687 2.269531-5.105469 6.296875-8.433594 11.335938-9.371094.886718-.171875 1.828124-.257812 2.78125-.257812 4.484374 0 9.058593 1.992187 12.546874 5.464843 3.90625 3.910157 5.726563 9.816407 4.640626 15.046875-1.117188 5.386719-5.316407 9.988282-10.449219 11.453125-1.394531.402344-2.941407.605469-4.589844.605469zm0 0" fill="#5bd0fc"/><path d="m118.382812 299.847656c-2.050781 0-4.289062-.273437-6.65625-.8125-3.484374-.792968-5.996093-1.878906-7.90625-3.414062-2.082031-1.65625-3.761718-4.164063-4.847656-7.234375-1.734375-4.996094-1.539062-10.519531.527344-15.175781 2.632812-5.921876 7.300781-9.78125 13.152344-10.871094 1.058594-.195313 2.144531-.292969 3.230468-.292969 5.207032 0 10.515626 2.3125 14.558594 6.34375 4.53125 4.535156 6.648438 11.378906 5.394532 17.445313-1.308594 6.261718-6.191407 11.609374-12.148438 13.3125-1.617188.464843-3.402344.699218-5.304688.699218zm0 0" fill="#5bd0fc"/><path d="m511.941406 371.792969c-.015625-1.753907-.949218-3.375-2.457031-4.269531-1.507813-.898438-3.375-.941407-4.921875-.117188-12.585938 6.703125-25.597656 13.636719-39.570312 15.894531-15.601563 2.519531-25.496094.449219-32.804688-6.894531 21.542969-27.214844 41.621094-58.328125 60.996094-94.476562l.164062-.3125c3.132813-5.835938 8.960938-16.699219 5.886719-24.441407-2.902344-7.308593-13.253906-8.179687-20.8125-8.8125-1.398437-.117187-2.722656-.226562-3.574219-.355469-16.613281-2.535156-33.152344-4.191406-52.546875-5.828124-2.242187-20.765626-5.9375-41.53125-11.019531-61.769532-2.046875-8.164062-4.539062-16.691406-10.398438-23.394531-9.238281-10.574219-23.640624-13.25-36.414062-14.929687-2.238281-.292969-4.484375-.574219-6.742188-.847657.25-43.429687 0-87.46875-.734374-130.910156-.027344-1.542969-.082032-4.753906-2.582032-7.144531-2.367187-2.265625-5.410156-2.296875-6.875-2.3125l-79.976562-.86718775c-1.464844-.04687505-2.878906.61718775-3.84375 1.72656275-.96875 1.113281-1.394532 2.59375-1.175782 4.046875 6.460938 42.371094 13.117188 86.160156 12.300782 129.589844-14.066406-.371094-28.730469-.488282-44.132813-.359376l-5.578125-116.394531c-.136718-2.820312-.417968-8.683593-5.09375-11.945312-3.089844-2.15625-6.738281-2.078125-8.917968-2.03125l-61.167969 1.320312c-1.25.027344-3.574219.078125-5.675781 1.558594-4.003907 2.816406-3.539063 7.835937-3.386719 9.484375 3.574219 38.679688 7.625 82.523438 3.542969 125.058594-.015626.171875 0 .339844 0 .507812-7.664063 2.363282-16.160157 6.453125-21.023438 14.433594-3.253906 5.335938-4.25 11.296875-5.058594 17.441406-2.570312 19.511719-4.011718 39.367188-4.308594 59.050782-26.066406.726562-52.242187 1.824218-78.125 3.28125-3.074218.171874-12.4375.699218-15.296874 8.351562-1.792969 4.808594.335937 9.515625 1.484374 12.046875 16.601563 36.675781 38.316407 73.875 64.5625 110.660156-9.832031 6.210938-21.742187 7.324219-30.386718 7.074219-9.734375-.285156-19.238282-2.164062-29.300782-4.152344-2.757812-.546875-5.519531-1.09375-8.285156-1.605468-2.300781-.425782-6.582031-1.214844-10.289062 1.335937-4.324219 2.984375-4.675782 8.289063-4.839844 10.835937-1.480469 22.535157-2.664062 45.398438-3.5195312 67.953126-.0898438 2.335937-.2226568 5.867187 1.6445312 9.066406 3.230469 5.535156 9.765625 6.226562 13.75 6.226562.804688 0 1.503906-.027344 2.054688-.050781 164.019531-6.59375 331.453124-5.03125 487.960937-2.359375 2.742187.019531 4.988281-2.09375 5.101563-4.816406 1.164062-28.371094 1.632812-57.15625 1.386718-85.546875zm-437.199218-39.421875c45.421874-1.683594 91.375-1.328125 136.710937 1.109375 26.121094 1.402343 52.6875 3.527343 78.382813 5.578125 45.175781 3.609375 91.6875 7.324218 137.953124 7.324218 4.789063 0 9.574219-.058593 14.355469-.140624-10.605469 15.089843-21.53125 29.0625-32.886719 42.039062-6.394531 7.304688-13.367187 14.730469-22.125 18.222656-6.261718 2.5-13.148437 2.964844-21.5 3.308594-43.695312 1.808594-87.992187 1.558594-131.660156-.753906-30.96875-1.636719-56.5625-4.027344-80.539062-7.511719-10.320313-1.503906-20.292969-3.242187-28.855469-7.964844-10.546875-5.8125-18.304687-15.769531-25.96875-26.328125-8.421875-11.59375-16.378906-23.234375-23.867187-34.882812zm198.613281-322.261719 73.605469.796875c.445312 26.265625.703124 52.753906.789062 79.1875-21.425781-1.828125-43.144531-2.921875-64.625-3.253906-2.160156-25.863282-5.9375-51.535156-9.769531-76.730469zm10.53125 86.785156c21.242187.351563 42.710937 1.449219 63.882812 3.273438.019531 13.339843-.003906 26.652343-.074219 39.914062-19.839843-2.148437-40.59375-3.605469-62.816406-4.402343.246094-12.945313-.140625-25.886719-.992187-38.785157zm-127.710938 6.984375c20.820313-1.675781 41.964844-2.582031 62.863281-2.699218l1.625 33.949218c-3.78125.058594-7.609374.128906-11.484374.214844-17.710938.390625-36.429688 1.09375-54.503907 4.71875 1.050781-12.050781 1.496094-24.152344 1.5-36.183594zm55.164063-89.199218c.625-.015626 2.539062-.054688 2.957031.226562.101563.074219.632813.617188.804687 4.191406l3.453126 72.046875c-20.765626.128907-41.769532 1.027344-62.46875 2.671875-.507813-26.957031-2.949219-53.359375-5.199219-77.734375-.003907-.035156-.007813-.066406-.007813-.097656zm-83.035156 161.078124c.6875-5.230468 1.441406-9.859374 3.675781-13.527343 4.316406-7.082031 14.121093-9.996094 21.121093-11.570313 18.34375-4.132812 37.097657-4.855468 56.296876-5.28125 60.160156-1.332031 109.015624.789063 153.761718 6.664063 10.957032 1.4375 23.226563 3.636719 30.164063 11.578125 4.394531 5.027344 6.398437 11.96875 8.222656 19.230468 4.8125 19.175782 8.347656 38.835938 10.5625 58.507813-28.535156-2.300781-57.402344-4.191406-85.949219-5.597656-61.441406-3.023438-123.769531-3.996094-185.265625-2.882813-5.589843.101563-11.195312.226563-16.804687.363282.304687-19.167969 1.714844-38.496094 4.214844-57.484376zm-98.277344 72.882813c.054687-.152344.726562-1.515625 6.453125-1.839844 34.664062-1.949219 69.851562-3.257812 104.59375-3.882812 61.269531-1.105469 123.378906-.140625 184.589843 2.871093 30.800782 1.515626 61.988282 3.578126 92.707032 6.136719 20.542968 1.707031 37.75 3.382813 54.964844 6.007813 1.1875.179687 2.605468.296875 4.246093.4375 2.707031.226562 10.90625.914062 12.351563 2.589844.828125 2.304687-1 7.65625-5.429688 15.910156l-.167968.316406c-11.476563 21.410156-23.195313 41.003906-35.3125 59.046875-.386719-.085937-.78125-.144531-1.195313-.140625-52.386719 1.328125-105.664063-2.925781-157.191406-7.042969-25.757813-2.054687-52.394531-4.183593-78.644531-5.59375-47.570313-2.558593-95.828126-2.863281-143.441407-.914062-14.386719-23.230469-26.875-46.480469-37.300781-69.507813-.429688-.949218-1.570312-3.464844-1.222656-4.394531zm470.691406 203.398437c-155.242188-2.625-321.070312-4.085937-483.628906 2.449219-5.3125.214844-6.476563-.773437-6.726563-1.203125-.394531-.679687-.328125-2.453125-.285156-3.625.851563-22.464844 2.03125-45.234375 3.503906-67.675781.140625-2.132813.386719-2.921875.550781-3.214844.316407-.066406 1.050782-.054687 2.738282.253907 2.722656.503906 5.441406 1.042968 8.164062 1.582031 10.019532 1.980469 20.382813 4.03125 30.953125 4.335937 10.25.296875 24.511719-1.113281 36.570313-8.960937 7.492187 10.128906 15.875 20.167969 27.171875 26.394531 10.03125 5.527344 21.4375 7.527344 32.257812 9.101562 24.289063 3.535157 50.171875 5.953126 81.453125 7.605469 24.683594 1.304688 49.5625 1.960938 74.421875 1.960938 19.441407 0 38.871094-.402344 58.1875-1.199219 7.328125-.304688 16.449219-.683594 24.800781-4.015625 10.828126-4.320313 19.078126-13.070313 25.960938-20.9375 3.039062-3.472656 6.046875-7.027344 9.027344-10.640625 12.339844 11.71875 28.164062 10.996094 40.757812 8.960938 12.679688-2.050782 24.546875-7.488282 35.355469-13.082032.089844 23.90625-.324219 48.035156-1.234375 71.910156zm0 0"/><path d="m100.058594 300.351562c2.652344 2.121094 5.929687 3.574219 10.320312 4.574219 2.847656.648438 5.503906.972657 8.007813.972657 2.460937 0 4.769531-.3125 6.964843-.941407 8.1875-2.347656 14.621094-9.367187 16.390626-17.890625 1.6875-8.140625-1.007813-16.933594-7.035157-22.949218-6.355469-6.347657-15.011719-9.230469-23.15625-7.714844-7.75 1.441406-14.15625 6.675781-17.570312 14.359375-2.683594 6.042969-2.945313 13.183593-.714844 19.59375 1.445313 4.144531 3.792969 7.597656 6.792969 9.996093zm3.097656-25.511718c2.082031-4.683594 5.714844-7.726563 10.234375-8.566406 4.890625-.910157 10.207031.9375 14.222656 4.949218 3.605469 3.597656 5.292969 9.015625 4.296875 13.804688-1.003906 4.839844-4.75 8.96875-9.324218 10.277344-2.71875.78125-6.074219.722656-9.976563-.167969-2.859375-.652344-4.855469-1.488281-6.285156-2.628907-1.921875-1.535156-3.003907-3.8125-3.574219-5.453124-1.402344-4.027344-1.253906-8.480469.40625-12.214844zm0 0"/><path d="m172.886719 300.351562c2.652343 2.121094 5.933593 3.574219 10.320312 4.574219 2.847657.648438 5.507813.972657 8.007813.972657 2.460937 0 4.773437-.3125 6.96875-.941407 8.1875-2.347656 14.621094-9.367187 16.386718-17.890625 1.691407-8.140625-1.007812-16.933594-7.035156-22.949218-6.351562-6.347657-15.007812-9.230469-23.152344-7.714844-7.753906 1.441406-14.15625 6.675781-17.570312 14.359375-2.6875 6.039062-2.945312 13.183593-.714844 19.59375 1.441406 4.140625 3.789063 7.597656 6.789063 9.996093zm3.097656-25.511718c2.082031-4.683594 5.714844-7.726563 10.234375-8.566406.824219-.152344 1.65625-.230469 2.496094-.230469 4.144531 0 8.390625 1.84375 11.730468 5.179687 3.605469 3.597656 5.289063 9.015625 4.296876 13.804688-1.003907 4.839844-4.75 8.96875-9.324219 10.277344-2.71875.78125-6.074219.722656-9.976563-.167969-2.859375-.652344-4.855468-1.488281-6.289062-2.628907-1.917969-1.535156-3-3.8125-3.574219-5.453124-1.402344-4.027344-1.253906-8.480469.40625-12.214844zm0 0"/><path d="m245.71875 302.460938c2.652344 2.121093 5.929688 3.574218 10.316406 4.578124 2.851563.648438 5.507813.972657 8.011719.972657 2.460937 0 4.769531-.3125 6.964844-.941407 8.1875-2.347656 14.625-9.367187 16.390625-17.890624 1.6875-8.140626-1.007813-16.933594-7.035156-22.953126-6.355469-6.34375-15.007813-9.226562-23.152344-7.710937-7.753906 1.441406-14.15625 6.675781-17.570313 14.359375-2.6875 6.042969-2.945312 13.183594-.714843 19.59375 1.4375 4.140625 3.789062 7.597656 6.789062 9.992188zm3.097656-25.511719c2.082032-4.683594 5.714844-7.722657 10.234375-8.566407 4.890625-.90625 10.207031.941407 14.222657 4.949219 3.605468 3.597657 5.292968 9.019531 4.296874 13.808594-1 4.835937-4.75 8.964844-9.324218 10.277344-2.71875.777343-6.074219.722656-9.976563-.167969-2.859375-.652344-4.855469-1.488281-6.285156-2.632812-1.921875-1.53125-3.003906-3.808594-3.574219-5.449219-1.402344-4.027344-1.253906-8.480469.40625-12.21875zm0 0"/><path d="m318.546875 306.6875c2.652344 2.117188 5.933594 3.574219 10.320313 4.574219 2.847656.652343 5.503906.976562 8.007812.976562 2.460938 0 4.773438-.316406 6.964844-.945312 8.191406-2.34375 14.625-9.367188 16.390625-17.890625 1.6875-8.136719-1.007813-16.933594-7.035157-22.949219-6.355468-6.34375-15.007812-9.230469-23.152343-7.710937-7.753907 1.441406-14.15625 6.675781-17.570313 14.355468-2.6875 6.042969-2.945312 13.183594-.714844 19.59375 1.441407 4.144532 3.789063 7.597656 6.789063 9.996094zm3.097656-25.511719c2.082031-4.683593 5.714844-7.726562 10.234375-8.566406.820313-.152344 1.65625-.226563 2.492188-.226563 4.148437 0 8.390625 1.839844 11.730468 5.175782 3.605469 3.597656 5.292969 9.015625 4.300782 13.808594-1.003906 4.835937-4.75 8.964843-9.328125 10.273437-2.714844.78125-6.074219.722656-9.972657-.167969-2.863281-.652344-4.859374-1.488281-6.289062-2.628906-1.921875-1.535156-3.003906-3.8125-3.574219-5.453125-1.402343-4.027344-1.253906-8.480469.40625-12.214844zm0 0"/><path d="m157.644531 206.738281c2.386719 1.90625 5.316407 3.207031 9.226563 4.101563 2.523437.574218 4.882812.863281 7.105468.863281 2.199219 0 4.265626-.28125 6.230469-.84375 7.347657-2.105469 13.117188-8.402344 14.699219-16.042969 1.511719-7.28125-.898438-15.152344-6.289062-20.535156-5.675782-5.664062-13.414063-8.238281-20.699219-6.878906-6.949219 1.292968-12.6875 5.976562-15.742188 12.851562-2.402343 5.398438-2.632812 11.777344-.640625 17.503906 1.292969 3.714844 3.40625 6.820313 6.109375 8.980469zm3.707031-22.40625c1.714844-3.867187 4.699219-6.371093 8.40625-7.0625.671876-.125 1.355469-.1875 2.042969-.1875 3.429688 0 6.945313 1.53125 9.722657 4.304688 2.980468 2.972656 4.375 7.445312 3.554687 11.394531-.808594 3.90625-3.949219 7.371094-7.636719 8.425781-2.253906.644531-5.058594.59375-8.335937-.15625-2.382813-.542969-4.035157-1.230469-5.195313-2.15625-1.546875-1.234375-2.425781-3.09375-2.894531-4.4375-1.160156-3.339843-1.039063-7.03125.335937-10.125zm0 0"/><path d="m220.902344 206.738281c2.386718 1.90625 5.320312 3.207031 9.230468 4.101563 2.523438.574218 4.878907.863281 7.101563.863281 2.199219 0 4.269531-.28125 6.234375-.84375 7.34375-2.105469 13.117188-8.402344 14.699219-16.042969 1.511719-7.28125-.898438-15.152344-6.289063-20.535156-5.675781-5.664062-13.414062-8.238281-20.699218-6.878906-6.953126 1.292968-12.691407 5.976562-15.746094 12.851562-2.398438 5.398438-2.628906 11.777344-.636719 17.503906 1.292969 3.714844 3.402344 6.820313 6.105469 8.980469zm3.707031-22.40625c1.71875-3.863281 4.703125-6.371093 8.40625-7.0625.675781-.125 1.359375-.1875 2.046875-.1875 3.429688 0 6.945312 1.53125 9.722656 4.304688 2.976563 2.972656 4.371094 7.445312 3.554688 11.394531-.8125 3.90625-3.949219 7.371094-7.636719 8.425781-2.25.644531-5.058594.59375-8.335937-.15625-2.382813-.542969-4.035157-1.230469-5.195313-2.15625-1.546875-1.234375-2.429687-3.09375-2.894531-4.4375-1.164063-3.339843-1.042969-7.03125.332031-10.125zm0 0"/><path d="m284.164062 208.570312c2.386719 1.90625 5.320313 3.210938 9.226563 4.101563 2.523437.578125 4.882813.867187 7.105469.867187 2.199218 0 4.265625-.285156 6.230468-.847656 7.347657-2.101562 13.117188-8.398437 14.703126-16.039062 1.507812-7.285156-.902344-15.152344-6.292969-20.535156-5.671875-5.664063-13.414063-8.234376-20.699219-6.882813-6.949219 1.292969-12.6875 5.980469-15.742188 12.851563-2.398437 5.398437-2.632812 11.78125-.640624 17.503906 1.292968 3.714844 3.40625 6.824218 6.109374 8.980468zm3.707032-22.40625c1.714844-3.863281 4.703125-6.371093 8.40625-7.058593.671875-.125 1.359375-.1875 2.046875-.1875 3.429687 0 6.945312 1.53125 9.722656 4.304687 2.976563 2.972656 4.371094 7.445313 3.550781 11.394532-.808594 3.902343-3.949218 7.367187-7.632812 8.425781-2.253906.644531-5.058594.59375-8.339844-.15625-2.382812-.542969-4.03125-1.230469-5.195312-2.160157-1.542969-1.230468-2.425782-3.089843-2.890626-4.433593-1.164062-3.34375-1.042968-7.035157.332032-10.128907zm0 0"/><path d="m347.425781 212.242188c2.386719 1.902343 5.316407 3.207031 9.226563 4.101562 2.523437.574219 4.878906.863281 7.105468.863281 2.195313 0 4.265626-.28125 6.230469-.847656 7.347657-2.101563 13.117188-8.398437 14.699219-16.039063 1.511719-7.28125-.898438-15.152343-6.289062-20.535156-5.675782-5.664062-13.414063-8.238281-20.699219-6.882812-6.953125 1.296875-12.6875 5.980468-15.746094 12.855468-2.398437 5.398438-2.632813 11.78125-.636719 17.503907 1.292969 3.714843 3.40625 6.820312 6.109375 8.980469zm3.707031-22.40625c1.714844-3.863282 4.699219-6.371094 8.40625-7.0625 4.035157-.75 8.433594.789062 11.769532 4.117187 2.976562 2.972656 4.371094 7.445313 3.550781 11.394531-.808594 3.90625-3.949219 7.371094-7.636719 8.425782-2.25.644531-5.058594.59375-8.335937-.15625-2.382813-.542969-4.035157-1.226563-5.195313-2.15625-1.546875-1.234376-2.425781-3.09375-2.894531-4.4375-1.164063-3.339844-1.039063-7.03125.335937-10.125zm0 0"/><path d="m391.375 310.910156c2.65625 2.121094 5.933594 3.574219 10.320312 4.574219 2.851563.652344 5.507813.976563 8.007813.976563 2.460937 0 4.773437-.316407 6.96875-.941407 8.1875-2.347656 14.621094-9.371093 16.390625-17.890625 1.683594-8.140625-1.007812-16.933594-7.035156-22.953125-6.355469-6.34375-15.011719-9.230469-23.15625-7.710937-7.753906 1.441406-14.15625 6.675781-17.570313 14.355468-2.683593 6.042969-2.945312 13.183594-.714843 19.597657 1.441406 4.140625 3.789062 7.597656 6.789062 9.992187zm3.097656-25.511718s.003906 0 0 0c2.082032-4.679688 5.71875-7.722657 10.234375-8.5625.824219-.15625 1.65625-.230469 2.492188-.230469 4.148437 0 8.394531 1.839843 11.734375 5.175781 3.601562 3.601562 5.289062 9.019531 4.296875 13.808594-1.003907 4.835937-4.75 8.96875-9.324219 10.277344-2.71875.777343-6.074219.722656-9.976562-.167969-2.859376-.652344-4.859376-1.488281-6.289063-2.632813-1.917969-1.53125-3.003906-3.808594-3.574219-5.449218-1.402344-4.027344-1.253906-8.480469.40625-12.21875zm0 0"/></svg>