<svg id="Capa_1" enable-background="new 0 0 512 512" height="512" viewBox="0 0 512 512" width="512" xmlns="http://www.w3.org/2000/svg"><path d="m512 148.27v35.1c-2.65-.14-5.3-.26-7.95-.35-4.88-.18-9.77-.3-14.64-.35-.61 0-1.22-.01-1.84-.01-1.09-.01-2.18-.01-3.27-.01-15.25 0-30.6.66-45.63 1.96-.77.07-1.73.16-2.67.41-.18.04-.35.09-.51.14-.12.04-.24.09-.36.13-.25.09-.48.2-.69.33-.11.05-.22.11-.32.2-.08.04-.16.1-.24.18-.12.09-.24.18-.34.29-.1.09-.2.19-.29.3-.11.14-.22.28-.31.43-.08.12-.16.25-.22.39-.05.11-.1.22-.14.34-.04.08-.06.17-.09.25-.07.17-.11.34-.15.51-.07.27-.11.56-.14.85-.03.21-.04.43-.05.64-.01.22-.02.43-.02.65 0 .28.01.56.03.85 0 .16.01.33.02.48l1.11 23.23v.03c.02.45.05 1 .03 1.59 0 .12-.01.24-.02.36v.04c-.01.15-.02.29-.04.44-.01.1-.02.18-.04.28-.01.04-.01.08-.02.12-.03.19-.08.38-.12.56-.01.01-.01.02-.01.03-.04.12-.07.23-.11.34-.04.12-.08.23-.13.33-.05.12-.11.24-.17.35-.01.01-.02.02-.02.03-.19.31-.42.61-.7.86-.06.06-.13.11-.2.17-.34.26-.72.45-1.12.58-.13.05-.26.08-.4.12-.11.03-.22.06-.34.08-.01.01-.03.01-.04.01-.14.03-.29.05-.43.07s-.27.04-.4.05c-.14.02-.27.03-.4.04-.26.02-.51.04-.74.05l-3.28.18-7.73.43c-.19.01-.39.02-.61.04-.16.01-.3.02-.44.05-.14.02-.27.04-.4.07-.09.02-.17.05-.26.07-.12.04-.24.08-.35.13s-.22.11-.32.17-.2.13-.29.21l-.1.1c-.25.25-.45.55-.6.95-.05.1-.09.2-.12.32-.01.02-.02.05-.03.08-.01.06-.02.12-.04.18-.03.1-.05.2-.07.3s-.04.19-.06.29c-.01.05-.02.11-.03.16-.03.14-.05.28-.06.42-.03.17-.06.34-.07.51-.05.35-.08.71-.1 1.08-.05.74-.07 1.49-.06 2.22v.78l.02 1.87-1.19.09-.67.05c-1.83.14-3.67.3-5.54.46-1.08.09-2.17.19-3.27.29-1.83.17-3.68.34-5.54.53-1.15.1-2.31.22-3.47.34-.33.03-.66.06-.99.1-1 .1-2.01.21-3.02.31-1.77.19-3.55.39-5.35.59-1.57.17-3.15.35-4.73.53-.38.04-.76.08-1.14.13-1.89.22-3.79.45-5.7.67s-3.82.46-5.75.7c-3.36.41-6.74.84-10.14 1.28-1.7.22-3.4.44-5.11.66-1.7.22-3.4.44-5.11.67-1.71.22-3.42.45-5.13.68-5.13.68-10.26 1.38-15.37 2.07-1.95.26-3.9.52-5.84.79-3.24.44-6.46.88-9.66 1.32-2.35.32-4.69.64-7.01.94-2.19.3-4.37.59-6.53.88-6.94.92-13.68 1.79-20.14 2.57-.92.11-1.84.22-2.75.33-3.64.44-7.18.84-10.61 1.22-1.93.21-3.83.41-5.68.59-2.58.26-5.08.49-7.51.7-7.68.67-14.51 1.06-20.24 1.08l-.66.57-.85-.09c-4.29-.48-8.57-.97-12.85-1.45-8.57-.98-17.13-1.96-25.66-2.95-4.27-.5-8.54-.99-12.8-1.49-17.04-2-33.99-4.03-50.79-6.07-2.8-.33-5.6-.68-8.39-1.03-5.59-.68-11.15-1.37-16.7-2.06-2.59-.31-5.19-.64-7.78-.96l-2.23-.28h-.02l-.01-.86c0-.24 0-.48-.01-.71 0-.24 0-.47-.01-.7v-.42c-.01-.49-.02-.97-.03-1.45 0-.07 0-.14-.01-.22-.01-.53-.03-1.07-.05-1.6-.01-.63-.03-1.26-.07-1.89-.02-.7-.06-1.4-.1-2.11 0-.03 0-.06-.01-.09-.01-.44-.04-.88-.07-1.32 0-.1 0-.2-.01-.3-.02-.33-.04-.66-.07-.98 0-.11-.01-.22-.02-.33-.03-.45-.06-.9-.09-1.35-.08-1.17-.18-2.33-.29-3.5-.14-1.55-.3-3.09-.47-4.62-.03-.29-.07-.58-.1-.86-.04-.29-.08-.58-.13-.86-.04-.28-.09-.55-.16-.82-.06-.27-.12-.54-.2-.8-.04-.13-.08-.26-.13-.39-.04-.13-.08-.25-.14-.37-.05-.14-.1-.27-.17-.39-.06-.13-.12-.25-.19-.37 0-.02-.01-.04-.02-.05-.04-.08-.09-.17-.15-.25-.07-.14-.16-.27-.25-.39-.05-.07-.1-.13-.16-.2-.09-.12-.19-.24-.3-.36v-.01c-.11-.12-.23-.23-.35-.33-.11-.12-.23-.21-.36-.3-.38-.29-.79-.53-1.23-.72-.14-.08-.29-.14-.44-.19-.17-.06-.35-.12-.53-.18-.14-.05-.28-.08-.42-.11-.16-.05-.32-.08-.49-.11-.28-.06-.57-.11-.86-.16-.89-.13-1.82-.18-2.75-.21-1.39-.04-2.79-.06-4.19-.06-.8 0-1.61.01-2.41.02-1.1.02-2.21.05-3.3.09-1.02.03-2.04.08-3.05.14-.13 0-.26.01-.38.02-.84.04-1.67.09-2.5.15-1.27.09-2.53.18-3.77.29-.82.07-1.64.14-2.45.22-.82.08-1.63.16-2.45.25-.2.02-.39.04-.59.06-1.49.16-2.98.33-4.47.51-1.4.17-2.77.34-4.1.51l-.93.12c-.39.05-.79.1-1.18.16-.44.06-.88.11-1.32.17l-.55.07c-2.37.32-4.75.65-7.09.98-2.4.34-4.82.67-7.25 1-.85.12-1.7.23-2.56.34-1.42.18-2.84.36-4.27.54 0 0 0 0-.01 0-1.42.17-2.84.34-4.27.5-2.87.31-5.75.59-8.64.81-2.78.22-5.57.38-8.37.47v-84.55c.41-.45.81-.88 1.22-1.31.08-.09.16-.17.24-.26 1.19-1.27 2.4-2.51 3.63-3.72.52-.52 1.05-1.03 1.59-1.54.62-.6 1.25-1.19 1.88-1.77 1.67-1.54 3.38-3.05 5.12-4.5 9.11-7.6 19.17-14.03 29.83-19.05 1.01-.48 2.04-.94 3.06-1.39 1.03-.47 2.06-.91 3.1-1.32.86-.36 1.73-.7 2.6-1.04.69-.27 1.39-.53 2.09-.79.8-.29 1.61-.58 2.41-.86 1.61-.55 3.23-1.08 4.86-1.57.75-.23 1.49-.45 2.23-.66s1.48-.41 2.22-.6c1.47-.38 2.92-.72 4.37-1.04 6.35-1.38 12.42-2.07 18.13-2.07 5.21 0 10.19.58 14.82 1.73 9.24 2.29 17.37 7.07 23.24 13.37.59.63 1.15 1.27 1.69 1.93 1.35 1.66 2.55 3.4 3.59 5.21.52.91 1 1.83 1.43 2.77s.83 1.9 1.17 2.87c.36 1.03.68 2.06.94 3.1.13.53.25 1.05.36 1.58.22 1.03.39 2.07.52 3.1.19 1.58.28 3.16.28 4.74 0 .95-.03 1.9-.1 2.85-.04.57-.09 1.15-.15 1.73-.1.97-.24 1.93-.41 2.9-.09.5-.18 1.01-.28 1.51-.24 1.19-.52 2.38-.85 3.57-.24.9-.5 1.79-.79 2.68-.14.45-.29.9-.45 1.34-.77 2.23-1.67 4.47-2.66 6.71-.2.45-.4.89-.61 1.34-.63 1.34-1.29 2.68-1.98 4.01-.23.45-.46.9-.7 1.34-.01.03-.02.06-.04.08-.22.42-.45.84-.69 1.25-.24.44-.49.89-.74 1.33s-.5.89-.76 1.33c-.69 1.19-1.39 2.36-2.11 3.53-.63 1.02-1.26 2.04-1.91 3.04-.31.49-.63.99-.95 1.48-.42.64-.84 1.28-1.26 1.92-.88 1.32-1.77 2.65-2.67 3.96 1.22-.24 2.47-.48 3.75-.72l.94-.17c.92-.17 1.92-.34 2.99-.5.78-.12 1.6-.24 2.44-.35 2.45-.32 4.95-.52 7.42-.52 2.57 0 4.95.21 7.18.66.89.17 1.75.37 2.59.61.42.13.84.26 1.25.4.33.11.66.24.99.36.33.13.66.28.99.43.22.1.44.21.65.32.22.11.44.22.65.34.27.15.53.3.8.46 3.85 2.29 7.14 5.8 8.91 9.79.12.27.23.54.34.82.08.22.16.44.24.66.04.12.08.24.12.37.09.28.17.57.24.87.08.31.15.62.21.93h.01c.07.38.12.76.16 1.14.01.07.02.14.02.21.03.31.05.62.06.94 0 .23.02.45.01.68v.18c-.05 1.21-.26 2.42-.65 3.63.94-.68 1.87-1.33 2.79-1.94l.17-.11.78-.51c.53-.35 1.06-.68 1.58-1.01.07-.03.13-.07.19-.12.46-.27.92-.55 1.37-.81 2.63-1.54 5.16-2.8 7.62-3.77.44-.18.87-.34 1.3-.5h.01c.39-.14.78-.28 1.17-.4.16-.06.31-.11.47-.15.29-.1.58-.19.87-.27.21-.07.43-.13.64-.18.31-.09.62-.17.92-.24.25-.07.51-.13.76-.18.25-.06.5-.11.75-.15.25-.05.5-.1.75-.14.25-.05.49-.09.74-.13.34-.06.67-.1 1-.14.23-.03.47-.06.71-.08.29-.04.58-.06.87-.08.13-.02.26-.03.4-.03.39-.03.78-.05 1.17-.06.3-.01.59-.01.88-.01.22 0 .44 0 .66.01 5.54.2 11.59 2.25 16.03 6.07 1.63 1.39 3.04 3.03 4.13 4.9.67 1.13 1.22 2.36 1.62 3.67.59-4.09 2.5-8.91 6.02-13.43.26-.32.52-.64.79-.96.26-.32.54-.64.83-.95.38-.42.78-.84 1.19-1.25 2.92-2.92 6.62-5.59 11.2-7.69.03-.01.05-.02.08-.04.32-.14.63-.28.95-.42.46-.2.92-.4 1.39-.57.42-.17.85-.34 1.29-.49.5-.18 1.01-.35 1.53-.52.8-.26 1.6-.5 2.42-.72 1.24-.34 2.51-.63 3.81-.89 1.8-.35 3.67-.64 5.63-.86 1.93-.22 3.95-.37 6.07-.45.03.01.06.01.1 0 1.39-.06 2.83-.09 4.31-.09.3 0 .6 0 .9.01.3 0 .61 0 .91.01.55.01 1.1.02 1.64.03.81.02 1.61.04 2.41.07h.03c.81.04 1.6.07 2.38.11 1.04.05 2.06.11 3.03.16.49.03.97.06 1.44.09l2.9.17.18.01c-.76-1.93-1.52-3.95-2.27-6.04-.13-.36-.27-.73-.4-1.1-.17-.49-.35-.99-.53-1.5-.25-.71-.5-1.42-.74-2.15-.7-2.1-1.4-4.29-2.06-6.57-.21-.72-.41-1.44-.61-2.17-.44-1.62-.85-3.27-1.24-4.96-.1-.41-.19-.83-.28-1.24-.18-.8-.34-1.6-.5-2.41-.09-.45-.18-.89-.26-1.34-.09-.51-.18-1.04-.27-1.56-.09-.49-.17-.98-.24-1.47-.09-.59-.18-1.19-.26-1.78-.05-.4-.1-.79-.15-1.18s-.1-.78-.14-1.17c-.06-.52-.11-1.04-.16-1.56-.03-.28-.05-.55-.07-.83-.03-.32-.06-.64-.08-.95-.04-.56-.08-1.12-.11-1.68-.02-.45-.04-.91-.06-1.37-.01-.16-.01-.33-.02-.5-.02-.81-.04-1.64-.04-2.46 0-3.34.21-6.71.68-10.07.08-.55.16-1.09.26-1.65.09-.55.19-1.1.31-1.65.11-.55.23-1.11.36-1.66.12-.54.26-1.08.4-1.62.01-.04.02-.07.03-.11.14-.54.29-1.07.45-1.61.16-.55.34-1.11.52-1.66.24-.73.49-1.46.77-2.19.13-.38.28-.75.43-1.13.17-.42.34-.85.52-1.27 5.38-12.57 14.98-22.51 26.28-26.65.38-.14.76-.27 1.14-.39.41-.13.81-.26 1.22-.38.41-.11.82-.23 1.24-.33.75-.18 1.5-.35 2.26-.49.57-.11 1.15-.2 1.73-.28.01 0 .03 0 .05-.01 1.79-.26 3.6-.38 5.41-.38 14.41 0 29.9 8.15 42.67 22.12.41.45.82.91 1.23 1.37.08.09.17.18.25.27l.29.34c.19.2.37.4.54.61 1.14 1.33 2.24 2.7 3.31 4.12-.44-2.09-.64-4.17-.64-6.22v-.16c0-.16 0-.32.01-.48 0-.29.01-.57.03-.85.02-.45.05-.89.09-1.33.11-1.26.3-2.5.55-3.73.05-.24.1-.47.16-.71.05-.25.11-.49.17-.74.11-.44.23-.87.35-1.3.12-.41.24-.81.37-1.21.14-.42.28-.83.43-1.24.16-.44.33-.89.5-1.32.15-.37.31-.74.47-1.1 1.06-2.44 2.35-4.78 3.8-6.97.2-.32.41-.63.63-.94 3.39-4.94 7.54-9.15 11.56-12.29 1.19-.93 2.41-1.81 3.67-2.63.32-.21.63-.41.95-.62.5-.31 1-.62 1.51-.92.44-.26.89-.52 1.34-.77 6.75-3.73 14.17-6.1 21.23-6.73.54-.05 1.08-.09 1.61-.11.67-.03 1.34-.05 2-.05 1.19 0 2.35.05 3.5.15.38.03.76.07 1.14.11.38.05.76.1 1.13.15s.75.12 1.12.18c.37.07.73.14 1.1.21.37.08.73.16 1.09.25s.73.19 1.09.28c.7.2 1.4.41 2.09.66s1.38.51 2.05.79c1.01.42 2 .9 2.96 1.42 5.98 3.25 10.53 8.09 13.85 13.58.24.39.47.78.7 1.18.25.43.49.86.72 1.3.16.31.33.62.48.94.18.35.35.7.51 1.05.2.43.4.86.59 1.29 2.63 6.06 4.04 12.48 4.46 18.19.1 1.29.15 2.58.18 3.87.02.91.02 1.81 0 2.71 0 .42-.01.83-.03 1.24-.01.41-.02.83-.05 1.24-.02.41-.04.83-.07 1.24-.03.61-.07 1.21-.13 1.82-.03.47-.07.94-.12 1.4-.22 2.25-.51 4.46-.86 6.65-.26 1.65-.56 3.28-.88 4.89-.15.75-.3 1.49-.46 2.23-.36 1.71-.75 3.39-1.14 5.04-.4 1.64-.8 3.25-1.2 4.82-.06.21-.11.41-.16.61l-.46 1.78c-.42 1.59-.84 3.18-1.26 4.76 3.26-4.24 8.84-7.09 15-7.78.26-.02.52-.04.78-.06.7-.07 1.41-.1 2.12-.1 5.23 0 10.3 1.52 14.7 4.4.3.2.59.4.87.6.25.17.49.35.73.54.21.15.41.31.61.46.51.41 1.01.83 1.5 1.27.23.21.46.42.68.63s.44.42.66.64c.23.23.46.47.7.71.19.21.39.42.58.64 1.27 1.41 2.46 2.96 3.54 4.63.23.35.45.71.67 1.07.22.35.43.72.63 1.08.22.36.42.72.6 1.09.2.36.39.73.56 1.1.37.74.71 1.47 1.03 2.21.16.37.31.74.46 1.1.16.36.31.73.44 1.1.14.37.27.74.4 1.1.27.71.51 1.43.72 2.16.2.62.39 1.24.55 1.88.16.54.31 1.09.43 1.64.14.53.26 1.06.38 1.6.04.15.07.3.1.45l.11.53c.32 1.57.56 3.04.73 4.33.69-1.31 1.51-2.56 2.43-3.72l.24-.3c.02-.03.04-.05.07-.08.27-.34.56-.67.85-.99.02-.02.04-.04.06-.06.28-.31.57-.61.88-.9.1-.11.21-.21.32-.32.31-.29.62-.58.95-.86.01-.01.02-.02.04-.04.37-.32.76-.63 1.15-.93.5-.38 1.01-.75 1.53-1.1.31-.21.63-.41.96-.61.32-.19.65-.38.98-.57.33-.18.67-.36 1-.53 1.68-.87 3.46-1.56 5.29-2.06.42-.11.85-.22 1.27-.32.93-.2 1.87-.37 2.81-.48.12-.01.23-.03.35-.03.89-.1 1.8-.15 2.7-.15.22 0 .43 0 .65.02z" fill="#fff"/><path d="m512 458.33v53.67h-134.9l6.12-79.82 2.39 1.79.02.02c.02.02.04.03.06.05l.45.33c.02.01.04.02.05.04.18.13.35.25.52.36.03.02.05.04.08.06.1.07.19.13.29.19.3.2.62.38.93.56.33.18.66.35 1 .52.33.16.67.32 1.01.47.21.09.41.18.61.26.22.1.45.18.67.27.49.19.99.37 1.48.54.02.01.03.01.05.02.46.17.92.32 1.38.47 1.29.43 2.59.86 3.89 1.28.02.01.03.01.05.01 1.31.42 2.62.83 3.94 1.23 1.14.34 2.28.68 3.42 1.02.17.05.35.1.52.15 1.32.38 2.64.76 3.95 1.12 1.32.37 2.64.73 3.96 1.07 1.31.35 2.63.69 3.95 1.02l3.15.78c.98.24 1.97.47 2.95.7 2.74.64 5.48 1.25 8.22 1.82.02 0 .04 0 .07.01.84.17 1.68.35 2.52.52l1.95.39c1.11.22 2.21.43 3.32.64 2.21.42 4.41.82 6.6 1.2 1.1.19 2.19.38 3.28.56 1.5.24 2.99.48 4.47.71 2.89.45 5.76.87 8.62 1.26 1.45.19 2.89.39 4.32.57 1.23.17 2.45.32 3.67.46.91.11 1.83.22 2.74.32 1.64.2 3.27.38 4.88.55 1.07.12 2.13.23 3.19.34 3.55.37 7.03.7 10.45 1 2.08.18 4.14.35 6.16.51 2.4.19 4.77.36 7.12.53 1.41.1 2.8.2 4.18.29.75.04 1.5.09 2.25.14z" fill="#e59a55"/><path d="m511.9 328.04c-2.76.13-5.53.26-8.31.38-.13.01-.27.01-.41.02-2.56.1-5.13.2-7.71.29-1.86.07-3.73.13-5.6.19-1.75.07-3.5.11-5.26.16-.57.01-1.13.03-1.7.05-1.94.06-3.89.1-5.84.14-1.94.04-3.89.09-5.84.12-2.42.05-4.84.09-7.26.12l-.64.01c-.6.01-1.2.02-1.8.03h-.51c-.05.01-.1.01-.16.01h-.57c-2.54.03-5.1.05-7.66.06-1.28.01-2.56.01-3.84.01-.7.01-1.4.01-2.09.01-.7.01-1.4.01-2.09.01-.78 0-1.56 0-2.33-.01-.78 0-1.56 0-2.34-.01-.71 0-1.42 0-2.13-.01-1.72 0-3.44-.01-5.16-.03l-1.92-.02-2.08-.02c-5.48-.06-10.97-.15-16.45-.28-2.63-.06-5.27-.12-7.9-.2-2.8-.08-5.59-.16-8.39-.26-2.6-.08-5.19-.18-7.78-.29-2.68-.1-5.37-.22-8.04-.34-5.35-.24-10.68-.51-15.97-.81l-1.64-.1c-.08-.54-.16-1.09-.23-1.63-.08-.63-.16-1.26-.23-1.88-.11-.93-.21-1.86-.29-2.79-.05-.49-.08-.98-.12-1.48-.1-1.31-.18-2.63-.23-3.95-.06-1.67-.08-3.33-.06-5 0-.44 0-.89.01-1.33v-.15l.01-.77-1.8.09c-1.99.1-3.98.22-5.97.36-.11.01-.21.02-.32.02-.89.07-1.77.13-2.66.21-.75.05-1.5.12-2.24.19-.34.02-.67.05-1 .09-1.74.15-3.46.33-5.19.52-.24.02-.48.05-.72.08-1.3.15-2.59.3-3.89.47-.9.11-1.79.23-2.69.35-.58.07-1.15.15-1.72.24-.58.08-1.16.17-1.73.25-.56.08-1.12.16-1.67.25-.97.14-1.94.3-2.9.46-.67.1-1.33.22-1.99.33-.02 0-.04 0-.05.01-1.13.19-2.26.39-3.39.6s-2.26.42-3.39.64c-.01 0-.02 0-.04.01-1.93.37-3.86.77-5.78 1.19h-.01c-.21.05-.42.1-.63.16-.21.05-.41.12-.61.19s-.39.15-.57.24c-.07.03-.14.06-.2.1h-.01c-.02 0-.03.01-.05.03-.02 0-.04.01-.05.03-.07.03-.14.07-.21.12-.01 0-.03.01-.04.02-.07.04-.14.08-.2.13-.1.06-.2.14-.29.22s-.18.17-.26.26c-.06.07-.13.15-.18.23-.03.04-.06.08-.08.12-.02.03-.04.05-.05.07l-1.61 2.96h2.56c.23.18.5.36.81.52.13.07.26.15.4.22l.61.31c.6.28 1.2.55 1.8.81l1.54.66c.81.35 1.63.68 2.45 1.01 2.46.99 4.96 1.89 7.47 2.73.83.29 1.67.57 2.5.84 1.23.4 2.46.79 3.68 1.18 1.27.41 2.54.81 3.8 1.2 1.54.48 3.08.96 4.63 1.46 1.27.41 2.55.82 3.82 1.24 1.85.62 3.7 1.26 5.54 1.94.61.22 1.22.45 1.83.69 2.44.93 4.84 1.93 7.2 3.04 1.33.62 2.65 1.28 3.94 1.98.49.27.98.53 1.46.81.37.21.74.42 1.1.64.27.15.54.31.8.48.27.16.55.33.82.51.52.32 1.04.66 1.55 1 .33.22.71.5 1.08.84.12.11.24.23.36.35.14.14.28.29.39.44.09.11.17.23.25.35.07.12.14.24.2.36.21.43.31.89.24 1.36 0 .02-.01.04-.01.06-.02.12-.06.24-.1.35-.04.1-.07.19-.12.28-.06.13-.13.25-.23.37-.05.07-.12.14-.19.2-.07.07-.15.14-.24.2-.08.07-.16.12-.26.18-.09.06-.19.11-.29.16-.14.07-.29.14-.45.2-.09.05-.19.08-.29.11-.46.14-.99.26-1.59.35-.01 0-.01 0-.02 0-.87.12-1.74.23-2.62.33-.18.03-.36.05-.55.06-.66.08-1.34.15-2.01.21-.03 0-.07.01-.1.01-1.61.15-3.22.27-4.83.38-3.63.23-7.26.37-10.83.5-.91.03-1.82.07-2.73.11-.91.03-1.82.07-2.74.11-1.22.05-2.44.11-3.66.18s-2.44.15-3.66.24c-1.23.1-2.44.2-3.65.32-4.99.47-9.84 1.25-14.5 2.57l-.07.02v.01c-2.67.76-5.28 1.72-7.82 2.91-.24.1-.47.22-.71.33-.17.08-.34.16-.51.25-1.48.73-2.89 1.52-4.25 2.38-1.43.91-2.82 1.98-3.3 3.55-.12.38-.17.77-.17 1.15 0 .13.01.26.02.39.01.06.02.11.03.17v.01c.02.13.04.26.08.38.04.16.09.32.15.48.07.15.14.3.22.45.07.13.14.25.21.37.22.34.5.69.83 1.02l.17.17c.91.86 2.09 1.58 3.3 2.14l.06.03c.71.33 1.33.56 1.75.7.14.05.27.09.4.13.05.02.09.03.12.04 1.39.42 2.78.82 4.17 1.2.7.2 1.41.39 2.11.57 2.26.6 4.53 1.16 6.82 1.68.69.17 1.38.32 2.07.47.34.08.69.16 1.03.23l1.26.27c1.06.22 2.13.44 3.19.65.72.15 1.45.29 2.17.42.47.1.95.19 1.42.27.91.17 1.82.34 2.74.5l.33.06c.86.15 1.73.3 2.6.44 2.93.5 5.85.96 8.78 1.38 1.15.17 2.31.34 3.47.5.33.05.66.09.99.14 1.98.27 3.96.54 5.93.79 1.16.15 2.31.3 3.46.44 1.15.15 2.3.29 3.45.43 2.3.29 4.59.56 6.87.84l.26.03c21.39 2.6 43.51 5.28 64.38 11.76.6.19 1.21.38 1.83.59.55.18 1.12.38 1.68.58.23.08.46.16.68.25.77.29 1.54.6 2.3.94.61.27 1.21.56 1.8.87 1.12.6 2.2 1.26 3.21 2.03.21.15.41.31.6.47.18.14.36.29.54.45.21.18.41.36.61.56.12.11.24.23.36.36.12.11.24.24.36.37.1.11.2.22.28.33v.01c.1.11.18.22.25.32.08.1.14.2.2.3.12.19.21.36.27.53.04.09.07.17.09.26.02.05.03.1.04.15.04.16.06.32.06.48 0 .06 0 .11-.01.16 0 .08-.01.15-.03.23-.03.18-.08.34-.16.49-.02.06-.04.11-.08.15-.02.06-.06.11-.1.16-.06.08-.12.16-.18.24s-.13.15-.21.21c-.23.21-.48.39-.76.55-.1.06-.19.12-.29.16-.2.1-.4.19-.61.27-.41.16-.83.29-1.24.39-1.72.42-3.46.81-5.21 1.17-1.72.35-3.45.68-5.17.97-1.75.31-3.49.59-5.23.86-1.74.28-3.47.54-5.19.8l-.11.02c-1.13.17-2.26.34-3.4.52-1.1.17-2.21.34-3.31.52-2.82.45-5.64.94-8.45 1.51-.43.09-.86.18-1.29.27-1.6.33-3.2.7-4.79 1.1-.55.14-1.1.28-1.65.43-.55.14-1.1.3-1.65.45-1.45.42-2.88.86-4.3 1.35-2.15.74-4.27 1.56-6.34 2.5-.28.13-.56.26-.84.4-.26.12-.52.25-.77.39-.21.11-.42.23-.62.36-.35.2-.67.42-.99.66-.57.43-1.09.93-1.51 1.52-.11.16-.21.31-.3.48-.09.15-.17.3-.24.46-.06.11-.1.21-.14.32-.02.02-.03.04-.02.06-.47 1.23-.54 2.57-.29 3.9.02.17.06.33.1.49.05.21.11.43.18.64.09.27.18.54.29.8.16.39.32.7.43.91l.19.34c.38.64.82 1.23 1.31 1.75.34.36.72.71 1.11 1.03l.02.02c.02.02.04.03.06.05l.45.33c.02.01.04.02.05.04.18.13.35.25.52.36.03.02.05.04.08.06.08.06.16.11.23.16.02.01.04.03.06.03.3.2.62.38.93.56.33.18.66.35 1 .52.33.16.67.32 1.01.47.21.09.41.18.61.26.22.1.45.18.67.27.49.19.99.37 1.48.54.02.01.03.01.05.02.46.17.92.32 1.38.47l.01.01c1.29.43 2.59.86 3.88 1.27.02.01.03.01.05.01 1.31.42 2.62.83 3.94 1.23 1.14.34 2.28.68 3.42 1.02.17.05.35.1.52.15 1.32.38 2.64.76 3.95 1.12 1.32.37 2.64.73 3.96 1.07 1.31.35 2.63.69 3.95 1.02l3.15.78c.98.24 1.97.47 2.95.7 2.74.64 5.48 1.24 8.22 1.82.02 0 .04 0 .07.01.84.17 1.68.35 2.52.52l1.95.39c1.11.22 2.21.43 3.32.64 2.21.42 4.41.82 6.6 1.2 1.1.19 2.19.38 3.28.56 1.5.24 2.99.48 4.47.71 2.9.45 5.77.87 8.62 1.26 1.45.19 2.89.39 4.32.57 1.23.16 2.46.31 3.67.46.91.11 1.83.22 2.74.32 1.64.2 3.27.38 4.88.55 1.07.12 2.13.23 3.19.34 3.55.37 7.03.7 10.45 1 2.08.18 4.14.35 6.16.51 2.42.19 4.79.37 7.12.53 1.41.1 2.8.2 4.18.29.71.05 1.42.09 2.13.14l.12.01v-86.65c-.03.01-.07.01-.1.01-3.88.2-7.82.3-11.71.3-4.94 0-9.89-.15-14.83-.45-.03-.01-.06-.01-.1-.01-.6-.04-1.21-.08-1.82-.12-.1-.01-.2-.01-.3-.02-.74-.06-1.48-.11-2.23-.17-.88-.07-1.76-.14-2.65-.22-.94-.08-1.89-.17-2.83-.27-.81-.08-1.63-.16-2.45-.26-1.02-.11-2.03-.23-3.05-.36-3.05-.37-6.09-.81-9.11-1.3-.36-.06-.63-.13-.82-.19l-.18-.06c-1.19-.41-1.31-1.02-1.35-1.24-.06-.36.04-.74.14-1.03l.07-.2.02-.07c.27-.74.57-1.46.89-2.17.17-.37.34-.74.52-1.1.33-.68.69-1.34 1.07-1.99.19-.33.39-.65.59-.97.19-.3.38-.6.58-.9.22-.33.45-.66.68-.98.24-.34.49-.67.74-.99.19-.25.38-.49.58-.73.34-.42.68-.82 1.04-1.22.27-.3.54-.59.81-.87.09-.11.19-.21.29-.3.2-.21.4-.42.6-.6.15-.15.31-.31.48-.46.35-.34.72-.67 1.09-.99.36-.33.74-.64 1.12-.94.2-.16.4-.32.6-.47.5-.39 1-.76 1.51-1.11.33-.23.67-.46 1.01-.68.35-.22.7-.44 1.06-.65.23-.14.45-.28.68-.4.01-.01.02-.01.03-.02.32-.18.65-.37.99-.54.23-.12.46-.24.7-.36s.48-.24.72-.35c.1-.05.2-.1.3-.14.56-.26 1.12-.5 1.7-.73.28-.11.56-.22.84-.32.56-.21 1.13-.4 1.7-.58.39-.13.78-.24 1.18-.35 1.55-.41 3.13-.73 4.73-.92.65-.08 1.31-.14 1.98-.18.27-.02.55-.03.83-.04.21-.01.43-.01.64-.01.18-.01.35-.01.53-.01.35 0 .71.01 1.06.02.16 0 .32.01.48.02.32.01.65.03.97.06.28.02.55.04.82.07.24.02.47.05.71.08.33.03.66.08.99.13.42.06.84.13 1.26.21.48.09.95.18 1.42.3.23.05.46.11.69.16s.46.11.69.18c.26.07.53.14.79.22.26.07.52.15.78.24.3.09.6.19.91.3.43.15.86.31 1.29.48.41.16.81.32 1.21.49.55.24 1.1.49 1.65.76.27.13.54.26.81.41.35.18.7.37 1.04.56.18.1.37.2.55.32.27.15.53.31.78.47.17.09.33.19.5.3.04.02.07.05.11.07.04.03.07.05.1.07.29.19.59.39.88.59v-21.44zm-74.34 37c-.02.04-.05.08-.09.12-.2.28-.45.55-.73.82-.07.07-.14.14-.21.19-.1.09-.2.17-.3.24-1 .71-3.27 1.84-7.63 1.93h-.54c-4.01 0-8.83-.86-14.36-2.55-.81-.24-1.62-.5-2.42-.77-.18-.06-.35-.12-.52-.19-.13-.04-.25-.1-.38-.15-.17-.08-.34-.16-.51-.24-.09-.04-.17-.09-.26-.14-.18-.09-.35-.2-.51-.32-.08-.06-.16-.12-.23-.18-.08-.05-.15-.12-.22-.19-.06-.06-.12-.12-.18-.19-.02-.02-.03-.03-.04-.05-.07-.08-.13-.17-.19-.26-.12-.17-.22-.37-.29-.58-.09-.27-.14-.54-.14-.83 0-.1.01-.19.02-.29s.03-.21.05-.31c.02-.11.06-.23.1-.34.03-.08.06-.17.1-.25.04-.1.09-.2.14-.3s.11-.21.18-.31.14-.2.21-.3.15-.2.24-.3c.07-.09.15-.18.24-.27.09-.1.17-.19.26-.26.18-.18.38-.35.59-.52.16-.13.33-.26.5-.38.18-.12.37-.25.56-.37.63-.4 1.26-.77 1.87-1.11.23-.13.46-.26.69-.38.24-.13.47-.25.7-.36.03-.02.06-.04.09-.05.28-.14.56-.28.84-.4.01-.01.03-.02.04-.02.19-.09.38-.18.57-.26.25-.12.49-.22.74-.32.3-.13.6-.25.9-.35.3-.12.6-.23.9-.32.3-.1.59-.19.89-.28.37-.11.73-.21 1.1-.3.45-.11.89-.21 1.33-.28.14-.03.28-.05.41-.07.11-.02.21-.04.31-.05.31-.05.63-.08.94-.12.15-.02.29-.03.44-.04.22-.02.44-.03.65-.04.28-.01.56-.02.84-.02.56 0 1.14.03 1.76.09.22.02.46.05.7.1.2.04.41.08.63.14.25.06.5.13.77.22.24.07.47.15.71.24.18.06.35.13.52.2.24.09.47.19.7.3.53.24 1.07.51 1.59.81.32.18.63.37.94.57s.61.41.9.62c.29.22.58.44.85.67.23.19.45.39.66.59.16.15.31.3.45.45.85.89 1.51 1.85 1.86 2.86.23.67.31 1.3.27 1.88 0 .1-.01.19-.02.28-.01.1-.03.2-.06.31-.06.28-.15.55-.25.81-.18.43-.41.82-.67 1.17z" fill="#f7b36f"/><path d="m511.12 348.88c.29.19.59.39.88.59v22.22c-3.98.19-7.97.29-11.93.29-4.9 0-9.81-.14-14.71-.43-.03-.01-.06-.01-.1-.01-.6-.04-1.21-.08-1.82-.12-.1-.01-.2-.01-.3-.02-.74-.06-1.48-.11-2.23-.17-.88-.07-1.76-.14-2.65-.22-.94-.08-1.89-.17-2.83-.27-.81-.08-1.63-.17-2.45-.26-1.02-.11-2.03-.23-3.05-.36-3.05-.37-6.09-.81-9.11-1.3-.36-.06-.63-.13-.82-.19l-.18-.06-1.85-.55.71-1.92.02-.07c.27-.74.57-1.46.89-2.17.17-.37.34-.74.52-1.1.33-.68.69-1.34 1.07-1.99.19-.33.39-.65.59-.97.19-.3.38-.6.58-.9.22-.33.45-.66.68-.98.24-.34.49-.67.74-.99.19-.25.38-.49.58-.73.34-.42.68-.82 1.04-1.22.27-.3.54-.59.81-.87.09-.11.19-.21.29-.3.2-.21.4-.42.6-.6.15-.15.31-.31.48-.46.35-.34.72-.67 1.09-.99.36-.33.74-.64 1.12-.94.2-.16.4-.32.6-.47.5-.39 1-.76 1.51-1.11.33-.23.67-.46 1.01-.68.35-.22.7-.44 1.06-.65.22-.14.45-.27.68-.4.01-.01.02-.01.03-.02.32-.18.65-.37.99-.54.23-.12.46-.24.7-.36s.48-.24.72-.35c.1-.05.2-.1.3-.14.56-.26 1.12-.5 1.7-.73.28-.11.56-.22.84-.32.56-.21 1.13-.4 1.7-.58.39-.13.78-.24 1.18-.35 1.55-.42 3.13-.74 4.73-.93.65-.07 1.31-.13 1.98-.17.27-.02.55-.03.83-.04.21-.01.43-.01.64-.01.18-.01.35-.01.53-.01.35 0 .71.01 1.06.02.16 0 .32.01.48.02.32.01.65.03.97.06.28.02.55.04.82.07.24.02.47.05.71.08.33.03.66.08.99.13.42.06.84.13 1.26.21.48.09.95.18 1.42.3.23.05.46.11.69.16s.46.11.69.18c.26.07.53.14.79.22.26.07.52.15.78.24.3.09.6.19.91.3.43.15.86.31 1.29.48.41.16.81.32 1.21.49.55.24 1.1.49 1.65.76.27.13.54.27.81.41.35.18.7.37 1.04.56.19.1.37.21.55.32.27.15.53.31.78.47.24.14.48.29.71.44z" fill="#ffd2bb"/><path d="m512 258.4v69.65c-2.79.13-5.59.26-8.41.37-.13.01-.27.01-.41.02-2.56.1-5.13.2-7.71.29-1.86.07-3.73.13-5.6.19-1.75.06-3.51.11-5.26.16-.57.01-1.13.03-1.7.05-1.94.05-3.89.1-5.84.14-1.94.04-3.89.09-5.84.12-2.42.05-4.84.09-7.26.12l-.64.01-2.31.03 1.05-2.75c.01-.03.02-.05.03-.08l.93-21.6c.02-.5.04-1 .07-1.51.17-3.76.37-7.58.83-11.37.1-.86.21-1.72.35-2.57.08-.51.16-1.01.25-1.51.14-.77.29-1.55.46-2.32 0 0 0 0 0-.01.1-.42.2-.84.3-1.26.43-1.78.95-3.48 1.54-5.1.2-.54.41-1.07.63-1.59 1.91-4.59 4.51-8.45 7.67-11.37 2.49-2.29 5.27-3.98 8.1-5.23.35-.16.71-.31 1.06-.45.33-.14.66-.27.99-.38.22-.09.45-.17.68-.25 3.74-1.3 7.42-1.92 10.46-2.19.84-.07 1.71-.13 2.6-.17.6-.02 1.22-.03 1.84-.04.28-.01.55-.02.84-.02 3.05 0 6.1.2 9.07.5.41.04.82.08 1.23.12z" fill="#af7979"/><path d="m512 205.07v53.34c-.41-.05-.82-.09-1.23-.13-2.9-.28-5.97-.49-9.03-.49-.29 0-.59 0-.88.01-.62.01-1.24.01-1.84.04-.89.04-1.76.1-2.6.17-3.04.27-6.72.89-10.46 2.19-.23.08-.46.16-.68.25-.33.11-.66.24-.99.38-.35.14-.71.29-1.06.45-2.83 1.25-5.61 2.94-8.1 5.23-3.16 2.92-5.76 6.78-7.67 11.37-.22.52-.43 1.05-.63 1.59-.61 1.62-1.12 3.32-1.55 5.09-.1.42-.2.85-.29 1.27v.01c-.17.77-.32 1.55-.46 2.32-.09.5-.17 1-.25 1.51-.14.85-.25 1.71-.35 2.57-.46 3.79-.66 7.61-.83 11.37-.02.56-.05 1.11-.07 1.66l-.93 21.45v.04l1.23 2.76.01.02-1.81.01-.67.01h-.57c-2.54.03-5.1.05-7.66.06-1.28.01-2.56.01-3.84.01-.7.01-1.4.01-2.09.01h-4.42c-.78 0-1.56 0-2.34-.01-.71 0-1.42 0-2.13-.01-1.72 0-3.44-.01-5.16-.03l-1.92-.02-1.44-47.91c-.07-2.25-.05-4.57.23-6.77.06-.5.13-.99.23-1.48.06-.33.13-.66.21-.99.08-.32.17-.63.26-.93 0 0 0 0 0-.01.14-.46.3-.92.48-1.36.12-.27.24-.54.37-.8s.27-.51.42-.76c.14-.24.3-.48.47-.72.17-.23.34-.45.53-.67.14-.17.3-.34.47-.51.43-.44.91-.84 1.45-1.19h.01c.29-.19.59-.36.89-.52.01 0 .02-.01.02-.01.31-.16.62-.31.94-.44.33-.15.66-.29 1-.41.32-.13.64-.25.95-.36.8-.3 1.6-.6 2.35-.96.29-.14.57-.28.84-.44.13-.06.25-.14.36-.22.13-.07.26-.16.38-.25.21-.15.41-.31.6-.49.12-.09.22-.2.32-.31.29-.3.54-.63.76-1 .06-.1.11-.2.15-.3.06-.1.11-.2.14-.3.09-.2.17-.41.24-.62.02-.07.04-.14.05-.21.12-.43.19-.87.23-1.33.1-1.13 0-2.32-.1-3.5v-.05l-.03-.36c-.07-.86-.11-1.68-.11-2.46 0-2.93.49-5.32 1.48-7.19.2-.37.41-.72.66-1.05.21-.28.42-.55.65-.8.12-.13.24-.25.36-.37.16-.16.33-.31.5-.46.35-.28.71-.54 1.08-.77.19-.12.38-.23.58-.33.39-.2.78-.38 1.2-.54h.01c.21-.08.42-.15.63-.22.42-.13.85-.25 1.28-.36.66-.15 1.34-.28 2.04-.38.45-.07.9-.13 1.37-.19.45-.06.91-.11 1.38-.16.02-.01.03-.01.05-.01.77-.09 1.55-.17 2.32-.28.78-.1 1.55-.23 2.31-.4.51-.11 1.01-.24 1.5-.39.23-.07.44-.14.65-.22.12-.05.24-.1.37-.15.07-.03.14-.06.21-.09.17-.08.34-.16.52-.26.19-.1.38-.21.56-.33.69-.43 1.23-.96 1.61-1.56.1-.14.18-.29.26-.45.66-1.38.5-2.98.27-4.36-.04-.22-.08-.43-.11-.64l-3.19-18.16c-.06-.33-.12-.68-.17-1.04-.01-.05-.01-.1-.02-.15-.05-.37-.08-.74-.08-1.12 0-.18.01-.36.03-.53.01-.14.02-.28.05-.41.02-.15.06-.3.1-.45.02-.08.04-.16.07-.23s.06-.14.09-.22c.08-.19.17-.37.27-.54.2-.34.45-.63.73-.88.15-.13.3-.25.46-.36 0 0 .01 0 .01-.01.63-.45 1.37-.75 2.13-.95 1.51-.41 3.05-.44 3.81-.46 2.23-.05 4.5-.07 6.74-.07 4.61 0 9.25.1 13.89.3 1.55.07 3.1.15 4.64.24 4.78.27 9.55.65 14.3 1.14z" fill="#935252"/><path d="m512 183.36v21.71c-4.75-.49-9.52-.87-14.3-1.14-1.54-.09-3.09-.17-4.64-.24-4.64-.2-9.28-.3-13.89-.3-2.24 0-4.51.02-6.74.07-.76.02-2.3.05-3.81.46-.75.21-1.5.51-2.13.95 0 .01-.01.01-.01.01-.16.11-.31.23-.46.36-.28.25-.53.54-.73.88-.11.17-.21.36-.29.56-.06.14-.1.29-.14.43-.04.15-.08.3-.1.45-.03.13-.04.27-.05.41-.02.17-.03.35-.03.53 0 .38.03.75.08 1.12.01.05.01.1.02.15.05.36.11.71.17 1.04l3.19 18.16c.03.21.07.42.11.64.22 1.4.38 3-.28 4.36-.07.16-.16.31-.25.45-.38.6-.92 1.13-1.61 1.56-.18.12-.37.23-.56.33-.18.1-.35.18-.52.26-.07.03-.14.06-.21.09-.13.05-.25.1-.37.15-.21.08-.42.15-.65.22-.49.15-.99.28-1.5.39-.76.16-1.53.29-2.31.4-.77.11-1.55.19-2.32.28-.02 0-.03 0-.05.01-.47.05-.93.1-1.38.16-.47.06-.92.12-1.37.19-1.86.28-3.61.69-5.16 1.5-.2.1-.39.21-.58.33-.38.23-.74.48-1.08.77-.18.14-.35.29-.51.45-.66.64-1.21 1.38-1.66 2.23-.99 1.87-1.48 4.26-1.48 7.19 0 .79.03 1.61.1 2.47l.04.35v.05c.1 1.18.2 2.37.1 3.5-.04.46-.11.9-.23 1.33-.01.07-.03.14-.05.21-.14.42-.31.83-.54 1.22-.22.38-.47.71-.75 1-.1.11-.2.22-.32.31-.19.18-.39.34-.6.49-.12.09-.25.18-.38.25-.11.08-.23.16-.36.22-.27.16-.55.3-.84.44-.73.34-1.51.63-2.3.93-.33.13-.67.25-1 .39-.34.12-.67.26-1 .41-.32.13-.63.28-.94.44 0 0-.01.01-.02.01-.3.16-.6.33-.89.52h-.01c-.54.35-1.02.75-1.45 1.19-1.32 1.3-2.18 2.96-2.74 4.82-.01 0 0 .01 0 .01-.1.31-.18.62-.26.93-.08.33-.15.66-.21.99-.1.49-.17.98-.23 1.48-.28 2.2-.3 4.52-.23 6.77l1.44 47.91-2.08-.02c-5.48-.06-10.97-.15-16.45-.28-2.63-.06-5.27-.12-7.9-.2-2.8-.08-5.59-.16-8.39-.26-2.59-.09-5.19-.18-7.78-.29-2.68-.1-5.37-.22-8.04-.34-5.35-.24-10.68-.51-15.97-.81l-1.64-.1h-.01l-.22-1.63c-.08-.63-.16-1.26-.23-1.88-.11-.93-.21-1.86-.29-2.79-.05-.49-.08-.98-.12-1.48-.11-1.31-.18-2.63-.23-3.95-.063-1.665-.077-3.33-.06-4.996v-.004c0-.44 0-.89.01-1.33v-.15c.01-.25.01-.51.02-.77.017-.546.056-1.092.082-1.639l.008-.191c.018-.438.04-.876.066-1.309.038-.616.084-1.229.132-1.845.048-.593.096-1.161.142-1.657l.1-1.13.02-.16c.05-.47.1-.94.16-1.41.03-.22.06-.45.09-.68l.07-.49c.03-.23.07-.46.11-.69.06-.33.12-.67.19-1.01.05-.2.1-.41.15-.61.15-.58.34-1.16.58-1.72.05-.13.11-.26.17-.39.1-.21.21-.42.32-.62.12-.2.24-.4.37-.59.28-.4.59-.77.92-1.09 2.06-2.1 5.05-2.96 8.19-3.37 1.65-.22 3.34-.32 4.96-.41.62-.04 1.27-.09 1.93-.16.32-.03.65-.08.97-.12.01.01.02.01.03 0 .86-.13 1.73-.3 2.57-.52.46-.11.9-.24 1.32-.39.25-.08.5-.17.74-.27.12-.04.23-.09.34-.14.25-.1.49-.21.73-.33.19-.1.38-.2.56-.3s.36-.2.53-.33c.18-.1.36-.23.53-.35s.33-.25.49-.39c.07-.06.14-.12.22-.19.16-.14.31-.29.45-.44.17-.19.34-.38.49-.57.08-.11.16-.22.24-.34.02-.02.04-.05.05-.07.07-.11.15-.22.22-.34.13-.23.25-.45.35-.69.07-.16.14-.32.2-.49.02-.04.04-.08.05-.12.65-1.89.46-3.89.07-5.9-.07-.38-.15-.76-.24-1.14-.05-.25-.11-.51-.17-.77l-.14-.64c-.05-.22-.1-.45-.14-.66-.18-.84-.32-1.66-.44-2.46l-.04-.28-.1-.88c-.012-.098-.013-.189-.024-.287-.086-.768-.151-1.52-.185-2.248-.002-.052-.002-.101-.004-.152-.241-5.79 1.135-10.321 4.133-13.293.18-.19.37-.37.57-.54.27-.23.54-.45.82-.65s.58-.4.88-.59c.58-.38 1.19-.71 1.83-1.02.02 0 .03-.01.05-.02.32-.16.65-.31.98-.45.64-.29 1.3-.56 1.95-.82.36-.13.71-.27 1.07-.41.96-.38 1.94-.76 2.88-1.18.28-.12.56-.25.84-.39.33-.15.65-.32.97-.49 1.14-.61 2.18-1.32 3.07-2.22.16-.15.31-.31.46-.48.3-.34.57-.7.82-1.09.36-.57.66-1.15.89-1.75.06-.15.11-.3.16-.45s.1-.3.14-.45c.09-.3.17-.6.23-.91.29-1.33.37-2.74.38-4.19 0-.52-.01-1.05-.02-1.58 0-.23-.01-.47-.01-.71-.01-.64-.02-1.28-.02-1.93-.01-.73.01-1.48.06-2.22.02-.36.06-.72.1-1.08.02-.17.04-.34.07-.51.01-.14.03-.28.06-.42 0-.05.01-.1.02-.15.02-.1.04-.2.07-.3.02-.1.04-.2.07-.3.02-.06.03-.12.04-.18.01-.03.02-.06.03-.08.03-.12.07-.22.12-.32.15-.4.35-.7.6-.95l.1-.1c.09-.08.19-.15.29-.21s.21-.12.32-.17.23-.09.35-.13c.09-.02.17-.05.26-.07.13-.03.26-.05.4-.07.14-.03.28-.04.44-.05.19-.03.4-.04.62-.05l7.72-.42 3.28-.18c.23-.01.48-.03.74-.05.13-.01.26-.02.4-.04.13-.01.26-.03.4-.05s.29-.04.43-.07c.01 0 .03 0 .04-.01.12-.02.23-.05.34-.08.14-.03.27-.07.4-.12.4-.13.78-.32 1.12-.58.07-.05.14-.1.2-.16.29-.25.52-.55.7-.87 0-.01.01-.02.02-.03.06-.11.12-.23.17-.35.05-.1.09-.21.13-.33.04-.11.08-.22.11-.34 0-.01 0-.02.01-.03.05-.18.09-.37.12-.56.01-.04.01-.08.02-.12.02-.09.03-.18.04-.28.02-.14.03-.29.04-.44v-.04c.01-.12.02-.24.02-.36.02-.59-.01-1.14-.03-1.59v-.03l-1.12-23.22c-.02-.45-.04-.9-.04-1.34 0-.22.01-.43.02-.65.01-.21.02-.43.05-.64.03-.29.07-.58.14-.85.04-.17.08-.34.15-.51.03-.08.05-.17.09-.25.04-.12.09-.23.14-.34.07-.13.14-.27.22-.39.09-.15.2-.29.31-.43.09-.11.19-.21.29-.3.1-.11.22-.2.34-.29.07-.07.15-.12.24-.18.1-.07.21-.14.32-.2.22-.12.46-.23.69-.33.12-.04.24-.09.36-.13.16-.05.33-.1.51-.14.94-.25 1.9-.34 2.67-.41 15.03-1.3 30.38-1.96 45.63-1.96 1.09 0 2.18 0 3.27.01.62 0 1.23.01 1.84.01 4.87.05 9.76.17 14.64.35 2.66.091 5.3.211 7.95.341z" fill="#af7979"/><path d="m0 0v129.04c.41-.45.81-.88 1.22-1.31.08-.09.16-.17.24-.26 1.19-1.27 2.4-2.51 3.63-3.72.52-.53 1.05-1.04 1.59-1.54.62-.61 1.25-1.2 1.88-1.77 1.67-1.54 3.38-3.05 5.12-4.5 9.13-7.65 19.17-14.06 29.83-19.05 1.01-.49 2.03-.96 3.06-1.39 1.03-.47 2.06-.91 3.1-1.32.86-.37 1.73-.71 2.6-1.04.69-.27 1.39-.53 2.09-.79.8-.3 1.6-.59 2.41-.86 1.61-.56 3.23-1.09 4.86-1.58.75-.23 1.49-.44 2.23-.65s1.48-.41 2.22-.6c1.47-.38 2.93-.73 4.37-1.04 6.35-1.38 12.42-2.07 18.13-2.07 5.21 0 10.19.58 14.82 1.73 9.24 2.29 17.37 7.07 23.24 13.37.59.63 1.15 1.27 1.69 1.93 1.35 1.66 2.55 3.4 3.59 5.21.52.91 1 1.83 1.43 2.77s.82 1.9 1.16 2.88c.36 1.03.68 2.06.95 3.09.13.53.25 1.05.36 1.58.22 1.03.39 2.07.52 3.1.19 1.58.28 3.16.28 4.74 0 .95-.03 1.9-.1 2.85-.04.57-.09 1.15-.15 1.73-.1.97-.24 1.93-.41 2.9-.08.5-.17 1.01-.28 1.51-.24 1.19-.52 2.38-.85 3.57-.24.9-.5 1.79-.79 2.68-.14.45-.29.9-.45 1.34-.57 1.68-1.22 3.36-1.93 5.03-.23.56-.48 1.12-.73 1.68-.19.45-.39.89-.61 1.34-.62 1.35-1.29 2.68-1.98 4.01-.23.45-.46.9-.7 1.34-.01.03-.02.06-.04.08-.22.42-.45.84-.69 1.25-.23.45-.48.89-.74 1.33-.25.44-.5.89-.76 1.33-.69 1.19-1.39 2.36-2.11 3.53-.63 1.02-1.26 2.04-1.91 3.04-.31.49-.63.99-.95 1.48-.42.64-.84 1.28-1.26 1.92l-2.58 3.9 3.66-.66.94-.17c.92-.17 1.92-.34 2.99-.5.78-.12 1.6-.24 2.44-.35 2.34-.29 4.87-.5 7.43-.5 2.58 0 4.96.21 7.17.64.89.17 1.75.37 2.59.61.42.12.84.25 1.25.39.33.11.66.23.99.37.33.13.66.28.99.43.22.1.44.21.65.32.22.11.44.22.65.34.27.15.53.3.8.46 3.48 2.12 6.66 5.31 8.55 9.04.13.25.25.5.36.75.12.27.23.54.34.82.08.22.16.44.24.66.04.12.08.24.12.37.09.28.17.57.24.87.08.31.15.62.21.93h.01c.07.38.12.76.16 1.14.01.07.02.14.02.21.03.31.05.62.06.94 0 .23.02.45.01.68v.18l.03 3.06 2.11-1.37.17-.11.78-.51c.53-.35 1.06-.68 1.58-1.01.07-.03.13-.07.19-.12.46-.27.92-.55 1.37-.81 2.63-1.54 5.16-2.8 7.62-3.77.44-.18.87-.34 1.3-.5h.01c.39-.14.78-.28 1.17-.4.16-.06.31-.11.47-.15.29-.1.58-.19.87-.27.21-.07.43-.13.64-.18.31-.09.62-.17.92-.24.25-.07.51-.13.76-.18.25-.06.5-.11.75-.15.25-.06.5-.11.75-.14.25-.05.49-.09.74-.13.34-.06.67-.1 1-.14.24-.04.47-.06.71-.08.29-.04.58-.06.87-.08.13-.02.26-.03.4-.03.39-.03.78-.05 1.17-.06.3-.01.59-.01.88-.01.22 0 .44 0 .66.01 6.16.14 11.83 2.33 16.03 6.07 1.32 1.17 2.5 2.5 3.5 3.97l.63.93 1.57 2.31 1.33-3.69c1.07-2.98 2.68-5.8 4.74-8.38.24-.32.51-.64.79-.96.26-.32.54-.64.83-.95.38-.42.78-.84 1.19-1.25 3.11-3.07 6.91-5.69 11.2-7.69.03-.01.05-.02.08-.04.32-.14.63-.28.95-.42.46-.2.92-.4 1.39-.57.43-.18.86-.34 1.29-.49.51-.19 1.02-.36 1.53-.53.8-.26 1.6-.49 2.42-.71 1.24-.34 2.51-.63 3.81-.89 1.8-.35 3.67-.64 5.63-.86 1.93-.21 3.94-.35 6.07-.45.03.01.06.01.1 0 1.44-.05 2.93-.08 4.47-.08h.74c.3 0 .61 0 .91.01.55.01 1.1.02 1.64.03.81.02 1.61.04 2.41.07h.03c.81.04 1.6.07 2.38.11 1.01.04 2.03.1 3.03.16.49.03.97.06 1.44.09l2.9.17.18.01h.01l-1.1-2.89c-.39-1.01-.79-2.06-1.18-3.15-.13-.36-.27-.73-.4-1.1-.17-.49-.35-.99-.53-1.5-.25-.71-.5-1.42-.74-2.15-.7-2.1-1.4-4.29-2.06-6.57-.21-.72-.41-1.44-.61-2.17-.44-1.62-.85-3.27-1.24-4.96-.1-.41-.19-.83-.28-1.24-.18-.8-.34-1.6-.5-2.41-.09-.45-.18-.89-.26-1.34-.09-.51-.18-1.04-.27-1.56-.09-.49-.17-.98-.24-1.47-.09-.59-.18-1.19-.26-1.78-.05-.4-.1-.79-.15-1.18s-.1-.78-.14-1.17c-.06-.52-.11-1.04-.16-1.56-.03-.28-.05-.55-.07-.83-.03-.32-.06-.64-.08-.95-.04-.56-.08-1.12-.11-1.68-.02-.45-.04-.91-.06-1.37-.01-.16-.01-.33-.02-.5-.02-.81-.04-1.64-.04-2.46 0-3.34.21-6.71.68-10.07.08-.55.16-1.09.26-1.65.09-.55.19-1.1.31-1.65.11-.55.23-1.11.36-1.66.12-.54.26-1.08.4-1.62.01-.04.02-.07.03-.11.14-.54.29-1.07.45-1.61.16-.55.34-1.11.52-1.66.24-.73.49-1.46.77-2.19.13-.38.28-.75.43-1.13.17-.42.34-.85.52-1.27 4.87-11.61 13.67-22.18 26.28-26.65.38-.14.76-.27 1.14-.39.4-.14.81-.26 1.22-.38.41-.11.82-.23 1.24-.33.75-.18 1.5-.35 2.26-.49.57-.11 1.15-.2 1.73-.28.01 0 .03 0 .05-.01 1.71-.22 3.46-.34 5.21-.34 7.48 0 15.13 2.07 22.74 6.14 7.02 3.76 13.95 9.25 20.13 15.94.41.45.82.91 1.23 1.37.18.21.36.41.54.61.19.2.37.4.54.61l2.64 3 .03-5.1v-.16c0-.16 0-.32.01-.48 0-.29.01-.57.03-.85.02-.45.05-.89.09-1.33.11-1.26.3-2.5.55-3.73.05-.24.1-.47.16-.71.05-.25.11-.49.17-.74.11-.44.23-.87.35-1.3.12-.41.24-.81.37-1.21.14-.42.28-.83.43-1.24.16-.44.33-.89.5-1.32.15-.37.31-.74.47-1.1 1.06-2.44 2.35-4.78 3.8-6.97.2-.32.41-.63.63-.94 3.39-4.94 7.54-9.15 11.56-12.29 1.19-.93 2.41-1.81 3.67-2.63.31-.22.63-.43.95-.62.5-.32 1-.62 1.51-.92.44-.26.89-.52 1.34-.77 5.31-2.98 11.05-5.09 16.71-6.13 1.51-.28 3.02-.48 4.52-.6.54-.05 1.08-.09 1.61-.11.67-.03 1.34-.05 2-.05 1.19 0 2.35.05 3.5.15.38.03.76.07 1.14.11.38.05.76.1 1.13.15s.75.12 1.12.18c.37.07.73.14 1.1.21.37.08.73.16 1.09.25s.73.19 1.09.28c.71.21 1.4.42 2.09.66.69.25 1.38.51 2.05.79 1.01.43 1.99.91 2.95 1.43 5.54 3.02 10.26 7.72 13.86 13.57.24.39.47.78.7 1.18.25.43.49.86.72 1.3.16.31.33.62.48.94.18.34.35.7.51 1.05.21.43.41.86.59 1.29 2.44 5.49 3.98 11.66 4.47 18.19.1 1.29.15 2.59.17 3.87.02.91.02 1.81 0 2.71 0 .42-.01.83-.03 1.24-.01.41-.02.83-.05 1.24-.01.41-.03.82-.07 1.24-.03.61-.07 1.21-.13 1.82-.03.47-.07.94-.12 1.4-.22 2.25-.51 4.46-.86 6.65-.26 1.65-.56 3.28-.88 4.89-.15.75-.3 1.49-.46 2.23-.36 1.71-.75 3.39-1.14 5.04-.39 1.61-.79 3.22-1.2 4.82-.06.21-.11.41-.16.61l-.46 1.78-.81 3.18 4.3-2.78c2.94-1.9 6.4-3.06 10.25-3.42l.78-.06c.59-.04 1.18-.06 1.77-.06 5.32 0 10.75 1.59 15.05 4.36.3.2.59.4.87.6.25.17.49.35.73.54.21.15.41.31.61.46.51.41 1.01.83 1.5 1.27.23.21.46.42.68.63s.44.42.66.64c.23.23.46.47.7.71.19.21.39.42.58.64 1.27 1.41 2.46 2.96 3.54 4.63.23.35.46.71.67 1.07.22.35.43.72.63 1.08.22.36.42.72.6 1.09.2.36.39.73.56 1.1.37.72.72 1.46 1.03 2.21.17.36.33.73.46 1.1.16.36.31.73.44 1.1.15.36.28.73.4 1.1.27.71.51 1.43.72 2.16.2.62.39 1.24.55 1.88.16.54.31 1.09.43 1.64.14.53.26 1.06.38 1.6.04.15.07.3.1.45l.11.53.76 3.55 2.4-2.94.24-.3c.02-.03.04-.05.07-.08.27-.34.56-.67.85-.99.02-.02.04-.04.06-.06.28-.31.57-.61.88-.9.1-.11.21-.21.32-.32.31-.29.62-.58.95-.86.01-.01.02-.02.04-.04.37-.32.76-.63 1.15-.93.5-.38 1.01-.75 1.53-1.1.31-.21.63-.41.96-.61.32-.19.65-.38.98-.57.33-.18.67-.36 1-.53 1.7-.86 3.47-1.55 5.29-2.06.42-.11.85-.22 1.27-.32.93-.2 1.87-.37 2.81-.48.12-.01.23-.03.35-.03.93-.11 1.86-.16 2.79-.16.17 0 .35.01.53.01h.03v-148.25zm181.14 38.33c14.97 0 27.15 12.18 27.15 27.16 0 14.97-12.18 27.15-27.15 27.15-14.98 0-27.16-12.18-27.16-27.15 0-14.98 12.18-27.16 27.16-27.16z" fill="#83e1f0"/><path d="m447.48 403.98c0 .06 0 .11-.01.16 0 .08-.01.15-.03.23-.03.18-.08.34-.16.49-.02.05-.05.1-.08.15-.02.06-.06.11-.1.16-.06.08-.12.16-.18.24s-.13.15-.21.21c-.22.22-.48.4-.76.55-.1.06-.19.12-.29.16-.2.1-.4.19-.61.27-.41.16-.83.29-1.24.39-1.72.42-3.46.81-5.21 1.17-1.72.35-3.44.67-5.17.97-1.75.31-3.49.59-5.23.86-1.74.28-3.47.54-5.19.8l-.11.02c-1.13.17-2.26.34-3.4.52-1.1.17-2.21.34-3.31.52-2.82.45-5.64.94-8.45 1.51-.43.09-.86.18-1.29.27-1.6.33-3.2.7-4.79 1.1-.55.14-1.1.28-1.65.43-.55.14-1.1.3-1.65.45-1.45.42-2.88.86-4.3 1.35-2.15.74-4.27 1.56-6.34 2.5-.28.13-.56.26-.84.4-.26.12-.52.25-.77.39-.21.11-.42.23-.62.36-.35.2-.67.42-.99.66-.57.45-1.09.95-1.51 1.54-.11.15-.21.3-.3.46-.09.15-.17.3-.24.46-.06.11-.1.21-.14.32-.02.02-.03.04-.02.06-.55 1.36-.53 2.73-.29 3.9.02.17.06.33.1.49.05.22.11.44.18.64.09.29.19.56.29.8.16.39.32.7.43.91l.19.34.09.18-.06.81-6.12 79.82h-64.77c-.78-3.68-1.4-7.37-1.85-11.02-.18-1.42-.33-2.84-.47-4.27-.04-.46-.08-.92-.12-1.39-.28-3.15-.47-6.32-.64-9.46-.1-1.67-.18-3.33-.26-4.97l-.03-.66v-.04c-.08-1.82-.18-3.67-.28-5.53-.1-1.85-.22-3.71-.35-5.55-.08-1.11-.17-2.23-.28-3.34-.49-5.66-1.18-11.33-1.91-16.93-.29-2.24-.58-4.46-.88-6.66l-.05-.35-.02-.12c-.77-5.76-1.57-11.71-2.2-17.58-.14-1.3-.27-2.6-.39-3.9-.1-.98-.19-1.96-.27-2.95-.16-1.75-.3-3.49-.43-5.23-.1-1.26-.2-2.52-.28-3.77-.09-1.24-.17-2.47-.25-3.71-.17-2.59-.32-5.18-.46-7.78-.16-3.04-.32-6.1-.47-9.18-.11-2.2-.21-4.39-.3-6.59-.19-3.95-.38-7.91-.55-11.86l-.02-.34 2.92 1.34.06.03c.71.33 1.33.56 1.75.7.16.06.3.1.4.13.05.02.09.03.12.04 1.39.42 2.78.82 4.17 1.2.7.2 1.41.39 2.11.57 2.26.6 4.53 1.16 6.82 1.68.69.17 1.38.32 2.07.47.34.08.69.16 1.03.23l1.26.27c1.06.22 2.13.44 3.19.65.72.15 1.45.29 2.17.42.47.1.95.19 1.42.27.91.17 1.82.34 2.74.5l.33.06c.86.15 1.73.3 2.6.44 2.93.5 5.85.96 8.78 1.38 1.15.17 2.31.34 3.47.5.33.05.66.09.99.14 1.98.27 3.96.54 5.93.79 1.16.15 2.31.3 3.46.44 1.15.15 2.3.29 3.45.43 2.3.29 4.59.56 6.87.84l.26.03c21.39 2.6 43.51 5.28 64.38 11.76.6.19 1.21.38 1.83.59.55.18 1.12.38 1.68.58.23.08.46.16.68.25.77.29 1.54.6 2.3.94.61.27 1.21.56 1.8.87 1.12.6 2.2 1.26 3.21 2.03.21.15.41.31.6.47.18.14.36.29.54.45.21.18.41.37.61.56.12.11.24.23.36.36.12.12.23.25.35.37.1.11.19.22.29.33v.01c.09.11.17.21.25.32.07.1.14.2.2.3.12.19.21.36.27.53.04.09.07.17.09.26.02.05.03.1.04.15.04.16.06.32.06.48z" fill="#e59a55"/><path d="m428.602 368.335c-4.68 0-11.155-1.241-17.321-3.32-1.39-.471-2.871-1.134-3.334-2.489-.558-1.593.581-3.478 3.048-5.03 5.011-3.162 9.808-4.767 14.254-4.767.564 0 1.141.029 1.762.089 3.565.34 9.872 3.754 11.276 7.771.68 1.917.162 3.735-1.543 5.394-1.613 1.562-4.351 2.352-8.142 2.352z" fill="#ffd2bb"/><path d="m387.804 270.23c-45.855-4.505-92.263-9.354-137.935-14.413l.049-3.98c19.407-1.668 43.93-5.006 69.892-8.54 31.062-4.23 63.182-8.604 90.913-10.782l2.215-.174-.059 2.221c-.06 2.246-.317 4.847-1.779 7.112-1.998 3.099-5.576 4.494-9.036 5.842-2.691 1.046-5.452 2.119-7.582 3.973-3.828 3.339-5.383 9.051-4.497 16.516l.294 2.469z" fill="#f9d889"/><path d="m159.96 301.377c-4.546-.526-8.749-.958-12.842-1.317l-2.082.162-.106-2.152-.01-.63c-.087-3.694-.318-6.231-2.639-7.641-.771-.471-1.62-.699-2.598-.699-1.587 0-3.31.584-4.977 1.149-1.913.649-3.48 1.143-4.914 1.143-1.052 0-1.981-.275-2.764-.819-1.379-.958-2.026-2.686-2.326-3.967-.402-1.707-.529-3.497-.663-5.394-.286-4-.578-8.074-3.678-10.337-1.301-.952-2.854-1.414-4.749-1.414-2.324 0-4.914.71-6.91 1.329l-12.069 3.75c-.858.271-1.706.517-2.55.517-.406 0-.784-.06-1.123-.179-1.021-.375-2.312-1.461-2.832-4.567-.78-4.594-.36-9.486.01-13.801l.15-1.75c.4-5.041.623-10.228.663-15.405l.018-2.248 2.23.279c98.075 12.25 197.556 23.337 295.677 32.954l1.421.139.33 1.39c.033.137.059.271.085.407l.14.645c.597 2.644 1.2 5.32.338 7.804-1.35 3.899-5.838 6.169-12.979 6.562-5.224.29-11.136.618-14.088 4.864-1.2 1.722-1.635 3.813-1.903 5.63l-.311 2.107-2.084-.442c-29.638-6.298-60.916-9.491-92.965-9.491-35.095 0-70.782 3.816-106.068 11.342-.034.011-.463.121-.463.121z" fill="#e59a55"/><path d="m313.846 351.8c-.027-.215-.042-.424-.052-.581l-1.901-30.438 2.98 1.268c6.501 2.765 13.311 4.898 19.896 6.961 11.216 3.513 22.815 7.146 32.688 13.79 1.065.707 2.749 2.099 2.52 3.698-.147 1.293-1.413 2.12-3.771 2.461-6.866.956-14.031 1.227-20.96 1.489-9.671.363-19.67.739-28.933 3.042l-2.185.544z" fill="#e59a55"/><path d="m361.98 299.47-.08.89-.12 1.29c-.12 1.32-.27 3.07-.34 4.81l-.01.19-.07 1.64h-.02l-1.8.09c-1.99.1-3.98.22-5.97.36-.11.01-.21.02-.32.02-.89.07-1.77.13-2.66.21-.75.05-1.5.12-2.24.19-.34.02-.67.05-1 .09-1.74.15-3.46.33-5.19.52-.24.02-.48.05-.72.08-1.3.14-2.6.3-3.89.47-.9.11-1.8.22-2.69.35-.58.07-1.15.15-1.72.24-.58.07-1.16.16-1.73.25-.56.08-1.12.16-1.67.25-.97.14-1.94.3-2.9.46-.67.1-1.33.22-1.99.33-.02 0-.04 0-.05.01-1.13.19-2.26.39-3.39.6-1.13.2-2.26.42-3.39.64-.01 0-.02 0-.04.01-1.93.37-3.86.77-5.78 1.19h-.01c-.21.05-.42.1-.63.16-.21.05-.41.12-.61.19s-.39.15-.57.24c-.07.03-.14.06-.2.1h-.01c-.02 0-.03.01-.05.03-.02 0-.04.01-.05.03-.07.03-.14.07-.21.12-.01 0-.03.01-.04.02-.07.04-.14.08-.2.13-.1.06-.2.14-.29.22s-.18.16-.26.26c-.06.07-.13.15-.18.23-.22.32-.35.68-.36 1.1-.01.35-.03 1.4 1.99 2.57.13.07.26.15.4.22l.61.31.51.26.07.04-.12 1.34 1.8 28.87c.01.12.01.23.02.34 0 .08.01.16.02.24 0 .05.01.09.02.13.01.13.03.26.05.38 0 .04.01.08.02.12l.32 1.7v.03l-1.68.54c-2.18.69-4.22 1.47-6.14 2.35-.41.19-.82.38-1.22.58-1.48.73-2.89 1.52-4.25 2.38-1.43.91-2.82 1.98-3.3 3.55-.12.38-.17.77-.17 1.15 0 .13.01.26.02.39.01.06.02.11.03.17v.01c.02.13.04.26.08.38.04.16.09.32.15.48s.14.31.22.47c.06.12.13.23.21.35.22.34.5.69.83 1.02l.17.17.36.38.02.42.02.34c.17 3.95.36 7.91.55 11.86.1 2.2.2 4.4.31 6.59.15 3.07.3 6.13.46 9.18.14 2.6.29 5.19.46 7.78.08 1.24.16 2.48.25 3.71.08 1.26.17 2.51.28 3.77.13 1.74.27 3.48.43 5.23.08.98.17 1.97.27 2.95.12 1.3.25 2.6.39 3.9.63 5.87 1.43 11.82 2.2 17.58l.02.12.08.69c.28 2.09.57 4.2.85 6.32.73 5.6 1.42 11.27 1.91 16.93.1 1.11.19 2.23.27 3.34.14 1.84.26 3.7.36 5.55.1 1.86.2 3.71.28 5.53v.04l.04.62c.08 1.66.16 3.33.25 5.01.17 3.14.36 6.31.64 9.46.04.46.08.93.12 1.39.14 1.43.29 2.85.47 4.27.45 3.65 1.07 7.34 1.85 11.02h-54.53c1.36-8.07 2.76-16.17 4.19-24.29.08-.45.16-.89.24-1.34.83-4.73 1.68-9.46 2.54-14.2 1.66-9.16 3.36-18.34 5.09-27.49.55-2.92 1.1-5.83 1.67-8.74.46-2.43.93-4.86 1.39-7.29 1.74-8.97 3.51-17.91 5.31-26.82l.66-3.26.02-.09.54-.24h.01c.02-.01.03-.01.05-.02.12-.05.24-.1.36-.16.26-.11.5-.22.73-.34.04-.01.08-.03.12-.06.19-.09.38-.19.55-.29.09-.04.17-.09.25-.15.15-.08.28-.17.42-.26.03-.02.06-.04.09-.06.18-.13.35-.26.51-.39s.31-.26.45-.4l.07-.07c.11-.11.22-.23.31-.35.05-.05.09-.09.12-.14.01-.01.01-.01.02-.02.09-.12.18-.25.27-.37.01-.02.02-.04.03-.06.01-.01.01-.02.02-.03.1-.15.18-.31.26-.47.06-.13.12-.26.17-.39.03-.08.06-.16.09-.24.04-.12.07-.23.09-.34.03-.1.06-.21.07-.32.03-.12.05-.24.06-.35.07-.6.03-1.19-.11-1.76-.04-.16-.08-.32-.13-.48-.01-.04-.02-.08-.04-.12-.07-.2-.15-.4-.24-.6-.07-.16-.15-.32-.23-.48-.08-.14-.15-.27-.23-.39-.12-.21-.25-.41-.4-.61-.06-.1-.13-.2-.22-.3-.08-.1-.16-.19-.23-.29-1-1.26-2.36-2.41-3.87-3.37-.19-.13-.38-.24-.56-.36-.18-.1-.36-.21-.54-.31-.52-.29-1.04-.57-1.57-.84-.23-.13-.46-.25-.7-.36-.04-.03-.09-.05-.13-.07-1.04-.53-2.09-1.03-3.15-1.5-.01-.01-.03-.02-.04-.02-.58-.25-1.15-.5-1.73-.75-.05-.02-.09-.04-.13-.05-.63-.26-1.26-.52-1.89-.76-1.24-.49-2.49-.95-3.76-1.37-1.25-.43-2.5-.82-3.72-1.2-1.18-.35-2.37-.69-3.56-1.01s-2.39-.63-3.59-.92c-.56-.14-1.13-.27-1.69-.4-1.12-.26-2.2-.5-3.24-.72l-.13-.03c-.28-.06-.57-.13-.86-.19l-.86-.18v-.01l.68-4.33 4.94-31.62-.58-1.59.27-.15 1.21-.67c.02-.02.04-.03.06-.04.03-.01.05-.03.08-.04.17-.1.34-.2.5-.31l.18-.12c.07-.04.13-.09.19-.14.1-.06.21-.14.3-.22.15-.11.29-.22.42-.34.16-.14.3-.28.44-.43.01-.01.02-.02.02-.03.11-.1.2-.21.28-.32.07-.07.13-.15.18-.23.09-.12.17-.24.25-.37.07-.11.13-.21.18-.32.05-.08.09-.17.13-.26v-.01c.06-.13.12-.26.17-.4v-.01c.1-.28.16-.56.21-.84.02-.13.04-.27.05-.41.18-2.22-1.08-4.45-2.48-5.94-.2-.21-.41-.42-.62-.62-.22-.2-.43-.39-.66-.58-.44-.37-.91-.72-1.39-1.05-.21-.14-.43-.28-.65-.42-.28-.17-.56-.33-.85-.49-.37-.2-.76-.4-1.15-.58-.05-.03-.11-.06-.17-.09-2.24-1.05-4.72-1.83-7.25-2.57-1.42-.42-2.84-.83-4.27-1.23-2.85-.81-5.71-1.59-8.58-2.34-1.24-.33-2.47-.65-3.71-.96-.35-.09-.7-.18-1.06-.27-1.29-.33-2.58-.65-3.87-.96-1.42-.35-2.84-.69-4.25-1.02-.04-.02-.08-.03-.13-.03-1.44-.34-2.88-.67-4.32-.99-1.45-.33-2.9-.65-4.36-.96-2.74-.6-5.49-1.17-8.25-1.71-.41-.08-.83-.17-1.25-.24-.98-.19-1.96-.38-2.94-.57-.45-.09-.9-.17-1.35-.25-1.19-.22-2.38-.44-3.58-.65-.13-.03-.27-.05-.4-.07-1.05-.19-2.11-.38-3.16-.55-1.25-.22-2.5-.43-3.75-.63-.02 0-.05-.01-.09-.02-.21-.03-.42-.07-.64-.1-.02 0-.05-.01-.07-.01-1.05-.17-2.09-.33-3.15-.49-.37-.06-.75-.12-1.13-.18-.05-.01-.1-.01-.15-.02-.68-.11-1.35-.21-2.03-.3-.68-.1-1.36-.2-2.04-.3-.39-.06-.78-.12-1.17-.17l-.09-3.94c1.73-.33 3.46-.65 5.19-.96.27-.05.54-.1.8-.14 1.52-.28 3.03-.54 4.54-.79.83-.15 1.66-.28 2.49-.42 1.59-.26 3.18-.51 4.77-.76 1.89-.29 3.79-.58 5.68-.84.12-.02.25-.04.37-.06 1.94-.28 3.88-.54 5.82-.79 1.96-.26 3.93-.51 5.89-.74 2.06-.25 4.12-.48 6.18-.7 1.91-.2 3.83-.4 5.74-.58 1.98-.19 3.95-.37 5.93-.53 1.58-.14 3.16-.26 4.74-.38.06 0 .13-.01.19-.01.73-.06 1.47-.11 2.2-.16 1.35-.1 2.71-.19 4.06-.27.56-.03 1.11-.07 1.66-.09 1.07-.07 2.13-.13 3.2-.18 1.55-.08 3.09-.15 4.63-.21.4-.03.8-.04 1.2-.05.98-.04 1.95-.08 2.92-.11 1.1-.05 2.2-.08 3.3-.1 1.1-.03 2.2-.06 3.3-.08 2.44-.06 4.88-.09 7.31-.09.87-.02 1.75-.02 2.62-.02 10 0 19.93.31 29.75.94 7.87.49 15.68 1.18 23.41 2.08 3.87.44 7.71.94 11.53 1.49 5.73.81 11.41 1.73 17.04 2.77 3.81.69 7.59 1.44 11.35 2.24z" fill="#c67234"/><path d="m284.46 391.2c-.04-.16-.08-.32-.13-.48-.01-.04-.02-.08-.04-.12-.07-.2-.15-.4-.24-.6-.07-.16-.15-.32-.23-.48-.08-.14-.15-.27-.23-.39-.13-.21-.26-.41-.4-.61-.07-.1-.15-.2-.22-.3-.08-.1-.16-.19-.23-.29-.69-.84-1.51-1.61-2.35-2.28-.51-.4-1.02-.77-1.52-1.09-.19-.13-.38-.24-.56-.36-.18-.1-.36-.21-.54-.31-.52-.29-1.04-.57-1.57-.84-.24-.13-.47-.25-.7-.36-.04-.03-.09-.05-.13-.07-1.04-.53-2.09-1.03-3.15-1.5-.01-.01-.03-.02-.04-.02-.58-.25-1.15-.5-1.73-.75-.05-.02-.09-.04-.13-.05-.63-.26-1.26-.52-1.89-.76-1.24-.49-2.49-.95-3.76-1.37-1.25-.43-2.5-.82-3.72-1.2-1.18-.35-2.37-.69-3.56-1.01s-2.39-.63-3.59-.92c-.56-.14-1.13-.27-1.69-.4-1.12-.26-2.2-.5-3.24-.72l-.13-.03c-.28-.06-.57-.13-.86-.19-.28-.06-.57-.13-.86-.19l-2.04-.41c-.25-.05-.49-.1-.74-.15-2.68-.54-5.37-1.04-8.04-1.54-3.42-.63-6.86-1.28-10.3-1.99-1.73-.35-3.46-.72-5.18-1.12-.86-.19-1.71-.39-2.56-.61-.8-.19-1.59-.39-2.38-.61-.49-.12-.97-.25-1.45-.38-.85-.23-1.7-.47-2.54-.72-.56-.17-1.13-.34-1.69-.52-.68-.22-1.37-.44-2.05-.67-.42-.14-.84-.28-1.26-.43-1.65-.58-3.29-1.2-4.9-1.88-.8-.34-1.6-.69-2.39-1.05-.01 0-.01 0-.01 0-.6-.28-1.19-.56-1.78-.85s-1.18-.58-1.76-.89c-.21-.11-.43-.23-.65-.36-.16-.09-.32-.18-.47-.28-.12-.07-.24-.15-.36-.23-.31-.2-.61-.42-.89-.68-.11-.08-.21-.17-.31-.27-.12-.12-.24-.24-.35-.36-.07-.08-.14-.17-.21-.26-.03-.04-.06-.07-.09-.11-.15-.2-.27-.41-.36-.61-.05-.09-.09-.18-.12-.28-.03-.06-.05-.13-.07-.19-.03-.07-.05-.15-.07-.23-.04-.12-.06-.24-.08-.37-.04-.29-.05-.59-.01-.87.01-.08.02-.16.04-.24.01-.06.02-.11.03-.16 0-.03.01-.06.02-.09.02-.09.04-.17.08-.26.01-.05.02-.1.05-.14.06-.16.13-.31.21-.46.01-.05.04-.1.07-.14.03-.07.08-.14.13-.21.01-.03.03-.06.06-.09.05-.07.1-.14.15-.21.63-.83 1.51-1.51 2.36-2.03.14-.1.28-.18.42-.25s.27-.15.41-.22c.04-.03.07-.05.11-.06.12-.06.23-.12.35-.17.09-.05.18-.09.28-.13.11-.05.22-.1.32-.14.56-.24 1.11-.47 1.67-.69 1.13-.45 2.26-.86 3.41-1.24.57-.19 1.14-.38 1.72-.56 2.32-.72 4.66-1.34 7.02-1.88.33-.08.67-.15 1-.22.87-.19 1.74-.38 2.61-.56 1.19-.25 2.38-.47 3.57-.69.89-.17 1.78-.33 2.66-.48.89-.16 1.78-.31 2.66-.46.59-.11 1.17-.21 1.76-.31.54-.09 1.08-.18 1.62-.27 1.35-.23 2.7-.46 4.05-.71 1.13-.2 2.25-.41 3.37-.63s2.25-.45 3.38-.69c1.04-.22 2.07-.46 3.1-.71 1.04-.26 2.07-.53 3.09-.81.92-.25 1.84-.52 2.75-.82.51-.15 1.01-.31 1.51-.48h.01c.39-.14.78-.28 1.18-.41.21-.07.43-.14.64-.22l1.41-.52c.77-.29 1.59-.65 2.35-1.08.02-.02.04-.03.06-.04.03-.01.05-.03.08-.04.17-.1.34-.2.5-.31.06-.04.12-.08.18-.12.07-.04.13-.09.19-.14.1-.06.21-.14.3-.22.15-.11.29-.22.42-.34.16-.14.3-.28.44-.43.01-.01.02-.02.02-.03.11-.1.2-.21.28-.32.07-.08.13-.15.18-.23.09-.12.17-.24.25-.37.07-.11.13-.21.18-.32.05-.09.09-.17.13-.26v-.01c.06-.13.12-.26.17-.4v-.01c.1-.28.16-.56.21-.84.02-.13.04-.27.05-.41.18-2.22-1.08-4.45-2.48-5.94-.2-.21-.41-.42-.62-.62-.22-.2-.43-.39-.66-.58-.44-.37-.91-.72-1.39-1.05-.21-.14-.43-.28-.65-.42-.28-.17-.56-.33-.85-.49-.37-.2-.76-.39-1.15-.58-.05-.03-.11-.06-.17-.09-2.24-1.05-4.72-1.83-7.25-2.57-1.42-.42-2.84-.83-4.27-1.23-2.85-.81-5.71-1.59-8.58-2.34-1.24-.33-2.47-.65-3.71-.96-.35-.09-.7-.18-1.06-.27-1.29-.33-2.58-.65-3.87-.96-1.42-.35-2.84-.69-4.25-1.02-.04-.02-.08-.03-.13-.03-1.44-.34-2.88-.67-4.32-.99-1.45-.33-2.9-.65-4.36-.96-2.74-.6-5.49-1.17-8.25-1.71-.41-.08-.83-.17-1.25-.24-.98-.19-1.96-.38-2.94-.57-.45-.09-.9-.17-1.35-.25-1.19-.22-2.38-.44-3.58-.65-.13-.03-.27-.05-.4-.07-1.05-.19-2.11-.38-3.16-.55-1.25-.22-2.5-.43-3.75-.63-.02 0-.05-.01-.09-.02-.21-.03-.42-.07-.64-.1-.02 0-.05-.01-.07-.01-1.05-.17-2.09-.33-3.15-.49-.37-.06-.75-.12-1.13-.18-.05-.01-.1-.01-.15-.02-.68-.1-1.35-.2-2.03-.3s-1.36-.2-2.04-.3l-2.64-.36-1.97-.27c-.13-.02-.25-.03-.38-.05l-1.61-.22v.01l-.26 1.98-.42 3.15-.24 1.84 2.05.21.43.05c.43.07.82.16 1.19.3.02.01.03.01.05.02.14.04.28.1.41.16.33.14.63.31.91.51.14.1.28.21.41.32.13.12.26.24.38.36.12.13.23.26.34.39.21.28.41.57.59.88.09.15.17.31.25.47.07.12.13.24.18.37.08.17.15.34.21.52.02.04.04.08.05.12.1.28.2.56.29.85s.17.58.25.88c.08.29.15.59.22.89.25 1.06.48 2.12.71 3.18.27 1.33.53 2.66.76 3.99.11.67.22 1.34.33 2 .1.67.2 1.34.29 2.01.07.54.14 1.07.21 1.61.09.71.17 1.43.25 2.14.08.72.15 1.43.21 2.15.06.74.12 1.47.17 2.21.07.99.12 1.97.17 2.96.03.87.06 1.73.08 2.59s.03 1.73.03 2.59c0 4.02-.2 8.04-.61 12.06-.06.51-.12 1.04-.2 1.55-.04.26-.08.52-.15.77-.04.2-.08.4-.15.59-.06.25-.14.5-.24.74-.04.1-.08.2-.12.3s-.09.2-.14.3c-.1.21-.21.4-.33.59-.18.28-.39.55-.64.8-1.8 1.84-4.86 1.87-6.89 1.89-6.58.03-13.16.05-19.74.05-1.87 0-3.76 0-5.66-.01-1.9 0-3.82 0-5.74-.01-.96 0-1.92-.01-2.88-.01-.98 0-1.97 0-2.96-.01-2.94 0-5.89-.02-8.84-.04-2.96-.02-5.94-.04-8.94-.06-.71.01-1.42 0-2.13-.01l-1.88-.02c-2.39-.02-4.76-.04-7.11-.07-.25 0-.5 0-.76-.01-2.09-.01-4.15-.04-6.2-.06-2.31-.03-4.59-.06-6.85-.09s-4.5-.06-6.72-.09c-2.21-.03-4.42-.07-6.62-.11-.64-.01-1.28-.02-1.92-.03-5.81-.1-11.63-.21-17.44-.33l-2.12-.05c-5.02-.11-10.04-.23-15.05-.36-.19 0-.39-.01-.59-.01-2.3-.06-4.61-.12-6.92-.19-6.78-.18-13.54-.38-20.29-.6-2.52-.08-5.05-.17-7.58-.25-.95-.02-1.9-.06-2.84-.09h-.08v39.55c.05-.06.11-.11.16-.17.27-.28.53-.56.8-.84.08-.08.15-.16.23-.24.07-.09.15-.17.25-.26.33-.34.67-.69 1.02-1.04.35-.37.71-.73 1.08-1.07.37-.36.75-.73 1.14-1.09.52-.49 1.06-.98 1.61-1.44.28-.25.57-.49.86-.73.78-.66 1.6-1.29 2.44-1.89.15-.11.29-.21.44-.31.03-.04.07-.06.11-.08.07-.07.17-.13.25-.17.01-.02.02-.03.03-.02.06-.05.11-.09.17-.12.01-.01.01-.01.02 0 2.82-1.89 5.94-3.45 9.31-4.23.32-.07.64-.14.97-.2 1.16-.21 2.34-.32 3.55-.32.26 0 .52.01.78.02.17 0 .34.01.51.03.11 0 .21.01.31.02.26.02.52.05.77.08.32.04.65.09.98.14.44.07.88.16 1.31.27.34.08.67.17 1 .27.24.07.48.14.72.22 0 0 .01 0 .02.01.19.06.39.12.58.2.16.05.32.11.48.18.27.1.54.21.82.33s.55.24.82.37c.28.12.56.26.83.4.11.06.23.12.34.18.24.12.48.25.72.39.37.21.73.43 1.1.66.78.49 1.56 1.02 2.34 1.6.09.06.18.13.27.2.33.26.66.52.99.79.8.66 1.6 1.36 2.4 2.11.39.37.79.76 1.19 1.16.22.22.44.45.67.68.9.93 1.78 1.92 2.66 2.97.33.39.66.79.99 1.2s.66.83.99 1.26c.08.1.16.2.23.3.4.51.79 1.03 1.17 1.56.29.39.57.77.85 1.17.87 1.19 1.7 2.4 2.51 3.63.18.27.35.54.53.81.03.02.04.04.05.07.36.55.72 1.1 1.06 1.65.65 1.03 1.28 2.06 1.89 3.11.43.72.84 1.44 1.25 2.18.43.76.85 1.52 1.26 2.3.5.93.98 1.87 1.45 2.81 1.38 2.76 2.64 5.96 1.49 8.76-.14.33-.3.65-.5.95-.02.04-.05.08-.08.12-.03.06-.07.11-.12.17-.06.09-.13.18-.2.27-.09.11-.19.22-.3.33-.09.1-.18.19-.27.27-.18.17-.36.33-.56.47-.08.07-.18.14-.27.2-.09.07-.18.13-.28.18-.14.1-.29.18-.44.26-.15.09-.3.17-.46.25-.13.06-.27.12-.41.18-.02.01-.03.02-.05.02-.13.06-.27.12-.42.17-.2.08-.4.15-.61.22s-.43.14-.65.2c-.22.07-.45.13-.69.18-.24.06-.48.11-.73.16-.17.03-.34.06-.51.09-.23.04-.46.08-.7.11-.59.08-1.2.14-1.85.19-.36.03-.72.05-1.08.07-.29.02-.57.04-.86.05-.26.01-.53.03-.8.04-.52.03-1.06.05-1.6.06-.23.01-.45.02-.68.02-.31.01-.63.02-.96.02-1.15.03-2.36.04-3.65.04-2.76 0-5.48-.05-8.1-.1l-34.94-.65v76.98h146.19c-.51-.56-1.1-1.09-1.76-1.59-2.89-2.19-6.72-3.46-9.84-4.17-.21-.04-.41-.09-.61-.13-.21-.05-.42-.09-.63-.13-.24-.06-.49-.1-.74-.14-.22-.04-.44-.08-.67-.11-.2-.04-.41-.07-.62-.1-5.88-.86-11.92-1.43-17.76-1.98l-.1-.01c-1.42-.13-2.84-.27-4.28-.41-1.42-.14-2.85-.29-4.28-.44-.01 0-.01 0-.01 0-1.43-.15-2.87-.32-4.3-.49h-.01c-.91-.11-1.81-.23-2.72-.35-1-.13-2-.28-3-.43-.48-.08-.96-.15-1.44-.23-.48-.07-.96-.15-1.44-.24-.45-.07-.9-.15-1.34-.24-.18-.03-.37-.06-.55-.1-.5-.09-1.01-.19-1.51-.29-.69-.13-1.37-.27-2.05-.43-.45-.09-.9-.2-1.35-.3-.68-.15-1.34-.31-2.01-.48-.8-.2-1.6-.41-2.39-.64-.5-.14-1-.28-1.5-.43-.06-.02-.13-.04-.21-.06-.71-.22-1.48-.48-2.23-.81-.08-.04-.17-.08-.26-.12-.18-.08-.35-.16-.52-.25-.13-.06-.26-.13-.39-.21-.32-.17-.62-.36-.91-.58-.09-.07-.18-.13-.26-.19-.25-.19-.49-.39-.71-.63-.11-.11-.22-.22-.32-.34-.25-.28-.46-.59-.63-.93-.05-.1-.1-.19-.14-.29-.06-.12-.11-.24-.15-.37-.03-.06-.05-.12-.06-.19-.03-.05-.05-.12-.05-.17-.01-.01-.01-.01 0-.02-.02-.06-.04-.13-.05-.19-.11-.52-.13-1.03-.07-1.52.02-.18.05-.35.09-.53.02-.11.05-.23.09-.34.02-.11.06-.21.1-.32.03-.1.07-.19.11-.29.01-.02.02-.04.03-.06.07-.17.15-.33.23-.49.13-.24.27-.48.44-.72.06-.1.13-.2.21-.3.71-.97 1.7-1.95 2.97-2.9.22-.17.44-.33.67-.49.9-.62 1.81-1.22 2.73-1.79.3-.19.62-.38.92-.56 1.4-.85 2.83-1.64 4.28-2.37.36-.18.73-.37 1.09-.54.37-.18.74-.36 1.1-.53.37-.18.74-.35 1.11-.51s.73-.32 1.1-.48c.3-.14.6-.26.9-.38.53-.23 1.06-.44 1.59-.65.58-.23 1.15-.45 1.73-.66.49-.19.99-.36 1.48-.53.38-.13.77-.26 1.15-.39s.77-.26 1.16-.38c.39-.13.77-.25 1.16-.36.7-.22 1.41-.43 2.12-.63.95-.27 1.91-.53 2.88-.77.68-.17 1.36-.34 2.04-.5.75-.18 1.5-.35 2.26-.51.04-.01.08-.02.11-.02.78-.17 1.56-.33 2.34-.48.16-.03.33-.07.5-.1.64-.12 1.27-.24 1.91-.35.79-.14 1.58-.27 2.37-.4.91-.14 1.81-.28 2.71-.41s1.8-.25 2.69-.37c1.2-.16 2.39-.3 3.57-.43 1.19-.13 2.37-.25 3.54-.36 1.17-.12 2.33-.22 3.49-.32.58-.06 1.15-.11 1.72-.15.63-.05 1.27-.1 1.92-.14h.06c.64-.06 1.3-.1 1.98-.15l3-.21c.5-.04 1.01-.08 1.54-.11.21-.01.41-.03.61-.04l1.54-.11c1.67-.11 3.34-.22 5.02-.34.78-.05 1.57-.11 2.35-.17.78-.05 1.57-.11 2.35-.18.12 0 .23-.01.34-.02 1.28-.1 2.55-.2 3.83-.32.33-.02.67-.06 1-.09 1.65-.15 3.3-.31 4.94-.5.5-.05 1-.11 1.49-.17.5-.05.99-.11 1.48-.18.85-.1 1.7-.21 2.55-.33.46-.06.92-.13 1.38-.2.25-.03.49-.07.74-.11.3-.04.61-.09.91-.14.67-.11 1.32-.22 1.99-.33 1.78-.3 3.56-.64 5.34-1.02.7-.15 1.4-.31 2.1-.47.76-.18 1.52-.36 2.28-.55.76-.2 1.52-.4 2.27-.61.7-.19 1.39-.39 2.07-.6.49-.14.98-.29 1.46-.44.47-.15.95-.3 1.42-.46.22-.07.44-.15.65-.23.25-.09.49-.18.72-.27l.48-.19c.83-.35 1.57-.71 2.23-1.08 1.3-.73 2.28-1.5 3-2.27.15-.18.3-.35.44-.52s.27-.34.39-.52.24-.36.34-.55c.05-.09.09-.17.13-.26.07-.14.14-.28.19-.42.04-.09.07-.18.1-.27.18-.48.29-.98.33-1.49.01-.18.02-.35.02-.52 0-.21-.01-.42-.04-.63-.04-.46-.14-.89-.29-1.31-.07-.21-.15-.41-.25-.62 0 0 0-.01-.01-.02-.09-.21-.2-.42-.32-.62-.01-.02-.02-.03-.02-.04-.24-.42-.52-.81-.84-1.18-.17-.2-.35-.39-.54-.58-.15-.17-.32-.32-.49-.48-.08-.08-.17-.15-.26-.23 0 0 0-.01-.01-.01-.16-.14-.32-.28-.5-.41-.23-.18-.47-.36-.73-.54-.18-.13-.37-.26-.57-.37-.24-.16-.48-.31-.73-.45-.16-.1-.33-.19-.5-.28-.43-.23-.89-.46-1.36-.67-.22-.11-.45-.21-.69-.31-.23-.1-.47-.2-.72-.3-.47-.19-.95-.37-1.43-.55-.25-.1-.5-.19-.76-.28-.41-.15-.82-.3-1.23-.44-.54-.19-1.08-.38-1.63-.55-.41-.14-.82-.27-1.23-.4-.46-.15-.92-.29-1.38-.42-1.13-.34-2.27-.66-3.41-.96-.64-.17-1.28-.33-1.92-.49-1.27-.31-2.56-.6-3.85-.87-.65-.14-1.29-.27-1.94-.4-1.29-.25-2.59-.49-3.9-.71-.65-.11-1.3-.22-1.96-.32-.45-.08-.91-.15-1.37-.21-.46-.07-.92-.13-1.38-.2-1.46-.22-2.93-.41-4.41-.59-.48-.07-.96-.13-1.45-.18-1.22-.14-2.44-.28-3.67-.41-1.22-.13-2.44-.26-3.66-.38-.81-.09-1.62-.17-2.43-.24-1.62-.16-3.24-.31-4.85-.46-1.88-.18-3.76-.35-5.65-.54-1.9-.18-3.81-.37-5.72-.58-.64-.07-1.28-.14-1.93-.22-1.26-.14-2.53-.29-3.8-.46-.97-.12-1.94-.25-2.92-.39-.47-.06-.93-.13-1.4-.2-1.21-.18-2.42-.37-3.63-.57-.57-.1-1.14-.2-1.71-.3-.65-.12-1.3-.24-1.95-.36-.73-.15-1.45-.29-2.18-.44-.49-.1-.97-.21-1.46-.32-.97-.2-1.93-.43-2.89-.67s-1.92-.48-2.87-.75c-.95-.26-1.9-.54-2.85-.83-.94-.28-1.89-.59-2.82-.91l-.01-.01c-.93-.31-1.86-.65-2.79-.99l-.01-.01c-.58-.22-1.16-.49-1.72-.8-.55-.31-1.07-.67-1.52-1.06-.11-.1-.22-.21-.32-.31-.18-.18-.34-.36-.48-.55-.18-.22-.32-.45-.42-.69-.04-.07-.07-.15-.09-.22-.04-.08-.07-.16-.09-.24-.04-.12-.06-.25-.08-.37-.03-.16-.04-.31-.03-.47 0-.12.01-.25.04-.37.02-.14.06-.28.1-.42v-.01c.05-.15.11-.3.19-.44.07-.12.13-.24.21-.34.03-.04.06-.09.1-.13.08-.1.16-.21.26-.3.08-.09.18-.19.27-.27.13-.11.26-.22.4-.32.13-.1.28-.2.42-.29.29-.19.58-.36.87-.52.43-.24.87-.47 1.31-.7h.01c.3-.16.61-.31.91-.46.04-.03.09-.05.13-.06.28-.15.56-.29.84-.41.06-.03.11-.06.17-.08.21-.1.41-.2.62-.29.35-.16.69-.32 1.03-.46.22-.1.43-.19.65-.28.63-.28 1.26-.54 1.89-.78.57-.22 1.13-.44 1.7-.64.5-.19.99-.36 1.47-.52.34-.12.67-.23 1-.34 1.06-.36 2.12-.68 3.16-.98.62-.18 1.24-.36 1.86-.52 4.31-1.17 8.45-1.99 12.13-2.64 23.59-4.17 47.99-4.52 70.96-4.52 2.73 0 5.44 0 8.15.01 2.52 0 7.59.01 7.6.01 6.76 0 14.04-.02 21.54-.19 1.5-.03 3.01-.07 4.53-.11.76-.03 1.52-.05 2.28-.08.76-.02 1.52-.05 2.28-.08 1.53-.06 3.06-.13 4.6-.2 4.09-.21 8.2-.47 12.27-.81.33-.03.67-.06 1.01-.08.08 0 .15-.01.22-.02.83-.08 1.67-.15 2.52-.24.5-.05 1.01-.1 1.52-.16.92-.1 1.85-.22 2.79-.35.47-.06.94-.13 1.42-.21.48-.07.95-.15 1.43-.24.92-.16 1.83-.34 2.75-.54.38-.08.76-.17 1.14-.26.43-.1.87-.21 1.3-.32.58-.15 1.15-.31 1.73-.48l.95-.28c.74-.23 1.47-.48 2.19-.75.2-.07.4-.16.61-.24h.01c.02-.01.03-.01.05-.02.12-.05.24-.1.36-.16.26-.11.5-.22.73-.34.04-.01.08-.03.12-.06.19-.09.38-.19.55-.29.09-.04.17-.09.25-.15.15-.08.28-.17.42-.26.03-.02.06-.04.09-.06.18-.13.35-.26.51-.39s.31-.26.45-.4l.07-.07c.11-.11.22-.23.31-.35.04-.04.09-.1.12-.14.01-.01.01-.01.02-.02.09-.12.18-.25.27-.37.01-.02.02-.04.03-.06.01-.01.01-.02.02-.03.1-.15.18-.31.26-.47.06-.13.12-.26.17-.39l.09-.24c.04-.12.07-.23.09-.34.03-.11.05-.21.07-.32.03-.12.05-.24.06-.35.07-.6.03-1.19-.11-1.76zm-218.97 77.2c-.02.17-.04.34-.07.5-.01.06-.02.11-.03.17-.04.17-.08.34-.13.49-.06.18-.12.36-.2.53-.1.22-.22.42-.35.61-.06.1-.13.2-.21.29-.02.05-.06.09-.1.13-.04.05-.08.09-.11.13-.07.09-.15.17-.23.25-.1.11-.2.2-.31.29-.19.16-.38.31-.58.46-.2.14-.41.27-.63.4-.11.07-.22.13-.33.18-.11.06-.21.11-.32.17-.01.01-.01.01-.02.01-.22.11-.44.2-.65.29-.13.06-.27.11-.41.16-.18.07-.35.13-.52.19s-.34.12-.5.17c-.55.18-1.1.34-1.66.5-.49.13-.98.26-1.48.37-1.01.23-2.04.43-3.09.6-2.65.41-5.47.61-8.51.61-2.27 0-4.47-.12-6.48-.28-.93-.07-1.82-.16-2.66-.25-.39-.05-.76-.09-1.12-.13-.07 0-.13-.01-.2-.02-.44-.06-.85-.11-1.24-.16-.38-.04-.8-.08-1.25-.11-.17-.01-.33-.03-.5-.04s-.34-.02-.52-.04c-1.52-.12-2.7-.31-3.59-.59-.14-.04-.26-.09-.39-.14-.1-.04-.2-.09-.29-.14-.11-.05-.2-.1-.3-.16-.7-.38-1.08-.89-1.22-1.57-.03-.1-.05-.21-.06-.33-.02-.18-.03-.37-.02-.57 0-.08.01-.17.02-.25.11-.93.61-2.02 1.31-3.16.07-.13.16-.26.26-.4.09-.14.18-.28.28-.42.33-.47.7-.97 1.11-1.5.34-.43.7-.87 1.08-1.34.47-.56.98-1.15 1.53-1.77.16-.18.31-.35.46-.52.36-.4.65-.73.9-1.02 1.71-2 3.45-3.68 5.17-4.99.29-.22.58-.44.88-.64.62-.44 1.26-.83 1.9-1.18.15-.09.3-.17.45-.24.27-.14.55-.27.82-.4.44-.2.89-.38 1.34-.54 1.8-.66 3.74-.99 5.75-.99 2.97 0 5.88.75 8.43 2.17 4.27 2.41 7.41 6.7 8.39 11.5.15.75.23 1.44.23 2.07 0 .23-.01.44-.03.65z" fill="#f7b36f"/><path d="m278.89 398.57-.66 3.26c-1.8 8.91-3.57 17.85-5.31 26.82-.47 2.43-.93 4.86-1.39 7.29-.57 2.91-1.12 5.82-1.67 8.74-1.73 9.15-3.43 18.33-5.09 27.49-.86 4.74-1.7 9.47-2.54 14.2-.08.45-.16.89-.24 1.34-1.43 8.11-2.83 16.21-4.19 24.29h-69.09l6.62-51.54-.01-.04-.23-1.09-.04-.19 1.1-.69c.74-.51 1.37-1.04 1.9-1.58.15-.18.3-.35.44-.52s.27-.34.39-.52.24-.36.34-.55c.05-.09.09-.17.13-.26.07-.14.14-.28.19-.42.04-.09.08-.18.1-.27.18-.48.29-.98.33-1.49.01-.18.02-.35.02-.52 0-.21-.01-.42-.04-.63-.05-.44-.15-.88-.29-1.31-.07-.21-.15-.41-.25-.62 0 0 0-.01-.01-.02-.09-.21-.2-.42-.32-.62-.01-.02-.02-.03-.02-.04-.24-.4-.52-.79-.84-1.18-.17-.2-.35-.39-.54-.58-.15-.17-.32-.32-.49-.48-.08-.08-.17-.15-.26-.23 0 0 0-.01-.01-.01-.16-.14-.32-.28-.5-.41-.23-.18-.47-.36-.73-.54-.18-.13-.37-.26-.57-.37-.24-.16-.48-.31-.73-.45-.16-.1-.33-.19-.5-.28-.43-.23-.89-.46-1.36-.67-.22-.11-.45-.21-.69-.31-.23-.1-.47-.2-.72-.3-.47-.19-.95-.37-1.43-.55-.25-.1-.5-.19-.76-.28-.41-.15-.82-.3-1.23-.44-.54-.19-1.08-.38-1.63-.55-.41-.14-.82-.27-1.23-.4-.46-.15-.92-.29-1.38-.42-1.13-.34-2.27-.66-3.41-.96-.64-.17-1.28-.33-1.92-.49-1.27-.31-2.56-.6-3.85-.87-.65-.14-1.29-.27-1.94-.4-1.29-.25-2.59-.49-3.9-.71-.65-.11-1.3-.22-1.96-.32-.45-.08-.91-.15-1.37-.21-.46-.08-.92-.14-1.38-.2-1.46-.22-2.93-.41-4.41-.59-.48-.07-.96-.13-1.45-.18-1.22-.15-2.44-.29-3.67-.41-1.22-.14-2.44-.26-3.66-.38-.81-.09-1.62-.17-2.43-.24-1.62-.16-3.24-.31-4.85-.46-1.88-.18-3.76-.35-5.65-.54-1.9-.18-3.81-.37-5.72-.58-.64-.07-1.28-.14-1.93-.22-1.26-.14-2.53-.29-3.8-.46-.97-.12-1.94-.25-2.92-.39-.47-.06-.93-.13-1.4-.2-1.21-.18-2.42-.37-3.63-.57-.57-.1-1.14-.2-1.71-.3-.65-.12-1.3-.24-1.95-.36-.73-.15-1.45-.29-2.18-.44-.49-.1-.97-.21-1.46-.32-.96-.21-1.93-.44-2.89-.67-.96-.24-1.92-.49-2.87-.75-.96-.27-1.91-.54-2.85-.83-.95-.29-1.88-.6-2.82-.91l-.01-.01c-.93-.31-1.86-.65-2.79-.99l-.01-.01c-.58-.22-1.16-.49-1.72-.8-.55-.31-1.07-.67-1.52-1.06-.11-.1-.22-.21-.32-.31-.18-.18-.34-.36-.48-.55-.18-.22-.32-.45-.42-.69-.04-.07-.07-.15-.09-.22-.04-.08-.07-.16-.09-.24-.04-.12-.06-.25-.08-.37-.03-.16-.04-.31-.03-.47 0-.12.01-.25.04-.37.02-.14.06-.28.1-.42v-.01c.06-.15.12-.3.19-.44.06-.12.13-.23.21-.34.03-.04.06-.09.1-.13.08-.1.16-.21.26-.3.08-.09.17-.18.27-.27.13-.11.26-.22.4-.32.13-.1.28-.2.42-.29.29-.19.58-.36.87-.52.43-.24.87-.47 1.31-.7h.01c.3-.16.61-.31.91-.46.04-.03.09-.05.13-.06.28-.15.56-.28.84-.41.06-.03.11-.06.17-.08.21-.1.41-.2.62-.29.35-.16.69-.32 1.03-.46.22-.1.43-.19.65-.28.63-.28 1.26-.54 1.89-.78.57-.22 1.13-.44 1.7-.64.5-.19.99-.36 1.47-.52.34-.12.67-.23 1-.34 1.06-.36 2.12-.68 3.16-.98.62-.18 1.24-.36 1.86-.52 4.31-1.17 8.45-1.99 12.13-2.64 23.59-4.17 47.99-4.52 70.96-4.52 2.73 0 5.44 0 8.15.01 2.52 0 7.59.01 7.6.01 6.76 0 14.04-.02 21.54-.19 1.5-.03 3.01-.07 4.53-.11.76-.03 1.52-.05 2.28-.08.76-.02 1.52-.05 2.28-.08 1.53-.06 3.06-.12 4.6-.2 4.09-.2 8.19-.46 12.26-.8l1.02-.09c.08 0 .15-.01.22-.02.82-.07 1.66-.14 2.52-.24.5-.04 1.01-.1 1.52-.16.92-.1 1.85-.22 2.79-.35.47-.06.94-.13 1.42-.21.48-.07.95-.15 1.43-.24.92-.16 1.83-.34 2.75-.54.38-.08.76-.16 1.14-.26.43-.1.87-.2 1.3-.32.58-.15 1.15-.31 1.73-.48l.95-.28z" fill="#e59a55"/><path d="m244.977 373.101c-2.585-.519-5.178-1.007-7.751-1.491l-1.036-.195c-13.677-2.556-27.822-5.199-40.24-11.725-1.718-.902-3.728-2.198-4.028-4.228-.311-2.254 1.494-4.335 5.078-5.879 8.97-3.834 18.689-5.481 28.086-7.075 8.198-1.399 16.676-2.846 24.692-5.758l3.183-1.156-5.937 37.918z" fill="#e59a55"/><path d="m181.14 92.64c-14.976 0-27.16-12.179-27.16-27.15 0-14.976 12.184-27.16 27.16-27.16 14.971 0 27.15 12.184 27.15 27.16 0 14.971-12.179 27.15-27.15 27.15z" fill="#ffd671"/><path d="m195.48 459.18-.16 1.24-6.62 51.58h-42.47c-2.58-2.83-6.97-4.9-12.88-6.02-.24-.06-.49-.1-.74-.14-.22-.04-.44-.08-.67-.11-.2-.04-.41-.07-.62-.1-5.88-.86-11.92-1.43-17.76-1.98l-.1-.01c-1.42-.13-2.84-.27-4.28-.41-1.42-.14-2.85-.29-4.28-.44-.01 0-.01 0-.01 0-1.43-.15-2.87-.32-4.3-.49h-.01c-.91-.11-1.81-.23-2.72-.35-1-.13-2-.28-3-.43-.48-.08-.96-.15-1.44-.23-.48-.07-.96-.15-1.44-.24-.45-.07-.9-.15-1.34-.24-.18-.03-.37-.06-.55-.1-.5-.09-1.01-.19-1.51-.29-.69-.13-1.37-.27-2.05-.43-.45-.09-.9-.2-1.35-.3-.68-.15-1.34-.31-2.01-.48-.8-.2-1.6-.41-2.39-.64-.5-.13-1-.27-1.49-.42-.07-.02-.14-.04-.22-.07-.71-.22-1.48-.48-2.23-.81-.08-.04-.17-.08-.26-.12-.18-.08-.35-.16-.52-.25-.13-.06-.26-.13-.39-.21-.32-.17-.62-.36-.91-.58-.09-.07-.18-.13-.26-.19-.25-.19-.49-.39-.71-.63-.11-.11-.22-.22-.32-.34-.25-.28-.46-.59-.63-.93-.05-.1-.1-.19-.14-.29-.06-.12-.11-.24-.15-.37-.03-.06-.05-.12-.06-.19-.03-.06-.04-.11-.05-.17-.01-.01-.01-.01 0-.02-.03-.07-.05-.13-.06-.2-.11-.5-.13-1-.06-1.51.02-.18.05-.35.09-.53.02-.11.05-.23.09-.34.02-.11.06-.21.1-.32.03-.1.07-.19.11-.29.01-.02.02-.04.03-.06.07-.17.15-.33.23-.49.13-.24.27-.48.44-.72.06-.1.13-.2.21-.3.71-.97 1.7-1.95 2.97-2.9.22-.17.44-.33.67-.49.9-.62 1.81-1.22 2.73-1.79.3-.19.62-.38.92-.56 1.4-.85 2.83-1.64 4.28-2.37.36-.18.73-.37 1.09-.54.37-.18.74-.36 1.1-.53.37-.18.74-.35 1.11-.51s.73-.32 1.1-.48c.3-.14.6-.26.9-.38.53-.23 1.06-.44 1.59-.65.58-.23 1.15-.45 1.73-.66.49-.19.99-.36 1.48-.53.38-.13.77-.26 1.15-.39s.77-.26 1.16-.38c.39-.13.77-.25 1.16-.36.7-.22 1.41-.43 2.12-.63.95-.27 1.91-.53 2.88-.77.68-.17 1.36-.34 2.04-.5.75-.18 1.5-.35 2.26-.51.04-.01.08-.02.11-.02.78-.17 1.56-.33 2.34-.48.16-.03.33-.07.5-.1.64-.12 1.27-.24 1.91-.35.79-.14 1.58-.27 2.37-.4.91-.14 1.81-.28 2.71-.41s1.8-.25 2.69-.37c1.2-.15 2.39-.3 3.57-.43 1.19-.13 2.37-.25 3.54-.36 1.17-.12 2.33-.22 3.49-.32.57-.05 1.15-.09 1.72-.14 1.31-.1 2.64-.2 3.96-.3l3-.21c.52-.04 1.03-.07 1.54-.11.21-.01.41-.03.61-.04l1.54-.11c1.67-.11 3.34-.22 5.02-.34.78-.05 1.57-.11 2.35-.17.78-.05 1.57-.11 2.35-.18.12 0 .23-.01.34-.02 1.28-.1 2.55-.2 3.83-.32.33-.02.67-.06 1-.09 1.65-.15 3.3-.31 4.94-.5.5-.05 1-.11 1.49-.17.5-.05.99-.11 1.48-.18.85-.1 1.7-.21 2.55-.33.46-.06.92-.13 1.38-.2.25-.03.49-.07.74-.11.3-.04.61-.09.91-.14.66-.11 1.33-.21 1.99-.33 1.78-.3 3.56-.64 5.34-1.02.7-.15 1.4-.31 2.1-.47.76-.18 1.52-.36 2.28-.55.76-.2 1.52-.4 2.27-.61.7-.19 1.39-.39 2.07-.6.49-.14.98-.29 1.46-.44.47-.16.94-.31 1.41-.47.23-.07.45-.15.66-.22.25-.09.49-.18.72-.27l.48-.19 2.27-.89z" fill="#e59a55"/><path d="m148.119 363.568c-11.262 0-23.042-.046-35.014-.138l-2.133-.017.154-2.128c.644-8.904 1.208-17.601 1.678-25.85.522-9.115 1.173-20.458-1.51-30.856-1.232-4.78-2.936-8.094-5.361-10.429-2.192-2.112-5.068-3.407-7.328-4.3-6.687-2.645-13.794-3.985-21.126-3.985-7.061 0-13.935 1.247-20.432 3.706l-2.557.967-.148-2.729c-1.404-25.831-4.636-51.741-9.605-77.013l-.413-2.097 2.12-.273c8.684-1.117 18.976-2.258 29.468-2.258 1.398 0 2.793.02 4.188.063 2.813.083 5.662.42 7.43 2.314 1.468 1.565 1.833 3.78 2.104 6.103 1.508 13.316 1.726 26.81.647 40.114l-.151 1.759c-.384 4.593-.774 9.269-.001 13.792.292 1.73 1.017 3.922 2.818 4.563.349.124.722.184 1.14.184.907 0 1.811-.286 2.536-.516l12.08-3.753c2.111-.654 4.576-1.323 6.861-1.323 1.907 0 3.521.475 4.796 1.412 3.103 2.271 3.379 6.162 3.671 10.28.118 1.736.251 3.697.67 5.446.444 1.871 1.227 3.207 2.329 3.975.803.557 1.671.817 2.728.817 1.569 0 3.275-.58 4.924-1.141 1.669-.566 3.387-1.148 4.971-1.148.995 0 1.878.23 2.623.684 2.503 1.529 2.569 4.519 2.64 7.684.039 1.819.076 3.523.531 5.085.915 3.107 3.829 5.702 7.602 6.764 1.563.44 3.282.654 5.257.654 1.806 0 3.61-.181 5.291-.376.974-.115 2.084-.247 3.17-.247 1.759 0 3.125.358 4.177 1.095 1.933 1.35 2.654 3.83 3.179 6.048 3.062 12.962 3.935 26.249 2.593 39.492-.219 2.071-.551 4.204-1.968 5.635-1.799 1.846-4.864 1.874-6.893 1.893-6.572.032-13.151.048-19.736.048z" fill="#af7979"/><path d="m158.336 309.979c-1.99 0-3.72-.214-5.287-.654-2.902-.818-6.407-2.989-7.547-6.627l-.896-2.856 2.982.266c7.066.63 14.21 1.431 21.23 2.38l1.976.267-.905 6.852-1.932-.198c-.362-.037-.753-.056-1.163-.056-1.05 0-2.108.119-3.19.252-1.663.195-3.443.374-5.268.374z" fill="#f7b36f"/><path d="m109.092 363.4c-19.148-.171-36.688-.43-53.624-.79l-2.115-.045.163-2.109c1.747-22.585 2.095-45.619 1.036-68.463l-.065-1.414 1.311-.532c6.842-2.779 14.127-4.188 21.651-4.188 7.337 0 14.455 1.343 21.156 3.991 2.251.887 5.12 2.178 7.329 4.296 2.422 2.331 4.125 5.645 5.362 10.433 2.673 10.384 2.03 21.711 1.513 30.813-.511 8.86-1.084 17.641-1.705 26.153l-.136 1.871z" fill="#935252"/><path d="m45.13 475.922c-4.441 0-8.623-.453-11.77-.848-.529-.066-1.126-.112-1.761-.16-2.739-.19-6.506-.45-6.399-3.534.079-2.174 2.34-5.157 5.964-9.266l.095-.107c.356-.396.65-.728.897-1.021 1.716-2 3.45-3.672 5.169-4.985 1.744-1.34 3.56-2.353 5.394-3.005 1.804-.653 3.742-.986 5.75-.986 2.969 0 5.883.752 8.426 2.175 4.272 2.402 7.409 6.698 8.393 11.494.367 1.822.292 3.261-.227 4.407-.997 2.154-3.485 3.165-5.269 3.738-4.377 1.412-9.174 2.098-14.662 2.098z" fill="#ffd2bb"/><path d="m62.77 430.48c-.14.33-.3.65-.5.95-.02.04-.05.08-.08.12-.03.06-.07.11-.12.17-.06.09-.13.18-.2.27-.09.11-.19.22-.3.33-.09.1-.18.19-.27.27-.18.17-.36.33-.56.47-.08.07-.18.14-.27.2-.09.07-.18.13-.28.18-.14.1-.29.18-.44.26-.15.09-.3.17-.46.25-.13.06-.27.12-.41.18-.02.01-.03.02-.05.02-.13.06-.27.12-.42.17-.2.08-.4.15-.61.22s-.43.14-.65.2c-.22.07-.45.13-.69.18-.24.06-.48.11-.73.16-.17.03-.34.06-.51.09-.23.04-.46.08-.7.11-.59.08-1.2.14-1.85.19-.36.03-.72.05-1.08.07-.29.02-.57.04-.86.05-.26.01-.53.03-.8.04-.52.03-1.06.05-1.6.06-.23.01-.45.02-.68.02-.31.01-.63.02-.96.02-1.15.03-2.36.04-3.65.04-2.76 0-5.48-.05-8.1-.1l-34.94-.65v-34.41c.05-.06.11-.11.16-.17.26-.27.51-.55.77-.82.08-.09.16-.17.26-.26.07-.09.15-.17.25-.26.33-.34.67-.69 1.02-1.04.35-.37.71-.73 1.08-1.07.37-.36.75-.73 1.14-1.09.52-.49 1.06-.98 1.61-1.44.28-.25.57-.49.86-.73.78-.66 1.6-1.29 2.44-1.89.15-.11.29-.21.44-.31.03-.04.07-.06.11-.08.08-.06.17-.12.25-.17.01-.02.02-.03.03-.02.06-.05.11-.09.17-.12.01-.01.01-.01.02 0 2.85-1.94 5.96-3.48 9.31-4.23.32-.07.64-.14.97-.2 1.16-.21 2.34-.32 3.55-.32.26 0 .52.01.78.02.17 0 .34.01.51.03.11 0 .21.01.31.02.26.02.52.05.77.08.32.04.65.09.98.14.44.07.88.16 1.31.27.34.08.67.17 1 .27.24.07.48.14.72.22 0 0 .01 0 .02.01.19.06.39.13.58.2.16.05.32.11.48.18.27.1.54.21.82.33s.55.24.82.37c.28.12.56.26.83.4.11.06.23.12.34.18.24.12.48.25.72.39.37.21.73.43 1.1.66.78.48 1.56 1.02 2.34 1.6.09.06.18.13.27.2.33.26.66.52.99.79.8.65 1.6 1.35 2.4 2.11.39.37.79.76 1.19 1.16.22.22.44.45.67.68.9.93 1.78 1.92 2.66 2.97.33.39.66.79.99 1.2.34.41.67.83 1 1.26.08.1.15.2.22.3.4.51.79 1.03 1.17 1.56.29.39.57.77.85 1.17.87 1.19 1.7 2.4 2.51 3.63.18.27.35.54.53.81.03.02.04.04.05.07.36.55.72 1.1 1.06 1.65.65 1.03 1.28 2.06 1.89 3.11.43.72.84 1.44 1.25 2.18.43.76.85 1.52 1.26 2.3.5.93.98 1.87 1.45 2.81 1.38 2.76 2.64 5.96 1.49 8.76z" fill="#ffd2bb"/><path d="m54.95 332.69c-.1 4.1-.26 8.2-.46 12.29-.26 5.24-.59 10.47-1 15.7l-.14 1.88-1.9-.04c-4.36-.1-8.74-.2-13.15-.32-.19 0-.39-.01-.59-.01-2.3-.06-4.61-.12-6.92-.19-6.73-.18-13.5-.39-20.29-.6-2.52-.08-5.05-.17-7.58-.25-.98-.03-1.95-.07-2.92-.1v-147.46c2.8-.09 5.59-.25 8.37-.47 5.78-.44 11.52-1.1 17.19-1.85.86-.11 1.71-.22 2.56-.34 2.43-.33 4.85-.66 7.25-1 2.34-.33 4.72-.66 7.09-.98l.55-.07 1.32-.18v.01l.36 1.83c.33 1.67.65 3.34.96 5.01.6 3.17 1.17 6.35 1.7 9.53.27 1.59.53 3.19.79 4.78.04.2.07.41.1.61 3.17 19.82 5.25 39.79 6.24 59.81 0 .09.01.18.01.26v.04c.01.06.01.12.01.18l.05 1.23c.007.149.01.298.017.446.621 13.404.757 26.833.383 40.254z" fill="#935252"/><path d="m438.51 182.62c-2.37.2-5.04.6-6.78 2.68-1.78 2.13-1.64 5.04-1.55 6.78l1.11 23.23c.08 1.58.05 3.12-.68 3.77-.55.5-1.66.6-2.85.66l-11.01.61c-.99.05-2.64.14-3.9 1.26-1.1.98-1.46 2.3-1.65 3.34-.34 1.85-.37 3.72-.35 5.55-27.81 2.17-60.08 6.56-91.31 10.81-35.93 4.9-69.86 9.52-89.87 9.61-.49 0-.93.19-1.28.49-45.29-5.1-90.53-10.46-135.46-16.07-.09-6.99-.52-13.98-1.31-20.91-.29-2.56-.73-5.23-2.63-7.26-2.27-2.42-5.59-2.84-8.83-2.94-15.15-.46-30.36 1.67-45.07 3.72-11.5 1.6-23.32 3.25-35.09 3.64v4c12.01-.39 23.98-2.05 35.65-3.68 2.34-.33 4.71-.66 7.08-.98 9.71 49.24 12.66 99.56 8.77 149.59-17.2-.39-34.38-.88-51.5-1.47v4.01c48.44 1.67 97.34 2.51 145.87 2.51 7.33 0 14.67-.01 21.99-.05 2.21-.02 5.91-.04 8.32-2.49 1.89-1.91 2.29-4.53 2.53-6.84 1.36-13.47.47-26.98-2.64-40.15-.65-2.77-1.59-5.56-3.98-7.23-.63-.44-1.29-.76-1.97-.98-.64-.21-1.3-.34-1.96-.41-.67-.07-1.35-.08-2.01-.06-.97.04-1.91.15-2.79.26-3.07.36-6.6.67-9.77-.22-2.41-.68-5.28-2.43-6.18-5.3 6.4.57 12.79 1.27 19.16 2.11.66.08 1.32.17 1.98.26s1.32.18 1.98.27c23.95 3.28 47.7 8.36 70.87 15.15 4.6 1.34 8.97 2.8 11.84 5.85 1.21 1.28 2.41 3.41 1.79 5.16-.62 1.77-2.9 2.84-4.82 3.57-8.09 3.1-16.92 4.61-25.46 6.06-9.55 1.63-19.42 3.31-28.54 7.22-4.43 1.9-6.72 4.81-6.27 7.98.42 2.93 2.94 4.6 5.08 5.73 12.68 6.66 26.98 9.34 40.81 11.92 14.03 2.63 28.54 5.34 40.97 12.26 2.98 1.66 6.9 5.18 5.49 8.09-.69 1.43-2.58 2.29-4.15 2.88-6.72 2.51-14.08 3.28-20.44 3.81-18.21 1.51-36.87 1.48-54.92 1.45-26.17-.05-53.22-.1-79.46 4.54-8.56 1.51-19.65 3.95-29.5 9.38-.96.53-2.97 1.64-3.66 3.74-1.03 3.15 1.25 6.29 5.81 8.01 15.06 5.68 31.35 7.2 47.11 8.66 15.93 1.49 32.42 3.03 47.31 8.93 2.39.94 7.92 3.57 7.59 7.54-.27 3.21-4.31 5.22-7.65 6.34-14.93 5.01-31.13 6.09-46.8 7.14-3.5.23-7.12.48-10.68.76-18.57 1.48-39.84 4.57-56.72 16.28-5.64 3.91-6.21 7.6-5.7 10.01 1 4.69 6.49 6.33 8.29 6.86 11.31 3.37 23.17 4.49 34.65 5.58 5.81.55 11.83 1.12 17.66 1.97 2.93.43 8.49 1.58 12.19 4.39h5.57c-2.93-4.22-8.82-7.13-17.18-8.35-5.93-.87-12-1.44-17.86-1.99-11.29-1.07-22.96-2.17-33.89-5.43-3.37-1.01-5.18-2.27-5.52-3.87-.5-2.32 2.34-4.68 4.07-5.89 16.1-11.17 36.72-14.14 54.76-15.57 3.53-.28 7.14-.52 10.63-.76 15.92-1.06 32.38-2.17 47.8-7.34.52-.17 1.01-.35 1.47-.53l-6.39 49.73h4.04l6.59-51.29c.02-.21.01-.42-.03-.61 3.45-2.35 4.51-5.01 4.68-7.1.39-4.67-3.29-8.9-10.1-11.59-15.42-6.11-32.19-7.68-48.41-9.19-15.49-1.44-31.51-2.94-46.07-8.43-1.89-.71-3.73-2.06-3.42-3.02.18-.53 1-1.04 1.79-1.48 9.34-5.14 20.01-7.48 28.26-8.94 25.9-4.58 52.77-4.53 78.76-4.48 18.14.03 36.89.06 55.26-1.46 5.64-.47 12.03-1.14 18.24-2.98-7.38 36.6-14.27 73.74-20.5 110.57h4.05c6.33-37.35 13.34-75.01 20.84-112.1 2-.86 4.13-2.15 5.23-4.43 2.47-5.09-1.81-10.36-7.15-13.33-9.17-5.1-19.26-7.98-29.45-10.18l5.33-34.09c.06-.34.01-.68-.1-.98 1.84-1.04 3.52-2.48 4.29-4.67 1.2-3.44-.58-7.02-2.66-9.22-3.56-3.78-8.48-5.45-13.63-6.95-22.88-6.7-46.33-11.75-69.98-15.08 63.98-12.17 128.45-12.03 187.18.49.03.01.05.01.07.01-.15 1.64-.28 3.27-.35 4.91-16 .8-32.03 2.92-47.67 6.32-4.5.98-5.21 3.39-5.24 4.73-.04 1.86 1.14 3.4 3.47 4.61-.01.11-.02.22-.01.34l1.8 28.83c.02.4.06.91.16 1.45-4.19 1.33-8.24 3.1-12.07 5.53-1.67 1.07-3.47 2.45-4.14 4.66-.47 1.54-.3 3.12.47 4.57.37.67.84 1.28 1.38 1.83.27 6.15.56 12.31.86 18.46.6 12.35 1.25 24.45 2.55 36.63.65 6.04 1.47 12.15 2.26 18.06 1.18 8.79 2.41 17.89 3.07 26.86.29 3.88.48 7.85.67 11.69.32 6.65.65 13.53 1.49 20.28.45 3.6 1.06 7.2 1.8 10.77h4.09c-.81-3.73-1.45-7.49-1.92-11.26-.82-6.61-1.15-13.41-1.47-19.98-.19-3.87-.38-7.86-.67-11.8-.67-9.09-1.9-18.24-3.09-27.1-.79-5.88-1.61-11.96-2.25-17.95-1.3-12.07-1.94-24.1-2.54-36.4-.25-5.16-.48-10.33-.72-15.5 1.09.5 2.03.82 2.54.97 20.61 6.2 42.32 8.82 63.31 11.36 21.35 2.59 43.42 5.26 64.16 11.7 4.56 1.42 9.71 3.24 13.08 6.91.66.73.67 1 .67 1.03 0 .14-.55.67-2.15 1.07-6.77 1.67-13.86 2.74-20.73 3.78-11.98 1.82-24.38 3.7-35.7 8.81-2.06.93-4.15 2.06-5.54 4-2.22 3.11-1.79 7.07-.12 10.16l-6.14 80.2h4.01l5.83-76.03c2.52 1.89 5.52 3.02 8.64 4.06 40.03 13.39 81.86 17.95 118.42 20.31v-4.01c-36.24-2.34-77.64-6.88-117.15-20.09-3.44-1.15-6.7-2.38-8.9-4.68-1.86-1.95-2.9-5.41-1.33-7.6.87-1.23 2.48-2.02 3.93-2.67 10.81-4.89 22.93-6.72 34.65-8.5 6.95-1.05 14.14-2.14 21.08-3.86 4.37-1.08 5.13-3.44 5.2-4.76.08-1.73-.94-3.07-1.72-3.92-4.05-4.41-9.79-6.46-14.85-8.03-21.08-6.55-43.34-9.24-64.86-11.85-20.83-2.52-42.36-5.12-62.64-11.22-2.66-.8-4.94-2.26-5.67-3.63-.28-.51-.33-.98-.17-1.51.29-.96 1.41-1.77 2.46-2.44 12.52-7.97 27.47-8.53 43.29-9.12 6.98-.26 14.21-.54 21.15-1.51 1.1-.16 4.43-.62 5.34-3.5.4-1.27.51-3.78-3.23-6.3-10.12-6.81-21.86-10.48-33.22-14.04-7.81-2.44-15.88-4.97-23.28-8.48-1.42-.68-1.55-1.09-1.56-1.09.06-.11.57-.59 2.1-.92 15.32-3.33 31.03-5.41 46.7-6.21-.06 5.74.32 11.48 1.18 17.17.15.94.92 1.65 1.87 1.7 27.28 1.59 54.76 2.38 82.24 2.38 22.51 0 45.01-.53 67.39-1.61v-4c-15.97.76-32 1.25-48.06 1.47.08-.21.14-.43.15-.66l.93-21.49c.3-6.75.6-13.73 2.21-20.32 1.75-7.18 4.95-13.08 9.26-17.06 6.14-5.66 14.32-7.46 20.1-7.98 5.1-.45 10.28-.14 15.41.42v-4.03c-5.2-.54-10.47-.84-15.76-.37-6.4.57-15.49 2.6-22.46 9.02-4.89 4.51-8.5 11.1-10.44 19.05-1.7 6.97-2.01 14.15-2.31 21.1l-.93 21.48c-.02.32.05.62.17.89-9.2.1-18.4.11-27.6.03l-1.38-45.99c-.17-5.66.19-11.81 4.23-14.46.95-.62 2.14-1.07 3.4-1.54 2.39-.9 5.11-1.92 6.64-4.53 1.39-2.38 1.17-5.06.97-7.42l-.03-.41c-.4-4.94.4-8.31 2.44-10.29 2.15-2.09 5.46-2.46 8.96-2.86 2.15-.24 4.37-.49 6.5-1.15 2.62-.82 4.48-2.23 5.38-4.1 1.04-2.17.63-4.51.33-6.21l-3.19-18.16c-.22-1.27-.37-2.3-.06-3.04.5-1.24 2.39-1.9 5.62-1.97 13.14-.28 26.4.27 39.52 1.62v-4.02c-13.15-1.34-26.44-1.88-39.61-1.6-1.85.04-7.48.16-9.24 4.46-.76 1.87-.42 3.82-.17 5.24l3.19 18.16c.26 1.52.45 2.85 0 3.79-.51 1.06-1.89 1.68-2.96 2.01-1.76.54-3.7.76-5.76.99-4.01.46-8.17.93-11.3 3.97-2.95 2.87-4.14 7.28-3.64 13.48l.04.43c.16 1.94.31 3.77-.45 5.06-.81 1.39-2.56 2.04-4.58 2.8-1.41.53-2.87 1.08-4.2 1.95-5.68 3.72-6.24 11.15-6.03 17.92l1.38 45.83c-21.54-.24-43.05-.96-64.44-2.18-1.17-8.68-1.23-17.48-.18-26.18.25-2.1.6-4.29 1.71-5.9 2.4-3.44 7.8-3.74 12.56-4.01 8.02-.44 13.12-3.17 14.76-7.9 1.05-3.04.34-6.15-.28-8.9l-.09-.4c-1.4-6.25-2.01-14.64 3.09-19.09 1.86-1.62 4.34-2.58 6.97-3.6 3.76-1.47 7.65-2.98 10.01-6.64 2.22-3.44 2.16-7.36 2.09-11.16-.04-2.09-.07-4.07.26-5.92.15-.8.31-1.01.37-1.07.22-.19 1.06-.24 1.47-.26l11.01-.6c1.45-.08 3.65-.2 5.29-1.67 2.26-2.01 2.1-5.22 2.02-6.95l-1.12-23.23c-.08-1.63-.09-3.17.62-4.02.77-.91 2.43-1.12 4.06-1.27 24.25-2.1 48.81-2.49 73.15-1.23v-4c-24.45-1.27-49.13-.86-73.49 1.25zm-193.14 188.52c-2.94-.59-5.89-1.14-8.81-1.69-13.54-2.53-27.54-5.15-39.68-11.53-1.2-.63-2.81-1.6-2.98-2.75-.2-1.45 1.87-2.88 3.89-3.75 8.68-3.71 18.31-5.36 27.63-6.94 8.32-1.42 16.92-2.9 25.04-5.85zm88.8-40.22c11.08 3.47 22.54 7.06 32.17 13.54 1.28.85 1.71 1.59 1.65 1.78 0 .01-.2.47-2.07.74-6.75.94-13.87 1.21-20.75 1.47-9.84.37-19.89.75-29.34 3.1-.03-.24-.04-.47-.05-.59l-1.69-27.07c6.56 2.79 13.41 4.94 20.08 7.03zm-223.36 4.41c-.5 8.66-1.07 17.43-1.7 26.07-17.86-.16-35.74-.41-53.6-.79 1.77-22.89 2.1-45.84 1.04-68.71 13.1-5.32 28.16-5.39 41.32-.19 2.08.82 4.73 2.01 6.68 3.88 2.14 2.06 3.67 5.08 4.81 9.49 2.6 10.1 1.96 21.27 1.45 30.25zm41.7-24.08c3.87 1.09 7.87.74 11.32.34 2.11-.25 4.5-.53 5.97.5 1.36.95 1.94 3.01 2.38 4.87 3.01 12.74 3.87 25.8 2.55 38.83-.18 1.7-.43 3.45-1.4 4.43-1.15 1.18-3.34 1.28-5.49 1.3-18.18.09-36.44.05-54.72-.09.62-8.58 1.19-17.28 1.68-25.88.53-9.25 1.19-20.77-1.57-31.47-1.33-5.16-3.21-8.77-5.91-11.37-2.45-2.36-5.55-3.76-7.98-4.72-13.68-5.41-29.26-5.49-43-.29-1.41-25.93-4.62-51.76-9.64-77.29 11.04-1.42 22.26-2.52 33.34-2.18 2.38.07 4.76.32 6.03 1.68 1.06 1.13 1.35 3 1.58 4.97 1.49 13.16 1.71 26.52.64 39.72l-.15 1.75c-.39 4.67-.8 9.5.02 14.3.69 4.09 2.63 5.58 4.12 6.11 1.86.66 3.72.08 4.95-.31l12.07-3.75c3.71-1.15 7.47-1.98 9.88-.21 2.35 1.72 2.59 5 2.86 8.81.13 1.91.27 3.89.72 5.77.56 2.36 1.61 4.09 3.13 5.15 3.03 2.1 6.44.95 9.44-.07 2.3-.78 4.48-1.52 5.91-.65 1.49.91 1.61 2.88 1.68 6.02.04 1.86.08 3.78.61 5.6 1.11 3.77 4.54 6.88 8.98 8.13zm236.79-31.18c-1.34 3.87-6.83 4.98-11.2 5.22-5.4.3-12.11.67-15.62 5.72-1.38 1.98-1.92 4.31-2.24 6.48-62.69-13.32-131.83-12.67-199.95 1.87-.03 0-.06.02-.1.03-4.32-.5-8.65-.95-12.98-1.33-.09-.01-.18 0-.28.01 0-.21-.01-.42-.01-.63-.08-3.4-.16-7.26-3.6-9.35-3.03-1.85-6.35-.72-9.27.27-2.8.95-4.6 1.46-5.88.57-.85-.59-1.3-1.84-1.52-2.78-.37-1.57-.49-3.3-.62-5.14-.3-4.19-.64-8.94-4.49-11.75-3.84-2.81-8.72-1.84-13.43-.38l-12.07 3.75c-.76.24-1.82.57-2.42.36-.68-.25-1.24-1.34-1.52-3.01-.73-4.3-.35-8.87.03-13.3l.15-1.75c.41-5.17.63-10.36.67-15.56 97.99 12.24 197.47 23.33 295.73 32.96.05.21.08.41.13.63l.09.4c.55 2.44 1.08 4.75.4 6.71zm20.12-39.48c-1.65 2.56-4.79 3.78-8.1 5.07-2.83 1.1-5.76 2.24-8.15 4.32-4.39 3.83-6.14 10.09-5.17 18.26-45.8-4.5-91.86-9.31-137.91-14.41 19.43-1.67 44.2-5.04 69.99-8.55 31.06-4.23 63.16-8.6 90.8-10.77-.06 2.27-.35 4.36-1.46 6.08z"/><path d="m487.29 341.21c-13.56 1.64-25.82 11.37-30.49 24.21-.17.45-.47 1.29-.3 2.26.22 1.16 1.08 2.64 4 3.11 13.12 2.14 26.4 3.21 39.69 3.21 3.94 0 7.88-.1 11.81-.3v-4.02c-16.99.83-34.07-.1-50.86-2.83-.24-.04-.43-.09-.56-.13 4.19-11.42 15.11-20.08 27.19-21.54 8.55-1.03 17.38 1.57 24.23 6.75v-4.87c-7.27-4.66-16.13-6.9-24.71-5.85z"/><path d="m488.59 157.02c-2.65-12.5-8.5-22.44-16.77-28.31-5.33-3.79-12.26-5.71-18.98-5.27-4.52.3-8.6 1.61-11.99 3.8 3.21-12.46 5.94-25.26 4.98-38.41-1.28-17.33-9.85-32.32-22.36-39.13-7.7-4.19-16.94-5.45-26.71-3.66-8.76 1.61-17.65 5.68-25.05 11.46-9.68 7.57-19.8 20.93-19.89 35.78-6.62-7.53-14.32-13.82-22.17-18.02-11.27-6.04-22.82-7.83-33.41-5.2-20.93 5.2-32.88 25.83-35.43 43.96-2.75 19.48 3 38.88 8.83 54.16-11.48-.7-24.13-1.12-35.81 2.62-12.25 3.93-21.64 12.44-25.26 22.5-4.22-6.2-12.35-11.23-22.78-10.91-7.7.23-15.51 3.03-24.32 8.76-.07-8.76-7.48-16.99-15.76-19.79-8.17-2.76-17.06-1.77-24.86-.37 12.56-18.95 22.36-38.94 15.55-58.22-4.62-13.09-17.08-23.6-32.52-27.43-12.4-3.08-26.81-2.18-42.83 2.66-23.19 7.01-44.44 20.41-61.05 38.1v5.95c16.51-18.77 38.31-33 62.21-40.22 15.32-4.63 29.02-5.51 40.71-2.61 14.15 3.51 25.53 13.04 29.71 24.88 6.69 18.95-4.59 39.38-17.77 58.62-.46.67-.47 1.56-.02 2.23.44.68 1.25 1.02 2.05.87 8.75-1.72 18.67-3.67 27.54-.67 8.03 2.72 15.14 11.44 12.49 19.62-.27.82.02 1.72.72 2.23s1.65.51 2.35.01c9.73-7.01 17.97-10.38 25.92-10.62 8.32-.24 18.62 4.32 21.36 13.26.26.84 1.04 1.41 1.91 1.41h.16c.93-.08 1.69-.79 1.82-1.72 1.17-8.25 8.12-19.68 23.89-24.73 12.03-3.86 24.95-3.04 37.46-2.25.68.04 1.34-.26 1.74-.82.4-.55.5-1.27.24-1.91-5.99-15.22-12.51-35.23-9.72-55.05 2.8-19.87 16.14-36.59 32.44-40.64 21.9-5.45 43.1 10.35 55.65 26.94.56.75 1.57 1 2.42.62.85-.39 1.32-1.32 1.13-2.23-3.27-15.7 7.53-30.62 17.76-38.61 12.48-9.75 31.97-15.84 47.39-7.45 13.54 7.37 19.35 23.39 20.28 35.92 1.09 14.79-2.81 29.46-6.58 43.64-.24.92.2 1.89 1.06 2.31.85.42 1.89.18 2.47-.58 5.71-7.46 19.73-10.33 30.72-2.53 11.37 8.07 14.9 22.64 15.98 30.6.12.86.78 1.55 1.64 1.7s1.71-.27 2.12-1.04c4.27-8.14 13.6-13.22 22.75-12.96v-4.02c-8.85-.18-17.82 3.92-23.41 10.77z"/><path d="m427.21 350.83c-5.4-.53-11.22 1.15-17.29 4.98-3.31 2.09-4.75 4.86-3.85 7.41.77 2.17 2.85 3.11 4.57 3.69 7.63 2.57 13.28 3.43 17.42 3.43 6.32 0 9.12-2 10.07-2.92 2.25-2.18 2.98-4.84 2.05-7.49-1.73-4.95-8.84-8.7-12.97-9.1zm8.14 13.72c-3.4 3.29-14.53 1.57-23.43-1.43-1.24-.42-1.94-.83-2.08-1.24-.21-.6.74-1.76 2.22-2.69 4.69-2.96 9.12-4.46 13.19-4.46.53 0 1.05.03 1.57.08 2.93.28 8.5 3.35 9.58 6.44.28.79.41 1.88-1.05 3.3z"/><path d="m181.14 94.64c16.07 0 29.15-13.08 29.15-29.15 0-16.08-13.08-29.16-29.15-29.16-16.08 0-29.16 13.08-29.16 29.16 0 16.07 13.08 29.15 29.16 29.15zm0-54.31c13.87 0 25.15 11.29 25.15 25.16s-11.28 25.15-25.15 25.15-25.16-11.28-25.16-25.15 11.29-25.16 25.16-25.16z"/><path d="m57.88 452.44c-4.77-2.68-10.7-3.18-15.84-1.32-3.94 1.41-7.66 4.21-11.38 8.55-.25.29-.55.63-.89 1.01-3.39 3.83-6.45 7.52-6.56 10.62-.19 5.02 5.31 5.4 8.26 5.61.59.04 1.15.08 1.64.14 3.58.45 7.66.85 11.94.85 5 0 10.28-.54 15.36-2.18 2.14-.69 5.15-1.94 6.46-4.78.72-1.55.84-3.4.38-5.66-1.1-5.36-4.6-10.16-9.37-12.84zm5.36 16.82c-.5 1.08-1.79 1.93-4.06 2.66-8.62 2.78-17.76 2.15-25.57 1.17-.56-.07-1.19-.12-1.86-.17-3.47-.24-4.58-.6-4.55-1.47.07-1.93 3.92-6.26 5.56-8.12.36-.4.67-.75.93-1.06 1.63-1.9 3.24-3.45 4.85-4.68 1.6-1.23 3.22-2.13 4.85-2.71 1.63-.59 3.36-.87 5.08-.87 2.59 0 5.18.65 7.45 1.92 3.77 2.12 6.54 5.91 7.41 10.15.28 1.39.25 2.43-.09 3.18z"/><path d="m42.99 437.77c3.26 0 6.56-.07 9.83-.31 6.33-.45 10.3-2.54 11.8-6.21 1.45-3.55.03-7.26-1.55-10.42-3.49-7.01-7.68-13.71-12.45-19.92-8.44-10.96-17.24-16.52-26.17-16.52-.01 0-.01 0-.01 0-10.25 0-18.79 7.44-24.44 13.32v5.87c.78-.87 1.57-1.73 2.38-2.58 5.58-5.87 13.13-12.61 22.06-12.61h.01c7.62 0 15.36 5.03 23 14.96 4.61 6 8.66 12.48 12.04 19.26 1.18 2.36 2.27 5.06 1.43 7.12-.88 2.15-3.7 3.41-8.39 3.75-5.81.41-11.78.3-17.55.19l-34.98-.65v4l34.91.65c2.66.05 5.36.1 8.08.1z"/></svg>