<svg id="Capa_1" enable-background="new 0 0 512 512" height="512" viewBox="0 0 512 512" width="512" xmlns="http://www.w3.org/2000/svg"><path d="m512 29.65v189.72c-1.61.01-3.23.02-4.87.02h-2.1c-.36 0-.72-.01-1.09-.01h-1.03c-.01 0-.01 0-.02 0h-.05c-2.85-.02-5.71-.06-8.58-.11-2.86-.05-5.73-.12-8.59-.2-2.86-.09-5.72-.18-8.56-.28-2.22-.08-4.44-.17-6.64-.27-1.39-.05-2.78-.11-4.17-.18h-.12c-3.37-.15-6.72-.32-10.06-.48-2.51-.12-5-.25-7.45-.39-2.75-.14-5.49-.29-8.22-.43l-.51-.03c-.42-.02-.84-.04-1.26-.07-4.19-.22-8.42-.44-12.67-.66-1.94-.1-3.89-.19-5.85-.28-1.68-.09-3.36-.17-5.04-.24l-5.43-.24c-.16-.01-.33-.01-.49-.02-.05 0-.11 0-.16-.01-1.47-.05-2.91-.12-4.38-.17-1.73-.07-3.47-.14-5.21-.19-1.73-.06-3.47-.12-5.21-.17-1.41-.03-2.81-.07-4.22-.1-1.25-.03-2.5-.06-3.76-.08-1.15-.02-2.29-.04-3.43-.06h-.14c-1.44-.02-2.87-.04-4.31-.05-1.75-.01-3.49-.02-5.24-.02-.01 0-.01 0-.02 0-2.16 0-4.28.01-6.36.03s-4.13.06-6.15.1c0 0-.01 0-.02 0-2.01.04-3.99.1-5.95.17h-.04c-1.96.06-3.89.14-5.81.23h-.06l-1.97.09c-.06-.88-.11-1.74-.16-2.59-.09-1.54-.17-3.02-.25-4.47-.02-.23-.03-.46-.04-.69-.04-.74-.07-1.47-.11-2.19-.04-.84-.08-1.67-.12-2.5l-.19-4.27c-.03-.73-.07-1.46-.1-2.18v-.1l-.06-1.38-.02-.38c-.01-.2-.02-.4-.02-.6-.15-3.38-.29-6.83-.47-10.3-.07-1.48-.15-2.97-.25-4.46-.06-1.12-.14-2.24-.21-3.35-.1-1.46-.2-2.92-.32-4.38l-.01-.13c0-.03 0-.06-.01-.08-.02-.34-.05-.67-.08-1-.08-.96-.17-1.92-.27-2.88-.05-.59-.11-1.18-.18-1.77-.05-.58-.11-1.17-.18-1.76l-.05-.46-.06-.51-.16-1.29c-.1-.9-.22-1.81-.35-2.71-.02-.18-.05-.37-.07-.55-.02-.11-.03-.23-.05-.34-.01-.04-.01-.09-.02-.13-.01-.1-.03-.19-.04-.29-.11-.72-.22-1.45-.34-2.18-.1-.58-.2-1.16-.31-1.74-.02-.15-.05-.31-.08-.46l-.11-.54-.16-.86 1.23-.7c.23-.13.47-.26.71-.39l.29-.15c.5-.26 1.02-.51 1.54-.74.46-.2.92-.39 1.39-.57 3.33-1.27 6.95-1.93 10.68-1.93 7.99 0 15.59 2.94 21.06 8.02l.1.09c.98.91 1.88 1.89 2.71 2.94-.37-1.94-.29-3.83.08-5.61 0 0 0 0 0-.01.07-.32.14-.65.23-.96.07-.28.16-.56.25-.83.08-.27.18-.55.27-.81.1-.25.2-.5.3-.75.11-.26.22-.52.34-.78l.36-.75c.12-.24.25-.48.38-.72s.26-.46.39-.69c.39-.67.79-1.29 1.18-1.85.11-.16.22-.31.33-.46.08-.12.16-.23.25-.34.14-.2.29-.39.43-.57.02-.04.06-.08.09-.12.12-.14.22-.27.33-.4.42-.52.86-1.02 1.32-1.51.69-.74 1.41-1.45 2.17-2.13.38-.34.76-.66 1.15-.98.4-.33.8-.64 1.21-.95.41-.3.82-.6 1.24-.89 6.33-4.35 14.2-6.8 22.36-6.8 4.89 0 9.59.88 13.87 2.58.26.1.52.21.78.31l.06.03c.01 0 .01.01.02.01l.67.29c1.56.7 3.06 1.52 4.48 2.45-.67-1.33-1.34-2.71-1.99-4.14l-.55-1.24c-.2-.45-.38-.9-.57-1.34-.15-.36-.3-.72-.44-1.07-.03-.08-.06-.15-.09-.23-.15-.37-.29-.74-.43-1.11-.12-.31-.23-.62-.34-.92-.1-.26-.19-.52-.27-.77-.09-.26-.18-.51-.26-.76-.08-.26-.17-.52-.25-.78-.12-.37-.23-.74-.33-1.11-.12-.39-.23-.78-.33-1.17-.02-.04-.03-.08-.03-.11-1.31-4.99-1.82-10.16-.76-15.18.07-.33.15-.65.24-.97.07-.28.15-.56.23-.84.04-.17.09-.34.15-.5.11-.37.24-.72.37-1.08s.27-.71.42-1.06c.17-.4.35-.79.54-1.17.19-.39.39-.78.61-1.16.2-.37.42-.73.65-1.09.01-.03.03-.06.05-.09.23-.35.46-.71.71-1.05.25-.36.5-.71.77-1.05.01-.02.03-.04.04-.05.27-.35.55-.69.84-1.03.3-.35.61-.69.92-1.02.04-.04.07-.08.1-.11.29-.3.58-.59.88-.88 1.19-1.15 2.49-2.23 3.9-3.22.6-.42 1.21-.82 1.84-1.2.11-.08.23-.15.35-.22.71-.42 1.43-.82 2.18-1.2.38-.19.76-.38 1.15-.56 4.92-2.26 10.46-3.49 15.93-3.49.45 0 .9.01 1.35.02h.01c1.34.05 2.68.18 3.98.37-5.15-6.24-4.69-15.08-2.35-22.13.02-.05.04-.1.05-.14.12-.36.25-.71.38-1.06.47-1.26.93-2.26 1.24-2.92.24-.5.49-.99.75-1.48.52-.97 1.07-1.93 1.66-2.86.36-.57.74-1.13 1.12-1.68.03-.05.06-.09.1-.13.32-.46.65-.91.99-1.36.11-.16.23-.31.36-.46.25-.33.5-.65.77-.96.17-.22.35-.43.53-.64.38-.45.77-.89 1.17-1.32.38-.4.76-.8 1.15-1.19 1.55-1.57 3.22-3.04 4.99-4.39.87-.68 1.77-1.32 2.7-1.93h.01c.41-.27.82-.53 1.23-.79s.83-.51 1.25-.75c.84-.5 1.7-.97 2.57-1.4.44-.22.88-.43 1.32-.64.88-.43 1.78-.82 2.69-1.17.91-.37 1.83-.71 2.76-1.01.46-.15.93-.3 1.4-.44s.94-.27 1.42-.4c.47-.13.95-.25 1.43-.36.47-.11.96-.22 1.44-.32.48-.09.96-.18 1.45-.27.48-.08.97-.16 1.46-.23s.98-.13 1.47-.18c.42-.05.84-.09 1.26-.12.39-.04.77-.06 1.15-.08.09-.01.18-.01.27-.02.36-.02.71-.03 1.07-.04.44-.01.89-.02 1.33-.02.48 0 .97.01 1.45.03.08 0 .16 0 .23.01z" fill="#fff"/><path d="m511.99 219.38c-1.61.01-3.21.02-4.82.02-.71 0-1.43 0-2.14-.01-.36.01-.73 0-1.09-.01h-1.03c-.01 0-.01 0-.02 0-.01.01-.02.01-.04 0h-.01c-2.86-.01-5.72-.05-8.58-.11-2.86-.05-5.73-.12-8.59-.2-2.85-.08-5.71-.17-8.56-.28-2.22-.08-4.44-.17-6.64-.27-1.39-.05-2.78-.11-4.17-.18h-.12c-3.37-.15-6.72-.32-10.06-.48-2.49-.13-4.98-.26-7.45-.39-2.75-.14-5.49-.29-8.22-.43l-.51-.03c-.42-.02-.84-.04-1.26-.07-4.19-.22-8.42-.44-12.67-.66-1.94-.1-3.89-.19-5.85-.28-1.67-.09-3.35-.17-5.04-.24l-5.43-.24c-.16-.01-.33-.01-.49-.02-.05 0-.11 0-.16-.01-1.47-.05-2.91-.12-4.38-.17-1.74-.07-3.47-.13-5.21-.19-1.73-.06-3.47-.11-5.21-.17-1.41-.03-2.81-.07-4.22-.1-1.25-.03-2.5-.06-3.76-.08-1.15-.02-2.29-.04-3.43-.06h-.14c-1.44-.02-2.88-.04-4.31-.05-1.75-.01-3.5-.02-5.24-.02-.01 0-.01 0-.02 0-2.16 0-4.28.01-6.36.03-2.08.03-4.13.06-6.15.1 0 0-.01 0-.02 0-2.01.05-3.99.1-5.95.17h-.04c-1.96.07-3.89.14-5.81.23h-.06l-1.97.1h-.01l.13 2.03c.07 1.08.15 2.17.22 3.28.06.91.13 1.84.19 2.77l.15 2.13.14 1.86c.15 2.02.31 4.05.47 6.07.54 6.81 1.14 13.62 1.8 20.4l.18 1.81c.18 1.82.36 3.66.55 5.53.13 1.28.26 2.57.4 3.88.11 1.08.22 2.16.33 3.25.37 3.55.77 7.21 1.19 11.02.09.88.19 1.77.29 2.66l.25 2.27.2 1.74c1.03 9.14 2.1 18.24 3.16 27.25l.39 3.34.05.37v.01l.76.24c.53.17 1.07.34 1.61.5.08.02.17.05.25.07.44.13.88.25 1.33.36 1.62.43 3.26.77 4.92 1 1.6.22 3.27.36 4.94.48.29.02.57.04.85.06.14.01.29.02.43.03.15.01.29.02.44.03.91.06 1.83.12 2.76.19.8.06 1.59.12 2.36.21l.21.03c5.63.62 11.12 2.03 14.19 6.63l-.23 1.3.85.58c.01 0 .02 0 .03.02.18.1.34.21.51.33.44.3.86.63 1.26.98.17.14.33.29.49.43s.32.29.47.45c.46.46.9.94 1.32 1.45.28.34.55.68.81 1.04.58.8 1.12 1.64 1.63 2.51.04.05.07.1.09.16.15.24.28.47.41.72.19.35.37.7.55 1.05.18.36.35.72.52 1.08.43.89.82 1.79 1.18 2.67l.28.68c.28.69.55 1.39.82 2.07v.01l-402.88.73v82.52c1.44-1.14 2.88-2.28 4.32-3.4 4.21-3.29 8.43-6.48 12.71-9.54.71-.51 1.43-1.01 2.15-1.51.71-.5 1.43-1 2.15-1.49 1.15-.79 2.3-1.56 3.45-2.32.59-.39 1.19-.78 1.78-1.16.94-.6 1.88-1.2 2.82-1.78.92-.57 1.84-1.13 2.76-1.68.94-.56 1.88-1.11 2.83-1.65.75-.42 1.51-.85 2.26-1.26.45-.25.89-.49 1.33-.72.45-.24.9-.47 1.34-.71.52-.28 1.04-.55 1.57-.81 2.1-1.08 4.23-2.1 6.39-3.06.46-.21.92-.41 1.38-.6.43-.19.86-.37 1.28-.54 1.25-.53 2.47-1.01 3.66-1.45.47-.18.94-.35 1.4-.51.38-.14.75-.27 1.12-.39.5-.17 1-.34 1.5-.49.47-.15.94-.3 1.41-.43.39-.11.75-.22 1.13-.32.3-.09.61-.17.91-.25.45-.12.9-.24 1.35-.34.48-.11.96-.22 1.43-.32.4-.09.79-.17 1.18-.24.39-.08.78-.15 1.16-.21.39-.07.77-.14 1.16-.19 2.05-.3 4.05-.47 6.02-.53.48-.02.96-.02 1.44-.02 1.09 0 2.19.04 3.28.1.41.02.82.04 1.22.08.81.06 1.62.13 2.43.21.51.05 1.02.1 1.54.16 1.53.17 3.05.36 4.55.55l.17.02c.76.1 1.51.2 2.26.29.74.1 1.49.19 2.24.27.74.09 1.49.17 2.23.24.18.02.36.04.53.05.57.05 1.14.1 1.7.14 2.06.14 4.27.21 6.74.21 3.29 0 6.66-.13 9.63-.24 1.33-.05 2.66-.09 4.01-.13.46-.01.92-.03 1.39-.04.46-.01.93-.02 1.4-.03.93-.02 1.86-.03 2.79-.03 4.43 0 8.07.22 11.45.7 1.12.16 2.18.35 3.16.57.63.15 1.22.31 1.8.48.28.08.57.17.85.28 1.03.36 1.97.77 2.82 1.24.21.12.42.23.62.36.01 0 .02.01.03.02.21.12.41.25.6.39.12.08.23.16.35.25s.24.18.36.28c.12.09.24.19.35.29.17.14.33.29.49.45.19.17.36.35.53.54.1.1.2.21.29.31.13.16.26.32.39.49.17.22.33.45.48.69.14.21.27.42.39.64.08.13.16.27.23.41.08.13.15.27.21.4.13.25.25.5.36.76.08.17.15.34.22.52.08.21.17.42.24.63.14.37.27.75.4 1.14.12.36.22.72.33 1.09.23.81.45 1.63.66 2.44.13.52.27 1.04.41 1.56.12.45.25.91.38 1.35.1.35.21.7.33 1.04.11.35.23.69.36 1.02.06.16.12.32.19.47.02.06.04.11.07.17.06.15.12.3.19.45.05.13.11.25.18.37.09.21.19.42.31.63.05.11.11.22.18.33 0 .02.02.05.04.07.13.25.28.5.44.74.17.27.36.53.55.78.17.22.33.43.51.63.09.1.17.2.27.3.16.18.32.36.5.53.23.23.47.46.72.67.24.21.48.42.74.61.22.17.45.34.69.5.08.06.16.11.24.16.52.36 1.08.69 1.67 1 .12.07.24.13.37.19.5.26 1.02.5 1.56.72.25.11.5.21.76.3.22.09.44.17.67.25.38.14.76.26 1.16.38.64.2 1.3.38 1.99.54.3.08.6.15.91.21.66.15 1.34.29 2.05.4.14.03.28.05.42.07.17.03.34.05.5.08.98.16 1.96.29 2.95.42.34.04.65.08.93.12.29.04.58.08.87.12.28.04.57.08.85.11 1.17.16 2.32.33 3.45.53.57.1 1.14.21 1.71.33.56.11 1.1.23 1.64.38.97.25 1.93.54 2.87.89.24.09.47.18.7.27.24.09.46.19.69.29s.46.21.69.32c6.93 3.36 11.35 9.99 15.65 16.45.43.65.87 1.3 1.31 1.94 1.14 1.7 2.31 3.39 3.56 5.01.34.44.69.88 1.04 1.31.23.29.46.57.71.85.39.46.79.91 1.19 1.35.34.37.69.73 1.04 1.08.77.76 1.57 1.48 2.41 2.16.41.33.83.65 1.26.96.32.23.65.45.98.67.66.43 1.34.83 2.03 1.21.59.32 1.2.62 1.81.91.26.13.53.25.79.36.53.23 1.06.45 1.59.66.39.16.79.31 1.19.46.58.21 1.16.41 1.74.6.44.15.88.29 1.32.42.86.26 1.72.51 2.58.76.03.01.06.02.09.02.44.13.89.25 1.33.37.55.15 1.11.3 1.66.45l.33.09 1.05.28c.8.22 1.61.44 2.42.67.87.24 1.73.5 2.6.76.74.22 1.47.45 2.2.69.8.24 1.59.51 2.38.79.79.27 1.57.55 2.35.84s1.55.59 2.31.9c.28.11.56.23.84.35.65.27 1.29.55 1.93.85.45.2.9.42 1.35.64 1.36.66 2.69 1.37 3.97 2.14.43.26.86.53 1.28.8.3.18.59.37.88.57.35.23.71.48 1.05.73.31.22.61.44.91.67.76.58 1.51 1.19 2.23 1.83.24.21.48.43.72.65.06.06.13.12.19.18.27.25.54.51.8.78 1.12 1.12 2.15 2.32 3.11 3.61l-67.47 1.05-.45.01-9.58.15-20.93.33-36.98.57-132.59 2.07v23.84h512v-292.62zm-10.86 206.47v.02c-.09.84-.21 1.67-.38 2.47-.07.36-.16.71-.24 1.05-.17.63-.36 1.23-.57 1.78-.03.07-.06.13-.08.2-.07.2-.16.4-.25.59-.06.14-.12.28-.19.41-.07.15-.15.3-.23.44-.07.13-.14.25-.21.36-.09.16-.18.31-.29.46-.15.23-.3.45-.47.65-.17.21-.35.41-.53.6-.2.21-.41.4-.62.58-.16.14-.33.27-.5.4-.67.5-1.39.91-2.14 1.26-.3.14-.61.28-.92.4-.34.13-.69.26-1.05.38s-.72.24-1.08.35c-.24.08-.48.15-.72.22-1.78.51-3.61.95-5.5 1.32-.39.08-.78.15-1.18.22-.26.05-.52.1-.79.14-.39.07-.79.13-1.19.2-.4.06-.8.12-1.19.18-.65.09-1.3.17-1.96.25-.73.09-1.47.17-2.22.23-.72.07-1.45.13-2.19.18-.87.07-1.75.12-2.64.16-.26.01-.51.02-.77.03-.69.03-1.39.05-2.09.06-.42.01-.84.02-1.27.02-.43.01-.86.01-1.29.01-2.06 0-4.12-.05-6.18-.13s-4.13-.2-6.19-.35c-.41-.03-.83-.06-1.25-.09-1.01-.08-2.02-.16-3.03-.24-3.03-.25-6.04-.54-9.02-.82-.02 0-.04 0-.06-.01-1.56-.15-3.13-.3-4.71-.45-2.96-.27-5.93-.53-8.91-.74-.79-.05-1.59-.11-2.38-.15-.5-.03-1-.06-1.5-.08-.59-.04-1.19-.07-1.79-.09-.69-.03-1.38-.06-2.07-.08-1.89-.05-3.64-.08-5.33-.08-8.76 0-17.6.6-26.15 1.18l-.16.02c-.12.01-.24.02-.36.02-1.52.1-3.04.21-4.58.31s-3.08.2-4.63.29c-.78.05-1.55.09-2.33.13-.78.05-1.55.09-2.33.12-1.55.08-3.09.14-4.64.19h-.03c-.58.02-1.16.04-1.74.05-.77.02-1.54.04-2.31.05-1.08.02-2.16.03-3.24.03h-.83c-6.04-.02-12.46-.34-18.46-2.5-.24-.09-.47-.18-.69-.27-.21-.08-.42-.17-.62-.27-.44-.2-.9-.43-1.35-.7-.13-.08-.26-.15-.38-.24-.19-.12-.37-.25-.55-.38s-.36-.27-.53-.42c-.13-.1-.26-.22-.38-.34s-.23-.23-.34-.35c-.07-.07-.14-.15-.2-.23-.07-.07-.13-.15-.18-.24-.07-.08-.13-.16-.18-.24-.03-.04-.05-.07-.07-.11-.18-.27-.34-.55-.46-.86-.05-.12-.1-.24-.13-.36-.04-.1-.07-.2-.1-.31-.02-.08-.04-.17-.05-.25-.04-.14-.06-.3-.08-.45-.04-.33-.04-.65-.01-.98 0-.14.02-.27.04-.41.02-.13.04-.28.07-.41 0-.01 0-.03.01-.05.03-.18.07-.35.12-.52.06-.24.13-.48.21-.72.07-.23.15-.47.23-.7.03-.08.06-.17.09-.25.09-.26.19-.51.28-.77.05-.13.09-.26.14-.38l.31-.87c.04-.13.09-.27.15-.41l.49-1.41.08-.24-1.43.13h-.03c-.54.05-1.09.1-1.63.14-1 .08-1.98.16-2.96.22s-1.94.11-2.9.15c-.25.02-.5.03-.74.03-.56.02-1.12.04-1.68.05-.18.01-.36.02-.53.01-.77.02-1.54.03-2.3.03-3.54 0-7.1-.15-10.64-.44-.88-.07-1.76-.15-2.64-.25-.88-.08-1.76-.18-2.64-.3-.82-.1-1.65-.21-2.47-.33-.19-.02-.38-.05-.57-.08-.74-.1-1.48-.22-2.21-.34-.29-.05-.58-.1-.87-.16-.88-.16-1.77-.34-2.64-.58-1.13-.32-2.22-.73-3.23-1.34-.14-.08-.27-.17-.4-.27-.14-.08-.27-.18-.4-.29-.1-.07-.19-.15-.29-.23-.09-.08-.18-.16-.27-.24-.16-.14-.3-.28-.44-.43-.02-.01-.03-.02-.04-.04-.13-.13-.25-.27-.36-.42-.08-.1-.16-.21-.24-.31-.24-.32-.44-.65-.6-1-.06-.12-.11-.23-.16-.35-.04-.09-.08-.18-.11-.28-.07-.17-.12-.35-.17-.53-.03-.14-.06-.28-.09-.42-.01-.1-.03-.2-.04-.3-.03-.2-.04-.41-.04-.61 0-.25.01-.49.05-.72.01-.11.03-.22.05-.33.04-.22.09-.44.16-.65.06-.21.13-.41.22-.62.04-.12.09-.23.15-.35.05-.12.11-.24.18-.36.06-.13.13-.27.22-.4.16-.27.32-.54.51-.8.18-.26.38-.53.58-.78.09-.13.2-.26.31-.39.31-.39.64-.77.98-1.16 4.32-4.95 8.79-10.07 14.16-14.08.38-.28.76-.57 1.16-.83.05-.04.1-.07.15-.1.13-.1.27-.19.41-.28.15-.11.31-.22.46-.31.32-.22.66-.44.99-.64.47-.3.96-.59 1.45-.87.49-.29.98-.56 1.48-.82.42-.23.85-.45 1.29-.66.21-.11.43-.22.65-.32l.66-.3c.83-.38 1.67-.74 2.52-1.07.6-.24 1.2-.47 1.81-.67.32-.12.64-.23.96-.33 1-.34 2.02-.64 3.05-.9.3-.09.6-.16.9-.23 1.46-.36 2.94-.65 4.44-.87.37-.06.74-.11 1.11-.16.01-.01.03-.01.04-.01.09-.01.18-.03.27-.03.48-.07.98-.12 1.47-.17.66-.07 1.32-.12 1.98-.16h.01c.67-.04 1.33-.07 2-.08.39-.01.79-.01 1.19-.01.59 0 1.17.01 1.76.03.99.03 1.98.09 2.97.18.2.02.4.04.6.06.71.06 1.41.14 2.12.25.52.07 1.04.15 1.55.23s1.01.17 1.52.27c.51.09 1.01.2 1.52.31.64.14 1.27.29 1.9.45.44.11.89.23 1.33.35l1.32.39c.44.13.87.27 1.3.41.49.15.97.32 1.44.49.9.32 1.8.67 2.7 1.04.19.07.38.15.57.24.91.37 1.8.77 2.69 1.2 1.02.49 2.02 1 3.02 1.55l.71.39.1.06c1.43-.56 2.86-1.08 4.28-1.59l1.12-.41c.36-.12.71-.25 1.06-.37 1.13-.4 2.3-.83 3.49-1.29.6-.22 1.2-.46 1.8-.7s1.2-.49 1.8-.74c.26-.1.51-.22.77-.33 1.56-.69 3.1-1.44 4.61-2.24 3.2-1.68 6.3-3.55 9.34-5.46 1.28-.79 2.55-1.6 3.81-2.41l.08-.06.12-.08c1.25-.8 2.52-1.61 3.8-2.41.5-.32 1.01-.64 1.52-.95 1.38-.86 2.78-1.7 4.18-2.51.24-.14.49-.29.73-.42.2-.12.41-.24.62-.35.21-.13.41-.24.61-.34.31-.17.61-.33.92-.5s.61-.33.91-.48c.6-.31 1.2-.62 1.8-.91.4-.2.8-.38 1.19-.57.79-.37 1.57-.72 2.34-1.05.38-.16.77-.32 1.15-.48.76-.31 1.52-.6 2.27-.87.19-.07.38-.13.56-.2.19-.07.38-.13.56-.19.37-.12.74-.24 1.11-.36.41-.13.82-.25 1.22-.36.4-.12.8-.22 1.19-.32.38-.1.76-.19 1.14-.28.41-.1.81-.19 1.21-.26.38-.08.77-.15 1.15-.22.16-.03.32-.05.47-.08.46-.07.92-.14 1.37-.19.51-.07 1.02-.12 1.53-.16 1.02-.09 2.02-.13 3.01-.13.35 0 .7.01 1.05.02.18 0 .36.01.53.02.17 0 .35.01.53.03.3.02.6.04.9.07s.59.06.88.09c.3.04.59.08.88.12 1.08.16 2.15.37 3.23.64.47.12.94.25 1.41.39.26.07.51.15.77.24.19.06.38.12.57.19 1.07.36 2.14.79 3.2 1.27.32.14.65.29.97.45.25.12.5.24.75.37.26.13.51.26.76.4.24.12.47.25.71.38.66.37 1.33.76 2 1.18.31.19.61.38.91.58.26.16.53.34.8.53.27.18.54.37.81.56.27.18.54.38.81.58.44.32.89.66 1.33 1.01.36.28.72.57 1.09.86 1.01.82 2.02 1.69 3.04 2.62.34.31.68.62 1.02.94.21.18.41.38.62.59.34.32.68.65 1.02.99.42.42.84.85 1.26 1.28.41.43.83.86 1.24 1.3.82.87 1.63 1.76 2.42 2.64.54.59 1.06 1.17 1.57 1.76.42.48.84.96 1.26 1.43l.59.67c1.35 1.52 2.74 3.09 4.14 4.6.33.35.67.7 1.02 1.04.75.75 1.53 1.47 2.32 2.17.3.27.61.54.91.81.49.43.98.85 1.47 1.27.03.02.05.05.08.07.53.46 1.06.91 1.57 1.36.25.22.51.44.76.67.51.44 1.01.9 1.49 1.36.38.36.76.73 1.13 1.11.32.33.63.66.94.99.61.67 1.19 1.37 1.73 2.1.72.97 1.38 1.98 1.98 3.03.08.14.16.28.24.42.09.14.16.28.23.42.22.4.43.82.63 1.23.13.25.25.5.36.76.12.25.24.51.34.76.15.35.29.69.42 1.04.21.52.4 1.04.57 1.57.12.36.23.72.34 1.08s.21.72.3 1.08c.13.48.24.96.34 1.44.08.35.15.71.21 1.07.04.21.08.42.11.63.04.2.07.41.09.62.06.42.11.84.15 1.26.18 1.83.19 3.64.02 5.39z" fill="#1687cb"/><path d="m0 0h512v29.64c-.56-.02-1.12-.03-1.68-.03-1.7 0-3.4.09-5.08.28-7.86.85-15.4 3.66-21.89 7.96 0 0 0 0-.01 0-.92.62-1.82 1.26-2.7 1.93-1.77 1.35-3.44 2.82-4.99 4.39-.39.39-.77.79-1.15 1.19-1.87 2.03-3.56 4.22-5.04 6.55-.59.93-1.14 1.89-1.66 2.86-.26.49-.51.98-.75 1.48-.31.66-.77 1.66-1.24 2.92-.13.35-.26.7-.38 1.06-.01.04-.03.09-.05.14-1.6 4.79-3.04 12.25.24 18.87l1.5 3.02-3.37-.13h-.01c-.49-.02-.97-.03-1.46-.03-5.49 0-10.9 1.2-15.82 3.5-.39.18-.77.37-1.15.56-.74.38-1.47.78-2.18 1.21-.117.07-.231.144-.347.215-.626.384-1.246.774-1.843 1.195-1.41.99-2.71 2.07-3.9 3.22-2.68 2.59-4.76 5.54-6.11 8.7-.15.35-.29.7-.42 1.06s-.26.71-.37 1.08c-.06.16-.11.33-.15.5-1.69 5.66-1.38 11.95.98 19.38.15.51.32 1.02.51 1.54.08.25.17.51.27.77.11.3.22.61.34.92.14.37.28.74.43 1.11.34.86.71 1.74 1.1 2.64l.55 1.24 1.47 3.36-3.96-1.67-.67-.29c-.01 0-.01-.01-.02-.01-4.46-1.88-9.52-2.88-14.64-2.88-8.76 0-17.15 2.78-23.67 7.65-1.64 1.23-3.16 2.58-4.53 4.06-.46.49-.9.99-1.33 1.51-.1.13-.21.26-.32.4-.03.04-.07.08-.09.12-.14.18-.29.37-.43.57-.09.11-.17.22-.25.34-.11.15-.22.3-.33.46-.39.56-.79 1.18-1.18 1.85-.13.23-.26.45-.39.69s-.26.48-.38.72l-.36.75c-.12.26-.23.52-.34.78-.1.25-.2.5-.3.75-.19.53-.37 1.08-.52 1.64-.09.32-.16.64-.23.96v.01c-.06.29-.12.58-.16.88l-.55 3.61-2.08-1.82-.1-.09-.57-.49c-5.43-4.76-12.92-7.48-20.55-7.48-4.23 0-8.35.84-12.01 2.45-.52.23-1.04.48-1.54.74l-.29.15-1.93 1-.56-2.17c-.2-.76-.41-1.52-.65-2.27-.11-.4-.24-.79-.37-1.17-.04-.14-.09-.27-.15-.41-.16-.49-.34-.97-.53-1.44-.32-.82-.67-1.63-1.06-2.42-.09-.2-.19-.39-.29-.58-.3-.59-.61-1.16-.96-1.73-.19-.32-.39-.63-.59-.93-.22-.32-.43-.64-.66-.94-.22-.3-.45-.6-.68-.88-.21-.26-.42-.52-.64-.76-.06-.07-.13-.15-.2-.22-.2-.23-.41-.44-.62-.65-.22-.22-.44-.44-.67-.65-.06-.05-.12-.11-.19-.17-.24-.21-.48-.42-.72-.61-.28-.23-.56-.44-.84-.65 0-.01-.01-.01-.01-.01-.39-.28-.8-.55-1.22-.81-.43-.26-.87-.5-1.31-.72-2.67-1.34-5.71-2.05-8.8-2.05-3.07 0-6.02.69-8.65 2 0 0 0 0-.01.01-.6.29-1.18.62-1.74.99-.27.17-.53.35-.78.53-.16.11-.32.23-.48.36-.24.17-.46.35-.68.53s-.43.36-.64.55c-.06.05-.11.1-.16.14-.24.23-.48.46-.72.7-.31.31-.61.62-.89.95-.366.414-.709.847-1.045 1.287-2.303 3.046-4.143 6.972-5.625 11.933l-.33 1.12-.31 1.02-.04-.02-2.01-.85c-2.24-.93-4.67-1.41-7.24-1.41-1.02 0-2.03.07-3.04.22-.66.1-1.32.23-1.98.39-.01 0-.02.01-.02.01-.33.08-.66.17-.99.27-.66.19-1.32.43-1.97.69-.34.14-.67.28-1 .44-.19.08-.37.17-.56.27-.28.13-.56.28-.83.44-.28.14-.56.31-.83.48-.08.04-.17.09-.25.15-.27.17-.54.34-.8.53-.08.05-.17.11-.25.17-.29.21-.58.43-.85.65-.32.25-.64.51-.94.79-.3.27-.59.55-.88.83-.44.43-.85.89-1.23 1.36l-2.72 3.13-.37-4.76c-.05-.65-.11-1.27-.18-1.88-.07-.7-.16-1.38-.26-2.03-.17-1.12-.38-2.24-.64-3.35-.05-.22-.11-.44-.17-.65-.17-.67-.37-1.33-.58-1.96-.25-.73-.52-1.43-.83-2.11-1.05-2.38-2.43-4.46-4.05-6.14-.22-.24-.46-.47-.71-.7-.48-.45-.98-.86-1.5-1.24-.77-.56-1.59-1.05-2.43-1.44-.29-.14-.58-.27-.87-.38-.23-.09-.46-.17-.69-.24-.23-.08-.47-.15-.7-.22-.01 0-.01 0-.02-.01-.47-.12-.95-.23-1.44-.32-1-.17-2.03-.26-3.13-.26-1.73 0-3.62.22-5.81.68-.36.07-.73.16-1.11.25-.02-.01-.04 0-.05.01-.36.08-.74.17-1.12.27-.01 0-.02 0-.03.01l-4.17 1.07 1.18-2.46c2.49-5.15 4.97-10.36 7.23-15.68.34-.82.69-1.63 1.02-2.45.34-.82.67-1.64.99-2.47.27-.7.54-1.4.81-2.1.05-.13.1-.26.14-.38.31-.84.61-1.67.91-2.51.31-.87.61-1.76.9-2.64.26-.8.52-1.61.76-2.42.26-.85.51-1.7.75-2.56s.47-1.71.68-2.58c.2-.77.38-1.55.56-2.33.05-.23.1-.46.15-.7.16-.73.31-1.45.45-2.18 2.58-13.42 1.6-26.07-2.69-36.55-.74-1.81-1.58-3.55-2.52-5.23-.31-.56-.63-1.11-.97-1.65s-.68-1.07-1.04-1.6c-.66-.98-1.37-1.92-2.11-2.83-.75-.91-1.53-1.79-2.36-2.62-7.16-7.25-17.07-11.69-26.75-11.69-2.04 0-4.04.2-5.96.59-1.18.24-2.32.55-3.44.94-.97.34-1.92.72-2.83 1.14-.33.14-.64.29-.95.46-.41.19-.8.4-1.19.63-5.4 3-9.33 7.32-12.14 11.6-.25.36-.48.72-.69 1.08-.22.34-.42.68-.62 1.02-.38.64-.73 1.29-1.07 1.94-.12.23-.23.45-.34.67-.27.53-.52 1.05-.76 1.58-.12.26-.23.51-.34.76-.47 1.06-.89 2.12-1.26 3.17l-1.63 4.42-1.68-4.01c-.01-.02-.02-.05-.03-.08l-.26-.61c-.18-.44-.38-.88-.59-1.31s-.43-.86-.66-1.28c-.23-.4-.46-.8-.71-1.2-.01-.04-.04-.08-.07-.12-.25-.38-.5-.76-.77-1.14-.28-.39-.57-.78-.87-1.17-2.11-2.68-4.73-5.02-7.7-6.87 0-.01-.01-.01-.02-.01-.43-.26-.86-.51-1.3-.76-.88-.48-1.78-.93-2.7-1.32-.47-.2-.94-.39-1.41-.56-.49-.18-.98-.35-1.47-.51-.99-.32-2-.59-3.03-.81s-2.08-.4-3.15-.54c-.53-.07-1.07-.13-1.61-.17-1.09-.08-2.19-.13-3.3-.13-2.16 0-4.34.17-6.53.5-3.66.55-7.35 1.57-11.04 3.05-10.05 4.02-18.81 10.99-25.16 19.72-.6.83-1.18 1.68-1.74 2.54s-1.1 1.74-1.61 2.63c-.25.44-.5.89-.75 1.34-.49.9-.95 1.82-1.39 2.75 0 .01-.01.01-.01.01-.87 1.85-1.65 3.76-2.31 5.71l-.01.01c-.13.37-.25.73-.36 1.1-.36 1.12-.68 2.25-.96 3.39-1.31 5.26-1.86 10.7-1.65 16.11.02.43.04.87.06 1.3.02.28.04.55.06.82.02.3.05.61.08.91.02.25.04.51.07.76.05.48.1.97.17 1.45.17 1.43.41 2.85.7 4.25.09.48.2.96.31 1.43.02.12.05.25.08.37.1.41.2.81.3 1.21.37 1.46.81 2.9 1.3 4.32.16.49.34.97.52 1.46.17.46.35.92.54 1.37.12.32.26.65.4.97.19.46.39.92.6 1.37.05.12.11.23.16.35l1.97 4.22-3.71-1.24c-.24-.09-.48-.17-.71-.24-.97-.33-1.93-.61-2.89-.86-.48-.13-.95-.24-1.42-.34-.45-.1-.9-.19-1.34-.27-.05 0-.1-.01-.14-.02-.41-.07-.81-.13-1.21-.18-.44-.07-.87-.12-1.3-.16-.18-.02-.35-.03-.52-.04-.25-.03-.5-.04-.74-.05-.2-.02-.4-.03-.59-.03-.34-.01-.67-.02-1-.02-1.55 0-3.09.13-4.56.39-.28.05-.56.1-.83.16-.42.08-.83.18-1.23.3-5.19 1.39-9.63 4.57-12.18 8.78-.11.16-.21.32-.3.48l-1.34 2.36-1.51-1.6c-.11-.13-.23-.26-.36-.39-.15-.16-.31-.32-.46-.47-.01-.01-.02-.02-.03-.03-.16-.16-.32-.31-.49-.45-.31-.28-.63-.54-.96-.79-.13-.11-.26-.2-.39-.29-.22-.17-.45-.32-.68-.47-.18-.12-.36-.23-.54-.34-.29-.17-.58-.34-.88-.49-.19-.1-.38-.2-.58-.29-1.11-.53-2.29-.97-3.55-1.29-.23-.06-.46-.12-.7-.17-.25-.05-.5-.1-.75-.15-.34-.06-.68-.12-1.02-.17-.46-.07-.93-.11-1.4-.15-.59-.05-1.19-.07-1.78-.07-4.93 0-9.67 1.54-13.34 4.33-.26.2-.52.4-.77.62-1.23 1.01-2.34 2.12-3.32 3.3-.14.16-.28.33-.42.5-.56.7-1.07 1.42-1.54 2.16-.15.22-.29.45-.43.67-.45.73-.87 1.49-1.25 2.26-2.16 4.33-3.41 9.41-3.59 14.88l-.14 4.15-2.76-2.36c-.185-.169-.39-.32-.584-.482-.373-.31-.754-.612-1.154-.893-.017-.012-.034-.023-.051-.034-3.281-2.284-7.429-3.57-11.631-3.57-1.41 0-2.81.15-4.18.43-1.28.26-2.54.63-3.78 1.11-.26.09-.5.19-.75.3-.2.08-.4.17-.61.26-1.3.59-2.57 1.29-3.8 2.1v-153.011z" fill="#b2eaf9"/><path d="m466.377 441.468c-8.577 0-17.266-.829-25.669-1.631-7.061-.681-14.299-1.378-21.42-1.597-1.894-.053-3.639-.079-5.329-.079-8.758 0-17.598.602-26.146 1.185l-.526.036c-8.461.576-17.21 1.171-25.832 1.171l-.824-.002c-6.042-.021-12.462-.337-18.459-2.499-2.192-.793-5.922-2.628-6.29-6.026-.148-1.286.249-2.578.668-3.789 4.898-14.457 13.83-25.868 25.144-32.117 4.232-2.336 8.782-3.966 13.182-5.543 2.768-.99 5.903-2.112 8.915-3.446 6.277-2.77 12.157-6.526 17.843-10.16l.121-.077c3.317-2.121 6.748-4.314 10.225-6.301 9.793-5.583 18.405-8.296 26.33-8.296 1.612 0 3.218.116 4.772.344 8.631 1.275 17.076 6.109 25.818 14.779 2.715 2.694 5.275 5.599 7.751 8.407l.591.668c1.346 1.521 2.737 3.093 4.142 4.602 1.754 1.888 3.767 3.619 5.714 5.292l-1.224 1.585 1.303-1.518c2.826 2.426 5.496 4.718 7.622 7.595 5.222 7.011 7.563 16.55 5.96 24.293-.614 2.898-1.618 5.033-3.071 6.535-1.864 1.925-4.481 2.86-7.032 3.583-7.106 2.023-15.048 3.006-24.279 3.006z" fill="#bfc7d8"/><path d="m402.92 344.3h-.04l-402.88.74v-24.84l36.58-2.15c.74-.04 1.48-.09 2.23-.12.33-.03.66-.05 1-.06.51-.03 1.03-.06 1.54-.08.35-.02.71-.04 1.06-.05.37-.02.74-.04 1.11-.05.85-.04 1.69-.07 2.54-.09 1.21-.03 2.41-.05 3.61-.05 3.19 0 6.05.13 8.73.41 1.02.1 2.05.24 3.08.38.45.06.9.12 1.34.19.49.07.97.14 1.45.21.9.13 1.79.26 2.67.39.97.13 1.94.26 2.9.36.44.05.87.09 1.3.13 1.3.12 2.61.19 3.92.19.85 0 1.65-.03 2.43-.09.27-.02.53-.04.78-.07 2.3-.23 4.5-.73 6.84-1.25.47-.11.94-.21 1.42-.31.29-.07.58-.13.88-.19.12-.03.24-.05.37-.08.64-.13 1.26-.25 1.89-.35.49-.08.99-.16 1.49-.22.05-.01.09-.01.14-.02.28-.04.56-.07.84-.09.32-.03.64-.06.97-.07.39-.02.77-.03 1.15-.03 1.08 0 2.08.08 3.06.25.31.05.61.12.91.19.55.13 1.1.29 1.64.46.12.04.25.08.37.12.06.02.12.04.18.07.16.05.32.11.48.17.58.21 1.15.44 1.7.67.28.11.55.23.82.34.2.08.4.17.6.25l.31.14c.47.2.94.4 1.42.61.01.01.03.01.04.01.47.2.93.38 1.4.55.08.03.15.06.23.09.44.16.89.32 1.34.46l.81.24c.25.07.51.13.77.19.17.04.34.07.51.1.11.02.23.04.34.06.23.05.47.09.71.11.26.05.52.08.79.1.28.02.55.04.83.06.38.02.75.03 1.13.03.29 0 .57-.01.86-.02.3-.01.59-.03.89-.05.31-.02.63-.05.94-.09.04 0 .08-.01.12-.01.52-.06 1.04-.14 1.56-.22.01 0 .02 0 .03-.01.3-.05.59-.1.89-.17.29-.05.59-.11.88-.18.27-.05.55-.11.82-.18.02-.01.05-.01.07-.02.55-.14 1.1-.28 1.65-.43.11-.02.22-.05.33-.09 1.09-.31 2.19-.64 3.27-.99.61-.19 1.21-.38 1.82-.58 1.2-.39 2.39-.77 3.56-1.12.36-.11.73-.21 1.1-.32.73-.21 1.46-.4 2.19-.58.37-.09.73-.18 1.1-.26.02 0 .03 0 .04-.01.88-.2 1.76-.36 2.64-.48 1.19-.16 2.39-.26 3.58-.26 1.21 0 2.39.1 3.52.3.21.04.41.07.61.12.16.03.31.06.46.1.25.05.5.11.75.18.2.05.4.1.6.15.13.03.26.07.39.1.2.05.4.1.6.15.16.04.33.08.49.13l.39.09c.21.05.43.1.64.14.02 0 .03.01.05.01.1.02.19.04.29.06.43.09.86.16 1.3.2.44.05.89.08 1.34.08h.15c.18 0 .37-.01.55-.03.14-.01.27-.02.41-.04.14-.01.27-.03.41-.05.18-.03.36-.06.54-.1.16-.02.31-.05.46-.1.16-.03.32-.07.47-.12.16-.03.31-.08.46-.13s.31-.1.46-.15c.17-.06.35-.12.52-.19.68-.25 1.36-.55 2.04-.88.67-.32 1.34-.66 2-.99 1.26-.64 2.68-1.37 4.13-1.91.31-.12.63-.23.95-.33.25-.08.51-.16.76-.23.24-.06.47-.12.71-.18.22-.06.45-.11.67-.15.28-.06.57-.11.85-.16.31-.06.63-.1.96-.14.06-.01.13-.01.19-.02.26-.03.52-.06.78-.08.78-.08 1.59-.11 2.43-.11.26 0 .53 0 .79.02.54.01 1.08.04 1.62.08.53.03 1.06.08 1.59.14.83.07 1.66.19 2.5.32 1.55.23 3.11.52 4.7.84.52.1 1.04.21 1.56.31.1.02.2.04.3.06l.1.02c1.32.26 2.65.53 3.99.77.57.11 1.14.21 1.71.3.63.11 1.27.2 1.91.29.52.07 1.04.13 1.55.19 1.03.1 2.06.18 3.08.21.35.01.71.02 1.06.02.39 0 .77-.01 1.16-.02.29 0 .58-.01.87-.03.68-.03 1.36-.07 2.03-.13s1.35-.13 2.02-.2 1.34-.15 2.01-.24c.88-.11 1.75-.23 2.62-.35.45-.06.9-.12 1.34-.19h.03c.89-.12 1.77-.23 2.64-.34.89-.11 1.78-.2 2.68-.27.33-.03.66-.05.98-.07.33-.03.66-.05.98-.06.66-.03 1.32-.05 1.97-.05.95 0 1.86.04 2.73.11.88.08 1.73.19 2.56.33.46.08.92.17 1.38.27l.36.09c.03.01.06.01.09.02.32.08.63.16.95.25.87.24 1.74.52 2.6.82.3.1.6.21.9.33.2.07.39.14.59.22.38.14.77.3 1.15.45.44.17.88.35 1.32.54.45.18.89.36 1.34.55l.15.06c.42.18.86.36 1.31.54.34.14.7.29 1.06.43.61.25 1.24.5 1.88.74.12.04.24.09.35.13.38.14.76.28 1.14.41 1.17.4 2.34.75 3.52 1.07s2.37.59 3.57.83c.38.08.75.15 1.14.22.07.01.15.03.22.04.64.12 1.29.22 1.93.32.71.11 1.42.2 2.13.29 1.46.18 2.92.32 4.39.44.78.07 1.57.12 2.36.16.36.03.72.05 1.08.07.9.05 1.8.09 2.7.12.29.02.57.03.85.03.94.04 1.88.07 2.81.1.77.02 1.53.04 2.29.06l8.31.23 28 .76c.67.02 1.35.04 2.03.06.78.03 1.56.05 2.35.08.43.01.85.03 1.28.05.54.01 1.07.04 1.6.07.61.03 1.23.06 1.84.1 1.58.09 3.16.21 4.73.37s3.14.35 4.7.61c.52.09 1.04.17 1.56.27.56.1 1.13.22 1.69.33 1.06.22 2.12.46 3.16.71.07.02.13.03.19.04.56.13 1.1.26 1.65.39l.09.02c.85.21 1.72.42 2.62.62.44.1.88.2 1.33.3.44.1.88.19 1.33.28.29.06.58.12.87.17.43.09.86.17 1.3.24.44.08.87.15 1.31.21.43.06.87.12 1.31.17.47.06.95.11 1.44.15.38.03.76.06 1.15.08.33.02.66.04 1 .05.35.02.7.03 1.06.04.48.01.98.02 1.48.02 1.04 0 2.09-.02 3.13-.07.39-.01.78-.03 1.17-.05.2-.01.41-.03.62-.03.51-.04 1.02-.07 1.52-.11 1.01-.07 2.01-.15 2.99-.24.99-.09 1.97-.18 2.95-.28l24.47-2.32.67.8c.58.27 1.13.58 1.65.92.01 0 .02 0 .03.02.18.1.34.21.51.33.44.3.86.63 1.26.98.17.14.33.29.49.43s.32.29.47.45c.47.45.91.94 1.32 1.45.28.34.55.68.81 1.04.8 1.07 1.5 2.22 2.13 3.39.19.35.37.7.55 1.05.18.36.35.72.52 1.08.43.89.82 1.79 1.18 2.67l.28.68z" fill="#bfc7d8"/><path d="m393.14 326.66-1.25.12-1.7.16-24.47 2.32c-.98.1-1.96.19-2.95.28s-1.99.17-2.99.24c-.5.04-1.01.07-1.52.11-.21 0-.42.02-.62.03-.39.02-.78.04-1.17.05-1.04.05-2.09.07-3.13.07-.5 0-1-.01-1.48-.02-.36-.01-.71-.02-1.06-.04-.34-.01-.67-.02-1-.05-.39-.02-.77-.05-1.15-.08-.49-.04-.97-.09-1.45-.14-.43-.05-.87-.11-1.3-.18-.44-.06-.87-.13-1.31-.21-.44-.07-.87-.15-1.3-.24-.29-.05-.58-.11-.87-.17-.44-.09-.89-.18-1.33-.28-.45-.1-.89-.2-1.33-.3-.88-.2-1.76-.41-2.62-.62l-.09-.02-.25-.05c-.46-.11-.93-.22-1.4-.34-.06-.01-.12-.02-.19-.04-1.04-.25-2.1-.49-3.16-.71-.56-.11-1.13-.23-1.69-.33-.52-.1-1.04-.18-1.56-.27-1.56-.25-3.12-.45-4.7-.61s-3.15-.28-4.73-.37c-.61-.04-1.23-.07-1.84-.1-.54-.03-1.07-.05-1.6-.07-.43-.02-.85-.04-1.28-.05-.79-.03-1.57-.05-2.35-.08-.78-.02-1.56-.04-2.33-.06l-27.7-.76-8.31-.23c-.76-.02-1.52-.04-2.29-.06-.93-.03-1.87-.06-2.81-.1-.28 0-.56-.01-.85-.03-.9-.03-1.8-.07-2.7-.12-.36-.02-.72-.04-1.08-.07-.79-.04-1.58-.09-2.36-.16-1.47-.12-2.93-.26-4.39-.44-.71-.09-1.42-.19-2.13-.29-.64-.1-1.29-.21-1.93-.32-.07-.01-.15-.03-.22-.04-.39-.07-.76-.14-1.14-.22-1.2-.24-2.39-.51-3.57-.83s-2.35-.67-3.52-1.07c-.38-.13-.76-.27-1.14-.41-.11-.04-.23-.09-.35-.13-.64-.24-1.27-.49-1.88-.74-.36-.14-.72-.29-1.06-.43-.46-.19-.9-.38-1.31-.55-.49-.21-.99-.41-1.49-.6-.44-.19-.88-.37-1.32-.54-.38-.16-.77-.31-1.15-.45-.2-.08-.39-.15-.59-.22-.3-.12-.6-.23-.9-.33-.86-.3-1.73-.58-2.6-.82-.32-.09-.63-.17-.95-.25-.03-.01-.06-.01-.09-.02-.12-.03-.24-.06-.36-.09-.46-.1-.92-.2-1.39-.28-.83-.15-1.67-.25-2.55-.32-.87-.07-1.78-.11-2.73-.11-.65 0-1.31.02-1.97.05-.32.01-.65.03-.98.06-.32.02-.65.04-.98.07-.9.07-1.79.16-2.68.27-.88.1-1.76.22-2.64.34h-.03c-.44.06-.88.12-1.31.18-.88.12-1.76.24-2.65.36-.67.09-1.34.17-2.01.24s-1.35.14-2.02.2c-.68.05-1.36.1-2.03.13-.29.01-.58.03-.87.03-.39.01-.77.02-1.16.02-.35 0-.71 0-1.06-.01-1.02-.03-2.05-.11-3.08-.22-.51-.06-1.03-.12-1.55-.19-.64-.09-1.28-.18-1.91-.29-.57-.09-1.14-.19-1.71-.3-1.34-.24-2.67-.51-3.99-.77l-.1-.02c-.1-.02-.2-.04-.3-.06-.52-.1-1.04-.21-1.56-.31-1.56-.3-3.13-.6-4.7-.84-.84-.12-1.67-.23-2.5-.32-.53-.06-1.06-.11-1.59-.14-.54-.04-1.08-.07-1.62-.08-.26-.01-.53-.01-.8-.01-.83 0-1.64.03-2.42.1-.26.02-.52.05-.78.08-.06.01-.13.01-.19.02-.33.04-.65.09-.96.14-.28.05-.57.1-.85.16-.22.04-.45.09-.67.15-.24.06-.47.12-.71.18-.25.07-.51.15-.76.23-.32.1-.64.21-.95.33-1.45.54-2.87 1.27-4.13 1.91-.66.33-1.33.67-2 .99s-1.35.62-2.04.88c-.17.06-.35.13-.52.19-.15.05-.31.1-.46.15-.15.04-.31.09-.46.13-.16.04-.31.08-.47.12-.15.04-.31.07-.46.1-.18.04-.36.07-.54.1-.13.02-.27.04-.41.05-.14.02-.27.03-.41.04-.18.02-.37.03-.55.03h-.15c-.45 0-.9-.03-1.34-.08s-.87-.12-1.3-.2c-.1-.02-.19-.04-.29-.06-.02 0-.03-.01-.05-.01-.21-.04-.43-.09-.64-.14-.13-.03-.26-.06-.39-.09-.16-.05-.33-.09-.49-.13-.2-.05-.4-.1-.6-.15-.13-.03-.26-.07-.39-.1-.2-.06-.4-.11-.6-.15-.25-.07-.5-.13-.75-.18-.15-.04-.3-.07-.46-.1-.2-.05-.4-.08-.61-.12-1.13-.2-2.31-.3-3.52-.3-1.19 0-2.39.1-3.58.26-.88.13-1.76.29-2.64.48-.01.01-.02.01-.04.01-.37.08-.73.17-1.1.26-.73.18-1.46.37-2.19.58-.37.11-.74.21-1.1.32-1.19.36-2.38.74-3.56 1.12-.61.2-1.21.39-1.82.58-1.1.35-2.19.69-3.27.99-.11.04-.22.07-.33.09-.55.15-1.1.29-1.65.43-.02.01-.05.01-.07.02-.27.07-.55.13-.82.18-.29.07-.59.13-.88.18-.3.07-.59.12-.89.17-.01.01-.02.01-.03.01-.52.08-1.04.16-1.56.22-.04 0-.08.01-.12.01-.31.04-.63.07-.94.09-.3.02-.59.04-.89.05-.29.01-.57.02-.86.02-.38 0-.75-.01-1.13-.03-.28-.02-.55-.04-.83-.06-.27-.03-.53-.06-.79-.1-.24-.03-.48-.07-.71-.11-.11-.02-.23-.04-.34-.06-.17-.03-.35-.07-.52-.11-.26-.06-.51-.12-.76-.18-.27-.08-.54-.16-.81-.24-.45-.14-.9-.3-1.34-.46-.08-.03-.15-.06-.23-.09-.47-.17-.93-.35-1.4-.55-.01 0-.03 0-.04-.01-.51-.21-1.01-.43-1.53-.65-.26-.11-.53-.23-.8-.35-.27-.11-.54-.23-.82-.34-.55-.23-1.12-.46-1.7-.67-.16-.06-.32-.12-.48-.17-.06-.03-.12-.05-.18-.07-.12-.04-.25-.08-.37-.12-.54-.17-1.09-.33-1.64-.46-.3-.07-.6-.14-.91-.19-.98-.17-1.98-.25-3.06-.25-.38 0-.76.01-1.15.03-.33.01-.65.04-.97.07-.28.02-.56.05-.84.09-.05.01-.09.01-.14.02-.5.06-1 .14-1.49.22-.63.1-1.25.22-1.89.35-.13.03-.25.05-.37.08-.3.06-.59.12-.88.19-.48.1-.95.2-1.42.31-2.34.52-4.54 1.02-6.84 1.25-.25.03-.51.05-.78.07-.78.05-1.6.08-2.43.08-1.31 0-2.61-.07-3.92-.18-.43-.04-.86-.08-1.3-.13-.96-.1-1.93-.23-2.9-.36-.88-.13-1.77-.26-2.67-.39l-.58-.09c-.29-.04-.58-.09-.87-.12-.44-.07-.89-.13-1.34-.19-1.03-.14-2.06-.28-3.08-.38-2.68-.28-5.54-.41-8.73-.41-1.2 0-2.4.02-3.61.05-.85.02-1.69.05-2.54.09-.37.01-.74.03-1.11.05-.35.01-.71.03-1.06.05-.51.02-1.03.05-1.54.08-.34.01-.67.03-1 .06-.75.03-1.49.08-2.23.12l-36.58 2.15v-32.78c.15-.04.29-.08.44-.12 1.75-.51 3.52-1.02 5.29-1.53.1-.02.19-.05.29-.08 1.8-.51 3.61-1.01 5.43-1.5 1.35-.36 2.7-.72 4.06-1.07s2.72-.69 4.09-1.03c1.36-.33 2.72-.65 4.09-.97 1.37-.31 2.75-.61 4.12-.9 1.03-.22 2.05-.43 3.08-.63s2.06-.39 3.09-.58c1.03-.18 2.06-.36 3.09-.53 1.04-.17 2.07-.33 3.1-.48.04-.02.07-.02.11-.02.63-.09 1.26-.18 1.89-.26.74-.11 1.47-.2 2.21-.29.05-.01.1-.02.16-.02.64-.08 1.28-.15 1.92-.21.68-.08 1.37-.15 2.05-.21.04-.01.08-.01.12-.01.66-.06 1.32-.12 1.99-.17.71-.06 1.41-.11 2.12-.15.55-.04 1.1-.08 1.65-.1.73-.04 1.47-.07 2.2-.1 1.47-.05 2.94-.08 4.41-.08 1.04 0 2.07.01 3.09.05.67.01 1.33.03 1.99.06.8.03 1.58.08 2.36.13.79.05 1.57.11 2.34.18 2.36.21 4.71.49 7.07.83.02 0 .05.01.07.01 1.19.18 2.37.36 3.55.56 1.15.2 2.29.4 3.43.62.3.06.59.11.89.17.92.18 1.84.36 2.76.55 1.18.24 2.35.49 3.51.74 1.17.25 2.34.5 3.5.76 1.16.25 2.31.51 3.46.77l.15.03c.94.21 1.88.42 2.83.62.99.22 1.98.44 2.98.66.05.01.09.02.13.03.98.21 1.96.43 2.95.63.98.2 1.96.4 2.95.6l.15.03c1.3.26 2.6.5 3.9.74.28.05.55.1.83.14.57.1 1.14.2 1.72.29.6.1 1.21.2 1.82.29.44.06.89.13 1.33.19.35.05.7.1 1.05.15.48.06.95.12 1.43.18.68.08 1.37.16 2.05.23 1.35.14 2.71.26 4.07.35h.01c.68.04 1.36.08 2.04.11.37.02.75.03 1.13.05.39.01.79.02 1.19.03.8.01 1.61.02 2.44.02 2.5 0 5.01-.08 7.49-.18.04 0 .08 0 .12-.01.63-.03 1.26-.06 1.89-.1 1.21-.06 2.41-.13 3.6-.2.09 0 .19-.01.28-.02.57-.03 1.15-.07 1.72-.1l.15-.01c1.18-.07 2.36-.14 3.56-.2.03 0 .07-.01.1-.01 1.03-.06 2.07-.11 3.11-.16.2-.01.39-.02.59-.03 2.48-.1 4.98-.18 7.47-.18 1.3 0 2.56.02 3.78.06 1.23.04 2.41.1 3.56.19.58.04 1.14.09 1.7.14 1.12.11 2.2.24 3.26.39.35.05.7.1 1.04.15.18.03.35.06.52.09.39.06.78.13 1.17.2s.78.15 1.16.23c.39.07.78.16 1.16.25h.02c1.15.25 2.29.53 3.44.83.76.2 1.53.41 2.29.62.04.01.07.02.11.03.08.02.17.05.25.07.74.21 1.48.44 2.22.66 2.17.65 4.32 1.34 6.44 2.03l.16.06c.01.01.01.01.02.01l.62.2c.56.18 1.13.37 1.7.55.01 0 .01.01.02.01l2.15.68c1.88.59 3.82 1.18 5.8 1.72.66.18 1.33.36 2 .52 1.4.36 2.83.68 4.26.96.51.1 1.04.2 1.56.28.12.02.25.05.37.07.67.11 1.35.21 2.03.3.36.05.72.09 1.09.12.35.05.71.09 1.07.11.81.08 1.66.14 2.57.2.44.02.88.04 1.33.06.15.01.3.01.45.02.35.01.72.02 1.09.03h.08c.69.01 1.4.02 2.12.02.25 0 .5 0 .74-.01.25 0 .5 0 .75-.01.89 0 1.78-.02 2.67-.05.89-.02 1.76-.05 2.63-.09 1.26-.05 2.51-.11 3.75-.17h.13c.14 0 .27-.01.41-.02.65-.03 1.28-.06 1.9-.09.56-.02 1.11-.04 1.65-.06 1.73-.07 3.37-.11 5.03-.13.22-.01.45-.01.68-.01.23-.01.46-.01.68-.01 1.43 0 2.78.03 4.07.09 1.73.06 3.34.19 4.87.37l.24.03c.83.09 1.64.21 2.44.34l.26.04c.63.11 1.26.23 1.89.36.56.11 1.13.23 1.72.38l.27.06c.33.08.65.16.99.24 1.48.38 3.06.82 4.78 1.34l.71.22c.53.16 1.05.33 1.56.5l1.68.56c.93.31 1.85.61 2.75.91 1.52.51 3.01 1.02 4.5 1.5l2.07.66c.69.21 1.39.42 2.09.62.7.21 1.4.41 2.1.58.41.11.82.21 1.22.31.02.01.05.02.08.02.79.2 1.58.37 2.38.53.32.07.64.13.96.19.26.05.51.1.77.14.8.14 1.61.26 2.43.35l.81.09c.2.02.4.04.61.06.04.01.08.01.12.01.4.04.8.07 1.22.09 1.19.08 2.43.12 3.77.12 2.42 0 4.83-.12 7.2-.26l2.22-.15.14-.01c.79-.05 1.57-.1 2.34-.14.45-.03.9-.06 1.36-.08.25-.02.5-.03.75-.04 1.67-.09 3.36-.15 5.05-.15 1.56 0 3.03.05 4.42.16.32.02.64.05.95.08.67.06 1.32.14 1.95.23.31.05.63.1.94.15.37.06.74.13 1.1.19.82.16 1.64.35 2.45.56.34.08.68.17 1.01.27.29.08.58.16.88.25.31.09.62.18.94.28.39.13.79.26 1.19.39 1.05.34 2.11.73 3.17 1.14.52.2 1.04.4 1.56.61l1.56.63c1.04.42 2.06.85 3.08 1.27l.11.05c2.28.95 4.18 1.74 6.14 2.49l.66.25c.8.3 1.61.59 2.42.86 0 0 0 .01.01.01.25.08.5.17.76.25.53.17 1.07.34 1.61.5.08.02.17.05.25.07.44.13.88.25 1.33.36 1.62.43 3.26.77 4.92 1 1.6.22 3.27.36 4.94.48.29.02.57.04.85.06.23.01.46.03.69.04l.18.01c.93.06 1.85.12 2.76.2.5.04.99.08 1.48.13.29.02.59.05.88.08 4.27.44 8.16 1.25 11.25 3.43z" fill="#af7979"/><path d="m323.895 424.668c-7.077 0-14.203-.587-21.182-1.745-2.295-.383-4.704-.858-6.727-2.082-2.253-1.355-3.655-3.544-3.655-5.711-.014-2.445 1.602-4.497 3.405-6.557 4.323-4.953 8.794-10.076 14.168-14.086 8.18-6.095 18.569-9.578 29.253-9.806.396-.009.794-.013 1.191-.013 8.509 0 17.253 2.04 25.288 5.9l3.897 1.872-3.949 1.758c-1.442.642-2.716 1.271-3.896 1.923-9.883 5.467-17.858 14.705-23.063 26.715l-.572 1.319-1.39-.118-.037.003c-4.213.417-8.497.628-12.731.628z" fill="#d8deec"/><path d="m353.755 315.818c-1.964-.753-3.865-1.541-6.146-2.492l-.113-.047c-5.44-2.271-11.065-4.62-16.934-5.595-2.475-.411-5.178-.61-8.261-.61-3.193 0-6.4.21-9.501.413-3.121.202-6.345.411-9.557.411-2.086 0-3.957-.087-5.717-.267-6.693-.695-12.874-2.784-19.417-4.995-.903-.304-1.825-.608-2.748-.913l-1.686-.557.198-1.627c.65-5.335 1.322-10.68 2.012-16.015l.255-1.968 1.97.24c6.772.824 13.616.988 20.236 1.146l54.694 1.302.195 1.734c1.031 9.143 2.102 18.239 3.163 27.259l.443 3.766z" fill="#ed6d66"/><path d="m298.342 282.94c-6.604-.161-13.432-.327-20.183-1.144l-2.009-.243.267-2.006c1.043-7.852 2.191-16.067 3.414-24.417l.254-1.734 1.753.024c19.153.266 38.927.4 58.772.4h9.245l.176 1.806c.798 8.181 1.7 16.798 2.757 26.344l.252 2.274z" fill="#fff"/><path d="m341.509 253.824c-19.726 0-39.625-.133-59.146-.394l-2.288-.031.337-2.264c1.324-8.901 2.562-16.881 3.784-24.396l.279-1.715 1.737.036c15.412.318 31.107.479 46.648.479 4.245 0 8.491-.01 12.716-.04l1.868-.013.14 1.863c.609 8.085 1.304 16.254 2.067 24.28l.207 2.186z" fill="#ed6d66"/><path d="m332.46 225.536c-15.231 0-30.597-.153-45.67-.456l-2.308-.046.375-2.278c1.245-7.572 2.532-15.11 3.824-22.404l.3-1.693 1.719.042c1.593.04 3.177.069 4.771.069 5.744 0 11.543-.253 17.152-.498l.24-.01c5.275-.238 11.256-.507 17.218-.507 5.221 0 9.83.208 14.089.635l1.718.173.19 4.263c.297 6.352.695 13.068 1.217 20.535l.149 2.127-2.133.012c-4.272.024-8.559.036-12.851.036z" fill="#fff"/><path d="m295.472 198.768c-1.394 0-2.784-.015-4.17-.048l-2.333-.056.412-2.297c1.283-7.148 2.627-14.393 3.994-21.534l.295-1.539 1.565-.081c15.481-.81 31.392-1.437 47.291-1.862l1.904-.051.144 1.899c.527 6.944.828 13.947 1.119 20.72l.096 2.363.078 2.276-2.268-.217c-4.112-.393-8.545-.584-13.552-.584-5.861 0-11.874.266-17.179.501-5.698.251-11.569.51-17.396.51z" fill="#ed6d66"/><path d="m295.339 164.834 1.556-.081c12.611-.66 25.459-.995 38.186-.995 2.283 0 4.562.011 6.838.032l1.776.017.193 1.767c.128 1.176.238 2.352.346 3.519l.198 2.126-2.128.131c-15.346.421-30.847 1.033-46.072 1.818l-2.562.132z" fill="#f7b36f"/><path d="m343.66 163.35-.06-.51-.16-1.29c-.12-.91-.23-1.81-.35-2.71-.02-.18-.05-.37-.07-.55-.02-.11-.03-.23-.05-.34-.01-.04-.01-.09-.02-.13-.01-.1-.03-.19-.04-.29-.11-.72-.22-1.45-.34-2.18-.1-.58-.2-1.16-.31-1.74-.06-.33-.12-.67-.19-1-.21-1.04-.44-2.08-.71-3.12-.2-.76-.41-1.52-.65-2.27-.11-.39-.24-.78-.37-1.17-.04-.14-.09-.27-.15-.41-.16-.48-.34-.96-.53-1.44-.32-.82-.67-1.63-1.06-2.42-.09-.2-.19-.39-.29-.58-.3-.59-.61-1.16-.96-1.73-.19-.32-.39-.63-.59-.93-.22-.32-.43-.64-.66-.94-.22-.3-.45-.6-.68-.88-.21-.26-.42-.52-.64-.76-.06-.07-.13-.15-.2-.22-.2-.23-.41-.44-.62-.65-.22-.22-.44-.44-.67-.65-.06-.05-.12-.11-.19-.17-.24-.21-.48-.42-.72-.61-.28-.23-.56-.44-.84-.65 0-.01-.01-.01-.01-.01-.39-.28-.8-.55-1.22-.81-.43-.26-.87-.5-1.31-.72-.34-.17-.68-.32-1.02-.47-2.41-1.01-5.07-1.55-7.78-1.55-1.71 0-3.39.21-4.98.61-.26.07-.53.14-.79.22s-.51.16-.77.25c-.11.04-.22.08-.32.12-.11.03-.21.07-.31.12-.08.03-.16.06-.24.09-.11.04-.22.09-.33.14-.31.13-.61.27-.91.42 0 0 0 0-.01.01-.6.29-1.18.63-1.74.99-.27.17-.53.35-.78.53-.17.12-.33.23-.48.36-.24.17-.46.35-.68.53s-.43.36-.64.55c-.06.05-.11.1-.16.14-.24.23-.48.46-.72.7-.31.31-.61.62-.89.95-.36.41-.71.84-1.04 1.29-.29.38-.58.78-.84 1.18-.14.21-.27.41-.41.62-.13.22-.26.43-.39.65s-.26.44-.39.67c-.13.22-.25.45-.38.68-.79 1.45-1.47 2.99-2.04 4.6-.11.28-.21.56-.31.85-.11.29-.2.58-.3.87-.19.59-.39 1.19-.57 1.81-.12.37-.23.74-.33 1.12-.22.76-.43 1.53-.62 2.31-.13.53-.25 1.06-.37 1.59-.05.21-.1.43-.15.65-.25 1.11-.5 2.32-.79 3.73-.15.76-.31 1.53-.45 2.29l-.74 3.75h.01l2.55-.13c4.67-.24 9.35-.43 14.03-.58 1.55-.05 3.11-.09 4.66-.13 1.86-.05 3.71-.09 5.56-.12 1.25-.02 2.5-.04 3.75-.06.42-.01.84-.01 1.26-.01l3.15-.03c1.59-.01 3.16-.02 4.74-.02h.08c2.11 0 4.21.01 6.31.03l2.27.02h.01zm-15.09-14.8c-.03.24-.09.48-.15.72s-.14.47-.23.71c-.11.28-.23.55-.39.83-.07.14-.15.28-.24.41-.08.14-.17.27-.26.4-.14.2-.29.39-.45.58-.16.2-.33.39-.51.58-.12.13-.25.25-.38.38-.22.2-.44.4-.67.58-.03.02-.06.05-.1.08-.23.18-.47.36-.72.52-.03.02-.05.03-.07.05-.24.16-.48.3-.73.44-.01 0-.01.01-.01.01-.27.15-.54.28-.82.4s-.56.24-.85.34c-.26.09-.51.16-.77.23-.11.03-.22.05-.33.08-.22.05-.44.09-.65.12-.29.04-.58.07-.88.08-.08.01-.17.01-.26.01h-.09c-.24 0-.47-.01-.71-.03-.23-.02-.46-.05-.69-.09-1.39-.24-2.69-.82-3.73-1.66-.03-.02-.07-.05-.1-.08-.14-.12-.27-.24-.4-.36-.17-.17-.34-.34-.49-.53-.14-.17-.27-.35-.38-.53-.13-.18-.24-.37-.34-.56s-.2-.39-.29-.59-.17-.42-.23-.63c-.32-.98-.46-2.04-.41-3.12.02-.3.05-.6.09-.9 0-.03.01-.06.01-.09.01-.12.03-.24.07-.36.04-.2.08-.4.14-.59.2-.72.49-1.43.86-2.12.14-.29.3-.56.49-.82.09-.13.18-.27.27-.4.16-.25.34-.48.53-.71.03-.02.04-.05.06-.07.22-.27.44-.52.67-.75.29-.3.6-.6.93-.88.2-.18.4-.35.6-.5 1.46-1.13 3.14-1.74 4.87-1.74 1.82 0 3.59.71 4.98 1.99.07.05.13.11.18.17.09.08.18.18.26.27.01.01.02.02.02.03.03.04.07.08.11.13.05.04.09.09.12.14.06.06.12.13.16.2.01.01.02.01.01.02.08.09.15.19.21.29.29.39.52.8.71 1.2.08.16.16.33.22.5.09.19.17.39.23.6.07.19.13.38.18.56.06.17.11.35.15.53.05.19.09.37.12.56.02.1.04.21.05.32.03.14.05.28.06.41.03.2.05.41.06.63.04.63.03 1.32-.09 2.01z" fill="#ffd671"/><path d="m319.029 156.106c-2.427 0-4.721-1.031-6.136-2.758-1.558-1.924-2.069-4.745-1.34-7.372.633-2.3 2.198-4.518 4.406-6.242 1.459-1.151 3.146-1.763 4.871-1.763 1.84 0 3.561.692 4.977 2.001 1.527 1.408 2.233 3.306 2.557 4.651.333 1.356.575 3.395-.177 5.354-.42 1.103-1.17 2.176-2.228 3.183-1.867 1.757-4.255 2.825-6.561 2.939-.132.005-.251.007-.369.007z" fill="#f7b36f"/><path d="m298.16 151.26-.06.26-.27 1.31-.07.33c-.1.41-.2.83-.3 1.26-.05.21-.1.43-.15.65-.25 1.11-.5 2.32-.79 3.73-.15.76-.31 1.53-.45 2.29-.81 4.03-1.61 8.09-2.4 12.2v.01c-.88 4.56-1.75 9.17-2.6 13.83-.71 3.82-1.41 7.66-2.09 11.53-.1.56-.2 1.13-.3 1.69-.17.92-.33 1.83-.48 2.75-.66 3.7-1.3 7.42-1.93 11.16-.08.42-.15.85-.22 1.27l-.28 1.66-264.71.83c-2.01.01-4.04.01-6.07.04-2.07.02-4.19.05-6.33.11-.83.02-1.65.05-2.47.09-.25 0-.5.01-.74.03-.19.01-.37.01-.55.02-.61.03-1.23.06-1.84.1-.61.03-1.23.06-1.84.11-.4.02-.81.05-1.22.08v-65.59c1.23-.81 2.5-1.51 3.8-2.1.21-.09.41-.18.61-.26.25-.11.49-.21.75-.3 1.24-.49 2.5-.86 3.78-1.12 1.38-.28 2.8-.43 4.21-.43 4.294 0 8.38 1.324 11.601 3.581.017.012.034.023.051.034.4.283.783.582 1.154.893.059.049.125.092.184.142l.4.34c1.24 1.13 2.29 2.43 3.1 3.87-.65-6.27.12-13.92 3.39-20.54.38-.77.8-1.53 1.25-2.26.14-.22.28-.45.43-.67.47-.74.98-1.46 1.54-2.16.14-.17.28-.34.42-.5.98-1.18 2.09-2.29 3.32-3.3.25-.21.51-.41.77-.61 3.62-2.75 8.51-4.33 13.42-4.33.57 0 1.14.02 1.7.06.47.04.94.08 1.4.15.34.04.68.1 1.01.16.26.05.51.1.76.16.24.05.47.11.7.17 1.26.32 2.44.76 3.55 1.29.2.09.39.19.58.29.3.15.59.32.88.49.18.11.36.22.54.34.23.15.46.3.68.47.13.09.26.18.39.29.33.25.65.51.96.79.17.14.33.29.49.45.01.01.02.02.03.03.15.15.31.31.46.47.13.13.25.26.36.39.59.66 1.11 1.37 1.58 2.13.38-1.17.91-2.3 1.57-3.37 2.55-4.11 7.01-7.36 12.18-8.78.4-.11.81-.21 1.23-.3.27-.06.55-.11.83-.16 1.47-.26 3.01-.39 4.56-.39.33 0 .66.01 1 .02.19 0 .39.01.59.03.24.01.49.02.74.05.17.01.34.02.52.04.43.04.86.09 1.3.16.4.05.8.11 1.21.18.04.01.09.02.14.02.44.08.89.17 1.34.27.47.1.94.21 1.42.34.95.24 1.92.53 2.89.86.23.07.47.15.71.24 1.38.49 2.78 1.05 4.2 1.7-.96-1.63-1.83-3.31-2.62-5.03-.21-.45-.41-.91-.6-1.37-.14-.32-.28-.65-.4-.97-.19-.45-.37-.91-.54-1.37-.18-.49-.36-.97-.52-1.46-.49-1.42-.93-2.86-1.3-4.32-.11-.4-.21-.81-.3-1.21-.03-.12-.06-.25-.08-.37-.12-.47-.22-.95-.31-1.43-.29-1.4-.53-2.82-.7-4.25-.07-.48-.12-.96-.17-1.45-.03-.25-.05-.51-.07-.76-.03-.3-.06-.61-.08-.91-.02-.27-.04-.54-.06-.82-.02-.43-.04-.87-.06-1.3-.21-5.41.34-10.85 1.65-16.11.29-1.14.61-2.27.96-3.39.12-.37.24-.74.37-1.11.67-1.95 1.44-3.85 2.31-5.71 0 0 .01 0 .01-.01.44-.93.9-1.85 1.39-2.75.25-.45.5-.9.75-1.34.51-.9 1.05-1.77 1.61-2.63.56-.87 1.14-1.71 1.74-2.54 6.35-8.73 15.11-15.7 25.16-19.72 3.69-1.48 7.38-2.5 11.04-3.05 2.19-.34 4.37-.51 6.53-.51 1.11 0 2.21.05 3.3.14.54.04 1.08.1 1.61.17 1.07.13 2.12.31 3.15.54 1.03.22 2.04.49 3.03.81.49.15.98.32 1.47.5.48.18.95.36 1.41.57.93.39 1.83.83 2.7 1.32.44.25.87.5 1.3.76.01 0 .02 0 .02.01 3 1.86 5.62 4.2 7.7 6.87.3.39.59.78.87 1.17.27.38.52.76.77 1.14.03.04.06.08.07.12.25.4.48.8.71 1.2.23.42.45.85.66 1.28.32.63.6 1.27.85 1.92.01.03.02.06.03.08.76 2 1.25 4.07 1.44 6.18.44-2.13 1.06-4.35 1.87-6.59.37-1.05.79-2.11 1.26-3.17.11-.25.22-.5.34-.76.24-.53.49-1.05.76-1.58.11-.22.22-.44.34-.67.34-.65.69-1.3 1.07-1.94.2-.34.41-.68.62-1.02.22-.36.45-.72.69-1.08 3.07-4.63 7.09-8.76 12.14-11.6.39-.22.79-.43 1.19-.63.31-.16.63-.31.95-.46.91-.42 1.86-.8 2.83-1.14 1.12-.39 2.26-.7 3.44-.94 1.95-.41 3.97-.61 6.04-.61 9.64 0 19.52 4.45 26.67 11.71.83.83 1.61 1.71 2.36 2.62s1.46 1.85 2.12 2.83c.36.53.7 1.06 1.03 1.6.34.54.66 1.09.97 1.65.94 1.67 1.78 3.42 2.52 5.23 4.29 10.48 5.27 23.13 2.69 36.55-.14.73-.29 1.45-.45 2.18-.05.24-.1.47-.15.7-.18.78-.36 1.56-.56 2.33-.21.87-.44 1.72-.68 2.58s-.49 1.71-.75 2.56c-.24.81-.5 1.62-.76 2.42-.29.88-.59 1.77-.9 2.64-.3.84-.6 1.67-.91 2.51-.04.12-.09.25-.14.38-.27.7-.54 1.4-.81 2.1-.32.83-.65 1.65-.99 2.47-.33.82-.68 1.63-1.02 2.45-2.26 5.32-4.74 10.53-7.23 15.68-.42.87-.84 1.74-1.26 2.6 1.4-.43 2.82-.84 4.25-1.21.01-.01.02-.01.03-.01.38-.1.76-.19 1.12-.27.01-.01.03-.02.05-.01.38-.09.75-.18 1.11-.25 1.95-.42 3.89-.69 5.78-.69 1.11 0 2.15.09 3.16.27.49.09.97.2 1.44.32.01.01.01.01.02.01.23.07.47.14.7.22.23.07.46.15.69.24.29.11.58.24.87.38.84.39 1.66.87 2.43 1.44.52.38 1.02.79 1.5 1.24.25.23.49.46.71.7 1.62 1.68 3 3.76 4.05 6.14.3.68.58 1.38.82 2.11.22.65.42 1.3.59 1.96.06.22.11.43.17.65.26 1.11.47 2.23.64 3.35.1.68.19 1.35.26 2.03.29 2.71.38 5.44.48 8.13.68-1.65 1.62-3.21 2.79-4.62l.41-.47c.26-.3.54-.6.82-.89.29-.28.58-.56.88-.83.3-.28.62-.54.94-.79.27-.22.56-.44.85-.65.08-.06.17-.12.25-.17.26-.19.53-.36.8-.53.08-.06.17-.11.25-.15.27-.17.55-.34.83-.48.27-.16.55-.31.83-.44.18-.1.37-.19.56-.27.33-.16.66-.3 1-.44.65-.26 1.31-.5 1.97-.69.33-.1.66-.19.99-.27 0 0 .01-.01.02-.01.66-.17 1.32-.3 1.98-.39 1.02-.16 2.05-.24 3.08-.24 2.65 0 5.15.51 7.45 1.52z" fill="#fff"/><path d="m285.78 217.19-.39 2.34c-.18 1.08-.36 2.15-.53 3.23-.13.75-.25 1.5-.36 2.26 0 0-.01 0-.01.01-1.24 7.6-2.44 15.21-3.58 22.81-.08.54-.16 1.09-.25 1.64-.1.66-.19 1.31-.29 1.96-.09.65-.19 1.3-.28 1.96-.09.58-.18 1.15-.26 1.73-.03.2-.06.4-.08.59-.28 1.88-.55 3.76-.82 5.64-.39 2.73-.78 5.45-1.15 8.17-.33 2.36-.65 4.71-.96 7.06-.14.99-.27 1.98-.4 2.96-.09.67-.18 1.34-.26 2-.29 2.2-.57 4.4-.85 6.6-.13 1.03-.26 2.06-.39 3.1-.16 1.23-.32 2.47-.47 3.71-.16 1.27-.31 2.54-.47 3.81l-.29 2.37h-.01l-1.56-.48-.71-.22c-1.72-.52-3.3-.96-4.78-1.34-.34-.08-.66-.16-.99-.24-.09-.02-.18-.04-.27-.06-.59-.15-1.16-.27-1.72-.38-.64-.14-1.27-.26-1.89-.36l-.26-.04-1.15-.2v-.02l-.62-3.73-1.87-11.22c-.07-.43-.15-.86-.22-1.29-.12-.68-.23-1.35-.35-2.03-.11-.64-.23-1.28-.35-1.93-.08-.44-.17-.89-.26-1.34-.1-.45-.19-.9-.29-1.35-.49-2.24-1.08-4.49-1.83-6.68 0-.03-.01-.05-.02-.07-.04-.15-.09-.29-.16-.43-.33-.95-.7-1.89-1.12-2.81-.12-.28-.25-.55-.39-.83-.35-.73-.73-1.46-1.14-2.17-.05-.09-.1-.18-.16-.26-.05-.08-.1-.16-.15-.24-.09-.15-.19-.29-.29-.42-.15-.19-.3-.35-.45-.49-.19-.17-.38-.3-.58-.4l-.08-.04c-.18-.07-.37-.13-.57-.15-.06-.01-.13-.01-.2-.01-.39 0-.82.11-1.33.35-.24.12-.48.25-.71.39-.04.03-.08.05-.12.08-.18.11-.35.23-.52.36-.12.09-.24.18-.36.27-.09.08-.17.15-.26.23-.2.17-.39.35-.58.54-.18.18-.36.37-.53.56-.22.24-.43.48-.63.73-.29.35-.57.71-.84 1.07-.58.76-1.14 1.52-1.69 2.28-.28.37-.54.74-.8 1.12-1.09 1.55-2.11 3.09-3.09 4.63l-2.19 3.49-.12.19-.3-1.01-.04-.07-1.03-3.3-4.55-14.59c-.04-.14-.09-.29-.13-.44-.05-.17-.1-.35-.17-.52-.06-.17-.12-.35-.18-.52-.07-.17-.13-.35-.2-.52-.08-.18-.15-.35-.23-.52-.08-.18-.17-.35-.26-.52s-.19-.33-.3-.5c-.2-.29-.41-.56-.64-.79-.46-.49-.99-.86-1.55-1.09-.27-.11-.55-.19-.84-.23-.16-.02-.32-.03-.49-.03-.1 0-.2 0-.31.01-.07.01-.14.02-.21.03-.11.01-.22.03-.32.06-.11.03-.23.06-.34.09-.12.04-.23.08-.34.12-.03.01-.06.02-.1.04-.19.08-.37.17-.55.27-.75.42-1.53 1.05-2.37 1.92-.46.47-.91.96-1.34 1.46-.18.21-.37.43-.55.65-.28.34-.55.68-.82 1.02-.27.35-.54.7-.8 1.06-.18.24-.35.49-.52.73-.18.25-.35.5-.52.76-.66.97-1.29 2-1.91 3.09-.19.33-.37.66-.56 1-.03.06-.07.13-.1.19-.19.35-.38.72-.57 1.09-.81 1.55-1.59 3.21-2.37 5.01-.13.3-.26.61-.39.92-.13.3-.26.61-.39.93-.99 2.39-1.92 4.87-2.86 7.39l-.13.34c-.32.85-.65 1.73-.98 2.63-.37.97-.75 1.97-1.16 2.98-.38.96-.77 1.93-1.18 2.9-.4.97-.82 1.93-1.26 2.88l-.75 1.62v.01l-1.7-.56-.62-.2c-.01 0-.01 0-.02-.01-2.18-.7-4.38-1.41-6.6-2.09-.74-.22-1.48-.45-2.22-.66-.08-.02-.17-.05-.25-.07-.04-.01-.07-.02-.11-.03-.76-.21-1.53-.42-2.29-.62-1.15-.3-2.29-.58-3.44-.83-.01 0-.01 0-.02 0-.38-.09-.77-.18-1.16-.25-.38-.08-.77-.16-1.16-.23-.39-.08-.78-.14-1.17-.21-.17-.03-.35-.05-.52-.08-.34-.05-.69-.1-1.04-.15-1.06-.15-2.14-.28-3.26-.39-.56-.05-1.12-.1-1.7-.14-1.15-.09-2.33-.15-3.56-.19-1.21-.05-2.47-.07-3.76-.07-2.49 0-5 .08-7.49.19-.2.01-.39.02-.59.03-1.04.05-2.08.1-3.11.16-.03 0-.07.01-.1.01-1.24.07-2.48.14-3.71.22l-.16.01c-.52.03-1.03.06-1.56.08-.09.01-.19.02-.28.02-1.19.07-2.39.14-3.6.2-.63.04-1.26.07-1.89.1-.04.01-.08.01-.12.01-2.5.11-5.02.19-7.54.19-.81 0-1.61-.01-2.39-.03-.4-.01-.8-.02-1.19-.03-.38-.01-.76-.03-1.13-.04-.68-.03-1.36-.07-2.04-.12-.01 0-.01 0-.01 0-1.36-.09-2.72-.21-4.07-.35-.68-.07-1.37-.15-2.05-.23-.48-.06-.95-.12-1.43-.18-.35-.05-.7-.1-1.05-.15-.44-.06-.89-.13-1.33-.19-.61-.09-1.22-.19-1.82-.29-.58-.09-1.15-.19-1.72-.29-.28-.04-.55-.09-.83-.14-1.3-.24-2.6-.48-3.9-.74-.05-.01-.1-.02-.15-.03-.99-.2-1.97-.4-2.95-.6-.99-.2-1.97-.42-2.95-.63-.04-.01-.08-.02-.13-.03-1-.22-1.99-.44-2.98-.66-1-.22-1.99-.44-2.98-.66l-.23-.05c-1.07-.24-2.15-.48-3.23-.71-1.16-.26-2.33-.51-3.5-.76-1.16-.25-2.33-.5-3.51-.74-.92-.19-1.84-.37-2.76-.55-.3-.06-.59-.11-.89-.17-1.14-.22-2.28-.42-3.43-.62-1.18-.2-2.36-.38-3.55-.56-.02 0-.05-.01-.07-.01-2.35-.35-4.71-.63-7.08-.84-.77-.07-1.55-.12-2.33-.17s-1.56-.1-2.36-.13c-.66-.03-1.32-.05-1.99-.06-1.02-.04-2.05-.05-3.09-.05-1.47 0-2.94.03-4.41.08-.73.03-1.47.06-2.2.1-.55.02-1.1.06-1.65.1-.71.04-1.41.09-2.12.15-.66.04-1.32.1-1.99.17-.04 0-.08 0-.12.01-.68.06-1.37.13-2.05.21-.64.06-1.28.13-1.92.21-.06 0-.11.01-.16.02-.74.09-1.47.18-2.21.29-.63.07-1.26.16-1.89.26-.04 0-.07 0-.11.02-1.03.15-2.07.3-3.1.48-1.03.16-2.06.34-3.09.53-1.03.18-2.06.38-3.09.58s-2.05.41-3.08.63c-1.37.28-2.75.58-4.12.9-1.37.31-2.73.64-4.09.97-1.37.33-2.73.67-4.09 1.03-1.36.34-2.71.7-4.06 1.07-1.82.49-3.63.99-5.43 1.5-.1.03-.19.06-.29.08-1.77.51-3.54 1.02-5.29 1.53-.15.04-.3.09-.44.13v-68.83c.41-.03.82-.06 1.22-.08.61-.04 1.23-.08 1.84-.11.61-.04 1.23-.07 1.84-.1.18-.01.36-.01.55-.02.24-.01.49-.02.74-.03.82-.04 1.64-.07 2.47-.09 2.14-.06 4.26-.09 6.33-.11s4.11-.03 6.07-.04l264.71-.83z" fill="#1687cb"/><path d="m268.4 483.98-67.87 1.05-.45.01-.24-1.86c-.17-.49-.35-.96-.54-1.44-.01-.06-.03-.11-.06-.16-.16-.43-.32-.86-.5-1.28-.1-.25-.2-.51-.31-.75-.22-.55-.45-1.11-.7-1.65-.05-.13-.1-.25-.16-.36-.29-.69-.61-1.37-.94-2.04-.35-.74-.71-1.48-1.1-2.21-.37-.73-.76-1.46-1.16-2.17-.04-.08-.08-.15-.12-.21-.33-.61-.69-1.22-1.05-1.82-.04-.07-.08-.14-.12-.2-.4-.67-.8-1.33-1.23-1.98-.04-.06-.07-.11-.11-.16-.38-.61-.77-1.2-1.18-1.78-.13-.19-.26-.38-.39-.56-.28-.42-.58-.85-.9-1.26-.39-.55-.8-1.1-1.22-1.63-.3-.4-.61-.79-.92-1.17 0-.01-.01-.02-.02-.03-.32-.42-.66-.83-1.01-1.24-.49-.59-.99-1.17-1.5-1.74-.04-.05-.08-.09-.12-.13-.45-.51-.91-1.01-1.37-1.5-.09-.1-.19-.19-.28-.29-.53-.56-1.06-1.1-1.61-1.63-.57-.57-1.15-1.12-1.74-1.65-.58-.55-1.18-1.07-1.78-1.59-.43-.37-.87-.74-1.31-1.1-.54-.44-1.09-.87-1.64-1.3-.45-.34-.9-.68-1.36-1.01-.22-.17-.45-.33-.68-.49-.34-.25-.69-.49-1.04-.72-.14-.1-.28-.19-.42-.28-.55-.38-1.12-.75-1.68-1.11-.65-.41-1.3-.81-1.96-1.19-.29-.17-.59-.35-.89-.51-.16-.1-.32-.19-.48-.28-.34-.18-.68-.37-1.02-.55-.12-.07-.25-.14-.38-.2-.61-.32-1.23-.64-1.85-.95 0 0 0 0-.01 0-1.87-.91-3.77-1.74-5.7-2.48-1.55-.59-3.12-1.12-4.69-1.59-.59-.18-1.19-.35-1.79-.51-.59-.16-1.18-.3-1.78-.45-.8-.19-1.6-.36-2.4-.52-1.6-.31-3.21-.57-4.82-.75-.58-.07-1.16-.13-1.75-.18-.06-.01-.12-.01-.18-.02-1.95-.17-3.96-.25-6.01-.25s-4.14.08-6.32.24c-1.19.09-2.41.21-3.65.34-1.09.12-2.2.26-3.34.42-2.87.41-5.6.9-8.19 1.48-.65.14-1.29.3-1.92.45-1.62.4-3.19.84-4.7 1.33-.3.09-.6.19-.89.29-.43.13-.84.28-1.26.43-.38.14-.76.27-1.14.41-.06.02-.12.05-.19.08-.36.13-.72.27-1.08.42-1.37.54-2.69 1.12-3.96 1.75-.19.09-.38.18-.57.28-.95.47-1.87.97-2.76 1.49-.38.21-.76.44-1.13.67-.1.06-.19.11-.28.17l-.3.19-1.56.98v-.01h-.01c-.03-.04-.05-.08-.08-.12l-.94-1.41c-.21-.32-.41-.63-.61-.95-.4-.6-.79-1.21-1.19-1.82-1-1.49-2.09-2.9-3.26-4.25-.58-.66-1.18-1.31-1.8-1.94-1.24-1.26-2.55-2.45-3.92-3.54-.68-.55-1.38-1.08-2.09-1.58-.72-.51-1.45-.99-2.2-1.45-.37-.23-.74-.45-1.12-.67s-.76-.44-1.14-.64c-.38-.21-.77-.41-1.15-.61-.78-.4-1.57-.76-2.36-1.11-.8-.34-1.61-.66-2.42-.96-.41-.14-.82-.29-1.23-.42-.41-.14-.82-.27-1.24-.39-.94-.28-1.88-.52-2.83-.73-2.85-.62-5.77-.95-8.69-.95-.8 0-1.61.03-2.41.08-.42.02-.83.06-1.24.1s-.81.09-1.21.14c-1.02.13-2.03.31-3.03.53-6.11 1.35-11.73 4.22-15.94 6.58-1.62.91-3.22 1.85-4.79 2.82-.71.43-1.41.86-2.11 1.3-7.75 4.92-15.01 10.44-21.61 15.73v-21.7c1.44-1.14 2.88-2.28 4.32-3.4 4.21-3.29 8.43-6.48 12.71-9.54.71-.51 1.43-1.01 2.15-1.51.71-.5 1.43-1 2.15-1.49 1.15-.79 2.3-1.56 3.45-2.32.59-.39 1.19-.78 1.78-1.16.94-.6 1.88-1.2 2.82-1.78.92-.57 1.84-1.13 2.76-1.68.94-.56 1.88-1.11 2.83-1.65.75-.42 1.51-.85 2.26-1.26.45-.25.89-.49 1.33-.72.45-.24.9-.47 1.34-.71.52-.28 1.04-.55 1.57-.81 2.1-1.08 4.23-2.1 6.39-3.06.46-.21.92-.41 1.38-.6.43-.19.86-.37 1.28-.54 1.25-.53 2.47-1.01 3.66-1.45.47-.18.94-.35 1.4-.51.38-.14.75-.27 1.12-.39.5-.17 1-.34 1.5-.49.47-.15.94-.3 1.41-.43.39-.11.75-.22 1.13-.32.3-.09.61-.17.91-.25.45-.12.9-.23 1.35-.34.48-.11.96-.22 1.43-.32.4-.09.79-.17 1.18-.24.39-.08.78-.15 1.16-.21.39-.07.77-.14 1.16-.19 2.04-.31 4.05-.49 6.02-.54.45-.01.89-.02 1.34-.02 1.13 0 2.26.04 3.38.11.41.02.82.04 1.22.08.81.06 1.62.13 2.43.21.51.05 1.02.1 1.54.16 1.53.17 3.05.36 4.55.55l.17.02.33.05c.64.08 1.28.16 1.93.24.74.1 1.49.19 2.24.27.74.09 1.49.17 2.23.24.18.02.36.04.53.05.57.05 1.14.1 1.7.14 2.06.14 4.27.21 6.74.21 3.29 0 6.66-.13 9.63-.24 1.33-.05 2.66-.09 4.01-.13.46-.01.92-.03 1.39-.04.46-.01.93-.02 1.4-.03.93-.02 1.86-.03 2.79-.03 4.43 0 8.07.22 11.45.7 1.12.16 2.18.35 3.16.57.63.15 1.22.31 1.8.48.29.09.58.18.85.28 1.03.36 1.97.77 2.82 1.24.21.12.42.23.62.36.01 0 .02.01.03.02.21.12.41.25.6.39.12.08.23.16.35.25s.24.18.36.28c.12.09.24.19.35.29.17.14.33.29.49.45.19.17.36.35.53.54.1.1.19.2.28.31.14.16.27.33.4.49.17.22.33.45.48.69.14.21.27.42.39.64.08.13.16.27.23.41.08.13.15.27.21.4.13.25.25.5.36.76.08.17.15.34.22.52.08.21.17.42.24.63.14.37.27.75.4 1.14.12.36.22.72.33 1.09.23.81.45 1.63.66 2.44.13.52.27 1.04.41 1.56.12.45.25.91.38 1.35.1.35.21.7.33 1.04.11.35.23.68.36 1.02.06.16.12.32.19.47.02.06.04.11.07.17.06.15.12.3.19.45.05.13.11.25.18.37.09.21.19.42.31.63.05.11.11.22.18.33 0 .02.02.05.04.07.13.25.28.5.44.74.17.27.36.53.55.78.17.22.33.43.51.63.09.1.17.2.27.3.16.18.32.36.5.53.23.23.47.46.72.67.24.21.48.42.74.61.22.17.45.34.69.5.08.06.16.12.24.16.52.36 1.08.69 1.67 1 .12.07.24.13.37.19.5.26 1.02.5 1.56.72.25.11.5.21.76.3.22.09.44.17.67.25.38.14.76.26 1.16.38.64.2 1.3.38 1.99.54.3.08.6.15.91.21.66.15 1.34.29 2.05.4.14.03.28.06.42.08.17.03.33.05.5.07.98.16 1.96.29 2.95.42.31.05.63.09.94.13.28.03.57.07.86.11.28.04.57.08.85.11 1.17.16 2.32.33 3.45.53.57.1 1.14.21 1.71.33.56.11 1.1.23 1.64.38.97.24 1.93.53 2.87.89.24.09.47.18.7.27.24.09.46.19.69.29s.46.21.69.32c6.92 3.35 11.13 9.66 15.6 16.35.45.68.9 1.36 1.36 2.04 1.14 1.7 2.31 3.39 3.56 5.01.34.44.68.88 1.04 1.31.23.29.46.57.71.85.38.46.78.91 1.19 1.35.34.37.68.73 1.04 1.08.77.76 1.57 1.48 2.41 2.16.41.33.83.65 1.26.96.32.23.65.45.98.67.66.43 1.34.83 2.03 1.21.59.32 1.2.62 1.81.91.26.13.53.25.79.36.52.24 1.05.46 1.59.66.39.16.79.31 1.19.46.58.21 1.16.41 1.74.6.44.15.88.29 1.32.42.85.27 1.72.52 2.58.76.03.01.06.02.09.02.44.13.89.25 1.33.37.55.15 1.11.3 1.66.45l.33.09 1.05.28c.8.22 1.61.44 2.42.67.87.24 1.73.5 2.6.76.74.22 1.47.45 2.2.69.8.24 1.59.51 2.38.79.79.27 1.57.55 2.35.84s1.55.59 2.31.9c.28.11.56.23.84.35.65.27 1.29.55 1.93.85.45.2.9.42 1.35.64 1.36.66 2.69 1.37 3.97 2.14.43.26.86.53 1.28.8.3.18.59.37.88.57.35.23.71.48 1.05.73.31.22.61.44.91.67.76.58 1.51 1.19 2.23 1.83.24.21.48.43.72.65.06.06.13.12.19.18.27.25.54.51.8.78.1.09.19.19.29.29z" fill="#939baa"/><path d="m225.095 297.806 1.224-2.781c4.499-10.222 9.189-20.249 17.051-30.539 1.086-1.422 2.273-2.874 3.839-3.834v-1.987l2.895 1.447c.571.286 1.071.843 1.622 1.807 3.714 6.437 4.94 13.807 6.126 20.935l2.501 14.953-2.598-.254c-2.436-.238-5.053-.354-8-.354-3.325 0-6.52.139-10.351.321-3.207.148-6.838.316-10.387.316z" fill="#57aa6b"/><path d="m223.794 297.707c-1.754-.103-3.306-.244-4.745-.434-5.572-.718-10.986-2.272-16.006-3.844l-2.152-.674.927-2.056c1.673-3.712 3.117-7.567 4.39-10.969.982-2.642 1.95-5.225 2.984-7.732 3.318-8.068 6.662-13.592 10.842-17.908 1.671-1.733 3.115-2.542 4.54-2.542.166 0 .328.011.486.034 1.146.161 2.223.913 3.031 2.115.719 1.098 1.105 2.333 1.479 3.528l5.574 17.893.464.915-.498.997c-3.588 6.313-6.527 12.836-9.229 18.977.002-.003.003-.004.004-.004.004 0 0 .027-.005.054l-.308 1.755z" fill="#57aa6b"/><path d="m132.981 483.842c.354-3.391-1.342-6.856-2.959-9.838-4.66-8.582-10.156-16.906-18.737-19.681-2.07-.668-4.299-.997-6.455-1.314-3.552-.525-7.199-1.064-10.123-3.124-.931-.653-1.789-1.459-2.696-2.535l-1.488-1.765 1.958-1.222c7.397-4.614 16.58-7.642 28.071-9.254 4.797-.669 9.15-.994 13.31-.994 2.732 0 5.401.147 7.935.438 12.88 1.495 25.63 7.177 35.905 15.999 9.643 8.289 17.196 19.296 21.843 31.833l.982 2.651-67.781 1.048z" fill="#bfc7d8"/><path d="m132.88 484.48-.29 1.61-132.59 2.07v-38.9c6.6-5.29 13.86-10.81 21.61-15.73.7-.44 1.4-.87 2.11-1.3 1.57-.97 3.17-1.91 4.79-2.82 4.21-2.36 9.83-5.23 15.94-6.58 1-.22 2.01-.4 3.03-.53.4-.06.8-.1 1.21-.14 1.21-.13 2.44-.19 3.67-.19 2.91 0 5.82.33 8.67.96.95.21 1.89.45 2.83.73.42.12.83.25 1.24.39.41.13.82.28 1.23.42.81.3 1.62.62 2.42.96.79.35 1.58.71 2.36 1.11 1.16.58 2.3 1.23 3.41 1.92.75.46 1.48.94 2.2 1.45.71.5 1.41 1.03 2.09 1.58 1.37 1.09 2.68 2.28 3.92 3.54.62.63 1.22 1.28 1.8 1.94 1.17 1.35 2.26 2.76 3.26 4.25.4.61.79 1.22 1.19 1.82.2.32.4.63.61.95.3.47.62.95.94 1.41.03.04.05.08.08.12h.01v.01c.38.54.78 1.07 1.2 1.59.43.52.88 1.03 1.37 1.5.16.16.33.31.5.46.1.09.2.18.31.27.04.03.08.06.12.09.19.15.39.3.59.44 2.94 2.06 6.43 2.58 10.12 3.13l.84.12c.49.08.98.15 1.46.24.6.09 1.18.2 1.77.33.16.03.31.06.47.1.11.03.23.06.35.09.52.13 1.04.27 1.56.44.27.09.53.18.8.27.01.01.02.01.04.02.38.14.76.3 1.14.46.37.17.74.34 1.1.53.25.13.49.26.73.4.24.13.48.28.71.42.24.15.47.3.7.45s.46.31.68.48c.22.16.45.33.67.5s.43.35.65.52c3.55 2.91 6.37 6.81 8.8 10.85.97 1.59 1.86 3.2 2.72 4.78.18.34.36.68.55 1.03.29.57.59 1.16.86 1.75.15.32.29.65.42.97.09.21.17.42.25.63.47 1.27.81 2.57.9 3.88.05.73.01 1.47-.12 2.21z" fill="#d8deec"/><path d="m512 31.65v-4.01c-19.08-.69-38.4 10.46-46.75 27.74-3.45 7.16-5.31 16.91-1.42 24.75-7.58-.3-15.17 1.6-21.73 5.52-6.43 3.83-11.21 9.31-13.47 15.42-3.66 9.9-.78 20.45 3.16 29.43-15.59-6.6-35.68-2.26-46.51 10.9-2.02 2.46-4.95 6.78-5.72 11.89-9.71-8.49-24.85-10.51-36.34-4.56-1.72-6.58-4.71-13.13-10.51-17.34-6.94-5.04-16.81-5.31-24.01-.65-6.31 4.08-9.68 10.87-11.84 18.09-5.1-2.14-11.18-2.1-16.76.16-3.46 1.4-6.47 3.54-8.77 6.18-.27-3.48-.78-6.96-1.93-10.36-2.16-6.39-6.37-11.21-11.55-13.22-4.9-1.91-10.04-1.28-15.33.08 6.12-12.72 12.1-25.89 14.82-40.07 3.42-17.8.75-34.33-7.52-46.53-9.75-14.41-28.22-21.45-42.94-16.38-11.98 4.13-19.49 14.6-23.28 24.89-3.11-7.46-9.69-13.8-17.96-16.85-9.39-3.47-20.6-2.97-31.56 1.41-15.85 6.34-28.61 19.77-34.13 35.92-4.92 14.42-3.96 30.64 2.46 44.43-5.94-1.99-11.53-2.55-16.7-1.65-6.94 1.2-12.85 5.26-15.93 10.7-2.79-2.97-6.64-5.01-11.12-5.84-6.74-1.26-13.89.35-19.11 4.32-7.36 5.59-11.75 15.18-12.11 25.91-4.87-4.16-12.02-6.07-18.9-4.65-2.95.6-5.83 1.75-8.54 3.38v4.78c2.92-2.13 6.08-3.58 9.34-4.25 7.46-1.53 15.27 1.6 18.56 7.45.46.83 1.44 1.21 2.35.92.9-.28 1.48-1.16 1.38-2.11-.95-9.14 1.27-21.36 10.34-28.24 4.27-3.25 10.39-4.62 15.95-3.58 4.67.87 8.45 3.3 10.63 6.84.41.66 1.16 1.02 1.94.93.77-.09 1.42-.62 1.66-1.37 1.81-5.56 7.53-10.08 14.25-11.25 5.81-1.01 12.36.13 19.45 3.37.8.37 1.73.17 2.32-.48.58-.64.68-1.6.24-2.35-8.07-13.72-9.82-30.9-4.67-45.97 5.15-15.06 17.04-27.58 31.82-33.49 10.04-4.02 20.23-4.51 28.7-1.38 9.5 3.51 16.43 11.92 17.23 20.92.09.99.89 1.76 1.88 1.82 1 .06 1.87-.62 2.07-1.59 2.31-11.1 9.5-24.59 22.75-29.16 13.07-4.5 29.54 1.88 38.32 14.84 7.67 11.32 10.12 26.78 6.91 43.53-2.91 15.17-9.79 29.37-16.45 43.11-.34.72-.23 1.57.29 2.17.51.61 1.34.85 2.1.62 6.34-1.94 12-3.38 17.04-1.43 4.08 1.59 7.43 5.52 9.21 10.78 1.67 4.93 1.85 10.36 2.03 15.61.03.94.72 1.74 1.65 1.9s1.85-.35 2.2-1.22c1.72-4.25 5.4-7.78 10.11-9.69 4.71-1.9 9.81-1.93 14-.07.07.03.14.05.22.07-.47 1.92-.88 3.84-1.26 5.71-3.79 18.81-7.27 37.77-10.48 56.8l-263.03.82c-6.91.03-13.99.05-21.05.58v4.02c7.03-.54 14.14-.57 21.07-.6l262.35-.82c-4.39 26.4-8.22 52.92-11.43 79.33-3.24-.99-6.53-1.87-9.9-2.44l-2.26-13.57c-1.17-6.98-2.49-14.88-6.37-21.61-.43-.75-1.58-2.73-3.78-2.98-.82-.09-1.68.08-2.62.53-2.33 1.11-3.95 3.07-5.28 4.81-2.1 2.75-3.97 5.47-5.68 8.19l-4.63-14.83c-.39-1.27-.84-2.72-1.7-4.02-1.11-1.67-2.72-2.77-4.43-3.01-3.29-.47-5.89 2.21-6.74 3.09-4.36 4.51-7.83 10.23-11.26 18.54-1.06 2.59-2.05 5.24-3.01 7.8-1.4 3.74-2.85 7.6-4.53 11.26-.21-.07-.43-.14-.65-.21-6.04-1.96-12.29-3.99-18.71-5.06-9.74-1.62-19.68-1.02-29.29-.44-6.46.39-13.15.8-19.65.51-10.77-.48-21.59-2.9-32.04-5.24-9.27-2.06-18.85-4.2-28.51-5.05-24.25-2.1-48.68 4.02-70.95 10.54v4.16c22.22-6.53 46.65-12.79 70.61-10.71 9.39.82 18.84 2.93 27.97 4.97 10.63 2.37 21.62 4.83 32.74 5.32 6.71.3 13.5-.11 20.07-.51 9.39-.56 19.09-1.15 28.39.4 6.13 1.02 12.23 3 18.14 4.91 6.72 2.19 13.67 4.44 20.88 5.38 6.9.9 13.91.57 20.69.25 7.18-.33 14.61-.68 21.69.48 5.51.91 10.99 2.75 16.29 4.54 6.37 2.15 12.96 4.37 19.84 5.08 5.24.55 10.52.2 15.62-.13 6-.39 11.67-.76 17.3.18 5.69.94 10.99 3.16 16.61 5.51 5.92 2.48 12.04 5.04 18.6 5.93 2.21.31 4.54.46 6.8.61 5.88.39 11.51.76 15.34 3.47l-21.91 2.08c-6.01.57-12.23 1.17-18.24.46-3.29-.39-6.64-1.19-9.87-1.96-2.23-.53-4.52-1.08-6.83-1.51-6.88-1.27-13.91-1.46-20.71-1.64l-36.01-.99c-9.51-.26-19.35-.53-28.39-3.64-1.88-.65-3.78-1.44-5.62-2.21-3.58-1.49-7.27-3.03-11.26-3.73-5.56-.97-11.11-.21-16.49.53-3.78.52-7.7 1.06-11.47.95-3.93-.12-8.03-.95-12.01-1.75-7.42-1.49-15.09-3.04-22.45-.28-1.51.56-2.95 1.29-4.34 2-2.54 1.29-4.94 2.51-7.45 2.56-1.51.02-3.06-.37-4.71-.8-.96-.25-1.94-.5-2.96-.68-6.44-1.14-12.68.87-18.72 2.81-6.05 1.94-11.76 3.77-17.37 2.51-1.94-.43-3.8-1.23-5.78-2.08-2.31-1-4.7-2.02-7.32-2.49-4.47-.78-8.8.19-13 1.13-2.28.51-4.43.99-6.6 1.21-4.42.44-8.83-.21-13.51-.9-1.94-.28-3.95-.58-5.95-.79-7.46-.77-14.98-.33-22.25.09l-36.36 2.14v4.01l36.59-2.15c7.11-.42 14.47-.85 21.6-.11 1.92.2 3.89.49 5.79.77 4.71.7 9.58 1.42 14.49.92 2.41-.25 4.78-.78 7.07-1.29 3.99-.89 7.76-1.73 11.44-1.09 2.16.38 4.23 1.28 6.43 2.22 2.06.88 4.19 1.8 6.49 2.32 6.67 1.5 13.17-.59 19.46-2.61 5.83-1.88 11.34-3.65 16.8-2.68.87.15 1.74.38 2.66.61 1.83.48 3.72.97 5.79.93 3.43-.07 6.35-1.56 9.19-3 1.34-.68 2.62-1.33 3.92-1.82 6.29-2.35 13.08-.98 20.26.46 4.14.83 8.42 1.69 12.68 1.82 4.11.13 8.19-.43 12.14-.97 5.3-.73 10.31-1.42 15.25-.55 3.55.61 6.88 2.01 10.41 3.48 1.9.79 3.86 1.6 5.85 2.29 9.63 3.32 19.77 3.59 29.59 3.86l36.01.98c6.65.19 13.52.37 20.09 1.59 2.21.4 4.46.94 6.63 1.46 3.34.8 6.8 1.62 10.34 2.04 2.14.25 4.28.35 6.42.35 4.27 0 8.51-.4 12.66-.8l23.29-2.21c.17.2.39.37.64.49 4.92 2.33 7.72 7.39 9.95 12.79l-399.93.73v4l402.88-.73c.66 0 1.27-.33 1.65-.87.37-.54.45-1.23.21-1.85-2.32-6.06-5.26-12.71-10.88-16.45.09-.5-.01-1.03-.31-1.47-4.59-6.87-13.33-7.45-21.05-7.95-2.29-.15-4.45-.3-6.52-.58-2.49-.34-4.91-.95-7.31-1.71-3.79-32.18-7.68-65.3-9.79-98.25 30.34-1.4 61.23.25 91.11 1.84 22.02 1.17 44.67 2.38 67.18 2.38 1.61 0 3.22-.01 4.83-.02v-4.01c-23.97.19-48.25-1.09-71.79-2.35-30-1.6-61.02-3.25-91.57-1.84-.21-3.48-.4-6.97-.56-10.45-.13-2.77-.25-5.54-.37-8.3-.51-12.21-1.04-24.84-2.82-37.18-.21-1.44-.46-2.94-.75-4.47 11.48-6.6 27.66-3.64 35.91 6.78.39.49.97.76 1.57.76.28 0 .56-.06.83-.18.83-.38 1.3-1.29 1.13-2.19-1.1-5.79 2.53-11.26 4.79-14.01 10.92-13.26 32.3-16.55 46.7-7.18.76.49 1.75.41 2.42-.19.68-.6.86-1.58.46-2.39-4.64-9.23-9.47-21.18-5.57-31.72 1.94-5.26 6.12-10.01 11.77-13.38 6.88-4.11 15.37-5.78 23.29-4.6.83.13 1.63-.27 2.04-.99s.33-1.62-.2-2.26c-5.62-6.8-3.75-17.24-.43-24.11 7.71-15.94 25.55-26.2 43.15-25.47zm-288.09 264.06c-1.54-.09-3.08-.22-4.6-.42-5.28-.68-10.53-2.16-15.67-3.77 1.65-3.66 3.07-7.43 4.44-11.09.94-2.53 1.92-5.15 2.96-7.67 3.22-7.83 6.44-13.16 10.43-17.28 1.35-1.4 2.46-2.04 3.31-1.92.57.08 1.18.55 1.65 1.25.55.84.88 1.89 1.23 3.01l5.57 17.88c.03.12.08.23.14.34-3.53 6.21-6.39 12.5-9.32 19.16-.07.17-.11.34-.14.51zm15.4-.19c-3.68.17-7.43.34-11.16.31 4.67-10.61 9.26-20.25 16.81-30.13 1.1-1.44 2.3-2.9 3.82-3.63.3-.14.43-.16.43-.17.04.02.3.17.78 1.01 3.52 6.1 4.73 13.3 5.89 20.27l2.07 12.38c-6.24-.61-12.53-.33-18.64-.04zm59.17-136.33c2-9.93 4.6-20.06 12.4-25.09 5.74-3.72 13.94-3.5 19.48.52 7.15 5.19 9.4 15.13 10.57 23.2.19 1.32.36 2.64.52 3.97-14.49-.13-29.17.19-43.66.92.23-1.17.45-2.35.69-3.52zm-1.48 7.56c14.9-.78 29.99-1.1 44.9-.96.13 1.19.24 2.38.35 3.56-15.32.42-30.81 1.03-46.12 1.82.29-1.47.58-2.95.87-4.42zm-1.66 8.46c15.67-.82 31.55-1.44 47.24-1.86.54 7.11.84 14.25 1.14 21.24.02.59.05 1.18.07 1.76-10.36-.99-20.85-.54-31.01-.09-7.04.31-14.3.63-21.43.46 1.29-7.19 2.62-14.36 3.99-21.51zm59.13 138.74c-2.01-.77-4.03-1.61-6.09-2.47-5.58-2.33-11.35-4.75-17.49-5.77-6.09-1.01-12.26-.61-18.22-.22-4.94.32-10.04.65-14.94.15-6.45-.67-12.53-2.72-18.98-4.9-.95-.32-1.92-.64-2.89-.96.65-5.33 1.32-10.67 2.01-16 6.82.83 13.73 1 20.43 1.16l52.95 1.26c1.05 9.31 2.14 18.57 3.22 27.75zm-6.43-58.13c.86 8.81 1.79 17.61 2.76 26.37l-52.41-1.25c-6.58-.16-13.38-.33-19.99-1.13 1.08-8.13 2.22-16.26 3.41-24.39 19.5.27 39.23.4 58.8.4zm-.38-4c-21.67.03-43.62-.1-65.27-.39 1.21-8.13 2.46-16.25 3.78-24.37 15.49.32 31.13.48 46.69.48 4.25 0 8.5-.01 12.73-.04.61 8.11 1.3 16.22 2.07 24.32zm-2.36-28.32c-19.4.11-39.06-.03-58.47-.42 1.23-7.48 2.5-14.93 3.82-22.38 1.61.04 3.21.07 4.82.07 5.87 0 11.75-.26 17.48-.51 10.21-.46 20.76-.91 31.02.12.04.85.07 1.69.11 2.54.32 6.85.74 13.72 1.22 20.58z"/><path d="m235 463.6-1.05-.28c-5.88-1.59-11.96-3.22-16.79-6.67-4.94-3.53-8.56-8.96-12.06-14.2-4.42-6.64-8.99-13.5-16.41-17.09-4.47-2.16-9.35-2.8-14.08-3.42-1.42-.18-2.9-.38-4.32-.61-7.23-1.17-11.95-3.59-14.43-7.37-1.41-2.16-2.09-4.79-2.81-7.57-.9-3.49-1.84-7.1-4.33-10.03-3.68-4.32-9.46-5.58-13.49-6.15-7.13-1.01-14.38-.74-21.39-.49-5.32.2-10.83.4-16.16.03-2.94-.21-5.94-.59-8.84-.97-4.86-.62-9.89-1.27-14.95-1.12-8.16.23-16.7 2.45-26.85 6.98-17.22 7.7-32.47 18.84-47.04 30.36v5.11c15.12-12.06 30.9-23.87 48.68-31.81 9.65-4.32 17.7-6.43 25.33-6.65 4.74-.13 9.61.5 14.32 1.1 2.96.38 6.02.78 9.07.99 5.55.38 11.16.18 16.58-.02 6.84-.25 13.91-.51 20.69.45 5.38.76 8.87 2.28 11 4.78 1.9 2.24 2.68 5.25 3.51 8.44.77 2.98 1.57 6.05 3.34 8.76 3.12 4.77 8.73 7.76 17.13 9.13 1.48.24 2.99.44 4.45.63 4.61.6 8.96 1.17 12.85 3.05 6.44 3.12 10.51 9.23 14.83 15.7 3.69 5.55 7.52 11.29 13.05 15.24 5.42 3.87 11.85 5.61 18.08 7.28l1.05.28c11.13 3.01 22.31 6.89 29.78 14.59l-61.9.96c-.02-.16-.05-.33-.11-.49-4.73-13.2-12.59-24.77-22.72-33.48-10.57-9.08-23.7-14.93-36.98-16.47-6.54-.76-13.66-.57-21.76.56-11.86 1.67-21.39 4.84-29.07 9.67-.18-.27-.36-.55-.54-.83-.4-.63-.8-1.25-1.21-1.87-10.11-15-28.79-22.91-45.43-19.22-6.4 1.41-12.17 4.37-16.48 6.78-9.78 5.48-18.84 12.14-27.54 19.06v5.11c9.33-7.52 19.03-14.82 29.49-20.68 4.08-2.28 9.51-5.07 15.39-6.37 15.08-3.33 32.04 3.89 41.25 17.56.39.59.78 1.19 1.17 1.79 1.71 2.67 3.49 5.44 6.26 7.39 3.32 2.33 7.21 2.91 10.98 3.47 2.17.32 4.21.62 6.13 1.24 8.31 2.68 13.44 11.08 17.59 18.73 1.65 3.04 3.18 6.23 2.65 9.16l-130.91 2.04v4l268.03-4.18c.75-.01 1.43-.44 1.77-1.11.33-.67.26-1.47-.19-2.08-8.01-10.81-21.37-15.61-34.61-19.19zm-100.03 20.45c.41-3.92-1.4-7.7-3.19-11-4.86-8.95-10.63-17.64-19.88-20.63-2.23-.72-4.54-1.06-6.78-1.39-3.45-.51-6.72-.99-9.26-2.78-.87-.61-1.62-1.36-2.32-2.19 7.15-4.46 16.1-7.4 27.29-8.97 7.75-1.08 14.54-1.26 20.74-.55 12.49 1.45 24.86 6.97 34.83 15.53 9.4 8.08 16.74 18.79 21.27 31.01z"/><path d="m488.4 394.87c-1.99-1.71-3.88-3.33-5.55-5.13-1.59-1.71-3.17-3.51-4.7-5.24-2.5-2.83-5.08-5.77-7.84-8.5-9.06-8.98-17.87-14-26.94-15.33-9.63-1.42-20.22 1.26-32.38 8.19-3.52 2-6.97 4.21-10.31 6.35-5.67 3.62-11.52 7.37-17.7 10.1-2.84 1.25-5.86 2.34-8.78 3.38-1.51.55-3.05 1.1-4.58 1.68-9.59-5.25-20.13-7.91-30.51-7.69-11.09.23-21.89 3.86-30.4 10.21-5.54 4.13-10.09 9.34-14.48 14.37-1.56 1.78-3.91 4.47-3.9 7.88 0 2.85 1.77 5.7 4.62 7.42 2.33 1.4 4.95 1.92 7.44 2.34 7.1 1.18 14.29 1.77 21.48 1.77 3.77 0 7.54-.18 11.3-.5-.17.48-.36.95-.52 1.44-.48 1.42-.94 2.95-.76 4.63.36 3.32 3.06 6.05 7.6 7.69 6.26 2.26 12.89 2.6 19.13 2.62 9.09.04 18.28-.59 27.17-1.2 10.32-.7 20.99-1.43 31.44-1.11 7.03.22 14.25.91 21.23 1.58 8.56.82 17.27 1.65 25.94 1.65 8.36 0 16.68-.77 24.81-3.08 2.82-.81 5.73-1.86 7.92-4.12 1.73-1.79 2.9-4.25 3.58-7.52 1.72-8.27-.75-18.44-6.31-25.9-2.28-3.07-5.19-5.57-8-7.98zm-151.97 27.18c-11.13 1.1-22.36.73-33.39-1.1-2.1-.35-4.3-.78-6.02-1.82-1.63-.98-2.69-2.56-2.69-4-.01-1.76 1.37-3.48 2.91-5.24 4.26-4.88 8.66-9.92 13.86-13.8 7.85-5.85 17.83-9.19 28.1-9.41 8.64-.19 17.41 1.77 25.57 5.69-1.37.61-2.73 1.27-4.05 2-10.25 5.67-18.6 15.37-23.93 27.67-.12-.01-.24-.01-.36.01zm162.37 5.89c-.53 2.5-1.36 4.32-2.55 5.55-1.53 1.58-3.85 2.4-6.14 3.05-15.82 4.5-32.82 2.87-49.27 1.3-7.05-.68-14.33-1.38-21.49-1.6-1.79-.05-3.59-.08-5.39-.08-8.88 0-17.78.61-26.44 1.2-8.82.6-17.94 1.23-26.88 1.19-5.88-.02-12.1-.33-17.79-2.38-1.41-.51-4.72-1.96-4.98-4.36-.1-.87.21-1.88.57-2.92 4.74-13.99 13.34-25.01 24.22-31.02 4.04-2.23 8.34-3.78 12.89-5.41 2.99-1.07 6.07-2.18 9.05-3.5 6.46-2.85 12.44-6.68 18.23-10.38 3.3-2.11 6.71-4.29 10.14-6.25 11.35-6.47 21.1-8.99 29.82-7.71 8.19 1.21 16.27 5.86 24.7 14.22 2.66 2.64 5.2 5.52 7.66 8.31 1.55 1.75 3.14 3.56 4.77 5.31 1.83 1.97 3.89 3.74 5.88 5.45.02.02.05.04.07.06 2.73 2.35 5.33 4.57 7.32 7.27 4.9 6.58 7.1 15.5 5.61 22.7z"/><path d="m330.31 144.15c-.56-2.32-1.65-4.28-3.15-5.65-3.48-3.21-8.59-3.35-12.43-.34-1.8 1.4-4.15 3.81-5.11 7.28-.9 3.25-.24 6.76 1.72 9.16 1.78 2.19 4.68 3.5 7.67 3.5.16 0 .32 0 .48-.01 2.81-.13 5.59-1.36 7.83-3.47 1.27-1.2 2.19-2.52 2.73-3.91.74-1.93.83-4.19.26-6.56zm-3.99 5.11c-.32.84-.91 1.66-1.74 2.45-1.52 1.43-3.45 2.3-5.28 2.39-1.9.08-3.77-.69-4.86-2.02-1.15-1.42-1.52-3.55-.96-5.57.52-1.89 1.84-3.74 3.71-5.2 1.14-.9 2.41-1.34 3.64-1.34 1.3 0 2.56.49 3.62 1.47 1.15 1.06 1.71 2.57 1.97 3.65.27 1.1.46 2.71-.1 4.17z"/></svg>