<svg id="Capa_1" enable-background="new 0 0 512 512" height="512" viewBox="0 0 512 512" width="512" xmlns="http://www.w3.org/2000/svg"><path d="m512 366.64v145.36h-134.43c-1.03-.2-2.06-.41-3.08-.64-1.04-.22-2.08-.44-3.12-.68 0-.01-.01-.01-.02 0-2.06-.47-4.12-.98-6.17-1.51-.07-.02-.14-.04-.21-.06-1-.26-2.01-.53-3.01-.81-1.03-.28-2.06-.58-3.09-.88s-2.05-.61-3.08-.93c-1.02-.31-2.04-.64-3.06-.97-.8-.26-1.6-.52-2.39-.79-.73-.25-1.44-.49-2.16-.75-1.7-.59-3.38-1.2-5.06-1.84-.6-.23-1.19-.46-1.78-.69-.75-.29-1.51-.59-2.25-.89-.73-.29-1.46-.59-2.18-.89-.05-.02-.1-.04-.15-.06-.72-.3-1.43-.6-2.15-.91-2.17-.92-4.33-1.89-6.47-2.89-2.28-1.07-4.56-2.19-6.81-3.34-.46-.23-.88-.47-1.24-.71-.15-.1-.29-.2-.42-.3-.19-.14-.37-.28-.52-.43-.17-.16-.32-.32-.45-.48-.07-.09-.13-.17-.19-.26-.07-.1-.13-.2-.18-.31-.04-.06-.07-.12-.09-.18-.04-.08-.07-.17-.1-.26-.02-.03-.03-.07-.03-.11-.03-.11-.05-.21-.07-.32-.01-.1-.02-.21-.02-.31v-.06c.01-.13.02-.25.04-.36.02-.13.05-.25.1-.38.04-.12.09-.24.15-.35.05-.11.12-.22.2-.33.07-.1.15-.21.23-.3.08-.1.17-.19.27-.28.08-.08.16-.15.24-.22.09-.08.19-.15.29-.22s.2-.14.31-.21c.02-.02.04-.03.07-.05.14-.08.29-.17.44-.26.16-.09.32-.18.5-.26.03-.01.06-.02.09-.04.11-.05.22-.1.34-.15.11-.05.23-.1.36-.15.07-.03.13-.06.19-.08.78-.3 1.56-.59 2.34-.88s1.56-.57 2.34-.86c1.57-.57 3.14-1.12 4.72-1.65 1.18-.4 2.37-.79 3.56-1.18 2.38-.77 4.77-1.51 7.17-2.22 1.2-.36 2.4-.71 3.6-1.05 1-.28 2.01-.57 3.01-.84 1.01-.28 2.02-.55 3.03-.82 2.01-.53 4.03-1.05 6.06-1.56 1.01-.25 2.02-.5 3.04-.74 1.01-.25 2.02-.49 3.04-.73.8-.19 1.61-.38 2.42-.57 1.22-.28 2.45-.56 3.67-.83 3.24-.73 6.49-1.43 9.74-2.11 3.25-.69 6.49-1.35 9.73-2 3.23-.66 6.46-1.3 9.67-1.94 1.63-.33 3.28-.65 4.93-.98l2.7-.54c.83-.17 1.66-.33 2.49-.51 1.16-.23 2.33-.47 3.49-.71.1-.02.2-.04.3-.06 1.9-.39 3.8-.78 5.7-1.18 1.25-.26 2.5-.53 3.74-.8 1.24-.26 2.48-.53 3.71-.81 1.24-.26 2.47-.54 3.7-.82.18-.04.35-.08.52-.13.26-.07.51-.14.75-.23.11-.04.23-.08.34-.13.12-.05.24-.1.36-.15.13-.05.25-.11.37-.17.04-.02.07-.04.1-.05.09-.05.17-.1.25-.15.09-.05.18-.11.27-.17.09-.05.17-.11.25-.17s.15-.12.22-.18c.05-.04.1-.09.15-.13.02-.02.04-.05.06-.07.04-.05.08-.09.12-.14.13-.14.25-.29.34-.46.05-.1.1-.2.15-.31.03-.09.06-.19.08-.29.02-.05.03-.11.03-.17.01-.01.01-.02.01-.03.02-.13.03-.26.02-.4 0-.03 0-.06-.01-.09 0-.08-.01-.15-.02-.22-.02-.09-.04-.19-.07-.28-.02-.1-.05-.19-.1-.28-.03-.07-.06-.14-.1-.21-.04-.08-.09-.16-.14-.24-.11-.16-.24-.32-.38-.47-.07-.08-.14-.15-.22-.22-.11-.11-.23-.21-.36-.31-.12-.1-.25-.19-.38-.28-.18-.12-.36-.24-.54-.34-.15-.09-.3-.17-.44-.25-2.05-1.14-4.16-2.17-6.3-3.12-.43-.19-.86-.37-1.29-.55-.41-.18-.83-.35-1.25-.52-.45-.18-.9-.36-1.35-.53-.24-.1-.49-.2-.74-.29-.67-.25-1.34-.49-2.01-.72-.58-.2-1.15-.4-1.73-.6-.03 0-.05-.01-.07-.02-.58-.19-1.16-.38-1.74-.56-.59-.19-1.19-.37-1.78-.54-1.84-.55-3.68-1.04-5.54-1.5-.48-.13-.97-.25-1.46-.36-.67-.16-1.34-.32-2.02-.47-1.62-.37-3.24-.71-4.86-1.03-.5-.1-1.01-.2-1.52-.29-.7-.14-1.41-.27-2.12-.4-2.83-.52-5.65-1-8.45-1.45-1.59-.26-3.19-.51-4.78-.75-3.19-.51-6.39-.99-9.59-1.44-1.6-.24-3.2-.47-4.8-.68-2.79-.4-5.59-.78-8.39-1.14-.72-.09-1.43-.18-2.15-.28-1.3-.16-2.59-.33-3.89-.49-1.61-.2-3.21-.4-4.82-.59-.02 0-.05-.01-.07-.01-1.7-.2-3.4-.4-5.11-.6-1.72-.2-3.45-.4-5.17-.6-2.58-.29-5.16-.57-7.74-.84-.87-.1-1.75-.19-2.62-.28-.61-.06-1.22-.13-1.83-.19-2.36-.25-4.73-.49-7.09-.72-1.4-.14-2.79-.28-4.19-.41-1.19-.12-2.38-.23-3.57-.34-1.85-.18-3.7-.35-5.55-.52-2.69-.25-5.38-.49-8.07-.73-1.68-.15-3.36-.3-5.04-.44-3.22-.29-6.44-.56-9.65-.83s-6.42-.54-9.61-.8c-5.37-.44-10.71-.88-16.04-1.31-2.42-.19-4.91-.4-7.47-.6-.54-.04-1.09-.09-1.63-.13-1.4-.11-2.81-.23-4.22-.35-.83-.07-1.67-.14-2.52-.2-2.52-.21-5.07-.42-7.64-.64-1.3-.11-2.6-.22-3.91-.33-.09-.01-.17-.02-.26-.02-1.72-.15-3.46-.3-5.21-.45-1.39-.12-2.77-.24-4.17-.36-5.57-.49-11.19-1.01-16.84-1.54-4.25-.4-8.49-.82-12.71-1.25v-.01l-.11-3.95v-.01c1.02-.16 2.05-.33 3.07-.5 1.03-.18 2.05-.36 3.07-.55s2.04-.39 3.06-.59c.82-.16 1.64-.33 2.46-.5 1.29-.26 2.57-.54 3.86-.83.89-.2 1.78-.4 2.68-.61 1.25-.29 2.5-.58 3.75-.88 6.24-1.51 12.45-3.16 18.59-4.85 2.45-.67 4.9-1.35 7.34-2.03l.15-.04c23.91-6.63 48.63-13.48 73.67-13.48 1.46 0 2.92.02 4.34.07h.01c.84.03 1.68.06 2.52.11 1.01.05 2.03.11 3.05.18.79.05 1.58.11 2.37.18.52.04 1.05.08 1.57.13.36.03.73.06 1.09.1.66.05 1.31.11 1.96.18.47.04.94.09 1.4.14.52.05 1.04.1 1.55.16.64.06 1.27.13 1.89.2.66.06 1.31.13 1.96.2l.29.03c.95.1 1.91.21 2.87.31 2.66.28 5.34.55 8.04.77.5.05 1 .09 1.5.12.9.07 1.8.14 2.7.19.35.02.71.05 1.07.06.58.04 1.17.06 1.76.09.13.01.26.01.4.02.54.02 1.08.04 1.63.05.29.01.58.02.87.02.16.01.33.02.49.01.7.02 1.4.03 2.11.03.7 0 1.39-.01 2.07-.02.67-.01 1.34-.03 1.99-.06.44-.02.87-.04 1.3-.06.36-.02.72-.04 1.07-.06l6.08-.33-5.08 3.47c-.02.01-.03.01-.04.03l-.79.54c-1.33.91-2.58 1.9-3.74 2.97-.28.26-.57.54-.85.82-.09.09-.19.19-.29.29-.26.27-.51.54-.76.81l-.17.19c-.39.43-.76.88-1.13 1.33.39.53.85.96 1.38 1.31l.39.23s.01 0 .01.01c.18.12.37.22.56.29.38.19.77.34 1.18.47.22.08.44.15.67.21.58.16 1.16.28 1.73.38.26.04.54.09.81.13.68.11 1.37.2 2.05.3 2.06.27 4.13.5 6.2.68.28.03.56.05.84.07.7.06 1.39.11 2.08.16.19.01.37.03.56.04.73.05 1.46.1 2.18.14 3.16.19 6.27.32 9.23.44 2.35.1 4.72.2 7.09.33 1.29.07 2.59.14 3.88.23 1.09.07 2.17.16 3.26.25 1.2.1 2.39.21 3.57.34.6.07 1.19.14 1.78.21.55.07 1.1.14 1.64.21 1.23.17 2.46.36 3.68.57 1.17.21 2.35.44 3.51.69.11.03.22.05.32.07.21.05.41.11.6.17.08.03.16.06.24.09.1.04.2.08.29.12s.18.08.26.12c.17.09.33.18.46.28l1.93 1.29-1.56 1.55c-.08.09-.17.18-.26.26-.09.09-.18.17-.29.25-.1.08-.21.15-.32.22s-.23.15-.34.21c-.03.02-.07.04-.11.06-.19.11-.39.21-.59.3-.08.03-.15.07-.23.1-.74.31-1.49.62-2.25.91-.56.22-1.12.43-1.68.64-1.54.57-3.1 1.1-4.68 1.59-.41.13-.82.25-1.23.37-1.8.54-3.63 1.02-5.47 1.45l-.31.07c-1.7.39-3.45.79-4.89 1.78-.07.05-.14.1-.21.16-.09.07-.18.14-.27.22-.15.13-.29.27-.42.42-.14.15-.27.31-.39.47-.07.1-.14.2-.21.3-.06.1-.13.21-.18.32-.41.78-.59 1.63-.48 2.41 0 .04.01.09.03.14.01.11.03.21.07.32.26.88.88 1.58 1.58 2.15.14.11.28.22.42.32.14.12.29.22.44.3.14.1.28.18.42.27.51.31 1.03.6 1.55.88.23.12.46.24.7.35.31.16.63.31.95.46.2.09.4.18.6.26 1.4.61 2.83 1.11 4.29 1.52.56.16 1.13.31 1.7.45.43.1.86.2 1.3.29.39.08.79.16 1.19.23.03.01.06.01.09.02.37.07.74.13 1.12.19 1.9.3 3.8.5 5.7.63.42.03.84.06 1.27.08.88.05 1.75.09 2.61.11.43.01.86.02 1.28.03.86.02 1.7.03 2.54.04.73.01 1.46.01 2.2.01h.01c2.07 0 4.14-.02 6.2-.07 1.65-.03 3.3-.08 4.94-.14 1.37-.05 2.74-.12 4.11-.19 1.34-.06 2.67-.14 4-.23.13-.01.25-.02.38-.02.85-.06 1.7-.12 2.54-.18.09-.01.18-.01.28-.03.51-.04 1.24-.12 2.02-.3.1-.02.2-.04.31-.07.21-.05.43-.12.64-.19.32-.1.64-.23.93-.39.13-.06.25-.12.37-.2.18-.11.35-.23.51-.36.1-.08.2-.16.29-.26.03-.04.06-.07.09-.1.07-.06.12-.12.16-.19.12-.14.23-.3.31-.47.04-.06.07-.12.1-.19.07-.12.12-.25.16-.38l.01-.01c.03-.08.05-.16.06-.24.1-.4.11-.79.06-1.17-.09-.87-.55-1.66-1.15-2.33-.34-.39-.73-.77-1.17-1.1-.1-.08-.2-.16-.3-.23-.37-.28-.76-.53-1.15-.76-.06-.03-.12-.06-.17-.09-.25-.15-.51-.28-.76-.4-.57-.27-1.14-.53-1.72-.78s-1.17-.49-1.76-.72c-.32-.13-.64-.25-.96-.36-.52-.2-1.04-.38-1.57-.55-.43-.15-.86-.29-1.3-.41-.26-.09-.52-.16-.79-.23-.3-.1-.6-.17-.91-.25-.2-.06-.41-.12-.61-.17-.39-.1-.78-.19-1.17-.27-.27-.07-.54-.13-.81-.18-.13-.03-.25-.06-.38-.08-.57-.12-1.14-.23-1.72-.32-.67-.12-1.36-.22-2.04-.31-.26-.03-.52-.06-.78-.1-.13-.02-.26-.04-.39-.06s-.25-.04-.37-.06l-.07-3.93c.06-.02.13-.03.19-.03.28-.06.56-.11.85-.15.04-.02.08-.02.12-.02.21-.04.42-.07.64-.09.02 0 .03-.01.05 0 .28-.02.56-.05.84-.07.26-.02.53-.03.8-.05h.03c.02-.01.05-.01.08 0 .27-.01.55-.01.82-.01 1.74 0 3.51.17 5.19.43.63.09 1.24.19 1.84.31.2.04.4.07.59.11.78.15 1.51.31 2.2.46l1.45.32h.02c.96.22 1.94.44 2.92.65s1.96.4 2.94.56c.52.09 1.04.17 1.56.24 1.21.17 2.42.29 3.62.31.25.02.49.02.73.02.97 0 1.89-.05 2.78-.17.4-.05.8-.11 1.19-.19.04 0 .09-.01.14-.02.44-.08.86-.18 1.28-.29.05-.01.11-.03.17-.05.05-.01.09-.02.13-.04.47-.15 1.18-.45 1.44-1.06.2-.48.06-1.03-.07-1.42v-.02c-.04-.13-.09-.23-.12-.32-.15-.36-.31-.73-.48-1.09l-.24-.53c-.23-.49-.44-.96-.63-1.42-.33-.76-.6-1.52-.74-2.27-.16-.85-.16-1.65.1-2.42.03-.09.05-.18.09-.26.04-.12.1-.24.16-.36.1-.19.21-.36.35-.53.05-.06.09-.11.14-.17.17-.2.37-.38.59-.53.13-.1.27-.19.42-.27.14-.08.29-.15.44-.21.04-.02.07-.04.12-.05.13-.05.26-.1.4-.14.49-.14 1-.21 1.54-.21 1 0 2.02.26 2.85.74.21.12.41.25.6.39.15.11.29.22.43.34.16.13.31.27.46.42.15.14.29.29.43.45s.27.31.4.48c.13.16.25.33.37.5.08.12.16.23.23.34.15.23.3.46.43.7.34.57.62 1.15.87 1.71.13.27.25.54.36.8l.21.52c.07.18.15.37.21.51.03.06.05.11.06.15.01.02.02.03.02.05l.01.01v.02c.01.01.01.01.01.01.2.51.41 1.02.63 1.53.11.25.22.5.33.75.13.3.28.6.43.89.09.17.18.34.27.5.39.7.83 1.37 1.35 1.98.15.17.3.33.46.49.1.11.2.22.32.32.09.08.18.17.28.25.13.13.27.24.41.33.18.16.36.29.55.41.19.13.39.25.59.37s.41.24.62.34c.21.11.43.22.65.31.44.2.89.38 1.35.52.02 0 .03 0 .04.01 1.96.64 3.98.82 5.68.82.16 0 .31 0 .46-.01.37-.01.74-.02 1.12-.04.29-.02.57-.04.86-.07.16-.01.33-.03.49-.05.17-.02.35-.04.52-.06.34-.05.75-.11 1.19-.19.22-.04.46-.08.7-.14.18-.04.36-.08.55-.13.19-.04.39-.1.58-.15.27-.07.54-.14.8-.24.14-.04.27-.09.41-.14.14-.04.28-.09.41-.15.55-.2 1.1-.44 1.63-.72.22-.11.44-.23.65-.36.09-.06.18-.11.27-.17.23-.15.45-.3.66-.46s.41-.32.6-.49c.38-.33.74-.69 1.04-1.09.13-.16.25-.32.36-.49.08-.12.16-.24.23-.36.22-.37.41-.77.56-1.19.07-.15.12-.32.17-.48.14-.5.22-.98.25-1.46.04-.45.03-.9-.02-1.34-.03-.25-.07-.51-.13-.76-.03-.13-.06-.26-.1-.39-.02-.13-.06-.25-.11-.38-.12-.38-.27-.76-.45-1.13-.07-.14-.14-.28-.21-.41-.07-.14-.15-.28-.23-.41-.08-.14-.16-.27-.25-.41-.08-.13-.17-.26-.27-.39-.36-.53-.78-1.03-1.23-1.52-.1-.11-.21-.22-.31-.31-.21-.21-.42-.41-.65-.62-.22-.21-.45-.4-.68-.58-.24-.19-.48-.38-.72-.56-.11-.08-.21-.15-.31-.22-.1-.08-.21-.15-.32-.22-.14-.1-.29-.2-.44-.29-.22-.15-.45-.28-.67-.42-.19-.1-.37-.21-.56-.31-.14-.08-.27-.15-.41-.22-.87-.45-1.75-.85-2.65-1.23-.45-.19-.9-.37-1.36-.55-.91-.36-1.83-.69-2.75-1-.46-.16-.93-.31-1.39-.46-.03-.01-.06-.02-.09-.03-.94-.31-1.88-.61-2.82-.9-2.69-.85-5.47-1.72-8.12-2.84-.26-.1-.51-.21-.76-.32-.3-.13-.59-.27-.89-.41-.47-.22-.94-.46-1.41-.73-.1-.05-.2-.11-.3-.18-.29-.16-.57-.34-.84-.55-.88-.64-1.67-1.41-2.19-2.38 0 0-.01 0-.01-.01-.06-.13-.12-.25-.18-.38-.05-.12-.1-.24-.14-.37-.05-.18-.09-.36-.11-.56-.08-.58-.05-1.26.1-2.01.03-.16.07-.32.11-.49.03-.18.08-.36.14-.55.05-.16.1-.33.16-.5.08-.25.17-.5.28-.76.3-.78.67-1.56 1.06-2.32 0-.01.01-.03.02-.04.13-.25.27-.5.4-.74.28-.49.56-.96.83-1.41.07-.12.15-.25.23-.38l.18-.28c.56-.87 1.08-1.63 1.5-2.22l.05-.08.25-.55.02-.04.1-.24v-.01l.04-.07.03-.07 1.04-.13c4.38-.71 8.29-1.77 11.95-3.25.35-.14.71-.29 1.07-.44.4-.17.8-.35 1.21-.54.29-.13.58-.26.87-.4 1.73-.81 3.44-1.68 5.12-2.54 1.34-.68 2.68-1.36 4.02-2.01l1.11-.54c.56-.25 1.15-.52 1.71-.77l.97-.4c.4-.17.8-.33 1.19-.48.32-.12.63-.24.94-.34.72-.26 1.41-.49 2.09-.67.07-.03.14-.04.22-.06z" fill="#bfc7d8"/><path d="m512 308.86v57.77c-.07.01-.14.03-.22.07-.68.18-1.37.41-2.09.67-.31.1-.62.22-.94.34-.39.15-.79.31-1.19.48l-.97.4-.27.11-.95-.95c-.79-.79-1.57-1.58-2.34-2.38-.62-.62-1.22-1.25-1.82-1.88-.9-.93-1.8-1.88-2.68-2.83-.96-1.02-1.9-2.04-2.84-3.08-.95-1.03-1.88-2.07-2.81-3.12-1.86-2.09-3.69-4.21-5.49-6.35-.91-1.07-1.8-2.15-2.69-3.24-1.33-1.61-2.64-3.24-3.93-4.89-.82-1.04-1.64-2.09-2.44-3.15-.74-.94-1.45-1.89-2.16-2.84-.61-.79-1.2-1.59-1.79-2.39-1.49-2.02-2.95-4.06-4.39-6.12-.27-.37-.53-.74-.78-1.12-1.31-1.87-2.59-3.76-3.84-5.66-.65-.97-1.29-1.94-1.92-2.92-.37-.54-.72-1.09-1.07-1.64l-.46-.73-.01-.01 14.46-5.53 2.76-1.06 12.45-4.76c.19-.07.39-.15.59-.23.21-.08.42-.15.63-.21.11-.03.22-.06.32-.08.22-.06.44-.1.66-.12.09-.02.18-.02.26-.02.04-.01.07-.01.11-.01.07 0 .13-.01.2-.01.92 0 1.8.36 2.53.68.13.05.25.11.38.16 1.29.55 2.58 1.11 3.87 1.68.71.31 1.42.63 2.12.94.96.43 1.91.86 2.85 1.3.54.24 1.08.49 1.62.74 1.43.65 2.86 1.32 4.28 1.99z" fill="#939baa"/><path d="m478.2 0c-.01.1-.02.19-.03.28s-.02.18-.03.27c-.04.4-.09.79-.16 1.18-.05.39-.13.78-.21 1.17-.05.24-.11.47-.17.71-.01.02-.01.04-.02.06-.04.15-.08.3-.12.45-.1.34-.2.69-.31 1.02-.1.34-.22.67-.35 1-.09.26-.19.51-.3.76-.09.22-.18.43-.28.65-.09.22-.19.44-.3.65-.32.64-.66 1.28-1.03 1.91-.12.21-.25.42-.39.63-.13.21-.26.42-.4.62-.14.21-.28.41-.42.62-.25.36-.51.7-.77 1.04-.01.01-.02.03-.03.04-.13.17-.27.35-.41.52-.89 1.1-1.83 2.11-2.78 3.02-.17.18-.36.36-.55.52-.55.51-1.1.99-1.65 1.44-.18.16-.36.31-.54.44-.36.29-.71.56-1.06.82-.18.14-.35.26-.52.38-.34.25-.67.49-1 .71-.45.3-.91.6-1.38.89-.73.46-1.48.89-2.24 1.3-1.52.82-3.1 1.53-4.69 2.13-.4.16-.8.3-1.2.43-.32.12-.65.22-.98.32-.37.12-.75.23-1.12.33-.21.06-.42.12-.63.17-.49.13-.97.25-1.45.35-.26.06-.53.11-.8.16-.48.09-.95.17-1.42.24-.5.08-.99.14-1.47.18-.95.09-1.89.14-2.81.14h-.41c-.14.01-.29 0-.43-.01-.28-.01-.56-.02-.84-.04-1.11-.07-2.19-.21-3.24-.42-.26-.05-.52-.1-.77-.16-.27-.06-.53-.13-.79-.2l-3.83-1.04 1.45 3.7c.21.53.41 1.07.59 1.61.09.25.17.5.25.76.13.38.24.76.35 1.14.07.24.15.48.21.73.01.02.01.04.01.06.08.29.15.57.22.86.15.59.28 1.18.39 1.78.16.83.28 1.66.39 2.48.01.01.01.03.01.05.01.01.01.03 0 .04.08.56.13 1.12.17 1.68.02.29.03.57.05.86.02.28.03.57.03.85.05 2.28-.12 4.51-.52 6.65-.34 1.87-.87 3.68-1.58 5.39-.12.29-.25.58-.38.86-.24.52-.49 1.03-.77 1.53-.14.26-.28.51-.44.76-.2.34-.41.67-.63 1-.16.25-.33.49-.5.72-.18.25-.36.5-.55.74-.19.25-.38.49-.58.72-.19.23-.39.46-.59.68-.09.11-.19.22-.29.32-.2.21-.4.42-.6.62-.4.41-.82.8-1.26 1.18-.37.33-.76.65-1.16.95-.13.1-.25.19-.38.29-.27.2-.54.39-.82.58-.55.38-1.11.73-1.69 1.05-.29.16-.58.32-.87.47-.25.13-.51.26-.76.37-.51.25-1.02.46-1.55.66-.26.1-.52.2-.79.28-.26.1-.52.18-.79.25-.42.12-.85.24-1.28.33-.21.05-.42.09-.63.13-.29.06-.59.11-.88.15-.21.04-.42.06-.64.09-.21.03-.42.05-.63.07-.28.03-.55.05-.83.05-.29.02-.57.03-.86.03l-2.6-.01.65 2.51c.16.62.3 1.25.39 1.89.03.21.06.42.09.63s.05.43.07.64c.13 1.37.12 2.75-.02 4.12-.04.36-.09.72-.14 1.08-.06.36-.13.72-.2 1.08-.08.35-.16.7-.25 1.05-.14.53-.3 1.05-.48 1.56s-.38 1.01-.6 1.51c-.19.44-.4.86-.62 1.29-.11.21-.22.42-.34.63-.39.68-.83 1.35-1.31 1.98-.1.13-.2.27-.31.4-.17.22-.34.43-.53.64-.18.21-.37.42-.57.63-.28.3-.58.59-.88.87-.1.09-.21.18-.31.28-.41.37-.85.73-1.3 1.08-.15.12-.3.23-.46.34-.08.06-.17.12-.25.18-.17.13-.34.25-.52.37-.12.08-.24.15-.36.23-.39.25-.79.5-1.2.74-.27.16-.55.31-.83.46s-.56.3-.85.44c-.31.16-.63.31-.95.46-.25.12-.5.24-.76.34-.26.12-.52.23-.79.34-.26.12-.53.22-.8.33-5.19 2.02-10.73 3.04-16.45 3.05-9.28 0-18.55-2.81-26.09-7.91l-3.37-2.27.18 3.09c.03.31.05.64.07.96.03.42.05.83.06 1.24.02.49.03.98.03 1.47 0 .45-.01.9-.03 1.36 0 .23-.01.45-.03.68-.01.23-.03.46-.05.68-.02.4-.06.8-.12 1.19-.01.09-.02.17-.03.26-.05.43-.12.86-.2 1.29-.06.34-.13.67-.21 1-.05.24-.11.47-.17.7-.04.16-.08.32-.13.47-.08.27-.16.54-.25.8-.09.28-.19.56-.29.83-.11.32-.24.63-.38.93-.09.22-.19.44-.3.65-.12.26-.25.51-.38.76-.14.28-.3.55-.47.81-.12.23-.27.45-.42.66-.06.09-.13.19-.2.29-.11.19-.25.37-.4.55-.34.47-.73.93-1.14 1.35-.03.03-.06.06-.09.1-.03.03-.06.06-.09.1l-3.27 3.33 33.07.5c.25 0 .5.01.75.02.2 0 .4.01.6.02 1.25.04 2.68.18 4.01.62.22.07.44.15.66.24.18.06.34.14.51.23.14.07.28.15.42.23.13.08.27.17.4.26.15.1.29.21.43.33.16.13.31.27.45.42s.27.31.4.48c.08.11.15.22.21.33.04.04.06.06.07.1v.01c.06.09.11.18.15.28.05.06.08.13.1.19.06.11.11.22.15.34.06.14.12.29.16.43.06.17.1.34.14.51.03.09.05.18.06.28.03.12.06.24.07.36.03.14.05.28.06.42.13 1.16.09 2.37.01 3.5-.03.39-.05.78-.08 1.17-.12 1.78-.26 3.56-.4 5.35-.01.09-.01.18-.02.27-.07.93-.15 1.86-.23 2.8-.07.93-.14 1.87-.21 2.81-.03.39-.06.78-.08 1.17-.03.4-.05.79-.07 1.18-.05.8-.09 1.59-.12 2.39-.02.26-.03.53-.03.8-.01.22-.02.43-.02.65-.06 1.69-.08 3.38-.04 5.07.02 1.19.07 2.37.16 3.56.03.44.06.89.11 1.34.04.44.08.89.13 1.33.05.45.11.89.17 1.34.05.44.12.89.19 1.33.19 1.18.41 2.35.69 3.52.09.37.18.74.29 1.11.38 1.49.84 2.94 1.35 4.37.14.38.28.76.43 1.13.67 1.75 1.43 3.47 2.26 5.16.65 1.37 1.36 2.72 2.14 4.05.57.99 1.15 1.98 1.75 2.96.78 1.3 1.62 2.6 2.49 3.88 2.13 3.2 4.37 6.33 6.6 9.42l.12.17c.66.92 1.33 1.85 1.99 2.78s1.33 1.86 1.98 2.81c.49.7.98 1.4 1.46 2.11.31.44.61.89.9 1.34.19.27.37.55.55.83.33.48.64.96.94 1.44.36.55.71 1.1 1.05 1.66.26.41.51.82.75 1.23.3.49.59.97.87 1.46.08.13.36.65.36.65l.71 1.25c.16.29.31.58.47.88.26.46.49.94.72 1.41l.13.24c.57 1.11 1.12 2.23 1.65 3.36 1.07 2.25 2.06 4.54 3 6.85.31.78.62 1.55.93 2.33.24.6.47 1.2.7 1.81.67 1.73 1.31 3.47 1.93 5.2.96 2.69 1.89 5.37 2.82 8.03.26.76.53 1.52.8 2.29.55 1.56 1.11 3.15 1.67 4.74.28.78.56 1.56.84 2.34.96 2.64 1.96 5.26 3 7.88.02.02.03.05.03.07 1.04 2.64 2.12 5.27 3.25 7.89.56 1.31 1.13 2.62 1.71 3.92s1.16 2.6 1.76 3.9c1.04 2.28 2.12 4.54 3.23 6.8.24.5.49 1 .73 1.5s.49 1 .75 1.5c.34.69.69 1.37 1.04 2.06.42.84.86 1.69 1.31 2.54.27.52.54 1.04.82 1.56 2.41 4.58 4.94 9.11 7.6 13.58.36.62.72 1.23 1.09 1.84.4.67.8 1.34 1.21 2 .89 1.46 1.79 2.91 2.7 4.36l.25.4.26.42.01.01 14.45-5.54 2.76-1.06 12.45-4.77c.19-.07.39-.15.59-.22.21-.08.42-.15.63-.21.11-.03.22-.06.32-.08.22-.06.44-.1.66-.12.09-.02.18-.02.26-.02.04-.01.07-.01.11-.01.95.01 1.85.31 2.73.67.13.05.25.11.38.16 1.29.55 2.58 1.11 3.87 1.68.71.31 1.42.63 2.12.94.96.43 1.91.86 2.85 1.3.54.24 1.08.49 1.62.74 1.15.53 2.3 1.07 3.44 1.61l.84.39v-308.87zm-29.24 91.6c-.02.28-.04.56-.08.83-.03.31-.08.62-.14.93-.05.31-.12.61-.2.91-.06.23-.13.46-.21.69-.09.26-.18.51-.28.76-.07.19-.15.37-.24.55-.08.18-.16.35-.27.52-.06.14-.13.27-.21.39-.08.15-.17.29-.26.43-.14.21-.28.41-.43.61-.35.48-.75.92-1.19 1.33-.07.07-.15.14-.22.2-.07.08-.15.14-.23.2-.76.63-1.61 1.17-2.55 1.6-.19.09-.38.17-.58.25-.19.07-.39.14-.59.21-.19.06-.38.12-.57.17-.02.02-.04.02-.07.02-.2.05-.4.1-.6.14-.03.02-.06.02-.09.02-.09.03-.18.04-.27.05-.01.01-.03.01-.04.01-.14.02-.28.04-.41.06-.19.03-.38.05-.57.06-.09.01-.18.01-.27.02-.04.01-.09.02-.14.01-.25.02-.51.03-.76.03-.46 0-.94-.02-1.41-.07-4.09-.42-7.89-2.62-10.17-5.9-.18-.26-.35-.52-.51-.8-.13-.22-.26-.45-.37-.68-.08-.15-.16-.3-.23-.46-.11-.22-.2-.45-.29-.68-.04-.09-.07-.18-.1-.27-.02-.04-.04-.08-.05-.12-.05-.14-.1-.28-.15-.43-.01-.03-.01-.05-.02-.07-.1-.32-.19-.65-.27-.98-.05-.22-.1-.45-.13-.68-.04-.15-.06-.31-.08-.46-.01-.03-.01-.05-.01-.07-.04-.27-.07-.53-.09-.81v-.01c-.03-.33-.04-.66-.04-.98v-.01c0-.22.01-.43.02-.65s.03-.43.05-.65c0-.05.01-.09.01-.14.01-.05.01-.1.02-.14.02-.19.05-.37.09-.56.05-.31.12-.62.19-.93.09-.33.19-.65.3-.97.15-.44.33-.87.54-1.3.1-.21.21-.42.32-.63.23-.43.48-.85.77-1.26.12-.18.25-.36.38-.53.2-.28.42-.55.65-.81.12-.15.25-.29.38-.43.37-.4.76-.79 1.17-1.14.06-.06.13-.12.2-.18.35-.31.71-.59 1.09-.85.16-.12.32-.23.48-.34.5-.34 1.02-.64 1.55-.91.27-.14.54-.27.82-.38.29-.13.58-.25.87-.35.3-.11.6-.2.9-.28.3-.09.6-.16.9-.22.72-.15 1.45-.22 2.16-.22 2.72 0 5.15 1.09 7.01 3.16.31.35.61.71.89 1.09.08.12.17.23.25.35.13.16.24.33.35.51.07.09.13.17.17.27.02.02.03.04.04.06.05.07.1.13.13.21.02.02.03.04.03.06.05.09.11.19.17.28.07.1.13.21.18.32.06.1.11.21.17.32.12.21.23.43.33.65.13.25.24.5.34.76.02.05.04.09.06.14.09.21.18.42.25.64.11.29.21.57.3.86.1.29.18.59.26.88.06.21.12.43.16.65.07.27.12.54.17.81.05.24.09.48.12.72.01.12.03.24.05.36s.03.24.04.36c.02.25.04.5.06.75.02.15.02.29.02.43.03.58.02 1.15-.02 1.71z" fill="#5b5d6d"/><path d="m425.335 436.55c-8.73-.072-18.726-.566-26.886-5.543-1.107-.673-2.436-1.627-2.863-3.038-.571-1.869.67-3.776 2.065-4.756 1.438-.998 3.19-1.397 4.885-1.783l.315-.071c5.258-1.221 10.413-2.891 15.311-4.961 1.301-.547 2.811-1.49 2.634-2.888-.132-1.056-1.151-1.797-3.031-2.206-9.319-2.019-19.027-2.428-28.416-2.823-7.265-.299-15.431-.635-23.134-1.824-1.627-.25-3.49-.624-4.968-1.493l-2.122-1.247 1.654-1.822c4.773-5.256 11.225-8.817 18.169-10.026l.431-.595.708-.168c5.616-1.369 11.116-3.192 16.434-4.956l.213-.071c7.832-2.594 15.931-5.276 24.213-6.461 4.02-.579 8.441-.86 13.516-.86 5.228 0 10.444.292 15.488.573 5.006.274 10.163.558 15.224.558 3.39 0 6.423-.125 9.275-.382l4.031-.363-2.16 3.422c-2.862 4.535-3.958 8.134-3.087 10.134.916 2.102 3.008 3.318 4.933 4.231 3.134 1.477 6.509 2.541 9.773 3.571 3.755 1.175 7.549 2.362 11.063 4.167 4.933 2.552 9.257 7.357 7.807 12.347-1.493 5.201-8.052 6.597-10.802 6.956-1.12.143-2.245.215-3.347.215-4.899 0-8.72-1.438-11.05-4.157-1.395-1.632-2.219-3.676-3.016-5.654 0 0-.413-1.005-.514-1.24-.902-2.158-2.232-4.792-4.585-6.157-.83-.479-1.844-.744-2.85-.744-.532 0-1.049.072-1.538.214-1.111.321-1.982.995-2.457 1.899-1.029 1.965-.186 4.119 1.024 6.729l.236.526c.166.367.329.73.479 1.093l.074.202.827 2.058-2.149.564c-.116.035-.226.066-.34.092-1.657.441-3.406.655-5.346.655-3.934 0-7.919-.898-11.772-1.766l-1.481-.333c-2.757-.61-6.375-1.311-9.844-1.311-3.331 0-6.15.628-8.62 1.922.952 1.894 3.208 2.327 5.841 2.664 5.471.698 10.766 2.255 15.742 4.629 2.646 1.253 5.436 3.663 4.571 6.324-.882 2.714-4.86 3.023-6.167 3.125-7.288.553-14.749.834-22.179.834-.003 0-.005 0-.008 0-.736.003-1.47 0-2.204-.005z" fill="#ed6d66"/><path d="m175.347 417.527c-4.017-.451-8.034-.921-12.031-1.413l-.636.213-.637-.211c-11.145-3.744-23.113-7.53-35.115-9.863-4.868-.946-9.872-1.68-14.711-2.389l-.378-.055c-8.695-1.264-17.645-2.565-26.152-5.103-7.072-2.103-14.132-5.157-20.362-7.851-7.473-3.227-15.202-6.564-23.22-8.65-6.232-1.624-12.95-2.565-20.538-2.878l-.648-3.86c27.192-10.661 55.041-28.179 76.408-48.063 1.404-1.304 2.797-2.628 4.189-3.96 6.92-6.595 14.065-13.402 22.735-17.577 3.003-1.455 6.3-2.623 9.21-3.653 3.32-1.183 6.7-2.387 9.854-3.963 11.046-5.552 19.236-15.698 26.462-24.65l3.262-4.046c20.094-24.922 40.873-50.693 61.339-76.285l1.606-2.014c1.439-1.805 2.896-3.631 4.358-5.479l3.352-4.235.215 5.396c.068 1.715.335 3.203.815 4.547 1.03 2.898 3.792 6.016 7.424 6.016l.177-.002c2.798-.081 5.171-1.987 7.078-3.519l22.604-18.199 1.268 1.365c4.754 5.117 3.361 14.289-.731 20.2-2.272 3.277-5.034 5.971-7.958 8.823-2.836 2.767-5.715 5.575-7.95 8.814-2.573 3.711-4.307 7.975-5.984 12.098-1.975 4.835-3.81 9.325-6.85 13.259-3.855 4.999-9.034 8.345-14.517 11.887-2.352 1.521-4.738 3.064-6.959 4.723-8.127 6.035-14.742 14.051-19.134 23.184l-.764 1.638c-1.006 2.181-2.054 4.453-3.609 6.389-2.62 3.283-6.288 5.235-10.171 7.303l-.744.399c-.358.191-.716.382-1.07.577-8.607 4.69-16.352 10.723-23.026 17.936-.551.595-5.286 5.89-2.21 9.162.772.819 1.827 1.235 3.134 1.235 1.457 0 3.199-.519 5.037-1.5 8.126-4.33 14.952-10.8 21.553-17.058 5.581-5.294 11.288-10.708 17.744-14.878 2.183-1.412 4.607-2.776 6.555-3.873 4.258-2.399 8.656-4.876 12.292-8.245 2.063-1.921 3.921-4.168 5.717-6.341l.071-.086c2.975-3.619 6.054-7.365 10.227-9.692 1.355-.757 2.768-1.325 4.263-1.927l.271-.109c2.694-1.096 5.238-2.132 7.229-4.115 2.636-2.627 3.678-6.351 4.685-9.951l.35-1.257c1.871-6.485 4.56-12.699 7.997-18.486.882-1.469 1.865-2.96 3.378-3.724.512-.263 1.12-.406 1.746-.406 1.238 0 2.253.538 2.715 1.438.479.98.301 2.107.06 3.276l-5.111 24.564c-.825 3.97-1.742 8.384-1.091 12.598.564 3.705 2.722 8.226 7.088 9.816 2.003.73 4.146.74 6.414.749 2.791 0 5.686 0 7.964 1.65 3.574 2.596 3.671 7.923 3.433 11.705-.626 9.801-2.392 19.682-4.1 29.236-2.573 14.351-5.225 29.148-4.053 43.9.129 1.528.426 5.045 2.83 6.438.611.35 1.286.53 1.997.53 1.756 0 3.751-1.119 4.851-2.722 1.526-2.243 1.821-5.185 2.059-7.548l8.92-88.38c.509-4.968-.496-8.009-2.986-9.042-.586-.243-1.221-.356-1.994-.356-.688 0-1.404.091-2.096.18l-.365-1.97.255 1.984c-.671.086-1.364.175-2.018.175l-.121-.001c-5.505-.051-9.266-5.885-9.315-11.301-.044-5.01 2.198-9.688 4.366-14.212l.539-1.128c7.928-16.695 12.981-34.487 15.017-52.878l.081-.714c.37-3.423.72-6.659 2.227-9.606 1.011-1.976 3.095-4.361 5.915-5.129l2.566-.698-.351 22.978c-.04 2.704.34 9.079 4.712 9.861.301.054.594.081.872.081 2.849 0 4.783-3.059 6.49-5.759 1.387-2.208 2.809-4.472 4.756-5.625l2.087-1.235.815 2.284c1.659 4.644 1.733 9.678 1.806 14.547.417 27.714 1.062 56.023 1.919 84.165.064 2.274.143 5.097 1.425 7.382 1.033 1.822 3.037 3.099 4.869 3.099.51 0 1.007-.098 1.478-.291 1.457-.602 2.403-2.002 3.064-3.154 5.594-9.704 4.173-22.003 2.919-32.855l-.109-.912c-2.259-19.566-3.097-39.49-2.493-59.229.202-6.695 1.07-14.093 5.988-18.195l1.322-1.103 1.287 1.143c2.449 2.175 3.042 6.005 3.178 8.095.052.83.073 1.666.094 2.511.078 2.826.151 5.482 1.3 7.928.893 1.893 2.84 3.487 4.844 3.965.402.095.806.144 1.197.144.974 0 1.879-.305 2.616-.883 1.331-1.054 2.036-2.861 2.719-4.609.308-.787.552-1.38.775-1.867l2.879-6.308.922 6.873c1.957 14.588 4.904 29.177 8.758 43.362.552 2.029 1.237 4.542 2.941 6.287 1.012 1.04 2.575 1.71 3.985 1.71.91 0 1.7-.265 2.347-.788 2.103-1.7 1.657-5.15 1.443-6.808l-2.44-19.113c-.39-3.08.033-7.066 1.857-9.033.76-.798 1.67-1.193 2.724-1.193.059 0 1.358.003 1.358.003l.586 1.091c4.542 8.901 7.845 18.393 11.038 27.572 1.046 3.02 2.162 6.23 3.309 9.371 7.77 21.303 17.939 41.963 30.223 61.408l.249.395s.055.533.063.566l.42.243.251.356c12.174 19.01 26.285 36.691 41.939 52.554l1.961 1.986-2.511 1.218c-1.348.654-2.685 1.328-4.023 2.011-2.688 1.37-5.465 2.785-8.255 3.921-7.332 2.957-15.363 4.274-26.046 4.274-5.067 0-10.122-.281-15.474-.578l-.206-.011c-5.017-.275-10.206-.559-15.326-.559-5.063 0-9.479.282-13.499.861-8.281 1.194-16.383 3.872-24.218 6.46l-.21.069c-7.836 2.608-15.943 5.307-24.321 6.521-3.84.558-7.89.83-12.381.83-7.834 0-15.72-.839-23.347-1.651-6.155-.665-13.024-1.406-19.745-1.629-1.427-.046-2.889-.07-4.342-.07-25.045 0-49.763 6.854-73.667 13.483l-.15.042c-19.993 5.544-40.666 11.277-61.528 13.02l-.686.727z" fill="#775449"/><path d="m478.19 0c-.01.09-.01.19-.02.28s-.02.18-.03.27c-.04.4-.09.79-.16 1.18-.06.4-.14.79-.22 1.18-.05.24-.11.47-.16.7-.01.02-.01.04-.02.06-.04.15-.08.3-.12.45-.1.34-.2.69-.31 1.02-.1.34-.22.67-.35 1-.09.26-.19.51-.3.76-.09.22-.18.43-.28.65-.09.22-.19.44-.3.65-.31.66-.66 1.29-1.03 1.91-.12.21-.25.42-.39.63-.13.21-.26.42-.4.62-.14.21-.28.41-.42.62-.25.36-.51.7-.77 1.04-.01.01-.02.03-.03.04-.13.17-.27.35-.41.52-.89 1.1-1.83 2.11-2.78 3.02-.18.18-.37.35-.55.52-.55.51-1.1.99-1.65 1.44-.18.15-.36.3-.54.44-.36.29-.71.56-1.06.82-.17.13-.35.26-.52.38-.34.25-.67.48-1 .71-.48.33-.95.63-1.38.9-.73.46-1.48.89-2.24 1.29-1.52.82-3.1 1.53-4.69 2.13-.4.15-.8.3-1.2.43-.32.11-.65.22-.98.32-.37.12-.75.23-1.12.33-.21.06-.42.12-.63.17-.49.13-.97.25-1.45.35-.26.06-.53.11-.8.16-.48.09-.95.17-1.42.24-.5.08-.99.14-1.47.18-.95.1-1.88.15-2.79.15-.14 0-.29 0-.43-.01-.14.01-.29 0-.43-.01-.28-.01-.56-.02-.84-.04-1.11-.07-2.19-.21-3.24-.42-.26-.05-.52-.1-.77-.16-.27-.06-.53-.13-.79-.2-1.53-.41-3-.98-4.39-1.7.76 1.43 1.43 2.89 2.01 4.36.21.53.41 1.07.59 1.61.09.25.17.5.25.76.13.38.24.76.35 1.14.07.24.14.48.21.73.01.02.01.04.01.06.08.29.15.57.22.86.15.59.28 1.18.39 1.78.16.83.3 1.65.39 2.48.01.01.01.03.01.05.01.01.01.03 0 .04.08.56.13 1.12.17 1.68.02.29.03.57.05.86.02.28.03.57.03.85.07 2.27-.1 4.51-.52 6.65-.34 1.87-.87 3.68-1.58 5.39-.12.29-.25.58-.38.86-.24.52-.49 1.03-.77 1.53-.14.26-.29.51-.44.76-.2.34-.41.67-.63 1-.16.25-.33.49-.5.72-.18.25-.36.5-.55.74-.19.25-.38.49-.58.72-.19.23-.39.46-.59.68-.09.11-.19.22-.29.32-.2.21-.4.42-.6.62-.4.41-.82.8-1.26 1.18-.37.33-.76.65-1.16.95-.13.1-.25.19-.38.29-.27.2-.54.39-.82.58-.55.38-1.11.73-1.69 1.05-.29.16-.58.32-.87.47-.25.13-.51.26-.76.37-.51.24-1.03.46-1.55.66-.26.09-.52.19-.79.28-.26.09-.52.17-.79.25-.42.12-.85.24-1.28.33-.21.05-.42.09-.63.13-.29.06-.59.11-.88.15-.21.04-.42.06-.64.09-.21.03-.42.05-.63.07-.28.02-.55.04-.83.05-.27.01-.54.02-.82.02-.99 0-1.98-.08-2.94-.24.39.89.71 1.81.95 2.75.16.62.3 1.25.39 1.89.03.21.06.42.09.63s.05.43.07.64c.14 1.36.13 2.75-.02 4.12-.04.36-.09.72-.14 1.08-.06.36-.13.72-.2 1.08-.08.35-.16.7-.25 1.05-.14.53-.3 1.05-.48 1.56s-.38 1.01-.6 1.51c-.19.44-.4.86-.62 1.29-.11.21-.22.42-.34.63-.39.68-.83 1.35-1.31 1.98-.1.13-.2.27-.31.4-.17.22-.34.43-.53.64-.18.21-.37.42-.57.63-.28.3-.58.59-.88.87-.1.09-.21.18-.31.28-.41.37-.85.73-1.3 1.08-.15.12-.3.23-.46.34-.08.06-.17.12-.25.18-.17.13-.34.25-.52.37-.12.08-.24.15-.36.23-.39.25-.79.5-1.2.74-.27.16-.55.31-.83.46s-.56.3-.85.44c-.31.16-.63.31-.95.46-.25.12-.5.23-.76.34-.26.12-.52.23-.79.34-.26.11-.53.21-.81.32-5.07 1.98-10.55 2.99-16.26 2.99-10.95 0-21.82-3.83-29.83-10.5.15 1.11.28 2.28.37 3.48.03.31.05.64.07.96.03.42.05.83.06 1.24.02.49.03.98.03 1.47 0 .45-.01.9-.03 1.36 0 .23-.01.45-.03.68-.01.23-.03.46-.05.68-.02.4-.06.8-.12 1.19-.01.09-.02.17-.03.26-.05.43-.12.86-.2 1.29-.06.34-.13.67-.21 1-.05.23-.1.46-.16.69-.04.16-.09.32-.14.48-.08.27-.16.54-.25.8-.09.28-.19.56-.29.83-.11.32-.24.63-.38.93-.09.22-.19.44-.3.65-.12.26-.25.51-.38.76-.15.27-.31.54-.47.81-.13.22-.27.44-.42.66-.06.09-.13.19-.2.29-.13.19-.26.37-.4.55-.36.48-.74.93-1.14 1.35-.03.03-.06.06-.09.1-.03.03-.06.06-.09.1-1.16 1.17-2.47 2.13-3.88 2.81l-.55.5-.04.04-.73-.05-50.03-.76-.44-1.36c-.05-.16-.1-.32-.15-.48v-.02c-.61-2.18-.58-4.4-.1-6.53 0-.02.01-.04.01-.06.05-.23.11-.46.17-.69.87-3.16 2.68-6.07 4.79-8.26.2-.21.41-.41.62-.62.21-.2.43-.4.66-.59.53-.46 1.06-.87 1.58-1.23s1.04-.67 1.55-.94c.26-.14.52-.26.77-.37.26-.11.51-.21.77-.3s.52-.17.78-.24c.25-.07.51-.12.77-.17.48-.08.95-.12 1.42-.12.26 0 .51.01.76.04 1.74.16 3.3.88 4.34 2.04-1.96-2.46-2.46-5.53-2.11-8.61.03-.19.05-.39.08-.59s.07-.4.1-.6.07-.4.12-.61c.05-.19.09-.38.14-.57.04-.19.09-.39.15-.58.13-.44.27-.88.42-1.31.05-.18.11-.35.18-.52.09-.26.19-.51.3-.76.16-.39.33-.77.52-1.15.01-.02.02-.04.03-.07.17-.35.36-.71.55-1.06.05-.11.11-.22.18-.32.05-.11.11-.21.17-.32.25-.43.51-.85.78-1.26s.54-.82.82-1.22c.38-.54.77-1.06 1.18-1.58.3-.39.62-.77.94-1.14s.64-.74.97-1.1c.22-.24.45-.47.68-.71s.46-.47.7-.7c.23-.23.47-.45.71-.67.22-.21.44-.41.67-.6.26-.24.54-.47.81-.7.25-.21.51-.42.76-.62.52-.41 1.04-.8 1.58-1.18.54-.37 1.08-.74 1.63-1.09.56-.36 1.12-.69 1.69-1.01.57-.33 1.15-.63 1.74-.92.29-.15.59-.29.89-.42.29-.14.59-.27.89-.4.6-.27 1.21-.51 1.83-.73.3-.12.61-.23.92-.33.31-.11.62-.21.93-.31h.01c.63-.2 1.26-.38 1.89-.53.64-.15 1.28-.3 1.92-.42.28-.05.56-.1.84-.15.56-.1 1.12-.18 1.69-.24.28-.04.57-.07.85-.1 1.13-.1 2.28-.16 3.43-.16.48 0 .96.01 1.44.03.25.01.5.02.74.04.07 0 .13.01.2.01.06 0 .11.01.17.01s.13.01.19.02c.22.01.45.03.66.05h.01c.35.03.69.06 1.03.11.14.01.28.03.41.05.14.02.28.04.41.06.22.02.43.05.64.09.18.03.35.05.53.08.24.05.49.09.73.14.41.08.81.17 1.22.26.05.01.11.02.16.03.02.01.04.01.06.02.46.11.92.22 1.38.35.47.12.93.26 1.39.41 4.17 1.3 8.09 3.34 11.53 6.01l-9.53-9.35-7.62-7.47-.54-.54c-.95-.93-1.97-1.98-2.94-3.12-.3-.36-.6-.74-.89-1.12-.59-.77-1.11-1.55-1.53-2.36-.09-.17-.18-.34-.26-.5-.08-.17-.16-.34-.24-.51-.07-.17-.14-.35-.21-.52-.08-.2-.15-.4-.22-.6-.09-.27-.17-.54-.24-.82s-.13-.56-.18-.84c-.04-.25-.07-.5-.1-.76-.01-.2-.03-.39-.03-.59-.03-.43-.02-.86.02-1.3.04-.58.12-1.16.26-1.75.03-.14.06-.29.1-.44.04-.14.08-.28.12-.43.07-.25.15-.49.23-.74.09-.24.18-.49.28-.73.08-.21.17-.41.26-.61.11-.24.22-.48.34-.71.12-.24.25-.48.39-.71.1-.19.21-.37.33-.56 0 0 .01-.01.01-.02.12-.18.24-.37.37-.55.25-.38.52-.75.81-1.11.3-.37.61-.73.92-1.09.18-.2.37-.4.57-.6.17-.18.35-.36.53-.53.18-.18.36-.35.54-.52.18-.18.37-.35.56-.51.18-.17.37-.34.57-.5.19-.17.38-.33.58-.48 1.54-1.28 3.15-2.43 4.66-3.51-1.26-.16-2.5-.42-3.7-.77l-.05-.02-.39-.12c-.33-.1-.65-.21-.97-.33-3.52-1.3-6.68-3.41-9.06-6.06-.21-.25-.42-.49-.62-.74l-.01-.01c-.01-.01-.02-.02-.02-.03-.07-.08-.13-.16-.19-.24s-.12-.16-.18-.24c-.03-.03-.05-.07-.07-.1-.18-.24-.35-.48-.52-.73-.18-.26-.35-.52-.51-.79-.05-.09-.1-.18-.15-.27-.04-.09-.09-.18-.15-.26 0 0 0 0 0-.01-.19-.36-.38-.72-.55-1.09-.26-.57-.5-1.14-.69-1.72-.07-.19-.13-.39-.19-.58-.12-.39-.23-.79-.32-1.19-.05-.2-.1-.41-.13-.61-.01-.05-.02-.09-.03-.14-.02-.15-.05-.31-.08-.46-.04-.2-.07-.4-.09-.61-.16-1.26-.2-2.55-.1-3.81h143.73z" fill="#af7979"/><path d="m437.492 102.603c-.465 0-.939-.024-1.408-.073-4.091-.418-7.896-2.622-10.176-5.896-2.337-3.364-2.976-7.792-1.668-11.559 1.657-4.688 6.189-8.633 11.026-9.605.724-.147 1.456-.223 2.168-.223 2.721 0 5.143 1.095 7.004 3.167 3.771 4.195 5.456 10.716 4.096 15.857-.98 3.747-3.557 6.499-7.255 7.745-1.183.39-2.453.587-3.787.587z" fill="#af7979"/><path d="m434.13 455.18c.01.14 0 .27-.02.4 0 .01 0 .02-.01.03 0 .06-.01.12-.03.17-.02.1-.05.2-.08.29-.05.11-.1.21-.15.31-.09.17-.21.32-.34.46-.04.05-.08.09-.12.14-.02.02-.04.05-.06.07-.05.04-.1.09-.15.13-.07.06-.14.12-.22.18s-.16.12-.25.17c-.04.03-.07.06-.11.08-.05.03-.1.06-.16.09-.08.05-.16.1-.25.15-.03.01-.06.03-.1.05-.08.04-.16.08-.24.12-.04.02-.09.04-.13.05-.12.05-.24.1-.36.15-.11.05-.23.09-.34.13-.24.09-.49.16-.75.23-.17.05-.34.09-.52.13-1.23.28-2.46.56-3.7.82-1.23.28-2.47.55-3.71.81-1.24.27-2.49.54-3.74.8-1.9.4-3.8.79-5.7 1.18-.1.02-.2.04-.3.06-1.16.24-2.33.48-3.49.71-.83.18-1.66.34-2.49.51-.9.18-1.8.36-2.7.54-1.65.33-3.3.65-4.93.98-3.21.64-6.44 1.28-9.67 1.94-3.24.65-6.48 1.31-9.73 2-3.25.68-6.5 1.38-9.74 2.11-1.22.27-2.45.55-3.67.83-.81.19-1.62.38-2.42.57-1.02.24-2.03.48-3.04.73-1.02.24-2.03.49-3.04.74-2.03.51-4.05 1.03-6.06 1.56-1.01.27-2.02.54-3.03.82-1 .27-2.01.56-3.01.84-1.2.34-2.4.69-3.6 1.05-2.4.71-4.79 1.45-7.17 2.22-1.19.39-2.38.78-3.56 1.18-1.58.53-3.15 1.08-4.72 1.65-.78.29-1.56.57-2.34.86-.78.3-1.56.59-2.34.89-.07.02-.13.05-.19.07-.13.05-.25.1-.36.15-.12.05-.23.1-.34.15-.03.02-.06.03-.09.04-.18.08-.34.17-.5.26-.15.09-.3.18-.44.26-.03.02-.05.03-.07.05-.11.07-.21.14-.31.21s-.2.14-.29.22c-.08.07-.16.14-.24.22-.1.09-.19.18-.27.28-.08.09-.16.2-.23.3-.08.11-.15.22-.2.33-.07.11-.12.23-.15.35-.05.13-.08.25-.1.38-.02.12-.04.24-.04.36v.06c0 .1.01.21.02.31.01.11.03.22.07.32 0 .04.01.08.03.11.03.09.06.18.1.26.02.06.05.12.09.18.05.11.11.21.18.31.06.09.12.17.19.26.13.16.28.32.45.48.15.15.33.29.52.43.13.1.27.2.42.3.36.24.78.48 1.24.71 2.25 1.15 4.53 2.27 6.81 3.34 2.14 1 4.3 1.97 6.47 2.89.72.31 1.43.61 2.15.91.05.02.1.04.15.06.72.3 1.45.6 2.18.89.74.3 1.5.6 2.25.89.59.23 1.18.46 1.78.69 1.68.64 3.36 1.25 5.06 1.84.72.26 1.43.5 2.16.75.79.27 1.59.53 2.39.79 1.02.33 2.04.66 3.06.97 1.03.32 2.05.63 3.08.93s2.06.6 3.09.88c1 .28 2.01.55 3.01.81l.21.06c2.05.53 4.11 1.03 6.17 1.51.01-.01.02-.01.02 0 1.04.24 2.08.46 3.12.68s2.09.44 3.13.64h-240.57l76.73-16.84c.42-.09.84-.19 1.26-.28.31-.07.62-.14.93-.22.61-.14 1.22-.3 1.83-.48.31-.08.62-.18.93-.28.02 0 .05-.01.07-.02.6-.2 1.2-.42 1.78-.66.2-.08.4-.17.6-.26.2-.08.4-.18.59-.28.01 0 .02 0 .03-.01.38-.19.76-.4 1.12-.63.19-.11.38-.23.56-.36.27-.2.55-.4.81-.62.01-.01.03-.02.04-.04.28-.23.55-.49.82-.76.26-.27.51-.56.75-.85.14-.17.27-.34.39-.52.19-.26.37-.54.52-.82.47-.84.82-1.75 1-2.7.04-.22.07-.44.08-.66.03-.4.03-.8-.01-1.21-.02-.21-.05-.41-.09-.62v-.01c-.04-.2-.08-.4-.14-.6-.06-.22-.13-.44-.21-.66-.09-.27-.2-.53-.31-.79-.06-.13-.12-.27-.18-.4s-.11-.25-.18-.38c-.07-.16-.15-.33-.23-.5-.21-.44-.42-.89-.6-1.34-.06-.14-.12-.29-.17-.44-.04-.09-.08-.19-.11-.29-.06-.17-.11-.34-.16-.51-.03-.1-.05-.19-.07-.28-.07-.26-.12-.52-.14-.78-.02-.2-.03-.41-.03-.61v-.2c.01-.22.04-.43.08-.64.07-.43.19-.82.37-1.19.05-.11.1-.21.16-.32.11-.21.23-.41.38-.61.07-.09.15-.19.23-.29v-.01c.11-.12.22-.24.34-.36.32-.33.68-.64 1.09-.93.21-.15.42-.29.65-.42.17-.11.36-.21.55-.31.12-.07.25-.13.38-.19.26-.13.53-.25.81-.36.01 0 .01-.01.02-.01.25-.1.49-.19.74-.28.13-.04.26-.09.39-.13.21-.07.42-.13.63-.19.03-.02.06-.02.09-.03.14-.05.28-.09.43-.12.12-.04.24-.07.36-.09.23-.06.46-.11.7-.16.21-.05.42-.09.64-.12.1-.03.2-.05.3-.06.09-.01.18-.03.27-.04 1.17-.19 2.35-.37 3.53-.55h.01c1.18-.17 2.37-.33 3.56-.48 1.19-.16 2.38-.31 3.57-.44 1.19-.14 2.38-.27 3.57-.4 2.39-.25 4.78-.48 7.17-.7 2.38-.21 4.74-.42 7.09-.62 1.21-.11 2.42-.21 3.64-.32.78-.07 1.55-.14 2.33-.21 1.33-.12 2.67-.24 4-.37 1.33-.12 2.66-.26 3.99-.4.24-.02.48-.05.72-.08 1.09-.11 2.19-.23 3.28-.36.18-.02.36-.04.54-.06 1.05-.13 2.11-.26 3.16-.4.22-.03.43-.06.64-.09.88-.11 1.76-.24 2.63-.36 1.33-.2 2.66-.4 3.98-.63 1.1-.18 2.2-.38 3.29-.58.54-.1 1.08-.2 1.61-.31 1.31-.26 2.61-.53 3.9-.83.45-.1.9-.2 1.34-.31.02 0 .03-.01.05-.01.81-.2 1.62-.4 2.43-.61.66-.17 1.31-.34 1.97-.53.4-.11.79-.22 1.18-.33.44-.13.88-.25 1.31-.39.36-.11.72-.22 1.08-.34.6-.18 1.2-.37 1.79-.57h.01c.34-.12.68-.24 1.03-.36 1.41-.48 2.8-1 4.18-1.55.36-.15.71-.29 1.07-.44.05-.02.1-.04.15-.06.44-.18.87-.37 1.31-.56 1.82-.79 3.62-1.65 5.4-2.58l-4.9-1.48c-.69-.21-1.38-.42-2.07-.63-2.45-.73-4.93-1.47-7.42-2.2-1.63-.47-3.26-.94-4.9-1.41-.17-.05-.34-.1-.51-.15-1.43-.4-2.85-.8-4.28-1.19-.78-.21-1.55-.42-2.33-.63-.79-.21-1.57-.42-2.36-.62-.84-.22-1.68-.44-2.53-.65-.87-.22-1.74-.44-2.62-.65-1.1-.28-2.21-.54-3.31-.79-1.1-.27-2.21-.52-3.31-.75-1.03-.24-2.07-.46-3.1-.67-.04-.01-.08-.02-.12-.03-.11-.02-.22-.04-.33-.07-.21-.04-.42-.08-.62-.12-.83-.17-1.66-.33-2.48-.49-.56-.11-1.12-.22-1.67-.32-.56-.11-1.12-.21-1.67-.3-2.22-.4-4.45-.76-6.68-1.08-.63-.09-1.26-.18-1.89-.26-.54-.07-1.08-.14-1.62-.21-1.83-.24-3.67-.45-5.51-.64-4.19-.44-8.35-.79-12.29-1.11-.91-.07-1.82-.15-2.72-.22l-.36-.02-.71-.06c-1.8-.15-3.61-.3-5.45-.45h-.09c-1.67-.15-3.34-.3-5.02-.45-.25-.02-.49-.05-.74-.07l-.47-.05-.12-.01c-.2-.02-.4-.04-.6-.06-1.25-.12-2.5-.26-3.75-.4l-.81-.09c-1.02-.12-2-.23-2.97-.36-.44-.05-.87-.11-1.3-.17-.62-.08-1.23-.16-1.83-.25-.36-.05-.72-.11-1.08-.16-.4-.06-.78-.12-1.17-.18-1.38-.21-2.72-.43-4.02-.67-.92-.17-1.84-.34-2.75-.52-.06-.02-.12-.03-.18-.04-1.49-.3-2.97-.62-4.45-.96-.12-.02-.24-.05-.35-.08-.51-.12-1.02-.23-1.53-.36-.17-.03-.33-.07-.49-.11-1.34-.32-2.68-.66-4.01-1.01-.67-.17-1.33-.35-2-.54-.83-.22-1.65-.45-2.47-.68-1.22-.35-2.44-.7-3.64-1.06-.6-.18-1.2-.36-1.79-.54s-1.18-.36-1.77-.54c-1.54-.48-3.07-.96-4.6-1.46-1.5-.49-2.98-.97-4.41-1.45l.85-3.89c3.57.39 7.15.77 10.73 1.13 4.24.43 8.48.85 12.71 1.26 5.65.53 11.27 1.05 16.84 1.54 1.4.12 2.78.24 4.17.36 1.75.15 3.49.3 5.21.45.09 0 .17.01.26.02 1.31.11 2.61.22 3.91.33 2.57.22 5.12.43 7.64.64.85.06 1.69.13 2.52.2 1.41.12 2.82.24 4.22.35.54.04 1.09.09 1.63.13 2.52.21 5.01.41 7.47.61 5.33.43 10.67.86 16.04 1.3 3.19.26 6.4.53 9.61.8s6.43.54 9.65.83c1.68.14 3.36.29 5.04.44 2.69.24 5.38.48 8.07.73 1.85.17 3.7.34 5.55.52 1.19.11 2.38.22 3.57.34 1.4.13 2.79.27 4.19.41 2.36.23 4.73.47 7.09.72.61.06 1.22.13 1.83.19.87.09 1.75.18 2.62.28 2.58.27 5.16.55 7.74.84 1.72.2 3.45.4 5.17.6 1.71.2 3.41.4 5.11.6.02 0 .05.01.07.01 1.61.19 3.21.39 4.82.59 1.3.16 2.59.33 3.89.49.72.1 1.43.19 2.15.28 2.8.37 5.59.75 8.39 1.14 1.6.22 3.2.45 4.8.68 3.2.46 6.39.94 9.59 1.44 1.59.25 3.19.5 4.78.76 2.79.45 5.62.93 8.45 1.44.71.13 1.42.26 2.12.4.51.09 1.02.19 1.52.29 1.62.32 3.24.66 4.86 1.03.68.15 1.35.31 2.02.47.49.11.98.23 1.46.36 1.86.46 3.7.95 5.54 1.5.59.17 1.19.35 1.78.54.58.18 1.16.37 1.74.56.02.01.04.02.07.02.58.2 1.15.4 1.73.6.67.23 1.34.47 2.01.72.25.09.5.19.74.29.45.17.9.35 1.35.53.42.17.84.34 1.25.52.43.18.86.36 1.29.55 2.14.94 4.24 1.97 6.3 3.11.14.08.29.16.44.26.18.1.36.22.54.34.13.09.26.18.38.28.13.1.25.2.36.31.08.07.15.14.22.22.14.15.27.31.38.47.05.08.1.16.14.24.04.07.07.14.1.21.04.09.07.18.1.28.03.09.05.19.07.28.01.07.02.14.02.22.01.03.01.06.01.09z" fill="#ed6d66"/><path d="m302.002 369.025c-.734 0-1.411-.176-2.013-.524-2.139-1.251-2.631-4.098-2.822-6.439-1.167-14.652 1.462-29.415 4.003-43.692l.03-.171c1.713-9.577 3.481-19.465 4.114-29.268.24-3.779.146-9.107-3.43-11.703-2.272-1.658-5.166-1.658-7.965-1.658h-.102c-2.134-.01-4.341-.02-6.314-.741-3.601-1.32-6.384-5.173-7.091-9.817-.648-4.272.275-8.696 1.089-12.6l5.12-24.57c.208-1.006.463-2.238-.065-3.274-.667-1.299-2.109-1.44-2.699-1.44-.62 0-1.247.145-1.766.407-1.531.781-2.539 2.332-3.362 3.724-3.446 5.79-6.137 12.001-7.999 18.465l-.355 1.274c-1.025 3.636-2.073 7.349-4.695 9.96-2 2-4.706 3.092-7.322 4.148-1.505.606-3.037 1.223-4.437 2.001-4.138 2.3-7.222 6.039-10.205 9.655l-.087.105c-1.794 2.179-3.649 4.433-5.737 6.355-3.63 3.377-7.833 5.745-12.283 8.251l-.194.109c-2.111 1.19-4.294 2.421-6.347 3.755-6.438 4.153-12.121 9.54-17.616 14.75l-.078.073c-6.961 6.604-13.479 12.789-21.605 17.124-1.056.559-3.104 1.491-5.023 1.491-1.639 0-2.615-.671-3.145-1.235-2.349-2.482-.284-6.492 2.199-9.17 6.656-7.186 14.4-13.218 23.018-17.925.575-.311 1.154-.621 1.732-.929 3.797-2.015 7.641-4.056 10.274-7.353 1.537-1.931 2.59-4.204 3.608-6.402l.756-1.613c4.396-9.135 11.007-17.149 19.124-23.191 2.199-1.636 4.553-3.161 6.83-4.635l.137-.089c5.246-3.387 10.668-6.888 14.523-11.892 3.066-3.982 4.986-8.696 6.842-13.254 1.785-4.37 3.44-8.418 5.988-12.095 2.241-3.246 5.003-5.94 7.927-8.793l.164-.161c2.75-2.692 5.593-5.476 7.807-8.683 4.626-6.68 5.685-16.784-.67-21.464l-22.449 18.078c-2.347 1.891-4.501 3.463-7.094 3.541l-.158.002c-3.636.001-6.404-3.125-7.437-6.03-1.128-3.141-.916-6.562-.576-10.083l.055-.57.349-.454c11.9-15.515 24.719-34.332 29.564-56.254.678-3.06 1.519-6.855 4.399-8.441 1.411-.775 3.079-.879 4.525-.879.324 0 .646.006.959.012l92.561 1.399c3.421.047 6.837.425 8.629 2.852 1.375 1.872 1.34 4.359 1.187 6.747-.145 2.174-.317 4.344-.491 6.522l-.021.268c-.787 9.694-1.6 19.716.663 29.292 2.817 11.954 10.179 22.184 17.299 32.077l.122.17c3.625 5.043 7.374 10.258 10.494 15.663.074.128.354.647.354.647l1.216 2.126-2.326.767c-.562.185-1.074.52-1.522.994-1.829 1.956-2.253 5.949-1.86 9.033l2.45 19.109c.206 1.673.631 5.133-1.448 6.811-.657.524-1.479.797-2.387.797-1.41 0-2.925-.66-3.955-1.722-1.574-1.626-2.286-3.902-2.934-6.289-4.147-15.264-7.241-30.985-9.195-46.727-2.171.005-3.077 1.92-4.119 4.623-.699 1.788-1.406 3.597-2.743 4.658-.723.578-1.624.887-2.598.887-.391 0-.799-.049-1.214-.147-2.001-.479-3.942-2.07-4.839-3.96-1.156-2.466-1.23-5.25-1.302-7.943-.019-.837-.038-1.666-.096-2.495-.293-4.53-1.911-7.735-4.556-9.034-6.009 3.812-7.014 12.202-7.22 19.084-.605 19.645.232 39.566 2.488 59.212l.109.924c1.32 11.408 2.681 23.161-2.914 32.854-.649 1.144-1.591 2.549-3.055 3.157-.475.194-.974.29-1.492.29-1.837 0-3.837-1.279-4.86-3.111-1.268-2.219-1.354-4.919-1.431-7.301-.847-27.789-1.49-56.098-1.913-84.205-.077-5.279-.164-11.256-2.544-16.377-3.134.372-5.055 3.413-6.914 6.353-1.877 2.976-3.65 5.786-6.554 5.786-.266 0-.538-.024-.81-.073-4.403-.806-4.766-7.174-4.718-9.874l.339-22.455c-.27-.039-.542-.055-.81-.055-3.388 0-6.283 2.691-7.65 5.357-1.508 2.945-1.88 6.33-2.239 9.604l-.084.732c-2.021 18.359-7.076 36.15-15.02 52.871l-.525 1.121c-2.176 4.533-4.418 9.204-4.371 14.222.051 5.417 3.811 11.25 9.328 11.299h.007c.747 0 1.388-.081 2.066-.166l.15-.019c.737-.096 1.422-.185 2.103-.185.774 0 1.435.12 2.018.368 2.457 1.014 3.465 4.053 2.979 9.026l-8.931 88.376c-.23 2.361-.517 5.308-2.06 7.559-1.109 1.622-3.053 2.713-4.836 2.713z" fill="#ed6d66"/><path d="m348.14 50.58c-.17-.17-.34-.34-.52-.51-.95-.93-1.97-1.98-2.94-3.12-.3-.36-.6-.74-.89-1.12-.28-.37-.55-.76-.81-1.15 0-.01-.02-.02-.02-.02-.25-.39-.48-.79-.7-1.19-.09-.17-.18-.34-.26-.5-.08-.17-.16-.34-.24-.51-.07-.17-.14-.35-.21-.52-.08-.2-.15-.4-.22-.6-.09-.27-.17-.54-.24-.82s-.13-.56-.18-.84c-.04-.25-.07-.5-.1-.76-.01-.2-.03-.39-.03-.59-.02-.43-.01-.86.02-1.3.04-.58.13-1.16.26-1.75.03-.14.06-.29.1-.44.04-.14.08-.28.12-.43.07-.25.15-.49.23-.74.09-.24.18-.49.28-.73.08-.21.17-.41.26-.61.11-.24.22-.48.34-.71.12-.24.25-.48.39-.71.1-.19.21-.37.33-.56 0 0 .01-.01.01-.02.12-.18.24-.37.37-.55.25-.38.52-.75.81-1.11.29-.37.6-.73.92-1.09.18-.2.37-.4.57-.6.16-.18.34-.36.53-.53.18-.19.35-.36.54-.52.18-.18.37-.35.56-.51.18-.17.37-.34.57-.5.19-.17.38-.33.58-.48.36-.32.75-.62 1.14-.93l3.03-2.34-3.21-1.01-.05-.02-.39-.12c-.33-.1-.65-.21-.97-.33-3.6-1.29-6.71-3.38-9.06-6.06-.22-.24-.42-.49-.62-.74l-.01-.01c-.01-.01-.02-.02-.02-.03-.07-.08-.13-.16-.19-.24s-.12-.16-.18-.24c-.03-.03-.05-.07-.07-.1-.18-.24-.35-.48-.52-.73-.17-.26-.34-.53-.5-.8-.05-.08-.1-.17-.16-.26-.04-.09-.09-.18-.15-.26 0 0 0 0 0-.01-.19-.36-.38-.72-.55-1.09-.26-.57-.5-1.14-.69-1.72-.07-.19-.13-.39-.19-.58-.12-.39-.23-.79-.32-1.19-.05-.2-.1-.41-.13-.61-.01-.05-.02-.09-.03-.14-.04-.15-.06-.3-.08-.46-.04-.2-.07-.4-.09-.61-.19-1.21-.24-2.44-.15-3.66 0-.05.01-.1.01-.15h-334.42v329.24l.63-.21c.99-.33 1.98-.67 2.97-1.02.25-.09.5-.18.76-.28.93-.33 1.87-.68 2.8-1.04.72-.27 1.44-.54 2.16-.84.7-.27 1.4-.55 2.1-.84 1.45-.58 2.89-1.18 4.32-1.81 2.13-.91 4.24-1.85 6.34-2.81.99-.45 1.98-.9 2.96-1.36.41-.19.81-.37 1.22-.57 1.13-.52 2.26-1.05 3.38-1.58 1.63-.78 3.26-1.56 4.88-2.33 3.4-1.62 6.84-3.26 10.3-4.86 1.68-.78 3.36-1.54 5.05-2.3h.01c2.07-.93 4.15-1.83 6.23-2.7 1.04-.43 2.09-.86 3.14-1.28.75-.3 1.51-.6 2.29-.87.38-.14.77-.28 1.17-.4 1.95-.64 3.96-1.09 6.01-1.09.15 0 .3.01.46.01l.54.03c.53.05 1.06.12 1.59.21.01 0 .02 0 .03.01 1.07.2 2.12.49 3.15.83.34.11.68.22 1.02.35.67.24 1.33.49 1.98.74l3.39 1.29c1.36.52 2.73 1.05 4.12 1.6 1 .39 2.01.79 3.01 1.19.26.1.52.2.77.31 1.24.5 2.47 1.01 3.71 1.52.93.4 1.87.8 2.8 1.21.61.27 1.22.53 1.82.81 1.82.81 3.63 1.66 5.42 2.55.73.35 1.44.71 2.16 1.08.46.24.93.49 1.39.73l1.27.68 1.21.66h.01l1.05-.91c.33-.29.66-.57.99-.85.08-.07.15-.14.23-.19.4-.34.78-.67 1.17-.97.06-.06.13-.11.19-.16.12-.1.23-.2.35-.29.36-.3.73-.59 1.09-.87.48-.38.96-.74 1.43-1.09.49-.37.98-.73 1.46-1.06.5-.36 1-.7 1.49-1.02.51-.35 1.01-.67 1.51-.97.52-.33 1.03-.64 1.54-.93.48-.28.96-.55 1.43-.8.05-.03.09-.05.14-.07.54-.29 1.07-.56 1.61-.82.38-.18.75-.36 1.14-.52.38-.18.77-.35 1.16-.51.35-.16.71-.31 1.06-.45 1.9-.76 3.84-1.45 5.73-2.12l.25-.09c.81-.29 1.63-.58 2.45-.88.8-.3 1.61-.6 2.41-.91.01-.01.03-.01.04-.02.81-.31 1.62-.64 2.42-.99 0 0 .01-.01.02-.01.8-.35 1.6-.72 2.38-1.11h.01c.52-.26 1.03-.53 1.53-.81.51-.28 1.01-.57 1.5-.87s.98-.61 1.46-.92c.48-.32.96-.64 1.43-.97.39-.28.78-.56 1.17-.85.38-.29.76-.58 1.14-.87 1.51-1.19 2.96-2.45 4.36-3.76.35-.33.7-.66 1.05-1 .06-.06.13-.13.2-.19.27-.28.55-.55.82-.82 4.34-4.35 8.2-9.14 11.84-13.64.51-.64 1.03-1.28 1.55-1.93.95-1.17 1.91-2.36 2.88-3.57 1.38-1.71 2.78-3.45 4.2-5.21s2.85-3.54 4.31-5.34c1.29-1.61 2.59-3.22 3.89-4.83 1.49-1.85 3-3.72 4.52-5.61 1.32-1.64 2.65-3.28 3.97-4.93.72-.89 1.44-1.79 2.17-2.69 2.08-2.59 4.17-5.18 6.26-7.78 3.04-3.78 6.11-7.59 9.2-11.44 2.98-3.7 5.97-7.44 8.97-11.17 1.65-2.06 3.3-4.12 4.95-6.18 2.58-3.21 5.15-6.42 7.7-9.61 1.24-1.56 2.5-3.13 3.76-4.72l2.19-2.76c.18-.22.36-.45.54-.68.1-.13.2-.25.3-.38.08-.11.17-.21.25-.32.92-1.18 1.84-2.37 2.77-3.57.11-.15.23-.31.35-.46.56-.73 1.12-1.47 1.68-2.21s1.12-1.49 1.68-2.24c.01-.01.01-.02.02-.03.5-.67 1-1.34 1.49-2.02.99-1.35 1.96-2.71 2.93-4.09.01-.02.03-.04.05-.06.46-.67.92-1.34 1.39-2.02.47-.69.94-1.39 1.41-2.09 1.26-1.9 2.5-3.82 3.71-5.77.13-.23.28-.47.43-.7.07-.11.13-.22.2-.33.04-.06.08-.13.11-.19.29-.48.58-.97.87-1.45.28-.48.55-.95.83-1.43.29-.52.59-1.03.88-1.55.29-.51.57-1.03.86-1.56.4-.74.79-1.48 1.18-2.22.02-.04.04-.08.07-.12.37-.73.75-1.46 1.11-2.2.76-1.51 1.48-3.05 2.17-4.6.18-.39.34-.77.51-1.16s.33-.78.5-1.17c.33-.78.65-1.57.96-2.36.15-.38.3-.75.44-1.13.15-.38.29-.75.42-1.13.31-.84.61-1.69.9-2.53.27-.81.53-1.62.79-2.44.25-.81.49-1.63.72-2.45.23-.83.45-1.66.66-2.49.1-.41.2-.83.3-1.25s.2-.84.29-1.26c.13-.58.26-1.18.42-1.78.04-.21.1-.41.16-.61.05-.2.1-.4.17-.6.06-.21.12-.41.19-.61.12-.38.26-.76.41-1.12.09-.21.19-.42.29-.62.06-.15.14-.28.22-.42.01-.01.02-.03.03-.04.01-.02.03-.05.04-.07.02-.03.03-.07.06-.1.01-.02.02-.05.04-.07 0-.01.01-.02.01-.03.06-.11.14-.22.21-.33.11-.17.22-.33.35-.48.12-.16.25-.31.39-.46.13-.14.27-.28.43-.41.3-.27.62-.5.99-.69 0-.01.01-.01.01-.01.35-.19.71-.34 1.08-.46h.01c.19-.06.38-.11.57-.15.19-.05.38-.09.57-.11.39-.07.77-.1 1.16-.12.19-.01.38-.02.57-.02.18-.01.37-.01.55-.01.32 0 .63.01.95.01l7.34.11-.39-1.84v-.02l-.13-.59c-.37-1.72-.41-3.77.03-5.94 0-.02.01-.04.01-.06.05-.23.1-.46.17-.69.69-2.75 2.18-5.65 4.79-8.26.2-.22.41-.42.62-.62s.43-.4.66-.59c.53-.46 1.06-.87 1.58-1.23s1.04-.67 1.55-.94c.26-.14.52-.26.77-.37.26-.11.51-.21.77-.3s.52-.17.78-.24.51-.13.77-.17c.48-.08.95-.12 1.42-.12.26 0 .51.01.76.04.04 0 .09 0 .13.01l2.71.31-.52-2.68c-.2-1.03-.26-2.15-.17-3.32.01-.3.04-.59.08-.89.02-.2.04-.39.08-.59.02-.2.06-.4.1-.6.03-.2.07-.4.12-.61.04-.19.08-.38.14-.57.04-.19.09-.39.15-.58.12-.44.25-.87.42-1.31.05-.18.11-.35.18-.52.09-.26.19-.51.3-.76.16-.39.33-.77.52-1.15.01-.02.02-.04.03-.07.17-.35.36-.71.55-1.06.05-.11.11-.22.18-.32.06-.11.12-.21.18-.32.25-.43.51-.85.77-1.26.27-.41.54-.82.82-1.22.38-.54.77-1.06 1.18-1.58.3-.39.62-.77.94-1.14s.64-.74.97-1.1c.22-.24.45-.47.68-.71.22-.23.46-.47.7-.7.23-.23.47-.45.71-.67.22-.21.44-.41.67-.6.26-.24.54-.47.81-.7.25-.21.51-.42.76-.62.52-.41 1.04-.81 1.58-1.18.53-.38 1.08-.75 1.63-1.09.56-.36 1.12-.69 1.69-1.01.57-.33 1.15-.63 1.74-.92.29-.15.59-.29.89-.42.29-.15.59-.28.89-.4.6-.27 1.21-.51 1.83-.73.3-.12.61-.23.92-.33.31-.11.62-.21.93-.31h.01c.63-.2 1.26-.38 1.89-.53.63-.16 1.28-.31 1.92-.43.28-.05.56-.1.84-.14.56-.1 1.12-.18 1.69-.24.28-.04.57-.07.85-.1 1.13-.1 2.28-.16 3.43-.16.48 0 .96.01 1.44.03.25.01.5.02.74.04.07 0 .13.01.2.01.06 0 .11.01.17.01s.13.01.19.02c.22.01.45.03.66.05h.01c.35.03.69.06 1.03.11.14.01.28.03.41.05.14.02.28.04.41.06.22.02.43.05.64.09.18.03.35.05.53.08.24.05.49.09.73.14.41.08.81.17 1.22.26.05.01.11.02.16.03.02.01.04.01.06.02.46.11.92.22 1.38.35.47.12.93.26 1.39.41l2-3.34zm-71.96-11.9c0-.04.01-.08.01-.13.01-.06.02-.12.04-.19.03-.18.07-.36.12-.55.01-.07.03-.15.06-.23.12-.46.3-.94.52-1.45.08-.2.17-.39.25-.57.28-.6.61-1.19.97-1.76.24-.37.49-.74.76-1.11.09-.13.18-.26.28-.38.06-.09.13-.18.19-.26.29-.36.59-.72.91-1.07.32-.36.65-.7.99-1.03.51-.5 1.05-.98 1.62-1.44.19-.15.39-.31.58-.45.3-.22.6-.44.9-.65.31-.21.61-.41.93-.61.31-.2.63-.39.96-.57.33-.19.66-.37 1-.54.41-.21.82-.41 1.24-.59.89-.4 1.81-.76 2.76-1.06.39-.13.78-.24 1.18-.35.44-.12.88-.23 1.33-.33.25-.05.51-.1.76-.15.26-.06.52-.1.78-.14.26-.05.52-.09.78-.12.28-.03.55-.07.83-.09h.07c.4-.04.79-.07 1.18-.09.41-.02.81-.03 1.2-.03.79 0 1.56.04 2.32.12.28.02.56.06.83.1.72.09 1.43.23 2.11.4.19.04.38.09.56.15.46.12.92.26 1.36.42.26.09.51.19.76.29.22.08.43.17.64.27.21.09.42.18.62.29.09.04.18.08.26.13.19.09.37.18.55.29.13.07.27.15.4.23.01 0 .02 0 .02.01.22.12.43.25.63.39.05.03.1.06.15.1.13.07.25.16.37.25.03.01.06.03.08.06.12.08.24.17.36.26.04.02.07.04.11.08.03.02.07.04.1.08.16.11.31.23.46.36.52.43 1.01.89 1.48 1.38.24.24.46.49.68.74.6.71 1.14 1.48 1.59 2.29.13.23.26.45.37.69.12.22.22.43.31.65.1.22.2.44.28.66.33.83.6 1.7.79 2.59.06.29.12.58.17.87.05.3.09.61.13.92.04.36.07.73.09 1.09.01.29.02.58.02.87 0 .73-.05 1.46-.14 2.19s-.23 1.45-.41 2.16c-.09.35-.2.7-.32 1.05-.1.33-.23.66-.36.98-.02.04-.03.08-.05.12-.13.31-.27.63-.42.93-.16.33-.33.65-.52.97-.38.66-.82 1.29-1.29 1.88-.21.26-.42.53-.65.77-.29.32-.59.63-.89.92-.31.29-.62.57-.94.84-.16.14-.33.27-.5.39-.16.13-.33.25-.5.38-.25.19-.49.36-.76.52-.28.19-.57.36-.87.53-.06.04-.12.07-.18.1-.32.18-.64.35-.97.5-.35.18-.7.34-1.06.48-.36.15-.73.29-1.1.4-.37.14-.74.25-1.12.34-1.49.41-3.04.62-4.6.62-.3 0-.62-.01-.94-.03-.29-.02-.59-.04-.88-.07-.33-.03-.67-.08-1.01-.15-.17-.03-.35-.07-.53-.11-.27-.06-.54-.13-.81-.21-.28-.08-.55-.17-.82-.27-.25-.09-.49-.19-.73-.3-.79-.36-1.54-.81-2.19-1.36-.17-.15-.33-.3-.49-.46-.28-.29-.54-.6-.76-.94-.1-.13-.18-.26-.24-.39-.06-.1-.12-.21-.17-.31-.02-.02-.03-.04-.04-.07-.05-.12-.1-.23-.14-.35-.01-.01-.02-.02-.01-.03-.03-.08-.06-.16-.09-.24-.07-.18-.13-.37-.17-.57-.01-.01-.01-.01-.01-.02-.05-.23-.09-.46-.13-.72 0-.01 0-.02-.01-.03-.04-.23-.07-.43-.11-.63-.04-.18-.08-.36-.13-.52-.02-.08-.05-.16-.08-.23-.06-.17-.13-.32-.23-.46-.03-.06-.07-.12-.12-.17-.02-.03-.05-.06-.07-.09l-.17-.21-.33-.19c-.03-.02-.06-.03-.1-.04-.18-.09-.37-.15-.56-.2-.02-.01-.03-.01-.05-.02-.15-.03-.31-.07-.46-.09-.01 0-.02 0-.02 0-.16-.03-.33-.05-.52-.07-.71-.08-1.46-.17-2.22-.29-.5-.09-1.01-.18-1.52-.3-.03 0-.06 0-.08-.02-.14-.03-.29-.06-.43-.1-.02 0-.04-.01-.06-.02-.56-.16-1.12-.34-1.67-.57-.11-.04-.22-.09-.33-.14-.23-.1-.46-.21-.68-.33-.3-.16-.59-.34-.86-.52-.26-.18-.52-.38-.76-.59s-.47-.43-.68-.66c-.11-.11-.21-.23-.3-.35-.22-.26-.42-.54-.59-.83-.1-.16-.19-.33-.28-.5-.06-.12-.12-.25-.17-.37-.12-.3-.22-.6-.3-.9-.07-.3-.12-.61-.14-.92-.01-.13-.02-.25-.02-.37 0-.27.02-.55.06-.83z" fill="#5b5d6d"/><path d="m300.276 56.831c-.59 0-1.183-.031-1.764-.091-3.254-.337-7.357-2.046-8.203-5.754-.043-.188-.074-.371-.104-.554l-.033-.193c-.171-1.036-.335-1.786-.934-2.299-.558-.481-1.371-.569-2.023-.64-2.346-.261-4.814-.612-6.995-1.773-2.377-1.284-3.939-3.444-4.086-5.642-.085-1.268.249-2.639 1.052-4.316 3.133-6.574 10.558-11.525 18.916-12.611 1.129-.143 2.23-.216 3.278-.216 6.053 0 11.328 2.274 14.851 6.401 4.348 5.124 4.987 13.126 1.524 19.03-3.073 5.258-9.149 8.658-15.479 8.658z" fill="#af7979"/><path d="m325.61 451.47-4.89 2.19c-.25.11-.49.22-.74.32-.44.19-.87.38-1.31.56-.05.02-.1.04-.15.06-.36.15-.71.29-1.07.44-1.38.55-2.77 1.07-4.18 1.55-.35.12-.69.24-1.03.36h-.01c-.59.2-1.19.39-1.79.57-.36.12-.72.23-1.08.34-.43.14-.87.26-1.31.39-.39.11-.78.22-1.18.33-.66.19-1.31.36-1.97.53-.81.21-1.62.41-2.43.61-.02 0-.03.01-.05.01-.44.11-.89.21-1.34.31-1.29.3-2.59.57-3.9.83-.53.11-1.07.21-1.61.31-1.09.2-2.19.4-3.29.58-1.32.23-2.65.43-3.98.63-.87.12-1.75.25-2.63.36-.21.03-.42.06-.64.09-1.05.14-2.11.27-3.16.4-.18.02-.36.04-.54.06-1.09.13-2.19.25-3.28.36-.24.03-.48.06-.72.08-1.33.14-2.66.27-3.99.4s-2.67.25-4 .37c-.78.07-1.55.14-2.33.21-1.22.1-2.44.21-3.65.31-2.34.2-4.71.41-7.08.63-2.39.22-4.78.45-7.17.7-1.19.13-2.38.26-3.57.4-1.19.13-2.38.28-3.57.44-1.19.14-2.38.31-3.56.48 0 0 0 0-.01 0-1.18.17-2.36.35-3.53.54-.09.01-.18.03-.27.05-.1.01-.2.03-.3.06-.22.03-.43.07-.64.12-.24.05-.47.1-.7.16-.12.02-.24.05-.36.09-.15.03-.29.07-.43.12-.03.01-.06.01-.09.03-.22.05-.43.11-.63.19-.13.03-.27.08-.39.13-.25.08-.51.17-.74.28-.01 0-.01.01-.02.01-.28.11-.55.23-.81.36-.13.06-.26.12-.38.19-.19.1-.38.2-.55.31-.23.13-.44.27-.65.42-.41.29-.77.6-1.09.93-.12.12-.23.24-.34.36v.01c-.08.1-.16.2-.23.29-.15.2-.27.4-.38.61-.06.11-.11.21-.16.32-.17.38-.29.78-.37 1.19-.03.2-.06.41-.07.62-.01.07-.01.15-.01.22 0 .2.01.41.03.61.02.26.07.52.14.78.02.09.04.18.07.28.05.17.1.34.16.51.03.1.07.2.11.29.05.15.11.3.17.44.18.45.39.9.6 1.34.08.17.16.34.23.5.07.13.12.25.18.38s.12.27.18.4c.11.26.21.52.31.79.08.22.15.44.21.66.05.2.1.4.14.6v.01c.04.21.07.41.09.62.04.41.05.81.01 1.21-.01.22-.04.44-.08.66-.21 1.29-.77 2.48-1.52 3.52-.12.18-.25.35-.39.52-.24.29-.49.58-.75.85-.27.27-.54.53-.82.76-.01.02-.03.03-.04.04-.26.22-.54.42-.81.62-.18.13-.37.25-.56.36-.36.23-.74.44-1.12.63-.01.01-.02.01-.03.01-.19.1-.39.2-.59.28-.2.09-.4.18-.6.26-.58.26-1.18.47-1.78.66-.02.01-.05.02-.07.02-.31.1-.62.2-.93.28-.61.18-1.22.34-1.83.48-.31.08-.62.15-.93.22-.42.09-.84.19-1.26.28l-76.73 16.84h-137.05v-132.02c.03-.01.05-.01.07-.01.67-.06 1.34-.11 1.99-.16.56-.05 1.12-.09 1.68-.13.55-.04 1.1-.08 1.64-.11.12 0 .24-.01.35-.02.6-.03 1.19-.07 1.78-.1.58-.03 1.16-.05 1.74-.08.87-.05 1.73-.08 2.58-.1 1.48-.04 2.92-.06 4.33-.06 1.85 0 3.65.04 5.41.1.95.05 1.88.09 2.8.16.93.06 1.83.13 2.73.21 3.58.3 6.98.78 10.24 1.44.64.13 1.28.26 1.92.41.09.02.19.04.28.06.17.03.34.06.5.11.7.16 1.38.32 2.06.5l.66.18c.02.01.04.01.06.02.41.1.82.21 1.22.34.09.02.17.05.26.07.76.21 1.52.44 2.27.68.16.05.32.1.48.16.5.16 1.01.33 1.51.5.56.18 1.12.38 1.68.58.08.03.17.06.25.09.17.06.34.12.52.19.97.35 1.95.72 2.91 1.09.18.07.35.14.53.21.88.34 1.76.69 2.63 1.05 1.83.74 3.64 1.51 5.43 2.28.93.4 1.86.8 2.78 1.2 1.68.73 3.37 1.46 5.08 2.18.76.31 1.52.63 2.28.95.42.18.85.35 1.27.52.85.35 1.71.69 2.57 1.02.43.17.86.34 1.3.5.43.17.86.33 1.3.48.43.17.87.33 1.31.48 1.75.63 3.51 1.21 5.28 1.74h.01c1.07.32 2.13.62 3.21.9s2.15.54 3.24.79c.54.13 1.08.25 1.63.36 1.09.24 2.18.46 3.28.66.55.11 1.09.22 1.64.31 2.2.41 4.4.77 6.59 1.1.91.15 1.83.28 2.74.42.92.14 1.84.27 2.75.4l1.02.15c.74.11 1.49.22 2.26.33.86.14 1.75.26 2.65.4.03 0 .06.01.09.01.09.01.18.03.27.04 1.37.21 2.76.43 4.16.66.13.02.27.04.4.07 1.13.19 2.26.38 3.39.59.64.12 1.28.24 1.92.36.61.12 1.23.24 1.85.37.76.16 1.53.32 2.31.49.71.16 1.42.32 2.14.49 1.44.33 2.9.7 4.4 1.08.75.19 1.51.39 2.28.6s1.55.42 2.33.64c.79.22 1.58.45 2.39.68l-.59 3.91v.01c-.79-.01-1.57-.02-2.35-.02-.6 0-1.19 0-1.78.01-.04-.01-.07-.01-.11 0-.02-.01-.05-.01-.08 0-.58.01-1.16.02-1.74.04-.62.01-1.23.03-1.84.05s-1.22.05-1.84.09-1.23.07-1.84.11c-1.84.13-3.67.29-5.5.48-.89.09-1.78.2-2.66.31-.89.11-1.78.23-2.66.36-3.07.45-6.12 1-9.15 1.66-.87.19-1.73.38-2.59.59-.76.18-1.51.36-2.27.56-1.83.47-3.64.97-5.45 1.52-.86.25-1.7.52-2.55.79-.53.18-.92.35-1.24.53l-.27.16c-.66.45-1 .97-1 1.57-.01.79.56 1.35 1.29 1.74l.05.03c.29.15.64.29 1.1.44.08.03.15.05.23.07.39.11.79.22 1.18.33 2.11.58 4.24 1.11 6.25 1.62.68.17 1.34.33 1.98.49 1.05.26 2.1.52 3.15.79.92.23 1.85.47 2.77.71.66.17 1.32.35 1.98.53.53.14 1.06.29 1.59.44 1.32.37 2.64.77 3.95 1.19.32.1.65.21.98.32.33.1.65.21.97.33.31.11.61.21.91.32 1.16.41 2.3.84 3.43 1.32.41.16.8.33 1.2.5.81.35 1.62.72 2.41 1.11.5.24.98.48 1.47.74.11.06.24.13.38.22.12.07.23.13.33.2.12.07.23.16.35.25.05.03.1.07.15.11l1.38 1.23-1.11 1.47c-.01.02-.03.04-.05.05-.02.02-.04.05-.07.08-.08.1-.16.19-.25.28-.2.19-.42.36-.63.52-.07.05-.14.1-.21.14-.21.14-.4.26-.57.35-.11.06-.21.11-.29.15-4.31 2.14-8.98 3.76-13.51 5.33l-.14.05c-2.43.84-4.8 1.67-7.11 2.56-.47.18-.94.37-1.41.56-1.42.57-2.81 1.17-4.18 1.82-1.02.49-2.03 1.01-3.02 1.56-.33.17-.65.36-.98.56-.42.25-.84.51-1.25.77-.01 0-.02.01-.03.02-.42.27-.84.55-1.25.84-.83.57-1.63 1.18-2.41 1.83.88.54 1.79 1.01 2.72 1.41l.26.11c.57.24 1.14.45 1.73.64.32.11.65.21.98.3.31.09.63.17.94.25.36.1.71.18 1.08.26.34.08.68.15 1.02.21.02 0 .04.01.06.01.27.06.55.11.84.15.83.15 1.69.28 2.55.39.51.07 1.03.14 1.55.2.71.09 1.43.17 2.15.25l.12.01c1.26.14 2.53.28 3.79.45.44.06.88.12 1.32.19 2.63.4 5.24.96 7.68 1.93.17.06.33.13.5.21.49.2.98.42 1.46.67.19.09.39.2.58.32.25.15.5.31.73.51.13.11.26.24.38.37.15.18.29.38.39.6.12.25.19.5.21.75.01.05.01.1.01.16.03.28-.01.55-.08.82-.03.12-.06.23-.1.34-.11.33-.28.64-.49.94-.07.1-.14.19-.21.29-.07.09-.14.19-.22.27-.27.33-.56.62-.83.87-.06.06-.13.12-.19.17-.1.09-.21.17-.3.25-.06.05-.12.09-.18.14-.05.04-.1.08-.15.11-1.09.81-2.22 1.57-3.37 2.28-.57.35-1.15.7-1.74 1.03-1.17.67-2.37 1.29-3.59 1.87-.61.29-1.23.57-1.85.85-2.54 1.12-5.15 2.11-7.8 3-.39.14-.78.27-1.17.39-.75.25-1.5.49-2.25.72-.65.21-1.31.41-1.97.6-.66.21-1.32.4-1.99.59-.35.11-.7.21-1.06.31-1 .3-2.01.58-3.01.87-5.69 1.63-11.52 3.3-17.08 5.55-.51.2-1.01.41-1.52.63-.5.21-1 .43-1.49.66-.46.2-.92.42-1.37.64-.53.25-1.06.51-1.58.78-.46.23-.92.48-1.38.73-.02.01-.04.02-.06.04-.15.09-.27.17-.38.24-.15.09-.31.2-.45.32l-.01.01c-.54.44-.93 1.01-.8 1.66.13.69.78 1.1 1.4 1.38l.27.11c3.89 1.58 8.43 2.35 13.88 2.35.49 0 .98-.01 1.48-.02.26 0 .51-.01.77-.02s.52-.02.79-.03c.34-.01.68-.03 1.03-.05.57-.03 1.16-.07 1.79-.12s1.28-.1 1.97-.16c1.07-.09 2.14-.2 3.22-.32 1.1-.11 2.2-.24 3.3-.37 1.42-.17 2.84-.35 4.26-.55.03-.01.07-.02.11-.02 1.39-.19 2.78-.39 4.17-.61 1.5-.24 3-.48 4.48-.72 1.42-.23 2.83-.47 4.24-.73 2.11-.37 4.19-.74 6.22-1.11 1.34-.25 2.68-.5 4.02-.75 6.14-1.13 12.39-2.28 18.64-3.54 1.39-.28 2.78-.56 4.18-.86 1.34-.28 2.68-.57 4.02-.87.01.01.02.01.04 0 .06-.01.11-.02.17-.04l.15-.03 1.71-.39c.13-.02.27-.05.41-.09 1.08-.24 2.17-.49 3.25-.75.06-.01.12-.03.19-.05 1.53-.35 3.06-.73 4.59-1.12.16-.04.31-.08.46-.12.44-.13.84-.27 1.2-.43.16-.07.31-.14.45-.22.29-.14.54-.3.76-.48.17-.12.31-.26.44-.4.06-.07.12-.14.18-.22.22-.28.36-.6.42-.93v-.01c.02-.08.03-.17.04-.25.03-.44-.07-.85-.24-1.23-.05-.12-.11-.24-.19-.36-.15-.27-.34-.51-.53-.72l-.01-.01c-.11-.12-.23-.25-.36-.37s-.26-.24-.41-.37c-.29-.25-.58-.49-.88-.72-.5-.39-1.01-.76-1.54-1.1-.14-.1-.28-.18-.42-.27-.22-.14-.45-.28-.68-.41-.28-.16-.56-.32-.84-.48-.22-.13-.45-.25-.67-.36-1.73-.9-3.52-1.68-5.3-2.44-.06-.03-.12-.05-.18-.08-.22-.09-.43-.19-.65-.28-.67-.29-1.35-.59-2.04-.9-.01 0-.01 0-.01 0-.93-.43-1.87-.88-2.78-1.35-.22-.11-.45-.24-.69-.36-.48-.27-.97-.56-1.45-.89-.23-.16-.46-.32-.68-.49-.49-.37-.96-.77-1.4-1.23-.21-.22-.41-.45-.6-.69-.18-.24-.36-.5-.52-.76-.23-.38-.42-.77-.56-1.16-.43-1.19-.54-2.57-.15-3.79.02-.07.04-.14.07-.21.13-.37.31-.72.54-1.04.08-.11.17-.22.26-.33.1-.12.21-.22.33-.33.76-.72 1.75-1.16 2.63-1.49h.01c.37-.14.75-.27 1.14-.39l.18-.06c.3-.09.61-.17.93-.25.74-.2 1.52-.36 2.34-.49.3-.04.6-.09.92-.13.3-.04.61-.07.92-.1.39-.04.79-.08 1.19-.1.57-.04 1.14-.06 1.74-.08.06 0 .11-.01.17-.01.39-.02.78-.02 1.18-.02 1.01 0 2.03.03 3.06.08.11 0 .22.01.33.01 1.13.05 2.26.11 3.37.17h.1c.54.03 1.09.07 1.63.1.5.03.98.05 1.47.07.49.03.98.05 1.47.06.29.01.59.02.88.02.43.01.87.02 1.31.02 2.02 0 3.81-.11 5.46-.35.31-.04.62-.09.92-.15.27-.04.53-.1.79-.16.16-.03.32-.06.48-.1.02 0 .04 0 .06-.01.19-.03.39-.09.58-.14.14-.03.28-.07.42-.11.3-.08.6-.16.89-.27l.27-.09c.66-.21 1.3-.46 1.92-.74l-4.77-9.19c-.11-.22-.21-.42-.31-.62-.02-.04-.04-.08-.05-.12-.05-.12-.1-.23-.14-.34s-.08-.22-.11-.32c0 0 0 0 0-.01-.06-.16-.1-.31-.13-.47-.08-.39-.09-.72-.02-1.03 0-.04.01-.07.02-.1l.02-.07v-.03l.07-.29.13-.17.1-.15c.03-.04.06-.08.1-.12.07-.08.15-.16.24-.23.02-.03.05-.05.07-.07.1-.08.21-.16.32-.23.12-.09.24-.16.38-.23.12-.06.24-.12.37-.17.5-.2 1.02-.35 1.57-.44.19-.03.38-.06.58-.07.21-.02.42-.03.64-.03.19 0 .39.01.59.03.08 0 .15.01.23.02.2.01.4.03.61.07.2.03.41.07.61.12.15.03.3.07.45.12.13.03.26.07.38.11.01 0 .02.01.02.01.1.02.19.05.28.09.02 0 .04.01.06.03.12.04.23.08.35.13.11.03.22.08.33.13.1.05.21.09.31.14.42.19.83.41 1.24.66.17.1.34.21.5.32.15.09.3.19.44.3.35.24.68.49 1.01.76.12.09.24.19.35.29.9.75 1.75 1.56 2.59 2.35l.13.12c.16.15.31.3.47.44.45.43.9.85 1.35 1.27.43.39.87.76 1.33 1.12.9.73 1.84 1.42 2.82 2.06.49.33.99.64 1.5.94.43.26.87.51 1.32.74.02.02.04.03.06.03.15.08.3.16.45.23.17.1.34.19.51.26 5.57 2.77 11.99 4.29 18.55 4.29 6.61 0 13.06-1.56 18.56-4.44.28-.14.56-.29.84-.45l.1-.06c.94-.52 1.84-1.09 2.71-1.69-.9-.67-1.87-1.27-2.89-1.78-.5-.25-1.02-.49-1.55-.69-.15-.06-.31-.12-.47-.18-.22-.09-.44-.16-.66-.23-.23-.08-.45-.15-.68-.21-.29-.09-.57-.17-.86-.23-.17-.04-.33-.08-.5-.12-.28-.06-.56-.11-.84-.16-.31-.06-.62-.1-.93-.14-.33-.04-.66-.07-.99-.09-.92-.07-1.83-.07-2.8-.07-.01 0-.76 0-.76 0-1.51 0-2.78-.05-4.05-.31-.28-.06-.55-.12-.81-.21-.18-.05-.36-.11-.53-.18-1.3-.5-2.55-1.32-3.35-2.43-.11-.16-.22-.33-.31-.5-.15-.27-.27-.56-.37-.86-.04-.15-.08-.3-.11-.46-.15-.78-.1-1.52.1-2.22.28-.98.86-1.88 1.54-2.68 0-.01.01-.02.02-.03.12-.12.22-.24.33-.36l.37-.37c.21-.2.43-.4.66-.6l.03-.02c1.09-.93 2.19-1.61 2.81-2l.56-.86.07-.11.03-.03v-.01l.6.07.12.01.47.05c.25.02.49.05.74.07 1.68.15 3.35.3 5.02.45h.09c1.84.15 3.65.3 5.45.45l.71.06.22.02c.94.07 1.9.15 2.86.22 3.94.32 8.1.67 12.29 1.11 1.84.19 3.68.4 5.51.64l1.62.21c.63.08 1.26.17 1.89.26 2.23.32 4.46.68 6.68 1.08.55.09 1.11.19 1.67.3.55.1 1.11.21 1.67.32.82.16 1.65.32 2.48.49.2.04.41.08.62.12.11.03.22.05.33.07.04.01.08.02.12.03 1.03.22 2.07.44 3.1.67 1.11.24 2.21.49 3.31.75 1.11.26 2.21.52 3.31.79.88.21 1.75.43 2.62.65.85.21 1.69.43 2.53.65.79.2 1.57.41 2.36.62.78.21 1.55.42 2.33.63 1.43.39 2.85.79 4.28 1.19.17.05.34.1.51.15 1.64.47 3.27.94 4.9 1.41 2.49.73 4.97 1.47 7.42 2.2.69.21 1.38.42 2.07.63l4.9 1.48z" fill="#bfc7d8"/><path d="m88.059 499.469c-5.444 0-9.984-.767-13.879-2.346l-3.375-1.368 2.965-2.114c.107-.076.229-.155.382-.247 7.642-4.206 16.201-6.657 24.478-9.028 10.351-2.961 21.054-6.024 29.8-12.504.856-.636 3.574-2.888 2.53-5.114-.41-.876-1.327-1.424-2.081-1.804-4.511-2.307-9.716-2.887-14.75-3.447l-.116-.013c-4.586-.516-8.918-1.002-12.901-2.659l-3.391-1.411 3.025-2.083c5.676-3.908 12.159-6.16 19.023-8.543l.144-.05c4.522-1.566 9.199-3.186 13.506-5.33.691-.341 2.891-1.57 2.464-3.232-.246-.953-1.306-1.513-1.875-1.814-7.755-4.077-16.426-6.227-24.811-8.307-2.928-.725-6.216-1.539-9.406-2.432-.567-.171-.989-.336-1.331-.516l-3.209-1.687 3.138-1.815c.317-.183.71-.352 1.237-.531 13.558-4.368 27.695-6.577 42.049-6.577 5.112 0 10.251.29 15.272.862l.852-.698 1.001.367c2.875.953 5.731 1.926 8.567 2.892l1.947.663c14.33 4.889 29.146 9.944 44.333 12.696 3.759.681 7.806 1.267 12.372 1.791l4.584.526-3.518 2.985c-2.422 2.055-3.442 4.162-3.031 6.261.435 2.226 2.588 4.045 5.486 4.634 1.276.259 2.544.313 4.056.313 0 0 .74-.003.758-.003.968 0 1.874.001 2.794.065 2.565.176 5.152.888 7.48 2.058l3.358 1.688-3.275 1.843c-5.731 3.225-12.449 4.929-19.429 4.929-9.958 0-19.619-3.541-26.507-9.713-.616-.555-1.219-1.126-1.822-1.699-1.551-1.483-3.148-3.012-5.022-4.151-1.785-1.085-3.672-1.658-5.458-1.658-1.149 0-2.204.237-3.134.706-.59.295-.993.633-1.236 1.036-.627 1.05-.124 2.34.512 3.576l4.83 9.284-2.246.729c-2.704.879-5.754 1.289-9.597 1.289-2.217 0-4.422-.127-6.757-.261l.01-2.003-.114 1.997c-2.22-.127-4.515-.258-6.755-.258-4.345 0-7.753.517-10.724 1.628-1.008.379-2.149.892-2.955 1.813-1.451 1.645-1.515 4.331-.161 6.538 1.283 2.116 3.524 3.476 5.334 4.425 1.819.949 3.765 1.785 5.482 2.523 3.663 1.569 7.455 3.192 10.515 5.86 1.163.995 1.735 1.947 1.735 2.897l-.005.148c-.104 1.406-1.432 2.44-3.947 3.071-12.397 3.15-25.085 5.487-37.355 7.748-10.527 1.944-22.46 4.147-34.015 5.175-3.138.278-5.552.4-7.831.4z" fill="#ed6d66"/><path d="m108.57 316.85v.01h-.01l-1.45 1.34-.27.25-.34.31c-.8.74-1.59 1.47-2.37 2.21-.86.81-1.71 1.62-2.56 2.43l-.91.86c-1.11 1.06-2.21 2.11-3.33 3.15-.74.69-1.49 1.38-2.25 2.06-.75.68-1.51 1.36-2.29 2.04-.89.79-1.8 1.57-2.72 2.35-.63.54-1.26 1.07-1.9 1.6-1.15.96-2.32 1.91-3.5 2.85-.68.55-1.36 1.08-2.04 1.62-.63.49-1.27.99-1.9 1.47-.84.64-1.68 1.28-2.53 1.91-.09.07-.19.14-.28.21-1.09.81-2.19 1.61-3.29 2.4-.19.14-.38.28-.57.41-1.04.75-2.08 1.48-3.13 2.21-.16.11-.32.22-.48.33-.88.61-1.76 1.21-2.64 1.8-1.02.69-2.05 1.36-3.08 2.04-.75.49-1.51.98-2.28 1.46-.82.53-1.64 1.04-2.47 1.55-1.32.82-2.65 1.63-3.99 2.43-.57.34-1.13.68-1.7 1.01-.57.34-1.14.66-1.71.99-2.89 1.67-5.8 3.27-8.72 4.8-.83.44-1.66.87-2.49 1.29-.01.01-.03.01-.04.02-.85.43-1.69.86-2.54 1.28-1.7.84-3.4 1.67-5.1 2.45-.85.4-1.7.8-2.55 1.17-.86.38-1.71.76-2.56 1.14-2.56 1.14-5.11 2.19-7.66 3.19-2.86 1.13-5.71 2.17-8.54 3.13l-.55.65-.02.03-.86.01c-.56.02-1.13.04-1.7.06-.58.03-1.16.05-1.74.08-.59.03-1.18.07-1.78.1-.11.01-.23.02-.35.02-.54.03-1.09.07-1.64.11-.56.04-1.12.08-1.68.13-.65.05-1.32.1-1.99.16h-.07v-50.73l.63-.21c.99-.32 1.98-.66 2.97-1.02.25-.09.5-.18.76-.28.93-.33 1.87-.68 2.8-1.04.72-.27 1.44-.54 2.16-.84.7-.27 1.4-.55 2.1-.84 1.45-.58 2.89-1.18 4.32-1.81 2.13-.91 4.24-1.85 6.34-2.81.99-.45 1.98-.9 2.96-1.36.41-.19.81-.37 1.22-.57 1.13-.52 2.26-1.05 3.38-1.58 1.63-.78 3.26-1.56 4.88-2.33 3.4-1.62 6.84-3.26 10.3-4.86 1.68-.78 3.36-1.54 5.05-2.3h.01c2.07-.93 4.15-1.83 6.23-2.7 1.04-.43 2.09-.86 3.14-1.28.75-.3 1.51-.6 2.29-.87.38-.14.77-.28 1.17-.4 1.95-.64 3.96-1.09 6.01-1.09.15 0 .3.01.46.01l.54.03c.53.05 1.06.12 1.59.21.01 0 .02 0 .03.01 1.07.19 2.12.48 3.15.83.34.11.68.22 1.02.35.65.23 1.29.47 1.92.71 1.13.43 2.28.87 3.45 1.32 1.36.52 2.73 1.05 4.12 1.6 1 .39 2.01.79 3.01 1.19.26.1.52.2.77.31 1.24.5 2.47 1.01 3.71 1.52.93.4 1.87.8 2.8 1.21.61.27 1.22.53 1.82.81 1.82.82 3.63 1.66 5.42 2.55.73.35 1.44.71 2.16 1.08.46.24.93.49 1.39.73l1.27.68z" fill="#939baa"/><path d="m494.22 303.38c.66-.06 1.51.35 2.25.67 5.2 2.23 10.4 4.58 15.53 7.03v-4.42c-4.62-2.19-9.28-4.29-13.95-6.29-1.06-.45-2.38-.98-3.89-.99-1.27.02-2.4.45-3.3.8l-28.12 10.77c-11.99-19.06-22-39.38-29.69-60.46-1.12-3.09-2.23-6.27-3.3-9.34-3.78-10.89-7.69-22.15-13.58-32.35-3.2-5.54-7.01-10.85-10.71-15.98-7.33-10.19-14.26-19.81-16.99-31.39-2.18-9.24-1.39-19.12-.61-28.67.18-2.28.36-4.55.51-6.82.17-2.64.2-5.66-1.57-8.06-2.62-3.56-7.56-3.63-10.21-3.67l-28.4-.43c2.34-2.38 4.1-5.54 5.05-9.2.92-3.54 1.02-7.13.81-10.49 12.88 8.7 29.82 10.73 44.39 5.06 4.66-1.82 8.26-4.09 10.97-6.93 5.22-5.47 7.22-13.73 5.32-21.02 9.46.05 19.01-6.42 23.01-16.12 3.23-7.82 2.98-17.41-.56-26.43 9.47 2.56 19.75-.71 26.87-5.15 8.43-5.26 13.99-12.42 15.67-20.18.24-1.1.4-2.2.48-3.32h-4.01c-.07.83-.2 1.66-.38 2.48-1.95 9.02-9.53 14.91-13.88 17.63-7.41 4.61-18.57 7.86-27.7 3.13-.77-.41-1.72-.26-2.34.36-.62.63-.76 1.58-.34 2.35 4.89 9.21 5.83 19.53 2.49 27.61-3.7 8.96-13.31 14.85-21.87 13.42-.73-.12-1.46.17-1.91.74-.45.58-.55 1.36-.25 2.03 2.83 6.49 1.39 14.59-3.49 19.7-2.31 2.42-5.42 4.37-9.54 5.97-14.45 5.63-32.17 2.74-44.09-7.19-.63-.53-1.52-.62-2.24-.22-.72.39-1.13 1.19-1.02 2.01.53 4.14.92 9-.26 13.55-1.17 4.52-3.92 8.18-7.35 9.81-.17.08-.32.18-.45.3l-48.58-.74c-1.75-5.38 1.28-11.58 5.41-15.12 1.84-1.58 3.57-2.49 5.26-2.79 1.83-.32 3.67.2 4.69 1.33.72.8 1.95.89 2.78.19.82-.71.94-1.94.26-2.78-3.27-4.08-1.51-10.53 1-14.81 5.02-8.57 13.83-14.81 23.59-16.69 9.75-1.88 20.26.64 28.1 6.74.83.65 2.03.54 2.73-.26s.65-2-.1-2.74l-17.15-16.83c-3.29-3.24-6.07-6.21-6.68-9.83-.5-2.97.59-6.41 2.99-9.43 2.3-2.9 5.46-5.17 8.52-7.36.67-.48.98-1.32.78-2.12s-.87-1.39-1.69-1.49c-6.21-.79-11.89-4.33-14.82-9.23-1.75-2.95-2.49-6.42-2.2-9.72h-4.04c-.28 4 .65 8.16 2.81 11.77 2.86 4.79 7.64 8.4 13.26 10.16-2.08 1.61-4.07 3.37-5.76 5.5-3.1 3.91-4.48 8.5-3.79 12.58.87 5.2 4.89 9.14 7.82 12.02l7.62 7.48c-6.16-1.94-12.8-2.39-19.16-1.17-10.87 2.09-20.69 9.05-26.28 18.6-2.37 4.04-4.01 9.31-3.09 14.06-.94-.11-1.91-.08-2.88.09-2.42.42-4.77 1.63-7.18 3.7-6.46 5.54-8.07 12.75-6.94 18.09l-4.83-.07c-1.92-.03-4.32-.07-6.46 1.11-3.69 2.02-4.64 6.32-5.4 9.77-5.85 26.46-23.65 48.71-39.35 68.34-21.55 26.94-43.41 54.05-64.55 80.26-7.11 8.81-15.16 18.8-25.85 24.17-3.06 1.54-6.39 2.72-9.62 3.87-3.12 1.11-6.34 2.25-9.41 3.73-5.56 2.68-10.47 6.37-15.07 10.38-9.67-5.28-20.06-9.25-30.11-13.08-2.68-1.02-5.71-2.18-8.95-2.3-3.79-.13-7.39 1.16-10.74 2.49-8.45 3.37-16.79 7.35-24.86 11.2-10.89 5.19-22.07 10.52-33.65 14.38v4.22c12.25-3.97 23.97-9.55 35.38-14.99 8.01-3.82 16.29-7.77 24.61-11.09 3.08-1.23 6.1-2.31 9.12-2.21 2.57.09 5.16 1.08 7.66 2.03 9.5 3.62 19.28 7.37 28.37 12.2-1.69 1.56-3.35 3.14-5 4.71-1.39 1.32-2.77 2.64-4.17 3.94-23.52 21.89-55 40.87-84.23 50.79-.34.11-.63.32-.85.58-3.66.12-7.29.35-10.89.65v4.03c13.79-1.2 28.13-1.36 41.6 2.15 7.86 2.04 15.52 5.35 22.93 8.55 6.64 2.87 13.5 5.83 20.58 7.94 8.67 2.58 17.7 3.89 26.44 5.16 4.94.72 10.05 1.47 15 2.43 5.88 1.14 11.73 2.63 17.52 4.31-15.23-.26-30.58 1.98-45.02 6.64-3.24 1.04-3.93 2.84-3.93 4.17-.01 1.13.52 3.19 4.13 4.21 3.13.88 6.33 1.68 9.44 2.44 8.28 2.06 16.84 4.18 24.38 8.14.51.27.73.43.82.51-.15.2-.57.59-1.36.98-4.23 2.1-8.89 3.71-13.39 5.27-7.75 2.69-15.77 5.47-22.29 10.88-.5.41-.76 1.04-.72 1.68.05.64.4 1.22.95 1.56 5.12 3.17 11.07 3.84 16.82 4.48 5.08.56 9.88 1.1 14.06 3.23.26.13 1.02.52 1.19.88.24.52-.6 1.68-1.91 2.66-8.45 6.25-18.51 9.13-29.17 12.19-8.38 2.4-17.04 4.88-24.82 9.16-2.81 1.55-2.9 3.43-2.7 4.42.38 1.94 2.26 2.7 2.88 2.95 4.7 1.9 9.66 2.49 14.6 2.49 2.7 0 5.4-.17 8.04-.41 11.53-1.02 23.05-3.14 34.2-5.2 12.33-2.27 25.08-4.62 37.48-7.77 4.26-1.08 5.31-3.22 5.45-4.83.2-2.47-1.77-4.18-2.41-4.74-3.29-2.86-7.23-4.55-11.04-6.19-1.79-.77-3.64-1.57-5.35-2.46-1.58-.82-3.52-1.98-4.55-3.68-.74-1.21-1.01-3.09-.05-4.18.53-.6 1.43-.99 2.16-1.26 5.12-1.91 10.76-1.59 16.72-1.25 6.55.38 13.33.77 19.53-2.03.5-.23.89-.65 1.07-1.17s.14-1.09-.12-1.58l-4.77-9.18c-.63-1.23-.58-1.58-.57-1.62 0 0 .08-.11.41-.28 2.11-1.05 4.82-.24 6.66.88 1.67 1.01 3.13 2.41 4.68 3.88.62.59 1.24 1.18 1.88 1.75 13.65 12.23 36.14 13.63 51.21 3.18.53-.37.85-.97.86-1.61s-.29-1.25-.81-1.64c-3.28-2.44-7.34-3.94-11.42-4.22-1.02-.07-2.02-.07-2.99-.07-1.54.01-2.99.01-4.35-.27-1.67-.34-3.62-1.44-3.93-3.06-.36-1.84 1.31-3.92 4.96-6.2.25-.16.45-.36.6-.59 4.12.39 8.22.72 12.26 1.05 7.91.63 16.09 1.29 24.05 2.43 17.65 2.53 35.08 7.56 52.01 12.68-17.53 7.83-37.42 9.55-56.71 11.21-9.44.82-19.21 1.67-28.64 3.21-6.95 1.13-11.06 4.31-11.28 8.72-.11 2.1.74 3.89 1.48 5.47.47.99.91 1.92 1.08 2.81.51 2.68-1.39 5.33-3.49 6.78-2.57 1.76-5.84 2.48-9.01 3.18l-85.62 18.79h18.65l67.83-14.89c3.37-.74 7.2-1.58 10.41-3.78 3.18-2.19 6-6.38 5.16-10.83-.27-1.39-.84-2.6-1.39-3.77-.62-1.32-1.16-2.46-1.11-3.55.18-3.45 6.12-4.69 7.93-4.98 9.29-1.52 18.98-2.36 28.35-3.17 21.36-1.85 43.46-3.76 62.77-13.86.72-.38 1.14-1.15 1.07-1.96-.08-.81-.64-1.49-1.41-1.73-18.61-5.64-37.85-11.47-57.52-14.29-8.07-1.16-16.32-1.82-24.29-2.46-9.94-.8-20.23-1.62-30.16-3.42-11.56-2.09-22.99-5.57-34.16-9.28 25.87 2.83 51.97 4.96 77.37 7.02 42.63 3.45 86.72 7.03 129.61 13.97 14.72 2.38 30.22 5.32 43.58 12.71 1.59.88 1.73 1.38 1.73 1.51.02.35-.87 1.07-2.84 1.52-10.17 2.31-20.61 4.39-30.7 6.4-25.8 5.14-52.48 10.46-77.47 20.08-3.34 1.28-5.05 3.12-5.1 5.46-.06 3.28 3.3 5 4.41 5.56 15.22 7.79 31.29 13.74 47.89 17.74h19.3c-2.36-.56-4.75-1.02-7.12-1.48l-1.77-.33c-19.66-3.81-38.66-10.37-56.48-19.49-2.02-1.03-2.23-1.69-2.23-1.92.01-.41.68-1.09 2.54-1.81 24.67-9.49 51.18-14.78 76.81-19.89 10.12-2.01 20.58-4.1 30.81-6.42 3.9-.88 6.07-2.93 5.95-5.6-.13-2.8-2.79-4.28-3.8-4.83-13.92-7.7-29.8-10.72-44.87-13.16-43.05-6.97-87.22-10.55-129.93-14.01-21.86-1.77-44.25-3.6-66.54-5.87 16.37-2.59 32.52-7.06 48.24-11.43 25.17-6.98 51.19-14.2 77.43-13.34 6.48.21 13.1.92 19.51 1.6 9.55 1.03 19.36 2.07 29.12 1.54-2.77 1.89-5.28 4.19-7.37 6.81-.56.71-.58 1.71-.04 2.43 1.9 2.57 4.98 3.36 8.03 3.83 7.73 1.2 15.64 1.53 23.29 1.85 9.33.39 18.97.79 28.14 2.78.8.17 1.2.38 1.38.5-.18.18-.58.48-1.33.8-4.84 2.03-9.88 3.67-15 4.85l-.3.07c-1.79.41-3.82.87-5.57 2.09-2.41 1.67-3.58 4.54-2.85 6.97.62 2.06 2.33 3.31 3.74 4.18 8.61 5.24 18.92 5.76 27.91 5.83.77 0 1.54.01 2.31.01 7.4 0 14.87-.28 22.24-.84 1.64-.13 6.63-.5 7.93-4.51 1.25-3.87-2.08-7.05-5.62-8.74-5.16-2.47-10.67-4.08-16.35-4.81-.5-.06-.99-.13-1.45-.21 4.17-.87 8.86-.13 13.4.88l1.45.32c5.93 1.34 12.06 2.72 18.13 1.09.59-.16 2.36-.64 3.06-2.3.58-1.41.03-2.77-.18-3.29-.22-.55-.49-1.12-.75-1.7-1.04-2.25-1.67-3.82-1.07-4.97.29-.54.83-.79 1.25-.91.9-.26 2.01-.13 2.83.34 1.83 1.06 2.96 3.33 3.74 5.18.17.41.33.82.5 1.23.86 2.13 1.74 4.33 3.36 6.22 4.5 5.26 12.06 5.15 16.17 4.61 6.63-.86 11.18-3.91 12.47-8.38 1.76-6.09-3.16-11.76-8.82-14.67-3.63-1.88-7.53-3.1-11.29-4.28-3.38-1.06-6.57-2.06-9.62-3.5-1.49-.71-3.28-1.71-3.94-3.22-.58-1.33.61-5.16 4.59-10.72.07-.11.14-.22.19-.33 4.2-.68 8.35-1.74 12.38-3.36 2.87-1.16 5.7-2.6 8.43-4 3.85-1.96 7.57-3.85 11.34-4.98v-4.15c-1.77.46-3.51 1.07-5.21 1.78-15.69-15.74-29.74-33.21-41.86-51.95l27.36-10.47c.67-.26 1.37-.53 1.93-.54zm-248.08-121.79c12.84-16.74 25.15-35.41 29.93-57.04.62-2.8 1.32-5.97 3.41-7.12 1.22-.67 2.95-.65 4.48-.62l92.57 1.4c2.91.04 5.78.32 7.05 2.04.97 1.32.93 3.41.8 5.43-.15 2.25-.33 4.5-.51 6.76-.8 9.86-1.62 20.05.71 29.91 2.91 12.35 10.4 22.75 17.64 32.81 3.63 5.05 7.39 10.27 10.49 15.64.12.21.23.43.35.64-.88.29-1.67.8-2.35 1.52-2.44 2.61-2.81 7.37-2.39 10.66l2.45 19.11c.23 1.87.37 4.12-.72 5-.94.75-2.7.22-3.65-.76-1.24-1.28-1.84-3.21-2.44-5.42-4.13-15.2-7.2-30.82-9.14-46.45-.12-1-.98-1.76-1.98-1.76-.01 0-.01 0-.02 0-.09 0-.18 0-.27.02-.34.01-.65.05-.95.13-2.78.67-3.9 3.57-4.75 5.76-.59 1.51-1.2 3.08-2.12 3.81-.55.44-1.26.56-2.11.36-1.42-.34-2.85-1.52-3.49-2.87-.97-2.07-1.04-4.53-1.11-7.14-.02-.86-.04-1.72-.1-2.58-.34-5.26-2.35-9.06-5.67-10.69-.63-.31-1.37-.27-1.96.1-6.79 4.32-7.92 13.34-8.14 20.72-.61 19.8.24 39.82 2.5 59.5l.11.93c1.28 11.06 2.61 22.49-2.66 31.62-.5.88-1.2 1.94-2.09 2.31-1.32.54-3.08-.59-3.84-1.95-1.04-1.82-1.11-4.28-1.18-6.45-.85-27.88-1.49-56.18-1.91-84.11-.08-5.48-.17-11.68-2.73-17.19-.37-.78-1.19-1.24-2.05-1.14-4.08.48-6.36 4.09-8.37 7.27-2.22 3.52-3.47 5.14-5.32 4.81-2.95-.54-3.1-6.16-3.07-7.87l.34-22.46c.02-1.03-.74-1.89-1.75-2.02-4.7-.58-8.65 2.79-10.49 6.38-1.68 3.28-2.07 6.86-2.45 10.32l-.08.7c-2 18.16-7 35.74-14.84 52.24l-.53 1.13c-2.27 4.73-4.61 9.62-4.56 15.09.06 6.37 4.62 13.22 11.31 13.28.88.01 1.69-.1 2.49-.2 1.23-.16 2.29-.3 3.09.04 2.06.85 1.99 4.74 1.77 6.99l-8.93 88.37c-.22 2.26-.48 4.82-1.72 6.63-.93 1.36-2.92 2.33-4.2 1.59-1.35-.79-1.69-3.16-1.83-4.87-1.15-14.45 1.48-29.14 4.01-43.35 1.72-9.62 3.5-19.57 4.14-29.49.27-4.25.13-10.27-4.25-13.45-2.78-2.03-6.16-2.04-9.14-2.04-2.09-.01-4.06-.01-5.73-.62-2.92-1.07-5.2-4.3-5.8-8.24-.59-3.89.25-7.96 1.07-11.89l5.12-24.57c.24-1.16.61-2.92-.24-4.59-1.35-2.63-4.78-3.11-7.15-1.91-2 1.02-3.21 2.85-4.18 4.49-3.53 5.93-6.29 12.3-8.2 18.93l-.36 1.29c-.99 3.51-1.92 6.83-4.18 9.08-1.72 1.72-4.13 2.69-6.68 3.72-1.54.62-3.13 1.26-4.64 2.1-4.48 2.49-7.69 6.39-10.8 10.16-1.77 2.15-3.6 4.38-5.61 6.23-3.45 3.21-7.56 5.53-11.91 7.98-2.2 1.24-4.48 2.52-6.65 3.93-6.62 4.27-12.39 9.75-17.98 15.05-6.82 6.47-13.26 12.59-21.17 16.81-2.06 1.09-4.65 1.84-5.77.65-1.39-1.47.56-4.66 2.21-6.44 6.52-7.04 14.09-12.93 22.51-17.53.59-.32 1.19-.64 1.79-.96 3.9-2.07 7.93-4.21 10.82-7.83 1.68-2.11 2.79-4.5 3.86-6.81.25-.53.5-1.07.75-1.6 4.25-8.83 10.65-16.59 18.51-22.44 2.19-1.63 4.56-3.16 6.86-4.65 5.39-3.48 10.96-7.08 15.02-12.35 3.21-4.17 5.2-9.03 7.11-13.72 1.72-4.21 3.34-8.19 5.78-11.71 2.14-3.1 4.85-5.74 7.71-8.53 2.86-2.8 5.83-5.69 8.19-9.11 5.16-7.45 6.19-18.82-1.13-24.21-.73-.54-1.73-.52-2.44.05l-22.45 18.08c-2.06 1.66-3.93 3.04-5.9 3.1-2.62.06-4.8-2.31-5.65-4.7-.98-2.73-.8-5.8-.47-9.22zm-32.85 251.66c4.14.75 8.32 1.33 12.5 1.81-2.18 1.85-4.39 4.64-3.7 8.17.59 3.02 3.36 5.46 7.05 6.21 1.77.36 3.49.36 5.17.35.94 0 1.83 0 2.7.06 2.32.16 4.63.8 6.72 1.85-13.49 7.59-32.06 5.83-43.62-4.53-.6-.54-1.19-1.1-1.78-1.66-1.63-1.56-3.32-3.17-5.36-4.41-3.57-2.17-7.51-2.55-10.53-1.03-.94.47-1.61 1.06-2.05 1.79-1.29 2.16-.07 4.52.45 5.53l3.74 7.19c-4.8 1.56-10.1 1.25-15.67.93h-.06c-6.09-.35-12.4-.71-18.29 1.49-1.17.44-2.65 1.1-3.76 2.37-2.02 2.29-2.17 5.95-.36 8.9 1.54 2.54 4.07 4.08 6.11 5.15 1.84.96 3.76 1.79 5.62 2.59 3.69 1.58 7.18 3.08 9.99 5.53 1.04.89 1.05 1.33 1.05 1.39-.02.27-.69.84-2.44 1.28-12.28 3.12-24.96 5.46-37.23 7.72-11.05 2.04-22.48 4.14-33.83 5.15-6.96.61-14.29.82-20.78-1.81.07-.05.15-.1.25-.16 7.38-4.06 15.83-6.48 24-8.82 10.52-3.01 21.41-6.13 30.44-12.82 3.11-2.31 4.29-5.14 3.15-7.57-.66-1.41-1.94-2.21-2.99-2.74-4.83-2.47-10.23-3.07-15.44-3.65-4.45-.5-8.71-.97-12.46-2.53 5.46-3.76 11.86-5.98 18.57-8.31 4.62-1.6 9.4-3.25 13.86-5.47 2.74-1.35 4.05-3.42 3.51-5.52-.47-1.82-2.17-2.71-2.89-3.09-7.97-4.19-16.77-6.37-25.28-8.48-3.07-.76-6.25-1.55-9.32-2.41-.43-.13-.73-.25-.94-.36.19-.11.47-.23.88-.37 18.07-5.82 37.59-7.77 56.45-5.62.54.06 1.06-.1 1.45-.42 3.53 1.17 7.03 2.37 10.5 3.55 14.42 4.92 29.33 10 44.62 12.77zm264.02-34.31c3.29 1.55 6.76 2.64 10.12 3.7 3.77 1.18 7.33 2.3 10.66 4.01 4.06 2.1 7.93 6.12 6.8 10.01-1.2 4.18-7.3 5.29-9.14 5.53-2.66.34-9.21.72-12.62-3.26-1.18-1.38-1.91-3.19-2.68-5.1-.18-.43-.35-.86-.53-1.28-1.02-2.44-2.56-5.44-5.42-7.1-1.77-1.02-3.99-1.29-5.95-.72-1.63.47-2.94 1.5-3.67 2.89-1.56 2.98-.16 6.04.98 8.5.23.52.47 1.03.68 1.54.02.05.03.09.05.14-.07.02-.16.05-.26.07-5.13 1.38-10.76.11-16.22-1.12l-1.47-.33c-6.69-1.48-13.72-2.41-19.83.79-.97.51-1.35 1.7-.86 2.67 1.51 3 5.04 3.45 7.38 3.75 5.25.67 10.35 2.17 15.13 4.45 2.07.98 3.94 2.64 3.53 3.9-.39 1.2-2.62 1.61-4.42 1.75-8.03.61-16.17.88-24.22.82-8.45-.07-18.12-.53-25.86-5.25-.74-.45-1.76-1.15-1.99-1.91-.26-.85.46-1.95 1.3-2.54 1.11-.77 2.6-1.11 4.18-1.47l.31-.07c5.34-1.24 10.61-2.94 15.65-5.07 3.69-1.55 3.99-3.79 3.84-4.98-.17-1.36-1.1-3.15-4.59-3.91-9.51-2.06-19.33-2.47-28.82-2.87-7.54-.31-15.34-.64-22.85-1.8-1.56-.24-3.12-.57-4.26-1.24 4.43-4.88 10.54-8.27 17.03-9.4.53-.09.98-.39 1.27-.79 5.66-1.38 11.19-3.21 16.59-5 7.82-2.59 15.9-5.28 24.08-6.45 9.31-1.34 19.12-.8 28.61-.27 8.21.45 16.58.91 24.79.17-3.32 5.26-4.41 9.29-3.23 12 1.19 2.73 3.78 4.23 5.91 5.24zm25.59-30.84c-1.36.66-2.71 1.34-4.06 2.03-2.65 1.35-5.4 2.75-8.1 3.85-12.67 5.11-26.28 4.35-40.68 3.55-9.68-.53-19.69-1.09-29.4.31-8.53 1.23-16.78 3.97-24.77 6.61-7.78 2.59-15.83 5.26-23.98 6.44-11.62 1.69-23.67.4-35.32-.84-6.48-.7-13.17-1.41-19.8-1.63-26.85-.87-53.17 6.43-78.63 13.49-19.94 5.53-40.57 11.26-61.29 12.99-.52.04-.97.29-1.3.64-4.01-.45-8.02-.92-12.01-1.41-.31-.04-.61 0-.88.09-11.52-3.87-23.33-7.59-35.37-9.93-5.04-.98-10.2-1.73-15.18-2.46-8.6-1.25-17.49-2.54-25.87-5.04-6.86-2.04-13.62-4.95-20.14-7.77-7.55-3.26-15.36-6.63-23.51-8.75-6.87-1.79-13.91-2.65-20.96-2.94 27.19-10.66 55.43-28.35 77.04-48.46 1.41-1.31 2.81-2.64 4.21-3.98 6.8-6.48 13.83-13.18 22.22-17.22 2.87-1.39 5.99-2.5 9.01-3.57 3.34-1.19 6.8-2.42 10.08-4.06 11.46-5.76 19.8-16.11 27.17-25.24 21.14-26.22 43-53.32 64.56-80.28 1.96-2.46 3.96-4.96 5.97-7.5.07 1.75.33 3.46.93 5.14 1.29 3.63 4.83 7.47 9.54 7.34 3.48-.1 6.26-2.34 8.29-3.97l21.14-17.02c3.93 4.23 2.87 12.24-.91 17.7-2.15 3.1-4.85 5.74-7.71 8.53-2.87 2.8-5.84 5.69-8.2 9.11-2.69 3.88-4.47 8.25-6.19 12.48-1.9 4.65-3.69 9.05-6.58 12.79-3.64 4.72-8.68 7.98-14.02 11.43-2.35 1.52-4.78 3.09-7.07 4.8-8.39 6.23-15.21 14.5-19.74 23.92-.26.55-.51 1.1-.77 1.65-1.01 2.19-1.97 4.26-3.36 5.99-2.37 2.97-5.87 4.83-9.57 6.8-.61.33-1.22.65-1.82.98-8.81 4.8-16.72 10.97-23.53 18.33-3.06 3.3-5.48 8.4-2.2 11.89 2.3 2.44 6.15 2.49 10.57.13 8.39-4.47 15.33-11.06 22.05-17.43 5.45-5.17 11.09-10.52 17.39-14.59 2.07-1.34 4.3-2.6 6.45-3.81 4.35-2.45 8.86-4.99 12.67-8.52 2.19-2.04 4.11-4.37 5.97-6.62 3-3.65 5.84-7.09 9.66-9.22 1.29-.72 2.7-1.28 4.19-1.88 2.8-1.14 5.7-2.3 8.01-4.6 3-2.99 4.12-6.97 5.2-10.83l.35-1.26c1.82-6.31 4.44-12.36 7.79-18 .72-1.2 1.51-2.43 2.56-2.96.66-.34 1.6-.19 1.78.16.2.41 0 1.38-.12 1.96l-5.11 24.56c-.85 4.09-1.82 8.71-1.11 13.31.65 4.27 3.19 9.5 8.38 11.39 2.33.85 4.75.86 7.09.87 2.6 0 5.06.01 6.8 1.27 2.12 1.54 2.94 4.71 2.61 9.96-.62 9.7-2.38 19.54-4.08 29.05-2.59 14.45-5.26 29.4-4.07 44.37.14 1.66.49 6.08 3.82 8.01.96.55 1.98.8 3 .8 2.56 0 5.1-1.55 6.5-3.59 1.81-2.66 2.14-5.89 2.4-8.48l8.92-88.38c.61-5.95-.81-9.68-4.21-11.09-1.79-.74-3.56-.51-5.13-.31-.03 0-.06.01-.09.01-.67.09-1.3.17-1.85.16-4.28-.04-7.31-4.94-7.35-9.32-.04-4.54 2.1-9.01 4.17-13.33l.54-1.13c8.03-16.91 13.14-34.91 15.2-53.52l.08-.71c.35-3.24.68-6.3 2.02-8.92.91-1.78 2.64-3.56 4.66-4.11l-.31 20.32c-.1 6.79 2.22 11.12 6.36 11.86 4.72.85 7.32-3.28 9.42-6.6 1.3-2.07 2.55-4.05 4.07-4.95 1.55 4.34 1.62 9.21 1.69 13.93.42 27.95 1.07 56.27 1.92 84.17.07 2.5.17 5.61 1.68 8.3 1.65 2.91 5.41 5.09 8.85 3.68 2.01-.83 3.22-2.58 4.04-4.01 5.92-10.27 4.46-22.92 3.17-34.08l-.11-.92c-2.25-19.49-3.08-39.32-2.48-58.93.19-6.31.99-13.15 5.27-16.72 1.97 1.75 2.41 5.19 2.51 6.73.05.8.07 1.61.09 2.43.08 2.9.16 5.9 1.49 8.73 1.16 2.46 3.59 4.44 6.19 5.06 2.03.48 3.99.08 5.51-1.11 1.78-1.41 2.62-3.59 3.37-5.51.27-.69.5-1.25.71-1.71 1.97 14.68 4.93 29.34 8.81 43.62.58 2.13 1.37 5.04 3.44 7.16 2.19 2.25 6.26 3.31 9.02 1.08 2.97-2.4 2.41-6.76 2.17-8.62l-2.44-19.11c-.38-3 .19-6.18 1.34-7.42.4-.42.81-.58 1.39-.55h.03c4.45 8.72 7.74 18.15 10.93 27.32 1.07 3.09 2.18 6.28 3.32 9.4 7.86 21.55 18.11 42.32 30.41 61.79.02.19.05.38.12.56.17.45.49.79.87 1.01 12.2 19.05 26.37 36.84 42.2 52.88z"/><path d="m434.88 73.51c-5.52 1.1-10.66 5.59-12.52 10.91-.53 1.5-.79 3.1-.79 4.7 0 3.04.93 6.12 2.7 8.66 2.61 3.74 6.95 6.26 11.61 6.74.56.05 1.1.08 1.64.08 1.54 0 3.01-.23 4.39-.69 4.35-1.46 7.4-4.7 8.56-9.13 1.52-5.76-.35-13.05-4.54-17.71-2.84-3.16-6.77-4.42-11.05-3.56zm8.07 6.24c3.29 3.66 4.83 9.55 3.65 14.01-.57 2.18-2.07 5.05-5.96 6.36-1.3.43-2.8.58-4.35.42-3.52-.36-6.79-2.25-8.74-5.05-1.98-2.85-2.52-6.59-1.42-9.76 1.41-3.99 5.4-7.47 9.53-8.3 2.01-.41 4.91-.33 7.29 2.32z"/><path d="m279.27 47.28c2.49 1.33 5.29 1.73 7.72 2 .26.03.81.09.93.16.11.14.21.74.27 1.1.05.3.1.6.17.89 1.08 4.73 6.04 6.89 9.95 7.3.67.07 1.35.11 2.02.11 6.97 0 13.68-3.72 17.16-9.66 3.87-6.62 3.14-15.59-1.74-21.33-4.61-5.42-11.87-7.93-19.91-6.88-9.01 1.18-17.04 6.57-20.46 13.73-.6 1.27-1.39 3.2-1.24 5.32.2 2.89 2.16 5.67 5.13 7.26zm-.28-10.85c2.85-5.98 9.67-10.49 17.37-11.49 1.02-.13 2.03-.2 3.02-.2 5.43 0 10.18 2.01 13.33 5.7 3.81 4.49 4.37 11.52 1.32 16.72-2.98 5.1-9.27 8.22-15.31 7.59-2.8-.29-5.89-1.71-6.46-4.21-.05-.22-.08-.44-.12-.66-.17-1.03-.41-2.44-1.6-3.46-1.02-.88-2.28-1.02-3.11-1.11-2.16-.24-4.41-.56-6.27-1.55-1.74-.94-2.93-2.51-3.03-4.01-.06-.9.21-1.96.86-3.32z"/></svg>