<svg width="640" height="493" viewBox="0 0 640 493" fill="none" xmlns="http://www.w3.org/2000/svg">
<path d="M-94.0502 143.296L-209.834 255.477C-217.61 263.011 -222 273.376 -222 284.204V402.84C-222 424.931 -204.091 442.84 -182 442.84H-112.327H224.5H523.28H753.221C757.757 442.84 762.26 443.611 766.537 445.121L895.688 490.718C899.966 492.228 904.469 493 909.005 493H1095.33C1099.46 493 1103.56 492.361 1107.49 491.106L1349.86 413.734C1353.8 412.479 1357.9 411.84 1362.03 411.84H1616H1716.77C1730.59 411.84 1743.44 404.7 1750.74 392.957L1785.97 336.278C1789.91 329.94 1792 322.625 1792 315.161V186.259C1792 164.168 1774.09 146.259 1752 146.259H1737.9C1729.33 146.259 1720.98 143.507 1714.09 138.408L1579.28 38.5969C1571.78 33.0413 1562.57 30.2857 1553.24 30.8077L1371.48 40.9852C1361.4 41.5495 1351.91 45.9045 1344.9 53.1763L1230.51 171.968C1222.97 179.798 1212.57 184.222 1201.7 184.222H1114.22C1105.98 184.222 1097.94 181.677 1091.2 176.936L997.254 110.838C990.515 106.096 982.476 103.552 974.237 103.552H774.378C765.129 103.552 756.166 106.757 749.014 112.622L609.117 227.349C601.966 233.214 593.002 236.42 583.753 236.42H404.477C395.84 236.42 387.436 233.625 380.52 228.452L262.243 139.991C255.327 134.819 246.922 132.024 238.286 132.024H-66.2164C-76.6062 132.024 -86.5883 136.066 -94.0502 143.296Z" fill="#2A8086"/>
<path d="M-93.6591 121.121L-208.066 219.407C-216.911 227.006 -222 238.086 -222 249.748V347.057C-222 369.148 -204.091 387.057 -182 387.057H-119.871C-114.885 387.057 -109.944 386.125 -105.301 384.309L85.0384 309.861C89.6814 308.045 94.6231 307.113 99.6087 307.113H400.575C409.044 307.113 417.294 309.801 424.137 314.789L512.749 379.381C519.592 384.369 527.842 387.057 536.311 387.057H749.593C756.465 387.057 763.22 388.827 769.208 392.196L893.017 461.86C899.005 465.23 905.761 467 912.632 467H1093.94C1098.97 467 1103.96 466.051 1108.64 464.202L1218.71 420.717L1351.1 388.21C1354.22 387.444 1357.42 387.057 1360.64 387.057H1555.71C1563.51 387.057 1571.14 384.776 1577.66 380.495L1714.71 290.533C1721.23 286.252 1728.86 283.972 1736.66 283.972H1752C1774.09 283.972 1792 266.063 1792 243.972V164.085C1792 141.994 1774.09 124.085 1752 124.085H1736.66C1728.86 124.085 1721.23 121.804 1714.71 117.524L1578.57 28.1589C1571.49 23.5069 1563.11 21.2265 1554.64 21.6469L1370.26 30.801C1360.92 31.2648 1352.03 34.9889 1345.15 41.3254L1230.19 147.172C1222.81 153.971 1213.14 157.745 1203.1 157.745H1113.01C1105.53 157.745 1098.19 155.645 1091.84 151.683L996.616 92.2793C990.265 88.3174 982.93 86.217 975.445 86.217H773.08C764.627 86.217 756.392 88.8946 749.555 93.8657L608.576 196.38C601.739 201.351 593.504 204.028 585.051 204.028H403.231C395.367 204.028 387.678 201.71 381.124 197.364L261.638 118.126C255.084 113.78 247.395 111.462 239.531 111.462H-67.5934C-77.1573 111.462 -86.4046 114.889 -93.6591 121.121Z" fill="#2A808D" fill-opacity="0.3"/>
</svg>
