<svg width="1200" height="346" viewBox="0 0 1200 346" fill="none" xmlns="http://www.w3.org/2000/svg">
<path d="M-190.05 105.296L-305.834 217.477C-313.61 225.011 -318 235.376 -318 246.204V364.84C-318 386.931 -300.091 404.84 -278 404.84H-208.327H128.5H427.28H657.221C661.757 404.84 666.26 405.611 670.537 407.121L799.688 452.718C803.966 454.228 808.469 455 813.005 455H999.327C1003.46 455 1007.56 454.361 1011.49 453.106L1253.86 375.734C1257.8 374.479 1261.9 373.84 1266.03 373.84H1520H1620.77C1634.59 373.84 1647.44 366.7 1654.74 354.957L1689.97 298.278C1693.91 291.94 1696 284.625 1696 277.161V148.259C1696 126.168 1678.09 108.259 1656 108.259H1641.9C1633.33 108.259 1624.98 105.507 1618.09 100.408L1483.28 0.59694C1475.78 -4.9587 1466.57 -7.71426 1457.24 -7.19228L1275.48 2.98515C1265.4 3.54955 1255.91 7.90448 1248.9 15.1763L1134.51 133.968C1126.97 141.798 1116.57 146.222 1105.7 146.222H1018.22C1009.98 146.222 1001.94 143.677 995.202 138.936L901.254 72.8375C894.515 68.0964 886.476 65.5519 878.237 65.5519H678.378C669.129 65.5519 660.166 68.7573 653.014 74.6225L513.117 189.349C505.966 195.214 497.002 198.42 487.753 198.42H308.477C299.84 198.42 291.436 195.625 284.52 190.452L166.243 101.991C159.327 96.8188 150.922 94.0236 142.286 94.0236H-162.216C-172.606 94.0236 -182.588 98.0662 -190.05 105.296Z" fill="#2A8086"/>
<path d="M-189.823 66.9831L-304.751 170.365C-313.184 177.951 -318 188.761 -318 200.104V305.292C-318 327.384 -300.091 345.292 -278 345.292H-216.2C-211.001 345.292 -205.852 344.279 -201.041 342.308L-11.2218 264.569C-6.41052 262.599 -1.26123 261.585 3.93793 261.585H304.086C312.856 261.585 321.383 264.467 328.354 269.788L416.532 337.089C423.503 342.41 432.03 345.292 440.8 345.292H653.167C660.308 345.292 667.319 347.204 673.472 350.829L796.754 423.463C802.906 427.088 809.917 429 817.058 429H997.61C1002.86 429 1008.05 427.968 1012.9 425.962L1122.71 380.538L1254.9 346.552C1258.15 345.716 1261.5 345.292 1264.86 345.292H1459.25C1467.34 345.292 1475.24 342.839 1481.9 338.256L1618.46 244.39C1625.13 239.807 1633.03 237.354 1641.12 237.354H1656C1678.09 237.354 1696 219.445 1696 197.354V109.939C1696 87.8473 1678.09 69.9387 1656 69.9387H1641.12C1633.03 69.9387 1625.13 67.4853 1618.46 62.9024L1482.85 -30.3132C1475.6 -35.2982 1466.91 -37.7524 1458.12 -37.2955L1274.73 -27.7618C1265.1 -27.2614 1255.98 -23.3021 1249.04 -16.6122L1134.33 93.9804C1126.87 101.168 1116.92 105.184 1106.57 105.184H1017.46C1009.69 105.184 1002.09 102.921 995.589 98.6725L900.867 36.7992C894.362 32.5504 886.761 30.2877 878.992 30.2877H677.569C668.815 30.2877 660.302 33.1595 653.337 38.4626L512.794 145.471C505.829 150.774 497.316 153.646 488.562 153.646H307.699C299.544 153.646 291.583 151.153 284.885 146.502L165.878 63.8659C159.179 59.2145 151.219 56.7217 143.063 56.7217H-163.072C-172.95 56.7217 -182.479 60.3769 -189.823 66.9831Z" fill="#2A808D" fill-opacity="0.3"/>
</svg>
